<svg xmlns:xlink="http://www.w3.org/1999/xlink" xmlns="http://www.w3.org/2000/svg" version="1.1"
     preserveAspectRatio="none" x="0px" y="0px" width="1920px" height="1939px" viewBox="0 0 1920 1939">
    <defs>
        <filter id="Filter_1" x="-20%" y="-20%" width="140%" height="140%" color-interpolation-filters="sRGB">
            <feColorMatrix in="SourceGraphic" type="matrix" values="1 0 0 0 0 0 1 0 0 0 0 0 1 0 0 0 0 0 0.5 0"
                           result="result1"/>
        </filter>

        <g id="Layer1_0_FILL">
            <path fill="#000000" stroke="none" d="
M 658.8 -1030.1
Q 660.25 -1031.6 660.25 -1033.75 660.25 -1035.85 658.8 -1037.4 657.35 -1038.9 655.35 -1038.9 653.35 -1038.9 651.9 -1037.4 650.45 -1035.85 650.45 -1033.75 650.45 -1031.6 651.9 -1030.1 653.35 -1028.6 655.35 -1028.6 657.35 -1028.6 658.8 -1030.1
M 647.3 -1139.45
Q 646.5060546875 -1140.278515625 645.45 -1140.55
L 645.45 -1131.7
Q 646.5060546875 -1132.0298828125 647.3 -1133.1 648.75 -1134.3 648.75 -1136.1 648.75 -1137.95 647.3 -1139.45 Z"/>
        </g>

        <g id="bg2_0_Layer0_0_FILL">
            <path fill="#000000" stroke="none" d="
M 86.8 1822.35
L 86.8 1902.35 166.8 1902.35 166.8 1822.35 86.8 1822.35
M 80 1822.35
L 0 1822.35 0 1902.35 80 1902.35 80 1822.35
M 80 1735.55
L 0 1735.55 0 1815.55 80 1815.55 80 1735.55
M 80 1648.75
L 0 1648.75 0 1728.75 80 1728.75 80 1648.75
M 166.8 1728.75
L 166.8 1648.75 86.8 1648.75 86.8 1728.75 166.8 1728.75
M 253.6 1728.75
L 253.6 1648.75 173.6 1648.75 173.6 1728.75 253.6 1728.75
M 340.4 1815.55
L 340.4 1735.55 260.4 1735.55 260.4 1815.55 340.4 1815.55
M 340.4 1902.35
L 340.4 1822.35 260.4 1822.35 260.4 1902.35 340.4 1902.35
M 427.2 1728.75
L 427.2 1648.75 347.2 1648.75 347.2 1728.75 427.2 1728.75
M 340.4 1561.95
L 260.4 1561.95 260.4 1641.95 340.4 1641.95 340.4 1561.95
M 340.4 1208.4
L 340.4 1128.4 260.4 1128.4 260.4 1208.4 340.4 1208.4
M 427.2 1555.6
L 427.2 1475.6 347.2 1475.6 347.2 1555.6 427.2 1555.6
M 427.2 1561.95
L 347.2 1561.95 347.2 1641.95 427.2 1641.95 427.2 1561.95
M 427.2 1468.8
L 427.2 1388.8 347.2 1388.8 347.2 1468.8 427.2 1468.8
M 166.8 1561.95
L 86.8 1561.95 86.8 1641.95 166.8 1641.95 166.8 1561.95
M 260.4 1475.6
L 260.4 1555.6 340.4 1555.6 340.4 1475.6 260.4 1475.6
M 253.6 1555.6
L 253.6 1475.6 173.6 1475.6 173.6 1555.6 253.6 1555.6
M 253.6 1561.95
L 173.6 1561.95 173.6 1641.95 253.6 1641.95 253.6 1561.95
M 253.6 1468.8
L 253.6 1388.8 173.6 1388.8 173.6 1468.8 253.6 1468.8
M 86.8 1475.6
L 86.8 1555.6 166.8 1555.6 166.8 1475.6 86.8 1475.6
M 0 1468.8
L 80 1468.8 80 1388.8 0 1388.8 0 1468.8
M 86.8 1388.8
L 86.8 1468.8 166.8 1468.8 166.8 1388.8 86.8 1388.8
M 0 1382
L 80 1382 80 1302 0 1302 0 1382
M 80 1215.2
L 0 1215.2 0 1295.2 80 1295.2 80 1215.2
M 260.4 1215.2
L 260.4 1295.2 340.4 1295.2 340.4 1215.2 260.4 1215.2
M 166.8 1295.2
L 166.8 1215.2 86.8 1215.2 86.8 1295.2 166.8 1295.2
M 260.4 1302
L 260.4 1382 340.4 1382 340.4 1302 260.4 1302
M 166.8 1128.4
L 86.8 1128.4 86.8 1208.4 166.8 1208.4 166.8 1128.4
M 166.8 1034.8
L 166.8 954.8 86.8 954.8 86.8 1034.8 166.8 1034.8
M 253.6 1128.4
L 173.6 1128.4 173.6 1208.4 253.6 1208.4 253.6 1128.4
M 86.8 1041.6
L 86.8 1121.6 166.8 1121.6 166.8 1041.6 86.8 1041.6
M 80 1128.4
L 0 1128.4 0 1208.4 80 1208.4 80 1128.4
M 80 954.8
L 0 954.8 0 1034.8 80 1034.8 80 954.8
M 166.8 948
L 166.8 868 86.8 868 86.8 948 166.8 948
M 253.6 948
L 253.6 868 173.6 868 173.6 948 253.6 948
M 427.2 1121.6
L 427.2 1041.6 347.2 1041.6 347.2 1121.6 427.2 1121.6
M 340.4 1121.6
L 340.4 1041.6 260.4 1041.6 260.4 1121.6 340.4 1121.6
M 427.2 948
L 427.2 868 347.2 868 347.2 948 427.2 948
M 427.2 954.8
L 347.2 954.8 347.2 1034.8 427.2 1034.8 427.2 954.8
M 340.4 781.2
L 260.4 781.2 260.4 861.2 340.4 861.2 340.4 781.2
M 427.2 781.2
L 347.2 781.2 347.2 861.2 427.2 861.2 427.2 781.2
M 347.2 694.4
L 347.2 774.4 427.2 774.4 427.2 694.4 347.2 694.4
M 427.2 687.6
L 427.2 607.6 347.2 607.6 347.2 687.6 427.2 687.6
M 260.4 520.8
L 260.4 600.8 340.4 600.8 340.4 520.8 260.4 520.8
M 253.6 781.2
L 173.6 781.2 173.6 861.2 253.6 861.2 253.6 781.2
M 173.6 694.4
L 173.6 774.4 253.6 774.4 253.6 694.4 173.6 694.4
M 86.8 694.4
L 86.8 774.4 166.8 774.4 166.8 694.4 86.8 694.4
M 80 774.4
L 80 694.4 0 694.4 0 774.4 80 774.4
M 80 781.2
L 0 781.2 0 861.2 80 861.2 80 781.2
M 80 520.8
L 0 520.8 0 600.8 80 600.8 80 520.8
M 80 434
L 0 434 0 514 80 514 80 434
M 253.6 514
L 253.6 434 173.6 434 173.6 514 253.6 514
M 260.4 434
L 260.4 514 340.4 514 340.4 434 260.4 434
M 253.6 520.8
L 173.6 520.8 173.6 600.8 253.6 600.8 253.6 520.8
M 166.8 514
L 166.8 434 86.8 434 86.8 514 166.8 514
M 166.8 347.2
L 86.8 347.2 86.8 427.2 166.8 427.2 166.8 347.2
M 253.6 340.4
L 253.6 260.4 173.6 260.4 173.6 340.4 253.6 340.4
M 86.8 260.4
L 86.8 340.4 166.8 340.4 166.8 260.4 86.8 260.4
M 80 347.2
L 0 347.2 0 427.2 80 427.2 80 347.2
M 80 80
L 80 0 0 0 0 80 80 80
M 80 86.8
L 0 86.8 0 166.8 80 166.8 80 86.8
M 253.6 166.8
L 253.6 86.8 173.6 86.8 173.6 166.8 253.6 166.8
M 253.6 173.6
L 173.6 173.6 173.6 253.6 253.6 253.6 253.6 173.6
M 253.6 80
L 253.6 0 173.6 0 173.6 80 253.6 80
M 340.4 253.6
L 340.4 173.6 260.4 173.6 260.4 253.6 340.4 253.6
M 427.2 347.2
L 347.2 347.2 347.2 427.2 427.2 427.2 427.2 347.2
M 427.2 340.4
L 427.2 260.4 347.2 260.4 347.2 340.4 427.2 340.4
M 340.4 166.8
L 340.4 86.8 260.4 86.8 260.4 166.8 340.4 166.8
M 340.4 80
L 340.4 0 260.4 0 260.4 80 340.4 80
M 427.2 80
L 427.2 0 347.2 0 347.2 80 427.2 80 Z"/>
        </g>

        <g id="bg3_0_Layer0_0_FILL">
            <path fill="#000000" stroke="none" d="
M 202.85 347.2
L 138.9 347.2 138.9 411.2 202.85 411.2 202.85 347.2
M 138.9 202.9
L 202.85 202.9 202.85 138.9 138.9 138.9 138.9 202.9
M 272.3 347.2
L 208.3 347.2 208.3 411.2 272.3 411.2 272.3 347.2
M 133.45 347.2
L 69.45 347.2 69.45 411.2 133.45 411.2 133.45 347.2
M 69.45 341.75
L 133.45 341.75 133.45 277.75 69.45 277.75 69.45 341.75
M 64 347.2
L 0 347.2 0 411.2 64 411.2 64 347.2
M 64 277.75
L 0 277.75 0 341.75 64 341.75 64 277.75
M 138.9 208.3
L 138.9 272.3 202.85 272.3 202.85 208.3 138.9 208.3
M 133.45 272.3
L 133.45 208.3 69.45 208.3 69.45 272.3 133.45 272.3
M 64 69.45
L 0 69.45 0 133.45 64 133.45 64 69.45
M 64 64
L 64 0 0 0 0 64 64 64
M 202.85 133.45
L 202.85 69.45 138.9 69.45 138.9 133.45 202.85 133.45
M 272.3 138.9
L 208.3 138.9 208.3 202.9 272.3 202.9 272.3 138.9
M 208.3 133.45
L 272.3 133.45 272.3 69.45 208.3 69.45 208.3 133.45
M 202.85 64
L 202.85 0 138.9 0 138.9 64 202.85 64
M 272.3 64
L 272.3 0 208.3 0 208.3 64 272.3 64
M 341.75 341.75
L 341.75 277.75 277.75 277.75 277.75 341.75 341.75 341.75
M 341.75 272.3
L 341.75 208.3 277.75 208.3 277.75 272.3 341.75 272.3
M 341.75 64
L 341.75 0 277.75 0 277.75 64 341.75 64 Z"/>
        </g>

        <g id="bg4_0_Layer0_0_FILL">
            <path fill="#000000" stroke="none" d="
M 202.85 202.9
L 202.85 138.9 138.9 138.9 138.9 202.9 202.85 202.9
M 202.85 347.2
L 138.9 347.2 138.9 411.2 202.85 411.2 202.85 347.2
M 272.3 347.2
L 208.3 347.2 208.3 411.2 272.3 411.2 272.3 347.2
M 133.45 347.2
L 69.45 347.2 69.45 411.2 133.45 411.2 133.45 347.2
M 69.45 341.75
L 133.45 341.75 133.45 277.75 69.45 277.75 69.45 341.75
M 64 347.2
L 0 347.2 0 411.2 64 411.2 64 347.2
M 64 277.75
L 0 277.75 0 341.75 64 341.75 64 277.75
M 133.45 272.3
L 133.45 208.3 69.45 208.3 69.45 272.3 133.45 272.3
M 138.9 208.3
L 138.9 272.3 202.85 272.3 202.85 208.3 138.9 208.3
M 64 69.45
L 0 69.45 0 133.45 64 133.45 64 69.45
M 64 64
L 64 0 0 0 0 64 64 64
M 272.3 138.9
L 208.3 138.9 208.3 202.9 272.3 202.9 272.3 138.9
M 272.3 133.45
L 272.3 69.45 208.3 69.45 208.3 133.45 272.3 133.45
M 202.85 133.45
L 202.85 69.45 138.9 69.45 138.9 133.45 202.85 133.45
M 202.85 64
L 202.85 0 138.9 0 138.9 64 202.85 64
M 272.3 64
L 272.3 0 208.3 0 208.3 64 272.3 64
M 341.75 341.75
L 341.75 277.75 277.75 277.75 277.75 341.75 341.75 341.75
M 341.75 272.3
L 341.75 208.3 277.75 208.3 277.75 272.3 341.75 272.3
M 341.75 64
L 341.75 0 277.75 0 277.75 64 341.75 64 Z"/>
        </g>

        <g id="bg5_0_Layer0_0_FILL">
            <path fill="#000000" stroke="none" d="
M 64 1874.6
L 0 1874.6 0 1938.6 64 1938.6 64 1874.6
M 0 1869.15
L 64 1869.15 64 1805.15 0 1805.15 0 1869.15
M 0 1660.85
L 64 1660.85 64 1596.85 0 1596.85 0 1660.85
M 64 1527.4
L 0 1527.4 0 1591.4 64 1591.4 64 1527.4
M 64 1457.85
L 0 1457.85 0 1521.85 64 1521.85 64 1457.85
M 64 1388.4
L 0 1388.4 0 1452.4 64 1452.4 64 1388.4
M 64 1319
L 0 1319 0 1383 64 1383 64 1319
M 0 1175
L 64 1175 64 1111 0 1111 0 1175
M 64 1041.6
L 0 1041.6 0 1105.6 64 1105.6 64 1041.6
M 64 972.15
L 0 972.15 0 1036.15 64 1036.15 64 972.15
M 0 966.7
L 64 966.7 64 902.7 0 902.7 0 966.7
M 64 763.85
L 0 763.85 0 827.85 64 827.85 64 763.85
M 0 688.95
L 64 688.95 64 624.95 0 624.95 0 688.95
M 64 555.5
L 0 555.5 0 619.5 64 619.5 64 555.5
M 0 480.65
L 64 480.65 64 416.65 0 416.65 0 480.65
M 64 347.2
L 0 347.2 0 411.2 64 411.2 64 347.2
M 64 277.75
L 0 277.75 0 341.75 64 341.75 64 277.75
M 64 69.45
L 0 69.45 0 133.45 64 133.45 64 69.45
M 0 64
L 64 64 64 0 0 0 0 64 Z"/>
        </g>

        <g id="bg_0_Layer0_0_FILL">
            <path fill="#000000" stroke="none" d="
M 253.6 1902.35
L 253.6 1822.35 173.6 1822.35 173.6 1902.35 253.6 1902.35
M 86.8 1822.35
L 86.8 1902.35 166.8 1902.35 166.8 1822.35 86.8 1822.35
M 80 1822.35
L 0 1822.35 0 1902.35 80 1902.35 80 1822.35
M 80 1735.55
L 0 1735.55 0 1815.55 80 1815.55 80 1735.55
M 80 1648.75
L 0 1648.75 0 1728.75 80 1728.75 80 1648.75
M 166.8 1728.75
L 166.8 1648.75 86.8 1648.75 86.8 1728.75 166.8 1728.75
M 340.4 1815.55
L 340.4 1735.55 260.4 1735.55 260.4 1815.55 340.4 1815.55
M 427.2 1902.35
L 427.2 1822.35 347.2 1822.35 347.2 1902.35 427.2 1902.35
M 340.4 1728.75
L 340.4 1648.75 260.4 1648.75 260.4 1728.75 340.4 1728.75
M 340.4 1561.95
L 260.4 1561.95 260.4 1641.95 340.4 1641.95 340.4 1561.95
M 427.2 1555.15
L 427.2 1475.15 347.2 1475.15 347.2 1555.15 427.2 1555.15
M 427.2 1468.35
L 427.2 1388.35 347.2 1388.35 347.2 1468.35 427.2 1468.35
M 427.2 1294.75
L 427.2 1214.75 347.2 1214.75 347.2 1294.75 427.2 1294.75
M 347.2 1301.55
L 347.2 1381.55 427.2 1381.55 427.2 1301.55 347.2 1301.55
M 166.8 1561.95
L 86.8 1561.95 86.8 1641.95 166.8 1641.95 166.8 1561.95
M 253.6 1561.95
L 173.6 1561.95 173.6 1641.95 253.6 1641.95 253.6 1561.95
M 260.4 1475.15
L 260.4 1555.15 340.4 1555.15 340.4 1475.15 260.4 1475.15
M 86.8 1475.15
L 86.8 1555.15 166.8 1555.15 166.8 1475.15 86.8 1475.15
M 80 1561.95
L 0 1561.95 0 1641.95 80 1641.95 80 1561.95
M 0 1468.35
L 80 1468.35 80 1388.35 0 1388.35 0 1468.35
M 86.8 1388.35
L 86.8 1468.35 166.8 1468.35 166.8 1388.35 86.8 1388.35
M 80 1214.75
L 0 1214.75 0 1294.75 80 1294.75 80 1214.75
M 253.6 1294.75
L 253.6 1214.75 173.6 1214.75 173.6 1294.75 253.6 1294.75
M 260.4 1214.75
L 260.4 1294.75 340.4 1294.75 340.4 1214.75 260.4 1214.75
M 173.6 1301.55
L 173.6 1381.55 253.6 1381.55 253.6 1301.55 173.6 1301.55
M 166.8 1381.55
L 166.8 1301.55 86.8 1301.55 86.8 1381.55 166.8 1381.55
M 166.8 1127.95
L 86.8 1127.95 86.8 1207.95 166.8 1207.95 166.8 1127.95
M 253.6 1127.95
L 173.6 1127.95 173.6 1207.95 253.6 1207.95 253.6 1127.95
M 80 1127.95
L 0 1127.95 0 1207.95 80 1207.95 80 1127.95
M 80 954.35
L 0 954.35 0 1034.35 80 1034.35 80 954.35
M 80 867.55
L 0 867.55 0 947.55 80 947.55 80 867.55
M 253.6 954.35
L 173.6 954.35 173.6 1034.35 253.6 1034.35 253.6 954.35
M 166.8 947.55
L 166.8 867.55 86.8 867.55 86.8 947.55 166.8 947.55
M 253.6 947.55
L 253.6 867.55 173.6 867.55 173.6 947.55 253.6 947.55
M 340.4 1034.35
L 340.4 954.35 260.4 954.35 260.4 1034.35 340.4 1034.35
M 427.2 1127.95
L 347.2 1127.95 347.2 1207.95 427.2 1207.95 427.2 1127.95
M 427.2 1121.15
L 427.2 1041.15 347.2 1041.15 347.2 1121.15 427.2 1121.15
M 340.4 947.55
L 340.4 867.55 260.4 867.55 260.4 947.55 340.4 947.55
M 260.4 347.2
L 260.4 425.9 340.4 425.9 340.4 347.2 260.4 347.2
M 427.2 780.75
L 347.2 780.75 347.2 860.75 427.2 860.75 427.2 780.75
M 347.2 693.95
L 347.2 773.95 427.2 773.95 427.2 693.95 347.2 693.95
M 427.2 513.55
L 427.2 433.55 347.2 433.55 347.2 513.55 427.2 513.55
M 260.4 520.35
L 260.4 600.35 340.4 600.35 340.4 520.35 260.4 520.35
M 166.8 780.75
L 86.8 780.75 86.8 860.75 166.8 860.75 166.8 780.75
M 173.6 693.95
L 173.6 773.95 253.6 773.95 253.6 693.95 173.6 693.95
M 253.6 687.15
L 253.6 607.15 173.6 607.15 173.6 687.15 253.6 687.15
M 260.4 607.15
L 260.4 687.15 340.4 687.15 340.4 607.15 260.4 607.15
M 86.8 693.95
L 86.8 773.95 166.8 773.95 166.8 693.95 86.8 693.95
M 80 780.75
L 0 780.75 0 860.75 80 860.75 80 780.75
M 80 520.35
L 0 520.35 0 600.35 80 600.35 80 520.35
M 80 433.55
L 0 433.55 0 513.55 80 513.55 80 433.55
M 253.6 520.35
L 173.6 520.35 173.6 600.35 253.6 600.35 253.6 520.35
M 253.6 513.55
L 253.6 433.55 173.6 433.55 173.6 513.55 253.6 513.55
M 260.4 433.55
L 260.4 513.55 340.4 513.55 340.4 433.55 260.4 433.55
M 166.8 173.6
L 86.8 173.6 86.8 253.6 166.8 253.6 166.8 173.6
M 253.6 347.2
L 173.6 347.2 173.6 425.9 253.6 425.9 253.6 347.2
M 253.6 260.4
L 173.6 260.4 173.6 340.4 253.6 340.4 253.6 260.4
M 86.8 260.4
L 86.8 340.4 166.8 340.4 166.8 260.4 86.8 260.4
M 80.45 260.4
L 0.45 260.4 0.45 340.4 80.45 340.4 80.45 260.4
M 80.45 173.6
L 0.45 173.6 0.45 253.6 80.45 253.6 80.45 173.6
M 80.45 86.8
L 0.45 86.8 0.45 166.8 80.45 166.8 80.45 86.8
M 80.45 0
L 0.45 0 0.45 80 80.45 80 80.45 0
M 166.8 166.8
L 166.8 86.8 86.8 86.8 86.8 166.8 166.8 166.8
M 253.6 173.6
L 173.6 173.6 173.6 253.6 253.6 253.6 253.6 173.6
M 166.8 80
L 166.8 0 86.8 0 86.8 80 166.8 80
M 253.6 80
L 253.6 0 173.6 0 173.6 80 253.6 80
M 427.2 347.2
L 347.2 347.2 347.2 425.9 427.2 425.9 427.2 347.2
M 427.2 260.4
L 347.2 260.4 347.2 340.4 427.2 340.4 427.2 260.4
M 340.4 166.8
L 340.4 86.8 260.4 86.8 260.4 166.8 340.4 166.8
M 427.2 86.8
L 347.2 86.8 347.2 166.8 427.2 166.8 427.2 86.8 Z"/>
        </g>
    </defs>

    <g transform="matrix( 1, 0, 0, 1, 0,0) ">
        <use xlink:href="#Layer1_0_FILL"/>
    </g>

    <g transform="matrix( 0.7999725341796875, 0, 0, 0.79998779296875, 0,0) ">
        <g transform="matrix( 1, 0, 0, 1, 0,0) ">
            <use filter="url(#Filter_1)" xlink:href="#bg2_0_Layer0_0_FILL"/>
        </g>
    </g>

    <g transform="matrix( 1, 0, 0, 1, 0,1527.4) ">
        <g transform="matrix( 1, 0, 0, 1, 0,0) ">
            <use filter="url(#Filter_1)" xlink:href="#bg3_0_Layer0_0_FILL"/>
        </g>
    </g>

    <g transform="matrix( -1, 0, 0, -1, 1919.9,1938.6) ">
        <g transform="matrix( 1, 0, 0, 1, 0,0) ">
            <use filter="url(#Filter_1)" xlink:href="#bg4_0_Layer0_0_FILL"/>
        </g>
    </g>

    <g transform="matrix( 1, 0, 0, 1, 347.55,0) ">
        <g transform="matrix( 1, 0, 0, 1, 0,0) ">
            <use filter="url(#Filter_1)" xlink:href="#bg5_0_Layer0_0_FILL"/>
        </g>
    </g>

    <g transform="matrix( 1, 0, 0, -1, 1508.7,1938.6) ">
        <g transform="matrix( 1, 0, 0, 1, 0,0) ">
            <use filter="url(#Filter_1)" xlink:href="#bg5_0_Layer0_0_FILL"/>
        </g>
    </g>

    <g transform="matrix( -0.7999725341796875, 0, 0, 0.79998779296875, 1919.95,0) ">
        <g transform="matrix( 1, 0, 0, 1, 0,0) ">
            <use filter="url(#Filter_1)" xlink:href="#bg_0_Layer0_0_FILL"/>
        </g>
    </g>
</svg>
