
<svg xmlns="http://www.w3.org/2000/svg" version="1.1" xmlns:xlink="http://www.w3.org/1999/xlink" preserveAspectRatio="none" x="0px" y="0px" width="16px" height="16px" viewBox="0 0 16 16">
<defs>
<g id="Layer0_0_FILL">
<path fill="#000000" stroke="none" d="
M 14 6
L 15 6 15 1 12 1 12 2 11 2 11 3 10 3 10 5 9 5 9 7 7 7 7 5 6 5 6 3 5 3 5 2 4 2 4 1 1 1 1 6 2 6 2 8 3 8 3 9 4 9 4 10 3 10 3 11 2 11 2 13 3 13 3 14 4 14 4 15 6 15 6 14 7 14 7 12 9 12 9 14 10 14 10 15 12 15 12 14 13 14 13 13 14 13 14 11 13 11 13 10 12 10 12 9 13 9 13 8 14 8 14 6 Z"/>
</g>
</defs>

<g transform="matrix( 1, 0, 0, 1, 0,0) ">
<use xlink:href="#Layer0_0_FILL"/>
</g>
</svg>
