<svg xmlns:xlink="http://www.w3.org/1999/xlink" xmlns="http://www.w3.org/2000/svg" version="1.1"
     preserveAspectRatio="none" x="0px" y="0px" width="41px" height="5px" viewBox="0 0 41 5">
    <defs>
        <g id="Layer0_0_FILL">
            <path fill="#FFFFFF" stroke="none" d="
M 5 5
L 5 4 1 4 1 1 5 1 5 0 0 0 0 5 5 5
M 11 5
L 11 0 6 0 6 5 11 5
M 7 1
L 10 1 10 4 7 4 7 1
M 16 1
L 16 5 17 5 17 0 12 0 12 5 13 5 13 1 16 1
M 21 5
L 21 1 23 1 23 0 18 0 18 1 20 1 20 5 21 5
M 29 1
L 29 0 24 0 24 5 29 5 29 4 25 4 25 3 28 3 28 2 25 2 25 1 29 1
M 34 1
L 34 5 35 5 35 0 30 0 30 5 31 5 31 1 34 1
M 41 1
L 41 0 36 0 36 1 38 1 38 5 39 5 39 1 41 1 Z"/>
        </g>
    </defs>

    <g transform="matrix( 1, 0, 0, 1, 0,0) ">
        <use xlink:href="#Layer0_0_FILL"/>
    </g>
</svg>
