<svg xmlns:xlink="http://www.w3.org/1999/xlink" xmlns="http://www.w3.org/2000/svg" version="1.1"
     preserveAspectRatio="none" x="0px" y="0px" width="47px" height="5px" viewBox="0 0 47 5">
    <defs>
        <g id="Layer0_0_FILL">
            <path fill="#FFFFFF" stroke="none" d="
M 5 3
L 5 0 0 0 0 5 1 5 1 3 5 3
M 4 1
L 4 2 1 2 1 1 4 1
M 11 5
L 11 4 10 4 10 5 11 5
M 11 3
L 11 0 6 0 6 5 7 5 7 3 9 3 9 4 10 4 10 3 11 3
M 10 1
L 10 2 7 2 7 1 10 1
M 17 1
L 17 0 12 0 12 5 17 5 17 4 13 4 13 3 16 3 16 2 13 2 13 1 17 1
M 23 1
L 23 0 18 0 18 3 22 3 22 4 18 4 18 5 23 5 23 2 19 2 19 1 23 1
M 28 3
L 28 2 25 2 25 1 29 1 29 0 24 0 24 5 29 5 29 4 25 4 25 3 28 3
M 31 5
L 31 1 34 1 34 5 35 5 35 0 30 0 30 5 31 5
M 41 5
L 41 4 37 4 37 1 41 1 41 0 36 0 36 5 41 5
M 47 5
L 47 4 43 4 43 3 46 3 46 2 43 2 43 1 47 1 47 0 42 0 42 5 47 5 Z"/>
        </g>
    </defs>

    <g transform="matrix( 1, 0, 0, 1, 0,0) ">
        <use xlink:href="#Layer0_0_FILL"/>
    </g>
</svg>
