<svg xmlns:xlink="http://www.w3.org/1999/xlink" xmlns="http://www.w3.org/2000/svg" version="1.1"
     preserveAspectRatio="none" x="0px" y="0px" width="17px" height="5px" viewBox="0 0 17 5">
    <defs>
        <g id="Layer0_0_FILL">
            <path fill="#FFFFFF" stroke="none" d="
M 3 1
L 5 1 5 0 0 0 0 1 2 1 2 5 3 5 3 1
M 11 5
L 11 0 6 0 6 5 11 5
M 7 1
L 10 1 10 4 7 4 7 1
M 17 3
L 17 0 12 0 12 5 13 5 13 3 17 3
M 16 1
L 16 2 13 2 13 1 16 1 Z"/>
        </g>
    </defs>

    <g transform="matrix( 1, 0, 0, 1, 0,0) ">
        <use xlink:href="#Layer0_0_FILL"/>
    </g>
</svg>
