<svg xmlns:xlink="http://www.w3.org/1999/xlink" xmlns="http://www.w3.org/2000/svg" version="1.1"
     preserveAspectRatio="none" x="0px" y="0px" width="32px" height="32px" viewBox="0 0 32 32">
    <defs>
        <g id="Layer0_0_FILL">
            <path fill="#000000" stroke="none" d="
M 30 12
L 28 12 28 8 26 8 26 4 20 4 20 6 12 6 12 4 6 4 6 8 4 8 4 12 2 12 2 26 6 26 6 28 12 28 12 24 8 24 8 20 10 20 10 22 22 22 22 20 24 20 24 24 20 24 20 28 26 28 26 26 30 26 30 12
M 24 12
L 24 16 20 16 20 12 24 12
M 12 12
L 12 16 8 16 8 12 12 12 Z"/>
        </g>
    </defs>

    <g transform="matrix( 1, 0, 0, 1, 0,0) ">
        <use xlink:href="#Layer0_0_FILL"/>
    </g>
</svg>
