<svg xmlns:xlink="http://www.w3.org/1999/xlink" xmlns="http://www.w3.org/2000/svg" version="1.1"
     preserveAspectRatio="none" x="0px" y="0px" width="32px" height="32px" viewBox="0 0 32 32">
    <defs>
        <g id="Layer0_0_FILL">
            <path fill="#000000" stroke="none" d="
M 24 19
L 24 21 26 21 26 19 24 19
M 24 21
L 22 21 22 23 24 23 24 21
M 28 17
L 26 17 26 19 28 19 28 17
M 30 15
L 28 15 28 17 30 17 30 15
M 26 13
L 26 15 28 15 28 13 26 13
M 26 11
L 24 11 24 13 26 13 26 11
M 24 9
L 22 9 22 11 24 11 24 9
M 18 11
L 16 11 16 15 18 15 18 11
M 20 9
L 18 9 18 11 20 11 20 9
M 14 15
L 14 19 16 19 16 15 14 15
M 14 19
L 12 19 12 23 14 23 14 19
M 8 19
L 6 19 6 21 8 21 8 19
M 10 21
L 8 21 8 23 10 23 10 21
M 4 19
L 6 19 6 17 4 17 4 19
M 2 15
L 2 17 4 17 4 15 2 15
M 6 15
L 6 13 4 13 4 15 6 15
M 8 11
L 6 11 6 13 8 13 8 11
M 10 9
L 8 9 8 11 10 11 10 9 Z"/>
        </g>
    </defs>

    <g transform="matrix( 1, 0, 0, 1, 0,0) ">
        <use xlink:href="#Layer0_0_FILL"/>
    </g>
</svg>
