<svg xmlns:xlink="http://www.w3.org/1999/xlink" xmlns="http://www.w3.org/2000/svg" version="1.1"
     preserveAspectRatio="none" x="0px" y="0px" width="31px" height="5px" viewBox="0 0 31 5">
    <defs>
        <g id="Layer0_0_FILL">
            <path fill="#000000" stroke="none" d="
M 1 0
L 0 0 0 5 5 5 5 4 1 4 1 0
M 7 0
L 6 0 6 5 7 5 7 0
M 13 5
L 13 0 8 0 8 5 9 5 9 1 12 1 12 5 13 5
M 18 0
L 18 2 19 2 19 0 18 0
M 18 3
L 18 2 15 2 15 0 14 0 14 5 15 5 15 3 18 3
M 19 3
L 18 3 18 5 19 5 19 3
M 25 1
L 25 0 20 0 20 5 25 5 25 4 21 4 21 3 24 3 24 2 21 2 21 1 25 1
M 30 1
L 30 0 26 0 26 5 30 5 30 4 27 4 27 1 30 1
M 31 4
L 31 1 30 1 30 4 31 4 Z"/>
        </g>
    </defs>

    <g transform="matrix( 1, 0, 0, 1, 0,0) ">
        <use xlink:href="#Layer0_0_FILL"/>
    </g>
</svg>
