
<svg xmlns="http://www.w3.org/2000/svg" version="1.1" xmlns:xlink="http://www.w3.org/1999/xlink" preserveAspectRatio="none" x="0px" y="0px" width="63px" height="5px" viewBox="0 0 63 5">
<defs>
<g id="Layer0_0_FILL">
<path fill="#000000" stroke="none" d="
M 39 5
L 39 0 38 0 38 4 37 4 37 1 36 1 36 4 35 4 35 0 34 0 34 5 39 5
M 45 5
L 45 0 40 0 40 5 45 5
M 41 1
L 44 1 44 4 41 4 41 1
M 51 3
L 51 0 46 0 46 5 47 5 47 3 49 3 49 4 50 4 50 3 51 3
M 50 1
L 50 2 47 2 47 1 50 1
M 51 5
L 51 4 50 4 50 5 51 5
M 56 3
L 56 2 53 2 53 0 52 0 52 5 53 5 53 3 56 3
M 57 3
L 56 3 56 5 57 5 57 3
M 56 2
L 57 2 57 0 56 0 56 2
M 63 1
L 63 0 58 0 58 3 62 3 62 4 58 4 58 5 63 5 63 2 59 2 59 1 63 1
M 0 0
L 0 5 5 5 5 0 0 0
M 4 1
L 4 4 1 4 1 1 4 1
M 11 5
L 11 4 7 4 7 0 6 0 6 5 11 5
M 17 1
L 16 1 16 4 17 4 17 1
M 16 1
L 16 0 12 0 12 5 16 5 16 4 13 4 13 1 16 1
M 23 1
L 23 0 18 0 18 5 23 5 23 4 19 4 19 3 22 3 22 2 19 2 19 1 23 1
M 29 4
L 28 4 28 5 29 5 29 4
M 29 3
L 29 0 24 0 24 5 25 5 25 3 27 3 27 4 28 4 28 3 29 3
M 28 1
L 28 2 25 2 25 1 28 1 Z"/>
</g>
</defs>

<g transform="matrix( 1, 0, 0, 1, 0,0) ">
<use xlink:href="#Layer0_0_FILL"/>
</g>
</svg>
