
<svg xmlns="http://www.w3.org/2000/svg" version="1.1" xmlns:xlink="http://www.w3.org/1999/xlink" preserveAspectRatio="none" x="0px" y="0px" width="31px" height="5px" viewBox="0 0 31 5">
<defs>
<g id="Layer0_0_FILL">
<path fill="#000000" stroke="none" d="
M 4 4
L 4 5 5 5 5 4 4 4
M 4 3
L 5 3 5 0 0 0 0 5 1 5 1 3 3 3 3 4 4 4 4 3
M 4 1
L 4 2 1 2 1 1 4 1
M 11 5
L 11 0 6 0 6 5 11 5
M 7 1
L 10 1 10 4 7 4 7 1
M 16 5
L 17 5 17 0 12 0 12 5 13 5 13 1 14 1 14 4 15 4 15 1 16 1 16 5
M 22 5
L 23 5 23 0 18 0 18 5 19 5 19 4 22 4 22 5
M 22 1
L 22 3 19 3 19 1 22 1
M 29 5
L 29 0 28 0 28 4 25 4 25 2 24 2 24 5 29 5
M 31 5
L 31 0 30 0 30 5 31 5 Z"/>
</g>
</defs>

<g transform="matrix( 1, 0, 0, 1, 0,0) ">
<use xlink:href="#Layer0_0_FILL"/>
</g>
</svg>
