<svg xmlns:xlink="http://www.w3.org/1999/xlink" xmlns="http://www.w3.org/2000/svg" version="1.1"
     preserveAspectRatio="none" x="0px" y="0px" width="43px" height="5px" viewBox="0 0 43 5">
    <defs>
        <g id="Layer0_0_FILL">
            <path fill="#000000" stroke="none" d="
M 0 0
L 0 5 5 5 5 4 1 4 1 0 0 0
M 7 0
L 6 0 6 5 7 5 7 0
M 13 5
L 13 0 8 0 8 5 9 5 9 1 12 1 12 5 13 5
M 18 0
L 18 2 19 2 19 0 18 0
M 18 3
L 18 2 15 2 15 0 14 0 14 5 15 5 15 3 18 3
M 19 3
L 18 3 18 5 19 5 19 3
M 21 4
L 21 0 20 0 20 5 25 5 25 4 21 4
M 31 1
L 31 0 26 0 26 5 31 5 31 4 27 4 27 3 30 3 30 2 27 2 27 1 31 1
M 37 1
L 37 0 32 0 32 3 36 3 36 4 32 4 32 5 37 5 37 2 33 2 33 1 37 1
M 43 1
L 43 0 38 0 38 3 42 3 42 4 38 4 38 5 43 5 43 2 39 2 39 1 43 1 Z"/>
        </g>
    </defs>

    <g transform="matrix( 1, 0, 0, 1, 0,0) ">
        <use xlink:href="#Layer0_0_FILL"/>
    </g>
</svg>
