<svg xmlns:xlink="http://www.w3.org/1999/xlink" xmlns="http://www.w3.org/2000/svg" version="1.1"
     preserveAspectRatio="none" x="0px" y="0px" width="25px" height="5px" viewBox="0 0 25 5">
    <defs>
        <g id="Layer0_0_FILL">
            <path fill="#000000" stroke="none" d="
M 25 1
L 25 0 20 0 20 3 24 3 24 4 20 4 20 5 25 5 25 2 21 2 21 1 25 1
M 19 5
L 19 4 15 4 15 3 18 3 18 2 15 2 15 1 19 1 19 0 14 0 14 5 19 5
M 13 5
L 13 3 12 3 12 5 13 5
M 13 2
L 13 0 12 0 12 2 13 2
M 12 3
L 12 2 9 2 9 0 8 0 8 5 9 5 9 3 12 3
M 7 0
L 6 0 6 5 7 5 7 0
M 0 5
L 5 5 5 4 1 4 1 0 0 0 0 5 Z"/>
        </g>
    </defs>

    <g transform="matrix( 1, 0, 0, 1, 0,0) ">
        <use xlink:href="#Layer0_0_FILL"/>
    </g>
</svg>
