
<svg xmlns="http://www.w3.org/2000/svg" version="1.1" xmlns:xlink="http://www.w3.org/1999/xlink" preserveAspectRatio="none" x="0px" y="0px" width="29px" height="5px" viewBox="0 0 29 5">
<defs>
<g id="Layer0_0_FILL">
<path fill="#000000" stroke="none" d="
M 5 0
L 4 0 4 4 3 4 3 1 2 1 2 4 1 4 1 0 0 0 0 5 5 5 5 0
M 11 5
L 11 0 6 0 6 5 11 5
M 10 4
L 7 4 7 1 10 1 10 4
M 16 4
L 16 5 17 5 17 4 16 4
M 17 3
L 17 0 12 0 12 5 13 5 13 3 15 3 15 4 16 4 16 3 17 3
M 16 1
L 16 2 13 2 13 1 16 1
M 22 4
L 22 5 23 5 23 4 22 4
M 22 3
L 21 3 21 4 22 4 22 3
M 21 3
L 21 2 19 2 19 0 18 0 18 5 19 5 19 3 21 3
M 21 2
L 22 2 22 1 21 1 21 2
M 23 1
L 23 0 22 0 22 1 23 1
M 29 5
L 29 2 25 2 25 1 29 1 29 0 24 0 24 3 28 3 28 4 24 4 24 5 29 5 Z"/>
</g>
</defs>

<g transform="matrix( 1, 0, 0, 1, 0,0) ">
<use xlink:href="#Layer0_0_FILL"/>
</g>
</svg>
