<svg xmlns:xlink="http://www.w3.org/1999/xlink" xmlns="http://www.w3.org/2000/svg" version="1.1"
     preserveAspectRatio="none" x="0px" y="0px" width="293px" height="5px" viewBox="0 0 293 5">
    <defs>
        <g id="Layer0_0_FILL">
            <path fill="#FFFFFF" stroke="none" d="
M 5 3
L 5 0 0 0 0 5 1 5 1 3 5 3
M 4 1
L 4 2 1 2 1 1 4 1
M 7 0
L 6 0 6 5 7 5 7 0
M 9 5
L 9 4 8 4 8 5 9 5
M 10 3
L 9 3 9 4 10 4 10 3
M 9 1
L 9 0 8 0 8 1 9 1
M 10 1
L 9 1 9 2 10 2 10 1
M 12 4
L 12 5 13 5 13 4 12 4
M 11 3
L 11 2 10 2 10 3 11 3
M 12 3
L 11 3 11 4 12 4 12 3
M 12 1
L 11 1 11 2 12 2 12 1
M 13 1
L 13 0 12 0 12 1 13 1
M 19 5
L 19 4 15 4 15 3 18 3 18 2 15 2 15 1 19 1 19 0 14 0 14 5 19 5
M 25 5
L 25 4 21 4 21 0 20 0 20 5 25 5
M 31 5
L 31 0 26 0 26 5 27 5 27 4 30 4 30 5 31 5
M 30 1
L 30 3 27 3 27 1 30 1
M 37 1
L 37 0 32 0 32 1 34 1 34 5 35 5 35 1 37 1
M 39 0
L 38 0 38 5 39 5 39 0
M 45 5
L 45 0 40 0 40 5 45 5
M 44 1
L 44 4 41 4 41 1 44 1
M 51 5
L 51 0 46 0 46 5 47 5 47 1 50 1 50 5 51 5
M 87 5
L 87 4 86 4 86 5 87 5
M 87 1
L 87 0 86 0 86 1 87 1
M 88 3
L 87 3 87 4 88 4 88 3
M 88 2
L 88 1 87 1 87 2 88 2
M 89 3
L 89 2 88 2 88 3 89 3
M 91 5
L 91 4 90 4 90 5 91 5
M 90 1
L 91 1 91 0 90 0 90 1
M 92 2
L 92 1 91 1 91 2 92 2
M 92 4
L 92 3 91 3 91 4 92 4
M 93 3
L 93 2 92 2 92 3 93 3
M 133 5
L 133 0 132 0 132 2 129 2 129 0 128 0 128 5 129 5 129 3 132 3 132 5 133 5
M 137 5
L 137 1 139 1 139 0 134 0 134 1 136 1 136 5 137 5
M 142 1
L 142 5 143 5 143 1 145 1 145 0 140 0 140 1 142 1
M 151 3
L 151 0 146 0 146 5 147 5 147 3 151 3
M 150 1
L 150 2 147 2 147 1 150 1
M 157 1
L 157 0 152 0 152 3 156 3 156 4 152 4 152 5 157 5 157 2 153 2 153 1 157 1
M 159 3
L 158 3 158 4 159 4 159 3
M 158 1
L 158 2 159 2 159 1 158 1
M 161 5
L 161 4 160 4 160 5 161 5
M 162 4
L 162 3 161 3 161 4 162 4
M 163 2
L 164 2 164 1 163 1 163 2
M 163 3
L 163 2 162 2 162 3 163 3
M 165 1
L 165 0 164 0 164 1 165 1
M 166 4
L 166 5 167 5 167 4 166 4
M 168 4
L 168 3 167 3 167 4 168 4
M 169 3
L 169 2 168 2 168 3 169 3
M 170 0
L 170 1 171 1 171 0 170 0
M 170 2
L 170 1 169 1 169 2 170 2
M 177 5
L 177 4 173 4 173 1 177 1 177 0 172 0 172 5 177 5
M 183 5
L 183 0 178 0 178 5 179 5 179 4 182 4 182 5 183 5
M 182 1
L 182 3 179 3 179 1 182 1
M 189 1
L 189 0 184 0 184 5 189 5 189 4 185 4 185 3 188 3 188 2 185 2 185 1 189 1
M 194 5
L 195 5 195 0 190 0 190 5 191 5 191 1 194 1 194 5
M 201 5
L 201 0 196 0 196 5 201 5
M 200 1
L 200 4 197 4 197 1 200 1
M 207 1
L 207 0 202 0 202 5 207 5 207 2 204 2 204 3 206 3 206 4 203 4 203 1 207 1
M 213 5
L 213 0 208 0 208 5 213 5
M 212 1
L 212 4 209 4 209 1 212 1
M 214 4
L 214 5 215 5 215 4 214 4
M 221 5
L 221 0 216 0 216 5 217 5 217 1 220 1 220 5 221 5
M 227 5
L 227 4 223 4 223 0 222 0 222 5 227 5
M 228 4
L 228 5 229 5 229 4 228 4
M 230 3
L 229 3 229 4 230 4 230 3
M 231 3
L 231 2 230 2 230 3 231 3
M 231 1
L 231 2 232 2 232 1 231 1
M 233 1
L 233 0 232 0 232 1 233 1
M 239 3
L 239 0 234 0 234 5 235 5 235 3 239 3
M 238 1
L 238 2 235 2 235 1 238 1
M 245 5
L 245 0 240 0 240 5 241 5 241 4 244 4 244 5 245 5
M 244 1
L 244 3 241 3 241 1 244 1
M 251 1
L 251 0 246 0 246 5 251 5 251 2 248 2 248 3 250 3 250 4 247 4 247 1 251 1
M 257 5
L 257 4 253 4 253 3 256 3 256 2 253 2 253 1 257 1 257 0 252 0 252 5 257 5
M 263 5
L 263 2 259 2 259 1 263 1 263 0 258 0 258 3 262 3 262 4 258 4 258 5 263 5
M 265 4
L 266 4 266 3 265 3 265 4
M 264 4
L 264 5 265 5 265 4 264 4
M 268 1
L 267 1 267 2 268 2 268 1
M 267 2
L 266 2 266 3 267 3 267 2
M 269 1
L 269 0 268 0 268 1 269 1
M 275 3
L 275 0 270 0 270 5 271 5 271 3 275 3
M 274 1
L 274 2 271 2 271 1 274 1
M 277 5
L 277 4 276 4 276 5 277 5
M 278 3
L 277 3 277 4 278 4 278 3
M 278 1
L 277 1 277 2 278 2 278 1
M 276 1
L 277 1 277 0 276 0 276 1
M 280 4
L 280 5 281 5 281 4 280 4
M 280 3
L 279 3 279 4 280 4 280 3
M 279 3
L 279 2 278 2 278 3 279 3
M 279 1
L 279 2 280 2 280 1 279 1
M 281 1
L 281 0 280 0 280 1 281 1
M 287 5
L 287 0 286 0 286 4 285 4 285 1 284 1 284 4 283 4 283 0 282 0 282 5 287 5
M 293 0
L 292 0 292 4 291 4 291 1 290 1 290 4 289 4 289 0 288 0 288 5 293 5 293 0 Z"/>
        </g>
    </defs>

    <g transform="matrix( 1, 0, 0, 1, 0,0) ">
        <use xlink:href="#Layer0_0_FILL"/>
    </g>
</svg>
