<svg xmlns:xlink="http://www.w3.org/1999/xlink" xmlns="http://www.w3.org/2000/svg" version="1.1"
     preserveAspectRatio="none" x="0px" y="0px" width="16px" height="16px" viewBox="0 0 16 16">
    <defs>
        <g id="Layer1_0_FILL">
            <path fill="#000000" stroke="none" d="
M 0 16
L 16 16 16 0 0 0 0 16
M 14 14
L 2 14 2 2 14 2 14 14 Z"/>
        </g>

        <g id="Layer0_0_FILL">
            <path fill="#000000" stroke="none" d="
M 11 6
L 11 5 9 5 9 6 7 6 7 5 5 5 5 6 4 6 4 8 3 8 3 11 5 11 5 10 6 10 6 9 10 9 10 10 11 10 11 11 13 11 13 8 12 8 12 6 11 6 Z"/>
        </g>
    </defs>

    <g transform="matrix( 1, 0, 0, 1, 0,0) ">
        <use xlink:href="#Layer1_0_FILL"/>
    </g>

    <g transform="matrix( 1, 0, 0, 1, 0,0) ">
        <use xlink:href="#Layer0_0_FILL"/>
    </g>
</svg>
