<svg xmlns:xlink="http://www.w3.org/1999/xlink" xmlns="http://www.w3.org/2000/svg" version="1.1"
     preserveAspectRatio="none" x="0px" y="0px" width="16px" height="16px" viewBox="0 0 16 16">
    <defs>
        <g id="Layer1_0_FILL">
            <path fill="#000000" stroke="none" d="
M 0 0
L 0 16 16 16 16 0 0 0
M 15 1
L 15 15 1 15 1 1 15 1 Z"/>
        </g>

        <g id="Layer0_0_FILL">
            <path fill="#000000" stroke="none" d="
M 0 2
L 1 2 1 15 15 15 15 0 0 0 0 2
M 2 14
L 2 2 14 2 14 14 2 14
M 10 9
L 9 9 9 10 10 10 10 9
M 9 7
L 8 7 8 8 9 8 9 7
M 4 12
L 3 12 3 13 7 13 7 12 8 12 8 11 9 11 9 10 8 10 8 8 7 8 7 9 5 9 5 10 4 10 4 12
M 10 6
L 9 6 9 7 10 7 10 6
M 11 9
L 11 8 10 8 10 9 11 9
M 12 8
L 12 7 11 7 11 8 12 8
M 11 6
L 11 5 10 5 10 6 11 6
M 11 5
L 12 5 12 7 13 7 13 4 11 4 11 5 Z"/>
        </g>
    </defs>

    <g transform="matrix( 1, 0, 0, 1, 0,0) ">
        <use xlink:href="#Layer1_0_FILL"/>
    </g>

    <g transform="matrix( 1, 0, 0, 1, 0,0) ">
        <use xlink:href="#Layer0_0_FILL"/>
    </g>
</svg>
