
<svg xmlns="http://www.w3.org/2000/svg" version="1.1" xmlns:xlink="http://www.w3.org/1999/xlink" preserveAspectRatio="none" x="0px" y="0px" width="16px" height="16px" viewBox="0 0 16 16">
<defs>
<g id="Layer0_0_FILL">
<path fill="#000000" stroke="none" d="
M 14 3
L 13 3 13 4 10 4 10 1 11 1 11 0 2 0 2 16 14 16 14 3
M 9 1
L 9 5 13 5 13 15 3 15 3 1 9 1
M 8 5
L 8 3 4 3 4 5 8 5
M 12 12
L 4 12 4 13 12 13 12 12
M 4 10
L 4 11 10 11 10 10 4 10
M 12 9
L 12 8 4 8 4 9 12 9
M 12 7
L 12 6 4 6 4 7 12 7
M 12 1
L 11 1 11 2 12 2 12 1
M 13 3
L 13 2 12 2 12 3 13 3 Z"/>
</g>
</defs>

<g transform="matrix( 1, 0, 0, 1, 0,0) ">
<use xlink:href="#Layer0_0_FILL"/>
</g>
</svg>
