<svg xmlns:xlink="http://www.w3.org/1999/xlink" xmlns="http://www.w3.org/2000/svg" version="1.1"
     preserveAspectRatio="none" x="0px" y="0px" width="32px" height="32px" viewBox="0 0 32 32">
    <defs>
        <g id="Layer0_0_FILL">
            <path fill="#000000" stroke="none" d="
M 27 23
L 23 23 23 25 21 25 21 21 17 21 17 23 11 23 11 27 17 27 17 29 23 29 23 27 25 27 25 25 27 25 27 23
M 29 5
L 27 5 27 3 21 3 21 5 23 5 23 19 25 19 25 21 27 21 27 23 31 23 31 7 29 7 29 5
M 21 13
L 21 7 19 7 19 5 17 5 17 3 7 3 7 5 5 5 5 7 3 7 3 9 1 9 1 21 3 21 3 23 5 23 5 25 7 25 7 23 9 23 9 21 11 21 11 19 21 19 21 15 17 15 17 13 21 13 Z"/>
        </g>
    </defs>

    <g transform="matrix( 1, 0, 0, 1, 0,0) ">
        <use xlink:href="#Layer0_0_FILL"/>
    </g>
</svg>
