<svg xmlns:xlink="http://www.w3.org/1999/xlink" xmlns="http://www.w3.org/2000/svg" version="1.1"
     preserveAspectRatio="none" x="0px" y="0px" width="63px" height="5px" viewBox="0 0 63 5">
    <defs>
        <g id="Layer0_0_FILL">
            <path fill="#000000" stroke="none" d="
M 5 1
L 5 0 0 0 0 3 4 3 4 4 0 4 0 5 5 5 5 2 1 2 1 1 5 1
M 11 5
L 11 4 7 4 7 1 11 1 11 0 6 0 6 5 11 5
M 17 5
L 17 4 13 4 13 3 16 3 16 2 13 2 13 1 17 1 17 0 12 0 12 5 17 5
M 24 0
L 24 5 25 5 25 0 24 0
M 23 3
L 23 0 18 0 18 5 19 5 19 3 23 3
M 22 1
L 22 2 19 2 19 1 22 1
M 27 4
L 28 4 28 3 27 3 27 4
M 27 4
L 26 4 26 5 27 5 27 4
M 27 1
L 27 0 26 0 26 1 27 1
M 30 3
L 29 3 29 4 30 4 30 3
M 28 2
L 28 1 27 1 27 2 28 2
M 30 1
L 29 1 29 2 30 2 30 1
M 28 2
L 28 3 29 3 29 2 28 2
M 31 1
L 31 0 30 0 30 1 31 1
M 31 5
L 31 4 30 4 30 5 31 5
M 37 5
L 37 4 33 4 33 3 36 3 36 2 33 2 33 1 37 1 37 0 32 0 32 5 37 5
M 43 5
L 43 4 39 4 39 0 38 0 38 5 43 5
M 44 4
L 44 5 45 5 45 4 44 4
M 51 1
L 51 0 46 0 46 5 47 5 47 3 50 3 50 2 47 2 47 1 51 1
M 57 5
L 57 4 53 4 53 0 52 0 52 5 57 5
M 62 4
L 62 5 63 5 63 0 58 0 58 5 59 5 59 4 62 4
M 62 1
L 62 3 59 3 59 1 62 1 Z"/>
        </g>
    </defs>

    <g transform="matrix( 1, 0, 0, 1, 0,0) ">
        <use xlink:href="#Layer0_0_FILL"/>
    </g>
</svg>
