<svg xmlns:xlink="http://www.w3.org/1999/xlink" xmlns="http://www.w3.org/2000/svg" version="1.1"
     preserveAspectRatio="none" x="0px" y="0px" width="65px" height="5px" viewBox="0 0 65 5">
    <defs>
        <g id="Layer0_0_FILL">
            <path fill="#000000" stroke="none" d="
M 3 1
L 4 1 4 5 5 5 5 0 0 0 0 5 1 5 1 1 2 1 2 4 3 4 3 1
M 11 1
L 11 0 6 0 6 5 11 5 11 4 7 4 7 3 10 3 10 2 7 2 7 1 11 1
M 17 1
L 17 0 12 0 12 1 14 1 14 5 15 5 15 1 17 1
M 22 4
L 22 5 23 5 23 4 22 4
M 23 3
L 23 0 18 0 18 5 19 5 19 3 21 3 21 4 22 4 22 3 23 3
M 22 1
L 22 2 19 2 19 1 22 1
M 28 5
L 29 5 29 0 24 0 24 5 25 5 25 4 28 4 28 5
M 28 1
L 28 3 25 3 25 1 28 1
M 34 3
L 34 2 31 2 31 1 34 1 34 2 35 2 35 0 30 0 30 5 35 5 35 3 34 3 34 4 31 4 31 3 34 3
M 41 1
L 41 0 36 0 36 5 41 5 41 4 37 4 37 3 40 3 40 2 37 2 37 1 41 1
M 47 4
L 46 4 46 5 47 5 47 4
M 46 3
L 47 3 47 0 42 0 42 5 43 5 43 3 45 3 45 4 46 4 46 3
M 46 1
L 46 2 43 2 43 1 46 1
M 52 5
L 53 5 53 4 52 4 52 5
M 52 3
L 53 3 53 0 48 0 48 5 49 5 49 3 51 3 51 4 52 4 52 3
M 52 1
L 52 2 49 2 49 1 52 1
M 59 3
L 59 0 58 0 58 2 55 2 55 0 54 0 54 3 56 3 56 5 57 5 57 3 59 3
M 65 3
L 65 0 64 0 64 2 61 2 61 0 60 0 60 3 62 3 62 5 63 5 63 3 65 3 Z"/>
        </g>
    </defs>

    <g transform="matrix( 1, 0, 0, 1, 0,0) ">
        <use xlink:href="#Layer0_0_FILL"/>
    </g>
</svg>
