
<svg xmlns="http://www.w3.org/2000/svg" version="1.1" xmlns:xlink="http://www.w3.org/1999/xlink" preserveAspectRatio="none" x="0px" y="0px" width="53px" height="5px" viewBox="0 0 53 5">
<defs>
<g id="Layer0_0_FILL">
<path fill="#000000" stroke="none" d="
M 5 4
L 4 4 4 5 5 5 5 4
M 3 2
L 4 2 4 1 3 1 3 2
M 4 3
L 3 3 3 4 4 4 4 3
M 3 3
L 3 2 1 2 1 0 0 0 0 5 1 5 1 3 3 3
M 4 0
L 4 1 5 1 5 0 4 0
M 11 3
L 11 0 10 0 10 2 7 2 7 0 6 0 6 3 8 3 8 5 9 5 9 3 11 3
M 17 5
L 17 4 13 4 13 0 12 0 12 5 17 5
M 23 5
L 23 0 18 0 18 5 23 5
M 22 1
L 22 4 19 4 19 1 22 1
M 29 5
L 29 0 24 0 24 5 25 5 25 1 26 1 26 4 27 4 27 1 28 1 28 5 29 5
M 35 1
L 35 0 30 0 30 5 35 5 35 4 31 4 31 3 34 3 34 2 31 2 31 1 35 1
M 41 1
L 41 0 36 0 36 1 38 1 38 5 39 5 39 1 41 1
M 46 4
L 46 5 47 5 47 4 46 4
M 47 3
L 47 0 42 0 42 5 43 5 43 3 45 3 45 4 46 4 46 3 47 3
M 46 1
L 46 2 43 2 43 1 46 1
M 52 4
L 52 5 53 5 53 0 48 0 48 5 49 5 49 4 52 4
M 52 1
L 52 3 49 3 49 1 52 1 Z"/>
</g>
</defs>

<g transform="matrix( 1, 0, 0, 1, 0,0) ">
<use xlink:href="#Layer0_0_FILL"/>
</g>
</svg>
