<svg xmlns:xlink="http://www.w3.org/1999/xlink" xmlns="http://www.w3.org/2000/svg" version="1.1"
     preserveAspectRatio="none" x="0px" y="0px" width="32px" height="32px" viewBox="0 0 32 32">
    <defs>
        <g id="Layer0_0_FILL">
            <path fill="#000000" stroke="none" d="
M 30 2
L 30 0 2 0 2 2 0 2 0 30 2 30 2 32 30 32 30 30 32 30 32 2 30 2
M 24 4
L 24 6 26 6 26 8 28 8 28 10 26 10 26 8 24 8 24 6 14 6 14 4 24 4
M 22 12
L 22 10 12 10 12 8 22 8 22 10 24 10 24 12 26 12 26 14 24 14 24 12 22 12
M 22 16
L 24 16 24 28 20 28 20 20 18 20 18 18 14 18 14 20 12 20 12 28 8 28 8 14 10 14 10 16 12 16 12 14 14 14 14 12 20 12 20 14 22 14 22 16 Z"/>
        </g>
    </defs>

    <g transform="matrix( 1, 0, 0, 1, 0,0) ">
        <use xlink:href="#Layer0_0_FILL"/>
    </g>
</svg>
