<svg xmlns:xlink="http://www.w3.org/1999/xlink" xmlns="http://www.w3.org/2000/svg" version="1.1"
     preserveAspectRatio="none" x="0px" y="0px" width="200px" height="40px" viewBox="0 0 200 40">
    <defs>
        <filter id="Filter_1" x="-20%" y="-20%" width="140%" height="140%" color-interpolation-filters="sRGB">
            <feColorMatrix in="SourceGraphic" type="matrix" values="1 0 0 0 0 0 1 0 0 0 0 0 1 0 0 0 0 0 0.5 0"
                           result="result1"/>
        </filter>

        <g id="bits_0_Layer0_0_FILL">
            <path fill="#000000" stroke="none" d="
M 238.7 86.8
L 238.7 106.8 258.7 106.8 258.7 86.8 238.7 86.8
M 195.3 43.4
L 195.3 63.4 215.3 63.4 215.3 43.4 195.3 43.4
M 215.3 86.8
L 195.3 86.8 195.3 106.8 215.3 106.8 215.3 86.8
M 217 65.1
L 217 85.1 237 85.1 237 65.1 217 65.1
M 215.3 41.7
L 215.3 21.7 195.3 21.7 195.3 41.7 215.3 41.7
M 237 43.4
L 217 43.4 217 63.4 237 63.4 237 43.4
M 215.3 20
L 215.3 0 195.3 0 195.3 20 215.3 20
M 217 0
L 217 20 237 20 237 0 217 0
M 282.1 43.4
L 282.1 63.4 302.1 63.4 302.1 43.4 282.1 43.4
M 302.1 86.8
L 282.1 86.8 282.1 106.8 302.1 106.8 302.1 86.8
M 323.8 86.8
L 303.8 86.8 303.8 106.8 323.8 106.8 323.8 86.8
M 303.8 65.1
L 303.8 85.1 323.8 85.1 323.8 65.1 303.8 65.1
M 282.1 65.1
L 282.1 85.1 302.1 85.1 302.1 65.1 282.1 65.1
M 260.4 65.1
L 260.4 85.1 280.4 85.1 280.4 65.1 260.4 65.1
M 258.7 85.1
L 258.7 65.1 238.7 65.1 238.7 85.1 258.7 85.1
M 260.4 21.7
L 260.4 41.7 280.4 41.7 280.4 21.7 260.4 21.7
M 258.7 20
L 258.7 0 238.7 0 238.7 20 258.7 20
M 280.4 20
L 280.4 0 260.4 0 260.4 20 280.4 20
M 302.1 41.7
L 302.1 21.7 282.1 21.7 282.1 41.7 302.1 41.7
M 303.8 21.7
L 303.8 41.7 323.8 41.7 323.8 21.7 303.8 21.7
M 367.2 86.8
L 347.2 86.8 347.2 106.8 367.2 106.8 367.2 86.8
M 347.2 43.4
L 347.2 63.4 367.2 63.4 367.2 43.4 347.2 43.4
M 368.9 65.1
L 368.9 85.1 388.9 85.1 388.9 65.1 368.9 65.1
M 345.5 86.8
L 325.5 86.8 325.5 106.8 345.5 106.8 345.5 86.8
M 347.2 65.1
L 347.2 85.1 367.2 85.1 367.2 65.1 347.2 65.1
M 325.5 21.7
L 325.5 41.7 345.5 41.7 345.5 21.7 325.5 21.7
M 388.9 43.4
L 368.9 43.4 368.9 63.4 388.9 63.4 388.9 43.4
M 368.9 21.7
L 368.9 41.7 388.9 41.7 388.9 21.7 368.9 21.7
M 367.2 20
L 367.2 0 347.2 0 347.2 20 367.2 20
M 388.9 20
L 388.9 0 368.9 0 368.9 20 388.9 20 Z"/>
        </g>

        <g id="text_0_Layer0_0_FILL">
            <path fill="#000000" stroke="none" d="
M 13 0
L 0 0 0 13 13 13 13 0
M 8.65 4.35
L 4.35 4.35 4.35 10.1 2.9 10.1 2.9 2.9 10.1 2.9 10.1 10.1 8.65 10.1 8.65 4.35
M 27.45 13
L 27.45 0 14.45 0 14.45 13 27.45 13
M 24.55 2.9
L 24.55 10.1 17.35 10.1 17.35 2.9 24.55 2.9
M 23.1 8.65
L 23.1 4.35 18.8 4.35 18.8 8.65 23.1 8.65
M 47.65 13
L 47.65 0 34.65 0 34.65 13 47.65 13
M 43.35 5.8
L 43.35 7.2 44.8 7.2 44.8 10.1 37.55 10.1 37.55 2.9 44.8 2.9 44.8 5.8 43.35 5.8
M 43.35 5.8
L 43.35 4.35 39 4.35 39 5.8 43.35 5.8
M 43.35 8.65
L 43.35 7.2 39 7.2 39 8.65 43.35 8.65
M 62.1 13
L 62.1 0 49.1 0 49.1 13 62.1 13
M 53.45 8.65
L 53.45 10.1 52 10.1 52 2.9 59.2 2.9 59.2 10.1 57.8 10.1 57.8 8.65 53.45 8.65
M 53.45 7.2
L 57.8 7.2 57.8 4.35 53.45 4.35 53.45 7.2
M 63.55 13
L 76.55 13 76.55 0 63.55 0 63.55 13
M 72.2 10.1
L 72.2 4.35 67.9 4.35 67.9 10.1 66.45 10.1 66.45 2.9 73.65 2.9 73.65 10.1 72.2 10.1
M 91 13
L 91 0 78 0 78 13 91 13
M 88.1 2.9
L 88.1 10.1 86.65 10.1 86.65 4.35 82.35 4.35 82.35 10.1 80.9 10.1 80.9 2.9 88.1 2.9
M 105.45 13
L 105.45 0 92.45 0 92.45 13 105.45 13
M 102.55 8.65
L 102.55 10.1 95.35 10.1 95.35 2.9 102.55 2.9 102.55 4.35 96.75 4.35 96.75 5.8 101.1 5.8 101.1 7.2 96.75 7.2 96.75 8.65 102.55 8.65
M 119.9 0
L 106.9 0 106.9 13 119.9 13 119.9 0
M 115.55 10.1
L 115.55 8.65 114.1 8.65 114.1 7.2 111.2 7.2 111.2 10.1 109.75 10.1 109.75 2.9 117 2.9 117 7.2 115.55 7.2 115.55 8.65 117 8.65 117 10.1 115.55 10.1
M 115.55 5.8
L 115.55 4.35 111.2 4.35 111.2 5.8 115.55 5.8 Z"/>

            <path fill="#FFFFFF" stroke="none" d="
M 4.35 4.35
L 8.65 4.35 8.65 10.1 10.1 10.1 10.1 2.9 2.9 2.9 2.9 10.1 4.35 10.1 4.35 4.35
M 24.55 10.1
L 24.55 2.9 17.35 2.9 17.35 10.1 24.55 10.1
M 23.1 4.35
L 23.1 8.65 18.8 8.65 18.8 4.35 23.1 4.35
M 43.35 7.2
L 43.35 5.8 39 5.8 39 4.35 43.35 4.35 43.35 5.8 44.8 5.8 44.8 2.9 37.55 2.9 37.55 10.1 44.8 10.1 44.8 7.2 43.35 7.2 43.35 8.65 39 8.65 39 7.2 43.35 7.2
M 53.45 10.1
L 53.45 8.65 57.8 8.65 57.8 10.1 59.2 10.1 59.2 2.9 52 2.9 52 10.1 53.45 10.1
M 57.8 7.2
L 53.45 7.2 53.45 4.35 57.8 4.35 57.8 7.2
M 72.2 4.35
L 72.2 10.1 73.65 10.1 73.65 2.9 66.45 2.9 66.45 10.1 67.9 10.1 67.9 4.35 72.2 4.35
M 88.1 10.1
L 88.1 2.9 80.9 2.9 80.9 10.1 82.35 10.1 82.35 4.35 86.65 4.35 86.65 10.1 88.1 10.1
M 102.55 10.1
L 102.55 8.65 96.75 8.65 96.75 7.2 101.1 7.2 101.1 5.8 96.75 5.8 96.75 4.35 102.55 4.35 102.55 2.9 95.35 2.9 95.35 10.1 102.55 10.1
M 114.1 8.65
L 115.55 8.65 115.55 7.2 117 7.2 117 2.9 109.75 2.9 109.75 10.1 111.2 10.1 111.2 7.2 114.1 7.2 114.1 8.65
M 115.55 4.35
L 115.55 5.8 111.2 5.8 111.2 4.35 115.55 4.35
M 115.55 8.65
L 115.55 10.1 117 10.1 117 8.65 115.55 8.65 Z"/>
        </g>
    </defs>

    <g transform="matrix( -0.38568115234375, 0, 0, -0.3852691650390625, 275.3,40) ">
        <g transform="matrix( 1, 0, 0, 1, 0,0) ">
            <use filter="url(#Filter_1)" xlink:href="#bits_0_Layer0_0_FILL"/>
        </g>
    </g>

    <g transform="matrix( 1.3835906982421875, 0, 0, 1.384613037109375, 11.4,10.95) ">
        <g transform="matrix( 1, 0, 0, 1, 0,0) ">
            <use xlink:href="#text_0_Layer0_0_FILL"/>
        </g>
    </g>
</svg>
