<svg xmlns:xlink="http://www.w3.org/1999/xlink" xmlns="http://www.w3.org/2000/svg" version="1.1"
     preserveAspectRatio="none" x="0px" y="0px" width="128px" height="128px" viewBox="0 0 128 128">
    <defs>
        <g id="Layer2_0_FILL">
            <path fill="#000000" stroke="none" d="
M 105.45 11.55
L 104.15 11
Q 102.65 11.75 101.2 12.55 98.2 14 95.25 15.55 90.9 17.75 86.25 19.9 83.25 21.4 80.35 23.15 78.85 23.95 77.35 25.1
L 66.2 24.55
Q 63.25 24.65 58.25 25.15 54.75 25.3 52.1 25.75 51.55 25.8 51.1 25.9 50.8 25.95 50.5 26.1 50.3 26.1 50.15 26.1 47.45 26.55 48.35 26.45 46.85 26.75 45.35 27.05 45.15 26.8 45 26.6 44.95 26.6 44.95 26.55 43.8 25.2 42.65 23.9 39.9 21.2 36.45 19.3 32.7 17.2 28.8 15.5 26.45 14.5 24 13.75 23.2 15.1 22.95 16.6 22.7 18.55 22.55 20.6 22.25 23.75 22.05 26.85 22 28.65 22.05 30.55 22.2 32.3 22.35 34.1 22.45 35.9 22.65 37.75 22.85 40.25 22.95 42.85 23 45.4 22.95 47.95 22.85 50.9 21.95 53.45 21.85 53.9 21.7 54.25 20.45 57 19.45 59.95
L 19.2 60.45
Q 17.35 65.7 16.7 67.55 15.7 70.35 15.9 70.9 16 71.25 16.3 71.5 17.4 71.25 17.85 70.5 18.35 69.8 18.75 68.95 19.45 67.7 20 66.4 19.4 70.25 19 74.05 18.85 75.3 18.75 76.5 18.65 77.75 18.2 79.2 17.8 80.7 17.7 81.75 17.55 82.85 17.8 92 17.95 101.15 17.85 107.1 17.7 112.95 15.5 119.75 13.3 126.55 13.7 121.9 14.1 117.2 13.45 123.15 13.05 127.1 12.65 131.1 12.45 132.75 12.35 134.45 12.25 135.9 12.05 137.4 11.95 138.55 11.85 139.85 11.7 141.6 11.7 143.45 11.7 144.35 11.55 145.25 10.85 149.55 10.2 154 10 155.4 10.3 156.75 10.5 158.1 11.15 159.4
L 12.75 158.7 11.55 156.2
Q 13 156.25 14.4 156.3 17.2 156.45 19.9 156.45 24.05 156.5 28.15 156.7 30.85 156.75 33.6 156.8 35.05 156.95 36.45 157 37.85 157 39.2 157 44.75 157.25 50.15 157.2 54.65 157.15 59.15 157.3 62.6 157.4 66.1 157.45 67.85 157.45 69.5 157.45 71.3 157.45 73.05 157.5 74.85 157.5 76.55 157.5 80 157.5 83.45 157.5 86.95 157.5 90.5 157.5 97.45 157.55 104.4 157.4 107.8 157.3 111.25 157.25 111.25 157.8 111.4 158.3 111.4 158.45 111.6 158.6 111.65 158.7 111.7 158.75
L 111.75 158.8
Q 112.3 158.15 112.55 157.3 114.55 151.2 115.6 144.85 115.8 143.35 115.8 141.75 115.95 139.15 116.3 136.5 116.8 132.6 116.3 128.7 115.6 124.35 114.65 120.05 114.45 119.1 114.3 118.15 113.75 114.65 113.25 111.05 112.35 105.05 112.05 99.1 112 97.6 111.95 96.15 111.8 94.8 111.8 93.3 111.75 90.55 111.8 87.9 112 84.2 112.35 80.5 112.5 78.45 112.6 76.5 112.7 75.7 112.75 74.85 112.75 74.1 112.75 73.4 112.75 72.35 112.6 71.3 112.55 70.25 112.5 69.3 112.3 66.95 112.45 64.5 112.45 62.8 112.45 61.2 112.45 60.4 112.35 59.7 112.2 58.9 112.1 58.25 111.75 56.9 111.6 55.5 111.3 53.9 111.15 52.4 110.75 49.3 110.4 46.25 110.05 43.1 109.75 39.9 109.6 37.85 109.8 35.9 110.15 33.85 110.65 31.8
L 109.05 30.1 108.25 24.7
Q 109.05 23.15 109.7 21.55 109.95 21.2 109.8 20.75 109.8 20.65 109.75 20.6
L 107.6 20.6 105.45 11.55
M 106.25 22.7
L 106.55 24.5 104.1 30.65 107.6 31.75
Q 107.7 33.6 107.7 35.45 107.7 38.1 107.6 40.7
L 106.8 46.7
Q 106 45.45 105.05 44.3 104.15 43.1 103.2 41.85 102.35 40.75 101.4 39.7 100.4 38.5 99.35 37.35 98.25 36.25 97.25 35.3 96.1 34.25 94.95 33.3 92.6 31.3 90.25 29.35 91.25 28.25 92.2 27.15 93.25 26.1 94.45 25.1 96.65 23.1 99 21.2
L 98.6 22.75 99.25 23.55 106.25 22.7
M 107 27.4
L 107.4 30.05 106 29.85 107 27.4
M 81.1 55.95
Q 86.9 58.9 92.75 62 92.9 65.7 92.9 69.35 92.9 72.9 92.65 76.45 92.5 79.95 92.1 83.35 91.7 86.6 91.25 89.95 88.5 91.5 85.7 92.85 82.95 94.1 80.05 95.1 77.4 96 74.7 96.45 72 97.2 69.3 97.6 66.4 97.6 63.5 97.6 60.65 97.25 57.9 96.55 55.1 96.1 52.45 95.4 49.8 94.45 47.1 93.35 44.6 92.4 42.2 91.25 39.75 90 37.25 88.8 36.25 88.2 35.35 87.55 33.45 86.2 31.8 84.7 30.85 83.9 30.4 82.95 29.85 81.95 29.6 80.85 29.5 80.4 29.45 79.95 29.35 78.9 29.25 77.85 29.2 76.5 29.2 75.25 29.25 72.6 29.4 70.15 29.5 68 29.8 65.85 29.85 65.8 29.85 65.75 31.95 63.3 34.55 60.95 37.85 58.05 41.05 56.15 41.85 56.4 42.65 56.65 43.1 56.9 43.75 57 43.8 56.9 43.8 56.85 43.75 56 43.5 55.2 43.3 55 43.05 54.95 45.4 53.7 47.8 52.95 50 55.75 52.65 58.2 54.6 60 56.6 61.75 58.4 63.25 60.25 64.55 61.7 65.8 63.3 66.7 64.8 67.65 66.45 68.45
L 67.45 68.2
Q 67.55 67.4 67.65 66.7 67.9 62.45 68.05 58.2 68.3 54 68.55 49.75
L 78.4 54.55
Q 77.65 54.8 77.05 55.1 75.2 56 73.45 57.15 72.45 57.9 71.4 58.85
L 72.2 60.05
Q 72.65 59.65 73.2 59.2 74.2 58.4 75.35 57.85 76.9 56.95 78.65 56.55 79.85 56.15 81.1 55.95
M 35.2 33.1
Q 33.25 34.6 31.55 36.3 29.8 38.35 28.25 40.6 26.7 42.75 25.35 45
L 23.75 27.7 24.7 27.3 26.4 22.9 33.9 29.6 34.6 29.6 34.35 25.9 39.4 29.95
Q 37.25 31.4 35.2 33.1
M 71.65 105.3
Q 73.5 106.1 75.4 107.15 78.4 108.9 81.85 109.95 83.1 110.45 84.4 111.05 87.6 112.35 87.5 115.65 87.4 119.05 87 122.05 86.7 124.6 86.5 127.25 86.1 130.65 85.9 134
L 86.1 135.65 86.8 136.35 87.45 136.35 90.6 131.9 93.4 147.55 26.95 143.1 28 142.05
Q 28.25 141.45 28.45 140.75 30.35 135.6 32.25 130.6 35.45 122.15 38.5 113.6 39.25 111.45 41 109.95 42.95 108.35 45.25 107.95 47.8 107.3 50.35 106.45 53 105.85 55.5 105.05 55.8 106.8 56.3 108.45 56.65 109.6 57.45 110.45 58.4 111.45 59.65 111.95 61.15 112.5 62.9 112.8 64.95 112.8 67.05 112.8 68.45 112.8 69.6 112.1 70.2 111.7 70.65 111.25 71.1 110.85 71.2 110.3 71.5 108.9 71.55 107.6 71.65 106.45 71.65 105.3
M 65.1 110.5
Q 63.1 111.05 61.05 110.5 60.5 110.45 60 110.4 57 108.1 57.55 104.9 58.05 101.55 59.15 99.05
L 68.15 99.5
Q 68.7 101.35 69.05 103.35 69.4 104.95 69.85 106.3 70.15 106.9 70.1 107.95 70.05 108.45 69.9 109.05 69.85 109.3 69.7 109.55 69.6 109.85 69.45 110.05 67.3 110.6 65.1 110.5
M 12.3 141.9
L 12.25 137 12.6 138.85 13.5 135.25 12.3 141.9
M 39.2 77
Q 36.8 76.15 34.3 76.55
L 32.15 77.85
Q 32.95 78.4 33.85 78.45 36.8 79.2 39.6 79.3 40.9 79.3 42.15 79.55 42.95 80 43.3 79.2 43.3 79.05 43.2 78.9 42.5 78.25 41.8 77.85 40.45 77.45 39.2 77
M 89.05 79.6
Q 88.7 79.6 88.55 79.8 88.15 80.1 88.05 80.75
L 85.9 81.7
Q 86 79.75 84.1 79.05
L 82.65 79.6
Q 82.5 79.8 82.5 80.1 82.4 80.55 82.2 81 82.1 81.25 81.9 81.35
L 80.6 79.75 80 79.5
Q 78.15 79.75 76.9 80.75 76.1 81.35 76.3 82.3
L 79.8 81.45
Q 80 81.75 80.2 82.2 81.05 83.4 82.3 83
L 83.6 82.55 86.2 83.4 90 81.45
Q 90 80.9 89.8 80.6 89.45 80 89.05 79.6 Z"/>

            <path fill="#FFFFFF" stroke="none" d="
M 61.05 110.5
Q 63.1 111.05 65.1 110.5 67.3 110.6 69.45 110.05 69.6 109.85 69.7 109.55 69.85 109.3 69.9 109.05 70.05 108.45 70.1 107.95 70.15 106.9 69.85 106.3 69.4 104.95 69.05 103.35 68.7 101.35 68.15 99.5
L 59.15 99.05
Q 58.05 101.55 57.55 104.9 57 108.1 60 110.4 60.5 110.45 61.05 110.5
M 75.4 107.15
Q 73.5 106.1 71.65 105.3 71.65 106.45 71.55 107.6 71.5 108.9 71.2 110.3 71.1 110.85 70.65 111.25 70.2 111.7 69.6 112.1 68.45 112.8 67.05 112.8 64.95 112.8 62.9 112.8 61.15 112.5 59.65 111.95 58.4 111.45 57.45 110.45 56.65 109.6 56.3 108.45 55.8 106.8 55.5 105.05 53 105.85 50.35 106.45 47.8 107.3 45.25 107.95 42.95 108.35 41 109.95 39.25 111.45 38.5 113.6 35.45 122.15 32.25 130.6 30.35 135.6 28.45 140.75 28.25 141.45 28 142.05
L 26.95 143.1 93.4 147.55 90.6 131.9 87.45 136.35 86.8 136.35 86.1 135.65 85.9 134
Q 86.1 130.65 86.5 127.25 86.7 124.6 87 122.05 87.4 119.05 87.5 115.65 87.6 112.35 84.4 111.05 83.1 110.45 81.85 109.95 78.4 108.9 75.4 107.15
M 31.55 36.3
Q 33.25 34.6 35.2 33.1 37.25 31.4 39.4 29.95
L 34.35 25.9 34.6 29.6 33.9 29.6 26.4 22.9 24.7 27.3 23.75 27.7 25.35 45
Q 26.7 42.75 28.25 40.6 29.8 38.35 31.55 36.3
M 92.75 62
Q 86.9 58.9 81.1 55.95 79.85 56.15 78.65 56.55 76.9 56.95 75.35 57.85 74.2 58.4 73.2 59.2 72.65 59.65 72.2 60.05
L 71.4 58.85
Q 72.45 57.9 73.45 57.15 75.2 56 77.05 55.1 77.65 54.8 78.4 54.55
L 68.55 49.75
Q 68.3 54 68.05 58.2 67.9 62.45 67.65 66.7 67.55 67.4 67.45 68.2
L 66.45 68.45
Q 64.8 67.65 63.3 66.7 61.7 65.8 60.25 64.55 58.4 63.25 56.6 61.75 54.6 60 52.65 58.2 50 55.75 47.8 52.95 45.4 53.7 43.05 54.95 43.3 55 43.5 55.2 43.75 56 43.8 56.85 43.8 56.9 43.75 57 43.1 56.9 42.65 56.65 41.85 56.4 41.05 56.15 37.85 58.05 34.55 60.95 31.95 63.3 29.85 65.75 29.85 65.8 29.8 65.85 29.5 68 29.4 70.15 29.25 72.6 29.2 75.25 29.2 76.5 29.25 77.85 29.35 78.9 29.45 79.95 29.5 80.4 29.6 80.85 29.85 81.95 30.4 82.95 30.85 83.9 31.8 84.7 33.45 86.2 35.35 87.55 36.25 88.2 37.25 88.8 39.75 90 42.2 91.25 44.6 92.4 47.1 93.35 49.8 94.45 52.45 95.4 55.1 96.1 57.9 96.55 60.65 97.25 63.5 97.6 66.4 97.6 69.3 97.6 72 97.2 74.7 96.45 77.4 96 80.05 95.1 82.95 94.1 85.7 92.85 88.5 91.5 91.25 89.95 91.7 86.6 92.1 83.35 92.5 79.95 92.65 76.45 92.9 72.9 92.9 69.35 92.9 65.7 92.75 62
M 88.55 79.8
Q 88.7 79.6 89.05 79.6 89.45 80 89.8 80.6 90 80.9 90 81.45
L 86.2 83.4 83.6 82.55 82.3 83
Q 81.05 83.4 80.2 82.2 80 81.75 79.8 81.45
L 76.3 82.3
Q 76.1 81.35 76.9 80.75 78.15 79.75 80 79.5
L 80.6 79.75 81.9 81.35
Q 82.1 81.25 82.2 81 82.4 80.55 82.5 80.1 82.5 79.8 82.65 79.6
L 84.1 79.05
Q 86 79.75 85.9 81.7
L 88.05 80.75
Q 88.15 80.1 88.55 79.8
M 34.3 76.55
Q 36.8 76.15 39.2 77 40.45 77.45 41.8 77.85 42.5 78.25 43.2 78.9 43.3 79.05 43.3 79.2 42.95 80 42.15 79.55 40.9 79.3 39.6 79.3 36.8 79.2 33.85 78.45 32.95 78.4 32.15 77.85
L 34.3 76.55
M 107.4 30.05
L 107 27.4 106 29.85 107.4 30.05
M 106.55 24.5
L 106.25 22.7 99.25 23.55 98.6 22.75 99 21.2
Q 96.65 23.1 94.45 25.1 93.25 26.1 92.2 27.15 91.25 28.25 90.25 29.35 92.6 31.3 94.95 33.3 96.1 34.25 97.25 35.3 98.25 36.25 99.35 37.35 100.4 38.5 101.4 39.7 102.35 40.75 103.2 41.85 104.15 43.1 105.05 44.3 106 45.45 106.8 46.7
L 107.6 40.7
Q 107.7 38.1 107.7 35.45 107.7 33.6 107.6 31.75
L 104.1 30.65 106.55 24.5 Z"/>
        </g>

        <g id="Layer1_0_FILL">
            <path fill="#000000" stroke="none" d="
M 59.65 90.45
Q 58.15 90.4 56.6 89.4 55.8 88.95 55.3 88.25 54.95 87.8 54.8 87.75 54.6 87.65 54.35 87.8 54.1 87.95 54.05 88.2 53.95 88.55 54.35 89.25 54.7 89.6 55.65 90.35 57.3 91.2 58.5 91.5 59.75 91.8 60.6 91.65 62.1 91.5 63.25 90.35 63.85 89.75 64.15 89.9 64.35 89.95 64.65 90.2 65.05 90.6 65.9 91.05 66.9 91.5 68.3 91.65 69.85 91.75 70.9 91.5 71.65 91.25 72.7 90.75 73.7 90.2 74.2 89.75 74.65 89.15 74.3 88.75 74.05 88.45 73.65 88.7 73.3 88.9 73 89 71.3 90.45 69.05 90.45 66.85 90.45 65.05 89 64.15 88.4 63.7 88.45 63.35 88.5 62.6 89.35 61.5 90.45 59.65 90.45
M 41.6 57.85
Q 41.35 57.95 41.2 58 41 58.1 40.95 58.2 40.8 58.6 40.75 59 39.65 64.95 41 75.6
L 42.2 75.6
Q 42.2 75.4 42.2 75.25 42.2 74.95 42.2 74.6 42.45 66.85 42.65 59.15 42.65 58.6 42.5 58.3 42.2 57.9 41.6 57.85
M 82.5 58.15
Q 82.2 58.25 82.05 58.3 81.9 58.45 81.85 58.55 81.7 58.9 81.65 59.35 80.5 65.25 81.9 75.95
L 83.05 75.95
Q 83.05 75.75 83.1 75.55 83.1 75.3 83.1 74.95 83.35 67.2 83.55 59.5 83.55 58.9 83.4 58.65 83.05 58.2 82.5 58.15 Z"/>
        </g>

        <path id="Layer0_0_1_STROKES" stroke="#000000" stroke-width="16" stroke-linejoin="miter" stroke-linecap="square"
              stroke-miterlimit="3" fill="none" d="
M 0 0
L 128 0 128 128 0 128 0 0 Z"/>
    </defs>

    <g transform="matrix( 1, 0, 0, 1, 0,0) ">
        <use xlink:href="#Layer2_0_FILL"/>
    </g>

    <g transform="matrix( 1, 0, 0, 1, 0,0) ">
        <use xlink:href="#Layer1_0_FILL"/>
    </g>

    <g transform="matrix( 1, 0, 0, 1, 0,0) ">
        <use xlink:href="#Layer0_0_1_STROKES"/>
    </g>
</svg>
