<svg xmlns:xlink="http://www.w3.org/1999/xlink" xmlns="http://www.w3.org/2000/svg" version="1.1"
     preserveAspectRatio="none" x="0px" y="0px" width="128px" height="128px" viewBox="0 0 128 128">
    <defs>
        <g id="Layer1_0_FILL">
            <path fill="#000000" stroke="none" d="
M 28.45 229.1
Q 27.95 229.4 27.9 229.5
L 28.45 229.35 28.6 229.2 28.6 229.05 28.45 229.1
M 128 27.05
Q 126.7841796875 26.5291015625 125.65 25.95 123.45 24.85 121.3 23.7 109.6 17.65 97.85 23.35
L 96.75 11.35
Q 95.05 11.1 93.4 10.9 89.95 10.65 86.5 10.85 57.35 11.4 28.6 16.85 28.15 17.1 27.7 17.35 27.75 18.1 27.7 18.8 27.4 25.9 25.9 32.85
L 25 33.3 25.8 40.1 24.75 40.6 25.05 41.3 25.9 41.45 25.15 47.65 22.85 48.55 21.8 48.45
Q 18.35 50.65 16.6 54.45 16.25 55.3 16.4 56.15 17 59.15 20.15 59.35 15.85 63.35 11.65 67.5 10.8 68.25 10.95 69.45
L 17.55 70.8
Q 17.45 71.1 17.2 71.35 15.75 72.85 16.6 74.55
L 25.15 74 26.5 72.25 26.5 75.7
Q 22.4 76.65 18.2 77.5 15.35 77.95 13.65 79.45
L 27.05 89
Q 24.6 94.9 21.75 100.65 20.6 102.9 21.8 105.1
L 22.95 104.95 32.2 100.55
Q 32.3 100.8 32.4 101.15 32.55 101.8 32.75 102.45 33.15 103.95 33.5 105.45 34.2 108.75 36.7 110.4 36.75 110.3 36.85 110.25 37.05 110.05 37.2 109.8 37.35 109.55 37.5 109.3 38.35 107.5 38 105.7 39.75 107.55 41.55 109.45 41.65 109.55 41.8 109.7 41.3 110.15 40.8 110.6 40.25 111.15 40.2 111.85 40.05 113.9 39.75 116.05 39.15 120.2 41.85 123.05
L 41.65 124.2
Q 41.35 124.4 41.15 124.65 40.75 125.1 40.55 125.6 40.3 126.1 40.15 126.6 40.15 126.85 40.2 127.15 40.3265625 127.593359375 40.5 128
L 42.45 128 41.35 126.75 42.2 125.35 44.5 126.6
Q 44.6 126.5 44.75 126.55 45.1 126.6 45.65 127 45.8 127.05 46.15 127.15 46.5 127.3 46.65 127.4
L 46.65 127.45 48.2 128 65.55 128
Q 66.140625 127.346484375 66.8 126.75
L 68.25 126.65 70.25 125.85
Q 70.6572265625 126.901953125 71 128
L 87.75 128 89.55 127.4
Q 89.7 127.3 89.95 127.2 90.05 127.15 90.8 127.05 90.85 127.05 90.9 127.05
L 90.85 126.85 93.65 125.45 94.45 126.5 94.5 127.25 93.7 128 95.4 128
Q 95.478515625 127.8693359375 95.55 127.75 96.2 125.55 94.15 124.25
L 94.4 122.8
Q 95.3 122.1 95.4 121 96 117.45 96.1 114 96.2 112.2 95 110.75 93.5 109 91.8 107.75 89.7 104.8 88.7 104.5
L 90.5 102.8 92.3 105.1 93.35 104.75 97.55 94.75 98.6 98.85 100.2 91.35
Q 103.95 91.85 107.75 91.9 109.4 92.05 111.1 92.25 114 92.5 115.25 90.35
L 112.7 87.2 103 80.5
Q 118.6 73.75 119.1 72.35
L 118.5 71.85
Q 118.298046875 71.819140625 118 71.7
L 113.05 69
Q 110.05 67.5 108.45 67
L 106.8 66.4
Q 106.45 66.3 106.3 66 106.2912109375 65.9736328125 106.25 65.95
L 106 66
Q 106.1359375 65.9166015625 106.25 65.8 106.2623046875 65.6451171875 106.85 63.45 111.73359375 64.5583984375 111.9 64.6 113.75 64.9 114.75 63.4
L 114.75 62.65 116.05 61.8
Q 115.6 57.6 112.6 54.4
L 115.15 53.4 115.4 52.6 112.1 49.7 111.1 49.65
Q 111.2 49.25 111.25 48.85 111.25 48.25 111.1 47.8 110.95 47.15 110.6 46.65 108.2 43.7 104.4 42.3 104.5 42.25 104.5 42.2 104.6 42.1 104.55 42.1 104.35 41.85 104.15 41.65 103.9 41.4 103.6 41.3 101.9 40.3 99.9 40.85
L 99.05 34.4
Q 101.5 33.3 104.1 33.95 104.95 34.2 105.6 34.75 113.2 40.95 120.8 47.3 121.75 48.15 122.85 48.8 125.396484375 50.19453125 128 51.45
L 128 48.15
Q 123.40546875 44.741015625 119.55 40.35 116.05 36.35 111.55 33.4 109.15 31.75 106.55 30.75 102.7 29.45 99.75 26.85
L 98.5 26.7
Q 100.05 26.2 101.55 26.15 103.6 25.95 105.55 26.75 116.1 31.25 127.5 30.35 127.751171875 30.35 128 30.35
L 128 27.05
M 98.75 32.7
L 98.25 28.4
Q 99.9 29 101.55 29.6 105.55 31.15 109.1 33.7 119 40.85 127.3 49.8 118.45 45.05 111.9 37.35 106.55 31.1 98.75 32.7
M 97.2 32.6
Q 97.2 32.85 97.15 32.75 95.45 33.45 93.65 33.65 85.8 34.35 78 34.9
L 78.05 29.5 96.85 28.3 97.2 32.6
M 114.9 28.15
Q 113.05 27.7 111.45 26.85 106.9 24.6 101.8 24.65
L 98 25.15
Q 99.25 24.55 100.5 24 105.75 21.75 111.25 22.45 120.25 23.7 127.9 28.9 121.4 29.6 114.9 28.15
M 112.55 52.15
L 111.5 52.75
Q 110.85 54 111.35 55.4 112.5 57.95 114.2 60.7
L 113.65 61.05 113.1 62.75 107.85 61.3 107.75 60.45 107.2 59.9 104.75 52.5 109.2 52 108.65 51.6 110.45 50.6 112.55 52.15
M 102.55 66.25
L 116.65 72.6 102.3 78.95 102.55 66.25
M 95.05 88.35
L 95.15 88.25
Q 95.55 89.3 95.05 88.35
M 102.05 81.95
L 112.8 89.85 100.55 89.7 102.05 81.95
M 58.55 28.15
Q 59.3 28.35 59.95 28.05 63.5 26.85 66.8 25 71.25 22.6 76.15 21.65
L 76.15 37.1 65.75 37.75
Q 64.45 37.15 63.2 36.7 62.6 36.45 61.95 36.6 59.4 37.6 56.9 38.55 49.85 41.3 42.5 43.15
L 43.1 40.55 43.75 40.15 43.35 39.35 46.35 27.9 51.3 28.9
Q 51.45 28.75 51.45 28.55 51.5 28.35 51.4 28.2 51.1 27.8 50.75 27.7 48.6 26.8 46.65 25.9 46.6 25.9 46.65 25.65 52.7 26.3 58.55 28.15
M 43.1 33.15
L 41.9 39.1 27.35 39.5 27.4 34 43.1 33.15
M 24.85 60.35
L 26.45 60.4 24.2 69.3 23.9 72 18.35 72.85 18.85 69.75 13.65 68.35 23.1 59.6 25 59.7 24.85 60.35
M 36.55 96.3
L 35.55 96.7 35.55 95.8 36.55 96.3
M 26.6 77.25
L 28.15 87.75 16 79.85 26.6 77.25
M 73.4 101.65
Q 72.15 102.4 70.9 102.7 69.8 102.8 68.8 102.8 68.05 102.75 67.3 102.65 67.7 102.75 68.05 102.9 65.65 102.55 63.2 102.55
L 63.25 102.05
Q 63.55 102.05 63.85 102.05 63.5 102 63.25 101.9
L 63.25 100.6 63.45 99.65 65 99.25 71.85 98.4 73.4 101.65
M 68.8 103.7
Q 69.8 103.6 70.75 103.4 72.2 103.3 73.6 102.8
L 73.4 118.45 62.6 118.25 63.1 103.5
Q 63.45 103.5 63.85 103.55 65.65 103.45 67.3 103.7 68.05 103.7 68.8 103.7
M 65 122.3
Q 67.6 121.4 70.3 122
L 70.7 122.6 70.7 123.85
Q 70.25 124.1 69.9 124.35 68.9 125.1 67.75 125.3 66.55 125.6 65.45 125.1
L 65 122.3
M 52.75 106.75
L 51.6 107.25 51.6 107.2
Q 52.1 107 52.75 106.75
M 48.55 108.2
Q 48.55 108.35 50.55 107.65
L 49.45 119.25 49.7 124.35 47.15 124.05 47.2 124
Q 47.05 124.05 46.9 124.05 46.25 124.05 45.9 123.8
L 45.85 123.8
Q 42.75 122.9 41.4 120.1 41.2 119.6 41.05 116.55 40.9 113.5 42.5 111.25
L 43.7 109.45 48.55 108.2
M 43 108.55
Q 43.05 108.95 43.05 109.2 42.85 109.4 42.7 109.55 42.85 109.15 43 108.55
M 49.65 125.7
L 49.6 127 46.65 125.5 49.65 125.7
M 31.65 99
L 22.9 103.05 28.6 89.7 31.65 99
M 84.85 106.6
Q 86.9 106.95 88.8 107.65 89.9 108 91 108.5 94.5 110.15 94.6 113.8 94.7 116.7 94.15 119.6 93.6 122.45 90.95 123.6 90.95 123.9 90.7 124.05 90.5 124.3 89.9 124.3
L 89.2 124.3
Q 88.85 124.3 88.75 124.2 88.7 124.2 88.6 124.15
L 85.55 124.4 84.85 106.6
M 85.75 127.25
L 85.65 125.85 89.15 125.55 85.75 127.25
M 86 56.2
L 86.25 56.2
Q 88.95 65.5 89.2 74.6
L 91.6 69.95 93.35 87.55 92 88.4
Q 91.55 88.25 91.1 88.2 90.2 88 89.95 88.8 88.8 89.7 87.6 90.45 86.4 91.15 81.3 94.3 76.1 97.45 60.7 97.75 45.3 98.1 38.35 91.25 36.9 87.6 37 80.35 37.0333984375 75.4875 39.1 65.85
L 44.25 74.3
Q 44.5 74.35 44.6 74.2 44.9 73.95 45.2 73.75 45.2 74.5 45.25 75.3 45.3 79.45 45.35 80.45 45.6 82.85 46.25 85.1
L 47.2 84.85
Q 47.4 83.85 47.25 82.3 46.95 80.75 46.85 79.9 46.75 78.85 46.75 77.15 46.75 75.2 46.7 74.4 46.7 73.55 46.55 72.3 46.65 72.15 46.75 72 47.45 71.1 48.05 70.3 51.8 64.85 53.55 58.45
L 64.45 57.55 64.95 58.25 69.05 57.9 69.95 59.2
Q 69.842578125 59.0900390625 69.7 58.95
L 78.55 71.45 86.15 55.65
Q 86.0697265625 55.9275390625 86 56.2
M 60.4 93.6
Q 60.25 93.8 60.15 94.1 60.1 94.3 60.3 94.55 60.45 94.7 61.05 94.7
L 70.75 94.1
Q 71.55 94.05 71.65 93.6 71.85 92.95 70.9 92.75 69.7 92.4 67.2 92.7
L 61.35 93.35
Q 60.65 93.4 60.4 93.6
M 49.65 89.45
Q 49.6 89.25 49.2 89 48.2 88.4 47.35 88.7 47 88.85 46.25 89.5 45.65 90.05 45.15 90.15 45.15 89.55 45.1 89.25 45.05 88.75 44.8 88.45 44.2 87.8 43.35 88.2 42.75 88.4 42.15 89.2 41.85 89.7 41.7 90.1 41.6 90.7 42.15 91 42.55 91.15 43 90.85 43.15 90.7 43.6 90.05 43.7 90.3 43.8 91 43.9 91.55 44.25 91.75 44.5 91.85 44.9 91.8 46.4 91.75 46.9 91.15 47.25 91.2 47.3 91.55 47.45 92 47.55 92.05 47.8 92.35 48.15 92.25 48.5 92.1 48.7 91.8 49 91.45 49.2 90.55 49.35 90.45 49.6 90.05 49.7 89.75 49.65 89.45
M 83.3 85.1
Q 82.6 84.85 81.95 85.75 81.3 86.75 80.95 86.9 80.9 85.9 80.8 85.45 80.65 84.55 79.95 84.3 79.4 84.15 78.9 84.6 78.7 84.8 78.3 85.5
L 77.4 87.1
Q 76.9 88.05 77.25 88.5 77.65 88.9 78.25 88.55 78.6 88.35 78.9 87.75 79.15 88.25 78.95 89.35 78.7 90.35 78.85 90.85 79.15 91.35 79.6 91.45 80.3 91.45 80.8 90.55
L 82.45 87.85
Q 82.65 89.2 83.15 89.45 84 90 85.2 89.1 86.15 88.4 86.4 87.75 86.6 87.55 86.5 87.15 86.5 86.85 86.3 86.65 85.8 86.35 85.15 86.9 84.35 87.55 84 87.6 83.9 87.35 83.85 86.25 83.85 85.35 83.3 85.1
M 82.7 64.6
Q 81.95 64.75 82.2 66.15 82.7 69.2 82.85 73.05 82.9 73.85 82.85 75.5
L 82.85 78.65
Q 82.8 79.75 82.65 80.9 82.55 81.9 82.85 82.25 83.2 82.5 83.65 82.35 84.1 82.15 84.3 81.7 84.5 81.25 84.35 79.95 84.2 78.75 84.3 76.85 84.5 74.1 84.45 73.7 84.45 72.2 84.1 69.25
L 83.65 65.85
Q 83.45 64.5 82.7 64.6 Z"/>

            <path fill="#FFFFFF" stroke="none" d="
M 86.25 56.2
L 86 56.2
Q 86.0697265625 55.9275390625 86.15 55.65
L 78.55 71.45 69.7 58.95
Q 69.842578125 59.0900390625 69.95 59.2
L 69.05 57.9 64.95 58.25 64.45 57.55 53.55 58.45
Q 51.8 64.85 48.05 70.3 47.45 71.1 46.75 72 46.65 72.15 46.55 72.3 46.7 73.55 46.7 74.4 46.75 75.2 46.75 77.15 46.75 78.85 46.85 79.9 46.95 80.75 47.25 82.3 47.4 83.85 47.2 84.85
L 46.25 85.1
Q 45.6 82.85 45.35 80.45 45.3 79.45 45.25 75.3 45.2 74.5 45.2 73.75 44.9 73.95 44.6 74.2 44.5 74.35 44.25 74.3
L 39.1 65.85
Q 37.0333984375 75.4875 37 80.35 36.9 87.6 38.35 91.25 45.3 98.1 60.7 97.75 76.1 97.45 81.3 94.3 86.4 91.15 87.6 90.45 88.8 89.7 89.95 88.8 90.2 88 91.1 88.2 91.55 88.25 92 88.4
L 93.35 87.55 91.6 69.95 89.2 74.6
Q 88.95 65.5 86.25 56.2
M 82.2 66.15
Q 81.95 64.75 82.7 64.6 83.45 64.5 83.65 65.85
L 84.1 69.25
Q 84.45 72.2 84.45 73.7 84.5 74.1 84.3 76.85 84.2 78.75 84.35 79.95 84.5 81.25 84.3 81.7 84.1 82.15 83.65 82.35 83.2 82.5 82.85 82.25 82.55 81.9 82.65 80.9 82.8 79.75 82.85 78.65
L 82.85 75.5
Q 82.9 73.85 82.85 73.05 82.7 69.2 82.2 66.15
M 81.95 85.75
Q 82.6 84.85 83.3 85.1 83.85 85.35 83.85 86.25 83.9 87.35 84 87.6 84.35 87.55 85.15 86.9 85.8 86.35 86.3 86.65 86.5 86.85 86.5 87.15 86.6 87.55 86.4 87.75 86.15 88.4 85.2 89.1 84 90 83.15 89.45 82.65 89.2 82.45 87.85
L 80.8 90.55
Q 80.3 91.45 79.6 91.45 79.15 91.35 78.85 90.85 78.7 90.35 78.95 89.35 79.15 88.25 78.9 87.75 78.6 88.35 78.25 88.55 77.65 88.9 77.25 88.5 76.9 88.05 77.4 87.1
L 78.3 85.5
Q 78.7 84.8 78.9 84.6 79.4 84.15 79.95 84.3 80.65 84.55 80.8 85.45 80.9 85.9 80.95 86.9 81.3 86.75 81.95 85.75
M 49.2 89
Q 49.6 89.25 49.65 89.45 49.7 89.75 49.6 90.05 49.35 90.45 49.2 90.55 49 91.45 48.7 91.8 48.5 92.1 48.15 92.25 47.8 92.35 47.55 92.05 47.45 92 47.3 91.55 47.25 91.2 46.9 91.15 46.4 91.75 44.9 91.8 44.5 91.85 44.25 91.75 43.9 91.55 43.8 91 43.7 90.3 43.6 90.05 43.15 90.7 43 90.85 42.55 91.15 42.15 91 41.6 90.7 41.7 90.1 41.85 89.7 42.15 89.2 42.75 88.4 43.35 88.2 44.2 87.8 44.8 88.45 45.05 88.75 45.1 89.25 45.15 89.55 45.15 90.15 45.65 90.05 46.25 89.5 47 88.85 47.35 88.7 48.2 88.4 49.2 89
M 60.15 94.1
Q 60.25 93.8 60.4 93.6 60.65 93.4 61.35 93.35
L 67.2 92.7
Q 69.7 92.4 70.9 92.75 71.85 92.95 71.65 93.6 71.55 94.05 70.75 94.1
L 61.05 94.7
Q 60.45 94.7 60.3 94.55 60.1 94.3 60.15 94.1
M 88.8 107.65
Q 86.9 106.95 84.85 106.6
L 85.55 124.4 88.6 124.15
Q 88.7 124.2 88.75 124.2 88.85 124.3 89.2 124.3
L 89.9 124.3
Q 90.5 124.3 90.7 124.05 90.95 123.9 90.95 123.6 93.6 122.45 94.15 119.6 94.7 116.7 94.6 113.8 94.5 110.15 91 108.5 89.9 108 88.8 107.65
M 22.9 103.05
L 31.65 99 28.6 89.7 22.9 103.05
M 50.55 107.65
Q 48.55 108.35 48.55 108.2
L 43.7 109.45 42.5 111.25
Q 40.9 113.5 41.05 116.55 41.2 119.6 41.4 120.1 42.75 122.9 45.85 123.8
L 45.9 123.8
Q 46.25 124.05 46.9 124.05 47.05 124.05 47.2 124
L 47.15 124.05 49.7 124.35 49.45 119.25 50.55 107.65
M 70.75 103.4
Q 69.8 103.6 68.8 103.7 68.05 103.7 67.3 103.7 65.65 103.45 63.85 103.55 63.45 103.5 63.1 103.5
L 62.6 118.25 73.4 118.45 73.6 102.8
Q 72.2 103.3 70.75 103.4
M 70.9 102.7
Q 72.15 102.4 73.4 101.65
L 71.85 98.4 65 99.25 63.45 99.65 63.25 100.6 63.25 101.9
Q 63.5 102 63.85 102.05 63.55 102.05 63.25 102.05
L 63.2 102.55
Q 65.65 102.55 68.05 102.9 67.7 102.75 67.3 102.65 68.05 102.75 68.8 102.8 69.8 102.8 70.9 102.7
M 28.15 87.75
L 26.6 77.25 16 79.85 28.15 87.75
M 35.55 96.7
L 36.55 96.3 35.55 95.8 35.55 96.7
M 26.45 60.4
L 24.85 60.35 25 59.7 23.1 59.6 13.65 68.35 18.85 69.75 18.35 72.85 23.9 72 24.2 69.3 26.45 60.4
M 41.9 39.1
L 43.1 33.15 27.4 34 27.35 39.5 41.9 39.1
M 59.95 28.05
Q 59.3 28.35 58.55 28.15 52.7 26.3 46.65 25.65 46.6 25.9 46.65 25.9 48.6 26.8 50.75 27.7 51.1 27.8 51.4 28.2 51.5 28.35 51.45 28.55 51.45 28.75 51.3 28.9
L 46.35 27.9 43.35 39.35 43.75 40.15 43.1 40.55 42.5 43.15
Q 49.85 41.3 56.9 38.55 59.4 37.6 61.95 36.6 62.6 36.45 63.2 36.7 64.45 37.15 65.75 37.75
L 76.15 37.1 76.15 21.65
Q 71.25 22.6 66.8 25 63.5 26.85 59.95 28.05
M 112.8 89.85
L 102.05 81.95 100.55 89.7 112.8 89.85
M 116.65 72.6
L 102.55 66.25 102.3 78.95 116.65 72.6
M 111.5 52.75
L 112.55 52.15 110.45 50.6 108.65 51.6 109.2 52 104.75 52.5 107.2 59.9 107.75 60.45 107.85 61.3 113.1 62.75 113.65 61.05 114.2 60.7
Q 112.5 57.95 111.35 55.4 110.85 54 111.5 52.75
M 111.45 26.85
Q 113.05 27.7 114.9 28.15 121.4 29.6 127.9 28.9 120.25 23.7 111.25 22.45 105.75 21.75 100.5 24 99.25 24.55 98 25.15
L 101.8 24.65
Q 106.9 24.6 111.45 26.85
M 97.15 32.75
Q 97.2 32.85 97.2 32.6
L 96.85 28.3 78.05 29.5 78 34.9
Q 85.8 34.35 93.65 33.65 95.45 33.45 97.15 32.75
M 98.25 28.4
L 98.75 32.7
Q 106.55 31.1 111.9 37.35 118.45 45.05 127.3 49.8 119 40.85 109.1 33.7 105.55 31.15 101.55 29.6 99.9 29 98.25 28.4 Z"/>
        </g>

        <path id="Layer0_0_1_STROKES" stroke="#000000" stroke-width="16" stroke-linejoin="miter" stroke-linecap="square"
              stroke-miterlimit="3" fill="none" d="
M 0 0
L 128 0 128 128 0 128 0 0 Z"/>
    </defs>

    <g transform="matrix( 1, 0, 0, 1, 0,0) ">
        <use xlink:href="#Layer1_0_FILL"/>
    </g>

    <g transform="matrix( 1, 0, 0, 1, 0,0) ">
        <use xlink:href="#Layer0_0_1_STROKES"/>
    </g>
</svg>
