
<svg xmlns="http://www.w3.org/2000/svg" version="1.1" xmlns:xlink="http://www.w3.org/1999/xlink" preserveAspectRatio="none" x="0px" y="0px" width="128px" height="128px" viewBox="0 0 128 128">
<defs>
<g id="Layer1_0_FILL">
<path fill="#000000" stroke="none" d="
M 87.85 22.8
Q 88.05 21.65 87.75 21.2 87.7 21.1 87.6 20.95 87.4 20.75 86.95 20.5 83.1 18.4 74.95 17.65 70.45 17.05 67.8 17.2 63.95 17.3 60.95 18.5 59.65 18.95 57.95 20 56.55 20.9 55 22
L 51.85 24.25
Q 50.2 25.4 50.05 26.35 49.75 27.65 51.7 29.9 53.3 31.55 55.1 34.3 54.85 34.5 54.6 34.8 54.95 34.65 55.3 34.6 55.7 34.95 55.85 35.3 57.8 38.5 59 40.25 59.1 40.3 59.15 40.45 59.05 40.5 58.85 40.7 57.15 42.2 55.25 44.8 54.75 45.25 54.35 45.95 52.45 48.4 51.15 50.85 50.95 50.15 50.85 49.4 50.55 48.55 50.2 48.55 50.15 50.55 50.3 52.55
L 50.3 52.6
Q 49.95 53.45 49.2 55.15 48.5 56.85 47.65 58 46.8 59.2 44.95 60.9 43.95 61.85 43.3 62.45 42.45 63.25 42.1 63.65 41.65 64.1 41.55 64.6 41.4 65.35 41.9 65.5 42.05 65.8 42.8 65.55
L 50.3 64
Q 51.8 63.75 52.7 63.3 52.95 63.1 53.15 63.05 53.45 64.15 53.7 65.05 50.45 65.5 47.2 65.6 46.5 65.75 46.45 65.8 45.9 66.15 46.2 66.5 46.35 66.75 46.9 66.7
L 54.05 66.65
Q 54.2 67.1 54.3 67.45 54.35 67.45 54.3 67.5
L 54.25 67.55
Q 54.1 67.5 53.95 67.55 53.15 67.7 51.6 68 51.15 68.05 50.85 68.25 50.4 68.45 50.4 68.9 50.35 69.45 50.95 69.7 51.25 69.85 51.9 69.85
L 53.05 69.95
Q 53.75 69.95 53.8 69.55 53.4 69.25 52.85 69.1 53.75 68.95 54.45 68.9
L 54.95 71.75
Q 54.9 71.9 54.95 72 53.85 71.8 52.6 71.55 49.7 70.95 46.9 70.55 44.5 70.2 42.2 70 37.8 69.6 33.5 69.55 33.25 69.55 33.15 69.5 25.05 69.5 19.8 71.3 19.75 71.35 19.7 71.3 14.75 73.2 8.8 77.9 8.75 77.95 8.7 77.95 4.95 81.15 3.2 83.75 2.75 84.4 2.45 84.95 2.3 85.2 2.15 85.45 1.45 87.35 1.45 89.5 1.45 89.6 1.45 89.65 1.45 92.1 2.85 93.85 4.25 95.7 6.85 96 9.6 96.3 11 94.45 11.75 93.7 12.2 92.15 12.85 89.85 13.1 89.6 14.1 87.2 16.55 85.75 18.95 84.35 21.55 84.65 23.6 84.85 24.55 86 25.15 86.9 25.05 88.05 25.1 89.2 24.5 90.5 23.9 92.05 22.25 94.85 20.9 97.4 21.4 99.4 21.85 101 23.25 101.9 23.8 102.3 24.45 102.45 26.75 103.45 29 102.5 29.75 102.2 30.3 101.75 33.2 99.65 34.1 95.05 34.45 93.1 34.45 90.45 34.45 90.3 34.45 90.15 34.4 87.15 34.45 85.65 34.5 84.3 34.85 83.85 35.45 83 37.05 82.75 43.45 81.4 46.3 80.95 46.45 80.95 46.5 80.95 51.7 80.2 55.75 80.35 56.15 80.35 56.45 80.4 56.65 81.05 56.9 81.7 57.25 82.6 57.35 82.75 58.15 83.1 58.65 82.6 59 82.2 58.95 81 59 81.05 59.05 81.15 59.8724609375 81.7421875 60.2 82.8 60.123828125 82.866015625 60.05 82.9 59.6 83.15 59.6 83.3 59.55 83.6 59.9 83.7 60.11875 83.83125 60.35 83.75 60.391796875 83.9318359375 60.4 84.1 60.4 85.05 60.2 87.9 59.75 92.6 61.85 97 62.3 97.55 62.75 98.3 62.95 98.8 63.3 99.3 66.3 103.55 70.85 105.4 73.8 106.55 75.2 105.2 75.95 104.4 76.25 102.45 76.4 100.15 75.6 97.55 75.4 96.7 75.15 95.75 74.4 93.7 72.4 89.4 71.85 88 72.15 87.25 72.45 86.8 73.9 86.45 79.1 85.65 83.75 87.2 85.4 87.8 86.9 88.55 87.6693359375 88.9404296875 88.45 89.45 88.4974609375 89.6779296875 88.65 89.8 88.7216796875 89.7283203125 88.8 89.65 91.362109375 91.30703125 94.3 94.1 98.45 98 100.05 99.5 101.1 100.4 101.15 100.45 103.4 102.4 105.2 102.6 106.85 102.9 108.4 101.8 109.9 100.7 110.45 98.9 110.95 96 108.1 92.75 108.05 92.75 107.9 92.55 105.25 89.7 101.75 88.05 100.75 87.6 98.8 86.8 97.05 86 96.1 85.2 94.65 83.9 94 81.95 93.45 80.25 93.55 78.8 99.35 78.5 104.1 77.15 104.25 77.1 104.35 77.1 105.95 76.65 107.05 76.05 108.35 75.35 109 74.35 109.1 74.2 109.15 74 109.4 73.6 109.45 73.3 109.65 74.95 109.85 76.65 110.3 81.8 110.25 87.55 110.25 88.95 111 88.65 111.6 88.7 111.45 87.65 111.5 83.15 112.35 78.7 112.85 76.05 113.7 73.4 113.95 74 114.15 74.6 115.05 77.25 115.2 80.7 115.25 82.85 115.05 88.35 115.05 88.9 115.15 89.1
L 115.2 89.15
Q 115.5 89.6 115.85 89.3
L 115.95 88.85
Q 116.45 84.85 116.5 80.75 116.55 77.45 116.3 74.25 115.65 64.25 112.7 54.35 115.5 55.35 118.1 56.15 119.35 56.55 120.45 56.45 121.35 56.5 121.3 55.8 121.35 55.6 120.8 55.25
L 112.35 49.15 111.45 48.05
Q 111.15 47.65 110.75 47.3 108.65 44.65 105.9 41.8 103.9 39.25 102.35 37.85 101.55 37.25 100.75 36.65 99.05 35.55 96.85 34.65 94.75 33.8 92.75 33.2 85 30.9 76.9 32.05 76.5 32.15 76.15 32.2 67.65 33.6 61.3 38.6 60.8 38.95 60.35 39.35 58.8 36.45 57.3 34.15 58.45 33.9 59.95 33.45 63.85 32.3 65.4 32.05 69.7 31.45 71.95 31.15 76.45 30.15 78.8 29.75
L 84.05 29 86.45 28.3
Q 86.2 29.55 85.65 30.55 85.95 30.8 86.4 30.65 86.7 30.45 86.95 30.1 87.4 29.25 87.65 27.95
L 90.8 27
Q 90.35 26.35 88.8 26.8 88.2 27 87.75 27.15 87.75 26.85 87.7 26.6 87.75 25.85 87.7 25.35 88.4 25.45 89 25.65 90.05 25.95 90.4 25.4 89.3 24.85 87.75 24.4 87.75 24.25 87.75 24.15 87.8 23.05 87.85 22.8
M 86.85 24.15
Q 86.7 24.1 86.55 24.1
L 83.55 23.65
Q 70.05 21.75 57.7 26.2 55.25 27.05 54.15 28.25 54.2 28.6 54.5 28.8
L 53.6 29.6
Q 53.2 29.1 52.9 28.75 52.85 28.65 52.8 28.6 51.55 27.3 51.65 26.55 51.8 25.85 52.7 25.35 56.35 22.45 58.5 21.05 62 19.05 65.2 18.6 67.1 18.4 69.8 18.6 72.65 18.7 74.75 18.9 76.95 19.05 78.5 19.3 83.3 20.05 86.75 21.8 86.9 23 86.85 24.15
M 92.35 34.55
Q 94.55 35.05 96.5 35.8 98.35 36.6 99.95 37.6 102.25 39.2 105 42.55 106.45 44.25 108 46.4
L 109.4 48.35
Q 108.5 47.85 107.55 47.95 107.2 47.95 107.4 48.45
L 107.95 48.7
Q 109.4 49.15 110.55 50.8 110.8 51.15 111.2 52.2 111.35 52.65 111.45 53.05
L 110.55 52.8
Q 109.5 52.8 109.25 53.2 110.55 53.7 111.8 54.05 111.85 54.3 111.9 54.6 114.4 63.7 115.15 73.3 115.15 73.8 115.25 74.35 115.1 73.65 114.9 73.35
L 114.9 73.3
Q 114.85 72.8 114.7 72.6 113.85 71.75 113.1 72.35 112.9 72.5 112.75 72.95 112.75 73.1 112.7 73.25
L 111.15 78.5
Q 111.15 77.5 111.1 76.5 111.1 74.85 110.85 73.2 110.65 70.7 110.05 68.3 109.5 65.3 108.6 62.25 108.05 60.4 107.3 58.65 107.2 58.4 107.05 58.1 106.25 56 105.25 53.95 104.35 52.05 103.35 51.75 102.8 51.5 102.2 51.7 101.55 52 101.55 52.55 102.2 52.15 103.05 52.8 103.4 53.2 103.8 54.1
L 105.75 58.55
Q 105.9 58.9 105.95 59.2 104.85 57.9 103.75 56.9 99.65 52.75 96.75 50.2 93.4 47.15 92.8 46.5 92.2 45.95 91.65 45.3 90.3 43.7 89.65 42.2 89.2 40.9 88.35 41 87.6 41.25 87.75 42.1
L 88.35 43.35
Q 89.05 44.65 89.05 47.45 89.25 55.55 88.8 58.85
L 84.05 44.45
Q 82.45 39.5 80.8 37 80.15 36 79.45 36.45 79.1 36.55 79.15 36.9 79.15 37.35 79.5 38 81 40.7 83.05 47.1
L 85.9 55.1
Q 86.7 57.65 87.1 59.35 87.35 60.3 87.3 61 87.4 61.95 87.35 64.05 87.2 65.75 87.25 66.8 87.2 67 87.3 67.1 87.25 67.7 87.55 67.95 88.25 68.3 88.65 67.75 88.85 67.45 89.05 66.6 90 62.2 90.45 59 90.8 56.2 90.85 54.25 90.8 50.8 90.75 49.1
L 90.7 46.3 103.05 57.55
Q 103 57.65 103 57.7 104.1 58.65 105 60 102.35 59.85 99.6 60.1 99.6 59.8 99.35 59.85 99.25 59.9 99.2 60.15 98.5 60.25 97.65 60.4
L 96.85 60.55
Q 96.5 60.7 96.4 60.85 96.1 61.05 96.35 61.3 96.4 61.4 96.75 61.55
L 97.55 61.55
Q 97.9 61.55 98.95 61.3 98.85 61.55 98.65 62.15 98.2 63.15 98 64.4 97.55 67.05 97.9 68.3
L 98.35 69.6
Q 98.55 70.2 98.85 70.45 99.1 70.75 100 71.15 100.8 71.45 101.5 71.4 101.8 71.4 102.3 71.1 102.6 70.85 102.9 70.6 104.8 69.25 105.25 66.8
L 105.4 65.65
Q 105.6 63.35 104.95 61.95 104.75 61.5 104.55 61.35 104.45 61.3 104.15 61.35 103.8 61.3 103.2 61.35
L 103.2 60.8 103.7 60.8
Q 103.95 60.8 104.15 60.85 105 60.85 105.5 60.9
L 105.55 60.9
Q 105.55 61 105.65 61.1 106.1 61.85 106.45 62.75 107.25 64.85 108.2 68.7 108.95 71.65 108.4 73.2 108.35 73.35 108.2 73.6 107.8 74.45 106.6 75.1 105.55 75.85 103.85 76.2 99.05 77.3 93.05 77.55 92 77.55 90.85 77.6 86.1 77.65 77.75 76.85 69.55 76.2 65.5 74.3 65.4 74.2 65.25 74.15 65.05 74 64.8 73.95 64.15 69.05 63.9 66.45 63.75 65.3 63.6 64.35 63.6 63.4 63.5 62.7 63.75 62.55 64 62.4 64.5 62 65.2 61.3 66.05 60.65 66.95 59.55
L 69.85 56.4
Q 70.95 55.1 71.5 54.15 72 52.95 72.4 52.4 73.35 51.15 73.75 50.55 74.4 49.3 74.7 48.65 74.75 48.5 74.75 48.4 75.95 45.7 77.45 41.65
L 77.45 41.6
Q 77.65 41 77.85 40.4 78.45 38.55 78.4 37.7 78.4 37.35 78.3 37.05 78.15 36.65 77.75 36.45 77.45 36.65 77.6 37.35 77.7 38.65 76.8 41.25 74.85 45.85 73.8 47.95 72.45 50.4 69.9 53.9 68.5 55.85 67.05 57.4 65.75 59 64.35 60.25 64.55 59.6 64.65 59.1 64.85 58 64.25 57.5 63.8 58.25 63.35 59 63.4 57.75 63.5 56.65 63.65 55.55 63.3 55.05 63 54.7 62.5 54.8 62.1 54.8 62.05 55.1 62.45 56.15 62.2 58.05 62.2 58.45 62.2 58.95 62.25 60 62.3 61.3 62.15 61.6 62 61.9 61.05 62.6 60.15 62.95 60.8 63.15 61.55 63.15 61.5 63.2 61.45 63.4 61.45 63.45 61.4 63.45 61.3 63.5 60.95 63.6 60.3 63.8 59.2 64.05 59 64.1 58.8 64.15
L 58.45 63.1
Q 57.8 61.2 57.1 60.5 56.5 59.85 55.85 59.85 55.35 60 55 60.95 54.85 61.45 54.8 61.75 54.65 62.25 54.55 62.4 53.25 58.6 52.15 54.85 51.95 54.05 51.7 53.25 52 52.8 52.15 52.3 54.05 49 55.55 46.65 55.95 46.15 56.3 45.75 57.95 43.5 60 41.55 60.1 41.6 60.15 41.6 60.6 41.9 60.95 41.6 61.35 41.2 61.05 40.6 61.2 40.55 61.25 40.5 61.7 40.15 62.15 39.85 68.15 35.1 76.45 33.75 84.3 32.55 92.35 34.55
M 112.4 53.35
Q 112.25 53.05 112.2 52.8 112.15 52.4 112 52
L 112.35 52.6
Q 111.9 51 110.95 49.15 111.6 50.1 112.05 50.45
L 114.55 52.5
Q 115.45 53.55 117.3 54.6
L 112.4 53.35
M 106.2 60.75
L 106.25 60.75
Q 106.4 60.65 106.35 60.5 106.5 60.6 106.6 60.7 106.95 61.6 107.2 62.65 106.7 61.65 106.2 60.75
M 61.05 64.35
Q 60.95 64.7 60.85 65 60.25 66.65 60.15 68.05
L 59.05 64.9
Q 60.15 64.65 61.05 64.35
M 62.1 65.2
L 62.45 64.55
Q 62.75 68.15 63.25 72.95 62.5 72.35 62.05 71.6 60.7 69.1 62.1 65.2
M 62 73.5
Q 62.25 73.7 62.5 73.95 63 74.3 63.5 74.7 63.7 75.55 63.65 76.4 63.25 76 62.8 75.25 62.45 74.5 62 73.5
M 50.75 55.15
Q 50.9 55.6 50.95 55.95 51.35 57.7 52.6 61.65 48.6 63.15 44.25 63.3 46.85 61.9 48.9 58.55 49.45 57.9 50.4 55.9 50.6 55.5 50.75 55.15
M 56.15 62.1
Q 56.55 62.8 57.15 64.5 56.65 64.6 56 64.65 56.15 62.8 56.15 62.35 56.15 62.15 56.15 62.1
M 57.35 65.25
Q 57.4 65.2 57.45 65.25 57.95 66.7 58.6 68.5 59 69.5 59.45 70.8 59.7 71.45 59.85 72.1 58.8 72.3 57.55 72.35 57.45 72.3 57.3 72.35 57.05 71.4 56.85 70.7 56.35 69.25 56.15 68.45 56.15 68.4 56.2 68.35 56.3 68.3 56.45 68.3 57.25 68.05 57.55 67.7 58.05 67.15 57.85 66.65 57.65 66.15 56.95 65.9 56.6 65.8 56.35 65.75 56.15 65.7 56 65.6 56 65.55 56 65.5 56.75 65.4 57.35 65.25
M 56.05 67.05
Q 56 66.95 56.05 66.85 56.15 66.85 56.25 66.95 56.15 66.95 56.05 67.05
M 95.35 85.9
Q 95.5 86 95.6 86.05 96.9 87.2 99.4 88.4 102.05 89.6 103.45 90.35 105.9 91.6 107.35 93.15 107.45 93.15 107.45 93.3 108.9 94.95 109.2 96.85 109.7 99.4 107.9 100.75 106.25 102 104 101.1 102.75 100.65 100.65 98.65 97.15 95.15 95.35 93.4 95.25 93.3 95.1 93.2 92.15 90.25 89.65 88.65 89.596875 88.6185546875 89.55 88.6 89.6490234375 88.401953125 89.75 88.2 90.2 87.1 90.75 86.9 91.3 86.6 92.1 87.1
L 93.2 87.95
Q 94 88.45 94.45 88.1 94.8 87.85 94.9 87.15
L 95.15 85.7
Q 95.2607421875 85.8078125 95.35 85.9
M 91.35 78.85
Q 92.2 78.8 93.1 78.8 92.55 80.3 93.1 82.2 93.6115234375 83.8134765625 94.7 85.15 94.453515625 85.365234375 94.3 85.8 94.15 86.2 94.25 87.15 93.9 87.3 93.45 87.1
L 92.75 86.6
Q 92.1 86.1 91.25 85.95 90.35 85.85 90 86.2 89.8 86.45 89.6 87.05 89.4291015625 87.690625 89.05 88.3 88.256640625 87.8462890625 87.5 87.45 85.95 86.6 84.15 86 79.8 84.5 75.05 84.75 72.9 84.9 71.8 85.8 71.4 86.2 71.15 86.7 70.5 87.9 71 89.75 71.35 91.15 72.7 93.65 73.7 95.65 74.3 97.85 74.8 99.95 74.75 102.15 74.85 103.75 73.95 104.2 73.35 104.65 71.95 104.25 67.4 102.65 64.45 98.45 63.7 97.45 63.15 96.25 61.55 93.05 61.7 89.3 62.1 86.05 62.1 84.35 62.05390625 83.769140625 61.95 83.25 62.02734375 83.227734375 62.1 83.2 63 83.15 63.9 83.85 64.2 84.05 65.25 85.25 66 86.1 67.25 87.05 67.9 87.4 68.15 87.3 68.5 87.2 68.7 86.6
L 69.2 85.35
Q 69.55 84.75 69.8 84.7 69.9 84.7 70.35 84.85
L 71.75 85.65
Q 71.55 84.75 70.6 84.15 69.95 83.8 69.4 84 69.05 84.2 68.75 84.75
L 67.9 86.25
Q 67.05 86 66.2 85.15 65.25 84.1 64.75 83.55 63.9 82.6 63.1 82.35 62.52890625 82.168359375 61.7 82.3 61.235546875 80.7482421875 60.15 79.95 59.9 79.8 59.65 79.6 59.2 79.35 58.55 79.15 58.1 76.25 57.65 74 59.25 73.7 60.2 72.9 60.85 74.6 61.6 75.85 62.6 77.7 63.6 78.9 64.2 79.6 64.55 79.5 65.25 79.4 65.25 78.35
L 65.2 76.2
Q 65.15 75.95 65.1 75.7 65.1 75.55 65.05 75.45 65.2 75.5 65.3 75.55 69.3 77.5 77.55 78.3 77.85 78.3 78.05 78.3 85.95 79 90.85 78.85 91.15 78.85 91.35 78.85
M 25.45 92.2
Q 25.7 91.6 25.9 91 26.0923828125 90.5994140625 26.2 90.2 27.2994140625 90.5068359375 29.2 90 31.751171875 89.244140625 33.1 88.9 33.0853515625 89.59609375 33.05 90.25 33 92.05 32.75 93.7 32.6927734375 94.050390625 32.6 94.35 31.8037109375 94.2384765625 30.45 94.3 27.4564453125 94.5896484375 24.05 94.5 24.97421875 93.005078125 25.45 92.2
M 3.4 86
Q 3.75 85.3 4.35 84.5 5.373828125 83.0419921875 7.2 81.3
L 7.2 81.35
Q 7.65 82.5 8.75 84.05 10.25 86.35 11.25 87.25 11.65 87.65 11.9 87.7 11.982421875 87.7330078125 12.05 87.75 11.571875 88.545703125 11.25 89.45 11.05 90.25 10.6 91.7 10.15 92.85 9.5 93.55 8.3 94.65 6.45 94.3 4.6 94.1 3.65 92.6 2.7 91.25 2.65 89.6 2.6 87.9 3.4 86
M 10.95 78.85
Q 11.15 79.15 12 79.85
L 12.8 80.75
Q 13.7 81.8 16 83 16.0677734375 83.035546875 16.1 83.05 16.1126953125 83.2638671875 16.5 83.35
L 17.55 83.4 17.6 83.4
Q 16.6796875 83.7501953125 15.8 84.3 15.5 84.45 15.1 84.7 13.4267578125 85.7755859375 12.35 87.25 11.6328125 86.609375 11 85.85
L 8.5 82.4
Q 7.904296875 81.5916015625 7.6 80.9 8.5501953125 80.0478515625 9.7 79.1 10.17734375 78.7205078125 10.65 78.35 10.746875 78.6265625 10.95 78.85
M 23.3 95.7
Q 23.4814453125 95.409765625 23.65 95.1 24.5228515625 95.390625 25.8 95.45
L 29.55 95.5
Q 31.4078125 95.5953125 32.45 95.2 31.56328125 98.898046875 29.55 100.45 27.95 101.65 25.9 101.4 24.75 101.2 24.05 100.7 23.35 100.2 23 99.4 22.4 97.85 23.3 95.7
M 20.35 72.75
Q 23.05 71.8 26.7 71.6 28.6 71.45 33.2 71.45 39.45 71.5 42.05 71.7 44.45 71.85 46.65 72.2 48.8 72.55 50.8 73 51.5 73.25 52.1 73.4 53.05 73.6 53.55 73.7 54.45 74 55.25 74.15 55.55 76.45 56.1 78.85 56.05 78.85 55.9 78.85 51.6 78.7 46.35 79.55 46.25 79.5 46.15 79.6 42.9 80 36.8 81.35 34.35 81.8 33.5 82.9 32.8 84 33.05 86.5 33.0845703125 87.155078125 33.1 87.8 32.9423828125 87.8203125 32.75 87.85 32.35 87.95 29.4 88.9 27.667578125 89.4630859375 26.35 89.55 26.5 89.017578125 26.5 88.45 26.55 88.15 26.55 87.9 26.4578125 86.3791015625 25.65 85.25 29.0236328125 85.103125 32 83.7 32.45 83.45 32.55 83.25 32.65 83.1 32.55 82.9 32.5 82.7 32.3 82.7 31.5 82.85 29.95 83.5 28.4 84.15 27.55 84.3
L 25.65 84.45
Q 25.3623046875 84.510546875 25.15 84.6 23.6181640625 82.99609375 20.95 82.95 19.865234375 82.8908203125 18.8 83.1
L 17.35 82.8
Q 17.0486328125 82.4388671875 16.2 82.05 15 81.45 13.6 80.35
L 12.75 79.65
Q 12.0115234375 78.9525390625 11.15 77.95 16.5560546875 73.8970703125 20.35 72.75
M 74.45 59.65
Q 73.2 59.6 72.65 59.5
L 71.7 59.25
Q 70.05 58.9 68.15 58.95
L 67.5 59.1
Q 67.1 59.3 67.2 59.65 67.2 60 67.85 60.1 69.35 60.15 70.05 60.2
L 70.5 60.35
Q 69.1 62.5 68.5 64.95 67.7 68.55 68.75 71.1 69.3 72.25 69.95 72.7 70.55 73.1 71.35 73.25 73.15 73.6 74.35 73.25 76 73.05 76.8 71.7 77.05 71.4 77.3 70.5
L 77.65 69.05
Q 77.9 67.8 77.75 66.9 77.7 66.15 77.5 65.45 77.4 64.85 77.25 64.3 76.95 63.5 76.35 62.6 76.15 62.35 76.05 62.5
L 75.85 60.75
Q 76.8 60.75 77.95 60.7
L 79.15 60.7
Q 79.3 60.7 79.4 60.55 79.4 60.4 79.3 60.15
L 79 60.05
Q 78.65 59.9 77.9 59.95
L 74.45 59.65 Z"/>
</g>

<path id="Layer0_0_1_STROKES" stroke="#000000" stroke-width="16" stroke-linejoin="miter" stroke-linecap="square" stroke-miterlimit="3" fill="none" d="
M 0 0
L 128 0 128 128 0 128 0 0 Z"/>
</defs>

<g transform="matrix( 1, 0, 0, 1, 0,0) ">
<use xlink:href="#Layer1_0_FILL"/>
</g>

<g transform="matrix( 1, 0, 0, 1, 0,0) ">
<use xlink:href="#Layer0_0_1_STROKES"/>
</g>
</svg>
