
<svg xmlns="http://www.w3.org/2000/svg" version="1.1" xmlns:xlink="http://www.w3.org/1999/xlink" preserveAspectRatio="none" x="0px" y="0px" width="128px" height="128px" viewBox="0 0 128 128">
<defs>
<g id="Layer1_0_FILL">
<path fill="#FFFFFF" stroke="none" d="
M 88.25 130.5
L 89.6 130.5
Q 89.1458984375 130.308203125 88.7 130.15 88.65 130.05 88.5 130.05 88.45 130.15 88.35 130.15 88.25 130.25 88.25 130.4
L 88.25 130.5
M 42.9 130.5
L 45.55 130.5
Q 45.57265625 130.02421875 45.6 129.55 45.6 129.35 45.55 129.2 45.45 129.1 45.35 129.1 45.25 129.1 45.2 129.2 44.0384765625 129.835546875 42.9 130.5
M 59.8 126.5
L 60.2 130.5 73.25 130.5
Q 73.3205078125 129.2724609375 73.35 128.15 73.4 127.35 73.5 126.7 73.5 126.55 73.5 126.5 73.4 126.4 73.35 126.3 73.2 126.25 73.15 126.25
L 60.1 126.1
Q 60 126.1 59.95 126.1 59.9 126.1 59.9 126.25 59.8 126.3 59.8 126.5
M 23.8 103.1
Q 23.85 102.6 23.95 102.2 23.45 100.95 23.05 99.65
L 15.95 96.55
Q 15.8 99.15 15.4 103.85
L 18 99.35 17.7 107.7
Q 17.7 107.75 19.85 106.25 22.1 104.65 23 103.85 23.4 103.45 23.8 103.1
M 63.8 117.7
Q 62.35 117.75 61.05 117.8
L 59.45 123.3
Q 59.45 123.35 59.45 123.55 59.45 123.6 59.55 123.7 59.65 123.75 59.8 123.75
L 73.65 124.05
Q 73.75 124.05 73.8 123.95 73.9 123.9 74 123.8
L 74 123.7 72.4 116.6
Q 68.1 117.4 63.8 117.7
M 19.5 90.3
L 19.4 90.3
Q 19.05 90.6 18.65 91 17.7 91.75 16.8 92.65 16.45 92.95 16.15 93.3 15.85 93.5 15.55 93.75 15.8 93.9 16.1 94 19.8 95.8 22.2 97 26.2 99.05 26.4 99.25 26.65 99.55 25.35 105.65 25.05 107.1 24.65 108.9 24.55 110.05 24.5 111.25 24.5 111.35 26.2 110.75 26.95 110.45 27.55 110.25 28.5 109.85 29 109.6 32.3 107.85 32.65 107.4
L 29.2 98.3
Q 28.55 96.4 28.05 94.55 27.45 92.4 27 90.3
L 26.3 85.6
Q 26.2 85.6 24.65 86.45 22.9 87.6 22.15 88.35 21.35 88.85 20.55 89.45 20 89.85 19.5 90.3
M 14.5 74.2
Q 15.15 71.2 17.05 66.65 16.5 67.45 16 68.35 14.55 69.9 13.4 72
L 13.3 72
Q 12.15 73.65 11.15 75.3
L 11.05 75.3
Q 10.45 76.2 6.6 81.4
L 12.7 76.35
Q 12.9 79.9 11.05 85.25 10.45 87.25 9.75 89.25 9.05 91.1 8.35 93
L 7.3 96.1
Q 10.55 93.45 16.25 89.85 16.3 89.85 16.3 90.5
L 18.15 88.7
Q 17.55 85.7 17.4 82.45 17.15 79.75 17.05 76.8
L 13.2 88.6 12.8 90.3
Q 12.8 89.9 12.8 89.4 13.2 80.2 14.5 74.2
M 20.55 44.6
Q 26.35 43 29.75 42.1 34.55 40.7 34.55 40.65
L 34.35 39.05 34.35 39 33.35 30.45
Q 33.25 30.35 19.05 33.85
L 20.55 44.6
M 60.55 24
Q 60.5 23.95 60.4 23.95 55.7 23.7 51.3 24.8 51.2 24.8 51.2 25.05 50.95 25.15 50.95 25.2 50.95 25.6 51 25.85 51.05 26.1 51.1 26.4
L 51.1 26.5
Q 51.25 27.95 51.6 29.45 52.25 31.7 53 34.05 53.05 34.25 53.25 34.45 53.45 34.7 53.8 35 53.95 35.15 54.2 35.15
L 54.25 35.15
Q 55.55 35.05 56.7 34.6
L 56.75 34.6
Q 57.4 34.35 58.05 34.1 59.9 33.3 61.6 32.3 61.7 32.25 62 32.1 62.05 32.1 62.15 32.1 62.25 32.05 62.25 31.95 62.3 30.5 62 28.75 61.75 28.15 61.7 27.55 61.45 26.75 61.3 26.05 61.25 25.8 61.2 25.6 61.2 25.5 61.2 25.35 61 24.8 60.7 24.2 60.7 24.05 60.55 24
M 48.75 24.6
Q 48.65 24.55 48.5 24.55 43.7 22.3 38.45 21.35 37.6 21.25 36.7 21.5 36.45 21.5 36.45 21.65 35.4 23.15 35.4 25.35 35.35 29.95 35.85 34.65 36 35.7 36.1 36.65 36.15 36.8 36.15 36.9 36.25 37.4 36.3 37.85 36.65 39.3 36.85 40.75 36.9 41.25 37.15 41.7 37.25 42.15 37.35 42.7 37.85 45.1 38.55 47.35 39.45 50.05 40.9 52.3 40.9 52.4 41 52.5
L 41.85 52.6
Q 41.95 52.6 42.05 52.6 42.15 52.6 42.15 52.55 48.5 45.65 52.05 36.75 52.05 36.65 52.05 36.55 52.05 36.5 52.05 36.4 51.45 35.7 51.1 34.85 51.05 34.75 51 34.7 49.35 31.35 49 27.5 49 27.4 49 27.25 49 27.2 49 27.15 49 26.3 48.95 25.5 48.9 25.2 48.85 24.9 48.85 24.8 48.85 24.75
L 48.75 24.6
M 113.05 92.7
L 111.4 90.65 108.9 91.6
Q 110.7 92.1 113.05 92.7
M 115.8 89.1
L 114.95 89.35 116.55 90.1 115.8 89.1
M 99.85 96.55
Q 99.25 97.5 99.1 98.45 98.65 99.75 98.35 100.9
L 111.5 103.3 108.4 98.9
Q 107.8 97.9 106.65 96.35 106.2 95.7 105.7 95 103.85 92 103.85 91.75 106.05 90.7 107.8 89.9 108.95 89.3 109.95 88.8 110.95 88.3 111.8 87.9 113.3 87.15 114.05 86.8
L 114.75 86.4
Q 114.05 85.75 113.35 85.1 112.8 84.55 112.3 84 110.2 82.05 108 80.5 107.3 80 106.65 79.6 106.05 79.15 104.55 78.35 103.15 77.85 103.15 77.9 103.05 80.1 102.75 82.35 102.45 84.9 102.2 87.5 101.7 89.6 101.3 91.65
L 101.3 91.7
Q 100.65 94.2 99.85 96.55
M 85.9 64.6
Q 85.15 63 84.55 62.15
L 78.95 78.3
Q 73.85 69.25 70.1 62.9 69.8 62.9 69.4 62.95 69.25 62.95 69.05 63
L 68.5 69.8
Q 67 66.55 65.8 63.15 62.75 63.35 58.5 63.55 55.4 63.7 52.55 63.75 52 65.4 51.45 66.95
L 50.2 63.85
Q 49.45 63.9 48.7 63.9 47.55 70.3 43.9 81.2
L 43.25 66.6
Q 40.65 72 37.3 79.65
L 36.9 74.7
Q 36.4 76.25 36 77.1 35.55 77.95 35.75 88.15 36 98.4 37 103 38 107.6 38.1 108 38.85 110 41 111.5 43.35 113 47.15 114.05 53.7 115.9 59.45 116.2 60.45 116.25 61.45 116.3 63.9 116.3 66.15 116.1 68.8 115.8 72.1 115 73.1 114.75 74.2 114.45 74.45 114.4 74.7 114.3 81.3 112.55 85.75 110.3 89.9 108.35 92.85 105.65 93.1 95.95 92.75 89.5 92.75 88.1 92.1 84.35 89.55 73.6 88.35 70.2 87.75 68.35 87.15 66.95 86.9 66.25 86.45 65.75 86.3 65.45 86.15 65.2 86 64.9 85.9 64.6
M 82.85 85.85
Q 82.7 85.3 82.7 84.55 82.7 84.1 82.75 83.8 82.8 83.6 83.15 83.05 84.4 81.3 85.95 81.15
L 87.75 81.1
Q 88.4 81.1 88.7 81.15
L 89.45 81.5
Q 90.6 82.25 91.1 83.45 91.4 84.15 91.45 84.65 91.7 86.05 91.05 86.95 90.55 87.7 89.25 87.95 88.95 88 87.2 88 86.3 88 85.9 87.9
L 84.95 87.55
Q 83.3 86.8 82.85 85.85
M 38.5 85.25
L 39.05 84.65
Q 39.4 84.3 40.6 83.6
L 41.2 83.35
Q 41.45 83.25 42.05 83.25 43.1 83.15 43.8 83.35 44.8 83.5 45.4 84.1 45.9 84.6 46 85.25 46.1 85.55 46.1 86.25
L 46 87.1
Q 45.75 88.15 44.4 89.25
L 43.55 89.85
Q 41.95 90.7 40.25 90.3 38.75 89.95 38.2 88.75 38.05 88.4 37.95 87.65
L 37.95 86.8
Q 37.95 86.25 38.15 85.85
L 38.5 85.25
M 76.9 107.4
Q 77.05 108.25 76.1 108.95 75.6 109.25 74.5 109.7 73.45 110.25 72.9 110.4 72.4 110.6 71.3 110.6 69.2 110.5 68.35 110.15 67.2 109.4 66.55 109.25 65.9 109.15 64.65 109.5
L 59.85 110.65
Q 58.85 110.85 57.6 110.85 54.85 110.9 53.45 109.75 52.45 108.95 52.6 108 52.7 107.5 53.2 107.2 53.65 106.85 54.2 106.9 54.6 107 55.15 107.4 55.85 107.8 56.1 107.9 56.65 108 57.3 108 58.45 108 59 107.95 59.8 107.8 61.3 107.35 61.45 107.3 63.6 106.8 65.25 106.35 65.65 106.3 66.85 106.2 67.65 106.5 68.3 106.75 69.4 107.4 70.85 108.05 72.3 107.55 72.85 107.35 73.95 106.75 74.9 106.25 75.65 106.3 76.8 106.5 76.9 107.4
M 42.15 86.05
Q 42 86.05 41.85 86.25
L 41.2 86.45
Q 40.8 86.7 40.7 87.1 40.6 87.35 40.75 87.5 40.85 87.6 41.05 87.6 41.75 87.7 42.3 87.35 42.75 87.1 43.25 86.5
L 43.4 86.35 43.35 86.1
Q 43.25 86 43.1 86
L 42.4 86 42.15 86.05
M 85.85 84.15
Q 85.6 84.5 85.45 84.65 86.05 85.1 86.5 85.2 87.25 85.3 88.75 85.2 88.7 84.65 88.35 84.15 88.1 83.85 87.75 83.85
L 87.2 83.95
Q 86.65 83.85 86.35 83.9 86.1 83.95 85.85 84.15
M 108.5 60.6
Q 107.85 60.05 107.3 59.55 109.8 66 113.65 79.9
L 104.65 65.35
Q 106.9 71.75 107.75 77.85 108.75 78.6 109.6 79.4 111.3 80.6 112.75 81.95 113.85 83.05 114.95 84.35
L 120.05 82 112.4 71.4 119.95 72.8
Q 114.55 66.15 108.5 60.6
M 94.65 20.9
L 84.65 22.2
Q 84.85 26.75 84.85 29.25 84.95 32.2 84.8 32.4
L 96.9 30.55 94.65 20.9
M 81.65 19.45
Q 81.55 18.25 81 17.1 80.6 15.85 80 14.35 79.95 14.35 79.85 14.3 79.75 14.2 79.55 14.2 74.6 16.05 70 19 66.5 21.15 63.05 23.6 62.85 23.6 62.85 23.75 62.75 23.85 62.85 24.05
L 64.4 31.1 64.4 31.2 64.1 33.15
Q 64.1 33.25 64.1 33.4
L 64.65 33.95
Q 65.35 34.65 67.05 36.3 69.9 39.15 73.8 41.55 77.65 44 79.05 44.5 80.4 45.1 80.8 45.1 81.9 44.2 81.85 43.55
L 82.3 32.85
Q 82.3 32.7 82.35 32.5 82.45 31.65 82.5 30.8 82.75 25.8 82 20.9 81.85 20.1 81.65 19.45
M 5.65 99.5
Q 5.65 99.6 5.7 99.75 5.8 100.35 5.65 101.15 6.25 100.65 6.85 100.05
L 6.6 99.85 6.1 99.85 5.8 99.65 5.65 99.5
M 1.4 98.1
L 1.25 98.1 1.3 99.45 1.9 99.15 3.5 98.65
Q 2.45 98.4 1.4 98.1 Z"/>

<path fill="#000000" stroke="none" d="
M 94 9.5
Q 92.95 5.2 91.65 1.15 48.05 -3.15 14.9 13 14.55 18.4 19.4 50.85 18.8 51.05 18.35 51.45 13.85 53.7 11.15 56.1 8.7 58.5 9.4 60.6 10 62.25 12.7 62.95 12.8 62.95 12.9 63 14.65 63.4 16.9 63.7 16 64.75 15.15 65.9 10.95 71.55 7.4 77.3
L 4.6 82.1 2.95 84.8
Q 3.85 84.55 4.6 84.2 7.65 82.95 9.95 81.15
L 6.8 91.15
Q 6 93.5 5.05 100.2
L 5.7 99.75
Q 5.65 99.6 5.65 99.5
L 5.8 99.65 12.15 94.85 13.95 95.65 13.65 110.9 16.4 105.25
Q 16.2 110.5 16.45 110.8 21.4 108.3 22.7 107.15 22.9 106.95 23.15 106.75 22.85 108.55 22.75 109.7
L 22.6 113.75 25.6 113
Q 27.4 112.5 28.55 112.05 31.2 116.7 34.5 120.8
L 34.1 116.15
Q 36.45 122.7 43 126.65 40.7 120.4 38.8 111.3 40.8 113.45 45.35 115.2 51.8 117.4 58.95 117.75
L 57 123.8
Q 56.95 123.8 56.85 123.9 56.85 123.95 56.7 123.95 55.8 123.95 55 124.05 53.45 124.35 51.9 124.6 48.3 125.35 44.95 126.55 41.4046875 127.93125 38.4 130.5
L 42.9 130.5
Q 44.0384765625 129.835546875 45.2 129.2 45.25 129.1 45.35 129.1 45.45 129.1 45.55 129.2 45.6 129.35 45.6 129.55 45.57265625 130.02421875 45.55 130.5
L 60.2 130.5 59.8 126.5
Q 59.8 126.3 59.9 126.25 59.9 126.1 59.95 126.1 60 126.1 60.1 126.1
L 73.15 126.25
Q 73.2 126.25 73.35 126.3 73.4 126.4 73.5 126.5 73.5 126.55 73.5 126.7 73.4 127.35 73.35 128.15 73.3205078125 129.2724609375 73.25 130.5
L 88.25 130.5 88.25 130.4
Q 88.25 130.25 88.35 130.15 88.45 130.15 88.5 130.05 88.65 130.05 88.7 130.15 89.1458984375 130.308203125 89.6 130.5
L 94.25 130.5
Q 94.1443359375 130.42421875 94 130.35 91.6 128.95 89.05 128.15 88.9 128.05 88.8 128
L 88.2 127.2 76.85 124.5
Q 76.75 124.5 76.7 124.4 76.55 124.35 76.55 124.3 76.25 123.15 76.1 122.25 75.25 119.15 74.6 116.1 78.45 115.1 82.3 113.7 88.55 111.15 92.75 107.7 92.5 115.75 91.85 125.95 93.35 124.35 94 122.75 94.6296875 121.5875 94.55 120.3
L 94.8 123.35
Q 99.35 116.3 99.5 111.35
L 100.4 114.15
Q 103 109.05 104.3 105.05 104.45 104.5 104.65 103.9 109.1 104.8 115.8 106.05 114.1 103.15 112.8 101.35 110.15 97.7 107.75 93.9 107.45 93.5 107.2 93.25 107.25 93 107.3 92.8 110.9 93.95 116.4 95.25
L 113.1 90.45
Q 116.75 93.4 121.3 94.3
L 117.95 88.3 118.2 88.2
Q 117.65 87.5 117.1 86.8
L 116.6 86 123.2 83.15 116.2 74.15 123.65 75.3
Q 114.65 63.7 104.65 54.2 104.45 53.85 104.3 53.6 107.2 52.05 110.05 50.4 111.5 49.6 112.15 48.7 113.25 47.45 113.05 46.05 112.65 44.45 110.1 43.35 109.1 42.95 105.95 42.25 102.65 41.55 101.85 41.65 98.5 25.6 94 9.5
M 81 17.1
Q 81.55 18.25 81.65 19.45 81.85 20.1 82 20.9 82.75 25.8 82.5 30.8 82.45 31.65 82.35 32.5 82.3 32.7 82.3 32.85
L 81.85 43.55
Q 81.9 44.2 80.8 45.1 80.4 45.1 79.05 44.5 77.65 44 73.8 41.55 69.9 39.15 67.05 36.3 65.35 34.65 64.65 33.95
L 64.1 33.4
Q 64.1 33.25 64.1 33.15
L 64.4 31.2 64.4 31.1 62.85 24.05
Q 62.75 23.85 62.85 23.75 62.85 23.6 63.05 23.6 66.5 21.15 70 19 74.6 16.05 79.55 14.2 79.75 14.2 79.85 14.3 79.95 14.35 80 14.35 80.6 15.85 81 17.1
M 84.65 22.2
L 94.65 20.9 96.9 30.55 84.8 32.4
Q 84.95 32.2 84.85 29.25 84.85 26.75 84.65 22.2
M 107.3 59.55
Q 107.85 60.05 108.5 60.6 114.55 66.15 119.95 72.8
L 112.4 71.4 120.05 82 114.95 84.35
Q 113.85 83.05 112.75 81.95 111.3 80.6 109.6 79.4 108.75 78.6 107.75 77.85 106.9 71.75 104.65 65.35
L 113.65 79.9
Q 109.8 66 107.3 59.55
M 84.55 62.15
Q 85.15 63 85.9 64.6 86 64.9 86.15 65.2 86.3 65.45 86.45 65.75 86.9 66.25 87.15 66.95 87.75 68.35 88.35 70.2 89.55 73.6 92.1 84.35 92.75 88.1 92.75 89.5 93.1 95.95 92.85 105.65 89.9 108.35 85.75 110.3 81.3 112.55 74.7 114.3 74.45 114.4 74.2 114.45 73.1 114.75 72.1 115 68.8 115.8 66.15 116.1 63.9 116.3 61.45 116.3 60.45 116.25 59.45 116.2 53.7 115.9 47.15 114.05 43.35 113 41 111.5 38.85 110 38.1 108 38 107.6 37 103 36 98.4 35.75 88.15 35.55 77.95 36 77.1 36.4 76.25 36.9 74.7
L 37.3 79.65
Q 40.65 72 43.25 66.6
L 43.9 81.2
Q 47.55 70.3 48.7 63.9 49.45 63.9 50.2 63.85
L 51.45 66.95
Q 52 65.4 52.55 63.75 55.4 63.7 58.5 63.55 62.75 63.35 65.8 63.15 67 66.55 68.5 69.8
L 69.05 63
Q 69.25 62.95 69.4 62.95 69.8 62.9 70.1 62.9 73.85 69.25 78.95 78.3
L 84.55 62.15
M 99.1 98.45
Q 99.25 97.5 99.85 96.55 100.65 94.2 101.3 91.7
L 101.3 91.65
Q 101.7 89.6 102.2 87.5 102.45 84.9 102.75 82.35 103.05 80.1 103.15 77.9 103.15 77.85 104.55 78.35 106.05 79.15 106.65 79.6 107.3 80 108 80.5 110.2 82.05 112.3 84 112.8 84.55 113.35 85.1 114.05 85.75 114.75 86.4
L 114.05 86.8
Q 113.3 87.15 111.8 87.9 110.95 88.3 109.95 88.8 108.95 89.3 107.8 89.9 106.05 90.7 103.85 91.75 103.85 92 105.7 95 106.2 95.7 106.65 96.35 107.8 97.9 108.4 98.9
L 111.5 103.3 98.35 100.9
Q 98.65 99.75 99.1 98.45
M 114.95 89.35
L 115.8 89.1 116.55 90.1 114.95 89.35
M 111.4 90.65
L 113.05 92.7
Q 110.7 92.1 108.9 91.6
L 111.4 90.65
M 48.5 24.55
Q 48.65 24.55 48.75 24.6
L 48.85 24.75
Q 48.85 24.8 48.85 24.9 48.9 25.2 48.95 25.5 49 26.3 49 27.15 49 27.2 49 27.25 49 27.4 49 27.5 49.35 31.35 51 34.7 51.05 34.75 51.1 34.85 51.45 35.7 52.05 36.4 52.05 36.5 52.05 36.55 52.05 36.65 52.05 36.75 48.5 45.65 42.15 52.55 42.15 52.6 42.05 52.6 41.95 52.6 41.85 52.6
L 41 52.5
Q 40.9 52.4 40.9 52.3 39.45 50.05 38.55 47.35 37.85 45.1 37.35 42.7 37.25 42.15 37.15 41.7 36.9 41.25 36.85 40.75 36.65 39.3 36.3 37.85 36.25 37.4 36.15 36.9 36.15 36.8 36.1 36.65 36 35.7 35.85 34.65 35.35 29.95 35.4 25.35 35.4 23.15 36.45 21.65 36.45 21.5 36.7 21.5 37.6 21.25 38.45 21.35 43.7 22.3 48.5 24.55
M 60.4 23.95
Q 60.5 23.95 60.55 24 60.7 24.05 60.7 24.2 61 24.8 61.2 25.35 61.2 25.5 61.2 25.6 61.25 25.8 61.3 26.05 61.45 26.75 61.7 27.55 61.75 28.15 62 28.75 62.3 30.5 62.25 31.95 62.25 32.05 62.15 32.1 62.05 32.1 62 32.1 61.7 32.25 61.6 32.3 59.9 33.3 58.05 34.1 57.4 34.35 56.75 34.6
L 56.7 34.6
Q 55.55 35.05 54.25 35.15
L 54.2 35.15
Q 53.95 35.15 53.8 35 53.45 34.7 53.25 34.45 53.05 34.25 53 34.05 52.25 31.7 51.6 29.45 51.25 27.95 51.1 26.5
L 51.1 26.4
Q 51.05 26.1 51 25.85 50.95 25.6 50.95 25.2 50.95 25.15 51.2 25.05 51.2 24.8 51.3 24.8 55.7 23.7 60.4 23.95
M 29.75 42.1
Q 26.35 43 20.55 44.6
L 19.05 33.85
Q 33.25 30.35 33.35 30.45
L 34.35 39 34.35 39.05 34.55 40.65
Q 34.55 40.7 29.75 42.1
M 17.05 66.65
Q 15.15 71.2 14.5 74.2 13.2 80.2 12.8 89.4 12.8 89.9 12.8 90.3
L 13.2 88.6 17.05 76.8
Q 17.15 79.75 17.4 82.45 17.55 85.7 18.15 88.7
L 16.3 90.5
Q 16.3 89.85 16.25 89.85 10.55 93.45 7.3 96.1
L 8.35 93
Q 9.05 91.1 9.75 89.25 10.45 87.25 11.05 85.25 12.9 79.9 12.7 76.35
L 6.6 81.4
Q 10.45 76.2 11.05 75.3
L 11.15 75.3
Q 12.15 73.65 13.3 72
L 13.4 72
Q 14.55 69.9 16 68.35 16.5 67.45 17.05 66.65
M 19.4 90.3
L 19.5 90.3
Q 20 89.85 20.55 89.45 21.35 88.85 22.15 88.35 22.9 87.6 24.65 86.45 26.2 85.6 26.3 85.6
L 27 90.3
Q 27.45 92.4 28.05 94.55 28.55 96.4 29.2 98.3
L 32.65 107.4
Q 32.3 107.85 29 109.6 28.5 109.85 27.55 110.25 26.95 110.45 26.2 110.75 24.5 111.35 24.5 111.25 24.55 110.05 24.65 108.9 25.05 107.1 25.35 105.65 26.65 99.55 26.4 99.25 26.2 99.05 22.2 97 19.8 95.8 16.1 94 15.8 93.9 15.55 93.75 15.85 93.5 16.15 93.3 16.45 92.95 16.8 92.65 17.7 91.75 18.65 91 19.05 90.6 19.4 90.3
M 61.05 117.8
Q 62.35 117.75 63.8 117.7 68.1 117.4 72.4 116.6
L 74 123.7 74 123.8
Q 73.9 123.9 73.8 123.95 73.75 124.05 73.65 124.05
L 59.8 123.75
Q 59.65 123.75 59.55 123.7 59.45 123.6 59.45 123.55 59.45 123.35 59.45 123.3
L 61.05 117.8
M 23.95 102.2
Q 23.85 102.6 23.8 103.1 23.4 103.45 23 103.85 22.1 104.65 19.85 106.25 17.7 107.75 17.7 107.7
L 18 99.35 15.4 103.85
Q 15.8 99.15 15.95 96.55
L 23.05 99.65
Q 23.45 100.95 23.95 102.2
M 76.1 108.95
Q 77.05 108.25 76.9 107.4 76.8 106.5 75.65 106.3 74.9 106.25 73.95 106.75 72.85 107.35 72.3 107.55 70.85 108.05 69.4 107.4 68.3 106.75 67.65 106.5 66.85 106.2 65.65 106.3 65.25 106.35 63.6 106.8 61.45 107.3 61.3 107.35 59.8 107.8 59 107.95 58.45 108 57.3 108 56.65 108 56.1 107.9 55.85 107.8 55.15 107.4 54.6 107 54.2 106.9 53.65 106.85 53.2 107.2 52.7 107.5 52.6 108 52.45 108.95 53.45 109.75 54.85 110.9 57.6 110.85 58.85 110.85 59.85 110.65
L 64.65 109.5
Q 65.9 109.15 66.55 109.25 67.2 109.4 68.35 110.15 69.2 110.5 71.3 110.6 72.4 110.6 72.9 110.4 73.45 110.25 74.5 109.7 75.6 109.25 76.1 108.95
M 39.05 84.65
L 38.5 85.25 38.15 85.85
Q 37.95 86.25 37.95 86.8
L 37.95 87.65
Q 38.05 88.4 38.2 88.75 38.75 89.95 40.25 90.3 41.95 90.7 43.55 89.85
L 44.4 89.25
Q 45.75 88.15 46 87.1
L 46.1 86.25
Q 46.1 85.55 46 85.25 45.9 84.6 45.4 84.1 44.8 83.5 43.8 83.35 43.1 83.15 42.05 83.25 41.45 83.25 41.2 83.35
L 40.6 83.6
Q 39.4 84.3 39.05 84.65
M 41.85 86.25
Q 42 86.05 42.15 86.05
L 42.4 86 43.1 86
Q 43.25 86 43.35 86.1
L 43.4 86.35 43.25 86.5
Q 42.75 87.1 42.3 87.35 41.75 87.7 41.05 87.6 40.85 87.6 40.75 87.5 40.6 87.35 40.7 87.1 40.8 86.7 41.2 86.45
L 41.85 86.25
M 82.7 84.55
Q 82.7 85.3 82.85 85.85 83.3 86.8 84.95 87.55
L 85.9 87.9
Q 86.3 88 87.2 88 88.95 88 89.25 87.95 90.55 87.7 91.05 86.95 91.7 86.05 91.45 84.65 91.4 84.15 91.1 83.45 90.6 82.25 89.45 81.5
L 88.7 81.15
Q 88.4 81.1 87.75 81.1
L 85.95 81.15
Q 84.4 81.3 83.15 83.05 82.8 83.6 82.75 83.8 82.7 84.1 82.7 84.55
M 85.45 84.65
Q 85.6 84.5 85.85 84.15 86.1 83.95 86.35 83.9 86.65 83.85 87.2 83.95
L 87.75 83.85
Q 88.1 83.85 88.35 84.15 88.7 84.65 88.75 85.2 87.25 85.3 86.5 85.2 86.05 85.1 85.45 84.65 Z"/>
</g>

<path id="Layer0_0_1_STROKES" stroke="#000000" stroke-width="16" stroke-linejoin="miter" stroke-linecap="square" stroke-miterlimit="3" fill="none" d="
M 0 0
L 128 0 128 128 0 128 0 0 Z"/>
</defs>

<g transform="matrix( 1, 0, 0, 1, 0,0) ">
<use xlink:href="#Layer1_0_FILL"/>
</g>

<g transform="matrix( 1, 0, 0, 1, 0,0) ">
<use xlink:href="#Layer0_0_1_STROKES"/>
</g>
</svg>
