
<svg xmlns="http://www.w3.org/2000/svg" version="1.1" xmlns:xlink="http://www.w3.org/1999/xlink" preserveAspectRatio="none" x="0px" y="0px" width="128px" height="128px" viewBox="0 0 128 128">
<defs>
<g id="Layer1_0_FILL">
<path fill="#000000" stroke="none" d="
M 104.75 16.6
Q 104.75 16.35 104.75 16.15 104.7 15.85 104.65 15.65 104.4 15.1 104.05 14.65 103.9 14.4 103.7 14.2 101.55 15.7 99.45 17.2 97.4 18.6 95.35 20.05 93.4 21.4 91.45 22.8 89.6 24.1 87.75 25.45 86 26.75 84.25 28.05 82.55 29.25 80.9 30.5 77.25 33.25 73.85 35.9
L 72.7 35.75 72.65 35.75
Q 71.9 35.65 71.25 35.45 70.4 35.65 69.5 35.45 67.1 34.9 65 33.3 63.65 32.3 62.45 31.15 61.3 30.05 60.55 28.7 59.25 26.35 59.5 23.75 59.7 22 61.4 21.15 62.95 20.45 63.05 21
L 61.7 21.35
Q 62.1 21.75 62.65 22.05 63.55 22.65 64.5 22.05 65 20.5 63.65 19.55 61.7 18.05 59.45 19.15 57.3 20.25 55.6 22.1 53.7 24.25 53.15 30.15 53.15 30.25 53.15 30.35
L 53.15 30.65
Q 53.1 32.4 52.8 33.65 52.35 35.4 51.45 36.2 51.1 36.55 50.65 36.8
L 49.85 37.15
Q 49.3 36.45 48.75 35.85 45.3 31.95 41.45 28.4 37.75 24.95 34 21.35 30.45 18 27.1 14.45 24.95 12.15 22.35 10.35 21.9 9.95 21.4 9.7
L 21.35 9.8
Q 21.55 14.3 21.05 18.8 20.85 20.5 20.65 22.25 20.35 24.8 19.8 27.25 19.45 29.05 19.1 30.85 18.8 30.8 18.55 30.8 18.55 30.85 18.55 30.95
L 15.85 28.85 16.1 29.5
Q 16.05 29.6 16.1 29.75 16.25 30.6 16.45 31.45 17.05 34 17.5 36.7 18.05 40.2 18.2 44 18.3 46.05 18.35 48.2 18.3 48.3 18.35 48.4 17.3 49.15 16.25 49.75 14.4 50.8 12.6 51.5 10.9 52.15 9.15 52.5 7.35 52.35 5.9 53.05
L 11.75 58.2
Q 11.6 58.65 11.4 59.05 7.2 66.75 3.85 74.8 3.35 76.05 2.8 77.25 1.85 79.25 2.6 81.25
L 3.05 81.5
Q 3.75 80.95 3.9 80.15 4 79.45 4.2 78.85 4.9 76.45 6.15 74.15 8.7 69.45 12.2 65 11.75 66.2 11.45 67.45 9.95 74.1 9 81.1 8.65 83.85 8.9 86.5 9.35 91.3 12.45 94.95 13.15 95.7 13.7 95.45 13.65 95.35 13.6 95.3 12.75 93.9 13.05 92.4 13.95 87.5 15.65 82.9 16.6 89.35 16.25 95.95 15.9 101.85 15.6 108 15.3 113.35 12.65 117.75 12.45 118.1 12.3 118.55 11.8 119.7 12.45 120.4
L 13.2 120.3 18.1 113.15
Q 18.05 117.55 17.9 121.9 17.85 123.8 17.4 125.6 16.75 128.25 17.65 130.55 17.8 131 18.05 131.45
L 18.2 130.65
Q 18.65 134.05 19.1 137.3 19.4 139.6 20.15 141.6 20.85 143.35 21.3 145.2 22.3 149.35 24.05 153.45 24.3 154.15 24.4 154.85 24.7 157.55 25.4 160.05 25.7 161.05 26.5 160.7 26.55 160.65 26.6 160.6 26.75 160.3 26.7 159.95 25.6 151.75 26.35 143.55 27 146.2 27.65 148.9 28.4 152.05 29.45 155.15 31.15 160.3 30.85 165.7 30.75 167.35 31.25 168.35
L 32.05 168.4 32.5 168.05
Q 39 169.6 45.6 170.95 54.45 172.65 63.6 173.1 77.1 173.4 90.6 173.25
L 89 180.6 89.55 180.7 97.15 172.7
Q 97.45 172.6 97.8 172.55 98.3 172.35 98.75 172.1 99.95 171.3 99.3 170.05
L 98.85 170.2
Q 102.25 165.3 102.25 159.35
L 101.55 159.25 100.55 163.5
Q 102.9 152.65 104.8 141.7 105.1 139.85 105.45 138.05 106.1 134.3 106.6 130.55 108.05 118.8 107.6 106.95 108.95 108.8 110.25 110.75 110.9 111.7 111.95 111.4 112.3 110.65 112.15 110.2 109.5 102.15 108.85 93.65 108.75 92.45 109 91.3 109 91.25 109.25 91.3
L 109.45 90.35
Q 109.8 91.65 109.9 93.05 110.1 95.75 110.65 98.4 110.75 99 111.4 98.85 111.5 98.55 111.5 98.25 111.4 97.1 111.65 95.9 112.7 91 113.4 86.6 114.65 78.45 114.6 70.2 114.6 66.15 112.7 62.9 114.3 65.1 116.4 66.95 118.65 69 120.7 71.15 121.45 71.95 122.5 72
L 112.1 58.3
Q 113.45 59.2 115.15 59.5 116.75 59.8 118.35 59.45 121.3 58.55 123.2 56 123.75 55.25 123.8 54.2 123.9 53 123.7 51.85 123.4 50.15 122.2 50.15 123.45 53.1 121.5 55.55 119.2 58.4 115.55 58.35 111.85 58.1 109.55 55.35
L 109.55 55.3
Q 109.1 55 108.65 54.55 108.65 54.85 108.65 55.1 106.5 53.2 104.35 51.35 104.3 50.2 104.4 49.1 104.65 46.75 105.05 44.4 105.4 42.25 105.7 40.1 105.85 39.25 105.95 38.45 106.1 37.35 106.25 36.3 106.4 35.3 106.55 34.15 106.7 32.95 106.85 31.65
L 106.9 31.6 106.85 31.55 106.25 30.65 103.95 32.7
Q 104.1 30.95 104.35 29.2 104.75 26.2 104.75 23.1 104.75 20.1 104.8 17.15 104.8 16.85 104.75 16.6
M 103.55 15.65
Q 103.6 16.55 103.6 17.5 103.65 19.45 103.6 21.45 103.55 23.65 103.4 25.9 103.1 29.55 102.65 33.45 102.55 34.25 102.75 35 102.9 35.55 103.3 36 103.4 36.15 103.6 36.2
L 103.85 34.75
Q 104.1 34.45 104.35 34.15 104.65 33.75 105 33.4 105.15 33.2 105.35 33.2
L 105.35 33.35 102.95 50.1
Q 102.05 49.45 101.15 48.8 98.55 46.75 96.05 44.65 93.4 42.5 90.15 41.1 86.9 39.6 83.65 38.2 89.95 31.55 96.3 24.45 97.2 23.5 98 22.45 99.2 21 100.55 19.55 101.2 18.9 101.75 18.2 102.3 17.5 102.8 16.8 103.15 16.2 103.55 15.65
M 82.8 71.8
Q 83.1 71.7 83.4 71.65 84.15 71.45 84.9 71.65
L 85.95 71.15 87.45 71.15
Q 89.7 77.35 91.05 83.9 91.55 86.4 91.6 88.95 91.65 93.4 91.7 97.75 91.7 98.6 91.4 99.3 89.55 103.5 85.4 105.6 84.2 106.15 82.95 106.5 81.15 107.2 79.1 108 71.85 110.6 64.6 113
L 64.55 113
Q 64.7 113.1 63.65 112.95 61.55 112.7 53.35 110.35 45.15 107.95 38.65 105.85 38.2 105.6 37.8 105.3 35.5 104.15 33.7 102.3
L 33.85 101.65 33.45 101.35
Q 33.25 99.9 33.05 98.45 32.8 96.95 32.3 97.35 32.05 95.8 31.5 94.25 31.4 93.95 31.4 93.7 31.05 86.1 30.1 78.65
L 34.05 71.7 36.35 71.6
Q 36.35 71.65 36.4 71.75
L 37.2 71.8 37.25 71.85 37.6 71.85 38.1 72.05 38.2 72.15
Q 38.35 73.35 38.4 74.5 38.5 79.3 38.7 84.05 38.9 87.8 39.15 91.5 39.25 92.85 39.55 94.15 39.75 94.95 40.1 95.7
L 40.45 94.3
Q 40.25 87.45 40.6 80.7 40.85 77 40.6 73.5
L 40.9 73.65
Q 40.9 73.6 40.95 73.6 41.8 74.05 42.3 74.45 43.25 75.15 43.55 75.3
L 43.95 75.45
Q 44.15 75.65 44.25 75.65 44.55 75.75 44.55 75.5 44 74.75 43.35 74.35
L 43.25 74.3
Q 42.95 74 42.55 73.65 41.6 73 40.25 72.3 39.5 71.9 38.85 71.55 38.3 71.25 37.8 71
L 37.1 70.65
Q 36.95 70.5 36.8 70.55 36.75 70.55 36.7 70.6 35.95 70.3 35.2 70.15 41.85 59 51.75 50.6 51.25 55.45 52.9 60.15 54.15 63.7 56.05 67.25 58.25 71.45 61.65 74.75 64.25 77.2 66.65 80.05 67.95 81.65 68.6 83.65 69.3 85.7 70.25 87.85
L 76.65 76.8
Q 76.7 76.85 76.8 76.85 76.85 76.85 76.9 76.85 76.95 76.75 77 76.65
L 77.6 74.75 80.15 73.15
Q 80.85 78.7 81.15 84.1 81.2 85.15 81.4 86.2 81.95 88.75 82.05 91.3
L 82.8 94.65
Q 82.9 94.65 83 94.7
L 83 71.85 83.05 71.85
Q 82.95 71.8 82.8 71.8
M 85.3 69.9
L 81.8 70.75 78.45 72.1 78.4 72.05
Q 79.5 67.45 79.05 62.75 78.7 59.05 77.1 55.6 76.7 54.7 76.15 53.95 75.3 52.85 75.8 53.1
L 86.65 69.9 85.3 69.9
M 21.6 24.7
Q 21.7 23.95 21.85 23.2 22.7 18.05 22.55 12.85 23.9 15.5 25.1 18.45 27.85 25.25 29.95 32.05 30.5 33.75 31 35.5 31.7 38 33.15 40.25 31.5 40.85 29.95 41.6 24.75 43.9 20.15 46.4
L 20.15 46.85 19.45 47.5
Q 19.3 44.55 19.15 41.7 19.1 40.8 19 39.95 18.55 35 17.05 30.5
L 18.55 31.7 19.4 32.05 19.45 31.9 19.2 31.15
Q 19.45 31.45 19.8 31.65 19.85 31.75 20 31.75 20.2 31.3 20.4 30.6 21.1 27.65 21.6 24.7
M 69.85 113.2
Q 70.3 118.55 70.8 122.85 70.95 124.1 72.15 124.4
L 71.8 122.45
Q 72.15 122.9 72.45 123.35 72.75 123.85 73.15 124.2 74.3 125.35 75.6 126.3
L 73.25 126.85
Q 72.1 128.05 70.45 128.55 66.1 129.95 61.5 129.95
L 61 129.55
Q 57.9 129.75 55.1 127.2 54.25 126.4 53.5 125.5
L 57.4 123.4
Q 57.55 123.5 57.75 123.6 57.85 123.7 58 123.55 58.1 123.65 58.15 123.5
L 59.65 113.8
Q 62.2 114.65 65.2 114.75
L 69.85 113.2
M 55.05 132.9
Q 55.2 132.75 55.35 132.65 55.95 132.45 56.5 131.95 57.15 131.25 57.4 130.55 57.55 130.05 57.45 129.5
L 60.4 130.7
Q 59.75 132.3 59.15 133.95 58.8 134.9 59.8 135.4
L 61.4 130.9
Q 64.35 131.25 67.25 130.55 68.05 130.35 68.9 130.05 68.9 130.2 68.9 130.4 68.9 130.5 68.95 130.55 68.95 131.05 68.95 131.5 68.9 133.15 70.1 133.4
L 69.75 129.85 73.25 128.5 74.05 132.8
Q 74.15 132.8 74.15 132.75 74.55 132.25 74.5 131.6 74.45 131.05 74.4 130.55 74.25 129.3 74.1 128.1
L 76.95 127 77.65 127.45
Q 78.1 128.35 78.35 129.4 78.45 129.75 78.55 130.25 78.6 130.4 78.65 130.55 78.8 131.2 79.35 131.25
L 78.55 127.8
Q 82.75 128.55 86.65 130.55 87.95 131.2 89.2 132 89.15 132.3 89.2 132.6 89.6 135.85 90.1 139.1 90.1 139.15 90.1 139.25 89.6 143.8 90.3 148.45 91.4 155.6 91.6 162.7 91.6 163.3 91.55 163.95 91.25 167.65 90.85 171.35 75.7 171.65 60.45 171.05 46.55 170.15 33.15 166.4 33.3 165.95 33.6 165.7 33.6 165.65 33.8 165.8 33.95 165.9 34.1 165.75 34.2 165.85 34.25 165.65 34.35 165.45 34.4 165.25 34.6 164.65 34.6 163.95
L 34.95 163.7 35.25 152.75
Q 35.2 152.05 35.25 151.4 35.45 149.85 35.75 148.35 37.2 140.9 39.7 133.85 40.35 131.95 41.55 130.55 42.2 129.8 42.95 129.2
L 47.55 128.15 48.2 128.5 49.6 127.3
Q 49.7 127.3 49.8 127.3 50 127.3 50.15 127.2 50.25 127.2 50.25 127.15 50.3 126.95 50.3 126.75
L 52.8 125.85 56.95 129.2 54.3 132.15 55.05 132.9
M 83.2 137.3
Q 82.95 136.3 82.55 136.45 82.35 137.05 82.45 137.65 83.05 141.6 83.5 145.5 84.25 151.85 84.2 158.2 84.2 163.05 85.2 167.6 85.4 167.75 85.6 167.75 85.7 167.75 85.7 167.65 86.45 158.65 85.4 149.9 84.95 146.35 84.4 142.85 83.95 140.05 83.2 137.3
M 73.55 159.75
Q 72.4 160.65 71.05 160.75 68 161.2 65.25 159.95 64.75 159.7 64.3 159.5 64.1 159.35 63.9 159.25 63.7 159.2 63.5 159.25 62.95 159.3 62.45 159.4 62.1 159.75 61.7 159.9 60.2 160.75 58.45 160.2 57.05 159.7 56.1 158.9 56.3 159.7 57.35 160.45 58.75 161.55 60.55 161.75 62.4 161.95 63.65 160.45 63.95 160.45 64.3 160.5 64.75 160.7 65.2 160.9 66.5 161.7 68.15 162 69.8 162.25 71.45 162.25 73.45 162.3 74.2 160.5
L 73.55 159.75
M 77 151.6
L 76.85 149.75 75.65 148.7 74.7 149.85
Q 75.05 150.5 75.5 151.15 76.05 152.05 77 151.6
M 65.75 131.05
Q 65.5 132.75 65.5 134.5
L 66.35 135.05 66.35 131.45 66 131.05
Q 65.75 131 65.75 131.05
M 49.8 147.75
L 49.05 148.1 49 149.2 49.3 149.6 50.8 150.65 51.15 148.8 49.8 147.75
M 44.2 141.3
Q 44.35 140.25 44.65 139.3 45.45 137 44.1 135.3 43.25 140.1 42.45 144.95 42.05 147.55 41.55 150.15 40.15 157.85 39.65 165.65 39.6 166.4 40.15 166.6 40.3 166.35 40.35 166.1 41.3 159.9 42.3 153.55 43.3 147.5 44.2 141.3
M 53.85 129.85
L 55.15 128.8 54.4 128.15 52 130.95 52.8 131.7 53.65 130.55 53.65 130.5 53.85 129.85
M 51.7 127.6
Q 51.45 127.6 51.3 128.1 51.25 128.35 51.05 128.5 49.6 129.25 50.55 130.05
L 51.8 129.65 52.25 127.25 51.7 127.15 51.7 127.6
M 36.45 100.8
L 37.15 101.45 38.55 100.65
Q 40.15 99.75 40.8 99.15
L 39.95 98.25 37.8 99.5
Q 37.15 99.85 36.45 100.35 36.4 100.45 36.3 100.6
L 36.45 100.8
M 42.5 99.1
Q 42.25 99.1 42 99.25 39.75 100.45 39.05 101.6
L 39.7 102.25
Q 39.8 102.4 39.9 102.4 40.1 102.4 40.2 102.2 40.6 101.65 41.75 101 42.95 100.3 43.35 99.85 42.9 99.15 42.5 99.1
M 71.55 102.9
Q 71.45 102.7 71.15 102.45 70.85 102.15 70.75 102 70.45 102 70.35 102.25
L 70.35 102.5
Q 70.35 103.7 69 104.2 68.45 104.35 67.8 104.25
L 66.6 103.85
Q 64.95 103.35 63.05 103.5
L 60.95 103.95
Q 59.7 104.2 58.85 104.1 57.9 104 57.7 103.4
L 57.6 102.95
Q 57.55 102.8 57.2 102.3 56.95 102.05 56.8 102.1 56.65 102.1 56.55 102.4 56.45 102.95 57.1 103.7 57.6 104.3 57.9 104.55 58.3 105.05 58.65 105.15 58.75 105.2 59.45 105.35
L 61.05 105.3 61.95 105.1
Q 65 104.45 67.1 105.1 68.2 105.45 68.5 105.5 69.5 105.6 70.4 105 71.3 104.4 71.5 103.45 71.6 103.1 71.55 102.9
M 37.45 97.45
L 36.75 97.8
Q 35.85 98.3 35.55 98.55
L 35 99.1
Q 34.35 99.5 34.25 99.65
L 34.85 100.25
Q 34.95 100.4 35.1 100.4
L 35.3 100.35 36.8 99.35
Q 38.15 98.4 38.3 98.25
L 37.45 97.45
M 89.65 98.7
L 88.85 97.9
Q 88.3 98.25 87.7 98.95
L 85.75 100.95 86.65 101.85
Q 89 99.95 89.65 98.7
M 85.6 97.75
Q 85.5 97.7 85.25 97.8 84.65 98.05 84 98.6
L 82.2 100.05
Q 82.05 100.2 82.05 100.3
L 82.15 100.5 82.75 101.15 82.95 101.25 83.1 101.2 84.5 100.15
Q 85.1 99.55 85.5 99.35
L 86.1 99
Q 86.45 98.75 86.45 98.4 86.3 98.35 86.05 98.05 85.8 97.8 85.6 97.75
M 81.55 97.6
L 81 97.95
Q 79.95 98.65 79.05 99.45 79.15 99.5 79.5 99.9 79.75 100.2 80 100.25 80.15 100.25 80.45 100.05
L 81.75 99.15
Q 82.55 98.6 82.7 98.4 82.8 98.2 82.75 98.1 82.6 98 82.5 97.9 82.3 97.55 82.15 97.45 81.95 97.35 81.55 97.6 Z"/>

<path fill="#FFFFFF" stroke="none" d="
M 55.35 132.65
Q 55.2 132.75 55.05 132.9
L 54.3 132.15 56.95 129.2 52.8 125.85 50.3 126.75
Q 50.3 126.95 50.25 127.15 50.25 127.2 50.15 127.2 50 127.3 49.8 127.3 49.7 127.3 49.6 127.3
L 48.2 128.5 47.55 128.15 42.95 129.2
Q 42.2 129.8 41.55 130.55 40.35 131.95 39.7 133.85 37.2 140.9 35.75 148.35 35.45 149.85 35.25 151.4 35.2 152.05 35.25 152.75
L 34.95 163.7 34.6 163.95
Q 34.6 164.65 34.4 165.25 34.35 165.45 34.25 165.65 34.2 165.85 34.1 165.75 33.95 165.9 33.8 165.8 33.6 165.65 33.6 165.7 33.3 165.95 33.15 166.4 46.55 170.15 60.45 171.05 75.7 171.65 90.85 171.35 91.25 167.65 91.55 163.95 91.6 163.3 91.6 162.7 91.4 155.6 90.3 148.45 89.6 143.8 90.1 139.25 90.1 139.15 90.1 139.1 89.6 135.85 89.2 132.6 89.15 132.3 89.2 132 87.95 131.2 86.65 130.55 82.75 128.55 78.55 127.8
L 79.35 131.25
Q 78.8 131.2 78.65 130.55 78.6 130.4 78.55 130.25 78.45 129.75 78.35 129.4 78.1 128.35 77.65 127.45
L 76.95 127 74.1 128.1
Q 74.25 129.3 74.4 130.55 74.45 131.05 74.5 131.6 74.55 132.25 74.15 132.75 74.15 132.8 74.05 132.8
L 73.25 128.5 69.75 129.85 70.1 133.4
Q 68.9 133.15 68.95 131.5 68.95 131.05 68.95 130.55 68.9 130.5 68.9 130.4 68.9 130.2 68.9 130.05 68.05 130.35 67.25 130.55 64.35 131.25 61.4 130.9
L 59.8 135.4
Q 58.8 134.9 59.15 133.95 59.75 132.3 60.4 130.7
L 57.45 129.5
Q 57.55 130.05 57.4 130.55 57.15 131.25 56.5 131.95 55.95 132.45 55.35 132.65
M 51.3 128.1
Q 51.45 127.6 51.7 127.6
L 51.7 127.15 52.25 127.25 51.8 129.65 50.55 130.05
Q 49.6 129.25 51.05 128.5 51.25 128.35 51.3 128.1
M 55.15 128.8
L 53.85 129.85 53.65 130.5 53.65 130.55 52.8 131.7 52 130.95 54.4 128.15 55.15 128.8
M 44.65 139.3
Q 44.35 140.25 44.2 141.3 43.3 147.5 42.3 153.55 41.3 159.9 40.35 166.1 40.3 166.35 40.15 166.6 39.6 166.4 39.65 165.65 40.15 157.85 41.55 150.15 42.05 147.55 42.45 144.95 43.25 140.1 44.1 135.3 45.45 137 44.65 139.3
M 49.05 148.1
L 49.8 147.75 51.15 148.8 50.8 150.65 49.3 149.6 49 149.2 49.05 148.1
M 65.5 134.5
Q 65.5 132.75 65.75 131.05 65.75 131 66 131.05
L 66.35 131.45 66.35 135.05 65.5 134.5
M 76.85 149.75
L 77 151.6
Q 76.05 152.05 75.5 151.15 75.05 150.5 74.7 149.85
L 75.65 148.7 76.85 149.75
M 71.05 160.75
Q 72.4 160.65 73.55 159.75
L 74.2 160.5
Q 73.45 162.3 71.45 162.25 69.8 162.25 68.15 162 66.5 161.7 65.2 160.9 64.75 160.7 64.3 160.5 63.95 160.45 63.65 160.45 62.4 161.95 60.55 161.75 58.75 161.55 57.35 160.45 56.3 159.7 56.1 158.9 57.05 159.7 58.45 160.2 60.2 160.75 61.7 159.9 62.1 159.75 62.45 159.4 62.95 159.3 63.5 159.25 63.7 159.2 63.9 159.25 64.1 159.35 64.3 159.5 64.75 159.7 65.25 159.95 68 161.2 71.05 160.75
M 82.55 136.45
Q 82.95 136.3 83.2 137.3 83.95 140.05 84.4 142.85 84.95 146.35 85.4 149.9 86.45 158.65 85.7 167.65 85.7 167.75 85.6 167.75 85.4 167.75 85.2 167.6 84.2 163.05 84.2 158.2 84.25 151.85 83.5 145.5 83.05 141.6 82.45 137.65 82.35 137.05 82.55 136.45
M 70.8 122.85
Q 70.3 118.55 69.85 113.2
L 65.2 114.75
Q 62.2 114.65 59.65 113.8
L 58.15 123.5
Q 58.1 123.65 58 123.55 57.85 123.7 57.75 123.6 57.55 123.5 57.4 123.4
L 53.5 125.5
Q 54.25 126.4 55.1 127.2 57.9 129.75 61 129.55
L 61.5 129.95
Q 66.1 129.95 70.45 128.55 72.1 128.05 73.25 126.85
L 75.6 126.3
Q 74.3 125.35 73.15 124.2 72.75 123.85 72.45 123.35 72.15 122.9 71.8 122.45
L 72.15 124.4
Q 70.95 124.1 70.8 122.85
M 21.85 23.2
Q 21.7 23.95 21.6 24.7 21.1 27.65 20.4 30.6 20.2 31.3 20 31.75 19.85 31.75 19.8 31.65 19.45 31.45 19.2 31.15
L 19.45 31.9 19.4 32.05 18.55 31.7 17.05 30.5
Q 18.55 35 19 39.95 19.1 40.8 19.15 41.7 19.3 44.55 19.45 47.5
L 20.15 46.85 20.15 46.4
Q 24.75 43.9 29.95 41.6 31.5 40.85 33.15 40.25 31.7 38 31 35.5 30.5 33.75 29.95 32.05 27.85 25.25 25.1 18.45 23.9 15.5 22.55 12.85 22.7 18.05 21.85 23.2
M 81.8 70.75
L 85.3 69.9 86.65 69.9 75.8 53.1
Q 75.3 52.85 76.15 53.95 76.7 54.7 77.1 55.6 78.7 59.05 79.05 62.75 79.5 67.45 78.4 72.05
L 78.45 72.1 81.8 70.75
M 83.4 71.65
Q 83.1 71.7 82.8 71.8 82.95 71.8 83.05 71.85
L 83 71.85 83 94.7
Q 82.9 94.65 82.8 94.65
L 82.05 91.3
Q 81.95 88.75 81.4 86.2 81.2 85.15 81.15 84.1 80.85 78.7 80.15 73.15
L 77.6 74.75 77 76.65
Q 76.95 76.75 76.9 76.85 76.85 76.85 76.8 76.85 76.7 76.85 76.65 76.8
L 70.25 87.85
Q 69.3 85.7 68.6 83.65 67.95 81.65 66.65 80.05 64.25 77.2 61.65 74.75 58.25 71.45 56.05 67.25 54.15 63.7 52.9 60.15 51.25 55.45 51.75 50.6 41.85 59 35.2 70.15 35.95 70.3 36.7 70.6 36.75 70.55 36.8 70.55 36.95 70.5 37.1 70.65
L 37.8 71
Q 38.3 71.25 38.85 71.55 39.5 71.9 40.25 72.3 41.6 73 42.55 73.65 42.95 74 43.25 74.3
L 43.35 74.35
Q 44 74.75 44.55 75.5 44.55 75.75 44.25 75.65 44.15 75.65 43.95 75.45
L 43.55 75.3
Q 43.25 75.15 42.3 74.45 41.8 74.05 40.95 73.6 40.9 73.6 40.9 73.65
L 40.6 73.5
Q 40.85 77 40.6 80.7 40.25 87.45 40.45 94.3
L 40.1 95.7
Q 39.75 94.95 39.55 94.15 39.25 92.85 39.15 91.5 38.9 87.8 38.7 84.05 38.5 79.3 38.4 74.5 38.35 73.35 38.2 72.15
L 38.1 72.05 37.6 71.85 37.25 71.85 37.2 71.8 36.4 71.75
Q 36.35 71.65 36.35 71.6
L 34.05 71.7 30.1 78.65
Q 31.05 86.1 31.4 93.7 31.4 93.95 31.5 94.25 32.05 95.8 32.3 97.35 32.8 96.95 33.05 98.45 33.25 99.9 33.45 101.35
L 33.85 101.65 33.7 102.3
Q 35.5 104.15 37.8 105.3 38.2 105.6 38.65 105.85 45.15 107.95 53.35 110.35 61.55 112.7 63.65 112.95 64.7 113.1 64.55 113
L 64.6 113
Q 71.85 110.6 79.1 108 81.15 107.2 82.95 106.5 84.2 106.15 85.4 105.6 89.55 103.5 91.4 99.3 91.7 98.6 91.7 97.75 91.65 93.4 91.6 88.95 91.55 86.4 91.05 83.9 89.7 77.35 87.45 71.15
L 85.95 71.15 84.9 71.65
Q 84.15 71.45 83.4 71.65
M 81 97.95
L 81.55 97.6
Q 81.95 97.35 82.15 97.45 82.3 97.55 82.5 97.9 82.6 98 82.75 98.1 82.8 98.2 82.7 98.4 82.55 98.6 81.75 99.15
L 80.45 100.05
Q 80.15 100.25 80 100.25 79.75 100.2 79.5 99.9 79.15 99.5 79.05 99.45 79.95 98.65 81 97.95
M 85.25 97.8
Q 85.5 97.7 85.6 97.75 85.8 97.8 86.05 98.05 86.3 98.35 86.45 98.4 86.45 98.75 86.1 99
L 85.5 99.35
Q 85.1 99.55 84.5 100.15
L 83.1 101.2 82.95 101.25 82.75 101.15 82.15 100.5 82.05 100.3
Q 82.05 100.2 82.2 100.05
L 84 98.6
Q 84.65 98.05 85.25 97.8
M 88.85 97.9
L 89.65 98.7
Q 89 99.95 86.65 101.85
L 85.75 100.95 87.7 98.95
Q 88.3 98.25 88.85 97.9
M 36.75 97.8
L 37.45 97.45 38.3 98.25
Q 38.15 98.4 36.8 99.35
L 35.3 100.35 35.1 100.4
Q 34.95 100.4 34.85 100.25
L 34.25 99.65
Q 34.35 99.5 35 99.1
L 35.55 98.55
Q 35.85 98.3 36.75 97.8
M 71.15 102.45
Q 71.45 102.7 71.55 102.9 71.6 103.1 71.5 103.45 71.3 104.4 70.4 105 69.5 105.6 68.5 105.5 68.2 105.45 67.1 105.1 65 104.45 61.95 105.1
L 61.05 105.3 59.45 105.35
Q 58.75 105.2 58.65 105.15 58.3 105.05 57.9 104.55 57.6 104.3 57.1 103.7 56.45 102.95 56.55 102.4 56.65 102.1 56.8 102.1 56.95 102.05 57.2 102.3 57.55 102.8 57.6 102.95
L 57.7 103.4
Q 57.9 104 58.85 104.1 59.7 104.2 60.95 103.95
L 63.05 103.5
Q 64.95 103.35 66.6 103.85
L 67.8 104.25
Q 68.45 104.35 69 104.2 70.35 103.7 70.35 102.5
L 70.35 102.25
Q 70.45 102 70.75 102 70.85 102.15 71.15 102.45
M 42 99.25
Q 42.25 99.1 42.5 99.1 42.9 99.15 43.35 99.85 42.95 100.3 41.75 101 40.6 101.65 40.2 102.2 40.1 102.4 39.9 102.4 39.8 102.4 39.7 102.25
L 39.05 101.6
Q 39.75 100.45 42 99.25
M 37.15 101.45
L 36.45 100.8 36.3 100.6
Q 36.4 100.45 36.45 100.35 37.15 99.85 37.8 99.5
L 39.95 98.25 40.8 99.15
Q 40.15 99.75 38.55 100.65
L 37.15 101.45
M 103.6 17.5
Q 103.6 16.55 103.55 15.65 103.15 16.2 102.8 16.8 102.3 17.5 101.75 18.2 101.2 18.9 100.55 19.55 99.2 21 98 22.45 97.2 23.5 96.3 24.45 89.95 31.55 83.65 38.2 86.9 39.6 90.15 41.1 93.4 42.5 96.05 44.65 98.55 46.75 101.15 48.8 102.05 49.45 102.95 50.1
L 105.35 33.35 105.35 33.2
Q 105.15 33.2 105 33.4 104.65 33.75 104.35 34.15 104.1 34.45 103.85 34.75
L 103.6 36.2
Q 103.4 36.15 103.3 36 102.9 35.55 102.75 35 102.55 34.25 102.65 33.45 103.1 29.55 103.4 25.9 103.55 23.65 103.6 21.45 103.65 19.45 103.6 17.5 Z"/>
</g>

<g id="Layer0_0_FILL">
<path fill="#000000" stroke="none" d="
M 128.25 200
L 128.25 63.7 -8 63.7 -8 200 128.25 200
M 120 184
L 8 184 8 72 120 72 120 184 Z"/>
</g>
</defs>

<g transform="matrix( 1, 0, 0, 1, 0,0) ">
<use xlink:href="#Layer1_0_FILL"/>
</g>

<g transform="matrix( 1, 0, 0, 1, 0,-64) ">
<use xlink:href="#Layer0_0_FILL"/>
</g>
</svg>
