
<svg xmlns="http://www.w3.org/2000/svg" version="1.1" xmlns:xlink="http://www.w3.org/1999/xlink" preserveAspectRatio="none" x="0px" y="0px" width="128px" height="128px" viewBox="0 0 128 128">
<defs>
<g id="Layer1_0_FILL">
<path fill="#000000" stroke="none" d="
M 19.45 -1.3
Q 18.05 -1.9 17.95 -1.7
L 17.95 -1.65
Q 17.85 -1.1 17.85 -1 17.7 -0.85 19.4 5.6
L 10.1 4.6
Q 9.45 4.5 9.2 4.65 8.8 4.85 8.8 5.25
L 8.8 5.3
Q 8.85 5.65 9.55 5.9
L 9.5 5.9
Q 11 6.7 14.6 10 17.7 12.85 21.55 15.45 21.8 16.75 22.15 17.95 22.45 18.9 22.75 19.85 19.85 22.95 16.3 27.75 15.65 28.65 15.8 29.1
L 15.85 29.15 16.5 29.7
Q 18.95 31 21.7 31.05 21.35 31.55 20.95 32.05 20.8 32.25 20.65 32.6 18.65 35.55 15.6 41.2 12.85 46.4 12.3 49.3
L 12.3 49.35 12.35 49.4 12.4 49.4
Q 13.1 49.35 14 48.1 16.6 44.1 23.35 36.85 21 40.9 20.1 46.65 19.95 46.8 19.9 46.9
L 19.9 46.95
Q 19.65 47.7 19.2 49.15 17.35 55.95 16.7 62.8 16.7 63.5 17.05 63.65 17.45 63.95 18.25 63.45
L 20.3 61.9
Q 20.435546875 61.7927734375 20.55 61.65 20.5599609375 61.7705078125 20.55 61.85
L 20.35 72.65
Q 20.35 73.45 20.75 73.5 21.05 73.4 21.25 72.85 21.740625 71.5533203125 22.3 69.6
L 22.4 69.6
Q 22.55 69.55 22.8 69.05 22.95 68.6 23.7 66.85
L 25 64.15
Q 25.4771484375 63.089453125 25.85 62.35 24.7234375 69.2201171875 22.45 75.7
L 20.2 82.05
Q 18.55 87.4 17.6 94.2 17.1 98.6 16.6 106.6 16.5 108.3 17.45 108.45
L 17.5 108.45
Q 17.55 108.45 17.55 108.4 17.6 108.3 17.65 108.15 17.7 108.15 17.85 108.1 18.25 108.05 18.25 107.35 18.25 106.75 18.5 106.1 20.05 102 21.55 99 21.8 98.4 22.1 97.85 21.85 99.05 21.6 100.65 21.4 101.3 21.2 102 20.6 104.3 19.15 108.95
L 18.35 112.95
Q 16.2640625 119.0134765625 14.45 124.8 14.112890625 125.7361328125 14.35 126.2 14.090625 126.8498046875 13.8 127.5 10.25 135.4 9.2 138.15 7.4 143.15 5.4 151.7 5.2 151.7 5.05 151.75
L 5 151.75
Q 3.75 152.35 4.15 153.25
L 4.2 153.25
Q 4.6 154.05 6.35 154.05 18.95 154.15 36.2 155.75
L 37.35 156
Q 37.7 156.1 38.1 156
L 38.15 156
Q 38.2 155.9 38.25 155.9 48.55 156.8 68.45 158.9 72.75 159.35 75.1 159.45 78.8 159.65 81.85 159.5 85.6 159.45 93.15 158.45 94.75 158.2 95 157.5 95.1 157.05 94.85 156.5 94.5 156.1 94 155.95 93.8 155.9 93.3 155.9
L 92.3 150.05
Q 92.3 149.95 92.3 149.8 92.3 149.55 92.3 149.25
L 92.2 148.85 92.2 148.8 91.7 148.25 91.7 144.5
Q 91.65 144.45 91.55 144.45 91.5 144.45 91.5 144.5 91.45 144.5 91.45 144.55 91.45 144.65 91.45 144.75
L 90.8 140.9
Q 90.95 140.3 91.2 139.75 92.4 136.6 93.1 134.95 94.2 132 94.85 130.1
L 95.95 126.1
Q 97.25 123.1 97.65 121.5 97.75 121.45 98.05 120 98 121.2 97.95 122.4 97.75 122.85 98.05 123.15 98.15 123.45 98.6 123.35 98.8 123.3 98.9 122.75
L 98.95 122.5
Q 99.25 122.15 99.6 121.4 102.5 114.55 104.75 105.65 106.1 100.1 108.1 89.3
L 110.85 74.15
Q 112.05 71.35 112.6 66.85 113.05 64 112.65 56.6 112.35 50.1 112.15 49.05 111.8 47.4 110.7 45
L 108.3 39.75
Q 106.7 36.3 105.3 34.15 105.6 32.8 106 31.2 110.3 30.15 112.5 29.45 113.45 29.1 113.45 28.65 113.45 28.25 112.75 27.75 110.3 26 108 24.4 108.8 21.3 110.05 17.7 110.7 15.95 111.2 14.35 113.25 12.75 115.45 11.35
L 117.95 9.75
Q 120.65 7.8 121 7.55 121.65 6.95 121.45 6.55 121.25 6.1 120.3 6.15 116.8 6.5 113.35 7.25 113.85 5.4 114.2 2.25 114.55 -0.95 114.4 -1.1 113.8 -1.6 112.5 -1.05 108.35 0.65 103.55 3.5
L 103.55 3.45
Q 100.9 4.95 94.9 8.65
L 88.25 12.8
Q 83.7 15.7 80.5 17.85 80.1466796875 17.7263671875 79.8 17.6 80.5564453125 17.6111328125 80.85 17.15 80.55 16.9 79.4 16.8 77.85 16.65 75.65 15.95 73.2 15.1 71.95 14.7 70.55 14.3 69.8 14.25 69 14.1 68.05 14.1 64.8 13.9 56.9 12.6 56.25 12.5 56 12.75 54.5140625 12.0748046875 53 11.45 52.3 11.15 51.95 11.15 51.5 11.25 51.4 11.45 51 12 51.8 12.8 52.53828125 13.6685546875 53.65 15.3 52.1017578125 15.3197265625 50.95 15.35 50.45 15.35 50.15 15.35 47.45 13.5 44.5 11.95
L 37.5 8.05
Q 31.75 4.4 28.8 2.8 23.65 -0.2 19.45 -1.3
M 111.5 7.6
L 111.5 7.65
Q 111.5 7.7 111.55 7.7 112.25 8.05 112.6 8.2 112.75 8.25 112.85 8.3
L 113.05 8.3
Q 113.85 8.1 114.85 8
L 118.9 7.5
Q 116.4 9.05 113.95 10.7 104.5 17.9 102.25 19.85 101.7 20.4 101.7 20.6 101.7 20.95 102.25 21.45 102.95 22 111.2 28.3 109.3 28.8 107.6 29.2
L 107.55 29.3
Q 107.35 29.4 107.1 29.5 103.8 30.35 103.6 30.45
L 103.65 30.45 102.2 30.95
Q 101.75 31.05 101.4 31.4 101.35 31.4 101.35 31.45
L 101.35 31.5 101.4 31.55
Q 102.5 32.7 103.6 34.25 103.55 34.4 103.55 34.5
L 100.9 32.8
Q 99.5 31.95 97.05 31 94 29.85 93.15 29.5 90.5 28.3 84.7 24.6
L 87.35 22.45 87.25 22.45
Q 87.9 21.8 92.9 17.5 97.9 13.15 101.1 10.1 104.25 6.95 106.75 5.1 109.25 3.15 113.2 0.55 112.2 5.25 111.5 7.6
M 108.3 17.65
Q 107.3 20.65 106.5 23.35 104.9 22.05 103.35 20.85 106 18.4 108.85 16.2 108.6 16.85 108.3 17.65
M 85.6 34.85
Q 85.6 35 85.65 35.15 86.35 36.75 88.6 40.25 90.55 43.55 91.2 45.45 91.45 46.25 91.9 48.05 92.1 49.4 92.05 50.15 92.05 51.5 91.4 53.35
L 91.45 53.3
Q 91.2 53.75 91.15 54.1 91.05 54.05 90.95 54
L 91 54
Q 90.85 53.9 90.35 53.5
L 90.4 53.5
Q 89.8 52.85 88.5 52.35 86.35 51.4 84.9 51 84.85 51 84.8 51 84.75 51 84.75 51.05
L 82.2 51.15 82.9 48.3
Q 85.25 42.95 85.3 36.95 85.3 36.9 85.3 36.85
L 85.3 36.8
Q 85.4 36 85.45 35.3 85.55 35.05 85.6 34.85
M 103.9 31.65
Q 104 31.6 104.15 31.6 104.05 31.9 104.05 32.15 103.8 31.95 103.6 31.7 103.7 31.7 103.9 31.65
M 42.55 21.9
Q 44.8 23.7 46.95 25.45 39.3 31.85 30.6 35.65
L 30.65 35.65 29.8 35.95
Q 29.75 35.75 29.6 35.5 28.5 33.4 27.55 30.95 29.35 31.55 30.9 31.7 31.55 31.8 31.85 31.7 32.15 31.6 32.25 31.45 32.3 31.2 32.2 30.9 32.1 30.7 31.55 30.6
L 28.2 30
Q 25.9 29.2 25.25 29 26 28.65 28.5 27.3 32.35 25.3 33.7 24.5
L 33.75 24.45 33.75 24.35
Q 33.2 23.75 31.9 24.45 30.8 25 29.7 25.6
L 29.7 25.65
Q 29.5 25.85 22.5 28.7
L 22.5 28.75
Q 22.45 28.75 22.45 28.8 22.45 28.85 22.45 28.9
L 22.45 28.95
Q 22.5 29.2 23 29.45 22.9 29.6 22.75 29.7 22.7 29.7 22.6 29.7 20.1 29.85 18.1 28.95 17.65 28.75 17.65 28.6 17.65 28.4 17.8 28.3
L 17.8 28.25
Q 20.9 24.05 23.35 21.5
L 26.2 18.4
Q 26.9 17.75 26.7 17.4
L 26.65 17.4 26.15 17.05
Q 24.65 16.1 23.15 15.15
L 21.95 14.4
Q 21 13.75 20.1 13.15 19.2 12.5 18.85 12.15 18.5 11.85 18.55 11.8
L 18.55 11.7 18.5 11.7
Q 17.15 10.7 16 9.75 13.6 7.65 11.85 6.1
L 19.65 6.7 20.1 6.7
Q 21.15 6.7 21.4 6.85
L 21.45 6.85 23.25 7
Q 23.55 7.1 23.7 7.05 23.9 7 23.9 6.75 23.95 6.55 23.85 6.45 23.75 6.3 23.55 6.25 22.15 5.9 20.35 5.65
L 18.75 -0.7
Q 21.65 1.15 24.55 3.85 27.45 6.5 30.55 9.4 31.15 10 36.15 15.45 40.85 20.5 42.55 21.9
M 22.9 16.4
Q 23.9 16.95 24.85 17.6 24.2 18.2 23.6 18.9
L 22.9 16.4
M 62.8 92.05
Q 63.1 91.5 63.2 91.2
L 63.8 91.3
Q 65.8 91.8 70 92
L 71.85 97.7 70.65 98.75 69.8 99.15 69.8 99.2
Q 69.1 99.6 68.2 99.9 67.05 100.25 65.4 99.9
L 63.95 99.5
Q 63.5 99.4 62.6 98.95
L 60.95 97.65 60.4 96.7 62.8 92.05
M 76.7 100
Q 77.25 100.7 77.8 101.45 78.9 103.35 80.05 106.8
L 83.75 118.05
Q 86.55 126.4 87.35 130.3 88.15 133.6 88.8 138.05
L 89.25 140.95
Q 89.35 141.15 89.4 141.4 89.6 141.8 89.6 142.7
L 89.65 144.6
Q 89.65 144.65 89.7 144.7
L 89.75 144.7
Q 89.8 144.7 89.85 144.7
L 89.85 144.65 91.65 156.1
Q 90.85 156.15 90.1 156.25 86.7 155.9 83.55 155.4 83.6 154.35 83.15 153.55
L 83.15 153.65
Q 82.85 152.7 81.6 151.45 80.65 148.1 79.9 142.4 79.3 136.95 79.1 134.15 79 132.95 78.4 121.3 78.2 118.15 78 115.55 78.05 115.45 78.15 115.35 78.2 115.15 78.05 114.55
L 77.65 105.95
Q 77.5 103.45 77.3 102.25 77 100.75 76.7 100
M 57.35 98.4
Q 57.5451171875 98.107421875 57.7 97.8 57.912890625 97.6283203125 58.05 97.4 58.4 97.05 58.95 96.8
L 59.05 96.85
Q 61.2 99.85 63.7 100.75
L 63.65 100.75
Q 64.45 101.15 66.6 101.4 68 101.5 68.75 101.35 69.05 101.2 70.1 100.7
L 71.4 100.1
Q 73.75 98.4 73.6 97.75
L 74.95 98.4
Q 75.35 99.1 75.55 99.85 76.25 101.9 76.4 104.8
L 77.1 123.75
Q 77.45 133.4 78.05 139.75 78.9 148.15 80.55 153.45 80.75 154.15 81.1 154.4 80.8 154.35 80.45 154.55
L 80.45 154.5
Q 79.95 154.8 79.85 155.2 79.6 156.05 80.7 156.7 80.9 156.8 81.1 156.85 78.3 156.9 75.15 156.75 69.65 156.45 58.35 155.35 51.45 154.55 46 154.1 46.5 152.3 46.7 150.35 46.95 149.85 47.05 149.1 47.65 145.4 50.75 130.35 53.05 119.05 53.55 111.75
L 53.55 111.7 53.5 111.65
Q 53.55 111.5 53.6 111.4 53.55546875 111.2662109375 56.35 100.75 56.5994140625 100.1767578125 56.9 99.25 57.1 98.85 57.35 98.4
M 55.75 98.7
L 55.8 98.55
Q 52.548046875 112.2814453125 52.5 113
L 52.5 113.05 52.55 113.1
Q 52.25 114.5 51.9 117.1 51.25 121.5 50.3 126.6 49.2 132.3 46.95 143.2 46.85 143.45 46.85 143.7
L 46.6 144.7
Q 46.4 145.9 46.2 146.95 46.15 147.15 46.15 147.55
L 46.15 147.6 46.25 147.55 45.8 150.15
Q 45.35 151.8 45 153.95 39.55 153.3 35.5 153.05 37.95 149.35 39.9 144.6 40.7 142.7 41.3 140.4
L 41.35 140.4
Q 41.35 140.3 41.35 140.25 41.35 140.15 41.5 139.85 42.1 138.2 42.75 135.4 43.45 132.5 43.75 131.1
L 43.75 131.05
Q 43.75 130.95 43.75 130.8 43.8 130.3 44.15 129.55 44.75 126.8 45.2 124.95 45.3 124.8 45.3 124.75 47.7 117.6 48.6 115 49.5 112.25 50.45 109.95 51.35 107.65 53.8 102.45 54.15 101.8 54.4 101.2
L 55.65 98.9 55.7 98.9 55.75 98.7
M 92.25 55.05
L 93.6 53.65
Q 95.05 52.35 96.3 50.9 96.25 53.05 95.75 57.05 95.4 59.6 95.2 62.15 93.45 68.45 92.65 72.6 92.35 73.85 91.65 78.7 91 79.55 90.15 80.6
L 88.45 82.7
Q 88.2 82.8 87.9 82.95
L 87.9 83
Q 86.05 84.4 80.8 86.9 76.4 88.95 74.15 89.7 72.85 90.15 71.7 90.35 71.1 90.5 70.5 90.6 69.7 90.6 69.55 90.7
L 69.55 90.65
Q 68.4 90.75 67.1 90.7 64.75 90.6 61.95 89.65 60.25 89 56.9 87.55 47.55 83.4 43.25 80.6 39.05 77.75 38 74.85 37.5 73.4 37.5 69.8 37.55 64.1 37.05 58.4 37.15 58.3 37.35 58.1
L 37.35 58.05
Q 39 55.7 42.15 52.35
L 42.1 52.35
Q 42.8 51.95 43.6 51.5
L 44.4 51.15
Q 44.4955078125 53.1060546875 44.5 58.85
L 44.65 58.6
Q 45.0794921875 57.830078125 45.5 57.2 45.476953125 58.3484375 45.45 58.7 45.2 60.85 45.2 61.25
L 45.4 63.45
Q 45.45 64.05 45.4 65.3 45.35 66.45 45.55 67.15 45.65 67.55 45.8 67.7 45.93828125 67.8935546875 46.1 67.9
L 46.1 68
Q 46.2 68.3 46.45 68.2 46.7 68.2 46.7 67.8
L 46.7 67.3
Q 47 67.15 47 66.35 46.9837890625 66.1818359375 46.95 66 47.025 65.561328125 47.05 65.05
L 47.2 60.85
Q 47.3 58.5 47.3 53.75
L 47.3 53.4
Q 47.996875 51.4263671875 49.5 48.75 50.05 48.65 50.45 48.65
L 51.05 48.55 51.1 48.55
Q 51.5 48.3 51.4 48.1 51.4 47.65 50.65 47.65 50.4 47.55 50.15 47.55 50.55 46.75 51.15 45.85
L 52.75 43.1
Q 55.15 39.15 56.65 36.9 57.35 37.7 58.35 38.95
L 64 46.25 64 46.3
Q 65.65 48.35 66.3 49.55
L 66.35 49.55
Q 67.45 51.15 69.25 54.65
L 69.3 54.65
Q 72.3 59.65 77.2 62.5 77.5 62.75 77.85 62.75
L 78.2 63.1 78.25 63.1
Q 78.8 63.2 79.1 63
L 79.05 63
Q 79.3 62.75 79.15 62.15
L 79.15 62.1
Q 79.1 62 78.7 60.65 78.65 58.4 79.3 56.2 79.3 57.15 79.5 58.15 79.55 58.5 79.7 58.65 79.85 58.85 80.15 58.65 80.35 58.6 80.35 58.35
L 81.95 52.4
Q 82.5 52.4 83.15 52.4
L 84.6 52.45 85.8 52.95
Q 88.05 53.85 88.75 54.3 89.4 54.65 90.7 55.7
L 91.55 56.55
Q 92.25 57.15 92.45 57.2 92.9 57.35 93.15 57.25 93.4 57.15 93.5 56.8 93.5 56.7 93.5 56.65
L 93.35 56.35 93.35 56.4
Q 93.2 55.7 92.85 55.35
L 92.8 55.3
Q 92.45 55.15 92.25 55.05
M 26.3 59.25
Q 26.306640625 59.2953125 26.25 59.3 26.312890625 59.2322265625 26.35 59.15 26.342578125 59.2078125 26.3 59.25
M 57.5 15.35
L 57.4 15.25 56.85 14.85 57.4 15.15
Q 57.606640625 15.2560546875 57.8 15.35 57.6490234375 15.35 57.5 15.35
M 55.15 15.15
Q 55.291796875 15.2556640625 55.4 15.35 55.3494140625 15.34921875 55.3 15.35
L 55.15 15.15
M 72.9 16.2
L 71.9 16.05
Q 71.545703125 16.014453125 71.05 16 70.946484375 15.8892578125 70.9 15.75 71.465234375 15.783203125 72.9 16.2
M 58.75 77.2
L 58.55 77.2
Q 58.35 77.4 58.5 77.75 58.6 78.05 58.85 78.25 59.451171875 78.8083984375 60.9 78.85
L 60.95 80.45 61.1 81.4
Q 61.3 82.6 61.5 83.15
L 61.9 83.95 62.25 84.4 62.6 84.75 63.2 85.2
Q 64.2 85.85 64.8 86.05
L 65.6 86.25
Q 66.95 86.5 67.75 86.2 68.45 85.9 69.25 84.95 70.15 83.8 71.35 81.1 71.8 80.244921875 71.95 79.5 72.3216796875 79.3458984375 72.4 79.15 72.5 78.95 72.45 78.75 72.35 78.5 72.15 78.45 72.0111328125 78.5369140625 71.85 78.6 71.7201171875 78.5 71.6 78.5 71.36640625 78.5333984375 71.25 78.8 70.5341796875 78.95 69.5 78.95 68.6 78.95 68.15 78.75 68 78.7 67.1 77.9 66.55 77.25 65.9 77.25
L 65.35 77.35 63 78.2 61.2 78.35
Q 60.2 78.35 59.75 78.15 59 77.9 58.75 77.2
M 65.85 78.05
Q 66.35 78 66.8 78.55 67.45 79.3 67.6 79.4 67.8 79.55 68.25 79.65 69.714453125 79.9794921875 70.9 79.8 70.4888671875 80.934765625 69.7 82.55 69 84 68.55 84.5 67.7 85.45 66.6 85.5 66 85.5 65.2 85.15 64.3 84.9 63.8 84.6 62.65 83.85 62.2 82.7
L 61.95 81.65
Q 61.6 80.45 61.65 79.65
L 61.65 79.1
Q 61.6130859375 78.989453125 61.55 78.9 63.18828125 78.8865234375 64 78.6 64.55 78.35 64.7 78.3
L 65.3 78.2
Q 65.75 78.05 65.85 78.05
M 86.65 54.6
Q 86.55 54.1 86.35 54 86.0935546875 53.871875 85.85 54 85.73671875 53.8025390625 85.5 53.75 85.15 53.75 85.15 54.25
L 84.9 56.65
Q 84.8208984375 58.233203125 84.8 61.1
L 84.45 65.25
Q 84.25 67.3 84.45 68.7
L 84.8 70.7
Q 85.05 71.2 85.4 70.95 85.5 70.9 85.65 70.45
L 86.45 61.9
Q 86.7 59.05 86.75 56.2 86.75 55.1 86.65 54.6
M 40.15 76.25
L 40.15 76.3
Q 40.25 76.6 40.55 76.6 40.8 76.6 41.15 76.35
L 42.35 75.45
Q 42.25 76.05 42.55 76.55
L 42.6 76.6
Q 43.1 76.7 43.3 76.4 43.3 76.55 43.3 76.75 43.3 77.35 43.5 77.55 44.05 77.95 44.85 77.35
L 44.9 77.35
Q 45.05 77.05 45.3 76.7
L 45.35 76.75
Q 45.35 76.8 45.4 76.8 45.65 76.9 45.85 76.9 46.1 76.9 46.6 76.5
L 46.95 76.15
Q 46.9 76.85 47.25 77.45
L 47.2 77.45 47.4 77.85 47.45 78.3 47.45 78.35
Q 47.55 78.55 47.85 78.55 48 78.6 48.3 78.45
L 48.85 77.9 48.75 77.9
Q 49.05 77.7 49.25 77.65 49.15 77.8 49.15 78 49.15 78.25 49.4 78.5
L 49.45 78.5 49.95 78.45 50 78.45 50.05 78.4
Q 50.3 77.85 50.3 76.95 50.3 76.7 50.2 76.55 49.95 76.25 49.35 76.5
L 48.85 76.75
Q 48.7 76.35 48.2 76.35 48.05 76.35 47.95 76.4
L 47.85 75.6
Q 47.85 74.95 47.45 74.9
L 47.4 74.9
Q 47.1 74.9 46.85 75.3 46.65 75.5 46.55 75.55 46.55 75 46 74.8
L 45.95 74.8
Q 45.9 74.8 45.9 74.85
L 44.55 76.5
Q 44.3 76.7 44.2 76.8
L 44.4 75 44.4 74.95 44.3 74.5 44.3 74.45
Q 44.2 74.3 44.1 74.3 43.95 74.3 43.8 74.4
L 43.3 75.15
Q 43.2 74.75 43.05 74.5
L 43 74.45 42.95 74.45
Q 41.55 74.8 40.5 75.65 40.15 75.9 40.15 76.25
M 89.4 75.45
L 89.4 75.4
Q 89.15 75.05 88.9 74.9
L 88.95 74.9
Q 88.45 74.55 88.05 74.85 87.6 75.3 87.2 75.35
L 86.65 75.35
Q 86.4 75.4 86.15 75.8 86.05 75.95 85.9 76 86.05 75.6 85.6 75.2 85.55 75.15 85.45 75.15 85.4 75.15 85.4 75.2
L 84.1 76.2
Q 84.2 75.95 84.2 75.75
L 84.2 75.7
Q 84.25 75.35 83.95 75.3 83.65 75.15 83.1 75.65 83.05 75.65 83 75.75 83 75.6 82.9 75.45
L 82.85 75.45
Q 82.65 75.25 82.25 75.25 82.1 75.25 81.3 75.6
L 81.3 75.65
Q 80.75 76 80.55 75.95
L 79.95 75.95
Q 79.75 75.95 79.45 76.3
L 77 78.05
Q 76.8 78.2 76.8 78.4 76.8 78.8 77.2 78.8 77.45 78.8 77.8 78.55
L 79.55 77.65 78.85 78.7
Q 78.8 78.7 78.8 78.75 78.8 78.8 78.85 78.8 78.85 78.85 78.9 78.85 79.7 79.1 80.6 78.65 81.05 78.35 81.75 77.8 81.75 77.9 81.85 78 81.95 78.2 82.4 78.3 82.9 78.3 83.4 77.85
L 83.35 77.85
Q 84.1 77.4 84.6 76.8 84.5 77 84.3 77.3 83.75 77.7 83.7 78.2 83.65 78.35 83.85 78.65
L 83.85 78.7
Q 84.05 78.9 84.4 78.85 84.65 78.8 84.9 78.3 85 78.2 85.1 78.1 85.15 78.25 85.3 78.35 85.6 78.6 85.85 78.45 86.15 78.35 86.4 77.6 87.15 76.3 88.25 75.65 88.3 76.2 88.85 76.8 88.85 76.85 88.9 76.85
L 88.95 76.85 89 76.8
Q 89.5 75.9 89.4 75.45
M 57.7 109.8
Q 57.7 109.65 57.6 109.55 57.55 109.5 57.5 109.5
L 56.9 109.45 56.6 109.5
Q 56.55 109.5 56.55 109.55 56.4 109.65 56.4 110.15
L 56.4 110.6 56.45 110.7 56.55 110.85
Q 56.55 110.9 56.6 110.95
L 56.75 111.1
Q 57 111.3 57.4 111.2
L 57.45 111.2 57.8 110.9 57.8 110.85
Q 57.9 110.5 57.8 109.95
L 57.8 109.9 57.7 109.8
M 69.85 114.65
L 69.8 114.65
Q 69.55 114.65 69.4 115 69.1 115.25 68.95 115.4 68.6 115.6 67.95 115.2
L 66.75 114.25
Q 65.85 113.65 65.2 113.95
L 65.15 113.95
Q 64.7 114.15 64.25 114.9 63.4 115.9 62.65 115.65 62.3 115.6 61.8 115.2
L 61.75 115.2
Q 61.25 114.75 60.9 114.7
L 60.85 114.7
Q 60.6 114.7 60.5 114.8 60.4 114.9 60.45 115 60.4 115.05 60.5 115.1
L 60.5 115.15
Q 60.8 115.3 61.7 116.1 61.95 116.35 62.35 116.5 62.25 116.7 62.25 116.85
L 62.25 116.95
Q 62.45 118.15 63.75 118.5
L 63.7 118.5
Q 64.6 118.85 65.85 118.75 67.2 118.75 68.2 118.35 69.5 117.85 69.9 116.95 70.15 116.45 70.05 116.15
L 70.05 116.1
Q 69.95 116 69.95 115.9
L 70.05 115.8 70.05 115.75
Q 70.25 115.1 69.9 114.7
L 69.85 114.65
M 67.1 115.8
Q 68.05 116.65 68.9 116.55 68.5 117.1 67.7 117.45 66.85 117.85 65.3 117.85 64.3 117.7 63.95 117.55
L 63.95 117.5
Q 63.25 117.25 63.15 116.7
L 63.15 116.65 63.2 116.65
Q 63.75 116.55 64.35 116
L 65.45 114.7
Q 65.95 114.9 67.1 115.8
M 71.1 109.3
Q 71.05 109.3 71.05 109.35
L 70.9 109.6
Q 70.85 109.6 70.85 109.65 70.85 109.7 70.9 109.7 70.9 109.8 70.95 109.8 71 109.85 71 110.05
L 71 110.1 71.05 110.45 71.15 110.65 71.15 110.75 71.25 110.85 71.45 111 72.2 111 72.45 110.95
Q 72.7 110.85 72.7 110.4
L 72.65 110.15 72.65 110.1 72.4 109.8
Q 71.8 109.25 71.1 109.3 Z"/>

<path fill="#FFFFFF" stroke="none" d="
M 93.6 53.65
L 92.25 55.05
Q 92.45 55.15 92.8 55.3
L 92.85 55.35
Q 93.2 55.7 93.35 56.4
L 93.35 56.35 93.5 56.65
Q 93.5 56.7 93.5 56.8 93.4 57.15 93.15 57.25 92.9 57.35 92.45 57.2 92.25 57.15 91.55 56.55
L 90.7 55.7
Q 89.4 54.65 88.75 54.3 88.05 53.85 85.8 52.95
L 84.6 52.45 83.15 52.4
Q 82.5 52.4 81.95 52.4
L 80.35 58.35
Q 80.35 58.6 80.15 58.65 79.85 58.85 79.7 58.65 79.55 58.5 79.5 58.15 79.3 57.15 79.3 56.2 78.65 58.4 78.7 60.65 79.1 62 79.15 62.1
L 79.15 62.15
Q 79.3 62.75 79.05 63
L 79.1 63
Q 78.8 63.2 78.25 63.1
L 78.2 63.1 77.85 62.75
Q 77.5 62.75 77.2 62.5 72.3 59.65 69.3 54.65
L 69.25 54.65
Q 67.45 51.15 66.35 49.55
L 66.3 49.55
Q 65.65 48.35 64 46.3
L 64 46.25 58.35 38.95
Q 57.35 37.7 56.65 36.9 55.15 39.15 52.75 43.1
L 51.15 45.85
Q 50.55 46.75 50.15 47.55 50.4 47.55 50.65 47.65 51.4 47.65 51.4 48.1 51.5 48.3 51.1 48.55
L 51.05 48.55 50.45 48.65
Q 50.05 48.65 49.5 48.75 47.996875 51.4263671875 47.3 53.4
L 47.3 53.75
Q 47.3 58.5 47.2 60.85
L 47.05 65.05
Q 47.025 65.561328125 46.95 66 46.9837890625 66.1818359375 47 66.35 47 67.15 46.7 67.3
L 46.7 67.8
Q 46.7 68.2 46.45 68.2 46.2 68.3 46.1 68
L 46.1 67.9
Q 45.93828125 67.8935546875 45.8 67.7 45.65 67.55 45.55 67.15 45.35 66.45 45.4 65.3 45.45 64.05 45.4 63.45
L 45.2 61.25
Q 45.2 60.85 45.45 58.7 45.476953125 58.3484375 45.5 57.2 45.0794921875 57.830078125 44.65 58.6
L 44.5 58.85
Q 44.4955078125 53.1060546875 44.4 51.15
L 43.6 51.5
Q 42.8 51.95 42.1 52.35
L 42.15 52.35
Q 39 55.7 37.35 58.05
L 37.35 58.1
Q 37.15 58.3 37.05 58.4 37.55 64.1 37.5 69.8 37.5 73.4 38 74.85 39.05 77.75 43.25 80.6 47.55 83.4 56.9 87.55 60.25 89 61.95 89.65 64.75 90.6 67.1 90.7 68.4 90.75 69.55 90.65
L 69.55 90.7
Q 69.7 90.6 70.5 90.6 71.1 90.5 71.7 90.35 72.85 90.15 74.15 89.7 76.4 88.95 80.8 86.9 86.05 84.4 87.9 83
L 87.9 82.95
Q 88.2 82.8 88.45 82.7
L 90.15 80.6
Q 91 79.55 91.65 78.7 92.35 73.85 92.65 72.6 93.45 68.45 95.2 62.15 95.4 59.6 95.75 57.05 96.25 53.05 96.3 50.9 95.05 52.35 93.6 53.65
M 89.4 75.4
L 89.4 75.45
Q 89.5 75.9 89 76.8
L 88.95 76.85 88.9 76.85
Q 88.85 76.85 88.85 76.8 88.3 76.2 88.25 75.65 87.15 76.3 86.4 77.6 86.15 78.35 85.85 78.45 85.6 78.6 85.3 78.35 85.15 78.25 85.1 78.1 85 78.2 84.9 78.3 84.65 78.8 84.4 78.85 84.05 78.9 83.85 78.7
L 83.85 78.65
Q 83.65 78.35 83.7 78.2 83.75 77.7 84.3 77.3 84.5 77 84.6 76.8 84.1 77.4 83.35 77.85
L 83.4 77.85
Q 82.9 78.3 82.4 78.3 81.95 78.2 81.85 78 81.75 77.9 81.75 77.8 81.05 78.35 80.6 78.65 79.7 79.1 78.9 78.85 78.85 78.85 78.85 78.8 78.8 78.8 78.8 78.75 78.8 78.7 78.85 78.7
L 79.55 77.65 77.8 78.55
Q 77.45 78.8 77.2 78.8 76.8 78.8 76.8 78.4 76.8 78.2 77 78.05
L 79.45 76.3
Q 79.75 75.95 79.95 75.95
L 80.55 75.95
Q 80.75 76 81.3 75.65
L 81.3 75.6
Q 82.1 75.25 82.25 75.25 82.65 75.25 82.85 75.45
L 82.9 75.45
Q 83 75.6 83 75.75 83.05 75.65 83.1 75.65 83.65 75.15 83.95 75.3 84.25 75.35 84.2 75.7
L 84.2 75.75
Q 84.2 75.95 84.1 76.2
L 85.4 75.2
Q 85.4 75.15 85.45 75.15 85.55 75.15 85.6 75.2 86.05 75.6 85.9 76 86.05 75.95 86.15 75.8 86.4 75.4 86.65 75.35
L 87.2 75.35
Q 87.6 75.3 88.05 74.85 88.45 74.55 88.95 74.9
L 88.9 74.9
Q 89.15 75.05 89.4 75.4
M 40.15 76.3
L 40.15 76.25
Q 40.15 75.9 40.5 75.65 41.55 74.8 42.95 74.45
L 43 74.45 43.05 74.5
Q 43.2 74.75 43.3 75.15
L 43.8 74.4
Q 43.95 74.3 44.1 74.3 44.2 74.3 44.3 74.45
L 44.3 74.5 44.4 74.95 44.4 75 44.2 76.8
Q 44.3 76.7 44.55 76.5
L 45.9 74.85
Q 45.9 74.8 45.95 74.8
L 46 74.8
Q 46.55 75 46.55 75.55 46.65 75.5 46.85 75.3 47.1 74.9 47.4 74.9
L 47.45 74.9
Q 47.85 74.95 47.85 75.6
L 47.95 76.4
Q 48.05 76.35 48.2 76.35 48.7 76.35 48.85 76.75
L 49.35 76.5
Q 49.95 76.25 50.2 76.55 50.3 76.7 50.3 76.95 50.3 77.85 50.05 78.4
L 50 78.45 49.95 78.45 49.45 78.5 49.4 78.5
Q 49.15 78.25 49.15 78 49.15 77.8 49.25 77.65 49.05 77.7 48.75 77.9
L 48.85 77.9 48.3 78.45
Q 48 78.6 47.85 78.55 47.55 78.55 47.45 78.35
L 47.45 78.3 47.4 77.85 47.2 77.45 47.25 77.45
Q 46.9 76.85 46.95 76.15
L 46.6 76.5
Q 46.1 76.9 45.85 76.9 45.65 76.9 45.4 76.8 45.35 76.8 45.35 76.75
L 45.3 76.7
Q 45.05 77.05 44.9 77.35
L 44.85 77.35
Q 44.05 77.95 43.5 77.55 43.3 77.35 43.3 76.75 43.3 76.55 43.3 76.4 43.1 76.7 42.6 76.6
L 42.55 76.55
Q 42.25 76.05 42.35 75.45
L 41.15 76.35
Q 40.8 76.6 40.55 76.6 40.25 76.6 40.15 76.3
M 86.35 54
Q 86.55 54.1 86.65 54.6 86.75 55.1 86.75 56.2 86.7 59.05 86.45 61.9
L 85.65 70.45
Q 85.5 70.9 85.4 70.95 85.05 71.2 84.8 70.7
L 84.45 68.7
Q 84.25 67.3 84.45 65.25
L 84.8 61.1
Q 84.8208984375 58.233203125 84.9 56.65
L 85.15 54.25
Q 85.15 53.75 85.5 53.75 85.73671875 53.8025390625 85.85 54 86.0935546875 53.871875 86.35 54
M 58.55 77.2
L 58.75 77.2
Q 59 77.9 59.75 78.15 60.2 78.35 61.2 78.35
L 63 78.2 65.35 77.35 65.9 77.25
Q 66.55 77.25 67.1 77.9 68 78.7 68.15 78.75 68.6 78.95 69.5 78.95 70.5341796875 78.95 71.25 78.8 71.36640625 78.5333984375 71.6 78.5 71.7201171875 78.5 71.85 78.6 72.0111328125 78.5369140625 72.15 78.45 72.35 78.5 72.45 78.75 72.5 78.95 72.4 79.15 72.3216796875 79.3458984375 71.95 79.5 71.8 80.244921875 71.35 81.1 70.15 83.8 69.25 84.95 68.45 85.9 67.75 86.2 66.95 86.5 65.6 86.25
L 64.8 86.05
Q 64.2 85.85 63.2 85.2
L 62.6 84.75 62.25 84.4 61.9 83.95 61.5 83.15
Q 61.3 82.6 61.1 81.4
L 60.95 80.45 60.9 78.85
Q 59.451171875 78.8083984375 58.85 78.25 58.6 78.05 58.5 77.75 58.35 77.4 58.55 77.2
M 66.8 78.55
Q 66.35 78 65.85 78.05 65.75 78.05 65.3 78.2
L 64.7 78.3
Q 64.55 78.35 64 78.6 63.18828125 78.8865234375 61.55 78.9 61.6130859375 78.989453125 61.65 79.1
L 61.65 79.65
Q 61.6 80.45 61.95 81.65
L 62.2 82.7
Q 62.65 83.85 63.8 84.6 64.3 84.9 65.2 85.15 66 85.5 66.6 85.5 67.7 85.45 68.55 84.5 69 84 69.7 82.55 70.4888671875 80.934765625 70.9 79.8 69.714453125 79.9794921875 68.25 79.65 67.8 79.55 67.6 79.4 67.45 79.3 66.8 78.55
M 55.8 98.55
L 55.75 98.7 55.7 98.9 55.65 98.9 54.4 101.2
Q 54.15 101.8 53.8 102.45 51.35 107.65 50.45 109.95 49.5 112.25 48.6 115 47.7 117.6 45.3 124.75 45.3 124.8 45.2 124.95 44.75 126.8 44.15 129.55 43.8 130.3 43.75 130.8 43.75 130.95 43.75 131.05
L 43.75 131.1
Q 43.45 132.5 42.75 135.4 42.1 138.2 41.5 139.85 41.35 140.15 41.35 140.25 41.35 140.3 41.35 140.4
L 41.3 140.4
Q 40.7 142.7 39.9 144.6 37.95 149.35 35.5 153.05 39.55 153.3 45 153.95 45.35 151.8 45.8 150.15
L 46.25 147.55 46.15 147.6 46.15 147.55
Q 46.15 147.15 46.2 146.95 46.4 145.9 46.6 144.7
L 46.85 143.7
Q 46.85 143.45 46.95 143.2 49.2 132.3 50.3 126.6 51.25 121.5 51.9 117.1 52.25 114.5 52.55 113.1
L 52.5 113.05 52.5 113
Q 52.548046875 112.2814453125 55.8 98.55
M 57.7 97.8
Q 57.5451171875 98.107421875 57.35 98.4 57.1 98.85 56.9 99.25 56.5994140625 100.1767578125 56.35 100.75 53.55546875 111.2662109375 53.6 111.4 53.55 111.5 53.5 111.65
L 53.55 111.7 53.55 111.75
Q 53.05 119.05 50.75 130.35 47.65 145.4 47.05 149.1 46.95 149.85 46.7 150.35 46.5 152.3 46 154.1 51.45 154.55 58.35 155.35 69.65 156.45 75.15 156.75 78.3 156.9 81.1 156.85 80.9 156.8 80.7 156.7 79.6 156.05 79.85 155.2 79.95 154.8 80.45 154.5
L 80.45 154.55
Q 80.8 154.35 81.1 154.4 80.75 154.15 80.55 153.45 78.9 148.15 78.05 139.75 77.45 133.4 77.1 123.75
L 76.4 104.8
Q 76.25 101.9 75.55 99.85 75.35 99.1 74.95 98.4
L 73.6 97.75
Q 73.75 98.4 71.4 100.1
L 70.1 100.7
Q 69.05 101.2 68.75 101.35 68 101.5 66.6 101.4 64.45 101.15 63.65 100.75
L 63.7 100.75
Q 61.2 99.85 59.05 96.85
L 58.95 96.8
Q 58.4 97.05 58.05 97.4 57.912890625 97.6283203125 57.7 97.8
M 71.05 109.35
Q 71.05 109.3 71.1 109.3 71.8 109.25 72.4 109.8
L 72.65 110.1 72.65 110.15 72.7 110.4
Q 72.7 110.85 72.45 110.95
L 72.2 111 71.45 111 71.25 110.85 71.15 110.75 71.15 110.65 71.05 110.45 71 110.1 71 110.05
Q 71 109.85 70.95 109.8 70.9 109.8 70.9 109.7 70.85 109.7 70.85 109.65 70.85 109.6 70.9 109.6
L 71.05 109.35
M 69.8 114.65
L 69.85 114.65 69.9 114.7
Q 70.25 115.1 70.05 115.75
L 70.05 115.8 69.95 115.9
Q 69.95 116 70.05 116.1
L 70.05 116.15
Q 70.15 116.45 69.9 116.95 69.5 117.85 68.2 118.35 67.2 118.75 65.85 118.75 64.6 118.85 63.7 118.5
L 63.75 118.5
Q 62.45 118.15 62.25 116.95
L 62.25 116.85
Q 62.25 116.7 62.35 116.5 61.95 116.35 61.7 116.1 60.8 115.3 60.5 115.15
L 60.5 115.1
Q 60.4 115.05 60.45 115 60.4 114.9 60.5 114.8 60.6 114.7 60.85 114.7
L 60.9 114.7
Q 61.25 114.75 61.75 115.2
L 61.8 115.2
Q 62.3 115.6 62.65 115.65 63.4 115.9 64.25 114.9 64.7 114.15 65.15 113.95
L 65.2 113.95
Q 65.85 113.65 66.75 114.25
L 67.95 115.2
Q 68.6 115.6 68.95 115.4 69.1 115.25 69.4 115 69.55 114.65 69.8 114.65
M 57.6 109.55
Q 57.7 109.65 57.7 109.8
L 57.8 109.9 57.8 109.95
Q 57.9 110.5 57.8 110.85
L 57.8 110.9 57.45 111.2 57.4 111.2
Q 57 111.3 56.75 111.1
L 56.6 110.95
Q 56.55 110.9 56.55 110.85
L 56.45 110.7 56.4 110.6 56.4 110.15
Q 56.4 109.65 56.55 109.55 56.55 109.5 56.6 109.5
L 56.9 109.45 57.5 109.5
Q 57.55 109.5 57.6 109.55
M 68.9 116.55
Q 68.05 116.65 67.1 115.8 65.95 114.9 65.45 114.7
L 64.35 116
Q 63.75 116.55 63.2 116.65
L 63.15 116.65 63.15 116.7
Q 63.25 117.25 63.95 117.5
L 63.95 117.55
Q 64.3 117.7 65.3 117.85 66.85 117.85 67.7 117.45 68.5 117.1 68.9 116.55
M 77.8 101.45
Q 77.25 100.7 76.7 100 77 100.75 77.3 102.25 77.5 103.45 77.65 105.95
L 78.05 114.55
Q 78.2 115.15 78.15 115.35 78.05 115.45 78 115.55 78.2 118.15 78.4 121.3 79 132.95 79.1 134.15 79.3 136.95 79.9 142.4 80.65 148.1 81.6 151.45 82.85 152.7 83.15 153.65
L 83.15 153.55
Q 83.6 154.35 83.55 155.4 86.7 155.9 90.1 156.25 90.85 156.15 91.65 156.1
L 89.85 144.65 89.85 144.7
Q 89.8 144.7 89.75 144.7
L 89.7 144.7
Q 89.65 144.65 89.65 144.6
L 89.6 142.7
Q 89.6 141.8 89.4 141.4 89.35 141.15 89.25 140.95
L 88.8 138.05
Q 88.15 133.6 87.35 130.3 86.55 126.4 83.75 118.05
L 80.05 106.8
Q 78.9 103.35 77.8 101.45
M 63.2 91.2
Q 63.1 91.5 62.8 92.05
L 60.4 96.7 60.95 97.65 62.6 98.95
Q 63.5 99.4 63.95 99.5
L 65.4 99.9
Q 67.05 100.25 68.2 99.9 69.1 99.6 69.8 99.2
L 69.8 99.15 70.65 98.75 71.85 97.7 70 92
Q 65.8 91.8 63.8 91.3
L 63.2 91.2
M 24.85 17.6
Q 23.9 16.95 22.9 16.4
L 23.6 18.9
Q 24.2 18.2 24.85 17.6
M 46.95 25.45
Q 44.8 23.7 42.55 21.9 40.85 20.5 36.15 15.45 31.15 10 30.55 9.4 27.45 6.5 24.55 3.85 21.65 1.15 18.75 -0.7
L 20.35 5.65
Q 22.15 5.9 23.55 6.25 23.75 6.3 23.85 6.45 23.95 6.55 23.9 6.75 23.9 7 23.7 7.05 23.55 7.1 23.25 7
L 21.45 6.85 21.4 6.85
Q 21.15 6.7 20.1 6.7
L 19.65 6.7 11.85 6.1
Q 13.6 7.65 16 9.75 17.15 10.7 18.5 11.7
L 18.55 11.7 18.55 11.8
Q 18.5 11.85 18.85 12.15 19.2 12.5 20.1 13.15 21 13.75 21.95 14.4
L 23.15 15.15
Q 24.65 16.1 26.15 17.05
L 26.65 17.4 26.7 17.4
Q 26.9 17.75 26.2 18.4
L 23.35 21.5
Q 20.9 24.05 17.8 28.25
L 17.8 28.3
Q 17.65 28.4 17.65 28.6 17.65 28.75 18.1 28.95 20.1 29.85 22.6 29.7 22.7 29.7 22.75 29.7 22.9 29.6 23 29.45 22.5 29.2 22.45 28.95
L 22.45 28.9
Q 22.45 28.85 22.45 28.8 22.45 28.75 22.5 28.75
L 22.5 28.7
Q 29.5 25.85 29.7 25.65
L 29.7 25.6
Q 30.8 25 31.9 24.45 33.2 23.75 33.75 24.35
L 33.75 24.45 33.7 24.5
Q 32.35 25.3 28.5 27.3 26 28.65 25.25 29 25.9 29.2 28.2 30
L 31.55 30.6
Q 32.1 30.7 32.2 30.9 32.3 31.2 32.25 31.45 32.15 31.6 31.85 31.7 31.55 31.8 30.9 31.7 29.35 31.55 27.55 30.95 28.5 33.4 29.6 35.5 29.75 35.75 29.8 35.95
L 30.65 35.65 30.6 35.65
Q 39.3 31.85 46.95 25.45
M 104.15 31.6
Q 104 31.6 103.9 31.65 103.7 31.7 103.6 31.7 103.8 31.95 104.05 32.15 104.05 31.9 104.15 31.6
M 85.65 35.15
Q 85.6 35 85.6 34.85 85.55 35.05 85.45 35.3 85.4 36 85.3 36.8
L 85.3 36.85
Q 85.3 36.9 85.3 36.95 85.25 42.95 82.9 48.3
L 82.2 51.15 84.75 51.05
Q 84.75 51 84.8 51 84.85 51 84.9 51 86.35 51.4 88.5 52.35 89.8 52.85 90.4 53.5
L 90.35 53.5
Q 90.85 53.9 91 54
L 90.95 54
Q 91.05 54.05 91.15 54.1 91.2 53.75 91.45 53.3
L 91.4 53.35
Q 92.05 51.5 92.05 50.15 92.1 49.4 91.9 48.05 91.45 46.25 91.2 45.45 90.55 43.55 88.6 40.25 86.35 36.75 85.65 35.15
M 106.5 23.35
Q 107.3 20.65 108.3 17.65 108.6 16.85 108.85 16.2 106 18.4 103.35 20.85 104.9 22.05 106.5 23.35
M 111.5 7.65
L 111.5 7.6
Q 112.2 5.25 113.2 0.55 109.25 3.15 106.75 5.1 104.25 6.95 101.1 10.1 97.9 13.15 92.9 17.5 87.9 21.8 87.25 22.45
L 87.35 22.45 84.7 24.6
Q 90.5 28.3 93.15 29.5 94 29.85 97.05 31 99.5 31.95 100.9 32.8
L 103.55 34.5
Q 103.55 34.4 103.6 34.25 102.5 32.7 101.4 31.55
L 101.35 31.5 101.35 31.45
Q 101.35 31.4 101.4 31.4 101.75 31.05 102.2 30.95
L 103.65 30.45 103.6 30.45
Q 103.8 30.35 107.1 29.5 107.35 29.4 107.55 29.3
L 107.6 29.2
Q 109.3 28.8 111.2 28.3 102.95 22 102.25 21.45 101.7 20.95 101.7 20.6 101.7 20.4 102.25 19.85 104.5 17.9 113.95 10.7 116.4 9.05 118.9 7.5
L 114.85 8
Q 113.85 8.1 113.05 8.3
L 112.85 8.3
Q 112.75 8.25 112.6 8.2 112.25 8.05 111.55 7.7 111.5 7.7 111.5 7.65 Z"/>
</g>

<g id="Layer1_1_FILL">
<path fill="#000000" stroke="none" d="
M 46.15 55.45
L 46.1 55.45
Q 46.05 55.45 46 55.45 45.95 55.45 45.9 55.45 45.9 55.5 45.85 55.55 45.8 55.6 45.8 55.65 45.75 55.7 45.75 55.75 45.75 55.8 45.7 55.85 45.7 55.9 45.7 55.95 45.7 56 45.7 56.05 45.7 56.1 45.65 56.15 45.6 56.2 45.55 56.25 45.55 56.3 45.5 56.35 45.5 56.4 45.5 56.45 45.5 56.5 45.5 56.55 45.55 56.6 45.55 56.65 45.6 56.7 45.6 56.75 45.6 56.8 45.6 56.85 45.6 56.9 45.6 56.95 45.6 57 45.6 57.05 45.65 57.1 45.65 57.15 45.65 57.2 45.7 57.25 45.7 57.3 45.7 57.35 45.7 57.4 45.7 57.45 45.7 57.5 45.7 57.55 45.7 57.6 45.7 57.65 45.7 57.7 45.7 57.75 45.7 57.8 45.7 57.85 45.7 57.9 45.7 57.95 45.7 58 45.7 58.05 45.7 58.1 45.7 58.15 45.7 58.2 45.7 58.25 45.7 58.3 45.7 58.35 45.7 58.4 45.7 58.45 45.7 58.5 45.7 58.55 45.7 58.6 45.7 58.65 45.7 58.7 45.7 58.75 45.7 58.8 45.7 58.85 45.7 58.9 45.7 58.95 45.7 59 45.7 59.05 45.7 59.1 45.7 59.15 45.7 59.2 45.7 59.25 45.7 59.3 45.7 59.35 45.7 59.4 45.7 59.45 45.7 59.5 45.7 59.55 45.7 59.6 45.7 59.65 45.7 59.7 45.7 59.75 45.7 59.8 45.7 59.85 45.7 59.9 45.7 59.95 45.7 60 45.7 60.05 45.7 60.1 45.7 60.15 45.7 60.2 45.7 60.25 45.7 60.3 45.7 60.35 45.7 60.4 45.7 60.45 45.7 60.5 45.7 60.55 45.7 60.6 45.7 60.65 45.7 60.7 45.7 60.8 45.7 60.85 45.7 60.9 45.7 60.95 45.7 61 45.7 61.05 45.7 61.1 45.7 61.15 45.7 61.2 45.7 61.25 45.7 61.3 45.7 61.35 45.7 61.4 45.7 61.45 45.7 61.5 45.7 61.55 45.7 61.6 45.7 61.65 45.7 61.7 45.7 61.75 45.7 61.8 45.7 61.85 45.7 61.9 45.7 61.95 45.7 62 45.7 62.05 45.7 62.1 45.7 62.15 45.7 62.2 45.7 62.25 45.7 62.3 45.7 62.35 45.7 62.4 45.7 62.45 45.7 62.5 45.7 62.55 45.7 62.6 45.7 62.65 45.7 62.7 45.7 62.75 45.7 62.8 45.7 62.85 45.7 62.9 45.7 62.95 45.7 63 45.7 63.05 45.7 63.1 45.7 63.15 45.7 63.2 45.7 63.25 45.7 63.3 45.7 63.35 45.7 63.4 45.7 63.45 45.7 63.5 45.7 63.55 45.7 63.6 45.7 63.65 45.7 63.7 45.7 63.75 45.7 63.8 45.7 63.85 45.7 63.9 45.7 63.95 45.7 64 45.7 64.05 45.7 64.1 45.7 64.15 45.7 64.2 45.7 64.25 45.7 64.3 45.75 64.35 45.75 64.4 45.75 64.45 45.75 64.5 45.75 64.55 45.75 64.6 45.75 64.65 45.75 64.7 45.75 64.75 45.75 64.8 45.75 64.85 45.8 64.9 45.8 64.95 45.8 65 45.85 65.05 45.85 65.1 45.85 65.15 45.85 65.2 45.85 65.25 45.9 65.3 45.9 65.35 45.9 65.4 45.9 65.45 45.9 65.5 45.9 65.55 45.9 65.6 45.9 65.65 45.9 65.7 45.9 65.75 45.9 65.8 45.9 65.85 45.9 65.9 45.95 65.95 45.95 66 45.95 66.05 46 66.1 46 66.15 46 66.2 46 66.25 46 66.3 46 66.35 46 66.4 46 66.45 46 66.5 46 66.55 46 66.6 46.05 66.65 46.05 66.75 46.05 66.8 46.05 66.85 46.05 66.9 46.05 66.95 46.05 67 46.05 67.05 46.05 67.1 46.05 67.15 46.05 67.2 46.1 67.25 46.1 67.3 46.1 67.35 46.1 67.4 46.1 67.45 46.1 67.5 46.1 67.55 46.1 67.6 46.1 67.65 46.1 67.7 46.1 67.75 46.15 67.8 46.15 67.85 46.15 67.9 46.2 67.95 46.25 68 46.3 68.05 46.4 68.05 46.5 68.1 46.55 68.05 46.65 68.05 46.7 68 46.75 67.95 46.8 67.9 46.85 67.85 46.85 67.8 46.85 67.75 46.85 67.7 46.85 67.65 46.85 67.6 46.85 67.55 46.85 67.5 46.85 67.45 46.85 67.4 46.85 67.35 46.85 67.3 46.85 67.25 46.85 67.2 46.85 67.15 46.85 67.1 46.85 67.05 46.85 67 46.85 66.95 46.85 66.9 46.85 66.85 46.8 66.8 46.8 66.75 46.75 66.65 46.75 66.6 46.75 66.55 46.75 66.5 46.75 66.45 46.75 66.4 46.75 66.35 46.75 66.3 46.75 66.25 46.75 66.2 46.75 66.15 46.75 66.1 46.75 66.05 46.75 66 46.75 65.95 46.75 65.9 46.75 65.85 46.75 65.8 46.75 65.75 46.75 65.7 46.75 65.65 46.75 65.6 46.75 65.55 46.75 65.5 46.75 65.45 46.75 65.4 46.75 65.35 46.75 65.3 46.75 65.25 46.75 65.2 46.75 65.15 46.75 65.1 46.75 65.05 46.75 65 46.75 64.95 46.75 64.9 46.75 64.85 46.75 64.8 46.75 64.75 46.7 64.7 46.7 64.65 46.7 64.6 46.7 64.55 46.7 64.5 46.7 64.45 46.7 64.4 46.65 64.35 46.65 64.3 46.65 64.25 46.65 64.2 46.65 64.15 46.65 64.1 46.65 64.05 46.65 64 46.65 63.95 46.6 63.9 46.6 63.85 46.6 63.8 46.6 63.75 46.6 63.7 46.6 63.65 46.6 63.6 46.6 63.55 46.6 63.5 46.6 63.45 46.6 63.4 46.6 63.35 46.6 63.3 46.6 63.25 46.6 63.2 46.6 63.15 46.6 63.1 46.6 63.05 46.6 63 46.6 62.95 46.6 62.9 46.6 62.85 46.6 62.8 46.6 62.75 46.6 62.7 46.6 62.65 46.6 62.6 46.6 62.55 46.6 62.5 46.6 62.45 46.6 62.4 46.6 62.35 46.6 62.3 46.6 62.25 46.6 62.2 46.6 62.15 46.6 62.1 46.6 62.05 46.6 62 46.6 61.95 46.6 61.9 46.6 61.85 46.6 61.8 46.6 61.75 46.6 61.7 46.6 61.65 46.6 61.6 46.6 61.55 46.6 61.5 46.6 61.45 46.6 61.4 46.6 61.35 46.6 61.3 46.55 61.25 46.55 61.2 46.55 61.15 46.55 61.1 46.55 61.05 46.55 61 46.55 60.95 46.55 60.9 46.55 60.85 46.5 60.8 46.5 60.7 46.5 60.65 46.5 60.6 46.5 60.55 46.5 60.5 46.5 60.45 46.45 60.4 46.45 60.35 46.45 60.3 46.45 60.25 46.45 60.2 46.45 60.15 46.45 60.1 46.45 60.05 46.45 60 46.45 59.95 46.45 59.9 46.45 59.85 46.45 59.8 46.45 59.75 46.45 59.7 46.45 59.65 46.45 59.6 46.45 59.55 46.45 59.5 46.45 59.45 46.45 59.4 46.45 59.35 46.45 59.3 46.45 59.25 46.45 59.2 46.45 59.15 46.45 59.1 46.45 59.05 46.45 59 46.45 58.95 46.45 58.9 46.45 58.85 46.45 58.8 46.45 58.75 46.45 58.7 46.45 58.65 46.45 58.6 46.45 58.55 46.45 58.5 46.45 58.45 46.45 58.4 46.45 58.35 46.45 58.3 46.45 58.25 46.45 58.2 46.45 58.15 46.45 58.1 46.45 58.05 46.45 58 46.45 57.95 46.45 57.9 46.45 57.85 46.45 57.8 46.45 57.75 46.45 57.7 46.45 57.65 46.45 57.6 46.45 57.55 46.45 57.5 46.45 57.45 46.45 57.4 46.4 57.35 46.4 57.3 46.4 57.25 46.4 57.2 46.4 57.15 46.4 57.1 46.4 57.05 46.35 57 46.35 56.95 46.35 56.9 46.35 56.85 46.35 56.8 46.35 56.75 46.35 56.7 46.35 56.65 46.35 56.6 46.35 56.55 46.35 56.5 46.3 56.45 46.3 56.4 46.3 56.35 46.25 56.3 46.25 56.25 46.25 56.2 46.25 56.15 46.25 56.1 46.25 56.05 46.25 56 46.25 55.95 46.25 55.9 46.3 55.85 46.3 55.8 46.3 55.75 46.3 55.7 46.3 55.65 46.3 55.6 46.3 55.55 46.2 55.5 46.15 55.45 Z"/>
</g>

<path id="Layer0_0_1_STROKES" stroke="#000000" stroke-width="16" stroke-linejoin="miter" stroke-linecap="square" stroke-miterlimit="3" fill="none" d="
M 0 0
L 128 0 128 128 0 128 0 0 Z"/>
</defs>

<g transform="matrix( 1, 0, 0, 1, 0,0) ">
<use xlink:href="#Layer1_0_FILL"/>
</g>

<g transform="matrix( 1, 0, 0, 1, 0,0) ">
<use xlink:href="#Layer1_1_FILL"/>
</g>

<g transform="matrix( 1, 0, 0, 1, 0,0) ">
<use xlink:href="#Layer0_0_1_STROKES"/>
</g>
</svg>
