
<svg xmlns="http://www.w3.org/2000/svg" version="1.1" xmlns:xlink="http://www.w3.org/1999/xlink" preserveAspectRatio="none" x="0px" y="0px" width="128px" height="128px" viewBox="0 0 128 128">
<defs>
<g id="Layer1_0_FILL">
<path fill="#000000" stroke="none" d="
M 88.25 90.5
Q 88.1 90.4 88 90.3 87.15 89.65 86.05 90 85.95 90.1 85.9 90.25 85.8 90.45 85.75 90.7 85.05 93.35 84.55 96.05 84.4 97 84 97.9 83 100.3 82.3 102.85 82.25 103.1 82.15 103.35 82 103.7 81.95 104.05 81.55 105.7 80.95 107.4 79.65 103 78.25 98.7 78 97.85 77.8 97.05 77.15 94.4 75.8 91.9 75.7 91.05 75.05 90.55 74.85 90.45 74.7 90.35
L 72.85 90.65
Q 73.45 93.8 74.45 96.75 74.6 97.2 74.7 97.65 74.9 98.55 75 99.5 75.5 104.45 76.45 109.15
L 75.5 109.85 75.25 110.5 75.3 110.9
Q 75.2 111 75.1 111.15 73.1 114.15 74.35 117.5 74.55 118.1 74.55 118.7 74.55 118.85 74.7 119.05 74.9 119.35 75.1 119.7 75.5 120.2 75.8 120.75 76.9 122.65 78.35 123.7 78.3 123.45 78.2 123.3 77.45 121.95 76.7 120.6 76 119.25 75.4 117.9 75.25 117.5 75.1 117.1 74.7 115.85 75.1 114.45 75.55 112.95 76.05 111.5 76.1 111.3 76.1 111.1 76.2 111 76.35 110.9 76.75 110.6 77.2 110.4 77.3 110.3 77.35 110.2 78.5 108.95 80.45 109.05 80.65 109.3 80.9 109.5 81.1 109.7 81.4 109.85 81.45 109.75 81.5 109.65 81.5 109.55 81.5 109.5 82.45 110.05 83.35 110.75
L 83.3 110.85
Q 83.1 110.9 82.95 110.95 81.8 110.95 81 111.35 80.85 111.35 80.75 111.5
L 80.85 112.35
Q 80.2 113.65 79.7 115 78.85 117.25 79.3 119.6
L 80.05 120.3
Q 80.15 120.25 80.15 120.2 80.25 118.45 80.7 116.8 81.2 114.8 81.8 112.9
L 81.7 112.8
Q 82.45859375 112.5005859375 83.2 112.55
L 83.1 112.7 83.9 115.65 84.9 116.45
Q 85 116.35 85.1 116.25 85.2 116.15 85.2 116.1 85.25 117.25 86.25 118.1 86.8 118.6 87.65 118.6
L 88.6 117.45
Q 88.3 119.3 88 121.15 87.85 121.9 88.6 122.2 88.7 122.1 88.8 121.95 89.15 121.25 89.3 120.65 90 117.8 91.1 115.2
L 91.15 114.8 91.15 111.9 90.6 111.2 90.1 110.9
Q 89.7 109.65 89.3 108.55 89.05 107.85 88.25 107.35
L 86.1 107.45
Q 86.1 104.7 86.7 101.85 86.9 100.95 87.05 100.1 87.4 98.4 87.75 96.7 88.2 94.25 88.55 91.95 88.65 91.1 88.25 90.5
M 74.45 91.8
L 75.1 92.55
Q 75.6 93.75 76.05 95 78.1 101 79.6 107.05 79.65 107.4 79.65 107.75
L 77.3 108.65
Q 76.5 103.05 75.7 97.5 75.55 96.7 75.3 96 74.7 94.25 74.4 92.5 74.35 92.15 74.45 91.8
M 88.05 110.9
Q 88 110.95 87.95 111.05 87.35 112.55 86.25 113.3
L 84.8 114.55 84.3 113.15
Q 85.45 111 86.7 108.9 86.85 108.65 87.1 108.5
L 88.25 108.45
Q 88.45 108.8 88.55 109.2 88.55 109.35 88.55 109.45 88.6 109.95 88.75 110.45 88.6 110.65 88.4 110.8 88.25 110.85 88.1 110.85 88.05 110.85 88.05 110.9
M 89.65 114.25
Q 89.6 114.2 89.5 114.1 89.3 114.6 89 115.05 88.7 115.5 88.2 115.9 87.95 116.1 87.75 116.35 87.45 116.95 86.85 117.25 86.35 116.8 86.3 115.9 86.3 115.45 86.3 115.05
L 88 113.5 89.2 112
Q 89.4 112.05 89.6 112.15 89.8 112.1 89.95 112.2 90.05 112.3 90.05 112.5
L 90 113.9
Q 89.85 114.1 89.65 114.25
M 86.9 91.05
L 87.35 91 84.9 106
Q 84.95 106.45 84.95 106.95 85 107.9 85.05 108.85 85.1 109.75 84.35 110.55 83.75 110.05 83.25 109.55 82.812109375 109.2130859375 82.4 108.85 82.1958984375 108.6794921875 82 108.5 82.1 108 82.25 107.55 82.7 106.05 83.2 104.35 83.3 104.05 83.4 103.7 84.2 100.6 85.25 97.65 85.5 96.85 85.65 96.05 86.15 93.5 86.9 91.05
M 15.45 -15.5
Q 14.45 -14.45 13.6 -13.55 9.1 -8.95 3.95 -5.1 5.1 -3.85 6.25 -2.5 11.2 3.4 15.15 10.2 18.35 15.65 21.7 20.65
L 19.9 20.85
Q 19.45 20.65 19.05 20.45 17.45 20.05 15.8 20.1 14.75 19.85 13.75 19.65 13.5 19.65 13.25 19.65
L 13.1 20.1
Q 12.7 20.15 12.3 20.25 10.2 20.45 8.05 20.85 2.2 21.6 -3.6 21.7 -6.75 21.3 -9.45 21.3 -9.7 21.3 -9.95 21.4 -10.05 21.5 -10 21.55 -7.8 24.55 -4.75 26.45 -4.3 26.5 -4.4 26.15 -4.4 26.05 -4.4 26 -6.3 24.35 -8.2 22.75
L -2.75 23.1
Q -1.45 22.6 -0.25 22.8 3.7 22.9 7.4 22.2 10.95 21.55 14.55 20.95 15.75 21.15 17 21.4 19.1 21.3 20.8 22.1 20.85 22 20.9 21.9 21.25 21.9 21.65 21.9 22.1 21.9 22.6 21.85
L 23.05 22.15
Q 23.2 22.1 23.3 22.05 23.45 21.9 23.55 21.75 24.8 21.7 26.05 21.7 27.8 21.85 29.5 22.2 30.3923828125 22.4974609375 31.3 22.8 36.484765625 23.726953125 41.2 26.05 42.85 26.85 43.85 27.7 43.937109375 27.782421875 44 27.85 44.6296875 28.227734375 45.25 28.6 46.7 29.55 47.9 30.7 49.717578125 32.4373046875 51.6 34.05 52.780078125 34.823046875 53.7 35.5 54.3580078125 36.023046875 55.15 36.65 60.460546875 40.853515625 65.05 43.4 69.6962890625 45.948828125 70.4 46.4 75.4 49.9 81.15 52.1 78.65 53.8 76.75 56.3 75 58.7 72.95 60.2
L 72.95 60.15
Q 72.55 60.05 72.2 59.95
L 75 67 66.85 60.85 66.3 59.35
Q 66 60.2 66.1 61.2 66.2 62.6 66.35 64.05 66.75 68.5 67.8 72.85 68.25 74.75 68.25 76.6 68.3 83.1 68.45 89.75 68.65 98.05 68.35 106.2 68.3 106.1 68.25 106 67.6 104.85 66.85 103.65 66 102.25 64.85 101
L 64.8 100.35
Q 64.65 100.3 64.6 100.4 64.5 100.35 64.5 100.5
L 64.5 100.55
Q 64.4 100.55 64.35 100.55 64.25 100.45 64.2 100.4 64.1 100.4 64.05 100.45 64 100.45 63.95 100.55
L 64.05 100.65
Q 64.2 100.85 64.35 101.05 63 107.45 61.55 114.2 60.7 118.3 59.3 122.15 56.5 130 53.95 137.75 53.4 139.35 52.95 141.05 51.6 146 50.05 150.9 47.65 158.45 47.5 166.7 47.4 166.65 47.4 166.6 47.15 165.95 47.05 165.25 45.65 156.4 45.75 147.35 45.85 141.8 46.35 136.3 47.8 119.75 50.7 103.4 50.8 102.95 51.15 102.55 51.4 102.3 51.05 101.85 50.7 101.9 50.35 102 50.15 102.15 50 102.35 48.45 104 46.85 105.55 46.75 105.6 46.55 105.6
L 49.55 92.5
Q 49.45 92.1 49.5 91.7 49.95 89 49.75 86.3 49.7 85.8 49.7 85.3 49.65 79 51.05 72.65 51.05 72.55 51.15 72.55 51.7 72.95 51.65 71.95 51.45 66.9 52.35 61.7 54.55 65.5 55.9 69.6 56.5 71.45 56.8 73.5 56.9 74.3 57.75 74.55 57.85 74.45 57.85 74.35 58 66.45 58.1 58.6 58.15 56.9 57.45 55.4 56.95 54.25 56.35 53.3
L 66.15 54.7
Q 66.1 54.3 66 53.95 65.8 53.35 65.4 53 64.8 52.4 64.35 51.75 62.25 48.75 60.2 45.85 58.95 44.1 57.3 43.05
L 65.05 53.5 55.55 52.4 55.5 52.4
Q 54.95 52.05 54.45 51.7 55.3 53.05 56.05 54.45 56.65 55.5 56.65 56.5 56.75 62.65 56.75 68.8 56.75 68.85 56.75 68.9
L 56.65 68.85
Q 55.1 65.4 53.55 62.25 51.85 58.85 49.7 55.8 48.7 54.35 47.8 52.9 45.15 48.65 42.7 44.3 42.55 44 42.4 43.75 42.4 43.4 42.4 43.05 42.45 42.1 41.75 41.55 41.5 42.25 41.35 43.05 39.95 49.9 41.9 56.85
L 41.85 56.85
Q 40.55 55.4 39.3 53.9 36.55 50.7 34.1 47.5 29.3 41.05 27 33.55 26.85 33 26.55 32.55
L 26.25 32.2 25.75 32.4
Q 25.6 37.9 24.85 43.4 24.75 43.95 24.5 44.65 23.8 46.45 23.15 48.3 20.7 55.55 21.65 63.1 22 65.75 22.25 68.45 22.8 74.7 25.5 80.35 23 78.75 21.35 76.65 20.5322265625 75.6900390625 20.15 74.3 19.945703125 74.1365234375 19.8 73.9 19.6 73.6 19.5 73.55
L 19.15 72.55 19.15 72.55
Q 17.25 69.2 16.05 65.65 14.8 61.95 14.75 57.9 14.6 47.35 16.85 37.05 17.85 32.45 19.7 28 20.5 26.1 21.7 24.55
L 21.15 23.85
Q 19.8 24.45 19.25 25.9 17.65 30 15.6 33.85 14.8 35.4 13.95 36.8 12.15 39.9 10.55 43.05 6.55 50.9 5.15 59.35 4.7 53.3 5.75 47.3 6.45 43.5 8.65 40.45
L 8 39.55
Q 6.3 41.95 4.7 44.5 3.5 46.3 2.35 48.15 0 51.8 -2.65 55.5 -2.7 55.55 -2.8 55.55 -3.65 47.45 -9.55 62 -10.35 64.05 -11.75 65.75 -13 67.2 -14 68.75 -14 68.8 -14.05 68.85 -14.4 69.25 -14.55 69.6 -14.95 70.55 -15.5 71.4 -16.85 73.55 -17.35 75.8 -18.8 72.05 -18.65 67.75 -18.5 63.35 -18.05 58.95 -17.7 55.9 -16.55 52.95 -16.45 52.65 -16.55 52.45
L -17.5 51.65 -21.85 53.8
Q -21.5 52.9 -20.6 52.05 -19.55 51.1 -18.9 50 -18.2 48.75 -17.2 47.5 -15.1 44.9 -13.4 41.95 -13 41.2 -12.45 40.6 -11.75 39.85 -11.7 39.25
L -12.5 38.7
Q -16.4 44.5 -20.65 50.2 -23.45 53.9 -27.05 56.7
L -26.05 57.5 -17.95 53.5
Q -18.9 56.4 -19.3 59.4 -19.55 61.05 -19.7 62.75 -20.2 67.65 -19.45 72.5 -19 75.2 -17.4 77.45
L -16.95 76.7
Q -16.8 77 -16.65 76.7 -16.45 76.35 -16.35 76 -16 74.7 -15.25 73.65
L -14.85 73.55 -13.9 72.2
Q -13.9 72.25 -13.9 72.3 -13.35 75.65 -13.1 79 -13 80.15 -12.7 81.15 -12.6 81.5 -12.55 81.9 -12.3 85.15 -11.85 88.4 -11.75 89.15 -11.65 89.95 -11.65 90 -11.65 90.05 -11.05 91.75 -10.8 93.3 -10 98.45 -8.05 103.35
L -12.15 99.45 -7.2 105.15
Q -7.25 104.55 -7.3 104 -7.45 102.85 -8 101.8 -8.3 101.1 -8.5 100.35 -9.4 96.8 -9.95 92.95 -8.05 94.65 -5.75 95.6 -4.9 95.95 -4 96.25 -2.2 96.1 -0.65 97.1 -0.55 97.15 -0.4 97.2 -0.3 97.1 -0.2 97.05 2.9 98.05 5.95 99.35 10.45 101.05 15.05 102.3 15.2 102.65 15.3 103.05 16.4 107 14.5 110.9 14.2 110.65 13.95 110.4 13.4 109.85 12.5 109.7 12.25 109.65 12 109.7 9.45 110.75 7.05 109.5
L 3.8 111.5 3.75 112
Q 3.3 112.35 2.7 112.75 2.15 113.2 1.25 113.05 0.2 112.85 -0.25 113
L -0.75 117.95
Q -0.25 118.6 0.2 118.85 0.35 118.9 0.5 119.05 2.3 119.5 4.05 120.05
L 5.9 124.15 8.95 124.1 6.15 123
Q 5.75 121.35 4.45 120.05 4.4 119.95 4.4 119.9 3.9 119.35 3.55 119.1 1.95 118.25 0.3 118
L 0.7 114
Q 0.9 113.95 1.15 113.9 1.85 114 2.35 114.1 3.8 113.85 4.85 112.7
L 5.05 112.15
Q 5.8 111.55 6.6 111.05 7.55 110.4 8.7 110.95 9.1 111.1 9.6 111.2 11 111.3 12.45 110.8 13.65 110.3 14.35 111.3
L 13.6 112.85
Q 13.3 112.9 13 112.9 12.15 112.9 11.35 112.6 10.15 112.15 9.1 111.8 9 111.85 9 111.9 10.05 112.7 11.25 113.4 12.55 114.2 14.2 113.95 17.2 110.15 16.7 105.25 16.55 103.75 15.85 102.5
L 16.95 102.65 15.9 102.35
Q 19.25 103.15 22.45 104 22.7 104 22.95 103.9 25.15 103.3 27.35 102.6 27.4 102.6 27.45 102.65 27.55 104.15 27.55 105.45 27.6 107.3 28.3 109.1 28.8 110.35 29.6 111.5 29.95 112 30.5 112.4
L 29.75 110.5
Q 30 110.75 30.35 110.6 31.45 110 32.6 110.15 33.15 110.05 33.6 110.45 34.8 111.4 35.95 112.85 35.9 112.85 35.85 112.9 35.45 113.45 36.35 113.6
L 39.35 113.35 41.55 116.9
Q 41.45 117 41.4 117.1 41.35 117.2 41.35 117.3 41.4 117.75 41.5 118.25 41.51796875 118.3216796875 41.5 118.4 41.5 118.47890625 41.5 118.6 41.5 118.8 41.7 119.1
L 41.95 119.45 39.6 122.95
Q 39.5 122.9 39.45 122.9 39.2 122.7 38.95 122.7 37.25 122 35.6 122.4 35.5 122.4 35.45 122.5 35.15 122.5 34.9 122.55 34.3 122.95 33.65 123.3 32.05 124.4 31.15 125.95 29.4 124.7 27.4 124.9 25.45 125.25 23.9 126.5
L 25.1 127.25
Q 25.4 127.1 25.7 126.9 26.4 126.55 27.1 126.35 29.85 125.5 31.85 127.2 32.4 127.65 32.4 127.3
L 31.85 126.6 36.1 123 39.65 123.5
Q 39.75 123.4 39.9 123.3
L 39.9 123.25
Q 39.95 123.25 40 123.25
L 40.05 123.3 40.05 123.35
Q 40.25 123.85 40.65 123.45 41.25 122.7 41.9 122.05 42.5955078125 121.3197265625 42.85 120.55 43.9173828125 121.721484375 44.75 122.1 44.95 122.2 45.05 122.15 45.25 122.15 45.25 121.95 45 121.5 44.2 120.9 43.35 120.25 43.05 119.9 43.0091796875 119.8232421875 42.95 119.75
L 42 116.65
Q 41.9 116.45 41.85 116.3 40.75 113.8 38.95 112.3
L 36.4 112.7 32.95 109.1
Q 32.5 109.05 32.1 109 31.25 109.15 30.45 109.35 30.1 109.55 29.8 109.85 29.65 109.95 29.4 110 28.15 106.3 28.45 102.45
L 38.95 99
Q 41.5203125 98.2265625 43.25 97.45
L 44.6 96.9
Q 44.9587890625 96.823046875 45.3 96.85 46.0810546875 96.2794921875 46.9 95.4
L 47.05 94.8 47.75 94.55
Q 47 97.35 46.65 100.3 45.9 106.2 42.5 111
L 42.75 112.05
Q 43.05 111.95 43.3 111.8 43.7 111.45 44 110.95 44.25 110.65 44.5 110.35 46.75 107.4 49.45 104.75 49.45 104.8 49.45 104.9 46.45 121.4 45.05 138.1 43.95 150.75 45.6 163.2 45.8 164.85 46.4 166.3 47.05 167.7 48.45 168.1 48.4990234375 166.9603515625 48.45 165.15 48.4 164 48.55 162.95 49.25 158.05 50.3 153.35 50.45 152.7 50.65 152.15 53.25 144.25 55.9 136.5
L 55.4 136.15
Q 56.15 134.3 56.95 132.25 57.45 130.95 57.9 129.65 59.95 123.25 61.6 116.75 63.45 109.3 64.9 101.8 64.9 101.7 64.95 101.65 65.6 102.05 65.95 102.7 66.6 103.95 67.4 105.8 68.35 107.85 68.9 109.55 69.2 109.8 69.55 109.95 69.75 110.15 70.05 110.3 70.1 110.05 70.05 109.8 69.95 108.9 69.8 108 69.65 107 69.7 106 70.7 83.95 67.15 62 67.15 61.9 67.25 61.85 68.5 62.55 69.7 63.6 69.75 63.65 69.85 63.7 71.3 64.85 72.75 66.45 72.95 66.6 72.95 66.2
L 77.05 69.65 73.6 61.2
Q 74.6 60.8 75.2 60.05 76.45 58.65 77.65 57.2 78.95 55.5 80.65 54.2 81.65 53.55 82.8 53.2 83.3 53 83.25 52.45 82.65 51.5 81.65 51.2 78.95 50.35 76.65 49.15 74.05 47.85 71.7 46.25 70.45 45.4 69.05 44.8 65.5953125 43.13125 62.4 41
L 63.75 39 63.8 39
Q 63.88125 38.860546875 63.95 38.7
L 67.05 31.35
Q 68.6 27.8626953125 68.95 25.6 68.8892578125 25.22421875 68.75 24.85 68.6 24.45 68.3 24.15 65.25 21.45 62.15 18.85 59.55 16.6 56.65 14.55 52.6 11.55 47.85 10 40.9 7.7 33.65 6.4 32.2 6.15 30.8 5.95 29.45 5.55 28 5.85 27.8 6.35 27.75 6.9 27.5 12.65 25.8 18.1 25.4 19.5 26.25 20.55
L 23 20.55
Q 21 16.85 19.55 12.75 17.9 7.95 16.3 3.1 15.55 0.9 14.75 -1.05 14.1 -2.6 13.95 -3.9
L 22.85 -15.15
Q 23.25 -14.95 23.6 -14.6 25.9 -12.4 27.75 -9.8 27.95 -9.5 28 -9.1 28.3 -5.55 27.1 -2.45 21.85 -2.65 16.6 -2.65 15.9 -2.65 15.2 -2.45 15.5 -2.25 15.8 -2 17.2 -0.95 18.6 -0.15 23.85 2.75 29.2 5.6 29.4 5.65 29.7 5.65
L 34.8 -7.8
Q 30.05 -13.25 24.8 -18.2 23.75 -19.15 22.6 -19.9 22.1 -20.15 21.65 -20 18.1 -18.3 15.45 -15.5
M 5.95 -4.35
Q 6.5 -5.05 7.05 -5.45 8.5 -6.35 9.65 -7.45 11.9 -9.55 14.15 -11.9 17.3 -15.2 21.15 -17.9 21.9 -18.4 22.95 -18.7 25.85 -16.6 28.25 -13.9 30.9 -11.05 33.45 -8.3 31.95 -5.7 30.95 -3.15 29.5 0.4 28.25 4.2
L 19.6 -0.95 28.4 -1
Q 28.5 -1.15 28.55 -1.35 29.75 -4.85 30 -8.75
L 22.25 -17.15 12.45 -4.65 18.5 14.2
Q 16 9.45 12.8 5 9.55 0.6 6.3 -3.7 6.1 -4.05 5.95 -4.35
M 61.85 19.65
Q 62.55 20.35 63.35 20.95 65.9 22.85 68 25 67.7431640625 26.34296875 67.4 27.65 65.4041015625 25.8005859375 64.45 25.15 63.35 24.5 62.35 23.75 58.5 21.1 54.35 18.9 50.9 17.05 47.5 15.2 38.75 10.25 28.55 10.25
L 28.85 7.1
Q 32.4 7.25 35.85 7.95 39.55 8.85 43.3 9.75 49.1 11.25 54.15 14.05 58.3 16.3 61.85 19.65
M 49.95 17.65
Q 53.75 19.65 57.4 21.65 61.423046875 23.921875 67.25 28.15 66.40625 31.579296875 64.8 35.15 61.331640625 32.05 58.3 30.25 55.5 28.5 52.5 27.05 47.55 24.75 42.75 22.35 38.25 20.05 33.5 18.05 30.65 16.8 27.7 16.55
L 28.45 11.25
Q 28.9 11.3 29.4 11.4 36.15 11.55 42.25 14.1 46.15 15.75 49.95 17.65
M 52.45 33.9
Q 52.2130859375 33.64765625 51.95 33.4 47.65 29.35 42.65 26.2 40 24.45 37.2 23.55 36.85 23.55 36.55 23.6 35.1 23.15 33.7 22.6 32.45 22.2 31.3 21.55 30.5 21.2 29.65 20.9 28.7 20.6 27.65 20.3
L 27.2 20.6 26.65 20.55 27.5 16.8
Q 29.4 18.15 31.85 18.55 32.4 18.7 33 18.9 36.7 20.2 40.05 22.1 42.9 23.75 45.95 25 50 26.75 54 28.8 55.4 29.55 56.75 30.5 59.397265625 32.197265625 62.25 34.3 63.9373046875 35.548828125 64.5 35.8 64.4525390625 35.938671875 64.4 36.05 63.4591796875 37.978515625 61.6 40.5 58.539453125 38.428125 55.7 35.9 52.822265625 34.0162109375 52.45 33.9
M 42.25 44.8
L 42.3 44.75
Q 44.75 49.75 47.75 54.6 49 56.7 50.45 58.7 50.6 58.95 50.8 59.15 50.8 60 50.75 60.85 50.6 65.45 50 70 49.6 72.9 49.35 75.6 49.15 77.8 48.9 80 48.8 80.95 48.75 81.95 48.7 84.2 48.65 86.5 48.6 88.9 48.45 91.35 48.4 91.8 48.15 92.2 47.85 92.7 47.35 93.1 46.8 93.55 46.4 94.1 45.5 95.35 44.1 96.35 43.6 96.35 43.15 96.55 35.5 98.8 28.15 101.55
L 28.1 101.55
Q 27.9 101.35 27.75 101.55 27.55 101.4 27.45 101.65
L 21.5 103.45
Q 20.15 102.95 18.8 102.45 17.6 101.95 16.2 101.7 13.3 101.15 10.55 100.2 10 99.95 9.6 99.6 9.35 99.35 9.05 99.3 4.9 97.5 0.45 96.3 -0.55 96.05 -1.45 95.65 -2 95.5 -2.7 95.5 -3.45 95.25 -4.2 95.05 -5.25 94.7 -6.25 94.3 -7.45 93.9 -8.45 93.3 -9.75 92.55 -10.3 91.15 -10.75 89.95 -10.8 88.7 -10.85 87.05 -11.15 85.35 -11.25 84.9 -11.3 84.5 -11.65 82.15 -11.8 79.85 -12 77.35 -12.15 74.9 -12.3 72.4 -12.5 69.95
L -3.95 59.2 -3.5 59.05 4.1 49.35
Q 3.75 52.65 3.75 56.05 3.75 58.25 4 60.45 4.3 62.7 5.85 64.35 6.25 64.7 6.7 65.05
L 6.15 64.05
Q 5.85 57.85 8.05 52.05 9.3 48.7 10.6 45.45 12.5 40.85 15.25 36.85 15.3 36.8 15.35 36.8 15.35 36.85 15.35 36.95 12.8 48.55 13.55 60.45 13.7 62.7 14.55 64.95 16.8 70.7 20 76 20.4 76.7 21 77.25 21 77.2 21.1 77.1 21.15 77.1 21.2 77.2 22.35 78.65 23.9 79.9 25.85 81.4 27.8 82.85 28.6 83.5 29.9 83.85 31.120703125 83.98203125 31.7 83.35
L 31.7 83.35
Q 30.2 83.3 28.9 82.55 28.4130859375 82.271875 27.95 81.9
L 27.8 81.9
Q 27.65 81.75 27.5 81.6 27.4119140625 81.4826171875 27.3 81.35 26.0607421875 80.1064453125 25.3 78.2 25.2830078125 78.2169921875 25.25 78.25 24.65 76.85 24.4 75.3 23.65 70.35 22.85 65.15 22.4 62.25 22.5 59.2 22.55 58 22.65 56.8 22.7 55.95 23.05 55.2 23.0880859375 55.085546875 23.1 54.95 23.180078125 54.4427734375 23.25 53.8 23.8 50.65 23.9 50.15 24.4 48.3 25.55 45.6 25.5814453125 45.517578125 25.6 45.45 26.373828125 40.5783203125 26.7 35.5 26.75 35.55 26.8 35.6 27.95 38.1 29.3 40.55 30.8 43.4 32.6 46.05 36.5 52.05 41.45 57.1 43.15 58.9 45.05 60.5
L 45.2 60.4
Q 42.7 57.75 42.2 53.9 41.55 49.25 42.25 44.8
M 34.35 57.3
L 34.9 57.9 35.05 58
Q 35.15 58.05 35.35 57.95 35.7 57.75 36.5 57.65
L 38.25 57.5
Q 38.45 57.45 38.45 57.2 38.1 56.85 37.9 56.75 37.7 56.6 37.25 56.6 36.5 56.55 35.55 56.7 34.7 56.9 34.35 57.3
M 36.5 61.5
Q 37.05 61.6 37.9 61.3 40.55 60.45 42.55 62.25 42.8 62.45 43 62.75 43.3 65.05 43.4 67.35 43.55 70.6 43.5 73.9 43.45 78.1 43.85 82.2 43.9 83.25 44.5 84 44.65 84.1 44.75 84.25 45.1 84.15 45.4 84.1 45.7 80.85 45.45 77.65 45.4 76.75 45.45 75.9 45.6 74.4 45.7 72.85 45.9 69.05 45.9 65.15 46.55 66.65 47.15 68.1 47.45 68.8 48.05 68.9 48.1 68.6 48.1 68.4 47.75 67.2 47.25 66.15 46.3 64.15 44.5 62.6 42.75 61.15 40.9 60.2 40.1 59.8 39.15 59.95 38.4 60 37.55 59.95 35.1 60.1 34.25 62.35
L 35.1 62.95 36.5 61.5
M 47.3 86.3
L 46.4 85.55 44.4 89.15 45.3 90.1 47.3 86.3
M 44.15 85.9
L 43.25 85.1 41.9 87.45 41.45 88.9 42.2 89.6 44.15 85.9
M 38.4 88.95
L 39.25 89.75 41.7 85.95 40.85 85.15 38.65 88.2 38.4 88.95
M 15.45 91.65
L 15.65 91.1 26 91.3 27.6 94.1 28.1 93.15 28.15 92.6 28.5 92.25
Q 29.7150390625 96.84140625 28.7 98.95 27.6865234375 101.0970703125 28.6 99.9 29.5107421875 98.7115234375 29.7 96 29.945703125 93.344140625 28.65 91 28.35 90.4 28 89.85 27.8 89.9 27.6 90 26.3 90.25 25.05 90.25 20.15 90.15 15.3 90.15 13.7041015625 91.9041015625 13.6 94.35 13.4873046875 96.8376953125 14.6 98.55 15.716796875 100.31640625 16.8 100.8 15.51171875 100.14921875 14.75 97.4 13.98828125 94.65078125 15.45 91.65
M 26.55 91.25
Q 26.9662109375 91.178515625 27.45 91.15 27.9337890625 91.121484375 27.65 92.6
L 27.7 92.85
Q 26.65 91.8 26.55 91.25
M 44.45 40.6
Q 47.8 42.3 50.5 44.5 52.7 46.1 53.9 47.85 54.15 48.2 54.6 48.95 55.05 49.6 55.45 49.95 55.6 50.1 55.7 50.1 55.9 50.05 55.9 49.8 55.9 49.6 55.75 49.45 52.4 44.15 45.3 40.1 44.45 39.55 43.6 39.2 42.2 38.55 40.45 38.25 39.5 38.15 39.05 38.25 38.25 38.45 37.9 39 38.05 39.6 38.75 39.6 38.95 39.65 39.85 39.5 41.6 39.25 44.45 40.6
M -35.8 43.75
Q -36.5 44.15 -37.25 44.5 -40.6 46.25 -44.2 47.45 -45.1 47.8 -46 48.1 -47.4 48.25 -48.7 48.85 -48.2 49.65 -47.25 50.05 -44.3 51.4 -41.35 52.8 -39 53.85 -37.1 55.4 -35.8 56.45 -34.65 57.35 -36.1 59.1 -36.9 61.25 -38.55 65.8 -40.2 70.35 -40.35 70.85 -40.2 71.35 -40 72.2 -39.15 72.45 -37.65 68.55 -35.05 65.25 -34.55 64.6 -34 64 -33.45 63.5 -32.8 63.1
L -32.6 64 -32.25 62.6 -30.8 61.35
Q -30.85 61.4 -30.85 61.5 -30.6 63 -30.45 64.55 -30.35 65.6 -30.4 66.7 -30.45 67.95 -30.6 69.2 -31.2 74.7 -31.85 80.2 -32.15 82.6 -32.15 84.95 -32.1 89.25 -32.65 93.8 -32.85 95.7 -33.25 97.6 -34.05 101.4 -34.9 105.25 -35.05 105.9 -35.5 106.6 -35.4 106.8 -35.35 107 -35.25 107.3 -35.1 107.6 -35.05 107.8 -34.8 107.9 -34.75 108 -34.6 108 -34.5 107.9 -34.45 107.8 -34.25 107.4 -34 107 -31.75 103.55 -28.55 100.55 -27.7 99.75 -26.95 98.8 -26.95 99.45 -26.95 100.1 -26.95 100.8 -26.85 101.45 -26.55 103.1 -26.4 104.85 -26.15 107.65 -25.8 110.45 -25.4 114 -24.95 117.6 -24.4 121.9 -23.4 126.15 -22.45 130.25 -21.65 134.4 -20.7 139.5 -19.65 144.6 -19.35 145.95 -19.05 147.35 -18.1 152.1 -16.05 156.45 -13.95 160.75 -12.2 165.2 -10.45 169.75 -9.9 174.4 -9.8 174.75 -9.7 175.15 -9.5 175.65 -9.2 176.15 -9.1 176.25 -8.95 176.4 -8.8 176.45 -8.6 176.5 -8.5 176.6 -8.35 176.5 -8.3 176.5 -8.3 176.4
L -8.3 176.35
Q -8.35 172.8 -8.35 169.25 -8.4 162.7 -8.45 156.05 -8.5 147.65 -8.4 139.25 -8.35 136.85 -8.3 134.45 -8.2 128.7 -8.15 122.9 -8.05 114.1 -9.85 105.35 -10.15 104 -10.65 102.8 -11.05 101.95 -11.2 101.1 -11.35 100.5 -11.9 100.35 -12 100.8 -11.95 101.25 -11.9 101.95 -11.65 102.7 -11.5 103.15 -11.4 103.95 -11.35 104.2 -11.25 104.45 -11 105.1 -10.85 105.8 -10.2 109.5 -9.7 113.25 -9.15 117.7 -9.05 122 -9.05 123.35 -9.1 124.75 -9.6 139.75 -9.45 154.75 -9.35 162.35 -9.4 169.95 -9.65 169.1 -9.95 168.3 -10.55 166.5 -11.2 164.75 -12.45 161.25 -14.1 157.7 -14.8 156.2 -15.45 154.6 -15.65 154.2 -15.8 153.8 -16.45 152.2 -16.8 150.65 -19.3 140.4 -21.55 129.9 -23.5 120.6 -24.5 111.25 -25.1 105.55 -25.45 99.6
L -25.85 100 -25.95 97.55 -25.35 96.2 -26.05 95.6 -26.95 95.7 -27.05 96.7 -33.1 103.7
Q -32.7 102 -32.35 100.35 -32 98.65 -31.75 96.95 -31.5 95.2 -31.4 93.5 -31 87.35 -30.65 81.1 -30.6 80.45 -30.5 79.85 -29.2 71.15 -29.35 62.5 -29.35 61.55 -30.25 60.95
L -31.2 59.75
Q -31.75 60.3 -32.5 60.85 -32.8 61 -33.05 61.2 -33.65 61.65 -34.2 62.25 -34.45 62.55 -34.7 62.85 -35.9 64.15 -37.05 65.5
L -33.6 57.95 -32.65 58.15
Q -32.75 57.85 -32.85 57.6 -32.95 57.5 -33.05 57.4 -33.65 56.85 -34.3 56.4 -36.15 55.3 -37.7 53.95 -39.55 52.35 -41.8 51.5 -43.65 50.8 -45.35 49.65 -40.85 48.2 -36.8 46.15 -34.6 44.95 -32.75 43.35 -31.25 42 -29.8 40.65 -30.1 40.3 -30.35 40 -30.35 39.95 -30.3 39.95 -30.25 40 -30.2 40.05 -30.05 40.1 -29.9 40.2 -29.8 40.15 -29.75 40.1 -29.5 39.9 -29.35 39.65 -28.35 38.45 -26.9 37.55 -22.25 34.5 -17.25 31.95 -16.35 31.55 -15.45 31.15 -14.15 30.6 -12.8 30.05 -9.35 28.75 -6.1 27.15 -5.7 26.85 -5.35 26.45
L -6.15 26
Q -6.45 26 -6.9 26.2 -7.45 26.3 -7.9 26.55 -8.15 26.65 -8.35 26.75 -8.7 26.85 -9 26.95 -13.4 28.55 -17.8 30.5 -18.85 30.95 -19.8 31.5 -26.6 35.2 -32.6 40.25 -33.75 41.15 -34.7 42.2
L -34.3 42.6
Q -35.05 43.15 -35.8 43.75
M 18.35 125
L 14.1 126.3
Q 12.5 125.4 11.25 124.65 10.35 124.2 9.4 123.95 9.3 123.95 9.2 124.15
L 14.35 127.25 19.15 126
Q 21.75 127.2 24.45 128.4 24.55 128.4 24.7 128.3
L 23.3 126.65 18.35 125
M 21.35 120.55
Q 23.8 121.65 26.1 122.2 25.8 121.7 25.4 121.4 24.3 120.8 23.2 120.15 21.7 119.4 20.05 119.1 16.5 121.1 12.4 121.55 11.75 119.4 11 117.75 10.75 117.2 10.05 117 7.75 116.55 5.6 116
L 9.7 113.4 8.95 112.5
Q 7.55 113.1 6.2 113.75 5.35 114.3 4.65 115.2
L 5.15 115.9 4.75 116.2
Q 6.4 117.75 8.85 117.9 9.6 118.1 10.35 118.3 10.95 120.2 11.6 122.15 11.8 122.7 12.5 123 15.6 122.55 18.6 121.3 19.15 121.05 19.65 120.7 20.5 120.2 21.35 120.55
M 26.75 121.75
Q 27.85 120.15 29.25 118.65 29.8 118.05 30.55 117.9 33.05 117.7 35.65 118.35 35.95 118.3 36.25 118.25
L 36.8 115.55
Q 36.55 114.55 35.3 113.75 33.65 112.75 32.05 111.6 31.35 111 30.6 111.25 30.6 111.55 30.75 111.8 31 112.15 31.35 112.45 31.75 112.5 32.15 112.7 33.35 113.35 34.65 114.05 35.1 114.35 35.8 114.95
L 35.2 117
Q 32.8 116.8 30.4 116.65 29.55 116.55 28.95 117.1 27.9 118.1 26.85 119.1 26.05 119.9 26.15 120.95 26.2 121.75 26.75 121.75 Z"/>
</g>

<path id="Layer0_0_1_STROKES" stroke="#000000" stroke-width="16" stroke-linejoin="miter" stroke-linecap="square" stroke-miterlimit="3" fill="none" d="
M 0 0
L 128 0 128 128 0 128 0 0 Z"/>
</defs>

<g transform="matrix( 1, 0, 0, 1, 0,0) ">
<use xlink:href="#Layer1_0_FILL"/>
</g>

<g transform="matrix( 1, 0, 0, 1, 0,0) ">
<use xlink:href="#Layer0_0_1_STROKES"/>
</g>
</svg>
