
<svg xmlns="http://www.w3.org/2000/svg" version="1.1" xmlns:xlink="http://www.w3.org/1999/xlink" preserveAspectRatio="none" x="0px" y="0px" width="128px" height="128px" viewBox="0 0 128 128">
<defs>
<g id="Layer1_0_FILL">
<path fill="#000000" stroke="none" d="
M 98.25 13
Q 94.6 8 84.7 2.5 74.75 -3 61.4 -2.45 47.95 -1.85 38.95 3.9 29.85 9.6 25.85 13.7 21.75 17.8 18.85 21.7 16.4 25.3 16.65 25.35
L 14.25 30.6
Q 13.8 31.7 14.25 32.2 14.75 32.45 15.35 32.2
L 16.2 31.35
Q 21.05 27.65 24.5 25.15 24.0251953125 26.36640625 23.65 27.45 23.49609375 27.5302734375 23.3 27.8 22.9 28.4 22.25 29.65 20.85 32 18.75 34.45 16.3 37.3 14.3 39.45
L 12.9 41 12 42.35
Q 10.7 44.75 10.15 46 9.85 46.6 10.1 46.95 10.4 47.25 10.85 47.05 11 47 11.45 46.5 12.6025390625 45.1330078125 14.25 44 13.85625 44.440625 13.55 44.8 12.05 46.55 10.5 49.25
L 10.1 50.2
Q 10.1 50.9 10.6 50.95 10.9 51.05 11.5 50.75
L 19.2 45.6
Q 16.75 49.85 15 58.2 13.9 59.2 12.55 60.55 12.15 61.2 12.15 61.35 12.15 61.9 12.85 62.05 13.1 62.15 14 61.9 18.4 60.35 20.3 59.65 20.15 59.85 20.15 60.25 20.2 60.6 20.45 61.25
L 20.45 61.9 20.55 62.05 20.55 62.15
Q 20.4 71.7 22 76.55 22.2 77.4 22.85 77.4 23.45 77.4 23.45 76.1 23.530859375 74.671484375 23.95 72.7 24.058984375 72.6955078125 24.15 72.65 24.4634765625 72.4685546875 24.9 72.15 24.6265625 74.2849609375 24.55 77.5 24.4 81.75 24.9 81.75 25 81.75 25.75 81.15
L 25.85 81.1 25.85 81.75
Q 26.1 83.4 26.7 85.35
L 27.65 88.2
Q 27.9 88.6 27.95 88.65 28.35 88.9 28.65 88.6 28.9 88.4 29.1 87.9
L 31.2 81.15 31.8 82.4 33.8 85.2
Q 33.9619140625 85.3943359375 34.6 86.05 35.0921875 87.080078125 35.85 88.45 35.05 89 34.3 89.7 33.8 90.1 33.6 90.5 33.35 90.9 33.35 91.85
L 33.6 93
Q 33.65 93.2 34.3 93.85
L 35.15 94.6
Q 35.65 95.05 35.75 95.4 35.75 95.55 35.5 96.05
L 34.6 97.15
Q 33.8 97.95 33.7 98.55 33.65 99.3 34.2 99.85
L 35.5 100.6
Q 36.65 101.35 38.15 102.3
L 37.45 102.75
Q 36.5 103.55 36.65 104.2 36.75 104.8 37.95 105.1 39.25 105.5 40.45 105.75 39.8 105.8 39.05 106.1 37.15 106.9 36.1 107.75 35.05 108.55 35.15 108.95 35.15 109.3 35.65 109.45 38.55 111.35 43.3 111.6 43.25 111.7 43.15 111.7 43.3 113.75 42.55 120.3 41.8 127.9 41.95 141
L 42.05 149.05
Q 42.05 151.05 41.8 152 41.65 152.7 41 154.15 40.2 156.3 39.6 158.8 39.25 160.55 39.25 161.9 39.15 162.15 39.2 162.65 39.3 164.15 40.15 165.35 36.7 175.4 36 180.45 36 180.95 36.1 181 36.35 181.25 36.95 180.95 37.05 180.85 37.1 180.85
L 37.1 181
Q 37.2 181.2 37.55 181.2 41.2 181.65 43 181.7 45.9 181.7 46.85 181.35 49.05 180.3 49.15 178.4 49.85 178.65 50.8 179.75 51.75 180.95 52.4 181.2 53.5 181.65 55.45 180.6 57.65 179.5 58.7 179.6 59.5 179.65 60.65 180.35 62 181.25 62.5 181.45 64.95 182.35 68.65 179.75 70.65 178.4 71.5 177.95 73.2 177.1 74.6 177.2 75.55 177.3 76.8 177.85 77.6 178.2 79 178.8 80 179.15 82.2 179.4
L 90.1 180.6
Q 91 180.75 91.45 180.5 91.95 180.25 92.15 179.35 92.7 177.1 91 175.8 90.8 175.55 90.4 175.55 89.85 175.75 90 176.35 90.1 176.6 90.65 177.1 90.1 177.55 89.55 177 88.9 176.5 89.05 175.9 88.7 175.9 88.35 176.25 87.95 176.65 88.05 177.1 88.2 178.05 89.15 178.3 89.7 178.55 90.95 178.55
L 90.95 179.65 82.75 178.55
Q 80.2 178.2 79 177.8 76.6 176.4 75.25 176.1 73.2 175.75 70.8 177.1 70.45 177.2 66.95 179.65 65.15 180.75 64 180.75 62.95 180.75 61.05 179.5 59.25 178.4 58.15 178.45 57.4 178.45 55.6 179.4 54.15 180.3 53.15 180.15 52.4 180 51.5 179.15 50.65 178.1 50.1 177.6 49.7 177.2 49.15 177.2 48.7 177.35 48.1 178.65 47 181 43.45 180.85 39.85 180.3 37.95 180.5 38.55 179.85 39.1 179.2 40.45 178.2 41.4 177.7 42.8 177 46 176.85 51.35 176.6 57.65 177.35 60.15 177.7 61 177.8 62.8 177.95 64.25 177.55 65.4 177.2 67.55 176.05 69.7 174.95 70.9 174.6 73.1 174.1 76.6 175.15 81.1 176.6 82.25 176.65 85.05 177 90.8 175.15 91.85 174.85 92.15 174.3 92.45 173.75 91.95 172.55 91.25 170.9 88.6 167.35 86.15 164.05 84.25 160.4 86.6 161.55 88.5 161 89.05 160.9 89.45 160.4 89.9 159.75 89.2 158 87.7 154.75 86.75 149.8
L 86.3 146.9
Q 85.55 141.65 85.45 134.95 85.35 125.9 86.15 117.05 86.4 114.3 86.25 111.6 89.3 111.35 91.75 110.6 93.4 110.15 93.5 109.15 93.5 108.3 92.35 107.5 90.25 106 87.85 104.95
L 87.95 104.95
Q 90.75 104.7 92.15 103.65 92.6 103.3 92.6 103 92.6 102.55 91.85 102.2
L 89.15 101.2
Q 89.4 100.95 89.85 100.7 90.75 100.25 91.35 100.1 91.95 99.9 93.05 99.6 94.25 98.9 94 97.15 93.8 96.2 92.6 94.85
L 90.75 92.8 91.2 92.1
Q 91.6 92 92.45 92 93.55 91.85 93.55 91.15 93.55 90.45 92.6 90.1 92.45 90.05 92.35 90.05
L 94.9 85.7
Q 97.6 80.65 99 74.55
L 99.2 74.6
Q 99.7 74.85 100.3 75.2
L 100.3 75.25
Q 100.45 76.45 100.3 78.85 100.3 79.95 100.45 80.15 100.6 80.45 101 80.55 101.3 80.7 101.55 80.45 101.7 80.4 101.85 80.05 101.85 80.15 102.1 80.05
L 102.25 79.75 103.35 75.85
Q 103.55 75.8 103.6 75.7 104.25 75.35 103.8 74.25 103.8 74 103.8 73.8
L 104.8 66.65
Q 104.9 65.2 104.8 63.85
L 114.75 64.7
Q 116.4 64.85 116.6 63.95 116.75 63.5 116 62.65 113.3 59.4 111.1 57.15 114.05 59.2 115.45 60.1 116.25 60.5 116.6 60.4 117.3 60.35 117.45 59.4 117.45 58.9 117.1 57.95 114.3 49.4 110.1 41.25
L 117.7 43.3
Q 119.1 43.7 119.5 43 119.9 42.35 119.4 41.85 119.15 41.4 118.4 40.95 117.3 40.15 115.65 38.6 113.5 36.7 112.85 36.1 111.75 35.2 110.45 34.3 110.3 34.3 108.8 33.3 108.153515625 32.869140625 107.7 32.6
L 107.7 32.4
Q 107.25 30.2 106.2 28.35
L 105.75 27.55 104.8 24.95
Q 104.4 24 104.15 23.3 101.85 18.05 98.25 13
M 104.75 57.15
Q 104.65 55.4 104.55 53.7 106.7 55.15 107.55 56 109.35 57.45 111.8 60.25
L 113.8 62.45 104.8 61.7
Q 104.8 59.6 104.75 57.15
M 82.75 69.95
Q 84.8 68.55 85.55 67.85 82.55 73.9 80.85 80.55 80.35 82.45 80.35 83.45 80.25 83.95 80.5 84.3 80.6 84.5 80.7 84.65 79.8 84.75 78.95 85.45 78.4 86.15 77.9 86.55 75.85 84.65 73.6 82.95 72.15 81.4 71.15 79.6
L 71.15 79.55
Q 71.3 79.2 70.95 78.65 70.8 78.35 70.25 76.7 70.2 76.55 70.2 76.35 70.7 76.1 71.4 75.85
L 71.5 75.85 72 75.65
Q 72.15 75.5 73 75.2 73.25 75 73.8 74.75
L 82.75 69.95
M 100.2 71.1
Q 100.15 72.1 100.15 72.7
L 99.45 72.45
Q 99.65 71.3 99.8 70.2 99.95 70.6 100.2 71.1
M 85.45 78.1
Q 86.3 77.15 87.95 75.8 87.6 77.15 86.75 79.35 86.3 81.35 86.3 84.5 86.3 86.1 86.4 87.55 86.2 87.45 86.05 87.35 84.7 86.35 84 85.75 82.8 84.9 81.85 84.75 81.65 84.65 81.45 84.65 81.7 84.4 81.95 83.8 82.8 80.95 85.45 78.1
M 86.45 89.1
Q 86.55 90.25 86.65 91.4 86.9 93.45 87.4 95.25 87.6 95.9 87.85 96.05 88.5 96.35 88.8 95.65 88.8 95.55 88.9 95.55 89.05 95.4 89.4 94.95
L 89.65 94.35 89.7 94.3
Q 89.75 94.2 89.9 94.2 90.15 94.45 90.5 94.8 92.3 96.4 92.3 97.7 90.85 98.2 87.35 99.65
L 82.65 101.35
Q 80.85 101.65 78.2 100.45 77.9 100.35 77.6 100.35 77.9 93.35 77.95 88.6 78.2 88.85 78.45 89.1 79 89.65 79.25 89.7 80 89.85 80.1 89.4 80.45 89 79.75 88.3 79.15 87.75 78.7 87.3
L 78.7 87.2
Q 80.05 85.85 81.1 85.85 81.8 85.85 83.6 87.1 85.05 88.2 86.45 89.1
M 102 77.05
Q 101.95 76.9 101.95 76.75 101.996875 76.703125 102 76.6
L 102 77.05
M 28.4 58.35
L 28.5 58.35
Q 28.4015625 58.4978515625 28.4 58.55 28.4 58.49765625 28.4 58.35
M 74.6 66.65
Q 74.65 67.5 74.55 68
L 74.1 72.35
Q 74.1 72.8 74.3 73.05 72.15 74.25 71.4 74.55
L 69 75.5
Q 64.75 75.95 59.65 74.3 54.6 72.65 54.35 72.2
L 54.25 72.1
Q 54.65 72 54.75 71.35 54.65 70.5 54.65 70.15 54.65 69.45 55 68.1 55.35 66.75 55.25 65.9 58.85 66.05 64.95 65.8 72 65.3 74.6 65.3 74.6 65.6 74.6 66.65
M 48.45 86.15
Q 48.35 86.15 48.3 86.1 47.95 85.9 47.65 85.85 48.1 85.7 48.75 85.5 48.5 85.75 48.45 86.15
M 77.55 105.1
Q 77.85 105.35 78.8 105.55 81.8 105.85 86.6 105.2 86.75 105.45 87.1 105.55 90.95 107.65 91.95 108.8 89.4 109.65 85.55 109.8 81.2 109.8 78.45 109.9 77.65 109.9 77.05 109.95 77.2 107.35 77.35 105.05 77.45 105.05 77.55 105.1
M 78.8 103.5
Q 77.9 103.4 77.45 103.65 77.55 102.9 77.55 102.2 81.4 103.7 83.35 103.25 83.5 103.25 86.3 102.15 86.9 101.9 88.35 101.5
L 91.2 102.75
Q 85.1 104.45 78.8 103.5
M 63.05 104.25
L 63.1 104.2 64 104.5
Q 65.1 105.2 64.65 106.4 64.55 106.55 64.5 106.75
L 64.5 106.8
Q 64.5 106.95 64.3 107.1
L 64.15 107.1
Q 63.6 107.5 62.9 107.35 62.75 107.35 62.7 107.25 62.45 107.25 62.35 107.15 61.65 106.75 61.65 105.85
L 61.65 105.45
Q 61.95 104.25 63.05 104.25
M 63.3 108.7
Q 63.45 108.6 63.6 108.6
L 67.4 112.4
Q 67.95 113.15 69.6 115.85
L 70.25 117.3 70.35 118.8
Q 70.35 119.75 70 120.4
L 69.6 121.1 69.5 122 69.6 125.75
Q 69.75 126.35 70.4 127.45 68.6 127.75 66.45 126.6 66.6 126.45 66.7 126.35 64.95 124.8 64.25 122.5 63.45 120.3 63.85 118 64 117.75 63.85 117.55 63.8 117.4 63.55 117.4 63.3 117.45 63.1 117.65 62.9 117.85 62.9 118.4 62.75 120.95 63.05 122.1 63.2 123 63.85 124.2 64.15 124.8 64.5 125.3 63.3 124.5 62.5 124.05 61.75 123.55 61 123.3 60.05 123.15 59.65 123.1
L 56.4 122.95
Q 58.1 121.25 59.1 119.45 59.55 118.75 59.8 117.85 59.95 117.25 59.95 115.85
L 59.95 113.5
Q 59.95 112 60.45 111.45 60.75 111.05 61.25 110.85 62 110.2 63.3 108.7
M 76.95 111.65
L 78.4 111.7
Q 77.55 120.4 76.85 129.5 76.6 120.45 76.8 113.65 76.85 112.65 76.95 111.65
M 48.8 101.1
Q 49.05 100.85 49.15 100.75 49.35 106.1 49.3 110.55 48.2 110.5 46.6 110.5 42.9 110.5 41.45 110.35 38.7 110.05 36.9 108.85 38.65 107.75 39.55 107.25 40.45 106.75 42.1 106.4 43.6 106 43.85 105.9 46.3 105.75 48.5 104.5 49.4 104.1 48.95 103.55 48.8 103.25 48.2 103.5
L 43.6 104.75
Q 40.6 105.2 37.8 103.75 38.55 103.3 39.05 102.9 39.5 103.25 40.05 103.65 41 104.35 41.3 104.45 42.1 104.6 43.25 104.2 45.55 103.5 47 102.55 47.6 102.15 48.8 101.1
M 43.45 122.5
Q 43.95 115.7 44 112.9 44.15 112.35 43.95 111.95 43.85 111.75 43.75 111.7 45.3 111.7 46.9 111.6
L 49.25 111.6
Q 49.25 112.4 49.2 113.2 48.95 120.15 47.6 133.95 46.9 140.4 46.55 145.45 45.3 151.5 42.2 159.75 41.65 161.2 41.2 162.6 41.15 162.5 41.15 162.45 41.15 161.9 41.05 161.65 40.95 161.3 40.65 161.15 40.95 158.6 41.7 156.3
L 42.65 153.1
Q 43.25 150.65 43.05 146.65 42.9 135.4 43 132.15 43.05 128.65 43.45 122.5
M 59.1 77.5
L 59.7 75.5 62.25 76.2
Q 64.9 77 65.65 76.9 66.2 77 66.8 77 67.9 77 69.25 76.7
L 69.5 77.8
Q 69.25 78.25 69.75 79.35 71.3 81.9 71.75 82.45 72.25 83.1 72.7 83.55 72.5 83.8 72.6 83.85 72.15 84.55 72.05 85.9 72 86.1 72 86.25 71.9 86.95 72 87.75 72.15 92 71.55 95.4
L 70.55 100.6 67.05 100.25
Q 65.75 100.15 63.35 99.65
L 62.1 99.4 57.15 99.4
Q 56.8 99.3 56.5 99.2 56.5 98.8 56.4 98.65 56.4 98.45 55.95 96.9 55.85 94.15 55.8 92.75 55.8 92.1 55.35 88.55
L 54.65 84.05
Q 54.6 83.55 54.45 83.3 54.5 83.2 54.65 83.2 54.9 83.2 55.95 82.4 57.05 81.6 57.4 81.1
L 58.15 80.45
Q 58.85 78.75 59 77.7 59 77.55 59.1 77.5
M 79.25 145.45
Q 79.1 144.45 78.7 144 78.45 143.7 77.95 143.7 77.75 143.7 77.7 143.85 77.9 137.65 78.7 123.9 79.35 111.65 79.35 111.6 83.35 111.75 85.65 111.6 85.8 111.6 85.95 111.6 85.75 112.45 85.65 112.9 84.95 117.3 84.85 118.75
L 84.35 125.3
Q 84.15 126.6 84.15 129.4 84.1 133.2 84.15 137.1 84.35 143.95 85.55 150.8 86.45 155.95 88.2 159.05 87.1 159.7 85.5 159.25 84.7 159.05 83.05 157.85 80.45 152 79.25 145.45
M 17.4 41.2
Q 17.9873046875 40.492578125 18.5 39.9
L 17.3 41
Q 14.2546875 42.6302734375 12.8 43.6 13.6 42.1 15 40.4 15.25 40.1 17.6 37.45 21.379296875 33.3271484375 22.95 30 22.8552734375 30.3935546875 22.75 30.85 22.7390625 30.9173828125 22.7 30.95
L 22.7 31
Q 22.712890625 31.0478515625 22.7 31.1
L 21.9 34.25
Q 21.4 35.95 21.15 37.35 20.85 39.1 20.7 41 20.6076171875 42.18828125 20.55 43.35 16.725390625 45.41015625 13.3 47.8 14.67734375 44.4771484375 17.4 41.2
M 20.45 55.05
Q 20.5052734375 56.5595703125 20.6 58.05 18.6755859375 58.5091796875 16.55 59.3 16.55 59.15 16.65 58.95 18.4720703125 56.8736328125 20.45 55.05
M 20.2 53
Q 19.35 53.85 17.45 55.75 18.15 52.5 18.5 51.55 19.2322265625 49.151171875 20.35 47.3 20.3107421875 50.100390625 20.35 52.85 20.2869140625 52.925390625 20.2 53
M 36.35 36.3
L 36.3 36.35
Q 36.319140625 36.113671875 36.3 35.85 36.3560546875 35.85 36.4 35.85
L 36.35 36.2 36.35 36.3
M 90.9 38.9
L 90.9 38.75
Q 90.9080078125 38.726171875 90.9 38.65 90.9224609375 38.7943359375 90.9 38.9
M 89.55 41.6
Q 89.65390625 41.7857421875 89.75 42 90.15 43 90.65 45 90.7283203125 45.291796875 90.8 45.55 90.7728515625 47.5552734375 90.75 49.55 90.75 50.6150390625 90.85 51.4 90.676171875 51.7474609375 90.5 52.1 89.65 51.65 88.8 51.2 88.95 51.2 89.15 51.15 89.65 50.95 89.7 50.6 89.75 50.1 88.95 49.8
L 86.3 48.55
Q 86.55 48.2 86.55 47.65 86.55 47.55 86.55 47.45 86.85 47.3 87.1 46.6
L 89.55 41.6
M 38 86.3
Q 38.0533203125 86.1818359375 38.05 86.05 38.1736328125 86.2791015625 38.3 86.55 38.3986328125 86.763671875 38.45 86.95
L 38.25 87.05
Q 38.1240234375 86.6783203125 38 86.3
M 37.55 89.4
Q 37.7357421875 89.2681640625 37.9 89.1 39.809375 90.774609375 40.85 91.5 41.25 91.8 41.5 91.75 41.85 91.7 41.95 91.2 42 90.85 41.85 90.45 41.4248046875 88.8392578125 41.05 87.25 41.265625 87.148046875 41.45 87.05 42.5 86.55 42.8 86.45 43.6 86.35 44.8 86.55
L 47.8 86.95
Q 48.1 87.1 48.35 86.95 48.35 87.35 48.35 87.75 48.8 94.35 49.15 100.1 48.9 99.85 48.7 99.75 48.2 99.75 47.65 100.15
L 46.85 100.85
Q 46.4 101.35 44.45 102.05
L 42.9 102.6
Q 42.4 102.8 41.95 102.8 41.65 102.75 40.7 102.2 38.65 100.7 35.9 99.3 35.5 98.95 35.4 98.7
L 35.65 98.3
Q 36.9 97 37.1 96.2 37.45 94.8 35.9 93.45 34.8 92.5 34.8 91.9 34.75 91.2 35.75 90.6 36.15 90.2 36.85 89.8 36.9 89.8 37.05 89.8 37.35 89.7 37.55 89.4
M 37.1 55.3
L 37.1 55.25
Q 37.1015625 55.3015625 37.2 55.4 37.1 55.4 37.1 55.3
M 84.15 47.1
Q 84.25 47.35 84.4 47.55
L 79.5 45.25
Q 78.55 44.65 77.75 44.65 76.8 44.8 77.05 45.45 77.2 45.7 77.35 45.7
L 78.7 46.4
Q 78.45 46.35 78.4 46.4 77.85 46.55 78.15 47.05 77.85 46.7 77.45 46.95 77.1 47.2 77.2 47.55 77.2 47.65 77.35 47.8
L 77.6 48.3
Q 77.3 48.75 77.55 49.1
L 83 51.9
Q 84.4 52.75 85.2 52.9
L 86.4 53.35
Q 86.65 53.45 87.35 53.1 87.4 52.8 87.25 52.65 88.45 53 89.7 53.5 89.3 54.15 88.9 54.8
L 88.2 55.8
Q 87.8 56.45 86.6 57.25 85.8 57.8 85.75 58.05 85.3 58.8 85.9 59.2 86.2 59.45 87.1 59.05
L 88.95 57.85 89.75 57
Q 90.1 56.6 90.85 55.9 89.7 59.6 88.7 61.8 88.5 62.2 88.35 62.65
L 87.95 63.05
Q 87.6 63.65 81.2 69.1 77.9 71 75.7 72.25 75.7 72.1 75.7 72 75.7 71 75.9 69.55
L 76.1 68.3 76.15 64.95
Q 76.15 64.45 75.85 64.1
L 75.15 63.85
Q 71.8 63.75 65.35 64.25 58.85 64.75 55.6 64.6 54.65 64.6 54.35 64.9 54.05 65.1 54.05 66.55 54.05 66.9 53.9 68.35 53.65 70.2 53.9 71.85
L 45.8 67
Q 44.283203125 66.1037109375 42.55 64.85
L 40 62.1 39.5 61.25
Q 39.191015625 60.6970703125 38.8 59.9 39.0548828125 60.126171875 39.15 60.15 40.05 60.35 40.25 59.75 40.6 59.3 39.9 58.4 39.05 57.1 38.45 55.75
L 37.7 53.45
Q 37.1 52.55 36.9 52.1 36.5455078125 46.3400390625 36.2 41.3 36.475 40.75625 36.7 40.2 36.575390625 41.2650390625 36.5 42.05 36.35 42.7 36.6 43.25 36.9 44.05 37.55 43.9 37.75 43.85 38.8 42.65 39.95 41.25 40.35 40.9 42.55 38.5 43.6 37.25
L 47.7 32.45
Q 49.3 30.4 50.8 28.35
L 49.85 30.65
Q 49.65 31.25 48.7 33.55
L 47.95 35.6
Q 47.65 36.45 48.05 36.8 48.3 37.05 48.7 37 48.8 37 48.95 36.9 50.55 36.2 53.15 33.75 56.65 30.35 60.75 26
L 67.7 18.8
Q 67.8 19.75 68.25 21.45
L 71.2 30.4
Q 71.2 30.5 72.6 34.05 73.5 36.35 73.6 37.9
L 73.85 39.1
Q 74.2 39.8 74.8 39.8 75.5 39.6 75.55 39.05 75.65 38.95 75.75 38 75.9 37.15 76.6 35.6
L 78.7 30.65
Q 78.7 33.65 79.1 35.45 79.9 38.65 83.25 44.65 83.45 45.05 84.15 47.1
M 40.2 65.65
Q 40.1857421875 65.54765625 40.15 65.45
L 39.4 63.6
Q 40.272265625 64.37109375 41.4 65.2
L 41.35 65.25
Q 40.7244140625 65.4650390625 40.2 65.65
M 38.85 67.35
Q 38.9375 67.3435546875 39 67.3
L 40.05 69.2
Q 40.25 69.6 41.65 71.15 43.15 72.75 43.35 72.65 43.7 72.4 43.6 72 43.45 71.65 43.2 71.4 42.9 71 42.15 69.7
L 41.8 69.05 41.7 68.55
Q 41.55 68.15 41.2 67.7 40.9197265625 67.2794921875 40.6 66.6 40.9888671875 66.4462890625 41.35 66.25 41.95 65.95 42.3 65.9
L 42.35 65.9
Q 47.746875 69.686328125 58.35 75.1 58.25 76.35 58.1 76.6
L 57.85 77.05
Q 57.55 77.55 57.4 78 56.3 80.3 55.95 80.55 55.8 80.7 55 81.35
L 54.5 81.65
Q 50.8 83.2 46.75 85.15 46.45 85.25 46.4 85.45 46.2 85.35 46.15 85.35
L 44.25 85.15
Q 43.15 84.8 42.55 84.8 41.8 84.9 40.85 85.6
L 40.75 85.65
Q 40.32890625 83.3328125 40.05 81.05 40.870703125 81.9505859375 41.8 82.85 42.5 83.55 45.65 84.8 47.1 85.45 47.35 84.55 47.5 84.25 47 83.65 41.65 76.2 38.95 67.75 38.892578125 67.558203125 38.85 67.35
M 26.95 62.45
Q 26.95 62.9 26.95 63.5 25.75 67.25 25.1 71
L 25.1 71.05
Q 24.665234375 71.263671875 24.3 71.4 24.5990234375 70.309765625 25 69.05 26.45 64.7 26.95 62.45
M 101.85 31.6
Q 102.40703125 32.1826171875 103.1 32.9
L 106.35 36.2 106.9 36.85
Q 107.15 37.35 107.25 37.45 107.45 37.8 107.8 37.8 108.15 37.8 108.35 37.3 108.45 36.95 108.35 36.55
L 108.15 35.2
Q 108.1947265625 35.2607421875 108.25 35.3 113.4 38.9 115 40.45
L 108.65 38.5
Q 107.2 38 106.7 38.75 106.35 39.35 107.2 40.55 108.25 42.05 109.6 44.8 112.5 50.8 114.45 56.35 113.7 56.35 112.95 55.55 111.8 54.7 110.95 54.35 110.1 54.05 104.8 51.55 104.55 51.4 104.4 51.35 103.65 42.4 102.25 32.55 102.25 32 101.95 32
L 101.85 32
Q 101.85 31.7880859375 101.85 31.6
M 42.45 49.1
L 41.4 49.4
Q 40.75 49.6 40.5 49.95 40.25 50.6 41.1 50.9 40.6 51.15 40.35 51.2 39.65 51.55 39.65 52 39.65 52.55 40.1 52.65 40.45 52.75 40.95 52.55
L 43.5 51.45
Q 44.45 50.9 44.8 50.8 45.1 50.7 45.8 50.6
L 51.25 48.9
Q 51.45 48.65 51.35 48.4 51.35 48.3 51.25 48.2
L 51.95 48.05
Q 52.45 48 52.95 47.55 53.5 47.1 53.05 46.6 52.7 46.15 51.85 46.5
L 51.2 46.7
Q 51.7 46.4 51.95 46 52.05 45.6 51.7 45.25 51.95 45.15 52.15 45.05 52.6 44.9 52.7 44.65 52.8 44.4 52.45 44.1 51.95 43.7 50.4 44.05
L 39.65 47.1
Q 39.1 47.3 39.05 47.55 39.05 48.05 40 47.9 40.2 47.8 40.5 47.8
L 39.65 48.05
Q 38.95 48.65 39.35 49.1 39.6 49.6 40.45 49.4
L 42.3 49.1
Q 42.35 49.1 42.45 49.1
M 59.55 82.45
L 59.65 82.75
Q 60.2 83.55 61.15 83.95 63.3 85.05 65.85 84.65 68.35 84.25 70 82.6 69.6 82.1 68.85 82.25 68.5 82.35 67.65 82.95 65.9 83.85 63.9 83.8 61.85 83.65 60.4 82.45
L 59.95 82.2
Q 59.55 82.2 59.55 82.45 Z"/>

<path fill="#FFFFFF" stroke="none" d="
M 103.1 32.9
Q 102.40703125 32.1826171875 101.85 31.6 101.85 31.7880859375 101.85 32
L 101.95 32
Q 102.25 32 102.25 32.55 103.65 42.4 104.4 51.35 104.55 51.4 104.8 51.55 110.1 54.05 110.95 54.35 111.8 54.7 112.95 55.55 113.7 56.35 114.45 56.35 112.5 50.8 109.6 44.8 108.25 42.05 107.2 40.55 106.35 39.35 106.7 38.75 107.2 38 108.65 38.5
L 115 40.45
Q 113.4 38.9 108.25 35.3 108.1947265625 35.2607421875 108.15 35.2
L 108.35 36.55
Q 108.45 36.95 108.35 37.3 108.15 37.8 107.8 37.8 107.45 37.8 107.25 37.45 107.15 37.35 106.9 36.85
L 106.35 36.2 103.1 32.9
M 26.95 63.5
Q 26.95 62.9 26.95 62.45 26.45 64.7 25 69.05 24.5990234375 70.309765625 24.3 71.4 24.665234375 71.263671875 25.1 71.05
L 25.1 71
Q 25.75 67.25 26.95 63.5
M 40.15 65.45
Q 40.1857421875 65.54765625 40.2 65.65 40.7244140625 65.4650390625 41.35 65.25
L 41.4 65.2
Q 40.272265625 64.37109375 39.4 63.6
L 40.15 65.45
M 84.4 47.55
Q 84.25 47.35 84.15 47.1 83.45 45.05 83.25 44.65 79.9 38.65 79.1 35.45 78.7 33.65 78.7 30.65
L 76.6 35.6
Q 75.9 37.15 75.75 38 75.65 38.95 75.55 39.05 75.5 39.6 74.8 39.8 74.2 39.8 73.85 39.1
L 73.6 37.9
Q 73.5 36.35 72.6 34.05 71.2 30.5 71.2 30.4
L 68.25 21.45
Q 67.8 19.75 67.7 18.8
L 60.75 26
Q 56.65 30.35 53.15 33.75 50.55 36.2 48.95 36.9 48.8 37 48.7 37 48.3 37.05 48.05 36.8 47.65 36.45 47.95 35.6
L 48.7 33.55
Q 49.65 31.25 49.85 30.65
L 50.8 28.35
Q 49.3 30.4 47.7 32.45
L 43.6 37.25
Q 42.55 38.5 40.35 40.9 39.95 41.25 38.8 42.65 37.75 43.85 37.55 43.9 36.9 44.05 36.6 43.25 36.35 42.7 36.5 42.05 36.575390625 41.2650390625 36.7 40.2 36.475 40.75625 36.2 41.3 36.5455078125 46.3400390625 36.9 52.1 37.1 52.55 37.7 53.45
L 38.45 55.75
Q 39.05 57.1 39.9 58.4 40.6 59.3 40.25 59.75 40.05 60.35 39.15 60.15 39.0548828125 60.126171875 38.8 59.9 39.191015625 60.6970703125 39.5 61.25
L 40 62.1 42.55 64.85
Q 44.283203125 66.1037109375 45.8 67
L 53.9 71.85
Q 53.65 70.2 53.9 68.35 54.05 66.9 54.05 66.55 54.05 65.1 54.35 64.9 54.65 64.6 55.6 64.6 58.85 64.75 65.35 64.25 71.8 63.75 75.15 63.85
L 75.85 64.1
Q 76.15 64.45 76.15 64.95
L 76.1 68.3 75.9 69.55
Q 75.7 71 75.7 72 75.7 72.1 75.7 72.25 77.9 71 81.2 69.1 87.6 63.65 87.95 63.05
L 88.35 62.65
Q 88.5 62.2 88.7 61.8 89.7 59.6 90.85 55.9 90.1 56.6 89.75 57
L 88.95 57.85 87.1 59.05
Q 86.2 59.45 85.9 59.2 85.3 58.8 85.75 58.05 85.8 57.8 86.6 57.25 87.8 56.45 88.2 55.8
L 88.9 54.8
Q 89.3 54.15 89.7 53.5 88.45 53 87.25 52.65 87.4 52.8 87.35 53.1 86.65 53.45 86.4 53.35
L 85.2 52.9
Q 84.4 52.75 83 51.9
L 77.55 49.1
Q 77.3 48.75 77.6 48.3
L 77.35 47.8
Q 77.2 47.65 77.2 47.55 77.1 47.2 77.45 46.95 77.85 46.7 78.15 47.05 77.85 46.55 78.4 46.4 78.45 46.35 78.7 46.4
L 77.35 45.7
Q 77.2 45.7 77.05 45.45 76.8 44.8 77.75 44.65 78.55 44.65 79.5 45.25
L 84.4 47.55
M 41.4 49.4
L 42.45 49.1
Q 42.35 49.1 42.3 49.1
L 40.45 49.4
Q 39.6 49.6 39.35 49.1 38.95 48.65 39.65 48.05
L 40.5 47.8
Q 40.2 47.8 40 47.9 39.05 48.05 39.05 47.55 39.1 47.3 39.65 47.1
L 50.4 44.05
Q 51.95 43.7 52.45 44.1 52.8 44.4 52.7 44.65 52.6 44.9 52.15 45.05 51.95 45.15 51.7 45.25 52.05 45.6 51.95 46 51.7 46.4 51.2 46.7
L 51.85 46.5
Q 52.7 46.15 53.05 46.6 53.5 47.1 52.95 47.55 52.45 48 51.95 48.05
L 51.25 48.2
Q 51.35 48.3 51.35 48.4 51.45 48.65 51.25 48.9
L 45.8 50.6
Q 45.1 50.7 44.8 50.8 44.45 50.9 43.5 51.45
L 40.95 52.55
Q 40.45 52.75 40.1 52.65 39.65 52.55 39.65 52 39.65 51.55 40.35 51.2 40.6 51.15 41.1 50.9 40.25 50.6 40.5 49.95 40.75 49.6 41.4 49.4
M 37.9 89.1
Q 37.7357421875 89.2681640625 37.55 89.4 37.35 89.7 37.05 89.8 36.9 89.8 36.85 89.8 36.15 90.2 35.75 90.6 34.75 91.2 34.8 91.9 34.8 92.5 35.9 93.45 37.45 94.8 37.1 96.2 36.9 97 35.65 98.3
L 35.4 98.7
Q 35.5 98.95 35.9 99.3 38.65 100.7 40.7 102.2 41.65 102.75 41.95 102.8 42.4 102.8 42.9 102.6
L 44.45 102.05
Q 46.4 101.35 46.85 100.85
L 47.65 100.15
Q 48.2 99.75 48.7 99.75 48.9 99.85 49.15 100.1 48.8 94.35 48.35 87.75 48.35 87.35 48.35 86.95 48.1 87.1 47.8 86.95
L 44.8 86.55
Q 43.6 86.35 42.8 86.45 42.5 86.55 41.45 87.05 41.265625 87.148046875 41.05 87.25 41.4248046875 88.8392578125 41.85 90.45 42 90.85 41.95 91.2 41.85 91.7 41.5 91.75 41.25 91.8 40.85 91.5 39.809375 90.774609375 37.9 89.1
M 89.75 42
Q 89.65390625 41.7857421875 89.55 41.6
L 87.1 46.6
Q 86.85 47.3 86.55 47.45 86.55 47.55 86.55 47.65 86.55 48.2 86.3 48.55
L 88.95 49.8
Q 89.75 50.1 89.7 50.6 89.65 50.95 89.15 51.15 88.95 51.2 88.8 51.2 89.65 51.65 90.5 52.1 90.676171875 51.7474609375 90.85 51.4 90.75 50.6150390625 90.75 49.55 90.7728515625 47.5552734375 90.8 45.55 90.7283203125 45.291796875 90.65 45 90.15 43 89.75 42
M 90.9 38.75
L 90.9 38.9
Q 90.9224609375 38.7943359375 90.9 38.65 90.9080078125 38.726171875 90.9 38.75
M 36.3 36.35
L 36.35 36.3 36.35 36.2 36.4 35.85
Q 36.3560546875 35.85 36.3 35.85 36.319140625 36.113671875 36.3 36.35
M 17.45 55.75
Q 19.35 53.85 20.2 53 20.2869140625 52.925390625 20.35 52.85 20.3107421875 50.100390625 20.35 47.3 19.2322265625 49.151171875 18.5 51.55 18.15 52.5 17.45 55.75
M 20.6 58.05
Q 20.5052734375 56.5595703125 20.45 55.05 18.4720703125 56.8736328125 16.65 58.95 16.55 59.15 16.55 59.3 18.6755859375 58.5091796875 20.6 58.05
M 18.5 39.9
Q 17.9873046875 40.492578125 17.4 41.2 14.67734375 44.4771484375 13.3 47.8 16.725390625 45.41015625 20.55 43.35 20.6076171875 42.18828125 20.7 41 20.85 39.1 21.15 37.35 21.4 35.95 21.9 34.25
L 22.7 31.1
Q 22.712890625 31.0478515625 22.7 31
L 22.7 30.95
Q 22.7390625 30.9173828125 22.75 30.85 22.8552734375 30.3935546875 22.95 30 21.379296875 33.3271484375 17.6 37.45 15.25 40.1 15 40.4 13.6 42.1 12.8 43.6 14.2546875 42.6302734375 17.3 41
L 18.5 39.9
M 78.7 144
Q 79.1 144.45 79.25 145.45 80.45 152 83.05 157.85 84.7 159.05 85.5 159.25 87.1 159.7 88.2 159.05 86.45 155.95 85.55 150.8 84.35 143.95 84.15 137.1 84.1 133.2 84.15 129.4 84.15 126.6 84.35 125.3
L 84.85 118.75
Q 84.95 117.3 85.65 112.9 85.75 112.45 85.95 111.6 85.8 111.6 85.65 111.6 83.35 111.75 79.35 111.6 79.35 111.65 78.7 123.9 77.9 137.65 77.7 143.85 77.75 143.7 77.95 143.7 78.45 143.7 78.7 144
M 59.7 75.5
L 59.1 77.5
Q 59 77.55 59 77.7 58.85 78.75 58.15 80.45
L 57.4 81.1
Q 57.05 81.6 55.95 82.4 54.9 83.2 54.65 83.2 54.5 83.2 54.45 83.3 54.6 83.55 54.65 84.05
L 55.35 88.55
Q 55.8 92.1 55.8 92.75 55.85 94.15 55.95 96.9 56.4 98.45 56.4 98.65 56.5 98.8 56.5 99.2 56.8 99.3 57.15 99.4
L 62.1 99.4 63.35 99.65
Q 65.75 100.15 67.05 100.25
L 70.55 100.6 71.55 95.4
Q 72.15 92 72 87.75 71.9 86.95 72 86.25 72 86.1 72.05 85.9 72.15 84.55 72.6 83.85 72.5 83.8 72.7 83.55 72.25 83.1 71.75 82.45 71.3 81.9 69.75 79.35 69.25 78.25 69.5 77.8
L 69.25 76.7
Q 67.9 77 66.8 77 66.2 77 65.65 76.9 64.9 77 62.25 76.2
L 59.7 75.5
M 59.65 82.75
L 59.55 82.45
Q 59.55 82.2 59.95 82.2
L 60.4 82.45
Q 61.85 83.65 63.9 83.8 65.9 83.85 67.65 82.95 68.5 82.35 68.85 82.25 69.6 82.1 70 82.6 68.35 84.25 65.85 84.65 63.3 85.05 61.15 83.95 60.2 83.55 59.65 82.75
M 44 112.9
Q 43.95 115.7 43.45 122.5 43.05 128.65 43 132.15 42.9 135.4 43.05 146.65 43.25 150.65 42.65 153.1
L 41.7 156.3
Q 40.95 158.6 40.65 161.15 40.95 161.3 41.05 161.65 41.15 161.9 41.15 162.45 41.15 162.5 41.2 162.6 41.65 161.2 42.2 159.75 45.3 151.5 46.55 145.45 46.9 140.4 47.6 133.95 48.95 120.15 49.2 113.2 49.25 112.4 49.25 111.6
L 46.9 111.6
Q 45.3 111.7 43.75 111.7 43.85 111.75 43.95 111.95 44.15 112.35 44 112.9
M 49.15 100.75
Q 49.05 100.85 48.8 101.1 47.6 102.15 47 102.55 45.55 103.5 43.25 104.2 42.1 104.6 41.3 104.45 41 104.35 40.05 103.65 39.5 103.25 39.05 102.9 38.55 103.3 37.8 103.75 40.6 105.2 43.6 104.75
L 48.2 103.5
Q 48.8 103.25 48.95 103.55 49.4 104.1 48.5 104.5 46.3 105.75 43.85 105.9 43.6 106 42.1 106.4 40.45 106.75 39.55 107.25 38.65 107.75 36.9 108.85 38.7 110.05 41.45 110.35 42.9 110.5 46.6 110.5 48.2 110.5 49.3 110.55 49.35 106.1 49.15 100.75
M 63.6 108.6
Q 63.45 108.6 63.3 108.7 62 110.2 61.25 110.85 60.75 111.05 60.45 111.45 59.95 112 59.95 113.5
L 59.95 115.85
Q 59.95 117.25 59.8 117.85 59.55 118.75 59.1 119.45 58.1 121.25 56.4 122.95
L 59.65 123.1
Q 60.05 123.15 61 123.3 61.75 123.55 62.5 124.05 63.3 124.5 64.5 125.3 64.15 124.8 63.85 124.2 63.2 123 63.05 122.1 62.75 120.95 62.9 118.4 62.9 117.85 63.1 117.65 63.3 117.45 63.55 117.4 63.8 117.4 63.85 117.55 64 117.75 63.85 118 63.45 120.3 64.25 122.5 64.95 124.8 66.7 126.35 66.6 126.45 66.45 126.6 68.6 127.75 70.4 127.45 69.75 126.35 69.6 125.75
L 69.5 122 69.6 121.1 70 120.4
Q 70.35 119.75 70.35 118.8
L 70.25 117.3 69.6 115.85
Q 67.95 113.15 67.4 112.4
L 63.6 108.6
M 63.1 104.2
L 63.05 104.25
Q 61.95 104.25 61.65 105.45
L 61.65 105.85
Q 61.65 106.75 62.35 107.15 62.45 107.25 62.7 107.25 62.75 107.35 62.9 107.35 63.6 107.5 64.15 107.1 64.3 106.95 64.5 106.75 64.55 106.55 64.65 106.4 65.1 105.2 64 104.5
L 63.1 104.2
M 77.45 103.65
Q 77.9 103.4 78.8 103.5 85.1 104.45 91.2 102.75
L 88.35 101.5
Q 86.9 101.9 86.3 102.15 83.5 103.25 83.35 103.25 81.4 103.7 77.55 102.2 77.55 102.9 77.45 103.65
M 78.8 105.55
Q 77.85 105.35 77.55 105.1 77.45 105.05 77.35 105.05 77.2 107.35 77.05 109.95 77.65 109.9 78.45 109.9 81.2 109.8 85.55 109.8 89.4 109.65 91.95 108.8 90.95 107.65 87.1 105.55 86.75 105.45 86.6 105.2 81.8 105.85 78.8 105.55
M 48.3 86.1
Q 48.35 86.15 48.45 86.15 48.5 85.75 48.75 85.5 48.1 85.7 47.65 85.85 47.95 85.9 48.3 86.1
M 74.55 68
Q 74.65 67.5 74.6 66.65 74.6 65.6 74.6 65.3 72 65.3 64.95 65.8 58.85 66.05 55.25 65.9 55.35 66.75 55 68.1 54.65 69.45 54.65 70.15 54.65 70.5 54.75 71.35 54.65 72 54.25 72.1
L 54.35 72.2
Q 54.6 72.65 59.65 74.3 64.75 75.95 69 75.5
L 71.4 74.55
Q 72.15 74.25 74.3 73.05 74.1 72.8 74.1 72.35
L 74.55 68
M 86.65 91.4
Q 86.55 90.25 86.45 89.1 85.05 88.2 83.6 87.1 81.8 85.85 81.1 85.85 80.05 85.85 78.7 87.2
L 78.7 87.3
Q 79.15 87.75 79.75 88.3 80.45 89 80.1 89.4 80 89.85 79.25 89.7 79 89.65 78.45 89.1 78.2 88.85 77.95 88.6 77.9 93.35 77.6 100.35 77.9 100.35 78.2 100.45 80.85 101.65 82.65 101.35
L 87.35 99.65
Q 90.85 98.2 92.3 97.7 92.3 96.4 90.5 94.8 90.15 94.45 89.9 94.2 89.75 94.2 89.7 94.3
L 89.65 94.35 89.4 94.95
Q 89.05 95.4 88.9 95.55 88.8 95.55 88.8 95.65 88.5 96.35 87.85 96.05 87.6 95.9 87.4 95.25 86.9 93.45 86.65 91.4
M 100.15 72.7
Q 100.15 72.1 100.2 71.1 99.95 70.6 99.8 70.2 99.65 71.3 99.45 72.45
L 100.15 72.7
M 104.55 53.7
Q 104.65 55.4 104.75 57.15 104.8 59.6 104.8 61.7
L 113.8 62.45 111.8 60.25
Q 109.35 57.45 107.55 56 106.7 55.15 104.55 53.7 Z"/>
</g>

<path id="Layer0_0_1_STROKES" stroke="#000000" stroke-width="16" stroke-linejoin="miter" stroke-linecap="square" stroke-miterlimit="3" fill="none" d="
M 0 0
L 128 0 128 128 0 128 0 0 Z"/>
</defs>

<g transform="matrix( 1, 0, 0, 1, 0,0) ">
<use xlink:href="#Layer1_0_FILL"/>
</g>

<g transform="matrix( 1, 0, 0, 1, 0,0) ">
<use xlink:href="#Layer0_0_1_STROKES"/>
</g>
</svg>
