<svg xmlns:xlink="http://www.w3.org/1999/xlink" xmlns="http://www.w3.org/2000/svg" version="1.1"
     preserveAspectRatio="none" x="0px" y="0px" width="32px" height="32px" viewBox="0 0 32 32">
    <defs>
        <g id="Layer0_0_FILL">
            <path fill="#000000" stroke="none" d="
M 32 2
L 30 2 30 0 2 0 2 2 0 2 0 30 2 30 2 32 30 32 30 30 32 30 32 2
M 14 4
L 14 14 4 14 4 4 14 4
M 8 24
L 8 22 6 22 6 20 4 20 4 18 6 18 6 20 8 20 8 22 10 22 10 20 12 20 12 18 14 18 14 20 12 20 12 22 10 22 10 24 12 24 12 26 14 26 14 28 12 28 12 26 10 26 10 24 8 24 8 26 6 26 6 28 4 28 4 26 6 26 6 24 8 24
M 26 20
L 28 20 28 26 26 26 26 28 20 28 20 26 18 26 18 20 20 20 20 18 26 18 26 20
M 22 6
L 22 4 24 4 24 6 26 6 26 10 28 10 28 14 18 14 18 10 20 10 20 6 22 6
M 24 6
L 22 6 22 10 20 10 20 12 26 12 26 10 24 10 24 6
M 26 20
L 20 20 20 26 26 26 26 20
M 12 12
L 12 6 6 6 6 12 12 12 Z"/>
        </g>
    </defs>

    <g transform="matrix( 1, 0, 0, 1, 0,0) ">
        <use xlink:href="#Layer0_0_FILL"/>
    </g>
</svg>
