<svg xmlns:xlink="http://www.w3.org/1999/xlink" xmlns="http://www.w3.org/2000/svg" version="1.1"
     preserveAspectRatio="none" x="0px" y="0px" width="600px" height="120px" viewBox="0 0 600 120">
    <defs>
        <filter id="Filter_1" x="-20%" y="-20%" width="140%" height="140%" color-interpolation-filters="sRGB">
            <feColorMatrix in="SourceGraphic" type="matrix" values="1 0 0 0 0 0 1 0 0 0 0 0 1 0 0 0 0 0 0.5 0"
                           result="result1"/>
        </filter>

        <g id="Layer3_0_FILL">
            <path fill="#FFFFFF" stroke="none" d="
M 600 120
L 600 0 0 0 0 120 600 120 Z"/>
        </g>

        <g id="niijiok_0_Layer5_0_FILL">
            <path fill="#000000" stroke="none" d="
M 71.55 71
L 71.05 55.85
Q 71.05 55.15 70.8 54.65 70.35 53.75 69.45 53.9 68.1 53.9 68.3 55.85
L 68.9 72.5
Q 69.2 78.5 69.55 81.35
L 69.55 81.4
Q 70 84.95 70.95 89.35 75.5 112.65 76.75 124.5 76.75 125.45 77.25 126 77.45 126.4 78.15 126.55 78.9 126.7 79.35 126.2 79.7 126 79.7 124.8
L 79.7 124.75
Q 77.1 105.1 73.65 88.65 72.45 82.25 72.25 81 71.85 77.65 71.55 71
M 1.9 53.35
Q 1 52.75 0.3 53.8
L 0.2 53.8
Q -0.25 54.35 -0.35 55.2
L -0.35 55.25
Q -1.25 67.8 -3.2 79.05 -4.15 84.9 -6.45 96.65
L -6.45 96.7
Q -9.25 112.9 -10.05 128.3 -10.05 130.2 -8.9 130.35
L -8.8 130.35
Q -7.9 130.45 -7.45 129.75 -7.15 129.25 -7.15 128.2 -6.95 116.3 -3.55 97.2 0.7 72.8 1.45 66.05
L 2.5 55.15
Q 2.7 53.8 1.95 53.4
L 1.9 53.35 Z"/>
        </g>

        <g id="niijiok_0_Layer4_0_FILL">
            <path fill="#000000" stroke="none" d="
M 31.7 59.8
Q 31.65 59.8 31.55 59.85 26.35 65.1 20.1 71.7 19.9 65.5 20.5 62.3
L 20.8 60.65
Q 20.8 60.55 20.8 60.5 20.8 59.7 20.6 59.35 20.45 58.9 20.15 58.7 19.8 58.4 19.25 58.55 18.15 58.55 17.95 60.35
L 17.95 60.4
Q 17.9 61.4 17.45 63.5
L 17.45 63.55
Q 17.3 64.8 17.3 67.35
L 17.3 72.7
Q 17.3 74.25 17.6 75
L 17.55 74.95
Q 17.8 76.25 18.8 76.35
L 18.85 76.35
Q 19 76.35 19.15 76.35 15.45 89.5 12.2 100 8.9 110.05 6.15 115.05
L 6.2 115.05
Q 4.6 117.8 1.4 123.05 1.35 123.05 1.35 123.15 0.55 124.45 1.25 125.15 1.55 125.7 2.7 125.7
L 14.4 126.35
Q 16.3 126.45 16.95 125.65 17.75 125.7 18.7 125.85 19.95 126 22.55 126.2 25.75 126.7 32 128.15 37.7 129.25 41.95 128.35 44 127.85 46.25 126.7 46.298828125 126.7 46.3 126.75
L 46.3 126.7
Q 47 127.6 47.7 127.35 47.9 127.35 48.2 127.35 55.7 127.8 65.5 125.45
L 65.45 125.45
Q 66 125.35 66.25 125.15 66.5 125.1 66.75 124.95
L 70.45 123
Q 71.25 122.5 71.4 122 71.75 121.6 71.35 120.55
L 71.25 120.5
Q 69.55 116.45 64.9 108.55 60.35 100.95 58.55 96.7 57.8 94.95 55.75 89.15
L 52.35 79.1
Q 51.4 76.25 51.25 75.45
L 51.25 75.35
Q 51.05 74.75 50.9 74.4
L 52.85 69.75
Q 53.9 67.35 53.95 67.1
L 53.95 67.15 54.75 65.3 54.65 65.35
Q 56.6 61.6 57.5 59.8 57.8 59.15 57.8 58.7 57.8 57.75 57.15 57.5
L 57.1 57.45 57 57.45
Q 56.2 56.95 55.55 57.7 55.35 57.85 55 58.45 54.95 58.45 54.95 58.55
L 52.15 64.1
Q 51.45 65.7 50 69.45 48.7 72.85 47.75 74.65
L 47.1 76.15
Q 46.6 75.65 45.9 75.25 44.7 74.3 44.35 74.05
L 44.35 73.95
Q 43.25 73.15 42.05 71.55 40.4 69.55 39.15 67.8
L 39.2 67.8 35 60.4
Q 34.65 59.45 34.1 59.25 33.1 58.55 32.4 59.3
L 31.7 59.8
M 29.15 68
L 29 68.05 28.15 67.35
Q 30.55 64.95 32.95 62.5
L 35.9 67.5 35.25 67.7 35.25 67.65
Q 35 67.7 34.75 67.8
L 34.7 67.7 34.65 67.7
Q 34 67.1 33.4 66.75 32.9 66.45 32.4 66.45 32.25 66.45 32.2 66.55 31.85 66.6 31.65 66.75
L 31.55 66.75
Q 31.35 66.8 31 66.8 30.95 66.8 30.9 66.9 29.85 67.1 29.15 68
M 23.95 71.75
Q 24.05 71.9 24.35 72.05
L 26.65 73.55
Q 26.8 73.65 27 73.65 27.1 73.95 27.25 74.3
L 27.25 74.25
Q 27.75 75.25 28.65 76.2 27.4 82.55 23.8 96.35
L 21.35 105.25 21.3 105.25
Q 21.3 105.35 21.3 105.4 21.15 105.4 21 105.55
L 20.95 105.55
Q 20.25 106.05 20.45 107.15 20.45 107.3 20.6 107.35
L 21.05 108.1 21.05 108.2 21.3 108.75
Q 21.3 108.8 21.35 108.9
L 25.25 115.75 25.2 115.75
Q 26.5 118.2 27.05 119.7 27.2 120.35 27.45 120.75
L 27.55 120.75 27.55 120.85
Q 27.9 121.45 28.7 121.65 28.8 121.65 28.85 121.65 29.85 121.65 30.1 121.2 31.25 120.75 32.4 119.5
L 32.4 119.45
Q 33.6 117.8 34.3 117.1
L 34.3 117
Q 34.55 116.65 36.1 115.4
L 41.3 110.9 41.3 110.8
Q 41.85 110.25 42 109.85 42.05 109.65 42.05 109.45 42.15 108.95 41.85 108.25 37.9 96.35 36.8 89.85
L 34.9 76.5
Q 35.6 75.7 35.95 75.25 35.95 75.15 36 75.15
L 36.1 74.95
Q 36.3 74.95 36.6 74.9
L 40.55 74.05
Q 41.5 75.25 42.35 76.05
L 42.4 76.05
Q 42.85 76.4 44.1 77.3
L 44.15 77.4
Q 45.05 77.95 45.55 78.5 46.5 79.6 47.3 79.4 47.9 79.7 48.7 79.1 48.75 79.1 48.75 79.05 49 78.85 49.15 78.4
L 53.15 90.05
Q 54.65 94.75 56.1 98.15 57.85 102.15 62.3 109.55 66.6 116.85 68.35 120.85
L 65.5 122.35 65.45 122.45
Q 65.3 122.5 65.15 122.55 64.75 122.55 64.3 122.8
L 64.4 122.8
Q 56.9 124.85 48.9 124.6 48.95 124.25 48.9 123.95 48.8 123.4 48.4 123.15
L 47.35 116.6
Q 47 114.15 46.85 111.3
L 46.3 102.4
Q 46.3 100.95 45.35 100.8 44.5 100.4 43.75 101.45 43.65 101.5 43.65 101.65 43.55 101.9 43.55 102.9
L 43.55 102.95 44.25 113.65
Q 44.25 114.95 44.45 116.1
L 44.7 117.55
Q 45.25 120.2 45.75 123.7 42.55 125.55 38.95 125.9 36.6 126.05 30.3 124.85 23.95 123.55 16.75 122.65 17.3 118.9 17.8 114.25 18.45 107.65 18.8 105.75
L 18.8 105.7 19.05 103.45 19.05 103.4
Q 19.05 102.75 18.8 102.2 18.5 101.6 18.1 101.45 17.65 101.25 17.1 101.5 16.35 101.65 16.15 103.05
L 13.9 122.65 13.9 123.05
Q 13.7 123.25 13.7 123.55 8.75 123.35 4.75 123 10.8 113.8 15.35 99.5 16.7 95.25 19.15 86.65 21.5 78 22.9 73.7 23.1 73.05 23.1 72.6 23.5 72.15 23.95 71.75
M 26.85 69.95
L 27.4 70.45 27.35 70.55 25.85 69.65
Q 26 69.55 26.15 69.4 26.7 69.8 26.8 69.85
L 26.85 69.95
M 29.65 72.45
L 29.95 71.7 29.9 71.7
Q 30.25 71 30.9 70.35 30.9 70.3 30.95 70.2 31.1 69.95 31.45 69.75
L 31.35 69.8
Q 31.85 69.4 32.4 69.6 32.7 69.75 33.05 70 33.5 70.65 33.75 71.2
L 33.75 71.25
Q 33.8 71.55 33.8 71.7
L 33.85 71.7 33.65 72.5
Q 33.6 72.6 33.6 72.65
L 33.5 73.7
Q 33.45 73.85 33.25 74.1 32.7 74.1 32.4 74.65
L 32.25 74.65
Q 31.8 74.65 31.5 74.65 31.35 73.95 30.9 73.75 30.9 73.7 30.8 73.7 30.4 73.55 30.1 73.55 29.65 73 29.65 72.45
M 37.35 70.15
L 37.4 70.1
Q 37.85 70.7 38.55 71.55
L 36.65 71.9
Q 36.65 71.05 36.45 70.35
L 37.2 70.15
Q 37.25 70.15 37.35 70.15
M 30.75 80.25
Q 31.1 78.75 31.3 77.6 31.8 77.65 32.25 77.65 32.55 80 33.25 85.15
L 33.6 87.2
Q 34.15 91.5 34.9 94.95 35.55 97.8 37.9 105.2
L 39.1 109
Q 38.25 109.9 36.45 111.4
L 36.45 111.45
Q 34.4 113.05 33.5 113.95
L 29.4 118.05
Q 28.65 116.25 28.1 115.25 27.1 113.2 25.4 110.25
L 23.6 107.3
Q 23.8 106.95 23.95 106.35
L 23.95 106.45
Q 27.25 94.95 30.75 80.25 Z"/>

            <path fill="#FFFFFF" stroke="none" d="
M 31.3 77.6
Q 31.1 78.75 30.75 80.25 27.25 94.95 23.95 106.45
L 23.95 106.35
Q 23.8 106.95 23.6 107.3
L 25.4 110.25
Q 27.1 113.2 28.1 115.25 28.65 116.25 29.4 118.05
L 33.5 113.95
Q 34.4 113.05 36.45 111.45
L 36.45 111.4
Q 38.25 109.9 39.1 109
L 37.9 105.2
Q 35.55 97.8 34.9 94.95 34.15 91.5 33.6 87.2
L 33.25 85.15
Q 32.55 80 32.25 77.65 31.8 77.65 31.3 77.6
M 37.4 70.1
L 37.35 70.15
Q 37.25 70.15 37.2 70.15
L 36.45 70.35
Q 36.65 71.05 36.65 71.9
L 38.55 71.55
Q 37.85 70.7 37.4 70.1
M 29.95 71.7
L 29.65 72.45
Q 29.65 73 30.1 73.55 30.4 73.55 30.8 73.7 30.9 73.7 30.9 73.75 31.35 73.95 31.5 74.65 31.8 74.65 32.25 74.65
L 32.4 74.65
Q 32.7 74.1 33.25 74.1 33.45 73.85 33.5 73.7
L 33.6 72.65
Q 33.6 72.6 33.65 72.5
L 33.85 71.7 33.8 71.7
Q 33.8 71.55 33.75 71.25
L 33.75 71.2
Q 33.5 70.65 33.05 70 32.7 69.75 32.4 69.6 31.85 69.4 31.35 69.8
L 31.45 69.75
Q 31.1 69.95 30.95 70.2 30.9 70.3 30.9 70.35 30.25 71 29.9 71.7
L 29.95 71.7
M 27.4 70.45
L 26.85 69.95 26.8 69.85
Q 26.7 69.8 26.15 69.4 26 69.55 25.85 69.65
L 27.35 70.55 27.4 70.45
M 24.35 72.05
Q 24.05 71.9 23.95 71.75 23.5 72.15 23.1 72.6 23.1 73.05 22.9 73.7 21.5 78 19.15 86.65 16.7 95.25 15.35 99.5 10.8 113.8 4.75 123 8.75 123.35 13.7 123.55 13.7 123.25 13.9 123.05
L 13.9 122.65 16.15 103.05
Q 16.35 101.65 17.1 101.5 17.65 101.25 18.1 101.45 18.5 101.6 18.8 102.2 19.05 102.75 19.05 103.4
L 19.05 103.45 18.8 105.7 18.8 105.75
Q 18.45 107.65 17.8 114.25 17.3 118.9 16.75 122.65 23.95 123.55 30.3 124.85 36.6 126.05 38.95 125.9 42.55 125.55 45.75 123.7 45.25 120.2 44.7 117.55
L 44.45 116.1
Q 44.25 114.95 44.25 113.65
L 43.55 102.95 43.55 102.9
Q 43.55 101.9 43.65 101.65 43.65 101.5 43.75 101.45 44.5 100.4 45.35 100.8 46.3 100.95 46.3 102.4
L 46.85 111.3
Q 47 114.15 47.35 116.6
L 48.4 123.15
Q 48.8 123.4 48.9 123.95 48.95 124.25 48.9 124.6 56.9 124.85 64.4 122.8
L 64.3 122.8
Q 64.75 122.55 65.15 122.55 65.3 122.5 65.45 122.45
L 65.5 122.35 68.35 120.85
Q 66.6 116.85 62.3 109.55 57.85 102.15 56.1 98.15 54.65 94.75 53.15 90.05
L 49.15 78.4
Q 49 78.85 48.75 79.05 48.75 79.1 48.7 79.1 47.9 79.7 47.3 79.4 46.5 79.6 45.55 78.5 45.05 77.95 44.15 77.4
L 44.1 77.3
Q 42.85 76.4 42.4 76.05
L 42.35 76.05
Q 41.5 75.25 40.55 74.05
L 36.6 74.9
Q 36.3 74.95 36.1 74.95
L 36 75.15
Q 35.95 75.15 35.95 75.25 35.6 75.7 34.9 76.5
L 36.8 89.85
Q 37.9 96.35 41.85 108.25 42.15 108.95 42.05 109.45 42.05 109.65 42 109.85 41.85 110.25 41.3 110.8
L 41.3 110.9 36.1 115.4
Q 34.55 116.65 34.3 117
L 34.3 117.1
Q 33.6 117.8 32.4 119.45
L 32.4 119.5
Q 31.25 120.75 30.1 121.2 29.85 121.65 28.85 121.65 28.8 121.65 28.7 121.65 27.9 121.45 27.55 120.85
L 27.55 120.75 27.45 120.75
Q 27.2 120.35 27.05 119.7 26.5 118.2 25.2 115.75
L 25.25 115.75 21.35 108.9
Q 21.3 108.8 21.3 108.75
L 21.05 108.2 21.05 108.1 20.6 107.35
Q 20.45 107.3 20.45 107.15 20.25 106.05 20.95 105.55
L 21 105.55
Q 21.15 105.4 21.3 105.4 21.3 105.35 21.3 105.25
L 21.35 105.25 23.8 96.35
Q 27.4 82.55 28.65 76.2 27.75 75.25 27.25 74.25
L 27.25 74.3
Q 27.1 73.95 27 73.65 26.8 73.65 26.65 73.55
L 24.35 72.05
M 29 68.05
L 29.15 68
Q 29.85 67.1 30.9 66.9 30.95 66.8 31 66.8 31.35 66.8 31.55 66.75
L 31.65 66.75
Q 31.85 66.6 32.2 66.55 32.25 66.45 32.4 66.45 32.9 66.45 33.4 66.75 34 67.1 34.65 67.7
L 34.7 67.7 34.75 67.8
Q 35 67.7 35.25 67.65
L 35.25 67.7 35.9 67.5 32.95 62.5
Q 30.55 64.95 28.15 67.35
L 29 68.05 Z"/>
        </g>

        <g id="niijiok_0_Layer3_0_FILL">
            <path fill="#000000" stroke="none" d="
M 42.15 111.25
L 42.15 111.15 38.1 111.95
Q 38.05 111.95 37.95 112
L 32.9 114.1
Q 32.35 114.35 31.9 114.6 31.45 114.3 30.65 114.25
L 28.95 114.25
Q 28.65 114.25 28.45 114.25 25.75 113 24.25 112.2
L 24.35 112.2
Q 22.8 111.15 22 110.95 21.4 110.75 19.4 110.75
L 19.35 110.75
Q 17.8 111.05 17.8 111.8 17.65 112.15 18 113.1
L 19 122.15 19 122.25
Q 19.15 123.25 19.55 123.85
L 19.6 123.9
Q 20.3 124.75 21.65 124.75 22.2 124.75 23 124.5
L 22.95 124.6
Q 22.65 124.85 22.65 125.55 22.65 125.65 22.65 125.7
L 22.75 126.1
Q 22.8 126.35 23 126.55
L 23.3 126.75 23.35 126.8
Q 23.45 126.9 23.6 126.95
L 24.15 127.3
Q 24.2 127.3 24.25 127.35 25.2 127.65 26.2 127.8
L 28.8 128.3
Q 28.85 128.3 28.95 128.3
L 30.1 128.3
Q 30.3 128.3 30.6 128.3
L 31.65 128.3
Q 31.7 128.3 31.8 128.3
L 33.75 127.95
Q 34.3 128.35 35.2 127.85 35.9 127.45 35.9 126.55 35.9 126.45 35.9 126.4
L 35.75 125.9
Q 36.7 126.4 37.6 126.75
L 39.45 127.3 39.5 127.3
Q 40.6 127.6 43.65 127.45
L 43.75 127.45
Q 44.6 127.45 45 127.1
L 45.05 127.1
Q 45.6 126.6 45.85 125.55
L 46.15 123.55
Q 46.25 123 46.25 120.5
L 46.1 117.65
Q 45.9 115.25 45 112.55 44.9 112.55 44.9 112.5 44.5 111.6 44.3 111.5 43.55 110.8 42.15 111.25
M 42.65 114.25
L 42.55 114.15 43.3 118.45
Q 43.65 122.25 43.1 124.65 41.25 125 38.1 123.9
L 36 123
Q 35.4 122.55 33.8 121.4
L 33.45 121
Q 33.5 120.75 33.5 120.65 33.85 118.7 33.5 116.95 33.8 116.75 34.2 116.65
L 34.3 116.6 36.8 115.55 36.8 115.6
Q 38.55 114.95 38.95 114.8 39.9 114.5 42.3 114 42.4 113.98125 42.4 113.9 42.5 113.95 42.55 114
L 42.65 114.25
M 26.35 116.6
L 26.5 116.8
Q 25.95 118.1 26.1 119.95
L 26.1 120.05
Q 24.6 120.75 23.95 121.1
L 24 121.1
Q 22.75 121.6 21.85 121.9
L 21.05 116.25
Q 20.95 114.95 20.85 113.6 21.05 113.6 21.35 113.75 21.65 113.8 22.4 114.3 24.15 115.4 26.1 116.2 26.15 116.4 26.3 116.55
L 26.35 116.6
M 29.2 117.8
Q 29.3 117.8 29.4 117.85 30.25 118.05 30.65 117.7
L 30.65 117.65
Q 30.75 117.55 30.8 117.55 30.8 117.45 30.8 117.35
L 30.8 117.2 30.9 117.2
Q 31.05 117.2 30.95 117.15
L 30.75 117.2 30.65 117.2
Q 30.45 117.15 30.3 117.1
L 31.3 116.3
Q 31.3 116.55 31.3 116.75
L 31.3 116.8
Q 31.9 116.6 33.1 116.2
L 31.25 117
Q 31.15 117.3 30.8 117.55 30.95 118.6 30.8 119.7 30.2 119.65 29.75 120.05 29.55 120 29.5 120
L 28.85 119.7
Q 28.8 118.7 29.15 117.7
L 29.2 117.8
M 31.8 124.3
L 31.9 123.75
Q 32.25 124.45 32.55 125.2
L 31.7 125.45
Q 31.7 124.95 31.8 124.3
M 28.95 126.05
L 28.65 126.4 28.25 125.3 28.95 125.45
Q 28.85 125.7 28.85 126.05
L 28.95 126.05 Z"/>

            <path fill="#FFFFFF" stroke="none" d="
M 28.65 126.4
L 28.95 126.05 28.85 126.05
Q 28.85 125.7 28.95 125.45
L 28.25 125.3 28.65 126.4
M 31.9 123.75
L 31.8 124.3
Q 31.7 124.95 31.7 125.45
L 32.55 125.2
Q 32.25 124.45 31.9 123.75
M 29.4 117.85
Q 29.3 117.8 29.2 117.8
L 29.15 117.7
Q 28.8 118.7 28.85 119.7
L 29.5 120
Q 29.55 120 29.75 120.05 30.2 119.65 30.8 119.7 30.95 118.6 30.8 117.55 30.75 117.55 30.65 117.65
L 30.65 117.7
Q 30.25 118.05 29.4 117.85
M 26.5 116.8
L 26.35 116.6 26.3 116.55
Q 26.15 116.4 26.1 116.2 24.15 115.4 22.4 114.3 21.65 113.8 21.35 113.75 21.05 113.6 20.85 113.6 20.95 114.95 21.05 116.25
L 21.85 121.9
Q 22.75 121.6 24 121.1
L 23.95 121.1
Q 24.6 120.75 26.1 120.05
L 26.1 119.95
Q 25.95 118.1 26.5 116.8
M 42.55 114.15
L 42.65 114.25 42.55 114
Q 42.5 113.95 42.4 113.9 42.4 113.98125 42.3 114 39.9 114.5 38.95 114.8 38.55 114.95 36.8 115.6
L 36.8 115.55 34.3 116.6 34.2 116.65
Q 33.8 116.75 33.5 116.95 33.85 118.7 33.5 120.65 33.5 120.75 33.45 121
L 33.8 121.4
Q 35.4 122.55 36 123
L 38.1 123.9
Q 41.25 125 43.1 124.65 43.65 122.25 43.3 118.45
L 42.55 114.15 Z"/>
        </g>

        <g id="niijiok_0_Layer2_0_FILL">
            <path fill="#000000" stroke="none" d="
M 7.65 -12.6
L 7.6 -12.6
Q 4.25 -10.15 0.65 -6.05 -0.25 -6.95 -1.6 -5.55
L -1.65 -5.55
Q -2.85 -4.5 -6.75 -1.55 -10.15 1.05 -11.8 2.85 -13.15 4.25 -14.6 6.2 -17.65 10.1 -18.95 12.25 -19.55 12.85 -19.55 13.5 -19.75 14.8 -18.65 15.2 -18 15.65 -16.7 14.95
L -16.6 14.95
Q -15.9 14.45 -15.1 14.2 -16.9 17.75 -18.65 23.55 -19.3 25.45 -18.4 26.2 -17.65 27.1 -15.5 26.4
L -12.7 25.4 -13.4 27.2 -13.4 27.25
Q -14.05 28.45 -13.5 29.15
L -13.5 29.2
Q -12.8 30.15 -11.45 29.75
L -11.55 29.75
Q -11 29.55 -10.2 28.8 -8 26.7 -5.5 24.95 -6.4 37.05 -2.65 48.75
L -2.7 48.65
Q -2.5 49.45 -2.1 49.85 -2.1 49.9 -2 49.9 -2 50 -1.95 50 -1.5 50.45 -1.05 50.55 0.55 57.55 3.3 63.75 4.45 66.8 6.35 67.7
L 6.4 67.7
Q 6.7 67.85 6.95 67.95 7.05 68 7.15 68 8.05 68.2 8.65 67.15 8.7 66.95 8.7 66.8
L 8.7 65.85
Q 8.7 65.75 8.7 65.7 7.8 60.85 8.05 55.95
L 8.05 55.9
Q 8.05 54.7 7.8 54.3
L 7.8 54.35
Q 7.5 53.75 6.8 53.6 6.05 53.35 5.55 54 5.5 54.1 5.5 54.25
L 5.3 54.85
Q 5.2 54.9 5.2 55.05 5.1 58.25 5.35 61.45 4.8 60.35 4.4 58.9 3.05 55 2.15 51.8 2.1 51.6 1.95 51.45
L 1.4 50.95 0.65 50.05
Q 0.65 50 0.55 50 0.2 49.65 0.15 49.45
L 0.15 49.35 -0.5 47.85 -0.5 47.95 -0.75 46.8 -0.75 46.85
Q -0.95 45.35 -0.75 44
L -0.5 42.55
Q -0.4 42.2 -0.55 42 -0.75 41.8 -1.05 41.7 -1.3 41.65 -1.5 41.8 -4.25 30.5 -1.8 18.85 -0.95 17.6 0.55 15.9
L 5 10.9
Q 7.6 8.15 8.05 7.5 9.05 6.1 9.45 5.7
L 9.55 5.7
Q 9.6 5.55 9.9 5.5 10 7.25 10.5 9.95
L 10.6 10 13 20.45
Q 15.05 28.15 16.55 31.65 16.65 31.7 16.65 31.85 16.7 32.2 16.95 32.45 17.6 33.1 18.35 32.8 18.85 32.6 19.5 31.75
L 19.55 31.75 30.4 15
Q 31 13.95 35.55 7.85 39.55 2.15 43.25 -4.1 43.6 -3.4 44.1 -2.55
L 48.95 5.75
Q 51.75 10.5 54.75 14.9 54.8 15 54.95 15.2 55 15.8 55.55 16.05 56.1 16.55 57 16 57.1 15.85 57.15 15.8
L 57.65 15.15 57.7 15.1
Q 58.7 13.3 59.25 12.1 60.1 13.9 60.7 16.35
L 60.65 16.25
Q 61.1 18.4 61.7 23.1
L 63.2 37.6
Q 63.95 48.95 61.25 59.65 61.2 59.65 61.2 59.7 61.1 60.3 61.2 60.7
L 61.2 60.75
Q 61.1 60.9 61.1 61.05
L 61.1 61.2
Q 61 61.95 61.45 62.35 61.75 62.7 62.5 62.85
L 62.6 62.85
Q 63.15 62.85 64.05 62.35 65.15 61.65 66.2 60.65
L 66.25 60.65 67.3 59.35
Q 70 56.05 71.9 52.2
L 73.1 49.85
Q 73.55 48.8 74 47.85 74 48.65 74.05 49.65 74.05 50.6 74.6 50.9 75.05 51.25 75.65 51.05 75.7 50.95 75.85 50.95 76.05 50.8 76.15 50.7 76.35 50.35 76.55 50.05
L 76.65 50.05
Q 76.7 50 76.75 50 76.9 49.85 77.05 49.65 79 45.35 79.15 43.05
L 79.5 40.1 79.55 29.35
Q 80.85 29.8 82.05 29.95
L 82.1 29.95
Q 83.35 29.95 83.8 29.55 84 29.35 84 29.15 84.15 27.95 84.5 24
L 84.55 24
Q 90.3 25.15 96.65 24.75
L 96.7 24.75
Q 98.05 24.75 98.3 23.9 98.65 23.35 98.05 22.2 92.15 12.6 86.35 6.9 87.2 6.8 88.45 6.75
L 88.5 6.75 89.3 6.6
Q 89.4 6.6 89.55 6.55 90.3 6 90.2 5.15 90.2 4.6 89.7 4.3 89.55 4.15 89.35 4.05
L 83.15 -1.45
Q 79.4 -4.5 78.1 -5.3 76.75 -6.05 74.95 -6.7 70.8 -8.4 67.05 -9.65 66.75 -10 66.2 -10.35
L 66.25 -10.35
Q 58 -15.5 51.95 -17.95 43.75 -21.3 36.35 -21.2 31.3 -21.15 23.45 -19 13.2 -16.4 7.65 -12.6
M 1.75 -3.05
Q 5.45 -7.45 7.65 -9.2 12.5 -13 22.4 -15.7 30.95 -18.2 36.15 -18.3 43.2 -18.45 50.9 -15.3 55.53984375 -13.472265625 60.95 -10.35 60.2875 -10.377734375 59.55 -10.45 58.35 -10.55 57.85 -10.2 57.3 -10 57.15 -9.3 57.05 -8.65 57.45 -8.2 57.9 -7.65 59.05 -7.45 61.05 -7.05 64.45 -7.05 65.00859375 -7.05 65.4 -7.15 69.7822265625 -5.8109375 74 -4.05
L 76.9 -2.7 76.85 -2.7
Q 78.5 -1.8 81.85 1.1
L 85.4 4.3 83.7 4.45
Q 83 4.5 82.75 4.75 82.35 4.85 82.05 5.2
L 82.05 5.3
Q 81.5 5.9 82.35 7 82.8 7.65 83.6 8.35 84 8.7 84.9 9.45 86.5 10.85 89.2 14.4 92.85 19.05 94.55 21.95 89.7 22.05 84.85 21.05 84.7 20.95 84.55 20.85
L 84.55 20.95
Q 84.05 20.65 83.8 20.7 83.5 20.7 83.35 20.85 82.8 20.85 82.55 21.05 82.2 21.15 81.9 22.25
L 81.9 22.3
Q 81.65 24.95 81.65 26.95 80.6 26.75 79.5 26.3 79.35 25.5 79.05 25.25
L 79 25.15
Q 78.5 24.7 77.8 24.7 77.4 24.7 77.1 24.8 74.2 22.65 72.65 21.6
L 72.6 21.55
Q 71.5 20.95 70.85 21.25
L 70.8 21.25
Q 70.15 21.55 69.75 22.45
L 68.7 24.7
Q 68.5 24.25 68.35 23.55 67.8 21.4 66.55 20.95 65.55 20.5 64.45 21 64.3 21.05 64.2 21.15 63.75 17.5 63.35 15.5 62.45 11.75 60.9 9.1
L 60.9 9.2
Q 60.45 8.2 59.75 7.85 58.55 7.3 58 8.25 57.9 8.25 57.9 8.4 57.85 8.4 57.85 8.5 57.65 8.75 57.5 9.3
L 57.6 9.25
Q 57.3 10.1 56.45 11.55 56.35 11.75 56.2 11.95
L 54.95 10.2 55 10.2
Q 50.35 3.15 49.3 1.25
L 49.3 1.2
Q 47.1 -2.8 45.55 -7.3
L 45.5 -7.35 45.05 -8.2
Q 45 -8.35 44.9 -8.4 44.25 -9.1 43.55 -8.9 43.2 -8.85 42.75 -8.55 42.4 -8.4 41.85 -7.45 41.8 -7.45 41.8 -7.35 39.3 -2.55 34.75 4.05
L 34.75 3.95
Q 29.5 11.35 27 15.15
L 18.3 28.45
Q 16.9 24.8 15.25 18
L 14.05 13.05
Q 12.5 6.8 12.5 3.6
L 12.5 3.55
Q 12.65 2.9 12.4 2.35 11.85 1.2 10.85 1.6
L 10.8 1.6
Q 10.65 1.6 10.6 1.75
L 10.5 1.75
Q 10.35 1.75 10.25 1.8 9.75 2.15 9.45 2.35 9.4 2.35 9.4 2.45 8.05 3 7.6 3.45 7.5 3.45 7.45 3.55
L 6.6 4.6 6.6 4.65
Q 5.65 6.05 3.3 8.75
L -0.55 13
Q -0.35 12.3 0 11.45
L 1.95 7.15 2 7.15
Q 2.25 6.4 2.15 5.75
L 2.15 5.7
Q 2 5 1.7 4.8 1.25 4.4 0.55 4.5 0.5 4.5 0.45 4.6 0.2 4.65 0.15 4.8 -0.15 4.8 -0.4 4.95 -0.6 5 -1.45 5.65
L -1.45 5.7 -5.95 9.6 -6.8 10.1
Q -6.9 10.1 -6.9 10.15 -7.5 10.65 -8.55 11.75
L -8.8 11.95
Q -4.95 4.8 1.75 -3.05
M -3.1 11
Q -2.85 10.75 -2.65 10.65 -3.7 13.05 -4 14.55
L -4.45 16.05
Q -5.05 18.15 -5.05 19.4 -5.15 20 -4.95 20.5 -5 20.85 -5.05 21.25 -5.2 21.25 -5.3 21.4 -7.45 22.8 -9.3 24.35 -9.1 23.8 -9.1 23.55 -8.9 21.75 -10.35 21.55 -11 21.4 -11.75 21.85 -13.75 22.75 -15.7 23.45 -15.1 21.4 -14.4 19.6 -14.2 19.75 -13.9 19.8 -13.6 19.95 -13.25 19.95 -13.2 19.95 -13.05 19.95 -12.7 19.9 -12 19.2 -11.95 19.2 -11.95 19.1
L -10.65 17.45
Q -10.2 16.8 -9.8 16.5
L -9.75 16.5 -8.75 15.7
Q -8.7 15.7 -8.7 15.65
L -7.85 14.8
Q -6.8 14.05 -6.4 13.65
L -6.3 13.65
Q -5.5 12.65 -5 12.15 -4.65 11.9 -3.1 11
M -7.35 2.5
Q -6.4 1.6 -4.6 0.2 -8.75 5.65 -11.45 10.75 -11.75 10.45 -12.25 10.35 -12.3 10.3 -12.45 10.3 -12.6 10.3 -13.4 10.45 -13.5 10.45 -13.5 10.5
L -14.65 10.9
Q -10.7 5.35 -7.35 2.5
M 65.15 23.9
L 65.35 23.85
Q 65.9 25.6 67.05 27.3 68.35 29.15 69.55 28.5 70.25 28.25 70.7 27.2 71.35 25.3 71.85 24.55 73.5 25.6 76.3 27.6
L 76.35 27.65
Q 76.5 27.75 76.7 27.9
L 76.7 39.4
Q 76.7 39.5 76.7 39.55 76.15 38.95 75.45 39.05 75.4 39.05 75.4 39.15 74.95 39.2 74.75 39.55 74.25 39.85 73.8 41.1 73.15 42.85 71.05 47.4 68.9 52 67.75 53.95 67.4 54.45 65.2 57.35 64.75 58 64.3 58.45 65.5 53.4 65.9 49 66.35 44.35 66 38.65 65.8 35.1 65 28.25
L 64.55 24.05
Q 64.75 24.05 65 24 65.1 24 65.15 23.9 Z"/>

            <path fill="#FFFFFF" stroke="none" d="
M 65.35 23.85
L 65.15 23.9
Q 65.1 24 65 24 64.75 24.05 64.55 24.05
L 65 28.25
Q 65.8 35.1 66 38.65 66.35 44.35 65.9 49 65.5 53.4 64.3 58.45 64.75 58 65.2 57.35 67.4 54.45 67.75 53.95 68.9 52 71.05 47.4 73.15 42.85 73.8 41.1 74.25 39.85 74.75 39.55 74.95 39.2 75.4 39.15 75.4 39.05 75.45 39.05 76.15 38.95 76.7 39.55 76.7 39.5 76.7 39.4
L 76.7 27.9
Q 76.5 27.75 76.35 27.65
L 76.3 27.6
Q 73.5 25.6 71.85 24.55 71.35 25.3 70.7 27.2 70.25 28.25 69.55 28.5 68.35 29.15 67.05 27.3 65.9 25.6 65.35 23.85
M -4.6 0.2
Q -6.4 1.6 -7.35 2.5 -10.7 5.35 -14.65 10.9
L -13.5 10.5
Q -13.5 10.45 -13.4 10.45 -12.6 10.3 -12.45 10.3 -12.3 10.3 -12.25 10.35 -11.75 10.45 -11.45 10.75 -8.75 5.65 -4.6 0.2
M -2.65 10.65
Q -2.85 10.75 -3.1 11 -4.65 11.9 -5 12.15 -5.5 12.65 -6.3 13.65
L -6.4 13.65
Q -6.8 14.05 -7.85 14.8
L -8.7 15.65
Q -8.7 15.7 -8.75 15.7
L -9.75 16.5 -9.8 16.5
Q -10.2 16.8 -10.65 17.45
L -11.95 19.1
Q -11.95 19.2 -12 19.2 -12.7 19.9 -13.05 19.95 -13.2 19.95 -13.25 19.95 -13.6 19.95 -13.9 19.8 -14.2 19.75 -14.4 19.6 -15.1 21.4 -15.7 23.45 -13.75 22.75 -11.75 21.85 -11 21.4 -10.35 21.55 -8.9 21.75 -9.1 23.55 -9.1 23.8 -9.3 24.35 -7.45 22.8 -5.3 21.4 -5.2 21.25 -5.05 21.25 -5 20.85 -4.95 20.5 -5.15 20 -5.05 19.4 -5.05 18.15 -4.45 16.05
L -4 14.55
Q -3.7 13.05 -2.65 10.65
M 7.65 -9.2
Q 5.45 -7.45 1.75 -3.05 -4.95 4.8 -8.8 11.95
L -8.55 11.75
Q -7.5 10.65 -6.9 10.15 -6.9 10.1 -6.8 10.1
L -5.95 9.6 -1.45 5.7 -1.45 5.65
Q -0.6 5 -0.4 4.95 -0.15 4.8 0.15 4.8 0.2 4.65 0.45 4.6 0.5 4.5 0.55 4.5 1.25 4.4 1.7 4.8 2 5 2.15 5.7
L 2.15 5.75
Q 2.25 6.4 2 7.15
L 1.95 7.15 0 11.45
Q -0.35 12.3 -0.55 13
L 3.3 8.75
Q 5.65 6.05 6.6 4.65
L 6.6 4.6 7.45 3.55
Q 7.5 3.45 7.6 3.45 8.05 3 9.4 2.45 9.4 2.35 9.45 2.35 9.75 2.15 10.25 1.8 10.35 1.75 10.5 1.75
L 10.6 1.75
Q 10.65 1.6 10.8 1.6
L 10.85 1.6
Q 11.85 1.2 12.4 2.35 12.65 2.9 12.5 3.55
L 12.5 3.6
Q 12.5 6.8 14.05 13.05
L 15.25 18
Q 16.9 24.8 18.3 28.45
L 27 15.15
Q 29.5 11.35 34.75 3.95
L 34.75 4.05
Q 39.3 -2.55 41.8 -7.35 41.8 -7.45 41.85 -7.45 42.4 -8.4 42.75 -8.55 43.2 -8.85 43.55 -8.9 44.25 -9.1 44.9 -8.4 45 -8.35 45.05 -8.2
L 45.5 -7.35 45.55 -7.3
Q 47.1 -2.8 49.3 1.2
L 49.3 1.25
Q 50.35 3.15 55 10.2
L 54.95 10.2 56.2 11.95
Q 56.35 11.75 56.45 11.55 57.3 10.1 57.6 9.25
L 57.5 9.3
Q 57.65 8.75 57.85 8.5 57.85 8.4 57.9 8.4 57.9 8.25 58 8.25 58.55 7.3 59.75 7.85 60.45 8.2 60.9 9.2
L 60.9 9.1
Q 62.45 11.75 63.35 15.5 63.75 17.5 64.2 21.15 64.3 21.05 64.45 21 65.55 20.5 66.55 20.95 67.8 21.4 68.35 23.55 68.5 24.25 68.7 24.7
L 69.75 22.45
Q 70.15 21.55 70.8 21.25
L 70.85 21.25
Q 71.5 20.95 72.6 21.55
L 72.65 21.6
Q 74.2 22.65 77.1 24.8 77.4 24.7 77.8 24.7 78.5 24.7 79 25.15
L 79.05 25.25
Q 79.35 25.5 79.5 26.3 80.6 26.75 81.65 26.95 81.65 24.95 81.9 22.3
L 81.9 22.25
Q 82.2 21.15 82.55 21.05 82.8 20.85 83.35 20.85 83.5 20.7 83.8 20.7 84.05 20.65 84.55 20.95
L 84.55 20.85
Q 84.7 20.95 84.85 21.05 89.7 22.05 94.55 21.95 92.85 19.05 89.2 14.4 86.5 10.85 84.9 9.45 84 8.7 83.6 8.35 82.8 7.65 82.35 7 81.5 5.9 82.05 5.3
L 82.05 5.2
Q 82.35 4.85 82.75 4.75 83 4.5 83.7 4.45
L 85.4 4.3 81.85 1.1
Q 78.5 -1.8 76.85 -2.7
L 76.9 -2.7 74 -4.05
Q 69.7822265625 -5.8109375 65.4 -7.15 65.00859375 -7.05 64.45 -7.05 61.05 -7.05 59.05 -7.45 57.9 -7.65 57.45 -8.2 57.05 -8.65 57.15 -9.3 57.3 -10 57.85 -10.2 58.35 -10.55 59.55 -10.45 60.2875 -10.377734375 60.95 -10.35 55.53984375 -13.472265625 50.9 -15.3 43.2 -18.45 36.15 -18.3 30.95 -18.2 22.4 -15.7 12.5 -13 7.65 -9.2 Z"/>
        </g>

        <g id="niijiok_0_Layer1_0_FILL">
            <path fill="#FFFFFF" stroke="none" d="
M 70.75 36.5
L 66.45 34.7
Q 69.112109375 38.8142578125 69.4 40.1 69.2833984375 40.409765625 67.9 38.2 66.1509765625 40.832421875 67.8 44.1 67.47109375 44.257421875 67.1 44.35
L 67.05 44.4 67 44.4
Q 66.8580078125 44.453125 66.7 44.5 66.8421875 44.5099609375 66.95 44.5 66.3740234375 46.344140625 66.05 46 66.2181640625 46.8337890625 66.2 47.25
L 65 54.15
Q 66.05 55.1 66.45 55.5 67.6 56.4 69.3 57.55
L 69.4 57.55 72.85 59.85
Q 73.9 60.45 74.7 60.95 74.7 60.85 74.7 60.8 74.1 58.6 74 58.25
L 74 58.15
Q 73.75 57.55 72.15 54.35 70.3890625 50.8708984375 67.55 45.75 67.233984375 45.5822265625 67.05 46 66.8951171875 46.346484375 67 44.5 67.1064453125 44.52265625 67.15 44.5 67.4103515625 44.5416015625 67.65 44.55 75.6951171875 44.9822265625 82.35 43
L 80.05 41.5
Q 76.2 38.95 73.35 37.6
L 70.75 36.5
M -2.45 50.05
Q -3.75 52.2 -4.85 54.45 -2.45 53.75 0.35 53.1 -1.3 51.8 -2.45 50.05
M -2.75 43.25
Q -2.3 40.9 -1.85 38.5 -4.25 40.75 -6.05 43.3
L -2.75 43.25 Z"/>

            <path fill="#000000" stroke="none" d="
M 85.8 41.9
L 81.65 39.2
Q 76.3 35.7 73.65 34.6 73.3 34.45 73.1 34.4 72.45 34.1 71.85 34.6
L 71.75 34.6
Q 71.2 35 71.05 35.8
L 71.05 35.7 70.75 36.5 73.35 37.6
Q 76.2 38.95 80.05 41.5
L 82.35 43
Q 75.6951171875 44.9822265625 67.65 44.55 67.54296875 44.8216796875 67.55 45.75 70.3890625 50.8708984375 72.15 54.35 73.75 57.55 74 58.15
L 74 58.25
Q 74.1 58.6 74.7 60.8 74.7 60.85 74.7 60.95 73.9 60.45 72.85 59.85
L 69.4 57.55 69.3 57.55
Q 67.6 56.4 66.45 55.5 66.05 55.1 65 54.15
L 66.2 47.25
Q 64.7759765625 50.8638671875 63.2 53.45 63.15 53.35 63.05 53.35 62.3 53.35 61.9 53.9 61.7806640625 54.028515625 61.7 54.15 58.7302734375 55.354296875 56 55.95
L 56 56.05
Q 38.05 60.2 19.8 57.1 12.4 56.05 5.55 52.9 5.3 52.3 4.3 52.3 3.4 51.8 2.5 51.3 -0.55 49.7 -0.55 46.85 -0.2 46.35 0.15 45.9
L 0.1 45.9
Q 1.1 44.35 0.2 43.65 0.15 43.6 0 43.5 2.6 30.25 4.4 16.8 4.45 16.6 4.6 16.4 4.6 16.35 4.6 16.25
L 4.65 15.5
Q 4.75 14.75 5 13.55 5.3 12.05 5.35 11.45
L 5.35 11.4
Q 5.35 10.55 5.15 10.2 4.6 9.05 3.6 9.45 2.8 9.75 2.65 10.45
L 2.5 11.05 2.5 11.1
Q 2.45 11.7 2.15 13.3 1.9 14.6 1.9 15.5 0.75 19.95 0.2 24.6 -0.35 29.5 -1.1 34.35
L -1.15 34.35
Q -1.25 34.35 -1.25 34.4 -4.15 36.3 -7.5 40.6
L -9.65 43.4
Q -10.5 44.5 -10.05 45.25 -9.85 46.25 -8.05 46.25
L -3.4 46.15
Q -7.15 52.4 -8.6 55.6
L -8.6 55.7
Q -8.95 56.45 -8.8 56.8 -8.6 58.05 -7.2 58.05 -6.8 58.05 -5.85 57.75
L -5.75 57.75
Q -3.95 57 -0.95 56.3
L -0.9 56.3
Q 3.4 55.25 3.95 55.15 13.2 59.25 23.15 60.55 33.15 61.6 43.2 60.85
L 43.25 60.85
Q 52.9 60.65 62.1 57.1 62.68046875 56.8642578125 63.05 56.5 63.5298828125 56.8529296875 64.75 57.75
L 64.8 57.75 69.25 60.8 69.25 60.85
Q 74 63.85 76.3 64.65 76.55 64.7 76.75 64.75 77.4 65.05 77.95 64.5
L 78 64.5
Q 78.5 64.05 78.5 63.25 78.5 63.1 78.45 62.95
L 78.1 62.2
Q 77.75 61.5 77.45 60.25
L 77.45 60.2
Q 76.9 58.5 76.85 58.1
L 76.85 58.15
Q 76.3 56.15 74 51.75
L 71.95 47.85
Q 74.55 47.8 77.75 47.2 81.2 46.5 85.65 45
L 85.75 45
Q 85.8 44.95 85.95 44.9 86.2 44.8 86.45 44.75 86.45 44.65 86.5 44.65 87.05 44.25 87.1 43.85 87.2 43.35 86.85 42.85 86.5 42.25 85.85 41.95
L 85.8 41.9
M -1.85 38.5
Q -2.3 40.9 -2.75 43.25
L -6.05 43.3
Q -4.25 40.75 -1.85 38.5
M -4.85 54.45
Q -3.75 52.2 -2.45 50.05 -1.3 51.8 0.35 53.1 -2.45 53.75 -4.85 54.45
M 67.05 44.4
Q 67.0462890625 44.3478515625 67.05 44.3 67.03359375 44.3517578125 67 44.4
L 67.05 44.4 Z"/>
        </g>

        <g id="niijiok_0_Layer0_0_FILL">
            <path fill="#000000" stroke="none" d="
M 31.45 48.5
Q 30.95 47.5 30.6 47.2 30.05 46.75 29.25 46.85 28.45 47 27.85 47.5 27.1 48.15 25.95 49.85 25.65 50.2 24.7 51.05 23.9 51.75 23.55 52.25 22.55 53.55 23.1 54.6 23.65 55.6 25.6 55.6 28.1 55.75 32.75 55.95 34.75 56.05 35.25 55.1 35.65 54.35 35.1 53.45 34.8 52.95 34 52.15 32.35 50.5 31.45 48.5
M 29 50.8
Q 29.15 50.65 29.25 50.7 29.35 50.75 29.35 50.95
L 29.65 51.2 29.9 51.65
Q 30.15 52.35 30.95 52.95 30.2 53.05 29.1 52.85 27.4 52.6 27.2 52.6
L 29 50.8
M 63.6 8.3
Q 62.85 8.25 61.75 8.6
L 58.45 9.6
Q 55.9 10.4 48.6 12.25 42.35 13.8 38.75 15.1 36.2 16 35.25 16.15 33.85 16.35 33.45 16.9 33.15 17.3 33.25 17.85 33.35 18.35 33.7 18.7 34.4 19.4 35.6 19.3 35.95 19.25 37.55 18.75 40.9 17.5 47.8 15.6
L 62.7 11.6
Q 63.8 11.3 64.3 10.95 65.1 10.3 64.95 9.45 64.8 8.5 63.6 8.3
M 43.6 18.85
Q 43.3 18.65 43.05 18.8 42.95 18.85 42.85 18.9
L 42.25 18.9
Q 41.4 18.9 41 19.1 40.95 19.15 40.85 19.25
L 39.9 19.4
Q 39.2 19.5 38.95 19.75 38.5 20.25 38.5 20.95 38.55 21.7 39 22.05 39.45 22.25 40.1 22.1
L 41.5 21.8
Q 41.95 21.7 42.4 21.55
L 42.4 27.35
Q 42.3 30.6 42.55 32.75 42.95 37.15 44.55 39.45 44.95 40.15 45.8 40.95 46.6 41.8 47.3 42.2 48.2 42.65 49.7 42.6 53 42.35 54.55 39.85 55 39.25 55.35 38.15 56.25 35.6 56.65 32.15 56.85 29.75 56.85 25.75 56.85 24.65 56.8 23.9 57.45 24.1 58.1 24.4 58.85 24.7 59.2 24.55 59.65 24.35 59.75 23.65 59.8 22.95 59.5 22.5 59.3 22.25 58.5 21.8 55.25 20.5 53.85 20.05 51.25 19.2 49.1 18.95 48.3 18.9 45.6 18.9
L 43.7 18.9
Q 43.65 18.85 43.6 18.85
M 3.3 10.95
Q 2.4 10.95 2 11.5 1.4 12.45 2.3 13.45 2.75 13.9 4.1 14.45
L 10.95 16.95
Q 12.05 17.35 12.6 17.2 13.25 17 13.5 16.25 13.7 15.5 13.3 14.95 12.95 14.45 11.7 13.9
L 4.75 11.3
Q 3.7 10.95 3.3 10.95
M 3.2 20.9
L 3.2 21
Q 2.45 21.7 2.45 22.4 2.35 23.1 2.75 23.65
L 2.8 23.65
Q 3.25 24.1 3.8 23.95
L 3.75 23.95
Q 4.2 23.85 4.65 23.25 5.45 22.2 7.35 22.1 7.25 22.75 7.25 23.75 7.25 24.8 7.1 26.8
L 6.9 34.15 7.15 36.1 7.25 36.2
Q 7.55 37.6 8.55 39.3 9.45 40.75 10.3 41.2 11.85 42.1 13.05 41.05 13.85 40.4 14.25 38.15
L 14.65 35.7 14.7 33.5
Q 14.85 30.7 15.4 28.35
L 15.4 28.3 15.55 27.3
Q 15.55 27.25 15.55 27.2 15.55 26.4 15.1 26.05 13.95 22.05 13.8 20.7 13.65 19.6 13.35 19.25 13.5 19.3 13.65 19.3 14.45 19.4 14.95 18.75
L 12.3 18.75
Q 12.4388671875 18.8298828125 12.55 18.9 12.1 18.7 11.45 18.85
L 7.9 19.15
Q 4.5 19.55 3.2 20.9
M 12.85 19
L 12.8 19
Q 12.7587890625 18.9587890625 12.7 18.95 12.7662109375 18.958203125 12.85 19
M 69.25 14.2
Q 69.15 13.6 68.75 13.2 68.3 12.7 67.75 12.75 66.85 12.85 66.2 14.45
L 64.25 18.9
Q 63.8 20.2 63.75 20.55 63.65 21.6 64.3 22.15 64.65 22.45 65.15 22.5 65.7 22.5 66.05 22.2 66.45 21.9 66.85 21
L 68.75 16.4
Q 69.35 15 69.25 14.2 Z"/>
        </g>

        <g id="bits_0_Layer0_0_FILL">
            <path fill="#000000" stroke="none" d="
M 41.7 86.8
L 21.7 86.8 21.7 106.8 41.7 106.8 41.7 86.8
M 21.7 43.4
L 21.7 63.4 41.7 63.4 41.7 43.4 21.7 43.4
M 20 86.8
L 0 86.8 0 106.8 20 106.8 20 86.8
M 20 43.4
L 0 43.4 0 63.4 20 63.4 20 43.4
M 20 0
L 0 0 0 20 20 20 20 0
M 20 21.7
L 0 21.7 0 41.7 20 41.7 20 21.7
M 43.4 21.7
L 43.4 41.7 63.4 41.7 63.4 21.7 43.4 21.7
M 41.7 41.7
L 41.7 21.7 21.7 21.7 21.7 41.7 41.7 41.7
M 63.4 43.4
L 43.4 43.4 43.4 63.4 63.4 63.4 63.4 43.4
M 128.5 86.8
L 108.5 86.8 108.5 106.8 128.5 106.8 128.5 86.8
M 108.5 43.4
L 108.5 63.4 128.5 63.4 128.5 43.4 108.5 43.4
M 85.1 63.4
L 85.1 43.4 65.1 43.4 65.1 63.4 85.1 63.4
M 150.2 86.8
L 130.2 86.8 130.2 106.8 150.2 106.8 150.2 86.8
M 86.8 65.1
L 86.8 85.1 106.8 85.1 106.8 65.1 86.8 65.1
M 85.1 85.1
L 85.1 65.1 65.1 65.1 65.1 85.1 85.1 85.1
M 108.5 65.1
L 108.5 85.1 128.5 85.1 128.5 65.1 108.5 65.1
M 106.8 86.8
L 86.8 86.8 86.8 106.8 106.8 106.8 106.8 86.8
M 86.8 0
L 86.8 20 106.8 20 106.8 0 86.8 0
M 85.1 20
L 85.1 0 65.1 0 65.1 20 85.1 20
M 130.2 21.7
L 130.2 41.7 150.2 41.7 150.2 21.7 130.2 21.7
M 150.2 43.4
L 130.2 43.4 130.2 63.4 150.2 63.4 150.2 43.4
M 128.5 41.7
L 128.5 21.7 108.5 21.7 108.5 41.7 128.5 41.7
M 238.7 86.8
L 238.7 106.8 258.7 106.8 258.7 86.8 238.7 86.8
M 215.3 86.8
L 195.3 86.8 195.3 106.8 215.3 106.8 215.3 86.8
M 195.3 43.4
L 195.3 63.4 215.3 63.4 215.3 43.4 195.3 43.4
M 217 65.1
L 217 85.1 237 85.1 237 65.1 217 65.1
M 173.6 65.1
L 173.6 85.1 193.6 85.1 193.6 65.1 173.6 65.1
M 193.6 86.8
L 173.6 86.8 173.6 106.8 193.6 106.8 193.6 86.8
M 173.6 0
L 173.6 20 193.6 20 193.6 0 173.6 0
M 171.9 20
L 171.9 0 151.9 0 151.9 20 171.9 20
M 193.6 43.4
L 173.6 43.4 173.6 63.4 193.6 63.4 193.6 43.4
M 217 0
L 217 20 237 20 237 0 217 0
M 215.3 20
L 215.3 0 195.3 0 195.3 20 215.3 20
M 237 43.4
L 217 43.4 217 63.4 237 63.4 237 43.4
M 215.3 41.7
L 215.3 21.7 195.3 21.7 195.3 41.7 215.3 41.7
M 302.1 86.8
L 282.1 86.8 282.1 106.8 302.1 106.8 302.1 86.8
M 282.1 43.4
L 282.1 63.4 302.1 63.4 302.1 43.4 282.1 43.4
M 303.8 65.1
L 303.8 85.1 323.8 85.1 323.8 65.1 303.8 65.1
M 323.8 86.8
L 303.8 86.8 303.8 106.8 323.8 106.8 323.8 86.8
M 258.7 85.1
L 258.7 65.1 238.7 65.1 238.7 85.1 258.7 85.1
M 260.4 65.1
L 260.4 85.1 280.4 85.1 280.4 65.1 260.4 65.1
M 282.1 65.1
L 282.1 85.1 302.1 85.1 302.1 65.1 282.1 65.1
M 260.4 21.7
L 260.4 41.7 280.4 41.7 280.4 21.7 260.4 21.7
M 258.7 20
L 258.7 0 238.7 0 238.7 20 258.7 20
M 280.4 20
L 280.4 0 260.4 0 260.4 20 280.4 20
M 303.8 21.7
L 303.8 41.7 323.8 41.7 323.8 21.7 303.8 21.7
M 302.1 41.7
L 302.1 21.7 282.1 21.7 282.1 41.7 302.1 41.7
M 347.2 43.4
L 347.2 63.4 367.2 63.4 367.2 43.4 347.2 43.4
M 367.2 86.8
L 347.2 86.8 347.2 106.8 367.2 106.8 367.2 86.8
M 368.9 65.1
L 368.9 85.1 388.9 85.1 388.9 65.1 368.9 65.1
M 347.2 65.1
L 347.2 85.1 367.2 85.1 367.2 65.1 347.2 65.1
M 345.5 86.8
L 325.5 86.8 325.5 106.8 345.5 106.8 345.5 86.8
M 325.5 21.7
L 325.5 41.7 345.5 41.7 345.5 21.7 325.5 21.7
M 388.9 21.7
L 368.9 21.7 368.9 41.7 388.9 41.7 388.9 21.7
M 388.9 43.4
L 368.9 43.4 368.9 63.4 388.9 63.4 388.9 43.4
M 367.2 20
L 367.2 0 347.2 0 347.2 20 367.2 20
M 388.9 20
L 388.9 0 368.9 0 368.9 20 388.9 20 Z"/>
        </g>

        <g id="Layer1_1_FILL">
            <path fill="#000000" stroke="none" d="
M 223.15 81.35
L 223.15 115.2 257.1 115.2 257.1 81.35 223.15 81.35
M 185.1 43.55
L 185.1 77.45 219.1 77.45 219.1 43.55 185.1 43.55
M 192.65 69.85
L 192.65 51.05 211.45 51.05 211.45 62.3 196.25 62.3 196.25 69.85 192.65 69.85
M 196.45 54.85
L 196.45 58.55 207.65 58.55 207.65 54.85 196.45 54.85
M 219.2 81.35
L 185.2 81.35 185.2 115.2 219.2 115.2 219.2 81.35
M 294.7 81.35
L 260.7 81.35 260.7 115.2 294.7 115.2 294.7 81.35
M 256.95 77.45
L 256.95 43.55 222.95 43.55 222.95 77.45 256.95 77.45
M 238.1 51.05
L 241.75 51.05 241.75 69.85 238.1 69.85 238.1 51.05
M 260.7 43.55
L 260.7 77.45 294.7 77.45 294.7 43.55 260.7 43.55
M 279.7 58.55
L 279.7 54.85 283.35 54.85 283.35 58.55 279.7 58.55
M 283.45 54.75
L 283.45 51.05 287.1 51.05 287.1 54.75 283.45 54.75
M 275.8 54.85
L 275.8 58.55 272.1 58.55 272.1 54.85 275.8 54.85
M 275.85 58.6
L 279.6 58.6 279.6 62.3 275.85 62.3 275.85 58.6
M 268.35 51.05
L 272.05 51.05 272.05 54.75 268.35 54.75 268.35 51.05
M 268.35 66.2
L 272.05 66.2 272.05 69.85 268.35 69.85 268.35 66.2
M 272.1 66.05
L 272.1 62.45 275.8 62.45 275.8 66.05 272.1 66.05
M 283.35 66.05
L 279.7 66.05 279.7 62.45 283.35 62.45 283.35 66.05
M 283.45 69.85
L 283.45 66.2 287.1 66.2 287.1 69.85 283.45 69.85
M 336.35 43.55
L 336.35 77.45 370.35 77.45 370.35 43.55 336.35 43.55
M 343.85 69.85
L 343.85 51.05 347.6 51.05 347.6 66.2 362.7 66.2 362.7 69.85 343.85 69.85
M 332.45 77.45
L 332.45 43.55 298.45 43.55 298.45 77.45 332.45 77.45
M 324.85 66.2
L 324.85 69.85 306.1 69.85 306.1 51.05 324.85 51.05 324.85 54.75 309.85 54.75 309.85 58.6 321.1 58.6 321.1 62.3 309.85 62.3 309.85 66.2 324.85 66.2
M 408.2 77.45
L 408.2 43.55 374.2 43.55 374.2 77.45 408.2 77.45
M 385.45 66.05
L 385.45 69.85 381.8 69.85 381.8 51.05 400.6 51.05 400.6 69.85 396.85 69.85 396.85 66.05 385.45 66.05
M 396.8 54.85
L 385.6 54.85 385.6 62.3 396.8 62.3 396.8 54.85
M 411.95 43.55
L 411.95 77.45 445.95 77.45 445.95 43.55 411.95 43.55
M 419.6 51.05
L 438.35 51.05 438.35 54.75 430.85 54.75 430.85 69.85 427.1 69.85 427.1 54.75 419.6 54.75 419.6 51.05
M 483.85 43.55
L 449.85 43.55 449.85 77.45 483.85 77.45 483.85 43.55
M 464.95 51.05
L 468.6 51.05 468.6 69.85 464.95 69.85 464.95 51.05
M 449.7 39.6
L 483.7 39.6 483.7 5.75 449.7 5.75 449.7 39.6
M 525.35 77.45
L 559.35 77.45 559.35 43.55 525.35 43.55 525.35 77.45
M 532.9 69.85
L 532.9 51.05 551.75 51.05 551.75 69.85 548.05 69.85 548.05 54.75 536.6 54.75 536.6 69.85 532.9 69.85
M 521.5 43.55
L 487.45 43.55 487.45 77.45 521.5 77.45 521.5 43.55
M 513.9 51.05
L 513.9 69.85 495.1 69.85 495.1 51.05 513.9 51.05
M 510.1 66.05
L 510.1 54.85 498.95 54.85 498.95 66.05 510.1 66.05
M 487.45 39.6
L 521.5 39.6 521.5 5.75 487.45 5.75 487.45 39.6
M 559.35 39.6
L 559.35 5.75 525.35 5.75 525.35 39.6 559.35 39.6 Z"/>

            <path fill="#FFFFFF" stroke="none" d="
M 192.65 51.05
L 192.65 69.85 196.25 69.85 196.25 62.3 211.45 62.3 211.45 51.05 192.65 51.05
M 196.45 58.55
L 196.45 54.85 207.65 54.85 207.65 58.55 196.45 58.55
M 241.75 51.05
L 238.1 51.05 238.1 69.85 241.75 69.85 241.75 51.05
M 283.45 66.2
L 283.45 69.85 287.1 69.85 287.1 66.2 283.45 66.2
M 279.7 66.05
L 283.35 66.05 283.35 62.45 279.7 62.45 279.7 66.05
M 272.1 62.45
L 272.1 66.05 275.8 66.05 275.8 62.45 272.1 62.45
M 272.05 66.2
L 268.35 66.2 268.35 69.85 272.05 69.85 272.05 66.2
M 272.05 51.05
L 268.35 51.05 268.35 54.75 272.05 54.75 272.05 51.05
M 279.6 58.6
L 275.85 58.6 275.85 62.3 279.6 62.3 279.6 58.6
M 275.8 58.55
L 275.8 54.85 272.1 54.85 272.1 58.55 275.8 58.55
M 283.45 51.05
L 283.45 54.75 287.1 54.75 287.1 51.05 283.45 51.05
M 279.7 54.85
L 279.7 58.55 283.35 58.55 283.35 54.85 279.7 54.85
M 343.85 51.05
L 343.85 69.85 362.7 69.85 362.7 66.2 347.6 66.2 347.6 51.05 343.85 51.05
M 324.85 69.85
L 324.85 66.2 309.85 66.2 309.85 62.3 321.1 62.3 321.1 58.6 309.85 58.6 309.85 54.75 324.85 54.75 324.85 51.05 306.1 51.05 306.1 69.85 324.85 69.85
M 385.45 69.85
L 385.45 66.05 396.85 66.05 396.85 69.85 400.6 69.85 400.6 51.05 381.8 51.05 381.8 69.85 385.45 69.85
M 385.6 54.85
L 396.8 54.85 396.8 62.3 385.6 62.3 385.6 54.85
M 438.35 51.05
L 419.6 51.05 419.6 54.75 427.1 54.75 427.1 69.85 430.85 69.85 430.85 54.75 438.35 54.75 438.35 51.05
M 468.6 51.05
L 464.95 51.05 464.95 69.85 468.6 69.85 468.6 51.05
M 532.9 51.05
L 532.9 69.85 536.6 69.85 536.6 54.75 548.05 54.75 548.05 69.85 551.75 69.85 551.75 51.05 532.9 51.05
M 513.9 69.85
L 513.9 51.05 495.1 51.05 495.1 69.85 513.9 69.85
M 510.1 54.85
L 510.1 66.05 498.95 66.05 498.95 54.85 510.1 54.85 Z"/>
        </g>
    </defs>

    <g transform="matrix( 1, 0, 0, 1, 0,0) ">
        <use xlink:href="#Layer3_0_FILL"/>
    </g>

    <g transform="matrix( -1.0999603271484375, 0, 0, 1.0999603271484375, 121.95,27.25) ">
        <g transform="matrix( 1, 0, 0, 1, 0,0) ">
            <use xlink:href="#niijiok_0_Layer5_0_FILL"/>
        </g>

        <g transform="matrix( 1, 0, 0, 1, 0,0) ">
            <use xlink:href="#niijiok_0_Layer4_0_FILL"/>
        </g>

        <g transform="matrix( 1, 0, 0, 1, 0,0) ">
            <use xlink:href="#niijiok_0_Layer3_0_FILL"/>
        </g>

        <g transform="matrix( 1, 0, 0, 1, 0,0) ">
            <use xlink:href="#niijiok_0_Layer2_0_FILL"/>
        </g>

        <g transform="matrix( 1, 0, 0, 1, 0,0) ">
            <use xlink:href="#niijiok_0_Layer1_0_FILL"/>
        </g>

        <g transform="matrix( 1, 0, 0, 1, 0,0) ">
            <use xlink:href="#niijiok_0_Layer0_0_FILL"/>
        </g>
    </g>

    <g transform="matrix( 1.123870849609375, 0, 0, 1.123382568359375, 162.75,0) ">
        <g transform="matrix( 1, 0, 0, 1, 0,0) ">
            <use filter="url(#Filter_1)" xlink:href="#bits_0_Layer0_0_FILL"/>
        </g>
    </g>

    <g transform="matrix( 1.09698486328125, 0, 0, 1.09637451171875, -27.05,-6.3) ">
        <use xlink:href="#Layer1_1_FILL"/>
    </g>
</svg>
