
<svg xmlns="http://www.w3.org/2000/svg" version="1.1" xmlns:xlink="http://www.w3.org/1999/xlink" preserveAspectRatio="none" x="0px" y="0px" width="600px" height="120px" viewBox="0 0 600 120">
<defs>
<filter id="Filter_1" x="-20%" y="-20%" width="140%" height="140%" color-interpolation-filters="sRGB">
<feColorMatrix in="SourceGraphic" type="matrix" values="1 0 0 0 0 0 1 0 0 0 0 0 1 0 0 0 0 0 0.5 0" result="result1"/>
</filter>

<g id="Layer3_0_FILL">
<path fill="#FFFFFF" stroke="none" d="
M 600 120
L 600 0 0 0 0 120 600 120 Z"/>
</g>

<g id="Layer2_0_FILL">
<path fill="#000000" stroke="none" d="
M 143.5 40.75
Q 138.3 27.35 127.5 18.85 118.85 12.2 108.85 9.9 95.35 6.7 81.2 7.75 71 9.1 60.7 10.5 49.25 12.3 38.45 16.7 37.2 17.25 35.75 17.7 20.6 24.8 13.1 39.25 8.45 48.1 7.55 58.05 7.15 64 8.3 69.4
L 9.85 69.95 5 77.3
Q 5.35 77.55 5.6 77.9 6.05 78.3 6.6 78.6 8.8 79.15 10.95 79.95 10.95 80.15 10.7 80.55 9.85 82.7 8.8 84.8 8.1 86.35 7.4 88.1 7.15 88.8 7 89.45 7 89.9 7.15 90.5 7.3 90.75 7.4 91.2 7.85 91.3 8.1 91.45 8.55 91.45 8.8 91.45 9.4 91.45 9.95 91.45 10.7 91.3 11.4 91.3 11.8 91.05 12 90.75 12.25 90.35 12.25 89.9
L 10.4 88.35
Q 12.1 84.95 13.5 81.55 13.95 80.55 14.05 79.7 14.2 78.9 13.95 78.3 13.65 77.75 13.25 77.3
L 9.15 76.05 18.05 64.7
Q 17.5 68.7 17.05 72.75 15.1 91.2 16.5 110.3 16.8 114.1 17.35 118.1 17.5 118.65 17.95 119.25 18.45 119.05 18.75 118.65 19.45 117.8 19.75 116.85 21.15 110.3 22.45 103.9 22.3 121.8 20.15 139.6 17.6 162 13.35 183.65 10.95 196.4 11.4 209.25 11.55 212.25 12.25 215.2 12.35 215.65 12.8 216.1
L 25.4 197.35
Q 27.55 207.55 30.8 218.3 33.35 226.7 37.45 234.35 41.55 242.4 48.1 248.1 48.9 248.65 49.75 249.25
L 52.45 245.25 51.75 272.55 52.7 274.25
Q 53.15 274.55 53.6 274.8 54.05 274.95 54.4 275.15 55 274.8 55.45 274.7 56 274.15 56.25 273.45 56.95 272.4 57.25 271.15 58.55 263.1 59.7 255.1 60.4 250.5 62.2 247.5 63.35 246.65 64.5 245.95 65.9 245.25 66.75 243.85 70.55 237.75 73.3 231.8 73.8 240 74.7 248.8 75.15 252.2 75.25 255.7 75.25 257.4 76.95 257.95 77.55 257.85 77.65 257.7 78.35 255.9 78.5 254.05 78.8 249.5 82.15 246.4 83.45 245.1 84.45 243.55 88.1 237.75 91.4 231.6 96.6 250.9 103 269.9 104.3 273.55 107.95 274.25
L 109.1 273.85
Q 109.55 273.3 109.65 272.85 109.9 271.3 110.1 269.9 110.25 269.2 110.25 268.75 108.85 256 107.15 243.4
L 108.4 243.4
Q 109.8 242.25 110.8 241.1 113.9 237.3 114.6 232.05 115.05 228.15 115.3 224.25 119.55 232.2 120.45 241.55 120.85 246.25 121.55 250.9 121.55 251.3 121.95 251.75 122.7 251.45 123.1 251.05 125.1 249.25 126.65 247.1 129.35 243.4 131.9 239.6 139 228.65 139.35 215.8 139.8 200.75 137.7 186.2 146.45 196.85 154.55 208.1 156.8 211.3 160.9 212.25 160.65 204.9 157.95 198.35 152.15 183.8 145.9 169.35 138.4 152.05 136.7 132.95 135.9 123.05 134.3 113.1 133.3 106.2 133.85 98.85 136.6 105.2 138.55 111.7 139.25 114.25 140.7 116.1 141.5 116.95 142.1 116.4 142.35 116.1 142.35 115.95 143.8 104.5 141.2 93.15 139 82.4 135.9 72.05
L 140.95 82.55 140.25 84.8 143.5 85.55 144.65 83.7 139.8 72.6 142.1 73.3 144.5 72.05
Q 143.95 70.65 142.9 69.5 141.2 67.1 139.1 65.15 136.4 62.4 133.6 59.65 131.75 57.75 130.5 56.1 130.2 51.25 129.6 46.6 128.9 39.05 125.7 32.15
L 143.5 50.15 144.2 51.1 146.9 51.25
Q 146.9 50.15 146.6 49.1 145.05 45 143.5 40.75
M 140.4 41.65
Q 132.7 33.15 122.85 27.6 121.7 26.9 120.3 26.75 119.55 28.05 120.45 29.3 124.25 35.1 125.95 41.45 125.5 41.35 124.8 41.35
L 111.6 41.75
Q 104.7 33.65 95.9 27.75 92.35 25.2 88.25 23.35 88 23.2 87.45 23.35
L 86.85 24.5
Q 88.25 30 86.85 36.05 85.45 41.9 82.15 47.6 77.65 55.5 71.85 62.15 71.85 59.45 71.7 56.8 71.6 49 68.3 41.9 68.05 41.2 67.15 40.65 65.65 47.85 64.05 54.65 61.95 64.7 55.9 73.3 52.6 59.75 49.05 46.7 57.4 46.25 58.4 46.15 60.25 46.15 60.25 45 60.4 43.85 58.4 43.85 53.3 43.6 48.2 43.85 48.2 43.5 48.1 43.05 46.5 37.4 46.95 31.85 47.2 28.7 47.5 25.6
L 45.5 24.5
Q 45.1 25.05 44.65 25.75 39.75 35.1 36.45 45.2 32.4 45.7 28.4 46.7 27.1 46.7 27 47.6 26.8 48.3 27.55 48.7 28.25 49.1 29.1 49.1 32.9 48.55 35.5 48.1 34.35 51.85 33.45 55.5 33.45 55.65 33.45 56.1 32.05 65.95 30.8 76.15 24.7 63.9 23.85 50.15 23.25 41.9 24 33.65 24.15 32.15 23.85 30.55 25.65 28.6 27.8 27.2 32.4 23.65 37.45 21.1 44.4 17.4 51.9 15.75 65.9 12 80.65 10.9 100.15 8.75 118 16.55 125.8 20.1 131.3 26.75 133.6 29.6 135.45 32.85 138 37.1 140.4 41.65
M 125.5 43.75
Q 126.05 43.6 126.5 43.5 127.9 49.25 127.5 55.65 127.2 61.3 125.5 66.65 121.7 54.25 113.65 44.2 119.05 44.05 125.5 43.75
M 92.1 42.35
Q 89.85 42.35 90.15 43.6 90.3 44.2 91.8 44.45 97.6 44.6 109.8 44.3 110.35 45 111.05 45.7 112.3 47.15 113.45 48.7 103.6 49.1 94.5 52.1 94.2 52.1 93.95 52.55
L 96.95 53.8
Q 97.05 62.4 98.3 71.25 98.75 74.35 100.15 76.85 101.15 78.45 103.25 79.15 105.85 80.15 108.65 79.7 112.5 77.3 112.2 72.2 112.05 70.2 112.05 68.4 112.2 60.45 112.2 52.65
L 112.05 52.2
Q 113.45 51.55 115.15 51.4
L 118 56.35
Q 117 57.75 117.45 59.3 120 69.95 122.25 80.75 122.7 83.15 121.8 86.1 113.45 92.3 103.7 95 98.65 96.7 93.5 98.3
L 93.65 97.4 93.65 93.6
Q 93.65 92.45 93.25 92.2 93.05 91.9 92 91.65 74.7 89.8 64.75 90.35 63.9 90.35 63.5 90.6 63.25 90.95 62.9 91.9 61.65 97.85 61.5 99.8
L 61.5 100
Q 55.45 98.15 49.25 96.1 45.1 95 41 93.35 37.7 91.45 34.9 89.45 33.2 84.95 33.75 79.95 34.2 76.5 34.35 73.05 34.45 66.65 35.75 60 36.85 53.7 38.7 47.6 41.7 47.15 45.5 46.85 46.25 49.55 47.2 52.2 47.75 53.7 48.2 55.2 44.9 54.5 41.45 55.05
L 38.25 55.2
Q 37.55 55.5 37.3 56.2 37 57.5 38.45 57.75 39.15 58.05 40.55 58.05 40.55 58.9 39.85 62.05
L 39.6 65.95
Q 39.4 67.1 39.85 73.05 40.55 78.3 41.1 79.85 42.25 83.5 45.5 85.1 47.65 85.9 50.75 85.65 50.3 86.25 50.85 87.5 51.45 88.5 51.75 89.45 51.9 89.8 51.9 90.15 50.2 88.2 50.05 87.2 49.9 86.8 49.5 86.6
L 48.2 86.95
Q 48.2 87.75 48.45 88.5 48.8 89.8 49.25 91.05 47.9 88.5 46.25 86.25 45.95 85.9 45.25 85.9 44.55 86.5 44.4 87.2 43.65 85.9 42.4 84.95
L 41.25 85.35
Q 41.1 85.9 40.7 86.5 40.4 86.8 39.85 86.95 39.05 90.05 41.55 92.75 42 92.75 42.25 92.6 42.95 92.3 43.4 91.9
L 43.55 91.9
Q 44.2 91.75 44.8 91.75 44.9 91.65 45.1 91.45 45.25 90.35 45.1 89.35 45.95 90.95 46.65 92.75 46.8 93 46.95 93.45 47.5 93.85 48.1 94.3 48.9 94.05 49.6 93.85 49.75 93.35 49.9 92.9 49.9 92.6 49.9 92.45 50.05 92.45 50.2 92.75
L 52.15 92.45
Q 53.15 92.9 54.05 93.45 54.4 93.15 54.85 93.15
L 55.9 94.15
Q 56.45 94.3 56.7 94.05 57.4 94.05 57.85 93.7 57.7 89.6 54.4 87.05 54.15 86.95 53.7 86.95 53.3 86.1 52.7 85.55 52.6 85.35 52.45 85.35 52.6 85.25 52.7 85.25
L 54.15 84.65
Q 54.55 84.2 54.85 83.7
L 55 83.7 55 83.4
Q 55.1 82.95 55.3 82.7 55.3 82.55 55.3 82.25
L 56.45 78
Q 65.05 65.95 68.3 51.95
L 69 67.35 71.6 67.35
Q 79.05 59.2 84.2 49.45 85.6 46.85 87 44.2 88.8 40.5 89.85 36.05 90.15 35 90.3 33.85 90.55 30.45 90.65 27.2 95.8 31 101.15 35.8 104.4 38.8 107.4 41.9
L 92.1 42.35
M 90.95 94.4
Q 91.1 95.55 90.85 97.6 90.65 98.55 90.65 99.25 88.45 100 86.15 100.7 75.4 104.5 64.75 100.95 64.5 100.8 64.2 100.8
L 64.35 99.8
Q 64.5 97.6 65.65 93 71 92.9 77.65 93.35
L 90.95 94.4
M 110.5 95.75
Q 115.3 94.05 119.55 91.2
L 120 140.9 121.15 143.3
Q 124.65 142.2 126.05 137.5 127.2 133.5 128.45 129.55 130.3 123.5 131.9 117.2 133.75 136.1 137.7 153.9 139.7 163.4 143.6 172.2 149.2 184.25 154.25 196.65 156.1 201.2 157.55 205.9
L 133.85 176.45
Q 132.45 177.15 132.7 178.65 135.55 192.85 136.4 207.15 136.95 217.75 134.15 227.8 131.75 236.05 126.4 242.7 125.1 244.1 123.65 245.7 122.95 229.55 115.05 215.8
L 113.1 216.8
Q 113.45 224.15 111.8 231.35 110.35 237.45 107 242.4
L 102.45 211.1 110.95 207.55
Q 112.05 206.45 111.25 205.15 106 197.2 102.55 188.05
L 105.55 187.45 111.25 193
Q 114.75 191 114.75 186.2
L 127.8 183.35
Q 128.1 181.5 126.65 180.25 112.75 168.2 107.4 150.35 105.85 145.3 104.7 140 102.2 127.4 98.75 115.15
L 98.65 115.25 97.5 112.15
Q 97.5 111.85 97.35 111.6
L 102.3 108.5
Q 101.85 105.9 98.65 106.3 95.1 105.75 92.1 104.05 90.65 103.45 89.25 103.1 100.15 99.4 110.5 95.75
M 123.65 73.3
L 124.95 73.9
Q 124.65 72.75 124.35 72.05
L 124.65 72.5
Q 124.8 72.6 124.95 72.75 125.25 72.75 125.35 72.75 125.7 72.75 125.95 72.75
L 129.5 63.55
Q 137.85 84.2 140.15 106.9 138.1 99.55 134 92.6 133.75 92.3 133.5 92 133.15 91.75 132.7 91.45 132.45 91.05 131.9 90.95 131.45 90.95 131.05 90.95 130.5 91.9 130.65 93.35 131.6 100.35 130.5 107.45 129.05 116.4 126.95 125.45 126.4 127.75 125.35 130.15 124.25 132.95 122.95 135.9
L 122.5 89.35
Q 124.65 87.75 124.95 85.55 125.1 84.8 125.1 84.2 125.1 83.15 124.95 82.1 124.8 80.75 124.65 79.4 124.55 78 124.25 76.6 124 74.9 123.65 73.3
M 137.3 69.05
L 135.7 70.35 135.7 70.8
Q 135.3 70.2 135 69.4
L 132.15 62.4 139.25 69.25 137.3 69.05
M 44.55 32.95
Q 44.1 38.65 44.9 44.05 42.4 44.2 39.75 44.6 41.8 38.65 44.55 32.95
M 17.15 38.1
Q 18.45 35.7 20 33.55
L 10.85 60 10.85 57.25
Q 12.35 47.05 17.15 38.1
M 21.15 39.05
Q 21.15 40.9 21.15 42.8 21.05 47.6 20.35 52.65 20.15 53.8 19.75 54.95 18.45 59.05 15.55 62.85 13.25 65.85 10.95 68.4
L 11.1 68.1 21.15 39.05
M 22.2 59.2
L 22.55 61.3 31.25 84.2
Q 31.8 84.1 31.8 83.95 32.05 88.2 31.95 92.45 31.25 114.7 37.3 136.45 38 139.35 38.85 142 35.6 137.5 33.45 132.1 25.55 111.25 26.25 88.2 26.25 87.95 26 87.75 25.65 87.65 25.4 87.5 24.95 87.75 24.4 88.2
L 19.45 103.8
Q 17.35 81.3 22.2 59.2
M 75.5 105.9
L 79.4 105.5 80.1 106.65 82.05 106.9
Q 82.6 107 82.6 107.2 82.6 107.8 82.5 108.3 82.35 108.6 82.35 109.05
L 78.5 110.3 70.3 107.6
Q 72.3 105.75 75.5 105.9
M 64.6 106.3
L 67.15 104.95
Q 66.6 105.5 65.9 106.2
L 64.6 106.3
M 61.75 110.45
Q 61.65 110 61.4 109.85 59.35 110 59.7 112.4 59.8 112.95 59.8 113.65
L 55.3 110.9 62.2 107.45
Q 63.35 112.7 67.15 117.55
L 66.9 117.65
Q 65.75 118.5 65.05 117.4 63.5 115.25 62.65 112.6 62.35 111.45 61.75 110.45
M 65.3 121.45
L 68.3 120.3 75.7 115.4 75.15 118.65 77.35 120.3
Q 75.25 129.25 74.95 139.35 74.8 144.7 73.45 150.2 72.75 152.75 74 154.8 72.85 154.9 71.7 155.15 67.7 154.2 63.5 155.35 63.35 153.75 63.35 152.2 63.5 145.15 63.65 138.3 63.9 131.65 64.05 125 63.8 125 63.5 124.9 63.25 124.9 62.9 124.9 62.9 125.6 62.65 126.3 62.1 128 60.5 131.55 60.7 135.35 60.7 139.2 60.8 151.6 59.7 164.55 59.55 166.95 59.1 169.35
L 57.15 169.8
Q 56.85 169.8 56.6 169.8
L 56.15 169.8
Q 52.15 170.35 45.8 173.05 38.85 175.9 35.75 176.7 33.75 177.85 31.6 179 31.35 178.85 31.05 178.85 30.35 178.65 29.2 179.25
L 32.05 162.7
Q 32.5 160.55 32.5 160.3
L 32.65 157.55
Q 33.05 153.2 35.15 149.8 36.45 147.95 36.85 147 37.3 146.3 37.45 145.55 38.45 146.8 39.6 148.25
L 41.25 149.65 43.25 148.5
Q 42.4 145.15 41.55 141.75 41.8 141.5 42.15 141.05
L 50.2 132.8
Q 51.3 132.1 51.45 131.85
L 53.3 129.7
Q 54.3 128.7 55.7 126.15
L 57.15 123.75
Q 59.55 119.95 60.25 119.05 60.5 118.8 60.7 118.65 61.75 119.25 63.1 120.05 64.35 120.9 65.3 121.45
M 78.35 117.55
L 78.35 115.5 80.35 115.5 80.35 117.55 78.35 117.55
M 67.15 110.3
L 75.4 112.3 70 115.5 67.15 110.3
M 57.55 116.25
L 58.3 116.65
Q 57.7 117.2 57.15 118.65
L 55.55 120.3 54.75 122.05 51.05 127.85 44.65 134.05
Q 42.15 136.65 40.7 138.2 39.4 132.8 38.15 127.4 35.05 114.25 34.8 101.4 34.8 97.15 34.8 93 47.9 100.8 62.8 103.45
L 50.3 110.55
Q 51.05 111.6 51.9 112.3 54.3 113.85 56.7 115.5 56.7 115.7 56.7 115.8 57.15 115.95 57.55 116.25
M 79.75 135.8
L 80.1 129.15 79.2 128.1 79.75 120.5 82.95 146.3 80.1 139.45 78.35 140.6
Q 78.5 141.75 78.35 142.85 77.9 144.95 78.6 147.25 79.95 151.95 81.9 156.05
L 80.2 156.05 76.4 153.05
Q 76.4 152.75 76.4 152.65 76.95 145.7 78.5 138.3 78.8 137.05 79.4 135.9 79.5 135.8 79.75 135.8
M 35.5 142.45
Q 35.05 142.55 34.6 144.6 34.45 145.4 33.65 146.8
L 30.65 151.95
Q 30.35 152.95 29.65 157.75 29.2 162 28.4 166.5
L 26 179.55 26 181.25
Q 26.55 182.9 28.95 182.65 30.35 182.65 31.95 181.4 32.2 181.05 32.4 180.8 34.8 180.35 38.7 178.85
L 41.8 177.7
Q 42.15 177.6 42.4 177.6 43.55 179 45.8 180.1
L 52.6 184.25 53.7 184.8
Q 54.75 185.2 56.7 185.2 56.6 186.65 56.15 187.6 55.9 188.3 54.85 189.45 55 189.45 55.1 189.45 51.2 200.35 44.1 210.7 43.95 210.95 43.95 211.55
L 55.45 214.4 49.35 245.25
Q 42.15 238.25 37.7 228.85 31.95 216.35 29.55 202.9 28.5 197.8 26.8 193 26.7 192.4 26.1 192.15
L 14.2 208.55
Q 13.5 201.8 14.65 194.8 18.05 173.7 21.3 152.2 24.25 132.95 25.3 113.65 27.25 129.55 35.5 142.45
M 75.15 158.85
L 77.65 158.85 76.4 161.7 75.15 158.85
M 66.75 157.75
Q 66.9 157.75 66.9 157.9 67.35 158.85 67.7 160 68.85 163.65 71.25 166.35 71.6 166.65 72.15 166.65 72.4 166.5 72.55 166.5 72.85 165.95 72.85 165.7 72.15 161.7 70.15 158.15
L 71.7 158.35 74.25 165.55 69.75 169.2 66.75 157.75
M 78.95 166.35
L 79.05 166.8 78.6 167.95 78.95 169.5 75.85 172.9 76.8 169.35 75.7 168.2 78.6 167.4
Q 78.6 166.65 78.95 166.35
M 80.9 161.25
L 80.75 161.25 80.75 161.1
Q 80.9 161.1 80.9 161.25
M 73.45 170.15
Q 73.3 170.75 73.1 171.45 73 172 73 172.6 73 173.15 73.1 173.85 73.7 175.3 74.55 176.7 74.7 177 74.95 177.15
L 80.35 172.6 83.3 177.6 61.75 177.4
Q 61.95 173.3 62.2 169.35 62.8 163.85 63.25 158.35
L 68.6 173.05 73.45 170.15
M 56.45 172.6
L 56.7 172.6
Q 57.85 172.75 58.85 172.45 58.55 175 57.95 177.6
L 57.55 176.15 55.55 172.75
Q 56 172.6 56.45 172.6
M 52 173.7
Q 52.45 173.6 52.7 173.45 53.05 173.7 53.3 174.3
L 54.4 176.25 55 177.7
Q 56.25 180.5 56 182.4 55.3 182.2 53.85 181.5
L 45.1 176.25
Q 46.05 175.7 47.05 175.2 48.8 174.3 49.5 174.15 50.3 173.85 52 173.7
M 59.25 190.9
Q 59.55 193.7 59.95 196.4 60.25 199.05 60.95 201.8
L 51.2 205.45 56.15 195.25 57.85 200.75
Q 58.55 200.75 59.1 200.75 59.35 200.5 59.55 200.35 59.8 200.05 59.95 199.75
L 57.95 190.45 59.25 186.2 68.6 190.45 73.55 202.05 75.4 200.9 71.85 191.45
Q 72.75 190.9 73.45 190.45
L 79.2 201.65 74.7 206.3
Q 70.15 199.05 65.9 191.15 65.05 189.45 63.1 189.75 61.75 191 62.9 192.75 66.6 197.9 69.9 203.6
L 64.75 201.9 61.4 188.85
Q 59.1 188.6 59.25 190.9
M 76.65 189.3
L 78.5 188.6 82.95 191.15
Q 82.75 193.3 83.9 194.8 86.3 197.9 89 200.9 89.25 201.35 89.95 201.45 91.55 200.05 90.3 198.35 87.55 194.8 85.15 191.15
L 87.75 189.45 96.05 200.75 90.95 204.05
Q 87.3 200.05 82.05 200.65
L 76.65 189.3
M 80.2 185.75
Q 79.75 185.5 79.4 185.2 75.85 185.9 72.4 186.9 70.7 187.35 68.85 187.35 64.2 185.9 60.5 183.1
L 60.8 180.1 99.35 180.5 98.9 184.05
Q 99 184.6 98.75 184.6 98.2 185.05 97.2 185.05
L 95.2 186.35 89.85 184.6 84.2 188.3 80.2 185.75
M 91.4 107
L 95.45 108.75 93.95 110 91.4 107
M 85.6 104.05
L 86.05 104.6
Q 85.15 104.8 84 104.5
L 85.6 104.05
M 86.75 110.45
L 88.8 108.6 90.85 111.15
Q 90.3 112.6 89.6 114
L 89.4 114.1 86.75 110.45
M 83.2 119.25
Q 83.2 117.8 83.45 116.4
L 87.3 117.8 89 118.25 91.8 116.25 92.7 115 94.75 113.4 96.6 118.25
Q 96.8 118.65 97.2 118.95 100.85 136.2 105.85 153.75 107.95 161.1 111.95 167.65 115.75 173.6 120.85 178.65 122.15 180 123.55 181.25
L 102.7 184.8
Q 102.7 180.8 102.2 177 101.3 170.6 100.05 164.4 97.75 153.2 96.5 141.85 95.65 134.75 95.2 127.85 95.1 124.2 94.95 120.75 93.5 123.05 92 124.75 92.1 140.7 95.65 156.35 95.6 156.3 95.45 156.3
L 86.15 157.45 87.75 155.15
Q 83.75 137.15 83.2 119.25
M 84.9 113.1
L 83.05 112.15
Q 83.45 111.85 83.75 112 84.45 112.4 84.9 113.1
M 86.6 160.4
L 87.15 160.4 87.15 162 86.6 162 86.6 160.4
M 83.2 164.2
L 84.55 167.95 87.85 173.45 85.35 174.85
Q 85 174.75 84.75 174.4 84.45 174.3 84.45 173.85 84.55 173.15 85 172.45
L 80.9 164.1 83.2 164.2
M 93.4 170.6
L 92 169.8 90.95 167.65 92 166.65 89.25 160 93.25 159.15 93.4 170.6
M 91.4 175
L 92.25 176.25 96.05 176 96.25 159.7 99.45 177.6 87 177.6 91.4 175
M 99.2 187.35
L 99.35 187.2
Q 99.45 187.45 99.45 187.9
L 100.15 190.7 98.65 188.5
Q 98.9 187.9 99.2 187.35
M 90.55 188.3
L 95.8 189.9 102.9 200.5 99.45 200.2 90.55 188.3
M 110.95 188.85
L 108.5 187 111.6 186.75 110.95 188.85
M 98.65 204.3
L 100.45 203.3 107.8 205.9
Q 101.4 208.7 93.65 210.25 86.3 211.3 78.8 212.35 67.35 213.1 55.9 210.85 52.35 210.4 48.8 209.25 49.9 208.9 51.05 208.45 53.15 208.55 55 207.3 61.75 202.75 69 206.6
L 71.85 209.4 75.25 210.25 83.3 203.5
Q 84 203.6 84.75 203.75 85.7 204.05 86.6 204.3 87.3 204.9 87.85 205.45 88.8 206.45 89.85 207.4 89.95 207.75 90.15 207.85
L 97.6 203.3 98.65 204.3
M 100.15 211.8
L 100.15 214.2 104.6 249.95 101.75 250.2 100.45 250.75
Q 100.15 250.9 100.05 251.05 99 247.65 98.05 244.25 93.65 229.8 89.6 214.75
L 100.15 211.8
M 90.15 227.7
Q 88.7 231.25 86.75 235.05 83.05 242 77.55 248.2 74.7 235.5 77.1 223 77.35 221.75 77.35 220.35 76.95 220.05 76.55 219.75 75.85 220.15 74.95 220.6 74.25 223.6 72.55 226.7 68.5 234.45 63.9 242 63.5 242.85 62.65 243.65
L 69.45 216.6
Q 69.55 216.1 69.55 215.65 73.7 215.55 77.65 215.55
L 86.75 214.65 90.15 227.7
M 58.1 214.95
L 67.05 215.65 58.4 251.9
Q 57.55 251.3 57.4 251.3
L 57.25 251.2
Q 56.25 251.2 55.55 251.3
L 58.1 214.95
M 55.7 85.55
Q 56 86.1 56.25 86.6 58.1 90.15 60.7 93.15 60.95 93.6 61.75 93.6 62.65 91.9 61.5 90.05 59.7 87.5 57.7 85.1 57.25 84.55 56.7 84.65 56.15 84.95 55.7 85.55
M 118.45 78.7
Q 118 78.45 117.6 78.15 116.65 78 115.6 78 115.5 78.3 115.15 78.7 115.15 78.6 115.05 78.6 114.45 78.45 113.9 78.9 113.65 78.7 113.35 79 114.05 83.7 117.6 86.1
L 119.55 85.1
Q 120.1 85.25 120.7 85.25 121.15 85.25 121.55 85.1 121.25 81.45 118.45 78.7
M 96.05 80.55
Q 95.9 81.3 96.25 81.7 97.6 84.55 99.6 87.05 99.9 87.65 100.15 88.1
L 102 88.2
Q 103.7 90.75 106.1 91.9 106.8 91.2 107.4 90.35 107.5 90.15 107.5 89.9
L 109.1 88.8 111.95 90.6
Q 112.5 90.5 112.9 90.15 113.35 89.8 113.65 89.2 113.9 88.65 114.2 88.2 114.45 88.2 114.75 88.2 116.75 86.95 115.05 84.55 113.2 82 111.05 79.7 110.8 79.25 110.25 79.15 109.8 79.4 109.65 79.95 109.55 80.75 109.65 81.55 109.55 81.8 109.2 82.1 108.85 82.4 108.5 82.8 109.1 84.95 109.65 86.6 109.65 86.8 109.2 87.2 108.85 87.05 108.5 86.95 107.25 85.35 106 83.7 105.85 83.4 105.65 83.25
L 104.15 83.15
Q 103.6 82.4 102.9 82.1 102.3 81.8 101.4 82 101.15 82.7 101.3 83.25 101.85 85.25 102.7 87.05 102.55 86.95 102.45 86.8 100.15 83.7 97.5 81.1 97.05 80.55 96.05 80.55 Z"/>
</g>

<g id="bits_0_Layer0_0_FILL">
<path fill="#000000" stroke="none" d="
M 41.7 86.8
L 21.7 86.8 21.7 106.8 41.7 106.8 41.7 86.8
M 21.7 43.4
L 21.7 63.4 41.7 63.4 41.7 43.4 21.7 43.4
M 20 86.8
L 0 86.8 0 106.8 20 106.8 20 86.8
M 20 43.4
L 0 43.4 0 63.4 20 63.4 20 43.4
M 20 0
L 0 0 0 20 20 20 20 0
M 20 21.7
L 0 21.7 0 41.7 20 41.7 20 21.7
M 43.4 21.7
L 43.4 41.7 63.4 41.7 63.4 21.7 43.4 21.7
M 41.7 41.7
L 41.7 21.7 21.7 21.7 21.7 41.7 41.7 41.7
M 63.4 43.4
L 43.4 43.4 43.4 63.4 63.4 63.4 63.4 43.4
M 128.5 86.8
L 108.5 86.8 108.5 106.8 128.5 106.8 128.5 86.8
M 108.5 43.4
L 108.5 63.4 128.5 63.4 128.5 43.4 108.5 43.4
M 85.1 63.4
L 85.1 43.4 65.1 43.4 65.1 63.4 85.1 63.4
M 150.2 86.8
L 130.2 86.8 130.2 106.8 150.2 106.8 150.2 86.8
M 86.8 65.1
L 86.8 85.1 106.8 85.1 106.8 65.1 86.8 65.1
M 85.1 85.1
L 85.1 65.1 65.1 65.1 65.1 85.1 85.1 85.1
M 108.5 65.1
L 108.5 85.1 128.5 85.1 128.5 65.1 108.5 65.1
M 106.8 86.8
L 86.8 86.8 86.8 106.8 106.8 106.8 106.8 86.8
M 86.8 0
L 86.8 20 106.8 20 106.8 0 86.8 0
M 85.1 20
L 85.1 0 65.1 0 65.1 20 85.1 20
M 130.2 21.7
L 130.2 41.7 150.2 41.7 150.2 21.7 130.2 21.7
M 150.2 43.4
L 130.2 43.4 130.2 63.4 150.2 63.4 150.2 43.4
M 128.5 41.7
L 128.5 21.7 108.5 21.7 108.5 41.7 128.5 41.7
M 238.7 86.8
L 238.7 106.8 258.7 106.8 258.7 86.8 238.7 86.8
M 215.3 86.8
L 195.3 86.8 195.3 106.8 215.3 106.8 215.3 86.8
M 195.3 43.4
L 195.3 63.4 215.3 63.4 215.3 43.4 195.3 43.4
M 217 65.1
L 217 85.1 237 85.1 237 65.1 217 65.1
M 173.6 65.1
L 173.6 85.1 193.6 85.1 193.6 65.1 173.6 65.1
M 193.6 86.8
L 173.6 86.8 173.6 106.8 193.6 106.8 193.6 86.8
M 173.6 0
L 173.6 20 193.6 20 193.6 0 173.6 0
M 171.9 20
L 171.9 0 151.9 0 151.9 20 171.9 20
M 193.6 43.4
L 173.6 43.4 173.6 63.4 193.6 63.4 193.6 43.4
M 217 0
L 217 20 237 20 237 0 217 0
M 215.3 20
L 215.3 0 195.3 0 195.3 20 215.3 20
M 237 43.4
L 217 43.4 217 63.4 237 63.4 237 43.4
M 215.3 41.7
L 215.3 21.7 195.3 21.7 195.3 41.7 215.3 41.7
M 302.1 86.8
L 282.1 86.8 282.1 106.8 302.1 106.8 302.1 86.8
M 282.1 43.4
L 282.1 63.4 302.1 63.4 302.1 43.4 282.1 43.4
M 303.8 65.1
L 303.8 85.1 323.8 85.1 323.8 65.1 303.8 65.1
M 323.8 86.8
L 303.8 86.8 303.8 106.8 323.8 106.8 323.8 86.8
M 258.7 85.1
L 258.7 65.1 238.7 65.1 238.7 85.1 258.7 85.1
M 260.4 65.1
L 260.4 85.1 280.4 85.1 280.4 65.1 260.4 65.1
M 282.1 65.1
L 282.1 85.1 302.1 85.1 302.1 65.1 282.1 65.1
M 260.4 21.7
L 260.4 41.7 280.4 41.7 280.4 21.7 260.4 21.7
M 258.7 20
L 258.7 0 238.7 0 238.7 20 258.7 20
M 280.4 20
L 280.4 0 260.4 0 260.4 20 280.4 20
M 303.8 21.7
L 303.8 41.7 323.8 41.7 323.8 21.7 303.8 21.7
M 302.1 41.7
L 302.1 21.7 282.1 21.7 282.1 41.7 302.1 41.7
M 347.2 43.4
L 347.2 63.4 367.2 63.4 367.2 43.4 347.2 43.4
M 367.2 86.8
L 347.2 86.8 347.2 106.8 367.2 106.8 367.2 86.8
M 368.9 65.1
L 368.9 85.1 388.9 85.1 388.9 65.1 368.9 65.1
M 347.2 65.1
L 347.2 85.1 367.2 85.1 367.2 65.1 347.2 65.1
M 345.5 86.8
L 325.5 86.8 325.5 106.8 345.5 106.8 345.5 86.8
M 325.5 21.7
L 325.5 41.7 345.5 41.7 345.5 21.7 325.5 21.7
M 388.9 21.7
L 368.9 21.7 368.9 41.7 388.9 41.7 388.9 21.7
M 388.9 43.4
L 368.9 43.4 368.9 63.4 388.9 63.4 388.9 43.4
M 367.2 20
L 367.2 0 347.2 0 347.2 20 367.2 20
M 388.9 20
L 388.9 0 368.9 0 368.9 20 388.9 20 Z"/>
</g>

<g id="Layer1_1_FILL">
<path fill="#000000" stroke="none" d="
M 223.15 81.35
L 223.15 115.2 257.1 115.2 257.1 81.35 223.15 81.35
M 219.2 81.35
L 185.2 81.35 185.2 115.2 219.2 115.2 219.2 81.35
M 185.1 43.55
L 185.1 77.45 219.1 77.45 219.1 43.55 185.1 43.55
M 192.65 69.85
L 192.65 51.05 211.45 51.05 211.45 62.3 196.25 62.3 196.25 69.85 192.65 69.85
M 196.45 54.85
L 196.45 58.55 207.65 58.55 207.65 54.85 196.45 54.85
M 260.7 43.55
L 260.7 77.45 294.7 77.45 294.7 43.55 260.7 43.55
M 275.85 58.6
L 279.6 58.6 279.6 62.3 275.85 62.3 275.85 58.6
M 275.8 54.85
L 275.8 58.55 272.1 58.55 272.1 54.85 275.8 54.85
M 283.45 54.75
L 283.45 51.05 287.1 51.05 287.1 54.75 283.45 54.75
M 279.7 58.55
L 279.7 54.85 283.35 54.85 283.35 58.55 279.7 58.55
M 268.35 51.05
L 272.05 51.05 272.05 54.75 268.35 54.75 268.35 51.05
M 272.1 66.05
L 272.1 62.45 275.8 62.45 275.8 66.05 272.1 66.05
M 268.35 66.2
L 272.05 66.2 272.05 69.85 268.35 69.85 268.35 66.2
M 283.45 69.85
L 283.45 66.2 287.1 66.2 287.1 69.85 283.45 69.85
M 283.35 66.05
L 279.7 66.05 279.7 62.45 283.35 62.45 283.35 66.05
M 256.95 77.45
L 256.95 43.55 222.95 43.55 222.95 77.45 256.95 77.45
M 238.1 51.05
L 241.75 51.05 241.75 69.85 238.1 69.85 238.1 51.05
M 294.7 81.35
L 260.7 81.35 260.7 115.2 294.7 115.2 294.7 81.35
M 332.45 77.45
L 332.45 43.55 298.45 43.55 298.45 77.45 332.45 77.45
M 324.85 66.2
L 324.85 69.85 306.1 69.85 306.1 51.05 324.85 51.05 324.85 54.75 309.85 54.75 309.85 58.6 321.1 58.6 321.1 62.3 309.85 62.3 309.85 66.2 324.85 66.2
M 336.35 43.55
L 336.35 77.45 370.35 77.45 370.35 43.55 336.35 43.55
M 343.85 69.85
L 343.85 51.05 347.6 51.05 347.6 66.2 362.7 66.2 362.7 69.85 343.85 69.85
M 411.95 43.55
L 411.95 77.45 445.95 77.45 445.95 43.55 411.95 43.55
M 419.6 51.05
L 438.35 51.05 438.35 54.75 430.85 54.75 430.85 69.85 427.1 69.85 427.1 54.75 419.6 54.75 419.6 51.05
M 408.2 77.45
L 408.2 43.55 374.2 43.55 374.2 77.45 408.2 77.45
M 385.45 66.05
L 385.45 69.85 381.8 69.85 381.8 51.05 400.6 51.05 400.6 69.85 396.85 69.85 396.85 66.05 385.45 66.05
M 396.8 54.85
L 385.6 54.85 385.6 62.3 396.8 62.3 396.8 54.85
M 449.7 39.6
L 483.7 39.6 483.7 5.75 449.7 5.75 449.7 39.6
M 483.85 43.55
L 449.85 43.55 449.85 77.45 483.85 77.45 483.85 43.55
M 464.95 51.05
L 468.6 51.05 468.6 69.85 464.95 69.85 464.95 51.05
M 525.35 77.45
L 559.35 77.45 559.35 43.55 525.35 43.55 525.35 77.45
M 532.9 69.85
L 532.9 51.05 551.75 51.05 551.75 69.85 548.05 69.85 548.05 54.75 536.6 54.75 536.6 69.85 532.9 69.85
M 487.45 39.6
L 521.5 39.6 521.5 5.75 487.45 5.75 487.45 39.6
M 521.5 43.55
L 487.45 43.55 487.45 77.45 521.5 77.45 521.5 43.55
M 513.9 51.05
L 513.9 69.85 495.1 69.85 495.1 51.05 513.9 51.05
M 510.1 66.05
L 510.1 54.85 498.95 54.85 498.95 66.05 510.1 66.05
M 559.35 39.6
L 559.35 5.75 525.35 5.75 525.35 39.6 559.35 39.6 Z"/>

<path fill="#FFFFFF" stroke="none" d="
M 192.65 51.05
L 192.65 69.85 196.25 69.85 196.25 62.3 211.45 62.3 211.45 51.05 192.65 51.05
M 196.45 58.55
L 196.45 54.85 207.65 54.85 207.65 58.55 196.45 58.55
M 279.7 66.05
L 283.35 66.05 283.35 62.45 279.7 62.45 279.7 66.05
M 283.45 66.2
L 283.45 69.85 287.1 69.85 287.1 66.2 283.45 66.2
M 272.05 66.2
L 268.35 66.2 268.35 69.85 272.05 69.85 272.05 66.2
M 272.1 62.45
L 272.1 66.05 275.8 66.05 275.8 62.45 272.1 62.45
M 272.05 51.05
L 268.35 51.05 268.35 54.75 272.05 54.75 272.05 51.05
M 279.7 54.85
L 279.7 58.55 283.35 58.55 283.35 54.85 279.7 54.85
M 283.45 51.05
L 283.45 54.75 287.1 54.75 287.1 51.05 283.45 51.05
M 275.8 58.55
L 275.8 54.85 272.1 54.85 272.1 58.55 275.8 58.55
M 279.6 58.6
L 275.85 58.6 275.85 62.3 279.6 62.3 279.6 58.6
M 241.75 51.05
L 238.1 51.05 238.1 69.85 241.75 69.85 241.75 51.05
M 324.85 69.85
L 324.85 66.2 309.85 66.2 309.85 62.3 321.1 62.3 321.1 58.6 309.85 58.6 309.85 54.75 324.85 54.75 324.85 51.05 306.1 51.05 306.1 69.85 324.85 69.85
M 343.85 51.05
L 343.85 69.85 362.7 69.85 362.7 66.2 347.6 66.2 347.6 51.05 343.85 51.05
M 438.35 51.05
L 419.6 51.05 419.6 54.75 427.1 54.75 427.1 69.85 430.85 69.85 430.85 54.75 438.35 54.75 438.35 51.05
M 385.45 69.85
L 385.45 66.05 396.85 66.05 396.85 69.85 400.6 69.85 400.6 51.05 381.8 51.05 381.8 69.85 385.45 69.85
M 385.6 54.85
L 396.8 54.85 396.8 62.3 385.6 62.3 385.6 54.85
M 468.6 51.05
L 464.95 51.05 464.95 69.85 468.6 69.85 468.6 51.05
M 532.9 51.05
L 532.9 69.85 536.6 69.85 536.6 54.75 548.05 54.75 548.05 69.85 551.75 69.85 551.75 51.05 532.9 51.05
M 513.9 69.85
L 513.9 51.05 495.1 51.05 495.1 69.85 513.9 69.85
M 510.1 54.85
L 510.1 66.05 498.95 66.05 498.95 54.85 510.1 54.85 Z"/>
</g>
</defs>

<g transform="matrix( 1, 0, 0, 1, 0,0) ">
<use xlink:href="#Layer3_0_FILL"/>
</g>

<g transform="matrix( 1, 0, 0, 1, 0,0) ">
<use xlink:href="#Layer2_0_FILL"/>
</g>

<g transform="matrix( 1.123870849609375, 0, 0, 1.123382568359375, 162.75,0) ">
<g transform="matrix( 1, 0, 0, 1, 0,0) ">
<use filter="url(#Filter_1)" xlink:href="#bits_0_Layer0_0_FILL"/>
</g>
</g>

<g transform="matrix( 1.09698486328125, 0, 0, 1.09637451171875, -27.05,-6.3) ">
<use xlink:href="#Layer1_1_FILL"/>
</g>
</svg>
