<svg xmlns:xlink="http://www.w3.org/1999/xlink" xmlns="http://www.w3.org/2000/svg" version="1.1"
     preserveAspectRatio="none" x="0px" y="0px" width="32px" height="32px" viewBox="0 0 32 32">
    <defs>
        <g id="Layer0_0_FILL">
            <path fill="#000000" stroke="none" d="
M 30 9
L 28 9 28 7 4 7 4 9 2 9 2 23 4 23 4 25 28 25 28 23 30 23 30 9
M 14 11
L 16 11 16 13 18 13 18 15 20 15 20 17 18 17 18 19 16 19 16 21 14 21 14 11 Z"/>
        </g>
    </defs>

    <g transform="matrix( 1, 0, 0, 1, 0,0) ">
        <use xlink:href="#Layer0_0_FILL"/>
    </g>
</svg>
