
<svg xmlns="http://www.w3.org/2000/svg" version="1.1" xmlns:xlink="http://www.w3.org/1999/xlink" preserveAspectRatio="none" x="0px" y="0px" width="200px" height="40px" viewBox="0 0 200 40">
<defs>
<linearGradient id="Gradient_1" gradientUnits="userSpaceOnUse" x1="-337.6500000000001" y1="2991.6000000000004" x2="4232.15" y2="-786.5000000000002" spreadMethod="pad">
<stop  offset="0%" stop-color="#FFFFFF"/>

<stop  offset="100%" stop-color="#DDDDDD"/>
</linearGradient>

<linearGradient id="Gradient_2" gradientUnits="userSpaceOnUse" x1="264.1" y1="472.65" x2="264.1" y2="52.74999999999997" spreadMethod="pad">
<stop  offset="30.980392156862745%" stop-color="#FFFFFF"/>

<stop  offset="100%" stop-color="#BEBEBE"/>
</linearGradient>

<filter id="Filter_1" x="-20%" y="-20%" width="140%" height="140%" color-interpolation-filters="sRGB">
<feColorMatrix in="SourceGraphic" type="matrix" values="1 0 0 0 0 0 1 0 0 0 0 0 1 0 0 0 0 0 0.03 0" result="result1"/>
</filter>

<filter id="Filter_2" x="-20%" y="-20%" width="140%" height="140%" color-interpolation-filters="sRGB">
<feColorMatrix in="SourceGraphic" type="matrix" values="1 0 0 0 0 0 1 0 0 0 0 0 1 0 0 0 0 0 0.5 0" result="result1"/>
</filter>

<filter id="Filter_3" x="-20%" y="-20%" width="140%" height="140%" color-interpolation-filters="sRGB">
<feColorMatrix in="SourceGraphic" type="matrix" values="1 0 0 0 0 0 1 0 0 0 0 0 1 0 0 0 0 0 0.7 0" result="result1"/>
</filter>

<filter id="Filter_4" x="-20%" y="-20%" width="140%" height="140%" color-interpolation-filters="sRGB">
<feColorMatrix in="SourceGraphic" type="matrix" values="1 0 0 0 0 0 1 0 0 0 0 0 1 0 0 0 0 0 0.2 0" result="result1"/>
</filter>

<g id="bg_0_Layer0_0_FILL">
<path fill="url(#Gradient_1)" stroke="none" d="
M 3840 2160
L 3840 0 0 0 0 2160 3840 2160 Z"/>
</g>

<g id="AGRF_Style_Background_svg_svg1_rect96_6_0_Layer0_0_FILL">
<path fill="#636363" fill-opacity="0.9921568627450981" stroke="none" d="
M 5243.8 1770.65
L 5243.8 1755.55 4650 1755.55 4650 490.3 4634.9 490.3 4634.9 1755.55 4159.85 1755.55 4159.85 0 4144.8 0 4144.8 980.65 4144.5 980.65 4144.5 1755.55 3669.75 1755.55 3669.75 0 3654.7 0 3654.7 490.35 3654.4 490.35 3654.4 1755.55 3179.35 1755.55 3179.35 490.35 3164.3 490.35 3164.3 1755.55 230.25 1755.55 230.25 1770.65 3164.3 1770.65 3164.3 2245.7 2570.75 2245.7 2570.75 2245.85 1034.35 2245.85 1034.35 2245.9 185.45 2245.9 185.45 2261 3164.3 2261 3164.3 2735.95 3060.9 2735.95 3060.9 2736.05 185.45 2736.05 185.45 2751.1 989.55 2751.1 989.55 2751.25 3164.3 2751.25 3164.3 3226.3 0 3226.3 0 3241.4 3164.3 3241.4 3164.3 4564.1 3179.35 4564.1 3179.35 3241.35 3654.4 3241.35 3654.4 4325.25 3669.45 4325.25 3669.45 3834.95 3669.75 3834.95 3669.75 3241.35 4144.5 3241.35 4144.5 4325.25 4159.85 4325.25 4159.85 3241.35 4634.9 3241.35 4634.9 4325.25 4650 4325.25 4650 3241.4 5733.9 3241.4 5733.9 3226.3 4650 3226.3 4650 2751.25 5733.9 2751.25 5733.9 2735.95 4650 2735.95 4650 2261 5243.8 2261 5243.8 2260.9 5733.9 2260.9 5733.9 2245.85 5243.8 2245.85 5243.8 2245.7 4650 2245.7 4650 1770.65 5243.8 1770.65
M 3669.75 2245.7
L 3669.75 1770.65 4144.5 1770.65 4144.5 2245.7 3669.75 2245.7
M 3654.4 1770.65
L 3654.4 2245.7 3179.35 2245.7 3179.35 1770.65 3654.4 1770.65
M 3179.35 2751.25
L 3654.4 2751.25 3654.4 3226.3 3179.35 3226.3 3179.35 2751.25
M 3669.75 2735.95
L 3669.75 2261 4144.5 2261 4144.5 2735.95 3669.75 2735.95
M 3179.35 2735.95
L 3179.35 2261 3654.4 2261 3654.4 2735.95 3179.35 2735.95
M 4634.9 1770.65
L 4634.9 2245.7 4159.85 2245.7 4159.85 1770.65 4634.9 1770.65
M 4159.85 2751.25
L 4634.9 2751.25 4634.9 3226.3 4159.85 3226.3 4159.85 2751.25
M 4159.85 2735.95
L 4159.85 2261 4634.9 2261 4634.9 2735.95 4159.85 2735.95
M 3669.75 2751.25
L 4144.5 2751.25 4144.5 3226.3 3669.75 3226.3 3669.75 2751.25 Z"/>
</g>

<g id="AGRF_Style_Background_svg_svg1_use24_0_Layer0_0_FILL">
<path fill="#636363" fill-opacity="0.9921568627450981" stroke="none" d="
M 4391.45 119.9
L 4359.35 0 0 1168.1 32.15 1288 4391.45 119.9 Z"/>
</g>

<g id="AGRF_Style_Background_svg_svg1_rect24_0_0_Layer0_0_FILL">
<path fill="#89BFC9" fill-opacity="0.9921568627450981" stroke="none" d="
M 4403.05 163.2
L 4359.3 0 0 1168.1 43.7 1331.3 4403.05 163.2 Z"/>
</g>

<g id="AGRF_Style_Background_svg_svg1_rect24_0_Layer0_0_FILL">
<path fill="#7240FD" fill-opacity="0.9921568627450981" stroke="none" d="
M 4403.05 163.15
L 4359.3 0 0 1168.1 43.7 1331.25 4403.05 163.15 Z"/>
</g>

<g id="Layer2_1_MEMBER_0_MEMBER_0_FILL">
<path fill="#A79EFD" stroke="none" d="
M 5.85 10.2
L 5.85 8.55 13.9 8.55 0 19.4 9.35 19.4 17.85 13.25 17.85 2.35 0.8 2.35 0.8 10.2 5.85 10.2 Z"/>
</g>

<g id="Layer2_1_MEMBER_0_MEMBER_1_FILL">
<path fill="#A79EFD" stroke="none" d="
M 32.6 2.35
L 27.35 7.95 19.65 8.55 19.65 14.8 25.45 14.35 25.45 19.4 30.85 19.4 30.85 11.25 40.25 2.35 32.6 2.35 Z"/>
</g>

<g id="Layer2_1_MEMBER_0_MEMBER_2_FILL">
<path fill="#A79EFD" stroke="none" d="
M 52.35 2.5
L 52.3 2.45 42 2.45 42 8.1 51.4 8.1 38.9 19.4 48.35 19.4 56.3 12.15 56.3 7.05 55.85 7.1
Q 54.4 7.1 53.35 5.9 52.3 4.7 52.3 3
L 52.35 2.5 Z"/>
</g>

<g id="Layer2_1_MEMBER_0_MEMBER_3_FILL">
<path fill="#A79EFD" stroke="none" d="
M 55.85 0
Q 54.75 0 54 0.9 53.25 1.75 53.25 3 53.25 4.25 54 5.15 54.75 6 55.85 6 56.95 6 57.7 5.15 58.45 4.25 58.45 3 58.45 1.75 57.7 0.9 56.95 0 55.85 0 Z"/>
</g>

<g id="Layer2_1_MEMBER_0_MEMBER_4_FILL">
<path fill="#A79EFD" stroke="none" d="
M 61.65 2.4
L 61.65 9.6 66.1 9.6 66.1 8.5 74.2 8.5 73.3 10.6 78.65 10.65 82.25 2.4 61.65 2.4
M 74.2 13.7
L 71.5 9.6 58.55 19.4 67.5 19.4 74.2 13.7 Z"/>
</g>

<g id="Layer2_1_MEMBER_0_MEMBER_5_FILL">
<path fill="#A79EFD" stroke="none" d="
M 101.95 11.3
L 101.95 2.4 95.7 2.4 95.7 0.8 90.35 0.8 90.35 2.4 84 2.4 84 9.75 89.4 9.75 89.4 7.7 96.55 7.7 96.55 9.65 83.15 19.35 93.45 19.45 101.95 11.3 Z"/>
</g>

<g id="Layer2_1_MEMBER_0_MEMBER_6_FILL">
<path fill="#A79EFD" stroke="none" d="
M 112.1 2.95
L 106.2 2.95 101.9 19.45 107.75 19.45 109.6 12.2 118.1 17.35 119.95 11.7 111.1 6.55 112.1 2.95 Z"/>
</g>

<g id="agrf_text_0_Layer0_0_MEMBER_0_FILL">
<path fill="#7240FD" stroke="none" d="
M 118.85 9.5
Q 110.85 0 97.7 0
L 29.2 0
Q 16.3 0 8.05 9.5 0 18.9 0 32.05
L 0 103.75 24.15 103.75 24.15 32.05
Q 24.15 24.2 29.2 24.2
L 97.7 24.2
Q 102.95 24.2 102.95 32.05
L 102.95 46.55 39.25 46.55 39.25 70.75 102.95 70.75 102.95 103.75 127.1 103.75 127.1 32.05
Q 127.1 18.95 118.85 9.5
M 251.25 24.2
L 251.25 0 171.05 0
Q 156.9 0 147.05 9.5 137.2 18.75 137.2 32.85
L 137.2 70.95
Q 137.2 85.05 147.05 94.5 156.9 103.75 171.05 103.75
L 251.25 103.75 251.25 39.7 194.2 39.7 194.2 63.9 227.05 63.9 227.05 79.6 171.05 79.6
Q 161.35 79.6 161.35 70.95
L 161.35 32.85
Q 161.35 24.2 171.05 24.2
L 251.25 24.2
M 391.3 34.85
Q 391.3 20.75 383.8 10.9 375.75 0 361.85 0
L 261.3 0 261.3 103.75 285.5 103.75 285.5 24.2 360.45 24.2
Q 367.1 24.2 367.1 34.85 367.1 45.55 360.45 45.55
L 298.2 45.55 349.95 103.75 383 103.75 352.6 69.7 361.85 69.7
Q 375.8 69.7 383.8 58.85 391.3 48.95 391.3 34.85
M 511.95 24.2
L 511.95 0 401.35 0 401.35 103.75 425.75 103.75 425.75 63.9 506.55 63.9 506.55 39.7 425.75 39.7 425.75 24.2 511.95 24.2 Z"/>
</g>

<g id="agrf_logo_0_Layer0_0_MEMBER_0_MEMBER_0_FILL">
<path fill="url(#Gradient_2)" stroke="none" d="
M 480.55 161.15
Q 462.7 119 430.2 86.45 397.7 53.95 355.55 36.1 311.9 17.65 264.1 17.65 216.3 17.65 172.65 36.1 130.5 53.95 98 86.45 65.5 119 47.65 161.15 29.2 204.8 29.2 252.6 29.2 300.4 47.65 344 65.5 386.15 98 418.7 130.5 451.2 172.65 469.05 216.3 487.5 264.1 487.5 311.9 487.5 355.55 469.05 397.7 451.2 430.2 418.7 462.7 386.15 480.55 344 499 300.4 499 252.6 499 204.8 480.55 161.15 Z"/>
</g>

<g id="agrf_logo_0_Layer0_0_MEMBER_0_MEMBER_1_FILL">
<path fill="#7240FD" stroke="none" d="
M 233.55 395.3
Q 221.3 394.6 220.85 395.95 220.4 397.3 230.75 403.95 241.55 410.85 241.9 411.95 242.25 413.05 237.6 424.95 233.1 436.4 234.25 437.25 235.4 438.1 244.95 430.3 254.85 422.15 255.95 422.15 257.1 422.15 267 430.3 276.55 438.1 277.7 437.25 278.85 436.4 274.35 424.95 269.7 413.05 270.05 411.95 270.4 410.85 281.2 403.95 291.55 397.3 291.1 395.95 290.65 394.6 278.4 395.3 265.6 396.1 264.65 395.4 263.7 394.7 260.5 382.3 257.4 370.4 256 370.4
L 255.95 370.4
Q 254.55 370.4 251.45 382.3 248.25 394.7 247.3 395.4 246.35 396.1 233.55 395.3 Z"/>
</g>

<g id="agrf_logo_0_Layer0_0_MEMBER_0_MEMBER_2_FILL">
<path fill="#7240FD" stroke="none" d="
M 437 75
Q 401.55 39.55 355.6 20.1 308.05 0 255.95 0 203.9 0 156.35 20.15 110.4 39.6 74.95 75 39.55 110.45 20.1 156.4 0 203.95 0 256 0 308.1 20.1 355.65 39.55 401.6 74.95 437.05 110.4 472.45 156.35 491.9 203.9 512 255.95 512 308.05 512 355.6 491.9 401.55 472.45 437 437.05 472.4 401.6 491.85 355.65 512 308.1 512 256.05
L 512 256
Q 512 203.9 491.85 156.35 472.4 110.4 437 75
M 408.65 103.4
Q 438.5 133.25 454.9 172 471.85 212.1 471.85 256
L 471.85 256.05
Q 471.85 299.95 454.9 340.05 438.5 378.8 408.65 408.7 378.75 438.55 340 454.95 299.9 471.9 256 471.9 212.05 471.9 171.95 454.95 133.2 438.55 103.35 408.7 73.45 378.8 57.05 340.05 40.1 299.95 40.1 256.05 40.1 212.1 57.05 172 73.45 133.25 103.35 103.4 133.2 73.5 171.95 57.1 212.05 40.15 255.95 40.15
L 256 40.15
Q 299.9 40.15 340 57.1 378.75 73.5 408.65 103.4 Z"/>
</g>

<g id="agrf_logo_0_Layer0_0_MEMBER_0_MEMBER_3_MEMBER_0_FILL">
<path fill="#7240FD" stroke="none" d="
M 362 387.05
Q 366.3 377.2 372.9 358.9
L 349.95 367.85
Q 341.85 388.9 328.55 408.65 316.75 426.15 299.55 444.4 329.15 439.6 347.85 413 355.3 402.45 362 387.05 Z"/>
</g>

<g id="agrf_logo_0_Layer0_0_MEMBER_0_MEMBER_3_MEMBER_1_FILL">
<path fill="#7240FD" stroke="none" d="
M 387.25 348.3
Q 380.55 372.25 372.05 388.35 368.65 394.7 362.5 404.7 358.9 410.55 349.9 425.05 371.05 415.45 384.3 395.6 396.7 377.05 410.6 336.25
L 387.25 348.3 Z"/>
</g>

<g id="agrf_logo_0_Layer0_0_MEMBER_0_MEMBER_3_MEMBER_2_FILL">
<path fill="#7240FD" stroke="none" d="
M 441.55 311.25
L 423 323.3
Q 413.15 352.3 408.55 363.25 402.15 378.4 391.05 397.1 407.65 387.4 422.45 360.65 435.65 336.8 441.55 311.25 Z"/>
</g>

<g id="agrf_logo_0_Layer0_0_MEMBER_0_MEMBER_4_MEMBER_0_MEMBER_0_FILL">
<path fill="#7240FD" stroke="none" d="
M 139.05 358.9
Q 145.65 377.2 149.95 387.05 156.65 402.45 164.1 413 182.8 439.6 212.4 444.4 195.2 426.15 183.4 408.65 170.1 388.9 162 367.85
L 139.05 358.9 Z"/>
</g>

<g id="agrf_logo_0_Layer0_0_MEMBER_0_MEMBER_4_MEMBER_1_MEMBER_0_FILL">
<path fill="#7240FD" stroke="none" d="
M 139.9 388.35
Q 131.4 372.25 124.7 348.3
L 101.35 336.25
Q 115.25 377.05 127.65 395.6 140.9 415.45 162.05 425.05 153.1 410.55 149.45 404.7 143.3 394.75 139.9 388.35 Z"/>
</g>

<g id="agrf_logo_0_Layer0_0_MEMBER_0_MEMBER_4_MEMBER_2_MEMBER_0_FILL">
<path fill="#7240FD" stroke="none" d="
M 103.45 363.25
Q 98.8 352.3 88.95 323.3
L 70.4 311.25
Q 76.3 336.8 89.5 360.65 104.3 387.4 120.9 397.1 109.8 378.4 103.45 363.25 Z"/>
</g>

<g id="agrf_logo_0_Layer0_0_MEMBER_0_MEMBER_5_MEMBER_0_FILL">
<path fill="#7240FD" stroke="none" d="
M 103.8 176.95
Q 108.3 167.35 114.35 157.9
L 123.65 123.15
Q 102.6 145.45 90 173.3
L 103.8 176.95 Z"/>
</g>

<g id="agrf_logo_0_Layer0_0_MEMBER_0_MEMBER_5_MEMBER_1_FILL">
<path fill="#7240FD" stroke="none" d="
M 131.9 134.9
Q 145.3 120.3 161.75 109.1
L 167.05 89.4
Q 151.95 97.8 138.9 108.8
L 131.9 134.9 Z"/>
</g>

<g id="agrf_logo_0_Layer0_0_MEMBER_0_MEMBER_5_MEMBER_2_FILL">
<path fill="#7240FD" stroke="none" d="
M 203.7 88.45
L 207.95 72.55
Q 193.95 76.35 180.25 82.6
L 175.4 100.8
Q 189.35 93.15 203.7 88.45 Z"/>
</g>

<g id="agrf_logo_0_Layer0_0_MEMBER_0_MEMBER_6_MEMBER_0_FILL">
<path fill="#7240FD" stroke="none" d="
M 388.25 123
L 397.55 157.6
Q 403.85 167.5 408.2 176.95
L 421.95 173.25
Q 409.3 145.3 388.25 123 Z"/>
</g>

<g id="agrf_logo_0_Layer0_0_MEMBER_0_MEMBER_6_MEMBER_1_FILL">
<path fill="#7240FD" stroke="none" d="
M 380 134.65
L 373.05 108.65
Q 360.15 97.85 344.85 89.25
L 350.15 108.85
Q 366.7 120.1 380 134.65 Z"/>
</g>

<g id="agrf_logo_0_Layer0_0_MEMBER_0_MEMBER_6_MEMBER_2_FILL">
<path fill="#7240FD" stroke="none" d="
M 336.5 100.5
L 331.65 82.45
Q 318.15 76.25 303.7 72.3
L 308.05 88.15
Q 322.75 92.95 336.5 100.5 Z"/>
</g>

<g id="agrf_logo_0_Layer0_0_MEMBER_0_MEMBER_7_FILL">
<path fill="#7240FD" stroke="none" d="
M 324.85 340.2
L 324.85 276.1 294.7 248.9
Q 285.7 211.25 282.05 158.65 280.3 129.9 279.35 115.55 277.7 90.1 275.6 72.1
L 255.6 61.9 235.9 72.35
Q 233.75 90.65 232.2 116.25 231.3 130.8 229.7 159.9 226.3 213.2 217.6 249.95
L 187.1 277.5 187.1 341.65 227.7 362.9 228.15 346.2
Q 240.55 351.4 256.9 351.45 273.3 351.45 283.95 346.2
L 283.95 361.65 324.85 340.2 Z"/>
</g>

<g id="corner_0_Layer0_0_FILL">
<path fill="#636363" stroke="none" d="
M 0 7.5
L 7.5 7.5 7.5 5.15 2.25 5.15 2.25 0 0 0 0 7.5 Z"/>
</g>
</defs>

<g transform="matrix( 0.0531463623046875, 0, 0, 0.0531463623046875, -70.45,-103.95) ">
<g transform="matrix( 1, 0, 0, 1, 1318.6,1195.4) ">
<use xlink:href="#bg_0_Layer0_0_FILL"/>
</g>

<g transform="matrix( 1, 0, 0, 1, 0,74.1) ">
<g transform="matrix( 1, 0, 0, 1, 0,0) ">
<use filter="url(#Filter_1)" xlink:href="#AGRF_Style_Background_svg_svg1_rect96_6_0_Layer0_0_FILL"/>
</g>
</g>

<g transform="matrix( 0.8276824951171875, 0, 0, 0.8276824951171875, 2738.5,1905.55) ">
<g transform="matrix( 1, 0, 0, 1, 0,0) ">
<use filter="url(#Filter_2)" xlink:href="#AGRF_Style_Background_svg_svg1_use24_0_Layer0_0_FILL"/>
</g>
</g>

<g transform="matrix( 0.8276824951171875, 0, 0, 0.8276824951171875, 2649.85,1823.75) ">
<g transform="matrix( 1, 0, 0, 1, 0,0) ">
<use filter="url(#Filter_3)" xlink:href="#AGRF_Style_Background_svg_svg1_rect24_0_0_Layer0_0_FILL"/>
</g>
</g>

<g transform="matrix( 0.8276824951171875, 0, 0, 0.8276824951171875, 2785.7,2033.7) ">
<g transform="matrix( 1, 0, 0, 1, 0,0) ">
<use filter="url(#Filter_4)" xlink:href="#AGRF_Style_Background_svg_svg1_rect24_0_Layer0_0_FILL"/>
</g>
</g>
</g>

<g transform="matrix( 0.328125, -0.08563232421875, 0.08599853515625, 0.326751708984375, 148.25,14.8) ">
<use xlink:href="#Layer2_1_MEMBER_0_MEMBER_0_FILL"/>
</g>

<g transform="matrix( 0.328125, -0.08563232421875, 0.08599853515625, 0.326751708984375, 148.25,14.8) ">
<use xlink:href="#Layer2_1_MEMBER_0_MEMBER_1_FILL"/>
</g>

<g transform="matrix( 0.328125, -0.08563232421875, 0.08599853515625, 0.326751708984375, 148.25,14.8) ">
<use xlink:href="#Layer2_1_MEMBER_0_MEMBER_2_FILL"/>
</g>

<g transform="matrix( 0.328125, -0.08563232421875, 0.08599853515625, 0.326751708984375, 148.25,14.8) ">
<use xlink:href="#Layer2_1_MEMBER_0_MEMBER_3_FILL"/>
</g>

<g transform="matrix( 0.328125, -0.08563232421875, 0.08599853515625, 0.326751708984375, 148.25,14.8) ">
<use xlink:href="#Layer2_1_MEMBER_0_MEMBER_4_FILL"/>
</g>

<g transform="matrix( 0.328125, -0.08563232421875, 0.08599853515625, 0.326751708984375, 148.25,14.8) ">
<use xlink:href="#Layer2_1_MEMBER_0_MEMBER_5_FILL"/>
</g>

<g transform="matrix( 0.328125, -0.08563232421875, 0.08599853515625, 0.326751708984375, 148.25,14.8) ">
<use xlink:href="#Layer2_1_MEMBER_0_MEMBER_6_FILL"/>
</g>

<g transform="matrix( 1, 0, 0, 1, 44.05,12.35) ">
<g transform="matrix( 0.1499176025390625, 0, 0, 0.1499176025390625, 0,0) ">
<use xlink:href="#agrf_text_0_Layer0_0_MEMBER_0_FILL"/>
</g>
</g>

<g transform="matrix( 1, 0, 0, 1, 7.75,5.1) ">
<g transform="matrix( 0.0585479736328125, 0, 0, -0.058441162109375, 0,28.85) ">
<use xlink:href="#agrf_logo_0_Layer0_0_MEMBER_0_MEMBER_0_FILL"/>
</g>

<g transform="matrix( 0.0585479736328125, 0, 0, 0.058441162109375, 0,-0.05) ">
<use xlink:href="#agrf_logo_0_Layer0_0_MEMBER_0_MEMBER_1_FILL"/>
</g>

<g transform="matrix( 0.0585479736328125, 0, 0, 0.058441162109375, 0,-0.05) ">
<use xlink:href="#agrf_logo_0_Layer0_0_MEMBER_0_MEMBER_2_FILL"/>
</g>

<g transform="matrix( 0.0585174560546875, 0, 0, 0.05841064453125, 0,-0.05) ">
<use xlink:href="#agrf_logo_0_Layer0_0_MEMBER_0_MEMBER_3_MEMBER_0_FILL"/>
</g>

<g transform="matrix( 0.0585174560546875, 0, 0, 0.05841064453125, 0,-0.05) ">
<use xlink:href="#agrf_logo_0_Layer0_0_MEMBER_0_MEMBER_3_MEMBER_1_FILL"/>
</g>

<g transform="matrix( 0.0585174560546875, 0, 0, 0.05841064453125, 0,-0.05) ">
<use xlink:href="#agrf_logo_0_Layer0_0_MEMBER_0_MEMBER_3_MEMBER_2_FILL"/>
</g>

<g transform="matrix( 0.0584869384765625, 0, 0, 0.058380126953125, 0,-0.05) ">
<use xlink:href="#agrf_logo_0_Layer0_0_MEMBER_0_MEMBER_4_MEMBER_0_MEMBER_0_FILL"/>
</g>

<g transform="matrix( 0.0584869384765625, 0, 0, 0.058380126953125, 0,-0.05) ">
<use xlink:href="#agrf_logo_0_Layer0_0_MEMBER_0_MEMBER_4_MEMBER_1_MEMBER_0_FILL"/>
</g>

<g transform="matrix( 0.0584869384765625, 0, 0, 0.058380126953125, 0,-0.05) ">
<use xlink:href="#agrf_logo_0_Layer0_0_MEMBER_0_MEMBER_4_MEMBER_2_MEMBER_0_FILL"/>
</g>

<g transform="matrix( 0.0585174560546875, 0, 0, 0.05841064453125, 0,-0.05) ">
<use xlink:href="#agrf_logo_0_Layer0_0_MEMBER_0_MEMBER_5_MEMBER_0_FILL"/>
</g>

<g transform="matrix( 0.0585174560546875, 0, 0, 0.05841064453125, 0,-0.05) ">
<use xlink:href="#agrf_logo_0_Layer0_0_MEMBER_0_MEMBER_5_MEMBER_1_FILL"/>
</g>

<g transform="matrix( 0.0585174560546875, 0, 0, 0.05841064453125, 0,-0.05) ">
<use xlink:href="#agrf_logo_0_Layer0_0_MEMBER_0_MEMBER_5_MEMBER_2_FILL"/>
</g>

<g transform="matrix( 0.0585174560546875, 0, 0, 0.05841064453125, 0,-0.05) ">
<use xlink:href="#agrf_logo_0_Layer0_0_MEMBER_0_MEMBER_6_MEMBER_0_FILL"/>
</g>

<g transform="matrix( 0.0585174560546875, 0, 0, 0.05841064453125, 0,-0.05) ">
<use xlink:href="#agrf_logo_0_Layer0_0_MEMBER_0_MEMBER_6_MEMBER_1_FILL"/>
</g>

<g transform="matrix( 0.0585174560546875, 0, 0, 0.05841064453125, 0,-0.05) ">
<use xlink:href="#agrf_logo_0_Layer0_0_MEMBER_0_MEMBER_6_MEMBER_2_FILL"/>
</g>

<g transform="matrix( 0.0585479736328125, 0, 0, 0.058441162109375, 0,-0.05) ">
<use xlink:href="#agrf_logo_0_Layer0_0_MEMBER_0_MEMBER_7_FILL"/>
</g>
</g>

<g transform="matrix( 1, 0, 0, 1, 0,0) ">
<g transform="matrix( 1, 0, 0, 1, 0,32.5) ">
<g transform="matrix( 1, 0, 0, 1, 0,0) ">
<use xlink:href="#corner_0_Layer0_0_FILL"/>
</g>
</g>

<g transform="matrix( 1, 0, 0, -1, 0,7.5) ">
<g transform="matrix( 1, 0, 0, 1, 0,0) ">
<use xlink:href="#corner_0_Layer0_0_FILL"/>
</g>
</g>

<g transform="matrix( -1, 0, 0, 1, 200,32.5) ">
<g transform="matrix( 1, 0, 0, 1, 0,0) ">
<use xlink:href="#corner_0_Layer0_0_FILL"/>
</g>
</g>

<g transform="matrix( -1, 0, 0, -1, 200,7.5) ">
<g transform="matrix( 1, 0, 0, 1, 0,0) ">
<use xlink:href="#corner_0_Layer0_0_FILL"/>
</g>
</g>
</g>
</svg>
