<svg xmlns:xlink="http://www.w3.org/1999/xlink" xmlns="http://www.w3.org/2000/svg" version="1.1"
     preserveAspectRatio="none" x="0px" y="0px" width="390px" height="400px" viewBox="0 0 390 400">
    <defs>
        <g id="Layer6_0_FILL">
            <path fill="#FFFFFF" stroke="none" d="
M 0 400
L 390 400 390 0 0 0 0 400 Z"/>
        </g>

        <g id="Layer5_0_FILL">
            <path fill="#FFFFFF" stroke="none" d="
M 140.8 348.75
L 133.5 350.75 136 357.35 143.65 354.95 140.8 348.75
M 142.75 367.85
L 146.75 367.85
Q 148.8 361.55 143.95 357.2
L 137.25 359.6 142.75 367.85
M 85.15 349
L 82.65 354.8 90.4 357.2 92.4 351.25 85.15 349
M 83.55 367.7
L 89.1 359.45 82.35 357.05
Q 77.4 361.4 79.5 367.7
L 83.55 367.7
M 77.75 341.05
L 76.8 344.35
Q 80.75 345.95 85.35 346.8 85.7 346.85 86.1 346.9
L 93.5 347.95
Q 102.7 349.05 112.75 349.15 123.05 349.3 132 348.05 132.2 348 132.45 348
L 139.9 346.75
Q 144.65 345.8 149.35 344.55 150.75 344.7 151.75 343.1
L 151.25 340.85
Q 147.45 337.85 141.3 337.55 132.3 338.5 128 344.35 126.45 343.15 124.85 341.75 120.4 337.95 113.3 338.55 104.1 339.25 97.4 343.15 95.6 342.3 93.65 341.2 84.9 336.1 77.75 341.05
M 136 264
L 134.6 259.6 136 272.75 136 264
M 125.8 269.65
L 125.85 269.7 126.55 269.9 125.8 269.65
M 93.65 293.3
Q 95.45 294.05 96.8 294.15 105.1 294.8 109.75 289.85
L 116.3 294.75
Q 124.5 294.95 127.75 288.85
L 132.75 292.85
Q 137.9 292.5 139.55 288.1
L 138.55 284.55
Q 129.3658203125 286.5857421875 119.6 287.35 105.5025390625 288.348046875 93.1 286.8
L 91.65 291.9
Q 92.6 292.7 93.65 293.3
M 102.5 264.2
L 101.75 268.25 102.6 274.05 102.5 264.2
M 103.25 188.75
L 97 192.35 81.75 234.6 71.2 256.4 70.9 257.25
Q 71.95 259.2 73.35 260.8 75.35 263 78 264.4 78.35 264.55 78.7 264.7
L 78.5 265.1
Q 77.9 266 78.05 267.6 78.25 269.6 79.7 270.05 84.25 271.55 85.5 266.85
L 85.55 266.5
Q 86 266.55 86.5 266.6 90.05 266.85 95.25 266.3
L 94.9 267.9 92.25 284.35
Q 93 284.45 93.75 284.55 115.875 287.097265625 138 282.65 139 282.4 140 282.2
L 138.7 270.4 138.25 264.9
Q 142.1 265 145.1 264.6
L 149.1 269.15
Q 149.6 269.15 150.2 269.05 151.45 268.8 152.2 268.2
L 152.85 266.9 152.9 266.85 153.4 265.8
Q 153.5 264.85 153.25 263.6
L 153.05 262.7
Q 153.15 262.65 153.25 262.65 154.4 262.2 155.45 261.7 158.5 260.25 160.85 258.25
L 146 193.2 138.2 189.75 131.25 201.75 127 199.75 121.3 200.65 125.35 253.6 125.55 255.95 125.6 256.45
Q 129.1 255.3 133.25 255.5
L 134.6 259.6 136 264 136 272.75 128.45 270.45 129.75 274.75 122.25 277.5 120 269.75 118.25 275.25 116 278 111.25 274.4
Q 115.080078125 271.8333984375 115.5 268.65
L 102.75 275 102.6 274.05 101.75 268.25 102.5 264.2 104.2 255.45
Q 107.3 255.45 110.3 256.45 111.55 256.7 112.6 257.3
L 112.65 256.95 112.9 254.85 120.25 201.05
Q 120.121875 201.0060546875 120 200.95
L 116.75 199.75 111.75 199.75 103.25 188.75
M 84.65 268.7
Q 84.55 268.8 84.25 268.85
L 82.25 268.85
Q 79.1 267.75 78.35 267.1 78.461328125 266.8294921875 78.6 266.65 78.6 266.609765625 78.6 266.55 78.6 266.15 78.8 266 79.05 265.95 79.25 265.85 81.75 265.8 83.3 266.4 84.6 266.85 84.6 267.5 84.6 267.6109375 84.6 267.7
L 84.65 267.7
Q 84.85 267.8 84.85 268.15 84.85 268.55 84.65 268.7
M 149 266.6
L 147.25 266.6
Q 146.6 266.45 146.6 265.75 146.6 264.7 148.5 264.35 149.6 264.1 152.75 263.5 152.75 263.65 152.85 263.9 152.85 264.9 151.45 265.55 150.65 265.95 149 266.6
M 116.6 180.5
L 116.45 182.1 116.45 187.05
Q 117.0474609375 189.4857421875 118.65 190.75 118.800390625 190.8490234375 118.95 190.95
L 115 194.75 118.1 196.35
Q 118.3 195.95 118.55 195.65 118.95 195.1 119.45 194.75
L 122.5 193.85
Q 123.45 194.8 123.85 196.35 125.05 195.9 126.6 195.7
L 124.5 192.6 124.2 191.9
Q 126.35 190.65 127 188.55
L 128.5 183.65 128.6 182.8 128.6 180.5
Q 122.10625 183.4625 116.6 180.5
M 151.7 122.9
Q 151.65 122.9 151.6 122.9 150.1 122.75 149.6 123.05 149.3 123.3 149.3 124.05 149.3 124.85 149.4 125 149.55 125.25 150.35 125.25 150.75 125.25 151.05 125.15 151.15 125.1 151.2 125.05 151.45 124.85 151.6 124.55 151.75 124.25 151.75 123.8
L 151.7 122.9
M 91.1 56.55
Q 91.1 56.409765625 91 56.25
L 91 56.25 90.95 56.25
Q 90.4474609375 55.7474609375 88 55.55 82.45 55.25 77.5 55 67.85 55.25 59.4 57.25 52.1 59 52.1 60.05 52.1 60.252734375 52.15 60.4 52.1 60.6162109375 52.1 60.85 52.1 60.90078125 52.1 60.95 49.5302734375 61.435546875 42.15 63.75 35.743359375 65.735546875 34.1 66.5 33.843359375 66.5427734375 33.7 66.65 33.6189453125 66.7505859375 33.6 66.85
L 33.6 66.95
Q 33.60390625 67.30390625 33.65 67.35 33.7 67.4 33.85 67.5
L 34.1 67.55
Q 35.0548828125 68.115625 37.75 68.7 39.9 69.2 43.25 69.85 45.75 70.6 47.95 71.85 48.5126953125 72.154296875 48.9 72.35 46.4310546875 73.0447265625 40.9 74.9 34.01171875 77.2091796875 32.5 78.35 31.8119140625 78.3544921875 32.1 79.1 32.1087890625 79.496875 32.15 79.25 32.25 79.4 32.35 79.5 32.4345703125 79.5845703125 32.7 79.6 32.7884765625 79.6 32.85 79.6 35.807421875 81.518359375 40.9 83.95 43.4751953125 85.47421875 45.1 86.95 45.4775390625 87.2712890625 45.8 87.6 43.7392578125 88.53828125 39.5 91.6 34.2583984375 95.4353515625 33.45 97.75 33.35 98.1455078125 33.35 98.5 33.35 98.5580078125 33.4 98.65 33.35 98.709765625 33.35 98.8
L 33.6 98.9 33.65 98.95
Q 33.7958984375 99.1458984375 34 99.35 34.047265625 99.29296875 34.1 99.25
L 34.1 99.2
Q 35.0767578125 99.790625 37.25 101.1 37.365234375 101.1703125 37.45 101.25 38.1404296875 101.6392578125 38.7 101.95 40.19140625 102.823828125 41.1 103.2 40.4482421875 103.72890625 39.8 104.55 39 105.55 37.75 107.5 36.85 108.65 34.6 111 33.5625 112.096875 33.15 112.65 33.07578125 112.65 33 112.65 32.95 112.8 32.85 112.8
L 32.85 113.15
Q 32.85 113.36796875 32.9 113.5 32.946875 113.6484375 33.05 113.7 33.076171875 113.726171875 33.1 113.75 33.1875 113.8375 33.5 113.85 33.5525390625 113.845703125 39.4 111.85 41.46875 111.1802734375 43.95 111.2 48.476171875 111.30703125 54.35 113.85 54.43125 113.9890625 54.5 114.1
L 54.7 114 55 113.85
Q 54.998828125 113.721484375 55 113.6 55.1 113.435546875 55.1 113.15 55.1 112.898828125 55 112.75 54.9986328125 110.795703125 55.05 109.05 55.1693359375 106.2171875 55.45 104 56.1 98.65 57.85 94.35 58.36484375 93.099609375 59.3 91.2 60.890625 88.0001953125 63.65 82.95 63.7419921875 82.8544921875 63.8 82.75 65.644921875 79.401953125 66.65 77.5 66.93203125 76.953125 67.15 76.5 67.275390625 76.4708984375 67.4 76.4 68.3140625 75.83359375 69.45 74.55 70.4970703125 73.4419921875 71.7 71.8 73.6 69.25 75.85 66 76.702734375 65.2255859375 77.55 64.5 81.7419921875 61.0541015625 86.45 58.7 87.36953125 58.2482421875 88.15 57.85 88.49140625 57.7294921875 88.8 57.6 89.327734375 57.3611328125 89.8 57.15 89.93046875 57.1921875 90.05 57.2 90.2900390625 57.283203125 90.5 57.35
L 91 57.25
Q 91.065625 57.184375 91.1 56.9 91.1 56.7919921875 91.1 56.65 91.1 56.6015625 91.1 56.55
M 171.5 100.25
L 168.25 106 154.65 121.15
Q 156.2259765625 121.439453125 157.85 122.15 158.3 123 158.6 123.9 159.15 125.25 159.5 126.7 159.85 128.15 160.05 129.65 160.7 134.05 159.95 139.3 159.9 139.6 159.85 139.9 158.8 146.1 154.15 146.45 151.9 146.65 148.75 145.4 147.15 142.9 146.15 139.9 144.7 135.35 144.5 129.65 144.5 129.55 144.5 129.4 144.4 126.65 145.3 124.7 145.4 124.55 145.4 124.5
L 145.4 124.45 145.75 124.65
Q 145.85 124.45 146.05 124.25 146.2 124.05 146.4 123.9
L 146.25 123.15
Q 148.7044921875 121.3564453125 151.4 121
L 149 118.75 137.25 81.5 109.75 118.75 108.5 116.25 106.75 96 96 115.25 89.25 121 81.75 123 78.5 107.75 67.75 143.75 63.25 137 57.75 145.75 55.65 139.7 38.85 151.5 56.25 155 55.45 158.95 47 172.95 80.95 164.5 86.65 168.75
Q 91.55 171.85 97.75 174.15 106.6 176.15 116.95 176.45
L 128.6 176.25
Q 131.4 176.05 134.3 175.8 148.25 173.85 159.75 168.05
L 164.9 165.2 196.55 176.2 186.15 162.05 184 156.75 202.35 153.45 198 147.05 189.7 139.75 186.25 134.5 177.75 144.75 171.5 100.25
M 91.25 122.1
Q 94.5 120.7 97.45 120.95 100.4 121.2 103 123.1
L 102.85 123.85
Q 103.05 124 103.2 124.2 103.3 124.3 103.4 124.45 103.5 124.5 103.6 124.6
L 103.9 124.4 103.9 124.45
Q 103.9 124.5 104 124.65 104.15 125 104.3 125.4 104.4 125.6 104.55 125.8 104.5 125.9 104.45 125.95 104.85 127.5 104.8 129.35 104.8 129.5 104.8 129.6 104.6 135.3 103.1 139.85 102.1 142.85 100.5 145.35 97.3 146.6 95 146.4 90.3 146.05 89.2 139.85 89.15 139.55 89.1 139.25 88.35 134 89 129.6 89.2 128.1 89.6 126.65 89.95 125.2 90.5 123.85 90.8 122.95 91.25 122.1
M 96.25 123
Q 95.75 122.7 94.15 122.85
L 94.1 123.75
Q 94.1 124.2 94.25 124.5 94.6 125.2 95.5 125.2 96.3 125.2 96.5 124.95 96.6 124.8 96.6 124 96.6 123.25 96.25 123
M 174.85 55.45
Q 174.057421875 55.75 173 55.75 172.160546875 55.75 171.45 55.65 171.5 55.8337890625 171.5 56 171.5 56.9 170.85 57.65 170.1 58.5 168.85 58.5 168.748828125 58.5 168.6 58.45 170.92421875 60.3396484375 173.2 61.7 174.5482421875 62.530859375 175.65 63.45 176.379296875 64.8001953125 177.65 66.75 181.05 71.95 182.15 75.4 182.75 77.25 184.55 83.95 185.6375 87.10390625 186.85 88.55 187.4646484375 91.84296875 188 95.25 189.75 103.9 192.6 111.5 196.3 112.4 199.55 112.4 203.4 113.05 207.25 113.25 212.65 113.5 218 112.85
L 211 107.1 216.1 102.95
Q 211 102.4 207.25 98.25 206.95 97.95 206.7 97.6
L 217 93.6 207 92.1 214.45 87.45 204.8 80.25 217.5 72.6 210.5 68.85 206.5 68.3
Q 206.4 67.25 205.85 66.9 199.7 63.2 191.7 60.65 183.9205078125 57.208203125 174.85 55.45 Z"/>

            <path fill="#CCCCCC" stroke="none" d="
M 133.5 350.75
L 140.8 348.75 139.9 346.75 132.45 348 133.5 350.75
M 92.4 351.25
L 93.5 347.95 86.1 346.9 85.15 349 92.4 351.25
M 122.75 264.9
L 122.15 264.5 122.25 264.65 126.1 267 122.75 264.9
M 134.6 259.6
L 133.25 255.5 134.05 270.8 132.3 270.9 131.65 270.5
Q 129.426953125 269.1068359375 127.2 267.7
L 126.1 267 122.25 264.65 125.8 269.65 126.55 269.9
Q 126.6814453125 269.9396484375 126.8 269.95 126.9658203125 270.0271484375 127.1 270.05
L 128.45 270.45 136 272.75 134.6 259.6
M 93.75 284.55
L 93.1 286.8
Q 105.5025390625 288.348046875 119.6 287.35 129.3658203125 286.5857421875 138.55 284.55
L 138 282.65
Q 115.875 287.097265625 93.75 284.55
M 104.2 271.7
L 104.2 255.45 102.5 264.2 102.6 274.05 106.35 271.8 104.2 272.45 104.2 271.7
M 116.3 268.25
L 115.5 268.65
Q 115.080078125 271.8333984375 111.25 274.4
L 116 278 118.25 275.25 120 269.75 122.25 277.5 129.75 274.75 128.45 270.45 127.1 270.05
Q 126.9658203125 270.0271484375 126.8 269.95 126.6814453125 269.9396484375 126.55 269.9
L 125.85 269.7 128 272.7 128 274.1 123.3 275.65 120 266.35 119.45 266.2 118.9 266.05
Q 119.65 272.25 116.3 276.55 115.8 276.2 115.25 275.85 114.05 275.1 112.85 274.35 115.198046875 272.4443359375 116.1 269.1 116.21640625 268.683984375 116.3 268.25
M 107 271.6
L 106.35 271.8 102.6 274.05 102.75 275 115.5 268.65
Q 115.626171875 267.79375 115.5 266.9 115.626171875 267.79375 115.5 268.65
L 116.3 268.25
Q 116.56796875 267.03359375 116.65 265.65
L 116.45 265.75 115.75 266.2 115 266.65 113 267.85 107 271.6
M 138.2 189.75
L 131.2 197.05
Q 129.85 198.35 128.75 198.85
L 128.45 198.4 127.65 197.25 122.75 199.55
Q 122.1 200.2 121.3 200.65
L 127 199.75 131.25 201.75 138.2 189.75
M 147.25 266.6
L 149 266.6
Q 150.65 265.95 151.45 265.55 152.85 264.9 152.85 263.9 152.75 263.65 152.75 263.5 149.6 264.1 148.5 264.35 146.6 264.7 146.6 265.75 146.6 266.45 147.25 266.6
M 84.25 268.85
Q 84.55 268.8 84.65 268.7 84.85 268.55 84.85 268.15 84.85 267.8 84.65 267.7
L 84.6 267.7
Q 84.6 267.6109375 84.6 267.5 84.6 266.85 83.3 266.4 81.75 265.8 79.25 265.85 79.05 265.95 78.8 266 78.6 266.15 78.6 266.55 78.6 266.609765625 78.6 266.65 78.461328125 266.8294921875 78.35 267.1 79.1 267.75 82.25 268.85
L 84.25 268.85
M 104.55 188.05
L 103.25 188.75 111.75 199.75 116.75 199.75 120 200.95
Q 118.45234375 200.340234375 117.85 198.95
L 112 197.6 104.55 188.05
M 116.95 176.45
L 116.6 180.5
Q 122.10625 183.4625 128.6 180.5
L 128.6 176.25 116.95 176.45
M 55.45 158.95
L 56.25 155 38.85 151.5 55.45 158.95
M 47 172.95
L 59.25 171.7 86.65 168.75 80.95 164.5 47 172.95
M 197.5 177.5
L 196.55 176.2 164.9 165.2 159.75 168.05 186.7 174.8 197.5 177.5
M 186.15 162.05
L 202.35 153.45 184 156.75 186.15 162.05
M 168.25 106
L 171.5 100.25 177.75 144.75 186.25 134.5 189.7 139.75 188.15 130 179.5 139.6 175.25 108.6 172.75 94.85 154.25 119.5
Q 151.05 116.75 149.4 111.4
L 140.5 85.65 138 76.45 110.75 113.85
Q 110.5 112.9 110.25 111.95 109.95 110.8 109.75 109.6 109.65 109.35 109.65 109.1 108.35 102.75 108.3 95.6 108.5 93.5 108.65 90.4 107 92.9 105.25 95.25 101.8 101.7 97.6 107.85 97.25 108.5 96.9 109.1 96.75 109.35 96.6 109.6 94.2 113.4 92.3 114.65 90.35 115.9 84.9 120.6
L 84.75 120.85
Q 83.5 120.6 83.15 119.4
L 80 102.35
Q 77.45 105.7 75.6 109.1 75.45 109.35 75.35 109.6 73.55 112.95 72.5 116.35 72.4 116.55 72.35 116.8 70.1 124.4 67.6 132.65 67.5 136.2 66.75 139.35
L 64 131.35 57.25 142.1
Q 56.85 140.6 56.55 139.1
L 55.65 139.7 57.75 145.75 63.25 137 67.75 143.75 78.5 107.75 81.75 123 89.25 121 96 115.25 106.75 96 108.5 116.25 109.75 118.75 137.25 81.5 149 118.75 151.4 121
Q 151.5876953125 121.0140625 151.75 121 153.178125 120.876953125 154.65 121.15
L 168.25 106 Z"/>

            <path fill="#333333" stroke="none" d="
M 144.15 354.3
L 143.65 354.95 136 357.35 135.35 356.75
Q 134.6 357.35 134.6 357.95 134.1 367.65 140.35 372.1 143.9 374.5 148.15 375.75 150.65 376.5 152.5 375.85 154.65 369.7 151.8 363.45 149.15 357.55 144.15 354.3
M 146.75 367.85
L 142.75 367.85 137.25 359.6 143.95 357.2
Q 148.8 361.55 146.75 367.85
M 74.4 363.3
Q 71.5 369.55 73.65 375.7 75.55 376.35 78.1 375.6 82.4 374.35 86 371.95 92.3 367.5 91.8 357.8 91.8 357.2 91.05 356.6
L 90.4 357.2 82.65 354.8 82.15 354.1
Q 77.1 357.4 74.4 363.3
M 89.1 359.45
L 83.55 367.7 79.5 367.7
Q 77.4 361.4 82.35 357.05
L 89.1 359.45 Z"/>

            <path fill="#6AD0EA" stroke="none" d="
M 134.05 270.8
L 131.65 270.5 132.3 270.9 134.05 270.8
M 122.15 264.5
L 122.75 264.9 121.85 263.05 122.15 264.5
M 122.15 264.5
L 122.05 264.55 122.25 264.65 122.15 264.5
M 96.8 294.15
Q 95.45 294.05 93.65 293.3 92.6 292.7 91.65 291.9
L 77.75 341.05
Q 84.9 336.1 93.65 341.2 95.6 342.3 97.4 343.15 104.1 339.25 113.3 338.55 120.4 337.95 124.85 341.75 126.45 343.15 128 344.35 132.3 338.5 141.3 337.55 147.45 337.85 151.25 340.85
L 139.55 288.1
Q 137.9 292.5 132.75 292.85
L 127.75 288.85
Q 124.5 294.95 116.3 294.75
L 109.75 289.85
Q 105.1 294.8 96.8 294.15
M 113 267.85
L 115 266.65 115.75 266.2 115.5 265.5 104.2 271.7 104.2 272.45 106.35 271.8 113 267.85
M 116.2 265.15
L 116.1 265.2 116.25 265.45 116.2 265.15
M 116.15 264.8
L 116.2 265.15 116.5 264.95 116.15 264.8
M 116.1 265.2
L 115.5 265.5 115.75 266.2 116.45 265.75 116.25 265.45 116.1 265.2
M 115.75 264.65
L 116.1 265.2 116.2 265.15 116.15 264.8 115.75 264.65
M 121.35 260.7
L 121.35 261.5 121.55 261.65 121.35 260.7
M 106.35 271.8
L 107 271.6 113 267.85 106.35 271.8
M 112.65 256.95
L 112.6 257.3
Q 111.55 256.7 110.3 256.45 107.3 255.45 104.2 255.45
L 104.2 271.7 105.05 256.6 105 255.95 105.05 256.6 106.1 269.1 115.25 263.85 115.75 264.65 116.15 264.8 115.85 262.1 118 263.6 119.75 264.2 121.35 262.35 121.35 261.5 121.35 260.7 121.55 261.65 123.85 263.35 132.1 267.85 132.1 257.35 132.2 256.7 132.35 255.95 132.2 256.7 132.95 258.95 132.75 256.6 132.95 258.95 134.05 270.8 133.25 255.5
Q 129.1 255.3 125.6 256.45
L 125.55 255.95 120.7 258.35 115.85 258.35 112.65 256.95
M 128.8 182.9
L 128.5 183.65 127 188.55
Q 126.35 190.65 124.2 191.9
L 124.6 192.2 129.4 195.95 139.75 187.1 128.8 182.9
M 118.65 190.75
L 118.15 190.95 112 197.6 117.85 198.95
Q 118.45234375 200.340234375 120 200.95 120.121875 201.0060546875 120.25 201.05
L 112.9 254.85 113.35 255.35 115.85 257.3
Q 118.4095703125 255.976953125 120.7 256.9
L 124.3 254.5 125.35 253.6 121.3 200.65
Q 122.1 200.2 122.75 199.55
L 127.65 197.25 128.45 198.4 124.6 192.2 124.2 191.9 124.5 192.6 126.6 195.7
Q 125.05 195.9 123.85 196.35 123.45 194.8 122.5 193.85
L 119.45 194.75
Q 118.95 195.1 118.55 195.65 118.3 195.95 118.1 196.35
L 115 194.75 118.95 190.95
Q 118.800390625 190.8490234375 118.65 190.75
M 116.45 182.1
L 114.75 182.1 103 186.1 112.1 194.3 118.15 190.95 118.65 190.75
Q 117.0474609375 189.4857421875 116.45 187.05
L 116.45 182.1 Z"/>

            <path fill="#6666CC" stroke="none" d="
M 138.25 264.9
L 138.7 270.4 145.1 264.6
Q 142.1 265 138.25 264.9
M 94.9 267.9
L 95.25 266.3
Q 90.05 266.85 86.5 266.6
L 88.5 273.1 94.9 267.9
M 58.6 176.6
Q 58 183.6 57.15 190.35 52.3 229.3 40 260.8
L 59.5 227.6 56.15 267.35 56.25 266.65 63.55 251.95
Q 64.1 249.7 65.5 248.7
L 66.75 267.9 73.35 260.8
Q 71.95 259.2 70.9 257.25
L 71.2 256.4 81.75 234.6 97 192.35 103.25 188.75 104.55 188.05 103 186.1 114.75 182.1 116.45 182.1 116.6 180.5
Q 112.4 180.7 109 180.5 104.25 180.2 100.45 179.25 96.2 178.15 92.55 176.6 89 175.1 85.75 172 81.25 172.65 76.8 173.45 72.8 174.15 68 174.7 63.6 175.2 58.7 175.85
L 58.6 176.6
M 66.65 77.5
L 67.4 76.4
Q 67.275390625 76.4708984375 67.15 76.5 66.93203125 76.953125 66.65 77.5
M 178.1 177.05
Q 174.3869140625 176.252734375 170.35 174.95 166.3064453125 173.655078125 163.9 172.65 161.4986328125 171.68984375 160 172.25 157.3572265625 172.9060546875 153.5 174.75 149.640625 176.598046875 146.35 177.25 143.0638671875 177.91015625 139.45 179.15 135.8927734375 180.3791015625 128.6 180.5
L 128.6 182.8 128.8 182.9 139.75 187.1 138.2 189.75 146 193.2 160.85 258.25
Q 158.5 260.25 155.45 261.7 158.85 265.55 159.5 271.85 159.5 271.75 159.45 271 159.8 270.9 159.75 270.2
L 170.25 248.85 171.75 265.1 180.35 254.65
Q 180.05 255 180.55 255.4 181.6 264.65 186.7 270.1
L 186.7 178.25
Q 181.870703125 177.89140625 178.1 177.05
M 168.6 58.45
Q 168.37421875 58.5 168.1 58.5 166.2 58.5 160.1 56.65 153.75 54.75 152.85 54.65 149.35 54.3 142.45 53.45 135.65 52.6 127.75 51.75
L 117.9 51.75
Q 102.75 53.6 99.4 54.35 98.15 54.65 92.05 56.6 91.550390625 56.75859375 91.1 56.9 91.065625 57.184375 91 57.25
L 90.5 57.35
Q 90.2900390625 57.283203125 90.05 57.2 89.36875 57.4294921875 88.8 57.6 88.49140625 57.7294921875 88.15 57.85 87.226171875 58.5546875 86.1 59.35 78.85 64.5 77.6 64.5
L 77.55 64.5
Q 76.702734375 65.2255859375 75.85 66 73.6 69.25 71.7 71.8 70.4970703125 73.4419921875 69.45 74.55 122.589453125 63.529296875 174.3 63.8
L 179.7 71.15
Q 157.044140625 70.837890625 133.55 72.35 126.0271484375 72.86015625 103.95 76.45 81.9244140625 80.105859375 68.8 82.2 65.7693359375 82.6794921875 63.65 82.95 60.890625 88.0001953125 59.3 91.2 59.2625 91.325 59.2 91.45 59.15 91.55 59.1 91.65 59.05 91.7 59.05 91.75
L 58.9 92.1
Q 56.05 98.15 55.6 106.2 55.2724609375 107.626171875 55.05 109.05 54.9986328125 110.795703125 55 112.75 55.1 112.898828125 55.1 113.15 55.1 113.435546875 55 113.6 54.998828125 113.721484375 55 113.85
L 54.7 114
Q 54.7083984375 115.0015625 54.75 116 53.9 126.55 56.05 134.9 56.15 137.05 56.55 139.1 56.85 140.6 57.25 142.1
L 64 131.35 66.75 139.35
Q 67.5 136.2 67.6 132.65 70.1 124.4 72.35 116.8 72.4 116.55 72.5 116.35 73.55 112.95 75.35 109.6 75.45 109.35 75.6 109.1 77.45 105.7 80 102.35
L 83.15 119.4
Q 83.5 120.6 84.75 120.85
L 84.9 120.6
Q 90.35 115.9 92.3 114.65 94.2 113.4 96.6 109.6 96.75 109.35 96.9 109.1 97.25 108.5 97.6 107.85 101.8 101.7 105.25 95.25 107 92.9 108.65 90.4 108.5 93.5 108.3 95.6 108.35 102.75 109.65 109.1 109.65 109.35 109.75 109.6 109.95 110.8 110.25 111.95 110.5 112.9 110.75 113.85
L 138 76.45 140.5 85.65 149.4 111.4
Q 151.05 116.75 154.25 119.5
L 172.75 94.85 175.25 108.6 179.5 139.6 188.15 130 189.7 139.75
Q 190.8 138.35 191.2 137
L 193.75 115.6
Q 193.1 113.45 192.6 111.5 189.75 103.9 188 95.25 187.4646484375 91.84296875 186.85 88.55 185.6375 87.10390625 184.55 83.95 182.75 77.25 182.15 75.4 181.05 71.95 177.65 66.75 176.379296875 64.8001953125 175.65 63.45 174.5482421875 62.530859375 173.2 61.7 170.92421875 60.3396484375 168.6 58.45 Z"/>

            <path fill="#1FB5DA" stroke="none" d="
M 132.95 258.95
L 132.2 256.7 132.1 257.35 132.1 267.85 123.85 263.35 121.55 261.65 121.85 263.05 122.75 264.9 126.1 267 127.2 267.7
Q 129.426953125 269.1068359375 131.65 270.5
L 134.05 270.8 132.95 258.95
M 119.45 266.2
L 120 266.35 123.3 275.65 128 274.1 128 272.7 125.85 269.7 125.8 269.65 122.25 264.65 122.05 264.55 119.45 266.2
M 115.25 264.6
L 115.5 265.5 116.1 265.2 115.75 264.65 115.25 263.85 106.1 269.1 105.05 256.6 104.2 271.7 115.5 265.5 115.25 264.6
M 116.45 265.75
L 116.65 265.65
Q 116.56796875 267.03359375 116.3 268.25 116.21640625 268.683984375 116.1 269.1 115.198046875 272.4443359375 112.85 274.35 114.05 275.1 115.25 275.85 115.8 276.2 116.3 276.55 119.65 272.25 118.9 266.05
L 119.45 266.2 116.5 264.95 116.2 265.15 116.25 265.45 116.45 265.75
M 117 264.7
L 116.5 264.95 119.45 266.2 122.05 264.55 121.5 264.2 122.05 264.55 122.15 264.5 121.85 263.05 121.55 261.65 121.35 261.5 121.35 262.35 119.75 264.2 118 263.6 115.85 262.1 116.15 264.8 116.5 264.95 117 264.7
M 120.7 256.9
L 120.7 258.35 125.55 255.95 125.35 253.6 124.3 254.5 120.7 256.9
Q 121.1541015625 257.0775390625 121.6 257.35 121.1541015625 257.0775390625 120.7 256.9
M 115.9 257.35
L 115.85 257.3 113.35 255.35 112.9 254.85 112.65 256.95 115.85 258.35 115.9 257.35
M 115.85 257.3
L 115.9 257.35 116.35 257.7 115.9 257.35 115.85 258.35 120.7 258.35 120.7 256.9 120 257.35 120.7 256.9
Q 118.4095703125 255.976953125 115.85 257.3 Z"/>

            <path fill="#27BBE0" stroke="none" d="
M 129.4 195.95
L 124.6 192.2 128.45 198.4 128.75 198.85
Q 129.85 198.35 131.2 197.05
L 138.2 189.75 139.75 187.1 129.4 195.95
M 103 186.1
L 104.55 188.05 112 197.6 118.15 190.95 112.1 194.3 103 186.1 Z"/>

            <path fill="#6666FF" stroke="none" d="
M 158.6 123.9
L 158.4 124.75
Q 158.55 124.75 158.7 125 158.85 125.3 159.05 125.75
L 159.05 126.05 159.1 126.1 159.05 126.25
Q 159.1 126.3 159.15 126.4 159.25 126.55 159.3 126.7
L 158.95 127
Q 158.85 127 158.75 127
L 158.6 127.05 156.6 127.1
Q 156.3 127.05 155.9 127.15 156.65 131.25 155.4 136.6 154.5607421875 140.0212890625 153.6 140.9 153.0994140625 141.4158203125 152.55 141.15 152.43984375 141.0984375 152.3 141.05 150.912109375 140.34140625 150.4 139.55 149.8 138.65 148.8 134.35 147.75 130 148 127.25
L 147.35 127.25 147.3 127.2 145.15 127.15 145 127 145.05 126.7
Q 144.7 126.7 144.75 126.5
L 144.8 126.35 145.05 126.35 145 126
Q 145.4 126.05 145.45 126 145.4 125.9 145.5 125.85
L 145.85 125.85
Q 145.25 125.8 145.25 125.55
L 145.55 125.2 145.7 125.2
Q 145.8 125 146.2 124.55 146.35 124.4 146.5 124.25
L 146.4 123.9
Q 146.2 124.05 146.05 124.25 145.85 124.45 145.75 124.65
L 145.4 124.45 145.4 124.5
Q 145.4 124.55 145.3 124.7 144.4 126.65 144.5 129.4 144.5 129.55 144.5 129.65 144.7 135.35 146.15 139.9 147.15 142.9 148.75 145.4 151.9 146.65 154.15 146.45 158.8 146.1 159.85 139.9 159.9 139.6 159.95 139.3 160.7 134.05 160.05 129.65 159.85 128.15 159.5 126.7 159.15 125.25 158.6 123.9
M 149.75 141.6
Q 153.35 145.34921875 156.4 140.85 153.35 145.34921875 149.75 141.6
M 103.2 124.2
Q 103.05 124 102.85 123.85
L 102.8 124.05 102.85 124.05
Q 103.15 124.2 103.4 124.45 103.3 124.3 103.2 124.2
M 103.9 124.45
L 103.9 124.4 103.6 124.6
Q 103.95 124.9 104.3 125.4 104.15 125 104 124.65 103.9 124.5 103.9 124.45
M 93.25 127.1
Q 92.8 127 92.5 127.05
L 90.5 127
Q 90.45 127 90.4 127
L 90.05 126.95 90.05 126.6
Q 90 126.6 89.95 126.6
L 89.95 126.35 90.05 126.3 90.05 126.2 90 126.05 90.05 126
Q 90.1 125.45 90.4 125.05 90.6 124.75 90.75 124.8
L 90.5 123.85
Q 89.95 125.2 89.6 126.65 89.2 128.1 89 129.6 88.35 134 89.1 139.25 89.15 139.55 89.2 139.85 90.3 146.05 95 146.4 97.3 146.6 100.5 145.35 102.1 142.85 103.1 139.85 104.6 135.3 104.8 129.6 104.8 129.5 104.8 129.35 104.85 127.5 104.45 125.95 104.4 126 104.4 126.05 104.35 126.1 104.3 126.15
L 104.25 126.3 104.5 126.3 104.55 126.45
Q 104.6 126.65 104.25 126.65
L 104.3 126.95 104.15 127.1 101.95 127.15 101.9 127.2 101.25 127.2
Q 101.5 129.95 100.45 134.3 99.4 138.6 98.8 139.5 98.3763671875 140.1546875 97.3 140.75 97.017578125 140.927734375 96.65 141.1 96.0189453125 141.3958984375 95.4 140.75 94.5373046875 139.759375 93.75 136.55 92.45 131.2 93.25 127.1
M 96.75 143.1
Q 93.9328125 143.7587890625 92.65 139.85 93.9328125 143.7587890625 96.75 143.1 99.5671875 142.4412109375 100.85 139.3 99.5671875 142.4412109375 96.75 143.1 Z"/>

            <path fill="#000000" stroke="none" d="
M 157.85 122.15
Q 156.2259765625 121.439453125 154.65 121.15 153.178125 120.876953125 151.75 121 151.5876953125 121.0140625 151.4 121 148.7044921875 121.3564453125 146.25 123.15
L 146.4 123.9 146.5 124.25
Q 146.35 124.4 146.2 124.55 145.8 125 145.7 125.2
L 145.55 125.2 145.25 125.55
Q 145.25 125.8 145.85 125.85
L 145.5 125.85
Q 145.4 125.9 145.45 126 145.4 126.05 145 126
L 145.05 126.35 144.8 126.35 144.75 126.5
Q 144.7 126.7 145.05 126.7
L 145 127 145.15 127.15 147.3 127.2 147.35 127.25 148 127.25
Q 147.75 130 148.8 134.35 149.8 138.65 150.4 139.55 150.912109375 140.34140625 152.3 141.05 152.43984375 141.0984375 152.55 141.15 153.0994140625 141.4158203125 153.6 140.9 154.5607421875 140.0212890625 155.4 136.6 156.65 131.25 155.9 127.15 156.3 127.05 156.6 127.1
L 158.6 127.05 158.75 127
Q 158.85 127 158.95 127
L 159.3 126.7
Q 159.25 126.55 159.15 126.4 159.1 126.3 159.05 126.25
L 159.1 126.1 159.05 126.05 159.05 125.75
Q 158.85 125.3 158.7 125 158.55 124.75 158.4 124.75
L 158.6 123.9
Q 158.3 123 157.85 122.15
M 151.6 122.9
Q 151.65 122.9 151.7 122.9
L 151.75 123.8
Q 151.75 124.25 151.6 124.55 151.45 124.85 151.2 125.05 151.15 125.1 151.05 125.15 150.75 125.25 150.35 125.25 149.55 125.25 149.4 125 149.3 124.85 149.3 124.05 149.3 123.3 149.6 123.05 150.1 122.75 151.6 122.9
M 97.45 120.95
Q 94.5 120.7 91.25 122.1 90.8 122.95 90.5 123.85
L 90.75 124.8
Q 90.6 124.75 90.4 125.05 90.1 125.45 90.05 126
L 90 126.05 90.05 126.2 90.05 126.3 89.95 126.35 89.95 126.6
Q 90 126.6 90.05 126.6
L 90.05 126.95 90.4 127
Q 90.45 127 90.5 127
L 92.5 127.05
Q 92.8 127 93.25 127.1 92.45 131.2 93.75 136.55 94.5373046875 139.759375 95.4 140.75 96.0189453125 141.3958984375 96.65 141.1 97.017578125 140.927734375 97.3 140.75 98.3763671875 140.1546875 98.8 139.5 99.4 138.6 100.45 134.3 101.5 129.95 101.25 127.2
L 101.9 127.2 101.95 127.15 104.15 127.1 104.3 126.95 104.25 126.65
Q 104.6 126.65 104.55 126.45
L 104.5 126.3 104.25 126.3 104.3 126.15
Q 104.35 126.1 104.4 126.05 104.4 126 104.45 125.95 104.5 125.9 104.55 125.8 104.4 125.6 104.3 125.4 103.95 124.9 103.6 124.6 103.5 124.5 103.4 124.45 103.15 124.2 102.85 124.05
L 102.8 124.05 102.85 123.85 103 123.1
Q 100.4 121.2 97.45 120.95
M 94.15 122.85
Q 95.75 122.7 96.25 123 96.6 123.25 96.6 124 96.6 124.8 96.5 124.95 96.3 125.2 95.5 125.2 94.6 125.2 94.25 124.5 94.1 124.2 94.1 123.75
L 94.15 122.85 Z"/>

            <path fill="#3939AE" stroke="none" d="
M 68 174.7
Q 72.8 174.15 76.8 173.45 81.25 172.65 85.75 172 89 175.1 92.55 176.6 96.2 178.15 100.45 179.25 104.25 180.2 109 180.5 112.4 180.7 116.6 180.5
L 116.95 176.45
Q 106.6 176.15 97.75 174.15 91.55 171.85 86.65 168.75
L 59.25 171.7 58.7 175.85
Q 63.6 175.2 68 174.7
M 170.35 174.95
Q 174.3869140625 176.252734375 178.1 177.05 181.870703125 177.89140625 186.7 178.25
L 186.7 174.8 159.75 168.05
Q 148.25 173.85 134.3 175.8 131.4 176.05 128.6 176.25
L 128.6 180.5
Q 135.8927734375 180.3791015625 139.45 179.15 143.0638671875 177.91015625 146.35 177.25 149.640625 176.598046875 153.5 174.75 157.3572265625 172.9060546875 160 172.25 161.4986328125 171.68984375 163.9 172.65 166.3064453125 173.655078125 170.35 174.95 Z"/>

            <path fill="#9393FF" stroke="none" d="
M 179.7 71.15
L 174.3 63.8
Q 122.589453125 63.529296875 69.45 74.55 68.3140625 75.83359375 67.4 76.4
L 66.65 77.5
Q 65.644921875 79.401953125 63.8 82.75 63.7419921875 82.8544921875 63.65 82.95 65.7693359375 82.6794921875 68.8 82.2 81.9244140625 80.105859375 103.95 76.45 126.0271484375 72.86015625 133.55 72.35 157.044140625 70.837890625 179.7 71.15 Z"/>
        </g>

        <g id="Layer4_0_FILL">
            <path fill="#FFFFFF" stroke="none" d="
M 176.85 56.6
Q 169.5625 55.5625 162.85 56.65 164.70859375 57.315625 166.35 58.25 169.45 60.05 172.5 62.3 175.3 64.35 177.2 67.2 179.25 70.15 181.05 73.75 182.65 77 183.75 80.75 184.85 84.65 186.8 88.4 187.3806640625 91.6345703125 188 95.25 188.125390625 95.793359375 188.2 96.35 188.230078125 96.3751953125 188.2 96.4 188.26875 96.57578125 188.3 96.75 189.9990234375 104.5638671875 192.6 111.5 196.3 112.4 199.55 112.4 202.6 112.95 205.65 113.15 211.85 113.6 218 112.85
L 211 107.1 216.1 102.95
Q 210.65 102.35 206.7 97.6
L 217 93.6 207 92.1 214.45 87.45 204.8 80.25 217.5 72.6 210.5 68.85 206.5 68.3 203.25 67.85 206.5 68.3
Q 206.4 67.25 205.85 66.9 205.75 66.85 205.65 66.8 199.55 63.15 191.7 60.65 184.1375 57.6875 176.85 56.6 Z"/>

            <path fill="#535353" stroke="none" d="
M 284.4 336.2
L 287.05 316.9 280.25 317.1 276.7 336.65 279.4 341.85 284.4 336.2
M 312.8 316.75
L 304.6 316.6 305.8 318.85
Q 305.65 319.65 305.7 319.95 307.8 328.45 306.3 338.1
L 305.9 338.5 310.6 343.85 313.05 339.2
Q 313.35 338.35 313.6 337.35 314.25 334.55 314.45 330.4 314.65 324.65 312.8 317.6
L 312.8 316.75
M 274.05 271.85
Q 270.7 271.55 267.8 270.75 266.4 273.5 267.7 274.65 269 275.75 271.45 274.35
L 274.05 271.85
M 324.6 274.1
L 327.1 274.1
Q 328.15 272.8 328.15 270.75 325.2 271.55 321.85 271.85
L 324.6 274.1
M 354.25 132.35
L 354.25 132.3
Q 352.35 124.35 350.15 116.3 347.95 108.3 345.8 100.6 338 103.85 332.3 108.15 326.45 112.55 321.55 117.8 318.2 121.4 315.1 125.55 313.85 127.25 312.65 129 311.55 130.65 310.45 132.3 307.6 136.55 304.8 141.1
L 292.3 141.1
Q 289.8 136.55 286.65 132.3 285 130.1 283.2 127.95 282.15 126.75 281.15 125.55 278.25 122.25 275.45 119.2 274.55 118.2 273.65 117.25 273.1 116.65 272.55 116.1 270.3 113.7 267.7 111.4 264.75 108.7 261.35 106.1 259.25 104.45 257.1 102.9 253.95 100.55 250.7 98.35
L 246.55 106.85
Q 244.85 111.9 243.65 117.25 243.05 119.9 242.6 122.6 242.35 124.05 242.1 125.55 241.8 127.15 241.5 128.8 241.2 130.55 240.85 132.3 240.8 132.65 240.7 133.05 240.05 136.4 239.4 139.8 237.8 148.1 236.35 156.8 235.25 163.3 234.5 170.45 234.3 172.45 234.1 174.55 233.95078125 176.176953125 233.9 177.7 233.86875 181.26875 234.5 184.25 235.1 187.05 236.35 189.35 236.4 189.5 236.45 189.6 236.85 190.35 237.3 191.35 239.25 192.7 241.5 193.75 246.05 195.85 251.8 196.7 254.45 197.1 257.1 197.5 263 198.45 269 199.5 272.15 200.05 275.45 200.5 281.05 201.2 287.05 201.5 290.5 201.65 294.05 201.8
L 294 204.6 293.95 207.4
Q 294.9 211.1 299.55 210.85 300.2 210.6 300.6 210.4
L 301.9 207.45 301.9 205.05 301.95 202.1
Q 304.1 202.2 308.5 202.35 312.85 202.45 315.95 201.95 316.45 201.85 316.9 201.8 319.3 201.45 320.75 201.45 322.4 201.45 328.85 200.75 335.3 200.05 344.25 199.1 353.15 198.1 359.55 194.1 360.7 191.85 361.4 189.35 362.15 186.6 362.4 183.55 363.15 173.6 361.3 165.6 359.4 157.65 357.85 149.3 356.2 140.5 354.25 132.35
M 328.55 156.35
Q 337 156.5 344.05 158.05 343.8 167.6 340.2 173.7 338.8 176.1 336.3 177.35 336.05 177.45 335.8 177.55 333.7 178.25 330.8 178.1 325.15 173.35 324.5 164.1 324.25 159.95 325.4 156.45 326.85 156.35 328.55 156.35
M 254.8 165.7
Q 254.25 163.05 254.2 157.85 255.65 157.65 257.1 157.5 258.45 157.35 259.85 157.2 266.7 156.55 273.5 156.8 272.8 167 269.6 173.6 269.2 174.5 268.8 175.35 267.05 176.7 264.05 176.85 259.55 175.2 257.1 171.45 255.5 169 254.8 165.7 Z"/>

            <path fill="#333333" stroke="none" d="
M 284.9 336.2
L 284.4 336.2 279.4 341.85 276.7 336.65 276.05 336.4
Q 273.35 343.1 273.4 352.6 273.4 353 273.4 353.35
L 272.65 353.85
Q 270.15 354.8 268.3 356.1 261.6 360.65 261.8 369.65 262.1 370.85 263.15 371.35
L 264.9 371.35 272.4 369.6 283.65 363.6 284.9 336.2
M 325.15 373.35
L 326.9 373.35
Q 327.95 372.85 328.25 371.65 328.45 362.65 321.7 358.1 319.85 356.8 317.35 355.85
L 316.6 355.35
Q 316.6 355 316.6 354.6 316.65 344.7 313.1 339.2
L 313.05 339.2 310.6 343.85 305.9 338.5 305.15 338.5 306.35 365.6 317.6 371.6 325.15 373.35 Z"/>

            <path fill="#FFFF66" stroke="none" d="
M 328.55 238.35
Q 326.75 231.45 324.75 225.1 324.4 224.05 324.05 223.05 321.9 216.4 316.9 212.65 316.25 212.15 315.5 211.7 309.85 208.2 303.3 205.6 302.6 205.3 301.9 205.05
L 301.9 207.45 300.6 210.4
Q 300.2 210.6 299.55 210.85 294.9 211.1 293.95 207.4
L 294 204.6
Q 292.85 205.1 291.8 205.6 285.6 208.45 280.35 211.7 274.3 215.5 271.85 223.05 271.5 224.05 271.2 225.1 269.15 231.45 267.4 238.35 265.35 246.25 263.2 253.9 261.3 260.55 260.5 267.85 263.6 269.65 267.8 270.75 270.7 271.55 274.05 271.85 274.7 271.9 275.35 271.95 277 272.05 279.6 272.2 274.45 294.75 272.3 317.3
L 280.25 317.1 287.05 316.9 304.6 316.6 312.8 316.75 320.8 316.85 315.6 272.85
Q 316.3 272.7 316.9 272.55 319.25 272.05 320.55 271.95 321.2 271.9 321.85 271.85 325.2 271.55 328.15 270.75 332.35 269.65 335.7 267.85 334.65 260.55 332.75 253.9 330.6 246.25 328.55 238.35
M 254.2 157.85
Q 254.25 163.05 254.8 165.7 255.5 169 257.1 171.45 259.55 175.2 264.05 176.85 267.05 176.7 268.8 175.35 269.2 174.5 269.6 173.6 272.8 167 273.5 156.8 266.7 156.55 259.85 157.2 258.45 157.35 257.1 157.5 255.65 157.65 254.2 157.85
M 344.05 158.05
Q 337 156.5 328.55 156.35 326.85 156.35 325.4 156.45 324.25 159.95 324.5 164.1 325.15 173.35 330.8 178.1 333.7 178.25 335.8 177.55 336.05 177.45 336.3 177.35 338.8 176.1 340.2 173.7 343.8 167.6 344.05 158.05 Z"/>

            <path fill="#666666" stroke="none" d="
M 504.6 -105.5
Q 504.8 -106.2 506.15 -107 504.8 -107.15 504.6 -105.5
M 504.6 -105.5
Q 504.55 -105.45 504.55 -105.35 504.55 -105.2375 504.55 -105.15 504.5564453125 -105.3693359375 504.6 -105.5
M 505.4 -103.5
Q 505.35 -103.6 505.25 -103.6 505.35 -103.45 505.5 -103.3
L 505.4 -103.5 Z"/>
        </g>

        <g id="Layer0_0_FILL">
            <path fill="#000000" stroke="none" d="
M 151.95 45
L 151.95 38.45 151.95 26.5 149.65 26.5 149.65 45 151.95 45
M 159.85 32.25
L 157.35 32.25 151.95 38.45 157.95 45 160.9 45 154.7 38.2 159.85 32.25
M 136.95 32.25
L 134.6 32.25 134.6 41.4
Q 134.6 43.25 135.65 44.25 136.65 45.3 138.25 45.3 139.5 45.3 140.65 44.6 141.85 43.9 142.7 42.6
L 142.7 45 145 45 145 32.25 142.7 32.25 142.7 40.5
Q 141.55 42.25 140.55 42.75 139.6 43.3 138.75 43.3 138.25 43.3 137.8 43.05 137.4 42.85 137.15 42.4 136.95 42 136.95 40.65
L 136.95 32.25
M 197.85 35.95
Q 197.85 34.25 197.25 33.45 196.7 32.7 195.75 32.35 194.8 32 193.65 32 191.55 32 189.2 32.95
L 189.2 34.85
Q 191.35 33.7 193.2 33.7 194 33.7 194.5 33.95 195.05 34.2 195.3 34.6 195.55 35 195.55 35.95
L 195.55 37.5 195 37.5
Q 191.4 37.5 189.75 38.7 188.1 39.95 188.1 41.8 188.1 43.5 189.3 44.4 190.45 45.3 191.8 45.3 192.8 45.3 193.8 44.8 194.85 44.35 195.9 43.4 196.15 44.45 196.7 44.9 197.3 45.3 197.95 45.3 198.9 45.3 199.65 44.9
L 199.5 43.65
Q 199.2 43.7 199.05 43.7 198.7 43.7 198.45 43.5 198.15 43.35 198 43 197.85 42.65 197.85 41.7
L 197.85 35.95
M 190.4 41.45
Q 190.4 40.2 191.65 39.5 192.9 38.8 194.8 38.8
L 195.55 38.85 195.55 42.15
Q 194.75 42.75 194 43.1 193.2 43.4 192.5 43.4 191.65 43.4 191.05 42.85 190.4 42.25 190.4 41.45
M 169.8 34.6
Q 170.05 35 170.05 35.95
L 170.05 37.5 169.5 37.5
Q 165.9 37.5 164.25 38.7 162.6 39.95 162.6 41.8 162.6 43.5 163.8 44.4 164.95 45.3 166.3 45.3 167.3 45.3 168.3 44.8 169.35 44.35 170.4 43.4 170.65 44.45 171.2 44.9 171.8 45.3 172.45 45.3 173.4 45.3 174.15 44.9
L 174 43.65
Q 173.7 43.7 173.55 43.7 173.2 43.7 172.95 43.5 172.65 43.35 172.5 43 172.35 42.65 172.35 41.7
L 172.35 35.95
Q 172.35 34.25 171.75 33.45 171.2 32.7 170.25 32.35 169.3 32 168.15 32 166.05 32 163.7 32.95
L 163.7 34.85
Q 165.85 33.7 167.7 33.7 168.5 33.7 169 33.95 169.55 34.2 169.8 34.6
M 170.05 42.15
Q 169.25 42.75 168.5 43.1 167.7 43.4 167 43.4 166.15 43.4 165.55 42.85 164.9 42.25 164.9 41.45 164.9 40.2 166.15 39.5 167.4 38.8 169.3 38.8
L 170.05 38.85 170.05 42.15
M 179.35 34.2
Q 179.9 33.7 181 33.7 182.15 33.7 184.1 34.3
L 184.1 32.35 183.6 32.25
Q 182.05 32 180.95 32 178.8 32 177.65 33 176.55 34 176.55 35.55 176.55 36.8 177.25 37.65 178 38.5 179.55 39.15
L 180.9 39.7
Q 182.1 40.2 182.4 40.7 182.75 41.15 182.75 41.65 182.75 42.5 182.1 43 181.4 43.55 180.45 43.55 178.75 43.55 176.5 42.45
L 176.5 44.55
Q 178.75 45.3 180.35 45.3 181.7 45.3 182.8 44.8 183.9 44.3 184.5 43.4 185.05 42.5 185.05 41.45 185.05 40.35 184.45 39.45 183.85 38.5 181.6 37.55
L 180.45 37.1
Q 179.5 36.7 179.15 36.25 178.8 35.85 178.8 35.35 178.8 34.7 179.35 34.2
M 126 37.1
Q 125.05 36.7 124.7 36.25 124.35 35.85 124.35 35.35 124.35 34.7 124.9 34.2 125.45 33.7 126.55 33.7 127.7 33.7 129.65 34.3
L 129.65 32.35 129.15 32.25
Q 127.6 32 126.5 32 124.35 32 123.2 33 122.1 34 122.1 35.55 122.1 36.8 122.8 37.65 123.55 38.5 125.1 39.15
L 126.45 39.7
Q 127.65 40.2 127.95 40.7 128.3 41.15 128.3 41.65 128.3 42.5 127.65 43 126.95 43.55 126 43.55 124.3 43.55 122.05 42.45
L 122.05 44.55
Q 124.3 45.3 125.9 45.3 127.25 45.3 128.35 44.8 129.45 44.3 130.05 43.4 130.6 42.5 130.6 41.45 130.6 40.35 130 39.45 129.4 38.5 127.15 37.55
L 126 37.1
M 111.35 45
L 113.8 45 113.8 29.5 119.95 29.5 119.95 27.65 105.2 27.65 105.2 29.5 111.35 29.5 111.35 45
M 336.7 86.25
L 336.7 80.5
Q 336.7 78.8 336.1 78 335.55 77.25 334.6 76.9 333.65 76.55 332.5 76.55 330.4 76.55 328.05 77.5
L 328.05 79.4
Q 330.2 78.25 332.05 78.25 332.85 78.25 333.35 78.5 333.9 78.75 334.15 79.15 334.4 79.55 334.4 80.5
L 334.4 82.05 333.85 82.05
Q 330.25 82.05 328.6 83.25 326.95 84.5 326.95 86.35 326.95 88.05 328.15 88.95 329.3 89.85 330.65 89.85 331.65 89.85 332.65 89.35 333.7 88.9 334.75 87.95 335 89 335.55 89.45 336.15 89.85 336.8 89.85 337.75 89.85 338.5 89.45
L 338.35 88.2
Q 338.05 88.25 337.9 88.25 337.55 88.25 337.3 88.05 337 87.9 336.85 87.55 336.7 87.2 336.7 86.25
M 329.25 86
Q 329.25 84.75 330.5 84.05 331.75 83.35 333.65 83.35
L 334.4 83.4 334.4 86.7
Q 333.6 87.3 332.85 87.65 332.05 87.95 331.35 87.95 330.5 87.95 329.9 87.4 329.25 86.8 329.25 86
M 322.55 77.55
Q 321.55 76.55 319.95 76.55 318.7 76.55 317.5 77.25 316.35 77.95 315.45 79.2
L 315.45 76.8 313.15 76.8 313.15 89.55 315.45 89.55 315.45 81.3
Q 316.65 79.6 317.6 79.05 318.6 78.5 319.45 78.5 319.95 78.5 320.35 78.75 320.8 79 321 79.4 321.25 79.8 321.25 81.15
L 321.25 89.55 323.55 89.55 323.55 80.4
Q 323.55 78.6 322.55 77.55
M 303.35 76.8
L 303.35 89.55 305.65 89.55 305.65 81.15
Q 306.4 79.85 307.35 79.2 308.25 78.55 309.35 78.55 309.8 78.55 310.4 78.75
L 310.4 76.6
Q 310 76.55 309.65 76.55 308.4 76.55 307.4 77.25 306.3 77.95 305.65 79.2
L 305.65 76.8 303.35 76.8
M 299.55 83.55
L 299.55 82.85
Q 299.55 79.7 298.2 78.1 296.9 76.55 294.65 76.55 293 76.55 291.75 77.3 290.5 78.1 289.75 79.7 289 81.35 289 83.15 289 85.85 290.7 87.85 292.45 89.85 295.45 89.85 297.15 89.85 299.5 89.15
L 299.5 87.3
Q 298 87.85 297.3 87.95 296.6 88.1 295.9 88.1 294.45 88.1 293.55 87.6 292.65 87.05 292.1 86.15 291.55 85.25 291.35 83.55
L 299.55 83.55
M 294.5 78.25
Q 295.7 78.25 296.5 79.1 297.25 79.9 297.25 81.8
L 291.45 81.8
Q 291.6 80.05 292.4 79.15 293.15 78.25 294.5 78.25
M 279.3 83.2
Q 279.3 81.2 280.3 79.75 281.25 78.3 283.15 78.3 284.4 78.3 286.3 78.85
L 286.3 76.95
Q 284.5 76.55 283 76.55 279.8 76.55 278.25 78.4 276.7 80.3 276.7 83.1 276.7 85 277.4 86.5 278.15 88 279.55 88.9 280.95 89.85 282.65 89.85 284.25 89.85 286.45 89.15
L 286.45 87.15
Q 284.8 88 283.25 88 281.5 88 280.4 86.65 279.3 85.35 279.3 83.2
M 262.65 76.8
L 262.65 85.95
Q 262.65 87.8 263.7 88.8 264.7 89.85 266.3 89.85 267.55 89.85 268.7 89.15 269.9 88.45 270.75 87.15
L 270.75 89.55 273.05 89.55 273.05 76.8 270.75 76.8 270.75 85.05
Q 269.6 86.8 268.6 87.3 267.65 87.85 266.8 87.85 266.3 87.85 265.85 87.6 265.45 87.4 265.2 86.95 265 86.55 265 85.2
L 265 76.8 262.65 76.8
M 249.95 89.55
L 260.1 89.55 260.1 87.7 252.4 87.7 252.4 72.2 249.95 72.2 249.95 89.55 Z"/>
        </g>

        <path id="Layer5_0_1_STROKES" stroke="#CCCCCC" stroke-width="1.75" stroke-linejoin="round"
              stroke-linecap="round" fill="none" d="
M 154.675 121.15
L 168.25 106 171.5 100.25 177.75 144.75 186.25 134.5 189.7 139.75
M 186.15 162.05
L 184 156.75 202.35 153.45
M 159.75 168.05
L 164.9 165.2 196.55 176.2
M 55.65 139.725
L 57.75 145.75 63.25 137 67.75 143.75 78.5 107.75 81.75 123 89.25 121 96 115.25 106.75 96 108.5 116.25 109.75 118.75 137.25 81.5 149 118.75 151.425 121.025
M 38.85 151.5
L 56.25 155 55.45 158.95
M 86.65 168.75
L 80.95 164.5 47 172.95
M 120.25 201.05
Q 120.121875 201.0060546875 120 200.95
M 103.275 188.775
L 111.75 199.75 116.75 199.75 120 200.95
M 138.2 189.75
L 131.25 201.75 127 199.75 121.3 200.65
M 113 267.875
L 106.35 271.8 102.6 274.05 102.75 275 115.5 268.65
Q 115.626171875 267.79375 115.5 266.9
M 102.6 274.05
L 101.75 268.25 102.525 264.2 104.2 255.45
M 115.025 266.65
L 113 267.875
M 115.5 268.65
L 116.3 268.25
M 136 272.75
L 128.475 270.475 129.75 274.75 122.25 277.5 120 269.75 118.25 275.25 116 278 111.25 274.4
Q 115.080078125 271.8333984375 115.5 268.65
M 102.6 274.05
L 102.525 264.2
M 133.25 255.5
L 134.625 259.6 136 264 136 272.75 134.625 259.6
M 128.475 270.475
L 127.125 270.075
Q 126.9658203125 270.0271484375 126.8 269.975 126.6814453125 269.9396484375 126.575 269.9
L 125.85 269.7
M 126.575 269.9
L 125.825 269.675
M 86.1 346.9
L 93.5 347.95
M 92.4 351.25
L 85.15 349
M 133.5 350.75
L 140.8 348.75
M 132.45 348
L 139.9 346.75"/>

        <path id="Layer5_0_2_STROKES" stroke="#9393FF" stroke-width="2" stroke-linejoin="miter" stroke-linecap="round"
              stroke-miterlimit="10" fill="none" d="
M 149.75 141.6
Q 153.35 145.34921875 156.4 140.85
M 100.85 139.3
Q 99.5671875 142.4412109375 96.75 143.1 93.9328125 143.7587890625 92.65 139.85"/>

        <path id="Layer5_0_3_STROKES" stroke="#1FB5DA" stroke-width="1" stroke-linejoin="round" stroke-linecap="butt"
              fill="none" d="
M 103 186.1
L 112.1 194.3 118.15 190.95 118.65 190.75
M 112 197.6
L 118.15 190.95
M 112.925 254.85
L 113.35 255.35 115.875 257.325
Q 118.4095703125 255.976953125 120.7 256.9
L 124.325 254.525 125.375 253.625
M 128.45 198.4
L 124.625 192.2 124.2 191.9
M 124.625 192.2
L 129.4 195.95 139.75 187.1
M 115.875 257.325
L 115.9 257.35 116.35 257.7
M 112.65 256.95
L 115.85 258.35 115.9 257.35
M 120.7 258.35
L 120.7 256.9 120 257.35
M 125.55 255.95
L 120.7 258.35 115.85 258.35
M 105 255.95
L 105.05 256.6 106.1 269.1 115.25 263.85 115.75 264.65 116.175 264.825 115.85 262.1 118 263.6 119.75 264.2 121.35 262.35 121.35 261.5 121.35 260.7 121.55 261.65 123.85 263.35 132.1 267.85 132.1 257.35 132.225 256.7 132.35 255.95
M 104.2 271.7
L 105.05 256.6
M 117 264.7
L 116.525 264.975 119.45 266.2 122.075 264.55 121.5 264.2
M 122.275 264.675
L 122.075 264.55 122.15 264.5 121.85 263.05 121.55 261.65 121.35 261.5
M 115.25 264.6
L 115.525 265.5 116.1 265.2 115.75 264.65
M 116.1 265.2
L 116.225 265.15 116.175 264.825 116.525 264.975 116.225 265.15 116.25 265.45 116.45 265.775
M 116.1 265.2
L 116.25 265.45
M 115.75 266.2
L 115.525 265.5 104.2 271.7
M 132.75 256.6
L 132.975 258.95 132.225 256.7
M 134.05 270.8
L 132.975 258.95
M 122.775 264.9
L 121.85 263.05
M 131.65 270.5
Q 129.426953125 269.1068359375 127.2 267.725
L 126.1 267.025 122.275 264.675
M 134.05 270.8
L 131.65 270.5
M 121.6 257.35
Q 121.1541015625 257.0775390625 120.7 256.9"/>

        <path id="Layer4_0_1_STROKES" stroke="#000000" stroke-width="1.75" stroke-linejoin="round"
              stroke-linecap="round" fill="none" d="
M 206.5 68.3
Q 206.4 67.25 205.85 66.9 205.75 66.85 205.65 66.8 199.55 63.15 191.7 60.65 184.1375 57.6875 176.85 56.625 169.5625 55.5625 162.85 56.65 164.70859375 57.315625 166.35 58.25 169.45 60.05 172.5 62.3 175.3 64.35 177.2 67.2 179.25 70.15 181.05 73.75 182.65 77 183.75 80.75 184.85 84.65 186.8 88.4 187.3806640625 91.6345703125 188.025 95.25 188.125390625 95.793359375 188.225 96.35 188.230078125 96.3751953125 188.225 96.4 188.26875 96.57578125 188.3 96.75 189.9990234375 104.5638671875 192.6 111.5 196.3 112.4 199.55 112.4 202.6 112.95 205.65 113.15 211.85 113.6 218 112.85
L 211 107.1 216.1 102.95
Q 210.65 102.35 206.7 97.6
L 217 93.6 207 92.1 214.45 87.45 204.8 80.25 217.5 72.6 210.5 68.85 206.5 68.3 203.25 67.85
M 164.9 165.2
Q 162.4 166.75 159.75 168.05
L 186.7 174.8 197.5 177.5 186.15 162.05 202.35 153.45 198 147.05 189.7 139.75 188.15 130 179.5 139.6 175.25 108.6 172.75 94.85 154.25 119.5
Q 151.05 116.75 149.4 111.4
L 140.5 85.65 138 76.45 110.75 113.85
Q 110.5 112.9 110.25 111.95 109.95 110.8 109.75 109.6 109.65 109.35 109.65 109.1 108.35 102.75 108.3 95.6 108.5 93.5 108.65 90.4 107 92.9 105.25 95.25 103.2 99.1 100.85 102.9 99.3 105.4 97.6 107.85 97.25 108.5 96.9 109.1 96.75 109.35 96.6 109.6 94.2 113.4 92.3 114.65 90.35 115.9 84.9 120.6
M 192.6 111.5
Q 193.1 113.45 193.75 115.6
L 191.2 137
Q 190.8 138.35 189.7 139.75
M 50 59.75
Q 53.15 58.1 57.45 57 61.3998046875 56.0501953125 65.3 55.325 69.2 54.59921875 74.075 54.7 78.9498046875 54.8005859375 83.5 54.825 88.05 54.849609375 92.05 56.6 92.4 56.35 93.375 56.6 94.6984375 56.144140625 96.05 55.75 100.25 54.5 104.3 53.7 108.5 52.85 112.75 52.35 117.2 51.85 122.25 51.9 127.1 52 132 52.05 136.85 52.05 141.25 52.85 145.7 53.65 150.25 54.2 154.6 54.75 159 55.6 161.029296875 55.9958984375 162.85 56.65
M 50.8 60.15
Q 51.5 60.35 52.25 60.5 49.15 61.1 46 61.65 42 62.3 38.05 63.9 33.95 65.5 31.5 67.25 32.2 67.55 33.15 67.85 36.7 68.9 41.25 69.75 45.3 70.55 49.25 71.75 47.9 72 46.65 72.5 42.95 73.95 39.15 75.3 35.0892578125 76.7361328125 31.9 78.325 31.3306640625 78.8345703125 30.6 79.2
L 44.9 87.5
Q 40.4 90.55 36.4 94 33.65 96.35 32.25 99.35
L 41.5 103.1 31.75 113.6
Q 47.1052734375 110.246484375 54.7 113.6 54.75 109.9 55.6 106.2 56.05 98.15 58.9 92.1
L 59.05 91.75
Q 59.05 91.7 59.1 91.65 59.15 91.55 59.2 91.45 59.3 91.15 59.4 90.9
L 59.7 90.3
Q 62.55 83.65 66.05 77.95 70.65 71.9 75.65 66 75.9 65.703125 76.15 65.4 79.15 63.5 82.35 61.65 85.65 59.75 89 58.3 91.1546875 57.3630859375 93.375 56.6
M 113.25 82.1
Q 111.15 86.45 108.65 90.4
M 84.75 120.85
Q 83.5 120.6 83.15 119.4
L 80 102.35
Q 77.45 105.7 75.6 109.1 75.45 109.35 75.35 109.6 73.55 112.95 72.5 116.35 72.4 116.55 72.35 116.8 70.1 124.4 67.6 132.65 67.5 136.2 66.75 139.35
L 64 131.35 57.25 142.1
Q 56.85 140.6 56.55 139.1
L 38.85 151.5 55.45 158.95 47 172.95 59.25 171.7 86.65 168.75
Q 83.8 166.95 81.35 164.85 81.15 164.7 80.95 164.5
M 56.55 139.1
Q 56.15 137.05 56.05 134.9 53.9 126.55 54.75 116 54.7 114.8 54.7 113.6
M 152.85 266.9
L 152.2 268.2 150.75 271.1 149.1 269.15
Q 145.8 269.15 145.55 265.1
L 145.1 264.6 138.7 270.4 140 282.2
Q 139 282.4 138 282.65
L 139.55 288.1 151.25 340.85 151.75 343.1
Q 150.75 344.7 149.35 344.55 144.65 345.8 139.9 346.75
L 143.1 353.6
Q 143.6 353.9 144.15 354.3 149.15 357.55 151.8 363.45 154.65 369.7 152.5 375.85 150.65 376.5 148.15 375.75 143.9 374.5 140.35 372.1 134.1 367.65 134.6 357.95 134.6 357.35 135.35 356.75 135.5 356.6 135.7 356.45
L 132.45 348
Q 132.2 348 132 348.05 123.05 349.3 112.75 349.15 102.7 349.05 93.5 347.95
L 90.7 356.3
Q 90.9 356.45 91.05 356.6 91.8 357.2 91.8 357.8 92.3 367.5 86 371.95 82.4 374.35 78.1 375.6 75.55 376.35 73.65 375.7 71.5 369.55 74.4 363.3 77.1 357.4 82.15 354.1 82.65 353.75 83.2 353.45
L 86.1 346.9
Q 85.7 346.85 85.35 346.8 80.75 345.95 76.8 344.35
L 77.75 341.05 91.65 291.9 93.75 284.55
Q 93 284.45 92.25 284.35
L 94.9 267.9 88.5 273.1 86.5 266.6
Q 86 266.55 85.55 266.5 84.5 266.4 83.5 266.2 80.85 265.7 78.7 264.7 78.35 264.55 78 264.4 75.35 263 73.35 260.8
L 66.75 267.9 65.5 248.7
Q 64.1 249.7 63.55 251.95
L 56.25 266.65 56.15 267.35 59.5 227.6 40 260.8
Q 52.3 229.3 57.15 190.35 58 183.6 58.6 176.6
L 59.25 171.7
M 114.75 182.1
L 103 186.1 104.55 188.05 112 197.6 115 194.75 118.95 190.95
Q 117.1 189.7 116.45 187.05
L 116.45 182.1 114.75 182.1 Z
M 118.95 190.95
Q 120.5 192.05 122.65 192.6 123.5 192.3 124.2 191.9 126.35 190.65 127 188.55
L 128.5 183.65 128.6 182.8 128.6 176.25
Q 122.55 176.55 116.95 176.45
L 116.45 182.1
M 115 194.75
L 118.1 196.35
Q 118.3 195.95 118.55 195.65 118.95 195.1 119.45 194.75
L 122.5 193.85
Q 123.45 194.8 123.85 196.35 125.05 195.9 126.6 195.7
L 124.5 192.6
M 73.35 260.8
Q 71.95 259.2 70.9 257.25
L 71.2 256.4 81.75 234.6 97 192.35 104.55 188.05
M 86.65 168.75
Q 91.55 171.85 97.75 174.15 106.6 176.15 116.95 176.45
M 123.85 196.35
Q 124 197 124.05 197.7 123.5 198.8 122.75 199.55
L 127.65 197.25 126.6 195.7
M 128.6 182.8
L 139.75 187.1 137.55 189.65 146 193.2 160.85 258.25
Q 158.5 260.25 155.45 261.7 158.85 265.55 159.5 271.85 159.5 271.75 159.45 271 159.8 270.9 159.75 270.2
L 170.25 248.85 171.75 265.1 180.35 254.65
Q 180.05 255 180.55 255.4 181.6 264.65 186.7 270.1
L 186.7 174.8
M 127.65 197.25
L 128.75 198.85
Q 129.85 198.35 131.2 197.05
L 137.55 189.65
M 159.75 168.05
Q 148.25 173.85 134.3 175.8 131.4 176.05 128.6 176.25
M 125.6 256.45
L 121.3 200.65
Q 120.8 200.9 120.25 201.05
L 112.6 257.3
Q 114.3 258.2 115.5 259.85 116.1 259.2 116.75 258.65 118.2 257.75 121.25 258.35 123.3 257.1 125.6 256.45 129.1 255.3 133.25 255.5
L 134.05 270.8 132.3 270.9 122.15 264.5 128 272.7 128 274.1 123.3 275.65 120 266.35 118.9 266.05
Q 119.65 272.25 116.3 276.55 115.8 276.2 115.25 275.85 114.05 275.1 112.85 274.35 116.3 271.55 116.65 265.65
L 107 271.6 104.2 272.45 104.2 255.45
Q 107.3 255.45 110.3 256.45 111.55 256.7 112.6 257.3
M 112 197.6
L 117.85 198.95
Q 117.65 198.55 117.55 198.1 117.7 197.1 118.1 196.35
M 120.25 201.05
Q 118.5 200.45 117.85 198.95
M 118.9 266.05
L 117.8 265.7
Q 117.3 265.55 116.9 265.25 115.05 263.9 115.5 259.85
M 86.5 266.6
Q 90.05 266.85 95.25 266.3
L 104.25 221.35
M 95.25 266.3
L 94.9 267.9
M 139.55 288.1
Q 137.9 292.5 132.75 292.85
L 127.75 288.85
Q 124.5 294.95 116.3 294.75
L 109.75 289.85
Q 105.1 294.8 96.8 294.15 95.45 294.05 93.65 293.3 92.6 292.7 91.65 291.9
M 93.75 284.55
Q 102.3 285.55 111.25 285.25 121.7 285.5 130.05 284.1 134.2 283.45 138 282.65
M 149.1 269.15
Q 149.6 269.15 150.2 269.05 151.45 268.8 152.2 268.2
M 153.25 263.6
Q 153.5 264.85 153.4 265.8
L 155.45 261.7
Q 154.4 262.2 153.25 262.65 153.15 262.65 153.05 262.7 150.2 263.75 146.8 264.35 146.65 264.35 146.5 264.4 145.8 264.5 145.1 264.6 142.1 265 138.25 264.9
L 138.7 270.4
M 121.25 258.35
L 123.05 263.65 122.15 264.5 120 266.35
M 138.25 264.9
L 134.5 221.1
M 122.75 199.55
Q 122.1 200.2 121.3 200.65
M 85.5 266.85
Q 84.25 271.55 79.7 270.05 78.25 269.6 78.05 267.6 77.9 266 78.5 265.1
M 77.75 341.05
Q 84.9 336.1 93.65 341.2 95.6 342.3 97.4 343.15 104.1 339.25 113.3 338.55 120.4 337.95 124.85 341.75 126.45 343.15 128 344.35 132.3 338.5 141.3 337.55 147.45 337.85 151.25 340.85
M 90.7 356.3
L 90.4 357.2 82.65 354.8 83.2 353.45
M 89.1 359.45
L 82.35 357.05
Q 77.4 361.4 79.5 367.7
L 83.55 367.7 89.1 359.45 Z
M 86.1 346.9
Q 89.65 347.5 93.5 347.95
M 146.75 367.85
L 142.75 367.85 137.25 359.6 143.95 357.2
Q 148.8 361.55 146.75 367.85 Z
M 135.7 356.45
L 136 357.35 143.65 354.95 143.1 353.6
M 132.45 348
Q 136.2 347.45 139.9 346.75"/>

        <path id="Layer2_0_1_STROKES" stroke="#000000" stroke-width="1.75" stroke-linejoin="round"
              stroke-linecap="round" fill="none" d="
M 296.8 316.6
L 287.05 316.9 284.4 336.2 279.4 341.85 276.7 336.65 280.25 317.1 272.3 317.3
Q 274.45 294.75 279.6 272.2 277 272.05 275.35 271.95 274.7 271.9 274.05 271.85
L 271.45 274.35
Q 269 275.75 267.7 274.65 266.4 273.5 267.8 270.75 263.6 269.65 260.5 267.85 261.3 260.55 263.2 253.9 265.35 246.25 267.4 238.35 269.15 231.45 271.2 225.1 271.5 224.05 271.85 223.05 274.3 215.5 280.35 211.7 285.6 208.45 291.8 205.6 292.85 205.1 294 204.6
L 294.05 201.8
Q 290.5 201.65 287.05 201.5 281.05 201.2 275.45 200.5 272.15 200.05 269 199.5 263 198.45 257.1 197.5 254.45 197.1 251.8 196.7 246.05 195.85 241.5 193.75 239.25 192.7 237.3 191.35 236.85 190.35 236.45 189.6 236.4 189.5 236.35 189.35 235.1 187.05 234.5 184.25 233.6 180 234.1 174.55 234.3 172.45 234.5 170.45 235.25 163.3 236.35 156.8 237.8 148.1 239.4 139.8 240.05 136.4 240.7 133.05 240.8 132.65 240.85 132.3 241.2 130.55 241.5 128.8 241.8 127.15 242.1 125.55 242.35 124.05 242.6 122.6 243.05 119.9 243.65 117.25 244.85 111.9 246.55 106.85
L 250.7 98.35
Q 253.95 100.55 257.1 102.9 259.25 104.45 261.35 106.1 264.75 108.7 267.7 111.4 270.3 113.7 272.55 116.1 273.1 116.65 273.65 117.25 274.55 118.2 275.45 119.2 278.25 122.25 281.15 125.55 282.15 126.75 283.2 127.95 285 130.1 286.65 132.3 289.8 136.55 292.3 141.1
L 304.8 141.1
Q 307.6 136.55 310.45 132.3 311.55 130.65 312.65 129 313.85 127.25 315.1 125.55 318.2 121.4 321.55 117.8 326.45 112.55 332.3 108.15 338 103.85 345.8 100.6 347.95 108.3 350.15 116.3 352.35 124.35 354.25 132.3
L 354.25 132.35
Q 356.2 140.5 357.85 149.3 359.4 157.65 361.3 165.6 363.15 173.6 362.4 183.55 362.15 186.6 361.4 189.35 360.7 191.85 359.55 194.1 353.15 198.1 344.25 199.1 335.3 200.05 328.85 200.75 322.4 201.45 320.75 201.45 319.3 201.45 316.9 201.8 316.45 201.85 315.95 201.95 312.85 202.45 308.5 202.35 304.1 202.2 301.95 202.1
L 301.9 205.05
Q 302.6 205.3 303.3 205.6 309.85 208.2 315.5 211.7 316.25 212.15 316.9 212.65 321.9 216.4 324.05 223.05 324.4 224.05 324.75 225.1 326.75 231.45 328.55 238.35 330.6 246.25 332.75 253.9 334.65 260.55 335.7 267.85 332.35 269.65 328.15 270.75 328.15 272.8 327.1 274.1
L 324.6 274.1 321.85 271.85
Q 321.2 271.9 320.55 271.95 319.25 272.05 316.9 272.55 316.3 272.7 315.6 272.85
L 320.8 316.85 304.6 316.6 305.8 318.85
Q 305.65 319.65 305.7 319.95 307.8 328.45 306.3 338.1
M 328.55 156.35
Q 326.85 156.35 325.4 156.45 324.25 159.95 324.5 164.1 325.15 173.35 330.8 178.1 333.7 178.25 335.8 177.55 336.05 177.45 336.3 177.35 338.8 176.1 340.2 173.7 343.8 167.6 344.05 158.05 337 156.5 328.55 156.35 Z
M 346.55 158.6
Q 345.3 158.3 344.05 158.05
M 317.35 355.85
Q 319.85 356.8 321.7 358.1 328.45 362.65 328.25 371.65 327.95 372.85 326.9 373.35
M 278.8 157.1
Q 277.15 156.95 275.45 156.9 274.5 156.85 273.5 156.8 272.8 167 269.6 173.6 269.2 174.5 268.8 175.35 267.05 176.7 264.05 176.85 259.55 175.2 257.1 171.45 255.5 169 254.8 165.7 254.25 163.05 254.2 157.85 251.6 158.2 249.05 158.6
M 273.5 156.8
Q 266.7 156.55 259.85 157.2 258.45 157.35 257.1 157.5 255.65 157.65 254.2 157.85
M 296.5 194
Q 297.5 194 298.45 194.25 298.75 195.8 295.55 195.25
M 294 204.6
L 293.95 207.4
Q 294.9 211.1 299.55 210.85 300.2 210.6 300.6 210.4
L 301.9 207.45 301.9 205.05
M 294.05 201.8
Q 297.95 201.95 301.95 202.1
M 293.5 272.35
L 303.5 266.6 294.25 266.6
Q 297 262.75 301.7 261.05 301.7 259.8 300.55 259.5
L 295 259.5 293 256.85
Q 290.35 245.8 300.25 245.15 300.75 245.1 301.25 245.1 303.7 245.2 304.25 248.1
L 304.25 251.85
Q 303.2 254.2 301.25 255.4
L 299 255.4
M 291.5 244.6
L 288.25 242.1
M 298.25 241.85
L 298.25 234.6
M 304.25 243.85
Q 305.3 241.65 307.05 240.15
M 267.8 270.75
Q 270.7 271.55 274.05 271.85
M 306.75 252.1
L 310.5 252.1
M 290 252.85
L 286.25 252.85
M 315.6 272.85
L 310.5 234.6
M 279.6 272.2
L 285.3 234.6
M 312.8 317.6
Q 314.65 324.65 314.45 330.4 314.25 334.45 313.15 339.45 313.2 339.55 313.25 339.65 315.55 345.35 316.1 350.1 316.6 355 316.6 355.35
M 305.9 338.5
L 310.6 343.85 313.05 339.2
Q 313.1 339.35 313.15 339.45
M 304.6 316.6
L 297.2 316.6
M 273.4 353.35
Q 273.4 353 273.4 352.6 273.35 343.1 276.05 336.4
M 284.9 336.2
L 283.65 363.6 272.4 369.6 264.9 371.35 263.15 371.35
Q 262.1 370.85 261.8 369.65 261.6 360.65 268.3 356.1 270.15 354.8 272.65 353.85
M 325.15 373.35
L 317.6 371.6 306.35 365.6 305.15 338.5
M 280.25 317.1
L 287.05 316.9
M 328.15 270.75
Q 325.2 271.55 321.85 271.85
M 325.4 156.45
Q 323.4 156.65 321.8 157.1"/>

        <path id="Layer1_0_1_STROKES" stroke="#000000" stroke-width="1.75" stroke-linejoin="round"
              stroke-linecap="round" fill="none" d="
M 169.4 142.35
Q 170.15 131.5 166.45 126.8 165.15 125.15 164 123.75 161.85 121.2 160.2 119.65 157.45 118.65 153.9 118.5 152.8 118.45 151.75 118.5
L 151.7 118.5
Q 151.6 118.5 151.5 118.5 144.4 118.75 140.35 122.9
M 139.25 95.85
Q 145.85 92 155.75 91.55 166.2 91.15 172.75 94.85 175.5 97.15 178.2 99
M 71.25 100.7
Q 75.1 95.5 81.45 93.25 90.1 90.3 100.5 91.55 100.7 91.55 100.85 91.6 103.2 91.9 105.5 92.35
L 112.5 96.85
M 162.35 144.2
Q 159.65 146.65 154.15 146.45 151.9 146.65 148.75 145.4 147.15 142.9 146.15 139.9 144.7 135.35 144.5 129.65 144.5 129.55 144.5 129.4 144.4 126.65 145.3 124.7 145.4 124.55 145.4 124.5
L 146.1 123.4
Q 146.1 123.3 146.2 123.15 146.25 123.1 146.3 123.05 148.9 121.25 151.75 121 154.65 120.75 157.85 122.15 158.25 122.95 158.55 123.75 158.6 123.8 158.6 123.9 159.15 125.25 159.5 126.7 159.85 128.15 160.05 129.65 160.7 134.05 159.95 139.3 159.9 139.6 159.85 139.9 158.8 146.1 154.15 146.45
M 146.1 123.4
L 146.3 123.05
M 145.75 124.65
Q 145.85 124.45 146.05 124.25 145.85 124.2 146 123.75 146.05 123.6 146.1 123.4
M 146.05 124.25
Q 146.2 124.05 146.4 123.9
M 86.7 144.15
Q 89.45 146.6 95 146.4 90.3 146.05 89.2 139.85 89.15 139.55 89.1 139.25 88.35 134 89 129.6 89.2 128.1 89.6 126.65 89.95 125.2 90.5 123.85 90.8 122.95 91.25 122.1 94.5 120.7 97.45 120.95 99.2 121.1 100.85 121.85 101.95 122.35 103 123.1 103.2 123.45 103.3 123.6 103.35 123.7 103.4 123.75
L 103.9 124.45
Q 103.9 124.5 104 124.65 104.9 126.6 104.8 129.35 104.8 129.5 104.8 129.6 104.6 135.3 103.1 139.85 102.1 142.85 100.5 145.35 97.3 146.6 95 146.4
M 79.55 142.3
Q 78.75 131.45 82.55 126.75 86.3 122 88.85 119.6 91.65 118.6 95.25 118.45 96.4 118.4 97.45 118.45
L 97.5 118.45
Q 97.6 118.45 97.75 118.45 99.4 118.5 100.85 118.8 105.85 119.7 109 122.85
M 103.55 124.6
Q 103.4 124.4 103.2 124.2 103.05 124 102.85 123.85
M 103.4 123.75
Q 103.55 124.15 103.2 124.2
M 121.25 167.1
L 124.35 166.1"/>
    </defs>

    <g transform="matrix( 1, 0, 0, 1, 0,0) ">
        <use xlink:href="#Layer6_0_FILL"/>
    </g>

    <g transform="matrix( 1, 0, 0, 1, 0,0) ">
        <use xlink:href="#Layer5_0_FILL"/>

        <use xlink:href="#Layer5_0_1_STROKES"/>

        <use xlink:href="#Layer5_0_2_STROKES"/>

        <use xlink:href="#Layer5_0_3_STROKES"/>
    </g>

    <g transform="matrix( 1, 0, 0, 1, 0,0) ">
        <use xlink:href="#Layer4_0_FILL"/>

        <use xlink:href="#Layer4_0_1_STROKES"/>
    </g>

    <g transform="matrix( 1, 0, 0, 1, 0,0) ">
        <use xlink:href="#Layer2_0_1_STROKES"/>
    </g>

    <g transform="matrix( 1, 0, 0, 1, 0,0) ">
        <use xlink:href="#Layer1_0_1_STROKES"/>
    </g>

    <g transform="matrix( 1, 0, 0, 1, 0,0) ">
        <use xlink:href="#Layer0_0_FILL"/>
    </g>
</svg>
