<svg xmlns:xlink="http://www.w3.org/1999/xlink" xmlns="http://www.w3.org/2000/svg" version="1.1"
     preserveAspectRatio="none" x="0px" y="0px" width="220px" height="240px" viewBox="0 0 220 240">
    <defs>
        <filter id="Filter_1" x="-20%" y="-20%" width="140%" height="140%" color-interpolation-filters="sRGB">
            <feColorMatrix in="SourceGraphic" type="matrix" values="1 0 0 0 0 0 1 0 0 0 0 0 1 0 0 0 0 0 0.41 0"
                           result="result1"/>
        </filter>

        <g id="Layer4_0_FILL">
            <path fill="#FFFFFF" stroke="none" d="
M 220 0
L 0 0 0 240 220 240 220 0 Z"/>
        </g>

        <g id="Layer3_0_FILL">
            <path fill="#FFCCCC" stroke="none" d="
M 189.55 75.55
Q 204.75 89.45 197.45 61.4 175.95 21.55 142.75 53.3 129.5 47.45 113.55 45.25 90.8 14.2 76 15.65 57.35 16.95 48.05 30 38.75 43 63.4 38.65 88.05 34.3 92.65 47.1 76.1 56.65 82.4 72.6 88.65 88.5 105.35 92.8 99.95 97.85 90.85 95.55 84.25 89.85 82.05 82.25 74.6 75.05 73.05 84.7 80.2 111.25 103.1 105.45 102.1 127.85 94.55 144.75
L 71.3 134.5 71.05 134.5
Q 39.05 125.35 51.95 142.65 62.8 153.1 89.3 161.5 97.75 163.5 99.25 159.7 99.25 159.65 99.3 159.6 112.75 162.6 123.35 160.55 125.7 179.6 134.05 196 145.85 210.8 147.55 191.25 143.5 160.1 132.75 154.25 132.65 154.05 132.6 153.9 123.05 131.15 130.1 108.45 140.35 116.3 148.05 125 157 124.9 156.1 117.15 145.8 105.25 129.35 97.5 139.8 99.2 147.9 95.95 170.85 89.95 159.6 63.9 169.65 55.9 189.55 75.55 Z"/>
        </g>

        <g id="logo_0_Layer0_0_FILL">
            <path fill="#FF3366" stroke="none" d="
M 12.8 9.75
L 12.95 8.15 12.8 6.5
Q 12.35 4.4 11.2 3.2 9.7 1.8 7.15 1.3 6.85 1.25 6.55 1.2
L 3.1 1.15
Q 1.1 1.15 0.05 1.2 0.05 1.25 0.05 1.3 0 3.45 0 7.65
L 0 14.7
Q 0 14.95 0.05 15.15 0.1 15.25 0.15 15.25 1.2 15.3 3 15.3
L 6.05 15.25
Q 7.2 15.2 8.25 14.8 10.05 14.2 11.2 12.9 12.4 11.65 12.8 9.75
M 6.35 3.4
Q 7.55 4 8.3 5.1 9.05 6.3 9.15 7.9 9.25 9.5 8.55 10.8 8.05 11.8 7.25 12.45 6.45 13.2 5.55 13.4
L 3.5 13.5 3.5 2.9 4.25 2.9
Q 5.45 3 6.35 3.4
M 23.65 1.3
Q 23.55 1.25 23.45 1.25 21.6 0.8 19.65 1.25 19.55 1.25 19.5 1.3 17.75 1.85 16.4 3.1 15.3 4.25 14.8 5.7 14.35 7.2 14.45 8.75 14.6 10.35 15.25 11.65 16 13.15 17.5 14.15 19 15.15 20.85 15.3 22.8 15.4 24.65 14.65 26.55 13.85 27.55 12.3 28.3 11.1 28.55 9.6
L 28.65 8.1 28.55 6.6
Q 28.1 4.45 26.75 3.1 25.4 1.8 23.65 1.3
M 23.5 3.3
Q 24.35 4.15 24.7 5.6 25 6.75 25 8.15 25 10.2 24.45 11.55 23.8 13.35 22.2 13.75 21.4 14 20.55 13.6 19.65 13.3 19.1 12.4 18.5 11.5 18.25 10
L 18.2 6.55 18.5 5.3
Q 18.9 4.05 19.65 3.25 20.5 2.6 21.55 2.55 22.75 2.55 23.5 3.3
M 41.55 1.3
Q 41.6 1.2 41.55 1.2
L 38.45 1.2
Q 38.4 1.25 38.35 1.3 37.65 2.15 36.4 3.6
L 33.35 7.65 33.35 4.45
Q 33.35 2.4 33.25 1.3
L 33.25 1.25 30.45 1.25 30.45 1.3
Q 30.4 3.65 30.4 8.25 30.4 12.9 30.45 15.25
L 33.25 15.25
Q 33.35 14.4 33.35 12.7
L 33.4 10.25 34 9.8
Q 34.4 9.5 34.65 9.35 35.2 10.25 36.25 11.9 36.35 12.1 36.5 12.3
L 38.05 14.75
Q 38.25 15.1 38.45 15.25 39.15 15.3 40.15 15.3
L 41.6 15.25
Q 41.7 15.25 41.7 15.2 40.8 13.85 39.2 11.3 37.6 8.75 36.8 7.4 37.6 6.35 39.25 4.3
L 41.45 1.4
Q 41.5 1.35 41.55 1.3
M 52.65 1.3
Q 52.55 1.25 52.45 1.25 50.6 0.8 48.65 1.25 48.55 1.25 48.5 1.3 46.75 1.85 45.4 3.1 44.3 4.25 43.8 5.7 43.35 7.2 43.45 8.75 43.6 10.35 44.25 11.65 45 13.15 46.5 14.15 48 15.15 49.85 15.3 51.8 15.4 53.65 14.65 55.55 13.85 56.55 12.3 57.3 11.1 57.55 9.6
L 57.65 8.1 57.55 6.6
Q 57.1 4.45 55.75 3.1 54.4 1.8 52.65 1.3
M 52.5 3.3
Q 53.35 4.15 53.7 5.6 54 6.75 54 8.15 54 10.2 53.45 11.55 52.8 13.35 51.2 13.75 50.4 14 49.55 13.6 48.65 13.3 48.1 12.4 47.5 11.5 47.25 10
L 47.2 6.55 47.5 5.3
Q 47.9 4.05 48.65 3.25 49.5 2.6 50.55 2.55 51.75 2.55 52.5 3.3
M 72.8 9.75
L 72.95 8.15 72.8 6.5
Q 72.35 4.4 71.2 3.2 69.7 1.8 67.15 1.3 66.85 1.25 66.55 1.2
L 63.1 1.15
Q 61.1 1.15 60.05 1.2 60.05 1.25 60.05 1.3 60 3.45 60 7.65
L 60 14.7
Q 60 14.95 60.05 15.15 60.1 15.25 60.15 15.25 61.2 15.3 63 15.3
L 66.05 15.25
Q 67.2 15.2 68.25 14.8 70.05 14.2 71.2 12.9 72.4 11.65 72.8 9.75
M 64.25 2.9
Q 65.45 3 66.35 3.4 67.55 4 68.3 5.1 69.05 6.3 69.15 7.9 69.25 9.5 68.55 10.8 68.05 11.8 67.25 12.45 66.45 13.2 65.55 13.4
L 63.5 13.5 63.5 2.9 64.25 2.9
M 84.3 1.2
L 83.85 1.15 79 1.15
Q 76.1 1.2 74.6 1.2 74.6 1.25 74.6 1.3 74.55 3.2 74.55 6.75
L 74.55 12.25 74.65 12.6
Q 75.05 13.75 75.9 14.45 76.8 15.15 77.8 15.25
L 81.05 15.3
Q 83 15.3 84.15 15.25
L 84.3 15.25 84.3 14.45
Q 84.3 13.9 84.25 13.6
L 80.45 13.5
Q 80.05 13.5 79.75 13.45 79.5 13.4 79.35 13.3 78.6 12.95 78.3 12.35
L 78.05 11.6 78 8.3 80.05 8.3
Q 81.45 8.3 82.3 8.25
L 82.45 8.2 82.4 6.8 82.3 6.75
Q 81.45 6.7 80.1 6.7
L 78 6.7 78 2.7 84.1 2.7 84.3 2.65 84.3 1.2
M 100.3 1.3
Q 100.3 1.25 100.3 1.2
L 97.25 1.15
Q 97.2 1.2 97.15 1.3 96.95 1.5 96.8 1.85
L 92.95 10.25 90.75 5.45
Q 89.5 2.8 88.75 1.3 88.7 1.2 88.65 1.15
L 85.5 1.2
Q 85.5 1.25 85.5 1.3 85.45 3.65 85.45 8.2 85.45 12.85 85.5 15.25
L 88.15 15.25
Q 88.25 13.85 88.25 11.1
L 88.3 7 92.15 15.3 93.65 15.3 97.4 7.1 97.4 11.15
Q 97.45 13.85 97.5 15.25
L 100.3 15.25
Q 100.35 14.85 100.4 14.05
L 100.4 8.2
Q 100.4 3.65 100.3 1.3
M 111.65 1.3
Q 111.55 1.25 111.45 1.25 109.6 0.8 107.65 1.25 107.55 1.25 107.5 1.3 105.75 1.85 104.4 3.1 103.3 4.25 102.8 5.7 102.35 7.2 102.45 8.75 102.6 10.35 103.25 11.65 104 13.15 105.5 14.15 107 15.15 108.85 15.3 110.8 15.4 112.65 14.65 114.55 13.85 115.55 12.3 116.3 11.1 116.55 9.6
L 116.65 8.1 116.55 6.6
Q 116.1 4.45 114.75 3.1 113.4 1.8 111.65 1.3
M 111.5 3.3
Q 112.35 4.15 112.7 5.6 113 6.75 113 8.15 113 10.2 112.45 11.55 111.8 13.35 110.2 13.75 109.4 14 108.55 13.6 107.65 13.3 107.1 12.4 106.5 11.5 106.25 10
L 106.2 6.55 106.5 5.3
Q 106.9 4.05 107.65 3.25 108.5 2.6 109.55 2.55 110.75 2.55 111.5 3.3
M 133.3 1.3
Q 133.3 1.25 133.3 1.2
L 130.25 1.15
Q 130.2 1.2 130.15 1.3 129.95 1.5 129.8 1.85
L 125.95 10.25 123.75 5.45
Q 122.5 2.8 121.75 1.3 121.7 1.2 121.65 1.15
L 118.5 1.2
Q 118.5 1.25 118.5 1.3 118.45 3.65 118.45 8.2 118.45 12.85 118.5 15.25
L 121.15 15.25
Q 121.25 13.85 121.25 11.1
L 121.3 7 125.15 15.3 126.65 15.3 130.4 7.1 130.4 11.15
Q 130.45 13.85 130.5 15.25
L 133.3 15.25
Q 133.35 14.85 133.4 14.05
L 133.4 8.2
Q 133.4 3.65 133.3 1.3
M 198.85 1.3
Q 198.5 1.25 198.1 1.2
L 195.05 1.15
Q 193.35 1.15 192.5 1.2 192.5 1.25 192.5 1.3 192.45 3.65 192.45 8.2 192.45 12.9 192.55 15.25
L 195.85 15.25
Q 195.9 15.05 195.9 14.65
L 195.95 9.05 196.05 9.05
Q 196.85 10.1 198.25 12.15
L 200 14.7
Q 200.25 15.05 200.5 15.25 201.2 15.3 202.4 15.3 203.6 15.3 204.2 15.25
L 201.95 11.95
Q 200.45 9.75 199.75 8.6
L 200.05 8.45 201.4 7.5
Q 202.1 6.85 202.3 6
L 202.45 5.05
Q 202.45 3.65 201.55 2.65 200.55 1.6 198.85 1.3
M 198.85 4.45
Q 199 5.15 198.85 5.7 198.7 6.3 198.25 6.75
L 197.25 7.4 196.45 7.5 195.95 7.5 195.95 2.85 196.45 2.85
Q 197.65 2.85 198.3 3.5 198.7 3.9 198.85 4.45 Z"/>

            <path fill="#FF9966" stroke="none" d="
M 153.65 1.05
Q 153.2 0.6 152.5 0.3 152 0.1 151.45 0
L 148.4 0 146.15 0.6
Q 145.25 0.9 144.4 1.3 141.8 2.5 139.55 4.55 136.65 7.25 135.7 10.2 135.35 11.25 135.35 12.2 135.35 14.85 137.55 15.85 138.55 16.4 139.65 16.45 142.2 16.7 145.25 15.45 148.25 14.25 150.85 11.95
L 152.1 10.65
Q 152.35 10.35 152.55 10.15 152.7 9.95 152.8 9.8 152.6 9.85 152.3 10.05 151.3 10.7 150.4 11.25 150.05 11.4 149.75 11.6 148.85 12.1 148 12.5 147.95 12.5 147.95 12.55
L 147.9 12.55
Q 145.3 13.75 143.15 14.15
L 140.6 14.25 140.05 14.1
Q 138.2 13.65 137.7 11.9 137.4 10.95 137.7 9.8 138.3 7.4 140.55 5.2 142.8 3.05 145.7 2.1 148.8 1.15 150.85 2.15
L 151.65 2.75 152.15 3.35 152.35 4.05
Q 152.5 5.35 151.65 6.65
L 150.45 8.05
Q 149.8 8.75 149.1 9.05 147.9 9.65 147.95 9 148.35 8 149.15 6.35 150 4.75 150.35 3.9
L 148 3.9
Q 147.85 4 147.8 4.1
L 147.75 4.3 146.95 3.9 146.15 3.85 145.25 3.95
Q 144.35 4.2 143.2 4.9 142 5.65 141.35 6.5 140.55 7.4 140.05 8.45 139.55 9.45 139.35 10.3 139.15 11.95 140.2 12.45 140.35 12.55 140.55 12.6
L 141.15 12.6 142.2 12.45
Q 142.65 12.3 143.1 12.05 143.55 11.8 144 11.5
L 144.4 11.25
Q 144.4 11.3 144.35 11.4
L 144.35 11.95 144.65 12.3
Q 144.95 12.55 145.85 12.3
L 147.55 11.7 149.35 10.7 151.4 9.1 153.05 7.45
Q 154.65 5.45 154.65 3.55
L 154.45 2.15
Q 154.3 1.75 153.9 1.3 153.8 1.2 153.65 1.05
M 146.35 5.05
Q 146.5 5.25 146.55 5.35 146.8 6.05 145.85 7.75 144.9 9.4 143.8 10.4
L 142.65 11.1
Q 142.2 11.25 141.9 11.1 141.6 10.95 141.55 10.4 141.5 9.9 141.85 9
L 142.85 7.15 143.65 6.15 144.55 5.4 145.65 4.95 146.35 5.05 Z"/>

            <path fill="#FFCC66" stroke="none" d="
M 164.65 1.15
L 164.5 1.1 159.65 1.15
Q 159.1 1.2 158.65 1.3 157.75 1.5 157.05 1.95 156 2.7 155.6 3.75 154.85 5.95 156.5 7.5
L 157.45 8.2 159.7 9.5
Q 161.05 10.25 161.6 10.85 162.15 11.45 162.05 12.25 162 13.3 160.85 13.5
L 155.9 13.6 155.8 13.7 155.8 15.15
Q 155.85 15.3 155.9 15.3
L 161.3 15.3 162.55 15
Q 163.6 14.65 164.25 13.95 165.25 12.9 165.3 11.7 165.4 10.5 164.6 9.4
L 163.45 8.35 161.25 7.05
Q 159.1 5.95 158.6 5.05
L 158.4 4.3 158.55 3.6
Q 158.95 2.95 159.85 2.7
L 162.25 2.7
Q 163.65 2.7 164.5 2.65
L 164.65 2.6 164.65 1.15 Z"/>

            <path fill="#66FF99" stroke="none" d="
M 179.15 1.15
L 178.75 1.1 167.65 1.1 167.25 1.15 167.25 2.6 167.45 2.65 171.6 2.65 171.6 8.95
Q 171.6 13.15 171.7 15.3
L 175.05 15.3
Q 175.15 13.15 175.15 8.95
L 175.15 2.65 177 2.65
Q 178.25 2.65 179 2.6
L 179.15 2.6 179.15 1.15 Z"/>

            <path fill="#6699CC" stroke="none" d="
M 191.3 1.2
L 190.85 1.15 186 1.15
Q 183.1 1.2 181.6 1.2 181.6 1.25 181.6 1.3 181.55 3.2 181.55 6.75
L 181.55 12.25 181.65 12.6
Q 182.05 13.75 182.9 14.45 183.8 15.15 184.8 15.25
L 188.05 15.3
Q 190 15.3 191.15 15.25
L 191.3 15.25 191.3 14.45
Q 191.3 13.9 191.25 13.6
L 187.45 13.5
Q 187.05 13.5 186.75 13.45 186.5 13.4 186.35 13.3 185.6 12.95 185.3 12.35
L 185.05 11.6 185 8.3 187.05 8.3
Q 188.45 8.3 189.3 8.25
L 189.45 8.2 189.4 6.8 189.3 6.75
Q 188.45 6.7 187.1 6.7
L 185 6.7 185 2.7 191.1 2.7 191.3 2.65 191.3 1.2 Z"/>
        </g>

        <g id="Layer1_0_FILL">
            <path fill="#FF3366" stroke="none" d="
M 27.35 171.6
L 29.1 171.6
Q 30.85 171.6 31 171.55
L 31.15 171.55 31.15 170.7 30.85 170.65
Q 30.6 170.65 27.95 170.65 25.35 170.65 25.3 170.7
L 25.3 177.3 25.35 177.55
Q 25.6 178.2 26.1 178.6 26.6 179.05 27.25 179.1 27.45 179.15 29.2 179.15 30.95 179.15 31.05 179.1
L 31.15 179.1 31.15 178.6
Q 31.15 178.15 31.1 178.1 31.05 178.1 30.15 178.1 29.3 178.1 28.8 178.05 28.5 178.05 28.4 178.05 28.3 178 28.15 177.95 27.75 177.7 27.55 177.35 27.45 177.15 27.4 176.9 27.35 176.7 27.35 175.9
L 27.35 174.95 28.6 174.95
Q 29.85 174.95 29.95 174.9
L 30.05 174.9 30 174.05 29.95 174
Q 29.85 174 28.6 174
L 27.35 174 27.35 171.6
M 22 170.65
Q 21.95 170.7 21.9 172.35
L 21.9 174 19.15 174 19.15 172.35
Q 19.15 170.7 19.1 170.65 19.05 170.65 18.1 170.65 17.15 170.65 17.1 170.65 17.05 170.7 17.05 174.9 17.05 179.1 17.1 179.1 17.15 179.15 18.1 179.15 19.05 179.15 19.1 179.1
L 19.1 179.05
Q 19.1 178.95 19.15 178.7 19.15 178.45 19.15 178.1 19.15 177.7 19.15 177
L 19.15 174.9 21.9 174.95 21.9 177
Q 21.95 179.1 22 179.1 22 179.15 22.95 179.15 23.9 179.15 23.95 179.1
L 23.95 174.9
Q 23.95 170.7 23.95 170.65 23.9 170.65 22.95 170.65
L 22 170.65
M 8.55 170.65
L 8.55 171.5 8.65 171.55
Q 8.75 171.55 9.95 171.55
L 11.2 171.55 11.2 175.35
Q 11.2 179.1 11.25 179.15 11.3 179.15 12.25 179.15 13.2 179.15 13.25 179.15 13.3 179.1 13.3 175.35
L 13.3 171.55 14.4 171.55
Q 15.55 171.55 15.6 171.55
L 15.7 171.5 15.7 170.65 15.45 170.65
Q 15.25 170.6 12.15 170.6 9.05 170.6 8.8 170.65
L 8.55 170.65
M 138.95 180.8
Q 138.75 181 138.6 181.35
L 134.75 189.75 132.55 184.95
Q 131.3 182.3 130.55 180.8 130.5 180.7 130.45 180.65
L 127.3 180.7
Q 127.3 180.75 127.3 180.8 127.25 183.15 127.25 187.7 127.25 192.35 127.3 194.75
L 129.95 194.75
Q 130.05 193.35 130.05 190.6
L 130.1 186.5 133.95 194.8 135.45 194.8 139.2 186.6 139.2 190.65
Q 139.25 193.35 139.3 194.75
L 142.1 194.75
Q 142.15 194.35 142.2 193.55
L 142.2 187.7
Q 142.2 183.15 142.1 180.8 142.1 180.75 142.1 180.7
L 139.05 180.65
Q 139 180.7 138.95 180.8
M 120.45 180.8
Q 120.35 180.75 120.25 180.75 118.4 180.3 116.45 180.75 116.35 180.75 116.3 180.8 114.55 181.35 113.2 182.6 112.1 183.75 111.6 185.2 111.15 186.7 111.25 188.25 111.4 189.85 112.05 191.15 112.8 192.65 114.3 193.65 115.8 194.65 117.65 194.8 119.6 194.9 121.45 194.15 123.35 193.35 124.35 191.8 125.1 190.6 125.35 189.1
L 125.45 187.6 125.35 186.1
Q 124.9 183.95 123.55 182.6 122.2 181.3 120.45 180.8
M 115.3 184.8
Q 115.7 183.55 116.45 182.75 117.3 182.1 118.35 182.05 119.55 182.05 120.3 182.8 121.15 183.65 121.5 185.1 121.8 186.25 121.8 187.65 121.8 189.7 121.25 191.05 120.6 192.85 119 193.25 118.2 193.5 117.35 193.1 116.45 192.8 115.9 191.9 115.3 191 115.05 189.5
L 115 186.05 115.3 184.8
M 92.9 182.2
L 93.1 182.15 93.1 180.7 92.65 180.65 87.8 180.65
Q 84.9 180.7 83.4 180.7 83.4 180.75 83.4 180.8 83.35 182.7 83.35 186.25
L 83.35 191.75 83.45 192.1
Q 83.85 193.25 84.7 193.95 85.6 194.65 86.6 194.75
L 89.85 194.8
Q 91.8 194.8 92.95 194.75
L 93.1 194.75 93.1 193.95
Q 93.1 193.4 93.05 193.1
L 89.25 193
Q 88.85 193 88.55 192.95 88.3 192.9 88.15 192.8 87.4 192.45 87.1 191.85
L 86.85 191.1 86.8 187.8 88.85 187.8
Q 90.25 187.8 91.1 187.75
L 91.25 187.7 91.2 186.3 91.1 186.25
Q 90.25 186.2 88.9 186.2
L 86.8 186.2 86.8 182.2 92.9 182.2
M 97.45 180.65
L 94.3 180.7
Q 94.3 180.75 94.3 180.8 94.25 183.15 94.25 187.7 94.25 192.35 94.3 194.75
L 96.95 194.75
Q 97.05 193.35 97.05 190.6
L 97.1 186.5 100.95 194.8 102.45 194.8 106.2 186.6 106.2 190.65
Q 106.25 193.35 106.3 194.75
L 109.1 194.75
Q 109.15 194.35 109.2 193.55
L 109.2 187.7
Q 109.2 183.15 109.1 180.8 109.1 180.75 109.1 180.7
L 106.05 180.65
Q 106 180.7 105.95 180.8 105.75 181 105.6 181.35
L 101.75 189.75 99.55 184.95
Q 98.3 182.3 97.55 180.8 97.5 180.7 97.45 180.65
M 75.95 180.8
Q 75.65 180.75 75.35 180.7
L 71.9 180.65
Q 69.9 180.65 68.85 180.7 68.85 180.75 68.85 180.8 68.8 182.95 68.8 187.15
L 68.8 194.2
Q 68.8 194.45 68.85 194.65 68.9 194.75 68.95 194.75 70 194.8 71.8 194.8
L 74.85 194.75
Q 76 194.7 77.05 194.3 78.85 193.7 80 192.4 81.2 191.15 81.6 189.25
L 81.75 187.65 81.6 186
Q 81.15 183.9 80 182.7 78.5 181.3 75.95 180.8
M 75.15 182.9
Q 76.35 183.5 77.1 184.6 77.85 185.8 77.95 187.4 78.05 189 77.35 190.3 76.85 191.3 76.05 191.95 75.25 192.7 74.35 192.9
L 72.3 193 72.3 182.4 73.05 182.4
Q 74.25 182.5 75.15 182.9
M 57.3 180.8
Q 55.55 181.35 54.2 182.6 53.1 183.75 52.6 185.2 52.15 186.7 52.25 188.25 52.4 189.85 53.05 191.15 53.8 192.65 55.3 193.65 56.8 194.65 58.65 194.8 60.6 194.9 62.45 194.15 64.35 193.35 65.35 191.8 66.1 190.6 66.35 189.1
L 66.45 187.6 66.35 186.1
Q 65.9 183.95 64.55 182.6 63.2 181.3 61.45 180.8 61.35 180.75 61.25 180.75 59.4 180.3 57.45 180.75 57.35 180.75 57.3 180.8
M 57.45 182.75
Q 58.3 182.1 59.35 182.05 60.55 182.05 61.3 182.8 62.15 183.65 62.5 185.1 62.8 186.25 62.8 187.65 62.8 189.7 62.25 191.05 61.6 192.85 60 193.25 59.2 193.5 58.35 193.1 57.45 192.8 56.9 191.9 56.3 191 56.05 189.5
L 56 186.05 56.3 184.8
Q 56.7 183.55 57.45 182.75
M 32.45 180.8
Q 32.35 180.75 32.25 180.75 30.4 180.3 28.45 180.75 28.35 180.75 28.3 180.8 26.55 181.35 25.2 182.6 24.1 183.75 23.6 185.2 23.15 186.7 23.25 188.25 23.4 189.85 24.05 191.15 24.8 192.65 26.3 193.65 27.8 194.65 29.65 194.8 31.6 194.9 33.45 194.15 35.35 193.35 36.35 191.8 37.1 190.6 37.35 189.1
L 37.45 187.6 37.35 186.1
Q 36.9 183.95 35.55 182.6 34.2 181.3 32.45 180.8
M 32.3 182.8
Q 33.15 183.65 33.5 185.1 33.8 186.25 33.8 187.65 33.8 189.7 33.25 191.05 32.6 192.85 31 193.25 30.2 193.5 29.35 193.1 28.45 192.8 27.9 191.9 27.3 191 27.05 189.5
L 27 186.05 27.3 184.8
Q 27.7 183.55 28.45 182.75 29.3 182.1 30.35 182.05 31.55 182.05 32.3 182.8
M 39.25 180.75
L 39.25 180.8
Q 39.2 183.15 39.2 187.75 39.2 192.4 39.25 194.75
L 42.05 194.75
Q 42.15 193.9 42.15 192.2
L 42.2 189.75 42.8 189.3
Q 43.2 189 43.45 188.85 44 189.75 45.05 191.4 45.15 191.6 45.3 191.8
L 46.85 194.25
Q 47.05 194.6 47.25 194.75 47.95 194.8 48.95 194.8
L 50.4 194.75
Q 50.5 194.75 50.5 194.7 49.6 193.35 48 190.8 46.4 188.25 45.6 186.9 46.4 185.85 48.05 183.8
L 50.25 180.9
Q 50.3 180.85 50.35 180.8 50.4 180.7 50.35 180.7
L 47.25 180.7
Q 47.2 180.75 47.15 180.8 46.45 181.65 45.2 183.1
L 42.15 187.15 42.15 183.95
Q 42.15 181.9 42.05 180.8
L 42.05 180.75 39.25 180.75
M 20 182.7
Q 18.5 181.3 15.95 180.8 15.65 180.75 15.35 180.7
L 11.9 180.65
Q 9.9 180.65 8.85 180.7 8.85 180.75 8.85 180.8 8.8 182.95 8.8 187.15
L 8.8 194.2
Q 8.8 194.45 8.85 194.65 8.9 194.75 8.95 194.75 10 194.8 11.8 194.8
L 14.85 194.75
Q 16 194.7 17.05 194.3 18.85 193.7 20 192.4 21.2 191.15 21.6 189.25
L 21.75 187.65 21.6 186
Q 21.15 183.9 20 182.7
M 13.05 182.4
Q 14.25 182.5 15.15 182.9 16.35 183.5 17.1 184.6 17.85 185.8 17.95 187.4 18.05 189 17.35 190.3 16.85 191.3 16.05 191.95 15.25 192.7 14.35 192.9
L 12.3 193 12.3 182.4 13.05 182.4
M 201.3 180.7
Q 201.3 180.75 201.3 180.8 201.25 183.15 201.25 187.7 201.25 192.4 201.35 194.75
L 204.65 194.75
Q 204.7 194.55 204.7 194.15
L 204.75 188.55 204.85 188.55
Q 205.65 189.6 207.05 191.65
L 208.8 194.2
Q 209.05 194.55 209.3 194.75 210 194.8 211.2 194.8 212.4 194.8 213 194.75
L 210.75 191.45
Q 209.25 189.25 208.55 188.1
L 208.85 187.95 210.2 187
Q 210.9 186.35 211.1 185.5
L 211.25 184.55
Q 211.25 183.15 210.35 182.15 209.35 181.1 207.65 180.8 207.3 180.75 206.9 180.7
L 203.85 180.65
Q 202.15 180.65 201.3 180.7
M 205.25 182.35
Q 206.45 182.35 207.1 183 207.5 183.4 207.65 183.95 207.8 184.65 207.65 185.2 207.5 185.8 207.05 186.25
L 206.05 186.9 205.25 187 204.75 187 204.75 182.35 205.25 182.35 Z"/>

            <path fill="#6699CC" stroke="none" d="
M 200.1 180.7
L 199.65 180.65 194.8 180.65
Q 191.9 180.7 190.4 180.7 190.4 180.75 190.4 180.8 190.35 182.7 190.35 186.25
L 190.35 191.75 190.45 192.1
Q 190.85 193.25 191.7 193.95 192.6 194.65 193.6 194.75
L 196.85 194.8
Q 198.8 194.8 199.95 194.75
L 200.1 194.75 200.1 193.95
Q 200.1 193.4 200.05 193.1
L 196.25 193
Q 195.85 193 195.55 192.95 195.3 192.9 195.15 192.8 194.4 192.45 194.1 191.85
L 193.85 191.1 193.8 187.8 195.85 187.8
Q 197.25 187.8 198.1 187.75
L 198.25 187.7 198.2 186.3 198.1 186.25
Q 197.25 186.2 195.9 186.2
L 193.8 186.2 193.8 182.2 199.9 182.2 200.1 182.15 200.1 180.7 Z"/>

            <path fill="#FF9966" stroke="none" d="
M 163.45 183.05
L 163.25 181.65
Q 163.1 181.25 162.7 180.8 162.6 180.7 162.45 180.55 162 180.1 161.3 179.8 160.8 179.6 160.25 179.5
L 157.2 179.5 154.95 180.1
Q 154.05 180.4 153.2 180.8 150.6 182 148.35 184.05 145.45 186.75 144.5 189.7 144.15 190.75 144.15 191.7 144.15 194.35 146.35 195.35 147.35 195.9 148.45 195.95 151 196.2 154.05 194.95 157.05 193.75 159.65 191.45
L 160.9 190.15
Q 161.15 189.85 161.35 189.65 161.5 189.45 161.6 189.3 161.4 189.35 161.1 189.55 160.1 190.2 159.2 190.75 158.85 190.9 158.55 191.1 157.65 191.6 156.8 192 156.75 192 156.75 192.05
L 156.7 192.05
Q 154.1 193.25 151.95 193.65
L 149.4 193.75 148.85 193.6
Q 147 193.15 146.5 191.4 146.2 190.45 146.5 189.3 147.1 186.9 149.35 184.7 151.6 182.55 154.5 181.6 157.6 180.65 159.65 181.65
L 160.45 182.25 160.95 182.85 161.15 183.55
Q 161.3 184.85 160.45 186.15
L 159.25 187.55
Q 158.6 188.25 157.9 188.55 156.7 189.15 156.75 188.5 157.15 187.5 157.95 185.85 158.8 184.25 159.15 183.4
L 156.8 183.4
Q 156.65 183.5 156.6 183.6
L 156.55 183.8 155.75 183.4 154.95 183.35 154.05 183.45
Q 153.15 183.7 152 184.4 150.8 185.15 150.15 186 149.35 186.9 148.85 187.95 148.35 188.95 148.15 189.8 147.95 191.45 149 191.95 149.15 192.05 149.35 192.1
L 149.95 192.1 151 191.95
Q 151.45 191.8 151.9 191.55 152.35 191.3 152.8 191
L 153.2 190.75
Q 153.2 190.8 153.15 190.9
L 153.15 191.45 153.45 191.8
Q 153.75 192.05 154.65 191.8
L 156.35 191.2 158.15 190.2 160.2 188.6 161.85 186.95
Q 163.45 184.95 163.45 183.05
M 155.15 184.55
Q 155.3 184.75 155.35 184.85 155.6 185.55 154.65 187.25 153.7 188.9 152.6 189.9
L 151.45 190.6
Q 151 190.75 150.7 190.6 150.4 190.45 150.35 189.9 150.3 189.4 150.65 188.5
L 151.65 186.65 152.45 185.65 153.35 184.9 154.45 184.45 155.15 184.55 Z"/>

            <path fill="#66FF99" stroke="none" d="
M 176.25 182.15
L 180.4 182.15 180.4 188.45
Q 180.4 192.65 180.5 194.8
L 183.85 194.8
Q 183.95 192.65 183.95 188.45
L 183.95 182.15 185.8 182.15
Q 187.05 182.15 187.8 182.1
L 187.95 182.1 187.95 180.65 187.55 180.6 176.45 180.6 176.05 180.65 176.05 182.1 176.25 182.15 Z"/>

            <path fill="#FFCC66" stroke="none" d="
M 173.3 182.15
L 173.45 182.1 173.45 180.65 173.3 180.6 168.45 180.65
Q 167.9 180.7 167.45 180.8 166.55 181 165.85 181.45 164.8 182.2 164.4 183.25 163.65 185.45 165.3 187
L 166.25 187.7 168.5 189
Q 169.85 189.75 170.4 190.35 170.95 190.95 170.85 191.75 170.8 192.8 169.65 193
L 164.7 193.1 164.6 193.2 164.6 194.65
Q 164.65 194.8 164.7 194.8
L 170.1 194.8 171.35 194.5
Q 172.4 194.15 173.05 193.45 174.05 192.4 174.1 191.2 174.2 190 173.4 188.9
L 172.25 187.85 170.05 186.55
Q 167.9 185.45 167.4 184.55
L 167.2 183.8 167.35 183.1
Q 167.75 182.45 168.65 182.2
L 171.05 182.2
Q 172.45 182.2 173.3 182.15 Z"/>

            <path fill="#86B24F" stroke="none" d="
M 211.8 229.4
L 211.8 206.2 189.05 206.2 189.05 229.4 211.8 229.4 Z"/>

            <path fill="#999999" stroke="none" d="
M 96.7 81.6
Q 96.75 81.4 96.7 81.2 96.6 79.6 97.3 77.75
L 93.8 78.8 74.9 80.7
Q 72.85 83.95 75.5 87.15
L 94.4 85.35 98.5 85.6
Q 98.35 85.35 98.15 85.2 96.95 83.7 96.7 81.6 Z"/>

            <path fill="#333333" stroke="none" d="
M 97.9 76.3
Q 97.5 77 97.3 77.75 96.6 79.6 96.7 81.2 96.75 81.4 96.7 81.6 96.95 83.7 98.15 85.2 98.35 85.35 98.5 85.6 98.85 86.05 99.45 86.55
L 99.55 86.6
Q 99.6 86.7 99.7 86.8 102.15 88.45 105.2 88.15 108.1 87.9 110.1 85.95 110.3 85.75 110.5 85.5 112.6 83.1 112.3 80.15 112.15 78.8 111.6 77.65 110.9 76.2 109.55 75.05 107 73.15 103.75 73.55 100.65 73.75 98.5 76.1
L 98.5 76.15
Q 98.2 76.55 98.05 76.25 98.05 76.2 98 76.15 97.9 76.15 97.9 76.3 Z"/>
        </g>

        <g id="Layer0_0_FILL">
            <path fill="#000000" stroke="none" d="
M 203 216.3
Q 203.25 216.3 203.45 216.1 203.65 215.9 203.65 215.6 203.65 215.25 203.45 215.1 203.25 214.9 203 214.9 202.75 214.9 202.55 215.1 202.4 215.25 202.4 215.6 202.4 215.9 202.55 216.1 202.75 216.3 203 216.3 Z"/>
        </g>

        <path id="Layer1_0_1_STROKES" stroke="#000000" stroke-width="1" stroke-linejoin="round" stroke-linecap="round"
              fill="none" d="
M 111.6 77.65
Q 114.3 78.9 117.75 78.1 122.35 82.3 125.75 81.45 126 81.4 126.2 81.3 126.95 81.05 127.75 80.45
M 110.1 85.95
Q 111.25 89.3 114.2 91.1 121.1 93.5 125.75 81.45"/>

        <path id="Layer0_0_1_STROKES" stroke="#FFFFFF" stroke-width="0.5" stroke-linejoin="round" stroke-linecap="round"
              fill="none" d="
M 206.25 215.25
Q 206.0318359375 215.795703125 206 216.5 205.986328125 216.7638671875 206 217.05 206 217.4216796875 206.025 217.775 206.4060546875 217.970703125 206.625 218.35
M 205.05 217.55
Q 204.8595703125 217.5361328125 204.65 217.55 204.2443359375 217.7001953125 204 217.85 203.76640625 218.000390625 203.625 218.125 203.5595703125 218.18046875 203.525 218.35 203.4794921875 218.54765625 203.475 218.9 203.45546875 219.5599609375 204.1 219.875 204.75 220.183203125 205.3 219.8 205.412109375 219.701953125 205.5 219.6 205.769921875 219.337890625 205.95 219.05
L 206.075 218.425
Q 206.0705078125 218.387109375 206.075 218.35 206.058203125 218.2865234375 206.05 218.225 206.0337890625 218.0005859375 206.025 217.775 205.6248046875 217.5638671875 205.05 217.55 Z
M 206.075 218.425
Q 206.1470703125 218.887890625 206.25 219.3 206.3109375 219.4625 206.425 219.6 206.5625 219.8015625 206.8 219.95
M 202.75 217.2
Q 202.65 217.8 202.675 218.35 202.676171875 218.85 202.7 219.35 202.7 219.5 202.75 219.65 202.85 220.1 203 220.5
M 208.1 217.75
Q 207.9845703125 218.1193359375 207.925 218.35 207.873046875 218.6193359375 207.9 218.7
L 208.975 218.775
Q 209.45703125 218.80234375 209.8 218.35 209.84609375 218.2703125 209.9 218.175 210.2669921875 217.5376953125 209.1 217.4
L 208.7 217.4 208.1 217.75 Z
M 211 219.55
Q 210.55 220.3 209.3 220.3 208.8455078125 220.2509765625 208.525 220.05 208.2328125 219.85859375 208.025 219.6
L 208 219.575
Q 207.76640625 219.29609375 207.9 218.7 207.6162109375 218.673046875 207.4 218.5
M 190 215.65
Q 190.43828125 215.4552734375 190.975 215.375 191.557421875 215.2986328125 192.25 215.35 192.35 215.35 192.55 215.35 193.316015625 215.533984375 193.7 216.1 193.904296875 216.5939453125 193.8 217.1 193.687109375 217.6177734375 193.275 217.85
L 193.8 218.35
Q 193.95 219.15 193.85 219.325 193.6111328125 219.8369140625 193.275 220.1 192.9439453125 220.3537109375 191.9 220.55 190.8525390625 220.7509765625 190.5 220.65 190.275 220.65 190.05 220.65
M 193.275 217.85
Q 193.065625 218.089453125 192.8 218.2 192.3 218.3 191.75 218.4 191.1814453125 218.440625 190.8 218.325
L 190.5 220.65
M 190.8 218.325
Q 190.725 218.2875 190.65 218.25
L 190.65 217.95
Q 190.807421875 217.8068359375 191.025 217.725
L 190.975 215.375
M 194.9 218.5
Q 195.1583984375 218.5861328125 195.3 218.55 195.125390625 218.133984375 195.9 217.45 196.600390625 217.08828125 196.925 217.375 197.2498046875 217.6537109375 197.3 218.15 197 218.5 196.3 218.55 196.15 218.6 195.95 218.6 195.69453125 218.6212890625 195.3 218.55 195.0275390625 219.565234375 195.925 219.8 196.8236328125 220.03984375 197.55 219.6
M 191.025 217.725
Q 191.572265625 217.49296875 192.5 217.6 192.75 217.6 192.95 217.7 193.1111328125 217.78046875 193.275 217.85
M 197.3 220.95
Q 198.05 220.65 198.45 220.05 199 219.1 199.45 218.05
L 199.45 218.025
Q 199.0130859375 216.6810546875 197.55 215.65 197.15 215.3 196.7 215.45
M 201.6 215.35
Q 200.743359375 215.996484375 200.25 216.7 199.7587890625 217.3990234375 199.45 218.025
L 200.35 219.5
Q 200.6439453125 219.81640625 200.95 219.95 201.2203125 220.0537109375 201.5 220 201.7220703125 219.9763671875 201.95 219.85"/>
    </defs>

    <g transform="matrix( 1, 0, 0, 1, 0,0) ">
        <use xlink:href="#Layer4_0_FILL"/>
    </g>

    <g transform="matrix( 1, 0, 0, 1, 0,0) ">
        <use xlink:href="#Layer3_0_FILL"/>
    </g>

    <g transform="matrix( 1, 0, 0, -0.5429840087890625, 8.8,202) ">
        <g transform="matrix( 1, 0, 0, 1, 0,0) ">
            <use filter="url(#Filter_1)" xlink:href="#logo_0_Layer0_0_FILL"/>
        </g>
    </g>

    <g transform="matrix( 1, 0, 0, 1, 0,0) ">
        <use xlink:href="#Layer1_0_FILL"/>

        <use xlink:href="#Layer1_0_1_STROKES"/>
    </g>

    <g transform="matrix( 1, 0, 0, 1, 0,0) ">
        <use xlink:href="#Layer0_0_FILL"/>

        <use xlink:href="#Layer0_0_1_STROKES"/>
    </g>
</svg>
