<svg xmlns:xlink="http://www.w3.org/1999/xlink" xmlns="http://www.w3.org/2000/svg" version="1.1"
     preserveAspectRatio="none" x="0px" y="0px" width="550px" height="400px" viewBox="0 0 550 400">
    <defs>
        <g id="Layer3_0_FILL">
            <path fill="#FF9900" stroke="none" d="
M 564.45 421.95
L 564.45 -9 -17 -9 -17 421.95 564.45 421.95 Z"/>
        </g>

        <g id="Layer2_0_FILL">
            <path fill="#000000" stroke="none" d="
M 272.1 101.2
Q 271.06015625 100.4767578125 269.95 99.65 272.1732421875 103.4158203125 272.1 101.2
M 272.1 101.2
Q 272.082421875 100.987109375 272.05 100.7 270.8634765625 99.12890625 269.85 97.85 268.633203125 97.4177734375 269.9 99.6
L 269.95 99.65
Q 271.06015625 100.4767578125 272.1 101.2
M 272.05 100.7
Q 272.36796875 101.1265625 272.7 101.55 271.8994140625 99.2505859375 271.85 99.3 271.8 99.35 272.05 100.7
M 272.7 101.55
Q 272.36796875 101.1265625 272.05 100.7 272.082421875 100.987109375 272.1 101.2 272.4142578125 101.425 272.7 101.65 272.7138671875 101.6177734375 272.7 101.55
M 277 101.5
L 277.4 99.7
Q 276.830859375 99.37265625 276.2 99.05 276.322265625 99.928515625 277 101.5
M 277.45 99.5
L 277.4 99.7
Q 278.3552734375 100.2427734375 279.15 100.85 278.07734375 98.6880859375 277.45 99.5
M 281.65 102.85
Q 281.9810546875 103.0939453125 282.65 103.8 282.5484375 103.2216796875 282.65 102.9 282.803515625 102.2474609375 283.55 102.9 281.1798828125 100.593359375 279.15 99.15 275.94765625 96.9439453125 276.2 99.05 276.830859375 99.37265625 277.4 99.7
L 277.45 99.5
Q 278.07734375 98.6880859375 279.15 100.85 280.508984375 101.838671875 281.5 103 281.4 102.85 281.4 102.8 281.35 102.6 281.65 102.85
M 286.45 107.9
Q 285.9859375 107.9291015625 285.55 107.9
L 285.15 113.2
Q 285 117.5 286.25 112.5 286.8685546875 110.048046875 286.45 107.9
M 285.1 106.4
Q 285.3552734375 106.676171875 285.6 106.95 285.8998046875 106.94765625 286.2 106.95 285.9544921875 106.090625 285.5 105.3 285.4251953125 105.9853515625 285.1 106.4
M 284.45 106.95
Q 284.9689453125 106.9451171875 285.6 106.95 285.3552734375 106.676171875 285.1 106.4 284.86796875 106.773828125 284.45 106.95
M 284.45 106.95
Q 284.212890625 106.9515625 284 106.95 283.1392578125 106.9712890625 282.65 107 281.268359375 107.17578125 283.35 107.65 284 107.8 285.55 107.9 285.9859375 107.9291015625 286.45 107.9 286.0166015625 107.4076171875 285.6 106.95 284.9689453125 106.9451171875 284.45 106.95
M 284 106.95
Q 284.212890625 106.9515625 284.45 106.95 284.86796875 106.773828125 285.1 106.4 283.5833984375 104.711328125 282.65 103.8 282.90859375 104.899609375 284 106.95
M 286.45 107.9
Q 286.3748046875 107.4291015625 286.2 106.95 285.8998046875 106.94765625 285.6 106.95 286.0166015625 107.4076171875 286.45 107.9
M 286.2 106.95
L 286.25 106.95 286.3 106.9
Q 286.0283203125 105.69140625 285.5 104.4 285.5427734375 104.9041015625 285.5 105.3 285.9544921875 106.090625 286.2 106.95
M 286.25 106.95
L 286.3 106.95 286.3 106.9 286.25 106.95
M 285.5 104.4
Q 285.0205078125 103.226953125 284.3 102 283.15 100.1 282.85 100.4 282.55 100.65 284.1 103.4 284.940234375 104.3001953125 285.5 105.3 285.5427734375 104.9041015625 285.5 104.4
M 284.1 103.4
Q 283.8095703125 103.086328125 283.55 102.9 282.803515625 102.2474609375 282.65 102.9 282.5484375 103.2216796875 282.65 103.8 283.5833984375 104.711328125 285.1 106.4 285.4251953125 105.9853515625 285.5 105.3 284.940234375 104.3001953125 284.1 103.4
M 290.15 105
Q 290.7455078125 104.7888671875 291.25 104.65 291.0185546875 103.64765625 289.85 102.55 288.2 100.95 286.85 101.15 285.25 101.35 285.5 104.25 285.508203125 104.34296875 285.5 104.4 286.0283203125 105.69140625 286.3 106.9
L 290.15 105
M 221.25 53.8
Q 219.144921875 54.007421875 218.3 54.3 220.31171875 55.0240234375 221.25 53.8
M 221.25 53.8
Q 221.847265625 53.1130859375 222.05 51.7
L 218.3 54.3
Q 219.144921875 54.007421875 221.25 53.8
M 225.05 49.55
Q 224.590234375 49.944140625 224 50.4
L 222.05 51.7
Q 221.847265625 53.1130859375 221.25 53.8 222.4275390625 53.719921875 223.95 53.65 226.2123046875 52.847265625 225.05 49.55
M 221.9 44.85
Q 221.8 45.55 222.15 49.15 222.2146484375 50.64765625 222.05 51.7
L 224 50.4
Q 224.590234375 49.944140625 225.05 49.55 224.641796875 48.3173828125 223.75 46.75 222.05 43.75 221.9 44.85
M 268.85 96.7
Q 268.8345703125 96.6896484375 268.8 96.65 266.03125 93.480078125 267.2 96.4
L 268.85 96.7
M 269.85 97.85
Q 269.959375 97.9296875 270.1 98 270.95 98.45 274.4 101.05 281.45 106.4 280 102.75 279.5546875 101.610546875 279.15 100.85 278.3552734375 100.2427734375 277.4 99.7
L 277 101.5
Q 276.322265625 99.928515625 276.2 99.05 274.1078125 98.0259765625 271.45 97.25
L 268.85 96.7
Q 269.3359375 97.2662109375 269.85 97.85
M 270.1 98
Q 269.959375 97.9296875 269.85 97.85 270.8634765625 99.12890625 272.05 100.7 271.8 99.35 271.85 99.3 271.8994140625 99.2505859375 272.7 101.55 272.7138671875 101.6177734375 272.7 101.65 279.483203125 106.4083984375 282.65 107 283.1392578125 106.9712890625 284 106.95 282.90859375 104.899609375 282.65 103.8 281.9810546875 103.0939453125 281.65 102.85 281.35 102.6 281.4 102.8 281.4 102.85 281.5 103 280.508984375 101.838671875 279.15 100.85 279.5546875 101.610546875 280 102.75 281.45 106.4 274.4 101.05 270.95 98.45 270.1 98
M 267.95 98.1
Q 267.473046875 97.083984375 267.2 96.4
L 265.25 96
Q 266.6603515625 97.125 267.95 98.1
M 267.2 96.4
Q 267.473046875 97.083984375 267.95 98.1 268.9771484375 98.9142578125 269.9 99.6 268.633203125 97.4177734375 269.85 97.85 269.3359375 97.2662109375 268.85 96.7
L 267.2 96.4
M 306.95 11.3
L 306.95 8.45 294.45 8.2 294.45 8.85 306.95 11.3
M 306.95 8.45
L 304 5 298.5 5 294.45 8.2 306.95 8.45
M 384.45 121.5
L 371.95 121.5 368.95 121.5 368.95 132 374.3 141.15 376.45 139 384.45 147.5 384.45 121.5
M 368.95 115.5
L 368.95 121.5 371.95 121.5 371.95 115.5 368.95 115.5
M 369.95 95.5
L 384.45 95.5 384.45 92 373.45 92 369.95 95.5
M 166 -1
Q 166.691796875 0.3833984375 167.4 -0.7 165.25546875 -2.4888671875 166 -1
M 168.55 -3.5
Q 168.8130859375 -4.161328125 169.05 -4.55
L 162.35 -4.7 168.55 -3.5
M 141.9 -2.2
L 132.6 -5.4 -17 -9 -13 417.95 564.45 421.95 564.45 97 539 81.25 475.6 67.8 443.45 67 373.45 92 384.45 92 384.45 95.5 389.45 95.5 384.45 95.5 384.45 121.5 384.45 147.5 376.45 139 374.3 141.15 375.95 144 374.3 141.15 368.45 147 360.95 138.5 352.45 145 346.45 138.5 338.45 145 331.45 136.5 321.45 144.5 314.95 137 306.95 144 306.95 23.85 306.95 19.35 306.95 15.35 306.95 11.3 294.45 8.85 294.45 12.9 294.45 16.85 299.45 17.85 294.45 16.85 294.45 16.9 294.45 21.1 303.25 22.85 294.45 21.1 294.45 21.4 294.45 106.25 294.45 107
Q 292.694140625 107.2943359375 291.15 107.45 292.694140625 107.2943359375 294.45 107
L 294.45 106.25
Q 294.152734375 103.9994140625 291.25 104.65 291.3583984375 105.09140625 291.3 105.5 291.2490234375 105.9083984375 291 106.2 291.2490234375 105.9083984375 291.3 105.5 291.3583984375 105.09140625 291.25 104.65 290.7455078125 104.7888671875 290.15 105
L 286.3 106.9 286.3 106.95
Q 287.08046875 106.9732421875 288 107 288.5517578125 107.0177734375 289 106.95 288.5517578125 107.0177734375 288 107 287.08046875 106.9732421875 286.3 106.95 286.408203125 107.4404296875 286.45 107.9 287.645703125 107.9201171875 289.1 107.7 287.645703125 107.9201171875 286.45 107.9 286.8685546875 110.048046875 286.25 112.5 285 117.5 285.15 113.2
L 285.55 107.9
Q 284 107.8 283.35 107.65 281.268359375 107.17578125 282.65 107 279.483203125 106.4083984375 272.7 101.65 272.4142578125 101.425 272.1 101.2 272.1732421875 103.4158203125 269.95 99.65
L 269.9 99.6
Q 268.9771484375 98.9142578125 267.95 98.1 266.6603515625 97.125 265.25 96 265.5 91.55 265.65 88.45 265.9 82.3 265.25 89 264.9 92.75 264.75 93.05 264.65 93.2 264.15 91.85 262.5 87.55 259.25 90 255.95 92.5 251.35 83.9 249.25 80.05 249 79.75 248.25 78.95 248.5 82.5 248.95 88.7 242.85 80.35 240.1 76.35 239.3 75.35 238.15 73.8 239.25 76.5 240.4 79.3 239.5 78.35 239.2 78 236.7 74.6 231.6 67.6 231.75 71 231.85 74.05 227.95 66.3 223.9 58.3 223.75 61.25 223.65 63.25 220.95 61.45 218.6 59.9 215.8 56.8 213 53.7 212.75 52.35 212.45 50.85 216.25 53.25 217.382421875 53.9748046875 218.3 54.3
L 222.05 51.7
Q 222.2146484375 50.64765625 222.15 49.15 221.8 45.55 221.9 44.85 222.05 43.75 223.75 46.75 224.641796875 48.3173828125 225.05 49.55 228.6642578125 46.5 225.75 46.5
L 228.8 45.35
Q 230.95 43.65 226.25 41 223.7 39.55 223.5 39.2 223.4 38.95 224.55 39.15 227.7 39.6 226.25 38 224.75 36.4 228.65 34.25 230.25 33.4 230.35 33 230.55 32.4 228.25 32 224.45 31.3 227.2 29.7 227.8 29.35 228.65 28.85 228.95 28.6 227.25 28.75 224.2 29.05 223.4 25.7 223.15 24.15 223.05 23.75 222.9 23.15 222.5 23.75 223.05 22.7 223.5 20.8 224.4 16.85 220 19 215.9 21 212.8 16 211.45 13.55 210.85 12.75 209.9 11.45 209 12.25 207.7 13.45 198.75 7.6 190.6 2.3 190.75 5 190.9 7.6 188.8 5.45 186.75 3.35 187 6.25 187.3 9.65 181.5 7.7 175.3 5.6 175.25 5.75 175 6.35 169.7 1.35 168.3177734375 0.055078125 167.4 -0.7 166.691796875 0.3833984375 166 -1 165.25546875 -2.4888671875 167.4 -0.7 167.8076171875 -1.238671875 168.2 -2.45 168.38203125 -3.0375 168.55 -3.5
L 162.35 -4.7 132.6 -5.4 141.9 -2.2 Z"/>
        </g>

        <g id="Layer1_0_FILL">
            <path fill="#FFFFFF" stroke="none" d="
M 63.5 298
Q 61.55 305.15 58.5 319.4 56.493359375 334.55078125 55.5 349.8 57.1 352.35 62.45 352.6
L 66.2 319.4 72.85 319.4
Q 72.43203125 337.776171875 77.15 351.55 81.85 350.55 82.25 348.45
L 81.25 339.55
Q 80.4578125 329.499609375 80.2 319.4 81 304.95 81.7 297.4
L 72 278 63.5 298
M 72 278
L 74.45 276.9
Q 74.300390625 271.879296875 72 266.5 71.2734375 271.8865234375 72 278
M 70 266.5
L 64.1 262.3
Q 59.41953125 261.8583984375 56.4 276.8 53.4373046875 291.7388671875 56.7 295.2 60.00546875 298.7201171875 63.5 298
L 72 278 65.55 275.05
Q 67.4501953125 270.1 70 266.5
M 64.85 275.25
Q 64.8208984375 275.501171875 64.8 275.75
L 64.8 277.1 64.8 279.6 64.8 277.1
Q 64.11796875 281.5658203125 59 289 58.519140625 287.7619140625 60.95 277.2 63.0654296875 271.168359375 64.9 271.45 63.0654296875 271.168359375 60.95 277.2 58.519140625 287.7619140625 59 289 64.11796875 281.5658203125 64.8 277.1
L 64.8 275.75 64.8 274.45
Q 64.76640625 273.676953125 64.8 272.85 64.8140625 272.5046875 64.85 272.15 64.8140625 272.5046875 64.8 272.85 64.76640625 273.676953125 64.8 274.45 64.8166015625 274.8638671875 64.85 275.25
M 66.6 256.8
L 65.85 257.75 65.85 261.5 66.6 261.5 66.6 256.8
M 91.75 266.25
L 84.55 263.5
Q 81.141796875 265.9169921875 77 266.5 79.7873046875 270.017578125 80.75 273.9 80.4537109375 274.094140625 80.2 274.35
L 74.45 276.9 72 278 81.7 297.4 82.5 299
Q 87.892578125 302.6599609375 90.6 300.2 93.95390625 288.2705078125 94.95 272.3 94.3568359375 268.4388671875 91.75 266.25
M 86.5 286
L 83.75 280 82.75 277.85 83.75 280 84 271.5 86.5 274 86.5 286
M 81.2 274.75
L 81.15 274.65 81.2 274.65
Q 81.1990234375 274.70859375 81.2 274.75
M 83.75 280
L 86.5 286 86.5 274 84 271.5 83.75 280
M 124.2 242.3
Q 124.7287109375 226.534765625 122.75 215.5
L 108.25 163.75 89 202 68 200
Q 60.4900390625 178.9501953125 53.3 160.6 37.05625 190.4740234375 30.5 224.5
L 28.2 235.85
Q 25.912890625 251.2173828125 44.7 254.85 44.7212890625 254.91484375 46.45 253.55
L 44.75 254.95 65.85 257.75 66.6 256.8 81.75 259.45 66.6 256.8 66.6 261.5 70 262 76 262
Q 79.4439453125 261.30859375 82.35 259.7 82.7060546875 259.7822265625 82.95 259.65
L 84.55 259.95 84.55 258.8 84 258.7
Q 83.6673828125 258.949609375 83.3 259.15 83.6673828125 258.949609375 84 258.7
L 78.1 258 84 258.7
Q 84.2765625 258.545703125 84.55 258.35
L 84.55 258.8 84.55 259.95 87.95 259.5 107.45 260.25
Q 123.7220703125 258.108203125 124.2 242.3 Z"/>

            <path fill="#006633" stroke="none" d="
M 72 266.5
L 70 266.5
Q 67.4501953125 270.1 65.55 275.05
L 72 278
Q 71.2734375 271.8865234375 72 266.5
M 77 266.5
L 72 266.5
Q 74.300390625 271.879296875 74.45 276.9
L 80.2 274.35
Q 80.4537109375 274.094140625 80.75 273.9 79.7873046875 270.017578125 77 266.5
M 70 262
L 70 266.5 72 266.5 77 266.5 76 262 70 262
M 64.1 262.3
L 70 266.5 70 262 66.6 261.5 65.85 261.5 64.1 262.3
M 84.55 259.95
L 84.55 263.5 91.75 266.25
Q 90.58671875 262.4125 87.95 259.5
L 84.55 259.95
M 82.95 259.65
Q 82.7060546875 259.7822265625 82.35 259.7 79.4439453125 261.30859375 76 262
L 77 266.5
Q 81.141796875 265.9169921875 84.55 263.5
L 84.55 259.95 82.95 259.65
M 84.55 258.35
Q 84.2765625 258.545703125 84 258.7
L 84.55 258.8 84.55 258.35 Z"/>
        </g>

        <g id="Layer0_0_FILL">
            <path fill="#FFFFFF" stroke="none" d="
M 363.2 236.2
Q 363.1 236.05 363 235.85
L 362.9 235.85 362.9 235.75 362.3 235.45
Q 362.05 235.45 361.85 235.45 361.65 235.45 361.45 235.5 361.25 235.6 361.05 235.7 360.9 235.8 360.7 235.95 360.65 236.05 360.6 236.15 360.55 236.2 360.5 236.35 360.5 236.45 360.45 236.55 360.4 236.65 360.35 236.75 360.4 236.95 360.4 237.1 360.4 237.3 360.5 237.45 360.6 237.65 360.7 237.75 360.85 237.85 360.95 238.05
L 361.8 238.45
Q 362 238.45 362.15 238.45 362.3 238.45 362.45 238.4 362.6 238.35 362.75 238.25 362.9 238.15 363 238.1
L 363.35 237.4
Q 363.35 237.15 363.35 236.95 363.35 236.75 363.3 236.55 363.3 236.35 363.2 236.2
M 356.2 227.95
Q 356.2 227.6 356.2 227.35 356.2 227.1 356.15 226.8 356.15 226.55 356.1 226.3 356 226.05 355.85 225.85
L 355.25 225.55
Q 355.1 225.55 354.95 225.55 354.85 225.55 354.7 225.6 354.55 225.6 354.45 225.7 354.3 225.8 354.2 225.85 354.15 225.95 354.1 226.05 354.05 226.15 354 226.25 353.95 226.4 353.95 226.45 353.9 226.55 353.85 226.65
L 353.9 227.1 353.85 234.05 353.6 234.25 353.55 234.35
Q 353.25 234.6 353 234.8 352.75 235.05 352.5 235.25 352.2 235.4 351.85 235.5 351.5 235.6 351.2 235.7 350.9 235.75 350.65 235.65 350.35 235.6 350.05 235.5 349.8 235.45 349.55 235.35 349.3 235.3 349 235.25
L 349 235.1 348.85 235.05
Q 348.6 234.65 348.4 234.15 348.25 233.7 348.15 233.25 348.05 232.75 347.95 232.25 347.9 231.75 347.8 231.25
L 347.95 227.45
Q 347.95 227.2 347.95 226.95 347.95 226.75 347.95 226.45 347.95 226.2 347.85 226 347.75 225.8 347.65 225.6
L 347.05 225.35
Q 346.9 225.35 346.75 225.35 346.65 225.35 346.5 225.35 346.35 225.4 346.25 225.45 346.1 225.55 346 225.6 345.65 226.1 345.6 226.7 345.6 227.3 345.6 227.95 345.6 228.6 345.6 229.25 345.6 229.9 345.55 230.5 345.55 231.3 345.6 232.1 345.7 232.95 345.9 233.7 346.05 234.45 346.3 235.2 346.6 235.95 347.1 236.6 347.45 236.95 347.85 237.15 348.25 237.4 348.65 237.55 349.05 237.7 349.5 237.8 349.95 237.85 350.35 238 350.8 238 351.3 237.95 351.75 237.9 352.15 237.8 352.55 237.7 353 237.55 353.4 237.45 353.75 237.1
L 353.9 237.1 354.2 237.75 354.8 238.05
Q 354.95 238.05 355.1 238.05 355.2 238.05 355.35 238 355.5 238 355.6 237.9 355.75 237.8 355.85 237.75
L 356.15 237.15 356.2 227.95
M 332.15 217.55
Q 332.05 217.55 331.9 217.55 331.75 217.6 331.65 217.7 331.55 217.75 331.4 217.85 331.35 217.95 331.25 218.05 331.2 218.2 331.15 218.3 331.1 218.4 331.1 218.55 331.05 218.7 331 218.8
L 331.05 220.15
Q 331.05 221.05 331.05 221.95 331.05 222.8 331.05 223.7 331.05 224.6 331 225.45 330.95 226.3 330.9 227.2
L 330.9 235.05
Q 330.95 235.45 330.95 235.85 331 236.2 331 236.65 331 237.05 331.05 237.45 331.1 237.85 331.35 238.15
L 331.95 238.45
Q 332.1 238.45 332.25 238.45 332.35 238.45 332.5 238.4 332.65 238.4 332.75 238.3 332.9 238.2 333 238.15
L 333.3 237.55 333.15 234.05 333.75 233.65 334.6 232.6
Q 335.2 233 335.8 233.6 336.35 234.25 336.9 234.8 337.45 235.4 338.05 235.95 338.6 236.5 339.05 237.15
L 339.6 237.45
Q 339.8 237.45 339.95 237.45 340.1 237.45 340.25 237.4 340.4 237.4 340.5 237.3 340.6 237.2 340.75 237.15
L 341 236.6
Q 341 236.4 341 236.3 341 236.15 341 236 340.95 235.85 340.9 235.75 340.8 235.65 340.75 235.5
L 340.6 235.5 340.6 235.4 336.3 230.95
Q 336.65 230.6 337.1 230.25 337.55 229.9 338 229.5 338.45 229.15 338.85 228.7 339.25 228.3 339.75 227.95
L 340.1 227.2
Q 340.1 227 340.1 226.9 340.1 226.75 340.05 226.6 340.05 226.45 339.95 226.3 339.85 226.2 339.8 226.1
L 339.2 225.8
Q 339.05 225.8 338.9 225.8 338.8 225.8 338.65 225.8 338.5 225.85 338.4 225.95 338.25 226.05 338.15 226.1 337.75 226.6 337.25 227.1 336.75 227.55 336.2 228 335.7 228.5 335.15 228.85 334.65 229.25 334.1 229.7
L 333.3 230.65 333.15 230.65
Q 333.15 229.95 333.15 229.25 333.15 228.55 333.15 227.8 333.15 227.1 333.25 226.4 333.3 225.75 333.35 225.05
L 333.35 219.05
Q 333.35 218.9 333.35 218.7 333.35 218.55 333.3 218.4 333.3 218.25 333.2 218.1 333.1 217.95 333.05 217.85
L 332.45 217.55
Q 332.3 217.55 332.15 217.55
M 324.95 228.35
L 324.55 228.1 323.95 227.2 323.4 226.85 323.4 226.75
Q 323.2 226.6 323.05 226.55 322.85 226.45 322.65 226.35 322.45 226.25 322.25 226.2 322.05 226.15 321.85 226.1 321.2 226.1 320.55 226.1 319.85 226.1 319.3 226.3 318.7 226.5 318.15 226.8 317.65 227.15 317.1 227.55 316.7 228.1 316.3 228.6 315.9 229.1 315.65 229.65 315.4 230.2 315.25 230.75 315.1 231.35 315.05 232 315.05 232.7 315.25 233.35 315.4 234 315.65 234.6 315.9 235.15 316.3 235.75 316.75 236.3 317.1 236.8 317.4 237.1 317.75 237.35 318.1 237.55 318.45 237.8 318.75 238.05 319.15 238.15 319.5 238.2 319.95 238.35 320.55 238.25 321.2 238.2 321.85 238.15 322.5 238.05 323.15 237.9 323.7 237.65 324.25 237.35 324.8 237
L 325.45 236.35
Q 325.65 236 325.9 235.65 326.1 235.35 326.25 235 326.45 234.65 326.6 234.3 326.75 233.95 326.8 233.55 326.85 232.75 326.75 232.05 326.65 231.35 326.4 230.7 326.15 230.05 325.8 229.5 325.45 228.9 324.95 228.35
M 324.25 231.55
Q 324.45 231.9 324.5 232.25 324.5 232.7 324.45 233.1 324.45 233.55 324.25 233.9 324.05 234.25 323.8 234.6 323.6 234.95 323.25 235.25 322.9 235.4 322.6 235.6 322.25 235.75 321.9 235.85 321.55 235.95 321.2 235.95 320.8 236 320.45 236.05 320.15 236.1 319.95 236 319.75 235.95 319.5 235.8 319.3 235.7 319.1 235.5 318.95 235.3 318.7 235.25 318.5 234.9 318.3 234.55 318.05 234.25 317.9 233.9 317.7 233.55 317.6 233.15 317.45 232.75 317.35 232.4 317.35 232 317.4 231.6 317.45 231.2 317.6 230.85 317.75 230.5 317.95 230.15 318.15 229.8 318.45 229.5 318.65 229.25 318.85 229.15 319.1 229 319.35 228.85 319.6 228.7 319.8 228.6 320.05 228.5 320.3 228.45
L 321.7 228.5
Q 321.85 228.6 322.05 228.7 322.2 228.85 322.4 229 322.55 229.15 322.7 229.3 322.85 229.5 323 229.65
L 323.1 229.7
Q 323.4 230 323.6 230.3 323.8 230.6 323.95 230.9 324.1 231.25 324.25 231.55
M 308.25 220.95
Q 308.25 221.2 308.2 221.45 308.2 222.15 308.2 222.9 308.2 223.65 308.25 224.3 308.35 224.95 308.35 225.7 308.35 226.45 308.45 227.1
L 308.45 227.8 307.45 227.45
Q 306.75 227.4 306.05 227.45 305.4 227.5 304.8 227.7 304.15 227.9 303.6 228.15 303 228.45 302.45 228.9 302.1 229.3 301.8 229.7 301.45 230.15 301.3 230.65 301.2 231.15 301.1 231.6 301 232.1 300.95 232.65 300.95 233.2 301 233.65 301.05 234.15 301.25 234.65 301.4 235.1 301.75 235.5 302.05 235.85 302.35 236.3 302.75 236.65 303.15 236.9 303.6 237.15 303.95 237.5 304.35 237.8 304.8 238 305.3 238.15 305.75 238.2 306.2 238.2 306.65 238.2 307.1 238.15 307.5 238.1 307.9 238.05 308.35 238 308.75 237.9 309.15 237.75
L 309.3 237.75 309.45 238.05
Q 309.55 238.1 309.65 238.15 309.75 238.2 309.85 238.25 309.95 238.25 310.05 238.3 310.15 238.35 310.25 238.4 310.4 238.35 310.5 238.35 310.6 238.35 310.75 238.25 310.85 238.2 310.95 238.15 311 238.1 311.15 238.05
L 311.45 237.45
Q 311.15 235.8 311.1 234.1 311 232.4 310.95 230.7 310.9 229 310.75 227.3 310.55 225.6 310.5 223.9
L 310.6 220.45
Q 310.6 220.3 310.6 220.15 310.6 220.05 310.6 219.9 310.55 219.75 310.45 219.65 310.4 219.5 310.3 219.4
L 309.75 219.1
Q 309.55 219.1 309.45 219.1 309.3 219.1 309.2 219.15 309.05 219.15 308.9 219.25 308.8 219.35 308.7 219.4 308.5 219.65 308.45 219.9 308.4 220.1 308.35 220.35 308.25 220.65 308.25 220.95
M 303.4 231.75
Q 303.45 231.4 303.65 231.1 303.8 230.75 304.05 230.5
L 306 229.8 307.1 229.8
Q 307.25 229.85 307.45 230 307.6 230.15 307.85 230.25 308.05 230.35 308.2 230.55 308.35 230.7 308.45 230.9
L 308.55 230.95 308.85 235.15 308.8 235.45
Q 308.55 235.6 308.3 235.65 308.05 235.7 307.8 235.75 307.55 235.8 307.25 235.85 307 235.85 306.75 235.95 306.35 236 305.9 235.9 305.5 235.8 305.2 235.6 304.85 235.4 304.6 235.15 304.3 234.95 303.95 234.7 303.85 234.5 303.75 234.35 303.6 234.15 303.5 234 303.4 233.8 303.35 233.6 303.3 233.4 303.25 233.25 303.25 232.85 303.25 232.45 303.3 232.1 303.4 231.75
M 294.55 228.1
L 293.95 227.2 293.4 226.85 293.4 226.75
Q 293.2 226.6 293.05 226.55 292.85 226.45 292.65 226.35 292.45 226.25 292.25 226.2 292.05 226.15 291.85 226.1 291.2 226.1 290.55 226.1 289.85 226.1 289.3 226.3 288.7 226.5 288.15 226.8 287.65 227.15 287.1 227.55 286.7 228.1 286.3 228.6 285.9 229.1 285.65 229.65 285.4 230.2 285.25 230.75 285.1 231.35 285.05 232 285.05 232.7 285.25 233.35 285.4 234 285.65 234.6 285.9 235.15 286.3 235.75 286.75 236.3 287.1 236.8 287.4 237.1 287.75 237.35 288.1 237.55 288.45 237.8 288.75 238.05 289.15 238.15 289.5 238.2 289.95 238.35 290.55 238.25 291.2 238.2 291.85 238.15 292.5 238.05 293.15 237.9 293.7 237.65 294.25 237.35 294.8 237
L 295.45 236.35
Q 295.65 236 295.9 235.65 296.1 235.35 296.25 235 296.45 234.65 296.6 234.3 296.75 233.95 296.8 233.55 296.85 232.75 296.75 232.05 296.65 231.35 296.4 230.7 296.15 230.05 295.8 229.5 295.45 228.9 294.95 228.35
L 294.55 228.1
M 293.95 230.9
Q 294.1 231.25 294.25 231.55 294.45 231.9 294.5 232.25 294.5 232.7 294.45 233.1 294.45 233.55 294.25 233.9 294.05 234.25 293.8 234.6 293.6 234.95 293.25 235.25 292.9 235.4 292.6 235.6 292.25 235.75 291.9 235.85 291.55 235.95 291.2 235.95 290.8 236 290.45 236.05 290.15 236.1 289.95 236 289.75 235.95 289.5 235.8 289.3 235.7 289.1 235.5 288.95 235.3 288.7 235.25 288.5 234.9 288.3 234.55 288.05 234.25 287.9 233.9 287.7 233.55 287.6 233.15 287.45 232.75 287.35 232.4 287.35 232 287.4 231.6 287.45 231.2 287.6 230.85 287.75 230.5 287.95 230.15 288.15 229.8 288.45 229.5 288.65 229.25 288.85 229.15 289.1 229 289.35 228.85 289.6 228.7 289.8 228.6 290.05 228.5 290.3 228.45
L 291.7 228.5
Q 291.85 228.6 292.05 228.7 292.2 228.85 292.4 229 292.55 229.15 292.7 229.3 292.85 229.5 293 229.65
L 293.1 229.7
Q 293.4 230 293.6 230.3 293.8 230.6 293.95 230.9
M 272.4 218.05
Q 272.3 218.05 272.15 218.1 272 218.1 271.9 218.2 271.75 218.3 271.65 218.35 271.6 218.45 271.55 218.55 271.45 218.65 271.45 218.75 271.4 218.9 271.4 218.95 271.35 219.05 271.3 219.15
L 271.25 236.5 271.2 236.6
Q 271.2 236.85 271.2 237.15 271.2 237.45 271.2 237.75 271.2 238.05 271.25 238.3 271.35 238.55 271.55 238.8
L 272.1 239.1
Q 272.3 239.1 272.4 239.1 272.55 239.1 272.65 239.05 272.8 239.05 272.95 238.95 273.05 238.85 273.15 238.8
L 273.5 238.15 273.45 237.65 273.5 231.15 274.05 230.9
Q 274.25 230.65 274.35 230.4 274.45 230.15 274.6 229.85 274.75 229.6 274.9 229.35 275.05 229.15 275.2 228.9
L 275.35 228.9
Q 275.7 230.15 276.15 231.35 276.55 232.55 277.05 233.75 277.5 234.95 278 236.1 278.5 237.3 278.95 238.5
L 279.6 238.85
Q 279.8 238.85 279.9 238.85 280.05 238.85 280.15 238.85 280.3 238.8 280.45 238.7 280.55 238.65 280.65 238.55
L 280.95 238
Q 280.75 236.45 280.1 235 279.45 233.6 278.9 232.15 278.35 230.7 277.85 229.25 277.4 227.8 276.7 226.3 277.1 225.5 277.6 224.75 278.15 224 278.6 223.2 279.05 222.4 279.55 221.6 280.05 220.8 280.5 220.05 280.5 219.9 280.5 219.75 280.5 219.6 280.45 219.45 280.45 219.3 280.35 219.15 280.25 219.05 280.2 218.95
L 279.6 218.65
Q 279.45 218.65 279.3 218.65 279.2 218.65 279.05 218.65 278.9 218.7 278.8 218.8 278.7 218.9 278.55 218.95
L 278.35 219.15
Q 277.75 220.15 277.15 221.1 276.55 222.05 276 223 275.4 224 274.8 224.9 274.15 225.85 273.7 226.85
L 273.6 226.85 273.65 224.6
Q 273.65 223.8 273.65 223 273.65 222.2 273.6 221.45 273.6 220.65 273.6 219.8 273.65 219 273.3 218.35
L 272.7 218.05
Q 272.55 218.05 272.4 218.05
M 249.95 228.35
L 249.55 228.1 248.95 227.2 248.4 226.85 248.4 226.75
Q 248.2 226.6 248.05 226.55 247.85 226.45 247.65 226.35 247.45 226.25 247.25 226.2 247.05 226.15 246.85 226.1 246.2 226.1 245.55 226.1 244.85 226.1 244.3 226.3 243.7 226.5 243.15 226.8 242.65 227.15 242.1 227.55 241.7 228.1 241.3 228.6 240.9 229.1 240.65 229.65 240.4 230.2 240.25 230.75 240.1 231.35 240.05 232 240.05 232.7 240.25 233.35 240.4 234 240.65 234.6 240.9 235.15 241.3 235.75 241.75 236.3 242.1 236.8 242.4 237.1 242.75 237.35 243.1 237.55 243.45 237.8 243.75 238.05 244.15 238.15 244.5 238.2 244.95 238.35 245.55 238.25 246.2 238.2 246.85 238.15 247.5 238.05 248.15 237.9 248.7 237.65 249.25 237.35 249.8 237
L 250.45 236.35
Q 250.65 236 250.9 235.65 251.1 235.35 251.25 235 251.45 234.65 251.6 234.3 251.75 233.95 251.8 233.55 251.85 232.75 251.75 232.05 251.65 231.35 251.4 230.7 251.15 230.05 250.8 229.5 250.45 228.9 249.95 228.35
M 244.35 228.85
Q 244.6 228.7 244.8 228.6 245.05 228.5 245.3 228.45
L 246.7 228.5
Q 246.85 228.6 247.05 228.7 247.2 228.85 247.4 229 247.55 229.15 247.7 229.3 247.85 229.5 248 229.65
L 248.1 229.7
Q 248.4 230 248.6 230.3 248.8 230.6 248.95 230.9 249.1 231.25 249.25 231.55 249.45 231.9 249.5 232.25 249.5 232.7 249.45 233.1 249.45 233.55 249.25 233.9 249.05 234.25 248.8 234.6 248.6 234.95 248.25 235.25 247.9 235.4 247.6 235.6 247.25 235.75 246.9 235.85 246.55 235.95 246.2 235.95 245.8 236 245.45 236.05 245.15 236.1 244.95 236 244.75 235.95 244.5 235.8 244.3 235.7 244.1 235.5 243.95 235.3 243.7 235.25 243.5 234.9 243.3 234.55 243.05 234.25 242.9 233.9 242.7 233.55 242.6 233.15 242.45 232.75 242.35 232.4 242.35 232 242.4 231.6 242.45 231.2 242.6 230.85 242.75 230.5 242.95 230.15 243.15 229.8 243.45 229.5 243.65 229.25 243.85 229.15 244.1 229 244.35 228.85
M 235.85 228.55
Q 235.55 228.3 235.2 228.15 234.85 228 234.45 228 234.1 227.95 233.75 227.8 233.35 227.8 232.95 227.8 232.55 227.8 232.2 227.85 231.85 227.9 231.5 227.95 231.1 228 230.8 228.2 230.45 228 230.1 227.75 229.75 227.5 229.35 227.35 229 227.2 228.55 227.2 228.1 227.2 227.7 227.15 227.7 227 227.7 226.9 227.7 226.75 227.65 226.6 227.65 226.5 227.55 226.4 227.45 226.25 227.4 226.15
L 226.8 225.85
Q 226.65 225.85 226.55 225.85 226.4 225.85 226.25 225.9 226.1 225.9 226 226 225.9 226.1 225.75 226.15 225.2 227.45 225.1 228.95 225.05 230.4 224.85 231.85 224.65 233.3 224.5 234.75 224.35 236.15 224.2 237.55 224.2 237.7 224.25 237.8 224.3 237.9 224.3 238.05 224.3 238.2 224.4 238.3 224.5 238.4 224.55 238.5 224.65 238.55 224.75 238.65 224.85 238.7 224.95 238.7 225.05 238.75 225.15 238.75 225.25 238.8 225.35 238.85 225.5 238.8 225.6 238.8 225.7 238.8 225.85 238.75 225.95 238.7 226.05 238.65 226.1 238.55 226.25 238.5 226.6 237.5 226.65 236.4 226.7 235.3 226.8 234.2 226.95 233.1 227.1 232.05 227.25 230.95 227.3 229.85
L 227.95 229.55
Q 228.1 229.55 228.25 229.55 228.4 229.55 228.55 229.55 228.7 229.6 228.8 229.7 228.95 229.8 229.05 229.85 229.7 230.7 229.75 231.75 229.8 232.75 229.85 233.8 229.95 234.9 229.95 235.95 229.95 237.05 230.3 238
L 230.85 238.25
Q 231.05 238.25 231.2 238.25 231.35 238.25 231.5 238.25 231.65 238.2 231.75 238.15 231.85 238.05 232 238
L 232.25 237.4
Q 232.25 236.5 232.2 235.65 232.15 234.75 232.15 233.9 232.1 233 232 232.1 231.9 231.25 231.8 230.4
L 231.8 230.25 232.25 230.05
Q 232.55 230.05 232.9 230.05 233.2 230.05 233.45 230.15 233.75 230.2 234.05 230.25 234.3 230.3 234.55 230.4 234.85 231.35 235.05 232.35 235.2 233.3 235.2 234.3 235.2 235.35 235.25 236.4 235.25 237.45 235.75 238.35
L 236.3 238.65
Q 236.5 238.65 236.6 238.65 236.75 238.65 236.85 238.6 237 238.55 237.15 238.5 237.25 238.4 237.35 238.35
L 237.65 237.75
Q 237.5 236.7 237.5 235.5 237.55 234.35 237.45 233.25 237.3 232.2 237.1 231.1 236.9 230 236.45 229.1 236.15 228.8 235.85 228.55
M 218.45 226.1
Q 218.1 225.8 217.7 225.7 217.25 225.55 216.8 225.55 216.2 225.5 215.65 225.6 215.1 225.7 214.6 225.8 214.1 225.95 213.65 226.25 213.25 226.55 212.75 226.85 212.25 227.3 211.9 227.85 211.55 228.35 211.3 228.95 211.1 229.55 211 230.15 210.9 230.75 210.75 231.4 210.75 232.2 210.8 232.95 210.85 233.7 211.05 234.4 211.3 235.05 211.75 235.6 212.15 236.15 212.65 236.75 213.05 237.15 213.5 237.5 213.95 237.85 214.45 238 214.95 238.15 215.45 238.35 216 238.5 216.5 238.55 216.9 238.5 217.35 238.5 217.8 238.45 218.25 238.4 218.7 238.35 219.05 238.25 219.45 238.15 219.8 237.85
L 220.1 237.3
Q 220.1 237.1 220.1 236.95 220.1 236.8 220.05 236.65 220.05 236.5 219.95 236.4 219.85 236.3 219.8 236.15
L 219.2 235.85
Q 218.85 235.8 218.6 235.95 218.4 236.05 218.1 236.1 217.8 236.15 217.5 236.15 217.2 236.15 216.9 236.3 216.55 236.3 216.3 236.2 216 236.1 215.65 236 215.35 235.95 215.05 235.8 214.75 235.65 214.5 235.4 214.3 235.15 214.05 234.9 213.8 234.65 213.6 234.35 213.4 234.05 213.3 233.75 213.15 233.4 213.05 233.1
L 213.05 231.65
Q 213.65 231.7 214.2 231.9 214.75 232.05 215.35 232.1 215.9 232.2 216.5 232.25 217.1 232.35 217.7 232.45 218.05 232.45 218.4 232.4 218.75 232.35 219.1 232.35 219.5 232.35 219.85 232.35 220.2 232.3 220.5 232.05
L 220.8 231.5
Q 220.8 230.9 220.8 230.35 220.8 229.8 220.65 229.25 220.55 228.7 220.35 228.25 220.15 227.75 219.8 227.25 219.45 226.95 219.1 226.65 218.8 226.4 218.45 226.1
M 214.25 228.7
Q 214.45 228.5 214.7 228.35 214.95 228.25 215.2 228.1 215.45 227.95 215.75 227.9 216 227.9 216.2 227.9 216.45 227.9 216.7 227.9 216.9 227.9 217.15 228 217.35 228.15 217.5 228.3 217.7 228.5 217.85 228.65 218.05 228.85 218.15 229 218.25 229.2 218.35 229.4 218.45 229.6 218.5 229.85
L 218.5 230.15 218.2 230.2
Q 217.6 230.2 217.05 230.05 216.5 229.95 215.9 229.9 215.3 229.9 214.75 229.7 214.25 229.5 213.7 229.35
L 213.75 229.15
Q 214 228.9 214.25 228.7
M 205.45 219.65
Q 205.4 219.5 205.3 219.4
L 204.75 219.1
Q 204.55 219.1 204.45 219.1 204.3 219.1 204.2 219.15 204.05 219.15 203.9 219.25 203.8 219.35 203.7 219.4 203.5 219.65 203.45 219.9 203.4 220.1 203.35 220.35 203.25 220.65 203.25 220.95 203.25 221.2 203.2 221.45 203.2 222.15 203.2 222.9 203.2 223.65 203.25 224.3 203.35 224.95 203.35 225.7 203.35 226.45 203.45 227.1
L 203.45 227.8 202.45 227.45
Q 201.75 227.4 201.05 227.45 200.4 227.5 199.8 227.7 199.15 227.9 198.6 228.15 198 228.45 197.45 228.9 197.1 229.3 196.8 229.7 196.45 230.15 196.3 230.65 196.2 231.15 196.1 231.6 196 232.1 195.95 232.65 195.95 233.2 196 233.65 196.05 234.15 196.25 234.65 196.4 235.1 196.75 235.5 197.05 235.85 197.35 236.3 197.75 236.65 198.15 236.9 198.6 237.15 198.95 237.5 199.35 237.8 199.8 238 200.3 238.15 200.75 238.2 201.2 238.2 201.65 238.2 202.1 238.15 202.5 238.1 202.9 238.05 203.35 238 203.75 237.9 204.15 237.75
L 204.3 237.75 204.45 238.05
Q 204.55 238.1 204.65 238.15 204.75 238.2 204.85 238.25 204.95 238.25 205.05 238.3 205.15 238.35 205.25 238.4 205.4 238.35 205.5 238.35 205.6 238.35 205.75 238.25 205.85 238.2 205.95 238.15 206 238.1 206.15 238.05
L 206.45 237.45
Q 206.15 235.8 206.1 234.1 206 232.4 205.95 230.7 205.9 229 205.75 227.3 205.55 225.6 205.5 223.9
L 205.6 220.45
Q 205.6 220.3 205.6 220.15 205.6 220.05 205.6 219.9 205.55 219.75 205.45 219.65
M 202.85 230.25
Q 203.05 230.35 203.2 230.55 203.35 230.7 203.45 230.9
L 203.55 230.95 203.85 235.15 203.8 235.45
Q 203.55 235.6 203.3 235.65 203.05 235.7 202.8 235.75 202.55 235.8 202.25 235.85 202 235.85 201.75 235.95 201.35 236 200.9 235.9 200.5 235.8 200.2 235.6 199.85 235.4 199.6 235.15 199.3 234.95 198.95 234.7 198.85 234.5 198.75 234.35 198.6 234.15 198.5 234 198.4 233.8 198.35 233.6 198.3 233.4 198.25 233.25 198.25 232.85 198.25 232.45 198.3 232.1 198.4 231.75 198.45 231.4 198.65 231.1 198.8 230.75 199.05 230.5
L 201 229.8 202.1 229.8
Q 202.25 229.85 202.45 230 202.6 230.15 202.85 230.25
M 182.1 227.55
Q 181.7 228.1 181.3 228.6 180.9 229.1 180.65 229.65 180.4 230.2 180.25 230.75 180.1 231.35 180.05 232 180.05 232.7 180.25 233.35 180.4 234 180.65 234.6 180.9 235.15 181.3 235.75 181.75 236.3 182.1 236.8 182.4 237.1 182.75 237.35 183.1 237.55 183.45 237.8 183.75 238.05 184.15 238.15 184.5 238.2 184.95 238.35 185.55 238.25 186.2 238.2 186.85 238.15 187.5 238.05 188.15 237.9 188.7 237.65 189.25 237.35 189.8 237
L 190.45 236.35
Q 190.65 236 190.9 235.65 191.1 235.35 191.25 235 191.45 234.65 191.6 234.3 191.75 233.95 191.8 233.55 191.85 232.75 191.75 232.05 191.65 231.35 191.4 230.7 191.15 230.05 190.8 229.5 190.45 228.9 189.95 228.35
L 189.55 228.1 188.95 227.2 188.4 226.85 188.4 226.75
Q 188.2 226.6 188.05 226.55 187.85 226.45 187.65 226.35 187.45 226.25 187.25 226.2 187.05 226.15 186.85 226.1 186.2 226.1 185.55 226.1 184.85 226.1 184.3 226.3 183.7 226.5 183.15 226.8 182.65 227.15 182.1 227.55
M 184.35 228.85
Q 184.6 228.7 184.8 228.6 185.05 228.5 185.3 228.45
L 186.7 228.5
Q 186.85 228.6 187.05 228.7 187.2 228.85 187.4 229 187.55 229.15 187.7 229.3 187.85 229.5 188 229.65
L 188.1 229.7
Q 188.4 230 188.6 230.3 188.8 230.6 188.95 230.9 189.1 231.25 189.25 231.55 189.45 231.9 189.5 232.25 189.5 232.7 189.45 233.1 189.45 233.55 189.25 233.9 189.05 234.25 188.8 234.6 188.6 234.95 188.25 235.25 187.9 235.4 187.6 235.6 187.25 235.75 186.9 235.85 186.55 235.95 186.2 235.95 185.8 236 185.45 236.05 185.15 236.1 184.95 236 184.75 235.95 184.5 235.8 184.3 235.7 184.1 235.5 183.95 235.3 183.7 235.25 183.5 234.9 183.3 234.55 183.05 234.25 182.9 233.9 182.7 233.55 182.6 233.15 182.45 232.75 182.35 232.4 182.35 232 182.4 231.6 182.45 231.2 182.6 230.85 182.75 230.5 182.95 230.15 183.15 229.8 183.45 229.5 183.65 229.25 183.85 229.15 184.1 229 184.35 228.85
M 166.9 217.55
Q 166.75 217.6 166.65 217.7 166.55 217.75 166.4 217.85 166.35 217.95 166.25 218.05 166.2 218.2 166.15 218.3 166.1 218.4 166.1 218.55 166.05 218.7 166 218.8
L 166.05 220.15
Q 166.05 221.05 166.05 221.95 166.05 222.8 166.05 223.7 166.05 224.6 166 225.45 165.95 226.3 165.9 227.2
L 165.9 235.05
Q 165.95 235.45 165.95 235.85 166 236.2 166 236.65 166 237.05 166.05 237.45 166.1 237.85 166.35 238.15
L 166.95 238.45
Q 167.1 238.45 167.25 238.45 167.35 238.45 167.5 238.4 167.65 238.4 167.75 238.3 167.9 238.2 168 238.15
L 168.3 237.55 168.15 234.05 168.75 233.65 169.6 232.6
Q 170.2 233 170.8 233.6 171.35 234.25 171.9 234.8 172.45 235.4 173.05 235.95 173.6 236.5 174.05 237.15
L 174.6 237.45
Q 174.8 237.45 174.95 237.45 175.1 237.45 175.25 237.4 175.4 237.4 175.5 237.3 175.6 237.2 175.75 237.15
L 176 236.6
Q 176 236.4 176 236.3 176 236.15 176 236 175.95 235.85 175.9 235.75 175.8 235.65 175.75 235.5
L 175.6 235.5 175.6 235.4 171.3 230.95
Q 171.65 230.6 172.1 230.25 172.55 229.9 173 229.5 173.45 229.15 173.85 228.7 174.25 228.3 174.75 227.95
L 175.1 227.2
Q 175.1 227 175.1 226.9 175.1 226.75 175.05 226.6 175.05 226.45 174.95 226.3 174.85 226.2 174.8 226.1
L 174.2 225.8
Q 174.05 225.8 173.9 225.8 173.8 225.8 173.65 225.8 173.5 225.85 173.4 225.95 173.25 226.05 173.15 226.1 172.75 226.6 172.25 227.1 171.75 227.55 171.2 228 170.7 228.5 170.15 228.85 169.65 229.25 169.1 229.7
L 168.3 230.65 168.15 230.65
Q 168.15 229.95 168.15 229.25 168.15 228.55 168.15 227.8 168.15 227.1 168.25 226.4 168.3 225.75 168.35 225.05
L 168.35 219.05
Q 168.35 218.9 168.35 218.7 168.35 218.55 168.3 218.4 168.3 218.25 168.2 218.1 168.1 217.95 168.05 217.85
L 167.45 217.55
Q 167.3 217.55 167.15 217.55 167.05 217.55 166.9 217.55
M 159.95 228.35
L 159.55 228.1 158.95 227.2 158.4 226.85 158.4 226.75
Q 158.2 226.6 158.05 226.55 157.85 226.45 157.65 226.35 157.45 226.25 157.25 226.2 157.05 226.15 156.85 226.1 156.2 226.1 155.55 226.1 154.85 226.1 154.3 226.3 153.7 226.5 153.15 226.8 152.65 227.15 152.1 227.55 151.7 228.1 151.3 228.6 150.9 229.1 150.65 229.65 150.4 230.2 150.25 230.75 150.1 231.35 150.05 232 150.05 232.7 150.25 233.35 150.4 234 150.65 234.6 150.9 235.15 151.3 235.75 151.75 236.3 152.1 236.8 152.4 237.1 152.75 237.35 153.1 237.55 153.45 237.8 153.75 238.05 154.15 238.15 154.5 238.2 154.95 238.35 155.55 238.25 156.2 238.2 156.85 238.15 157.5 238.05 158.15 237.9 158.7 237.65 159.25 237.35 159.8 237
L 160.45 236.35
Q 160.65 236 160.9 235.65 161.1 235.35 161.25 235 161.45 234.65 161.6 234.3 161.75 233.95 161.8 233.55 161.85 232.75 161.75 232.05 161.65 231.35 161.4 230.7 161.15 230.05 160.8 229.5 160.45 228.9 159.95 228.35
M 154.8 228.6
Q 155.05 228.5 155.3 228.45
L 156.7 228.5
Q 156.85 228.6 157.05 228.7 157.2 228.85 157.4 229 157.55 229.15 157.7 229.3 157.85 229.5 158 229.65
L 158.1 229.7
Q 158.4 230 158.6 230.3 158.8 230.6 158.95 230.9 159.1 231.25 159.25 231.55 159.45 231.9 159.5 232.25 159.5 232.7 159.45 233.1 159.45 233.55 159.25 233.9 159.05 234.25 158.8 234.6 158.6 234.95 158.25 235.25 157.9 235.4 157.6 235.6 157.25 235.75 156.9 235.85 156.55 235.95 156.2 235.95 155.8 236 155.45 236.05 155.15 236.1 154.95 236 154.75 235.95 154.5 235.8 154.3 235.7 154.1 235.5 153.95 235.3 153.7 235.25 153.5 234.9 153.3 234.55 153.05 234.25 152.9 233.9 152.7 233.55 152.6 233.15 152.45 232.75 152.35 232.4 152.35 232 152.4 231.6 152.45 231.2 152.6 230.85 152.75 230.5 152.95 230.15 153.15 229.8 153.45 229.5 153.65 229.25 153.85 229.15 154.1 229 154.35 228.85 154.6 228.7 154.8 228.6
M 143.75 220.75
L 143.6 220.75 143.2 220.05 142.85 219.7
Q 142.4 219.35 141.9 219.05 141.45 218.75 140.9 218.6 140.4 218.45 139.85 218.4 139.3 218.35 138.7 218.3 138.5 218.3 138.35 218.3 138.15 218.3 138 218.3 137.8 218.35 137.65 218.45 137.55 218.55 137.35 218.6 137.1 218.9 137.05 219.25 137 219.6 137 219.95 137 220.3 137 220.65 137 221.05 136.95 221.4
L 136.75 234.45
Q 136.75 235 136.75 235.5 136.75 236 136.8 236.5 136.8 237 136.95 237.4 137.1 237.85 137.35 238.25 137.45 238.35 137.6 238.4 137.75 238.5 137.9 238.55 138.05 238.55 138.2 238.6 138.35 238.65 138.45 238.7 139.15 238.7 139.75 238.45 140.35 238.2 140.9 238 141.5 237.75 142.1 237.5 142.7 237.3 143.2 236.85
L 143.45 236.65 143.6 236.3 143.75 236.3
Q 144.2 235.5 144.6 234.75 145.05 233.95 145.3 233.1 145.6 232.25 145.65 231.3 145.75 230.35 145.85 229.5 145.85 228.3 145.75 227.15 145.6 225.95 145.4 224.9 145.2 223.8 144.8 222.75 144.4 221.7 143.75 220.75
M 139.25 222.4
L 139.3 220.7
Q 139.6 220.65 139.8 220.75 140.05 220.8 140.3 220.85 140.5 220.85 140.75 221 141 221.1 141.15 221.3 141.8 222 142.25 222.8 142.75 223.55 143 224.45 143.2 225.35 143.35 226.25 143.45 227.2 143.55 228.15 143.6 228.85 143.55 229.5 143.45 230.2 143.4 230.9 143.4 231.6 143.2 232.2 143 232.85 142.75 233.4 142.6 233.65 142.5 233.9 142.35 234.1 142.2 234.35 142.1 234.6 141.9 234.8 141.75 235.05 141.5 235.25
L 139.25 236.15 139.05 236.15
Q 139.05 235.35 139.1 234.55 139.1 233.75 139.15 232.95 139.15 232.1 139.25 231.35 139.3 230.6 139.35 229.8
L 139.35 226.55
Q 139.35 226.05 139.35 225.5 139.35 224.95 139.35 224.45 139.35 223.9 139.35 223.4 139.35 222.85 139.25 222.4 Z"/>

            <path fill="#FFFFCC" stroke="none" d="
M 42 203.6
L 65.2 199.8 52.6 165.2 40 201.6 42 203.6
M 113 206.6
L 116.2 205 107.4 167.4 91 202.4 113 206.6 Z"/>
        </g>

        <path id="Layer2_0_1_STROKES" stroke="#000000" stroke-width="0.05" stroke-linejoin="round"
              stroke-linecap="round" fill="none" d="
M 128 -7
L 132.625 -5.4 141.9 -2.2
M 132.625 -5.4
L -17 -9 -13 417.95 564.45 421.95 564.45 97 539.025 81.25 475.625 67.8 443.45 67 373.45 92 384.45 92 384.45 95.5 389.45 95.5
M 168.55 -3.475
Q 168.8130859375 -4.161328125 169.05 -4.525
L 162.35 -4.675
M 294.45 21.125
L 294.45 16.9
M 167.425 -0.675
Q 167.8076171875 -1.238671875 168.2 -2.45 168.38203125 -3.0375 168.55 -3.475
M 170 -4.5
Q 169.5896484375 -5.379296875 169.05 -4.525
L 170 -4.5 Z
M 167.425 -0.675
Q 166.691796875 0.3833984375 166 -1 165.25546875 -2.4888671875 167.425 -0.675 Z
M 132.625 -5.4
L 162.35 -4.675
M 373.45 92
L 369.95 95.5 384.45 95.5 384.45 121.5 384.45 147.5 376.45 139 374.3 141.15 375.95 144
M 306.95 23.85
L 306.95 144 314.95 137 321.45 144.5 331.45 136.5 338.45 145 346.45 138.5 352.45 145 360.95 138.5 368.45 147 374.3 141.15 368.95 132 368.95 121.5 368.95 115.5 371.95 115.5 371.95 121.5 384.45 121.5
M 371.95 121.5
L 368.95 121.5
M 294.45 8.875
L 294.45 8.2 298.5 5 304 5 306.95 8.45 306.95 11.325
M 306.95 23.85
L 306.95 19.35 306.95 15.35 306.95 11.325 294.45 8.875 294.45 12.9 294.45 16.875
M 294.45 21.125
L 294.45 21.4 294.45 106.25 294.45 107
Q 292.694140625 107.2943359375 291.175 107.475
M 294.45 16.9
L 294.45 16.875
M 306.95 8.45
L 294.45 8.2
M 265.25 96
Q 265.5 91.55 265.65 88.45 265.9 82.3 265.25 89 264.9 92.75 264.75 93.05 264.65 93.2 264.15 91.85 262.5 87.55 259.25 90 255.95 92.5 251.35 83.9 249.25 80.05 249 79.75 248.25 78.95 248.5 82.5 248.95 88.7 242.85 80.35 240.1 76.35 239.3 75.35 238.15 73.8 239.25 76.5 240.4 79.3 239.5 78.35 239.2 78 236.7 74.6 231.6 67.6 231.75 71 231.85 74.05 227.95 66.3 223.9 58.3 223.75 61.25 223.65 63.25 220.95 61.45 218.6 59.9 215.8 56.8 213 53.7 212.75 52.35 212.45 50.85 216.25 53.25 217.382421875 53.9748046875 218.3 54.3
L 222.05 51.725
Q 222.2146484375 50.64765625 222.15 49.15 221.8 45.55 221.9 44.85 222.05 43.75 223.75 46.75 224.641796875 48.3173828125 225.075 49.55 228.6642578125 46.5 225.75 46.5
L 228.8 45.35
Q 230.95 43.65 226.25 41 223.7 39.55 223.5 39.2 223.4 38.95 224.55 39.15 227.7 39.6 226.25 38 224.75 36.4 228.65 34.25 230.25 33.4 230.35 33 230.55 32.4 228.25 32 224.45 31.3 227.2 29.7 227.8 29.35 228.65 28.85 228.95 28.6 227.25 28.75 224.2 29.05 223.4 25.7 223.15 24.15 223.05 23.75 222.9 23.15 222.5 23.75 223.05 22.7 223.5 20.8 224.4 16.85 220 19 215.9 21 212.8 16 211.45 13.55 210.85 12.75 209.9 11.45 209 12.25 207.7 13.45 198.75 7.6 190.6 2.3 190.75 5 190.9 7.6 188.8 5.45 186.75 3.35 187 6.25 187.3 9.65 181.5 7.7 175.3 5.6 175.25 5.75 175 6.35 169.7 1.35 168.3177734375 0.055078125 167.425 -0.675
M 267.975 98.125
Q 268.9771484375 98.9142578125 269.925 99.625 268.633203125 97.4177734375 269.85 97.875 269.3359375 97.2662109375 268.875 96.725
L 267.2 96.4
Q 267.473046875 97.083984375 267.975 98.125 266.6603515625 97.125 265.25 96
L 267.2 96.4
Q 266.03125 93.480078125 268.8 96.65 268.8345703125 96.6896484375 268.875 96.725
L 271.45 97.25
Q 274.1078125 98.0259765625 276.225 99.075 275.94765625 96.9439453125 279.15 99.15 281.1798828125 100.593359375 283.575 102.9 283.8095703125 103.086328125 284.1 103.4 282.55 100.65 282.85 100.4 283.15 100.1 284.3 102 285.0205078125 103.226953125 285.525 104.425 285.508203125 104.34296875 285.5 104.25 285.25 101.35 286.85 101.15 288.2 100.95 289.85 102.55 291.0185546875 103.64765625 291.25 104.675 294.152734375 103.9994140625 294.45 106.25
M 272.725 101.65
Q 279.483203125 106.4083984375 282.675 107.025 283.1392578125 106.9712890625 284 106.95 282.90859375 104.899609375 282.675 103.8 281.9810546875 103.0939453125 281.65 102.85 281.35 102.6 281.4 102.8 281.4 102.85 281.5 103 280.508984375 101.838671875 279.175 100.85 279.5546875 101.610546875 280 102.75 281.45 106.4 274.4 101.05 270.95 98.45 270.1 98 269.959375 97.9296875 269.85 97.875 270.8634765625 99.12890625 272.05 100.7 271.8 99.35 271.85 99.3 271.8994140625 99.2505859375 272.7 101.575 272.7138671875 101.6177734375 272.725 101.65 272.4142578125 101.425 272.1 101.2 272.1732421875 103.4158203125 269.95 99.65
L 269.925 99.625
M 222.05 51.725
L 224 50.4
Q 224.590234375 49.944140625 225.075 49.55 226.2123046875 52.847265625 223.95 53.65 222.4275390625 53.719921875 221.275 53.825 220.31171875 55.0240234375 218.3 54.3 219.144921875 54.007421875 221.275 53.825 221.847265625 53.1130859375 222.05 51.725 Z
M 285.525 104.425
Q 286.0283203125 105.69140625 286.3 106.925
L 290.15 105
Q 290.7455078125 104.7888671875 291.25 104.675 291.3583984375 105.09140625 291.3 105.5 291.2490234375 105.9083984375 291 106.2
M 286.3 106.95
L 286.25 106.95 286.225 106.95
Q 286.3748046875 107.4291015625 286.475 107.925 286.408203125 107.4404296875 286.3 106.95
L 286.3 106.925 286.25 106.95
M 286.3 106.95
Q 287.08046875 106.9732421875 288 107 288.5517578125 107.0177734375 289 106.975
M 284 106.95
Q 284.212890625 106.9515625 284.45 106.95 284.86796875 106.773828125 285.125 106.425 283.5833984375 104.711328125 282.675 103.8 282.5484375 103.2216796875 282.65 102.9 282.803515625 102.2474609375 283.575 102.9
M 284.45 106.95
Q 284.9689453125 106.9451171875 285.6 106.95 285.3552734375 106.676171875 285.125 106.425 285.4251953125 105.9853515625 285.5 105.3 284.940234375 104.3001953125 284.1 103.4
M 286.25 112.5
Q 286.8685546875 110.048046875 286.475 107.925 285.9859375 107.9291015625 285.55 107.9
L 285.15 113.2
Q 285 117.5 286.25 112.5 Z
M 286.225 106.95
Q 285.8998046875 106.94765625 285.6 106.95 286.0166015625 107.4076171875 286.475 107.925 287.645703125 107.9201171875 289.1 107.725
M 286.225 106.95
Q 285.9544921875 106.090625 285.5 105.3 285.5427734375 104.9041015625 285.525 104.425
M 276.225 99.075
Q 276.830859375 99.37265625 277.4 99.7
L 277.45 99.5
Q 278.07734375 98.6880859375 279.175 100.85 278.3552734375 100.2427734375 277.4 99.7
L 277 101.5
Q 276.322265625 99.928515625 276.225 99.075 Z
M 285.55 107.9
Q 284 107.8 283.35 107.65 281.268359375 107.17578125 282.675 107.025
M 272.7 101.575
Q 272.36796875 101.1265625 272.05 100.7 272.082421875 100.987109375 272.1 101.2 271.06015625 100.4767578125 269.95 99.65"/>

        <path id="Layer2_0_2_STROKES" stroke="#000000" stroke-width="1.2" stroke-linejoin="round" stroke-linecap="round"
              fill="none" d="
M 162.35 -4.675
L 168.55 -3.475 269.7 16.4
Q 275.8806640625 17.6142578125 282.05 18.825
L 294.45 21.125
M 294.45 16.9
L 293.325 16.675
Q 293.137109375 16.6357421875 292.95 16.6
L 19.95 -36.8
M 162.35 -4.675
L 23.75 -31.8
M 586.45 66
L 306.95 11.325
M 294.45 16.875
L 299.45 17.85
M 303.25 22.85
L 294.45 21.125
M 293.325 16.675
L 294.45 16.875
M 282.05 18.825
L 294.45 21.4
M 586.45 70
L 306.95 15.35
M 586.45 74
L 306.95 19.35
M 586.45 78.5
L 306.95 23.85
M 294.45 8.875
L 195.5 -10.5
M 294.45 12.9
L 195.5 -6.5"/>

        <path id="Layer1_0_1_STROKES" stroke="#FFFFFF" stroke-width="0.05" stroke-linejoin="round"
              stroke-linecap="round" fill="none" d="
M 44.725 254.875
Q 25.912890625 251.2173828125 28.225 235.85
L 30.5 224.5
Q 37.05625 190.4740234375 53.3 160.6 60.4900390625 178.9501953125 68 200
L 89 202 108.25 163.75 122.75 215.5
Q 124.7287109375 226.534765625 124.225 242.325 123.7220703125 258.108203125 107.475 260.25
L 87.95 259.5
M 91.75 266.25
Q 94.3568359375 268.4388671875 94.95 272.3 93.95390625 288.2705078125 90.6 300.2 87.892578125 302.6599609375 82.5 299
L 81.7 297.4
Q 81 304.95 80.2 319.4 80.4578125 329.499609375 81.25 339.55
L 82.25 348.45
Q 81.85 350.55 77.15 351.55 72.43203125 337.776171875 72.875 319.4
M 66.2 319.4
L 62.45 352.6
Q 57.1 352.35 55.5 349.8 56.493359375 334.55078125 58.525 319.4 61.55 305.15 63.5 298 60.00546875 298.7201171875 56.725 295.225 53.4373046875 291.7388671875 56.425 276.8 59.41953125 261.8583984375 64.125 262.325
M 65.85 261.5
L 65.85 257.75 44.75 254.95 44.725 254.875
M 46.45 253.55
L 44.75 254.95
M 84.55 258.35
L 84.55 258.8 84.55 259.95 87.95 259.5
M 84.55 259.95
L 82.975 259.675
M 84.55 263.5
L 91.75 266.25
M 82.775 277.875
L 83.75 280 84 271.5 86.5 274 86.5 286 83.75 280
M 66.6 261.5
L 66.6 256.8 65.85 257.75
M 80.225 274.35
L 74.45 276.9 72 278 81.7 297.4
M 64.8 274.475
L 64.8 275.75 64.8 277.125 64.8 279.6
M 64.8 274.475
Q 64.76640625 273.676953125 64.8 272.85 64.8140625 272.5046875 64.85 272.15
M 72 278
L 65.575 275.05
M 64.8 277.125
Q 64.11796875 281.5658203125 59 289 58.519140625 287.7619140625 60.95 277.2 63.0654296875 271.168359375 64.9 271.475
M 72 278
L 63.5 298
M 81.75 259.45
L 66.6 256.8"/>

        <path id="Layer1_0_2_STROKES" stroke="#006633" stroke-width="0.05" stroke-linejoin="round"
              stroke-linecap="round" fill="none" d="
M 87.95 259.5
Q 90.58671875 262.4125 91.75 266.25
M 64.125 262.325
L 65.85 261.5
M 84.55 258.35
Q 84.2765625 258.545703125 84 258.725 83.6673828125 258.949609375 83.325 259.15
M 82.35 259.725
Q 79.4439453125 261.30859375 76 262
L 77 266.5
Q 81.141796875 265.9169921875 84.55 263.5
L 84.55 259.95
M 81.15 274.675
L 81.2 274.775
M 65.575 275.05
Q 67.4501953125 270.1 70 266.5
L 64.125 262.325
M 70 262
L 66.6 261.5 65.85 261.5
M 70 262
L 70 266.5 72 266.5 77 266.5
Q 79.7873046875 270.017578125 80.75 273.9
M 70 262
L 76 262
M 74.45 276.9
Q 74.300390625 271.879296875 72 266.5 71.2734375 271.8865234375 72 278"/>

        <path id="Layer1_0_3_STROKES" stroke="#FFFFFF" stroke-width="1" stroke-linejoin="round" stroke-linecap="round"
              fill="none" d="
M 84.55 258.8
L 84 258.725 78.1 258"/>

        <path id="Layer0_0_1_STROKES" stroke="#FFFFCC" stroke-width="1" stroke-linejoin="round" stroke-linecap="round"
              fill="none" d="
M 116.2 205
L 107.4 167.4 91 202.4 113 206.6 116.2 205 Z
M 65.2 199.8
L 52.6 165.2 40 201.6 42 203.6 65.2 199.8 Z"/>
    </defs>

    <g transform="matrix( 1, 0, 0, 1, 0,0) ">
        <use xlink:href="#Layer3_0_FILL"/>
    </g>

    <g transform="matrix( 1, 0, 0, 1, 0,0) ">
        <use xlink:href="#Layer2_0_FILL"/>

        <use xlink:href="#Layer2_0_1_STROKES"/>

        <use xlink:href="#Layer2_0_2_STROKES"/>
    </g>

    <g transform="matrix( 1, 0, 0, 1, 0,0) ">
        <use xlink:href="#Layer1_0_FILL"/>

        <use xlink:href="#Layer1_0_1_STROKES"/>

        <use xlink:href="#Layer1_0_2_STROKES"/>

        <use xlink:href="#Layer1_0_3_STROKES"/>
    </g>

    <g transform="matrix( 1, 0, 0, 1, 0,0) ">
        <use xlink:href="#Layer0_0_FILL"/>

        <use xlink:href="#Layer0_0_1_STROKES"/>
    </g>
</svg>
