<svg xmlns:xlink="http://www.w3.org/1999/xlink" xmlns="http://www.w3.org/2000/svg" version="1.1"
     preserveAspectRatio="none" x="0px" y="0px" width="185px" height="185px" viewBox="0 0 185 185">
    <defs>
        <filter id="Filter_1" x="-20%" y="-50.23689270621825%" width="140%" height="200.47378541243648%"
                color-interpolation-filters="sRGB">
            <feFlood flood-color="#FFFFFF" flood-opacity="1" in="SourceGraphic" result="result1"/>

            <feComposite in2="SourceGraphic" in="result1" operator="in" result="result2"/>

            <feGaussianBlur in="result2" stdDeviation="0.6666666666666666,0.6666666666666666" result="result3"/>

            <feComposite in2="SourceGraphic" in="result3" operator="out" result="result4"/>
        </filter>

        <g id="Layer3_0_FILL">
            <path fill="#FF3366" stroke="none" d="
M 195 195
L 195 0 0 0 0 195 195 195 Z"/>
        </g>

        <g id="Layer2_0_FILL">
            <path fill="#FFFFFF" stroke="none" d="
M -17.4 75.65
Q -17.7 75.35 -18.2 75.35 -18.7 75.35 -19.05 75.65 -19.35 76 -19.35 76.5 -19.35 77 -19.05 77.3 -18.7 77.65 -18.2 77.65 -17.7 77.65 -17.4 77.3 -17.05 77 -17.05 76.5 -17.05 76 -17.4 75.65
M -2.3 84.45
Q -2.4 84.35 -2.55 84.35 -2.7 84.35 -2.85 84.45 -2.95 84.55 -2.95 84.7 -2.95 84.85 -2.85 84.95 -2.7 85.05 -2.55 85.05 -2.4 85.05 -2.3 84.95 -2.15 84.85 -2.15 84.7 -2.15 84.55 -2.3 84.45
M 10.75 108.7
Q 10.4 108.35 9.9 108.35 9.4 108.35 9.05 108.7 8.7 109.05 8.7 109.55 8.7 110.05 9.05 110.4 9.4 110.75 9.9 110.75 10.4 110.75 10.75 110.4 11.1 110.05 11.1 109.55 11.1 109.05 10.75 108.7
M 47.2 89.15
Q 47.05 89.05 46.85 89.05 46.65 89.05 46.5 89.15 46.35 89.3 46.35 89.5 46.35 89.7 46.5 89.8 46.65 89.95 46.85 89.95 47.05 89.95 47.2 89.8 47.35 89.7 47.35 89.5 47.35 89.3 47.2 89.15
M 43.55 81.45
Q 43.5 81.4 43.4 81.4 43.3 81.4 43.25 81.45 43.2 81.5 43.2 81.6 43.2 81.7 43.25 81.75 43.3 81.8 43.4 81.8 43.5 81.8 43.55 81.75 43.6 81.7 43.6 81.6 43.6 81.5 43.55 81.45
M 19.8 82.35
Q 19.95 82.25 19.95 82.1 19.95 81.95 19.8 81.8 19.7 81.7 19.55 81.7 19.4 81.7 19.25 81.8 19.15 81.95 19.15 82.1 19.15 82.25 19.25 82.35 19.4 82.5 19.55 82.5 19.7 82.5 19.8 82.35
M 0.7 73.75
Q 0.55 73.6 0.35 73.6 0.15 73.6 0 73.75 -0.15 73.9 -0.15 74.1 -0.15 74.3 0 74.45 0.15 74.6 0.35 74.6 0.55 74.6 0.7 74.45 0.85 74.3 0.85 74.1 0.85 73.9 0.7 73.75
M 3.85 52.9
Q 3.8 52.85 3.75 52.85 3.7 52.85 3.65 52.9 3.6 52.95 3.6 53.05 3.6 53.15 3.65 53.2 3.7 53.25 3.75 53.25 3.8 53.25 3.85 53.2 3.9 53.15 3.9 53.05 3.9 52.95 3.85 52.9
M 37.2 55.6
Q 37 55.4 36.7 55.4 36.4 55.4 36.2 55.6 36 55.85 36 56.15 36 56.45 36.2 56.65 36.4 56.9 36.7 56.9 37 56.9 37.2 56.65 37.4 56.45 37.4 56.15 37.4 55.85 37.2 55.6 Z"/>
        </g>

        <g id="Layer2_1_FILL">
            <path fill="#FFFFFF" stroke="none" d="
M 76.35 84.05
Q 76.15 83.85 75.9 83.85 75.65 83.85 75.45 84.05 75.25 84.25 75.25 84.5 75.25 84.75 75.45 84.95 75.65 85.15 75.9 85.15 76.15 85.15 76.35 84.95 76.55 84.75 76.55 84.5 76.55 84.25 76.35 84.05
M 134.25 70.9
Q 134.05 70.7 133.75 70.7 133.45 70.7 133.2 70.9 133 71.15 133 71.45 133 71.75 133.2 71.95 133.45 72.2 133.75 72.2 134.05 72.2 134.25 71.95 134.5 71.75 134.5 71.45 134.5 71.15 134.25 70.9
M 129.7 54.85
Q 129.4 54.55 129 54.55 128.6 54.55 128.3 54.85 128 55.15 128 55.55 128 55.95 128.3 56.25 128.6 56.55 129 56.55 129.4 56.55 129.7 56.25 130 55.95 130 55.55 130 55.15 129.7 54.85
M 116.9 51.75
Q 116.6 51.45 116.15 51.45 115.7 51.45 115.4 51.75 115.1 52.1 115.1 52.55 115.1 53 115.4 53.3 115.7 53.65 116.15 53.65 116.6 53.65 116.9 53.3 117.2 53 117.2 52.55 117.2 52.1 116.9 51.75
M 115 41.75
Q 114.9 41.65 114.75 41.65 114.6 41.65 114.5 41.75 114.4 41.85 114.4 42 114.4 42.15 114.5 42.25 114.6 42.35 114.75 42.35 114.9 42.35 115 42.25 115.1 42.15 115.1 42 115.1 41.85 115 41.75
M 103.05 34.2
Q 102.75 33.9 102.35 33.9 101.95 33.9 101.65 34.2 101.35 34.5 101.35 34.9 101.35 35.3 101.65 35.6 101.95 35.9 102.35 35.9 102.75 35.9 103.05 35.6 103.35 35.3 103.35 34.9 103.35 34.5 103.05 34.2
M 89.3 46.7
Q 88.95 46.35 88.45 46.35 87.95 46.35 87.55 46.7 87.2 47.1 87.2 47.6 87.2 48.1 87.55 48.45 87.95 48.85 88.45 48.85 88.95 48.85 89.3 48.45 89.7 48.1 89.7 47.6 89.7 47.1 89.3 46.7
M 134.9 42.25
Q 134.7 42.05 134.4 42.05 134.1 42.05 133.9 42.25 133.7 42.45 133.7 42.75 133.7 43.05 133.9 43.25 134.1 43.45 134.4 43.45 134.7 43.45 134.9 43.25 135.1 43.05 135.1 42.75 135.1 42.45 134.9 42.25 Z"/>
        </g>

        <g id="Layer2_2_FILL">
            <path fill="#FFFFFF" stroke="none" d="
M 44.6 158.5
Q 44.5 158.4 44.4 158.4 44.3 158.4 44.2 158.5 44.1 158.6 44.1 158.7 44.1 158.8 44.2 158.9 44.3 159 44.4 159 44.5 159 44.6 158.9 44.7 158.8 44.7 158.7 44.7 158.6 44.6 158.5
M 24.05 149.05
Q 24 149.05 23.95 149.05 23.95 149.1 23.95 149.15
L 23.95 149.2
Q 24 149.25 24.05 149.25 24.1 149.25 24.1 149.2 24.15 149.2 24.15 149.15 24.15 149.1 24.1 149.05
L 24.05 149.05
M 26.5 154.05
Q 26.35 153.9 26.15 153.9 25.95 153.9 25.8 154.05 25.65 154.2 25.65 154.4 25.65 154.6 25.8 154.75 25.95 154.9 26.15 154.9 26.35 154.9 26.5 154.75 26.65 154.6 26.65 154.4 26.65 154.2 26.5 154.05
M 4.45 142
Q 4.35 141.9 4.25 141.9 4.15 141.9 4.05 142 3.95 142.1 3.95 142.2 3.95 142.3 4.05 142.4 4.15 142.5 4.25 142.5 4.35 142.5 4.45 142.4 4.55 142.3 4.55 142.2 4.55 142.1 4.45 142
M 18.25 123.25
Q 17.8 123.25 17.5 123.55 17.2 123.85 17.2 124.3 17.2 124.75 17.5 125.05 17.8 125.35 18.25 125.35 18.7 125.35 19 125.05 19.3 124.75 19.3 124.3 19.3 123.85 19 123.55 18.7 123.25 18.25 123.25
M 70.25 130.15
Q 70.15 130 69.95 130 69.75 130 69.6 130.15 69.5 130.3 69.5 130.5 69.5 130.7 69.6 130.85 69.75 131 69.95 131 70.15 131 70.25 130.85 70.4 130.7 70.4 130.5 70.4 130.3 70.25 130.15
M 50.35 122.2
Q 50.2 122.05 50 122.05 49.8 122.05 49.65 122.2 49.5 122.35 49.5 122.55 49.5 122.75 49.65 122.9 49.8 123.05 50 123.05 50.2 123.05 50.35 122.9 50.5 122.75 50.5 122.55 50.5 122.35 50.35 122.2
M 58.25 107.55
Q 58.45 107.75 58.7 107.75 58.95 107.75 59.15 107.55 59.35 107.35 59.35 107.1 59.35 106.85 59.15 106.65 58.95 106.45 58.7 106.45 58.45 106.45 58.25 106.65 58.05 106.85 58.05 107.1 58.05 107.35 58.25 107.55
M 61.25 123.6
Q 61.25 123.25 60.95 122.95 60.7 122.7 60.3 122.7 59.9 122.7 59.6 122.95 59.35 123.25 59.35 123.6 59.35 123.95 59.6 124.2 59.9 124.5 60.3 124.5 60.7 124.5 60.95 124.2 61.25 123.95 61.25 123.6 Z"/>
        </g>

        <g id="Layer2_3_FILL">
            <path fill="#FFFFFF" stroke="none" d="
M 132.85 185.75
Q 132.7 185.75 132.6 185.85 132.5 185.95 132.5 186.1 132.5 186.25 132.6 186.35 132.7 186.45 132.85 186.45 133 186.45 133.1 186.35 133.2 186.25 133.2 186.1 133.2 185.95 133.1 185.85 133 185.75 132.85 185.75
M 128.25 150.45
Q 127.95 150.15 127.45 150.15 126.95 150.15 126.6 150.45 126.3 150.8 126.3 151.3 126.3 151.8 126.6 152.1 126.95 152.45 127.45 152.45 127.95 152.45 128.25 152.1 128.6 151.8 128.6 151.3 128.6 150.8 128.25 150.45
M 154 160.1
Q 153.95 160.05 153.85 160.05 153.75 160.05 153.7 160.1 153.65 160.15 153.65 160.25 153.65 160.35 153.7 160.4 153.75 160.45 153.85 160.45 153.95 160.45 154 160.4 154.05 160.35 154.05 160.25 154.05 160.15 154 160.1
M 113.05 175.85
Q 113.3 175.65 113.3 175.3 113.3 174.95 113.05 174.7 112.85 174.5 112.5 174.5 112.15 174.5 111.9 174.7 111.7 174.95 111.7 175.3 111.7 175.65 111.9 175.85 112.15 176.1 112.5 176.1 112.85 176.1 113.05 175.85
M 104.35 172.5
Q 104 172.5 103.75 172.7 103.55 172.95 103.55 173.3 103.55 173.65 103.75 173.85 104 174.1 104.35 174.1 104.7 174.1 104.9 173.85 105.15 173.65 105.15 173.3 105.15 172.95 104.9 172.7 104.7 172.5 104.35 172.5
M 119.25 154.95
Q 118.9 154.95 118.65 155.2 118.4 155.45 118.4 155.8 118.4 156.15 118.65 156.4 118.9 156.65 119.25 156.65 119.6 156.65 119.85 156.4 120.1 156.15 120.1 155.8 120.1 155.45 119.85 155.2 119.6 154.95 119.25 154.95
M 146.2 144
Q 145.85 144 145.6 144.2 145.4 144.45 145.4 144.8 145.4 145.15 145.6 145.35 145.85 145.6 146.2 145.6 146.55 145.6 146.75 145.35 147 145.15 147 144.8 147 144.45 146.75 144.2 146.55 144 146.2 144
M 139.5 129.9
Q 139.4 129.8 139.25 129.8 139.1 129.8 139 129.9 138.9 130 138.9 130.15 138.9 130.3 139 130.4 139.1 130.5 139.25 130.5 139.4 130.5 139.5 130.4 139.6 130.3 139.6 130.15 139.6 130 139.5 129.9
M 163.95 164.2
Q 163.75 164 163.4 164 163.05 164 162.8 164.2 162.6 164.45 162.6 164.8 162.6 165.15 162.8 165.35 163.05 165.6 163.4 165.6 163.75 165.6 163.95 165.35 164.2 165.15 164.2 164.8 164.2 164.45 163.95 164.2 Z"/>
        </g>

        <g id="Layer2_4_FILL">
            <path fill="#FFFFFF" stroke="none" d="
M 160.35 127.85
Q 160.65 127.55 160.65 127.1 160.65 126.65 160.35 126.35 160.05 126.05 159.6 126.05 159.15 126.05 158.85 126.35 158.55 126.65 158.55 127.1 158.55 127.55 158.85 127.85 159.15 128.15 159.6 128.15 160.05 128.15 160.35 127.85
M 140.95 147.1
Q 140.95 147.65 141.3 148 141.7 148.4 142.25 148.4 142.8 148.4 143.15 148 143.55 147.65 143.55 147.1 143.55 146.55 143.15 146.15 142.8 145.8 142.25 145.8 141.7 145.8 141.3 146.15 140.95 146.55 140.95 147.1
M 140.8 118.7
Q 140.35 118.7 140 119 139.7 119.35 139.7 119.8 139.7 120.25 140 120.55 140.35 120.9 140.8 120.9 141.25 120.9 141.55 120.55 141.9 120.25 141.9 119.8 141.9 119.35 141.55 119 141.25 118.7 140.8 118.7
M 135.05 117.35
Q 134.85 117.15 134.5 117.15 134.15 117.15 133.9 117.35 133.7 117.6 133.7 117.95 133.7 118.3 133.9 118.5 134.15 118.75 134.5 118.75 134.85 118.75 135.05 118.5 135.3 118.3 135.3 117.95 135.3 117.6 135.05 117.35
M 133.4 112.95
Q 133.3 112.9 133.2 112.9 133.1 112.9 133 112.95 132.9 113.05 132.9 113.15 132.9 113.25 133 113.3 133.1 113.4 133.2 113.4 133.3 113.4 133.4 113.3 133.5 113.25 133.5 113.15 133.5 113.05 133.4 112.95
M 168.35 156.15
Q 168.65 156.45 169.05 156.45 169.45 156.45 169.75 156.15 170.05 155.85 170.05 155.45 170.05 155.05 169.75 154.75 169.45 154.45 169.05 154.45 168.65 154.45 168.35 154.75 168.05 155.05 168.05 155.45 168.05 155.85 168.35 156.15
M 183.4 154.7
Q 183.15 154.45 182.8 154.45 182.45 154.45 182.2 154.7 181.95 154.95 181.95 155.3 181.95 155.65 182.2 155.9 182.45 156.15 182.8 156.15 183.15 156.15 183.4 155.9 183.65 155.65 183.65 155.3 183.65 154.95 183.4 154.7
M 194.7 143.45
Q 194.95 143.45 195.1 143.3 195.25 143.15 195.25 142.9 195.25 142.65 195.1 142.5 194.95 142.35 194.7 142.35 194.45 142.35 194.3 142.5 194.15 142.65 194.15 142.9 194.15 143.15 194.3 143.3 194.45 143.45 194.7 143.45
M 162.85 100.2
Q 162.7 100.05 162.45 100.05 162.2 100.05 162 100.2 161.85 100.4 161.85 100.65 161.85 100.9 162 101.05 162.2 101.25 162.45 101.25 162.7 101.25 162.85 101.05 163.05 100.9 163.05 100.65 163.05 100.4 162.85 100.2 Z"/>
        </g>

        <g id="Layer2_5_FILL">
            <path fill="#FFFFFF" stroke="none" d="
M 144 65.8
Q 144 66.05 144.15 66.2 144.3 66.35 144.55 66.35 144.8 66.35 144.95 66.2 145.1 66.05 145.1 65.8 145.1 65.55 144.95 65.4 144.8 65.25 144.55 65.25 144.3 65.25 144.15 65.4 144 65.55 144 65.8
M 142.35 64
Q 142.15 63.8 141.85 63.8 141.55 63.8 141.35 64 141.15 64.2 141.15 64.5 141.15 64.8 141.35 65 141.55 65.2 141.85 65.2 142.15 65.2 142.35 65 142.55 64.8 142.55 64.5 142.55 64.2 142.35 64
M 171.45 99.2
Q 171.3 99.05 171.1 99.05 170.9 99.05 170.75 99.2 170.6 99.35 170.6 99.55 170.6 99.75 170.75 99.9 170.9 100.05 171.1 100.05 171.3 100.05 171.45 99.9 171.6 99.75 171.6 99.55 171.6 99.35 171.45 99.2
M 167.1 89.95
Q 166.75 89.95 166.5 90.2 166.25 90.45 166.25 90.8 166.25 91.15 166.5 91.4 166.75 91.65 167.1 91.65 167.45 91.65 167.7 91.4 167.95 91.15 167.95 90.8 167.95 90.45 167.7 90.2 167.45 89.95 167.1 89.95
M 165.7 81.55
Q 165.5 81.55 165.35 81.65 165.25 81.8 165.25 82 165.25 82.2 165.35 82.3 165.5 82.45 165.7 82.45 165.9 82.45 166 82.3 166.15 82.2 166.15 82 166.15 81.8 166 81.65 165.9 81.55 165.7 81.55
M 162.65 78.7
Q 162.95 78.4 162.95 77.95 162.95 77.5 162.65 77.2 162.35 76.9 161.9 76.9 161.45 76.9 161.15 77.2 160.85 77.5 160.85 77.95 160.85 78.4 161.15 78.7 161.45 79 161.9 79 162.35 79 162.65 78.7
M 171.8 58
Q 171.7 58 171.6 58.05 171.55 58.15 171.55 58.25 171.55 58.35 171.6 58.4 171.7 58.5 171.8 58.5 171.9 58.5 171.95 58.4 172.05 58.35 172.05 58.25 172.05 58.15 171.95 58.05 171.9 58 171.8 58
M 185.8 64.55
Q 185.6 64.35 185.3 64.35 185 64.35 184.8 64.55 184.6 64.75 184.6 65.05 184.6 65.35 184.8 65.55 185 65.75 185.3 65.75 185.6 65.75 185.8 65.55 186 65.35 186 65.05 186 64.75 185.8 64.55
M 176.05 41.75
Q 175.85 41.55 175.55 41.55 175.25 41.55 175.05 41.75 174.85 41.95 174.85 42.25 174.85 42.55 175.05 42.75 175.25 42.95 175.55 42.95 175.85 42.95 176.05 42.75 176.25 42.55 176.25 42.25 176.25 41.95 176.05 41.75 Z"/>
        </g>

        <g id="Layer2_6_FILL">
            <path fill="#FFFFFF" stroke="none" d="
M 98.15 118.35
Q 97.8 118 97.3 118 96.8 118 96.45 118.35 96.1 118.7 96.1 119.2 96.1 119.7 96.45 120.05 96.8 120.4 97.3 120.4 97.8 120.4 98.15 120.05 98.5 119.7 98.5 119.2 98.5 118.7 98.15 118.35
M 100.65 115.85
Q 100.65 115.5 100.4 115.25 100.15 115 99.8 115 99.45 115 99.2 115.25 98.95 115.5 98.95 115.85 98.95 116.2 99.2 116.45 99.45 116.7 99.8 116.7 100.15 116.7 100.4 116.45 100.65 116.2 100.65 115.85
M 95.6 110.05
Q 95.3 109.8 94.9 109.8 94.5 109.8 94.2 110.05 93.9 110.35 93.9 110.75 93.9 111.15 94.2 111.4 94.5 111.7 94.9 111.7 95.3 111.7 95.6 111.4 95.9 111.15 95.9 110.75 95.9 110.35 95.6 110.05
M 94.15 106.5
Q 93.95 106.3 93.7 106.3 93.45 106.3 93.25 106.5 93.05 106.7 93.05 106.95 93.05 107.2 93.25 107.4 93.45 107.6 93.7 107.6 93.95 107.6 94.15 107.4 94.35 107.2 94.35 106.95 94.35 106.7 94.15 106.5
M 105.55 105.95
Q 105.45 105.85 105.35 105.85 105.25 105.85 105.15 105.95 105.05 106.05 105.05 106.15 105.05 106.25 105.15 106.35 105.25 106.45 105.35 106.45 105.45 106.45 105.55 106.35 105.65 106.25 105.65 106.15 105.65 106.05 105.55 105.95
M 154.35 98.15
Q 153.9 98.15 153.55 98.45 153.25 98.8 153.25 99.25 153.25 99.7 153.55 100 153.9 100.35 154.35 100.35 154.8 100.35 155.1 100 155.45 99.7 155.45 99.25 155.45 98.8 155.1 98.45 154.8 98.15 154.35 98.15
M 152.85 93.8
Q 152.75 93.7 152.6 93.7 152.45 93.7 152.35 93.8 152.25 93.9 152.25 94.05 152.25 94.2 152.35 94.3 152.45 94.4 152.6 94.4 152.75 94.4 152.85 94.3 152.95 94.2 152.95 94.05 152.95 93.9 152.85 93.8
M 136 64.7
Q 135.9 64.6 135.75 64.6 135.6 64.6 135.45 64.7 135.35 64.85 135.35 65 135.35 65.15 135.45 65.25 135.6 65.4 135.75 65.4 135.9 65.4 136 65.25 136.15 65.15 136.15 65 136.15 64.85 136 64.7
M 163.5 86.45
Q 163.3 86.25 162.95 86.25 162.6 86.25 162.35 86.45 162.15 86.7 162.15 87.05 162.15 87.4 162.35 87.6 162.6 87.85 162.95 87.85 163.3 87.85 163.5 87.6 163.75 87.4 163.75 87.05 163.75 86.7 163.5 86.45 Z"/>
        </g>

        <g id="Layer2_7_FILL">
            <path fill="#FFFFFF" stroke="none" d="
M 96.5 99.5
Q 96.25 99.25 95.9 99.25 95.55 99.25 95.3 99.5 95.05 99.75 95.05 100.1 95.05 100.45 95.3 100.7 95.55 100.95 95.9 100.95 96.25 100.95 96.5 100.7 96.75 100.45 96.75 100.1 96.75 99.75 96.5 99.5
M 46.75 101.05
Q 46.6 100.9 46.35 100.9 46.1 100.9 45.9 101.05 45.75 101.25 45.75 101.5 45.75 101.75 45.9 101.9 46.1 102.1 46.35 102.1 46.6 102.1 46.75 101.9 46.95 101.75 46.95 101.5 46.95 101.25 46.75 101.05
M 67.5 99.95
Q 67.4 99.95 67.3 100 67.25 100.1 67.25 100.2 67.25 100.3 67.3 100.35 67.4 100.45 67.5 100.45 67.6 100.45 67.65 100.35 67.75 100.3 67.75 100.2 67.75 100.1 67.65 100 67.6 99.95 67.5 99.95
M 64.35 81.4
Q 64.3 81.35 64.2 81.35 64.1 81.35 64.05 81.4 64 81.45 64 81.55 64 81.65 64.05 81.7 64.1 81.75 64.2 81.75 64.3 81.75 64.35 81.7 64.4 81.65 64.4 81.55 64.4 81.45 64.35 81.4
M 53.2 64.5
Q 53.15 64.45 53.05 64.45 52.95 64.45 52.85 64.5 52.8 64.6 52.8 64.7 52.8 64.8 52.85 64.85 52.95 64.95 53.05 64.95 53.15 64.95 53.2 64.85 53.3 64.8 53.3 64.7 53.3 64.6 53.2 64.5
M 68.6 67
Q 68.35 66.75 68 66.75 67.65 66.75 67.35 67 67.1 67.3 67.1 67.65 67.1 68 67.35 68.25 67.65 68.55 68 68.55 68.35 68.55 68.6 68.25 68.9 68 68.9 67.65 68.9 67.3 68.6 67
M 78.1 53.5
Q 77.8 53.2 77.3 53.2 76.8 53.2 76.45 53.5 76.15 53.85 76.15 54.35 76.15 54.85 76.45 55.15 76.8 55.5 77.3 55.5 77.8 55.5 78.1 55.15 78.45 54.85 78.45 54.35 78.45 53.85 78.1 53.5
M 40 78.3
Q 39.7 78 39.25 78 38.8 78 38.5 78.3 38.2 78.6 38.2 79 38.2 79.4 38.5 79.7 38.8 80 39.25 80 39.7 80 40 79.7 40.3 79.4 40.3 79 40.3 78.6 40 78.3
M 47.45 43.6
Q 47.2 43.35 46.8 43.35 46.4 43.35 46.1 43.6 45.85 43.9 45.85 44.25 45.85 44.6 46.1 44.85 46.4 45.15 46.8 45.15 47.2 45.15 47.45 44.85 47.75 44.6 47.75 44.25 47.75 43.9 47.45 43.6 Z"/>
        </g>

        <g id="Layer2_8_FILL">
            <path fill="#FFFFFF" stroke="none" d="
M -5.3 59.35
Q -5.35 59.4 -5.35 59.45 -5.35 59.5 -5.3 59.55 -5.25 59.6 -5.2 59.6 -5.15 59.6 -5.1 59.55 -5.05 59.5 -5.05 59.45 -5.05 59.4 -5.1 59.35 -5.15 59.3 -5.2 59.3 -5.25 59.3 -5.3 59.35
M -7.6 55.25
L -7.65 55.25
Q -7.7 55.25 -7.75 55.25 -7.75 55.3 -7.75 55.35
L -7.75 55.4
Q -7.7 55.45 -7.65 55.45 -7.6 55.45 -7.6 55.4 -7.55 55.4 -7.55 55.35 -7.55 55.3 -7.6 55.25
M -2.55 52.25
Q -2.65 52.15 -2.8 52.15 -2.95 52.15 -3.05 52.25 -3.15 52.35 -3.15 52.5 -3.15 52.65 -3.05 52.75 -2.95 52.85 -2.8 52.85 -2.65 52.85 -2.55 52.75 -2.45 52.65 -2.45 52.5 -2.45 52.35 -2.55 52.25
M 8.2 74.05
Q 8.55 73.75 8.55 73.25 8.55 72.75 8.2 72.4 7.9 72.1 7.4 72.1 6.9 72.1 6.55 72.4 6.25 72.75 6.25 73.25 6.25 73.75 6.55 74.05 6.9 74.4 7.4 74.4 7.9 74.4 8.2 74.05
M 19.4 50.6
Q 19.05 50.6 18.8 50.85 18.55 51.1 18.55 51.45 18.55 51.8 18.8 52.05 19.05 52.3 19.4 52.3 19.75 52.3 20 52.05 20.25 51.8 20.25 51.45 20.25 51.1 20 50.85 19.75 50.6 19.4 50.6
M 23.75 70.85
Q 23.35 70.85 23.05 71.15 22.75 71.45 22.75 71.85 22.75 72.25 23.05 72.55 23.35 72.85 23.75 72.85 24.15 72.85 24.45 72.55 24.75 72.25 24.75 71.85 24.75 71.45 24.45 71.15 24.15 70.85 23.75 70.85
M 27.2 57
Q 27.05 56.85 26.8 56.85 26.55 56.85 26.35 57 26.2 57.2 26.2 57.45 26.2 57.7 26.35 57.85 26.55 58.05 26.8 58.05 27.05 58.05 27.2 57.85 27.4 57.7 27.4 57.45 27.4 57.2 27.2 57
M 39.2 26
Q 39.3 26 39.35 25.9 39.45 25.85 39.45 25.75 39.45 25.65 39.35 25.55 39.3 25.5 39.2 25.5 39.1 25.5 39 25.55 38.95 25.65 38.95 25.75 38.95 25.85 39 25.9 39.1 26 39.2 26
M 8.8 35.9
L 8.75 35.9 8.75 35.95 8.8 36 8.8 35.95 8.85 35.95 8.8 35.9 Z"/>
        </g>

        <g id="Layer1_0_FILL">
            <path fill="#FFFFFF" stroke="none" d="
M 123.2 161
L 123.2 164.6 125.8 165.4 129.2 164.8 130.8 163.2 129.6 161.2 129.6 160.85 123.2 161
M 119.4 188.25
L 118.4 187.6 117.8 190 118 196.4 134.8 196.8 135.2 192.4 131 190.4 125.8 189.8 125.4 187.2 124.85 188.2 121.6 188.6 119.4 188.25
M 84.8 190.8
L 85.4 195.6 102.6 196 103 187.4 101.8 187.55
Q 98.6 187.65 96.2 186.25
L 95.55 185.8 95 185.4 95 188 90.8 188.4 84.8 190.8
M 117.4 172.2
Q 111.8 172.5 107.7 171.9 107.6 171.85 107.5 171.85 107.3880859375 171.83359375 107.25 171.8 105.011328125 171.4673828125 103.2 170.8
L 97.15 168.8 97 169.2 92.8 176
Q 93.65 176.6 94.55 177.15 94.6 177.2 94.7 177.25 96.05 178.05 97.4 178.6 99.4 179.45 101.4 179.8 102.1 180.05 102.85 180.25 104.2 180.6 105.65 180.9 110.85 181.8 117 181.2 117.55 181.05 118.15 180.95
L 118.2 180.95
Q 120.5 180.35 122.85 179.45 124.3 178.85 125.8 178.2
L 122.4 171.4 122.3 171 117.4 172.2
M 123.9 139.35
L 125.8 138.2 119.3 136.05 119.15 136 118.7 135.85 109.95 136.6 109.9 136.6 105 135.8 96.5 137.25 97.65 138.05 101.4 140.55 103.75 139.45 108.2 142.2 108.2 143 108.8 143 103.6 163.8 107.95 169.15 113.95 164.2 110.55 143 111.4 143 111.4 142.6 116.25 140.45 119.05 142.15 123.9 139.35
M 108.2 140.4
L 106.45 138.2 109.95 137.1 114.5 139.35 111.4 140.6 108.2 140.4
M 78.6 138.2
L 79.2 140.2 82.8 141.2 81.85 145.6 84.65 146.45 87.2 147.2 87.55 147.25 88.45 140.25 88 140.2 84.25 139 84.15 139 82.4 138.4 78.6 138.2
M 116.95 87.3
L 116.45 87.25
Q 114.95 90.95 118.25 111.4 106.1 100.05 104 87 99.65 94.85 102.95 107.8 98.35 104.2 95 90.4 84.7 102.65 84.2 127.2 84.35 127.25 84.45 127.35 84.5 127.35 84.6 127.4 93.9 131.55 105.25 133.25 111.75 134.25 118.7 133.85 118.75 133.85 118.8 133.85 128.85 133.3 139.9 129.9 139.95 129.85 140 129.85 140.0515625 129.8484375 140.1 129.8 140.2 129.8 140.3 129.75 140.35 129.75 140.4 129.75
L 140.6 130.65
Q 141.6 122.05 142.85 114.15 143.65 99.95 132.1 85.3 133.35 97.5 129.85 108.15
L 116.95 87.3
M 94.6 42.95
L 84.3 38.8 60.95 60.8 53.7 109.25 67.55 109.25 88.7 66.55 88.7 80.8
Q 94.3 76.85 101.95 74.45
L 94.6 42.95
M 164.4 113.35
L 175.8 106 161.2 47.9 152.3 36.35 136.95 41.2 125.45 71.55 125.35 72.4
Q 133.15 73.65 139.15 77
L 145.2 66.6 164.4 113.35 Z"/>

            <path fill="#FF3366" stroke="none" d="
M 118.2 180.95
L 118.2 181 119.4 188.25 121.6 188.6 124.85 188.2 123.75 183.3 122.85 179.45
Q 120.5 180.35 118.2 180.95
M 118.15 180.95
Q 117.55 181.05 117 181.2 110.85 181.8 105.65 180.9 104.2 180.6 102.85 180.25
L 101.9 186.95
Q 104.1 185.05 105.6 181 106.25 185.25 109.2 188 111.3 182.95 113.4 181.6 116.25 184.05 117.6 188
L 118.15 180.95
M 97.4 178.6
L 96.2 186.25
Q 98.6 187.65 101.8 187.55
L 101.9 186.95 102.85 180.25
Q 102.1 180.05 101.4 179.8 99.4 179.45 97.4 178.6
M 97.4 178.6
Q 96.05 178.05 94.7 177.25 96.4 180.95 95.55 185.8
L 96.2 186.25 97.4 178.6
M 118.8 133.85
Q 118.75 133.85 118.7 133.85 111.75 134.25 105.25 133.25
L 105 135.8 109.9 136.6 109.95 136.6 118.7 135.85 119.15 136 118.8 133.85
M 88.45 140.25
L 88.6 139 93.8 139.8 97.65 138.05 96.5 137.25 105 135.8 105.25 133.25
Q 93.9 131.55 84.6 127.4 84.2 132.7 84.15 139
L 84.25 139 88 140.2 88.45 140.25
M 127.85 144.6
Q 127.05 141.15 123.9 139.35
L 119.05 142.15 116.25 140.45 111.4 142.6 111.4 143 110.55 143 113.95 164.2 107.95 169.15 103.6 163.8 108.8 143 108.2 143 108.2 142.2 103.75 139.45 101.4 140.55 97.65 138.05 93.8 139.8 88.6 139 88.45 140.25 87.55 147.25 87.4 148.2 93.2 149.8 100.4 148.2 97.6 168.6 97.15 168.8 103.2 170.8
Q 105.011328125 171.4673828125 107.25 171.8 107.3880859375 171.83359375 107.5 171.85 107.6 171.85 107.7 171.9 111.8 172.5 117.4 172.2
L 122.3 171 122 170.8 120.8 161.2 119.8 152.55 120.8 161.2 123.2 161 129.6 160.85 131.1 160.8 127.85 144.6
M 106.45 138.2
L 108.2 140.4 111.4 140.6 114.5 139.35 109.95 137.1 106.45 138.2
M 140.1 129.95
L 139.9 129.9
Q 128.85 133.3 118.8 133.85
L 119.15 136 119.3 136.05 125.8 138.2 123.9 139.35
Q 127.05 141.15 127.85 144.6
L 131.1 160.8 129.6 160.85 129.6 161.2 130.8 163.2 129.2 164.8 125.8 165.4 123.2 164.6 123.2 161 120.8 161.2 122 170.8 122.3 171 122.4 171.4 125.8 178.2
Q 124.3 178.85 122.85 179.45
L 123.75 183.3 124.75 179.25
Q 126.7 184.45 129.4 186.6
L 130.8 179.4
Q 134.75 183.6 135.6 187 138.1 184.9 137.6 179.8 140.6 185.45 144.4 187.2
L 140.25 161.8 138.3 158.05 135 164.4
Q 135.45 161.15 135.95 157.85 137.85 144.4 140.1 129.95
M 78.5 143.65
L 76.8 144.5
Q 76.65 145.25 76.55 146.05 73.4 165.8 74.4 181.6 77.25 179.05 79.4 173.6 79.55 177.9 82.2 183.4 85.05 179.05 86.4 174 86.7 181.65 89.1 185.45
L 94.55 177.15
Q 93.65 176.6 92.8 176
L 97 169.2 97.15 168.8 97.6 168.6 100.4 148.2 93.2 149.8 87.4 148.2 87.55 147.25 87.2 147.2 84.65 146.45
Q 85.4115234375 155.5802734375 86.9 166
L 83.8 159.35 80.6 161.9 78.5 143.65
M 116.45 87.25
L 116.95 87.3 129.85 108.15
Q 133.35 97.5 132.1 85.3 143.65 99.95 142.85 114.15 141.6 122.05 140.6 130.65
L 140.4 129.75
Q 140.35 129.75 140.3 129.75 140.2 129.8 140.1 129.8
L 140.1 129.85
Q 140.1 129.9 140.1 129.95 137.85 144.4 135.95 157.85 135.45 161.15 135 164.4
L 138.3 158.05 140.25 161.8 141.45 164.1 142.05 164.2 149.75 136.1 152.4 136.3 154.2 112.2 158.25 117.8
Q 158.2 114.75 157.95 111.95 157.9 111.8 157.9 111.75 155.65 86.3 139.15 77 133.15 73.65 125.35 72.4 120.95 71.65 116 71.6 108.25 72.5 101.95 74.45 94.3 76.85 88.7 80.8 80.75 85.7 76.8 94.15 72.8 102.6 72.75 114.55
L 77.6 108.6
Q 76.85 112 76.3 115.2 72.55 135.1 74.2 144.9
L 76.8 144.5 78.5 143.65 80.6 161.9 83.8 159.35 86.9 166
Q 85.4115234375 155.5802734375 84.65 146.45
L 81.85 145.6 82.8 141.2 79.2 140.2 78.6 138.2 82.4 138.4 84.15 139
Q 84.2 132.7 84.6 127.4 84.5 127.35 84.45 127.35 84.35 127.25 84.2 127.2 84.7 102.65 95 90.4 98.35 104.2 102.95 107.8 99.65 94.85 104 87 106.1 100.05 118.25 111.4 114.95 90.95 116.45 87.25 Z"/>
        </g>

        <g id="Layer0_0_FILL">
            <path fill="#FF3366" stroke="none" d="
M 116.65 22.15
L 111.85 22.15 111.85 29.35 116.65 29.35 116.65 22.15 Z"/>

            <path fill="#FFFFFF" stroke="none" d="
M 72.1 22.15
L 79.35 22.15 79.35 19.75 69.7 19.75 69.7 31.75 79.35 31.75 79.35 29.35 72.1 29.35 72.1 22.15
M 67.3 19.75
L 64.9 19.75 64.9 31.75 67.3 31.75 67.3 19.75
M 62.5 22.15
L 62.5 19.75 50.5 19.75 50.5 22.15 55.3 22.15 55.3 31.75 57.7 31.75 57.7 22.15 62.5 22.15
M 45.7 31.75
L 48.1 31.75 48.1 19.75 38.5 19.75 38.5 31.75 40.9 31.75 40.9 26.95 45.7 26.95 45.7 31.75
M 45.7 22.15
L 45.7 24.55 40.9 24.55 40.9 22.15 45.7 22.15
M 36.15 19.75
L 26.5 19.75 26.5 31.75 28.9 31.75 28.9 22.15 33.7 22.15 33.7 31.75 36.15 31.75 36.15 19.75
M 24.15 19.75
L 21.7 19.75 21.7 29.35 16.9 29.35 16.9 19.75 14.5 19.75 14.5 31.75 24.15 31.75 24.15 19.75
M 12.15 31.75
L 12.15 29.35 4.9 29.35 4.9 19.75 2.5 19.75 2.5 31.75 12.15 31.75 Z"/>
        </g>

        <g id="lol_0_Layer0_0_FILL">
            <path fill="#FFFFFF" stroke="none" d="
M 33.6 12
L 33.6 0 23.95 0 23.95 12 33.6 12
M 31.15 2.4
L 31.15 9.6 26.35 9.6 26.35 2.4 31.15 2.4
M 9.65 12
L 9.65 0 7.2 0 7.2 9.6 2.4 9.6 2.4 0 0 0 0 12 9.65 12
M 21.65 12
L 21.65 2.4 19.2 2.4 19.2 0 12 0 12 12 21.65 12
M 19.15 9.6
L 14.35 9.6 14.35 2.4 19.15 2.4 19.15 9.6
M 43.2 2.4
L 43.2 12 45.65 12 45.65 0 36 0 36 12 38.4 12 38.4 2.4 43.2 2.4
M 57.65 2.4
L 57.65 0 48 0 48 12 57.65 12 57.65 4.8 52.8 4.8 52.8 7.2 55.2 7.2 55.2 9.6 50.4 9.6 50.4 2.4 57.65 2.4
M 62.4 12
L 62.4 7.2 67.2 7.2 67.2 12 69.6 12 69.6 0 60 0 60 12 62.4 12
M 67.2 2.4
L 67.2 4.8 62.4 4.8 62.4 2.4 67.2 2.4
M 72 12
L 74.4 12 74.4 0 72 0 72 12
M 84 12
L 86.45 12 86.45 0 76.8 0 76.8 12 79.2 12 79.2 2.4 84 2.4 84 12 Z"/>
        </g>

        <path id="Layer1_0_1_STROKES" stroke="#FFFFFF" stroke-width="1" stroke-linejoin="round" stroke-linecap="round"
              fill="none" d="
M 139.15 77
Q 155.65 86.3 157.9 111.75 157.9 111.8 157.95 111.95 158.2 114.75 158.25 117.8
L 154.2 112.2 152.4 136.3 152.2 138.5 149.75 136.1 142.05 164.2
M 141.45 164.1
L 140.25 161.8 144.4 187.2
Q 140.6 185.45 137.6 179.8 138.1 184.9 135.6 187 134.75 183.6 130.8 179.4
L 129.4 186.6
Q 126.7 184.45 124.75 179.25
L 123.75 183.3
M 118.15 180.95
L 117.6 188
Q 116.25 184.05 113.4 181.6 111.3 182.95 109.2 188 106.25 185.25 105.6 181 104.1 185.05 101.9 186.95
M 95.55 185.8
Q 96.4 180.95 94.7 177.25
M 94.55 177.15
L 89.1 185.45
Q 86.7 181.65 86.4 174 85.05 179.05 82.2 183.4 79.55 177.9 79.4 173.6 77.25 179.05 74.4 181.6 73.4 165.8 76.55 146.05 76.65 145.25 76.8 144.5
L 74.3 145.65
Q 74.25 145.3 74.2 144.9 72.55 135.1 76.3 115.2 76.85 112 77.6 108.6
L 72.75 114.55
Q 72.8 102.6 76.8 94.15 80.75 85.7 88.7 80.8
M 101.95 74.45
Q 108.25 72.5 116 71.6 120.95 71.65 125.35 72.4 133.15 73.65 139.15 77
M 140.1 129.8
L 140.1 129.85
Q 140.1 129.9 140.1 129.95 137.85 144.4 135.95 157.85 135.45 161.15 135 164.4
L 138.3 158.05 140.25 161.8
M 88.7 80.8
Q 94.3 76.85 101.95 74.45
M 76.8 144.5
L 78.5 143.65 80.6 161.9 83.8 159.35 86.9 166
Q 85.4115234375 155.5802734375 84.65 146.45
M 84.15 139
Q 84.2 132.7 84.6 127.4
M 139.9 129.9
Q 139.95 129.85 140 129.85 140.0515625 129.8484375 140.1 129.8
M 140 129.85
Q 140.0515625 129.85 140.1 129.85
M 119.3 136.05
L 119.15 136 118.8 133.85
M 105.25 133.25
L 105 135.8"/>

        <path id="Layer1_0_2_STROKES" stroke="#FFFFFF" stroke-width="1" stroke-linejoin="round" stroke-linecap="butt"
              fill="none" d="
M 123.75 183.3
L 124.85 188.2
M 119.4 188.25
L 118.2 181 118.2 180.95 118.15 180.95
M 101.9 186.95
L 101.8 187.55
M 94.7 177.25
Q 94.6 177.2 94.55 177.15
M 123.9 139.35
Q 127.05 141.15 127.85 144.6
L 131.1 160.8 129.6 160.85
M 123.2 161
L 120.8 161.2 122 170.8 122.3 171
M 122.85 179.45
L 123.75 183.3
M 97.65 138.05
L 93.8 139.8 88.6 139 88.45 140.25 87.55 147.25 87.4 148.2 93.2 149.8 100.4 148.2 97.6 168.6 97.15 168.8
M 120.8 161.2
L 119.8 152.55
M 96.2 186.25
L 97.4 178.6
M 101.9 186.95
L 102.85 180.25
M 123.2 161
L 129.6 160.85"/>

        <path id="Layer0_0_1_STROKES" stroke="#000000" stroke-width="1.5" stroke-linejoin="round" stroke-linecap="round"
              fill="none" d="
M 41.15 130
L 79.2 140.2 41.2 106.7
M 56.05 159.25
L 79.2 140.2 29.5 149.9
M 64.05 79
L 79.2 140.2"/>
    </defs>

    <g transform="matrix( 1, 0, 0, 1, 0,0) ">
        <use xlink:href="#Layer3_0_FILL"/>
    </g>

    <g transform="matrix( 1, 0, 0, 1, 0,0) ">
        <use xlink:href="#Layer2_0_FILL"/>
    </g>

    <g transform="matrix( 1, 0, 0, 1, 0,0) ">
        <use xlink:href="#Layer2_1_FILL"/>
    </g>

    <g transform="matrix( 1, 0, 0, 1, 0,0) ">
        <use xlink:href="#Layer2_2_FILL"/>
    </g>

    <g transform="matrix( 1, 0, 0, 1, 0,0) ">
        <use xlink:href="#Layer2_3_FILL"/>
    </g>

    <g transform="matrix( 1, 0, 0, 1, 0,0) ">
        <use xlink:href="#Layer2_4_FILL"/>
    </g>

    <g transform="matrix( 1, 0, 0, 1, 0,0) ">
        <use xlink:href="#Layer2_5_FILL"/>
    </g>

    <g transform="matrix( 1, 0, 0, 1, 0,0) ">
        <use xlink:href="#Layer2_6_FILL"/>
    </g>

    <g transform="matrix( 1, 0, 0, 1, 0,0) ">
        <use xlink:href="#Layer2_7_FILL"/>
    </g>

    <g transform="matrix( 1, 0, 0, 1, 0,0) ">
        <use xlink:href="#Layer2_8_FILL"/>
    </g>

    <g transform="matrix( 1, 0, 0, 1, 0,0) ">
        <use xlink:href="#Layer1_0_FILL"/>

        <use xlink:href="#Layer1_0_1_STROKES"/>

        <use xlink:href="#Layer1_0_2_STROKES"/>
    </g>

    <g transform="matrix( 1, 0, 0, 1, 0,0) ">
        <use xlink:href="#Layer0_0_FILL"/>

        <use xlink:href="#Layer0_0_1_STROKES"/>
    </g>

    <g filter="url(#Filter_1)" transform="matrix( 1, 0, 0, 1, 0,0) ">
        <g transform="matrix( 1, 0, 0, 1, 85.45,19.75) ">
            <g transform="matrix( 1, 0, 0, 1, 0,0) ">
                <use xlink:href="#lol_0_Layer0_0_FILL"/>
            </g>
        </g>
    </g>
</svg>
