<svg xmlns:xlink="http://www.w3.org/1999/xlink" xmlns="http://www.w3.org/2000/svg" version="1.1"
     preserveAspectRatio="none" x="0px" y="0px" width="960px" height="640px" viewBox="0 0 960 640">
    <defs>
        <linearGradient id="Gradient_1" gradientUnits="userSpaceOnUse" x1="960" y1="-546.1375" x2="960" y2="546.1375"
                        spreadMethod="pad">
            <stop offset="0%" stop-color="#5C6EA0"/>

            <stop offset="100%" stop-color="#8DB7FB"/>
        </linearGradient>

        <linearGradient id="Gradient_2" gradientUnits="userSpaceOnUse" x1="0" y1="11.25" x2="74.4" y2="11.25"
                        spreadMethod="pad">
            <stop offset="21.568627450980394%" stop-color="#1D3865"/>

            <stop offset="100%" stop-color="#8DB7FB"/>
        </linearGradient>

        <linearGradient id="Gradient_3" gradientUnits="userSpaceOnUse" x1="65.5125" y1="-10.500000000000014"
                        x2="32.3875" y2="198.60000000000002" spreadMethod="pad">
            <stop offset="21.568627450980394%" stop-color="#1D3865"/>

            <stop offset="100%" stop-color="#8DB7FB"/>
        </linearGradient>

        <filter id="Filter_1" x="-20%" y="-20%" width="140%" height="140%" color-interpolation-filters="sRGB">
            <feGaussianBlur in="SourceGraphic" stdDeviation="5,5" result="result1"/>
        </filter>

        <filter id="Filter_2" x="-20%" y="-20%" width="140%" height="140%" color-interpolation-filters="sRGB">
            <feGaussianBlur in="SourceGraphic" stdDeviation="4.666666666666667,4.666666666666667" result="result1"/>
        </filter>

        <filter id="Filter_3" x="-20%" y="-24.680443191631092%" width="140%" height="149.3608863832622%"
                color-interpolation-filters="sRGB">
            <feFlood flood-color="#999999" flood-opacity="1" in="SourceGraphic" result="result1"/>

            <feComposite in2="SourceGraphic" in="result1" operator="in" result="result2"/>

            <feGaussianBlur in="result2" stdDeviation="0,0" result="result3"/>

            <feOffset dx="-5.034563128398698" dy="6.217167691655768" in="result3" result="result4"/>

            <feComposite in2="result4" in="SourceGraphic" operator="over" result="result5"/>
        </filter>

        <filter id="Filter_4" x="-20%" y="-20%" width="140%" height="140%" color-interpolation-filters="sRGB">
            <feFlood flood-color="#8EA8D4" flood-opacity="1" in="SourceGraphic" result="result1"/>

            <feComposite in2="SourceGraphic" in="result1" operator="in" result="result2"/>

            <feGaussianBlur in="result2" stdDeviation="1.3333333333333333,1.3333333333333333" result="result3"/>

            <feFlood flood-color="#153467" flood-opacity="1" in="SourceGraphic" result="result4"/>

            <feComposite in2="SourceGraphic" in="result4" operator="in" result="result5"/>

            <feGaussianBlur in="result5" stdDeviation="1.3333333333333333,1.3333333333333333" result="result6"/>

            <feOffset dx="-1.5542919229139414" dy="1.2586407820996754" in="result3" result="result7"/>

            <feOffset dx="1.5542919229139414" dy="-1.2586407820996754" in="result3" result="result8"/>

            <feOffset dx="1.5542919229139414" dy="-1.2586407820996754" in="result6" result="result9"/>

            <feOffset dx="-1.5542919229139414" dy="1.2586407820996754" in="result6" result="result10"/>

            <feColorMatrix in="SourceGraphic" type="matrix" values="0 0 0 0 255 0 0 0 0 255 0 0 0 0 255 0 0 0 255 0"
                           result="result11"/>

            <feFlood flood-color="#000000" flood-opacity="0" in="SourceGraphic" result="result12"/>

            <feComposite in2="result8" in="result7" operator="arithmetic" k1="0" k2="-1" k3="1" k4="0"
                         result="result13"/>

            <feComposite in2="result10" in="result9" operator="arithmetic" k1="0" k2="-1" k3="1" k4="0"
                         result="result14"/>

            <feComposite in2="result12" in="result13" operator="xor" result="result15"/>

            <feComposite in2="result15" in="result14" operator="xor" result="result16"/>

            <feComposite in2="result11" in="result16" operator="in" result="result17"/>

            <feBlend mode="normal" in2="SourceGraphic" in="result17" result="result18"/>
        </filter>

        <filter id="Filter_5" x="-20%" y="-20%" width="140%" height="140%" color-interpolation-filters="sRGB">
            <feFlood flood-color="#999999" flood-opacity="1" in="SourceGraphic" result="result1"/>

            <feComposite in2="SourceGraphic" in="result1" operator="in" result="result2"/>

            <feGaussianBlur in="result2" stdDeviation="0,0" result="result3"/>

            <feOffset dx="-3.881182905103986" dy="0.9676875823986709" in="result3" result="result4"/>

            <feComposite in2="result4" in="SourceGraphic" operator="over" result="result5"/>
        </filter>

        <filter id="Filter_6" x="-20%" y="-20%" width="140%" height="140%" color-interpolation-filters="sRGB">
            <feFlood flood-color="#999999" flood-opacity="1" in="SourceGraphic" result="result1"/>

            <feComposite in2="SourceGraphic" in="result1" operator="in" result="result2"/>

            <feGaussianBlur in="result2" stdDeviation="0,0" result="result3"/>

            <feOffset dx="-3.984778792366982" dy="0.34862297099063455" in="result3" result="result4"/>

            <feComposite in2="result4" in="SourceGraphic" operator="over" result="result5"/>
        </filter>

        <filter id="Filter_7" x="-20%" y="-20%" width="140%" height="140%" color-interpolation-filters="sRGB">
            <feFlood flood-color="#999999" flood-opacity="1" in="SourceGraphic" result="result1"/>

            <feComposite in2="SourceGraphic" in="result1" operator="in" result="result2"/>

            <feGaussianBlur in="result2" stdDeviation="0,0" result="result3"/>

            <feOffset dx="4" dy="0" in="result3" result="result4"/>

            <feComposite in2="result4" in="SourceGraphic" operator="over" result="result5"/>
        </filter>

        <filter id="Filter_8" x="-20%" y="-20%" width="140%" height="140%" color-interpolation-filters="sRGB">
            <feFlood flood-color="#999999" flood-opacity="1" in="SourceGraphic" result="result1"/>

            <feComposite in2="SourceGraphic" in="result1" operator="in" result="result2"/>

            <feGaussianBlur in="result2" stdDeviation="0,0" result="result3"/>

            <feOffset dx="4" dy="0" in="result3" result="result4"/>

            <feComposite in2="result4" in="SourceGraphic" operator="over" result="result5"/>
        </filter>

        <g id="Layer6_0_FILL">
            <path fill="url(#Gradient_1)" stroke="none" d="
M 960 640
L 960 0 0 0 0 640 960 640 Z"/>
        </g>

        <g id="kumo_0_Layer1_0_FILL">
            <path fill="#FFFFFF" stroke="none" d="
M 1010.25 385.5
Q 1004.5 379.55 996.2 373.05 984.35 363.7 973.7 359.85 971.6 359.1 969.55 358.55 970.2 357.65 970.4 356.2 970.8 353.75 969.85 350.8 966.55 340.05 958.35 323.5 951 308.45 945 299.8 936.5 287.5 926.4 280.7 920.8 276.95 912.95 273.75 908.25 271.85 898.55 268.7 886.3 264.7 879.95 262.85 869.55 259.8 861 258.2 847.65 255.75 830.7 255.3 830.45 255.3 830.2 255.3 808.55 217.8 776.3 184.5 764.85 172.6 756.15 166.6 747.45 160.45 739.45 158.6 736.25 157.85 732.1 157.55 730.15 157.4 725.75 157.35 719.9 151.7 713.6 146.6 711.2 144.6 709.45 143.9 709.45 143.75 709.5 143.65 709.9 142.35 709.6 140.95 709.2 139.05 707.2 136.15 697 121.25 687.6 111.25 683.2 106.55 677.1 101 674.15 98.25 666.15 91.25 657.1 83.4 652 79.85 643.7 74.1 635.95 71.85 630.65 70.3 623.8 69.9 622 69.8 619.5 69.75 619.15 68.9 618.45 68 617 66.15 614.3 64.65 598.7 56.1 580 52.05 562.55 48.3 543.4 48.6 511.55 49.2 471.3 61.65 445.2 69.75 422.85 80.3 418.95 78.05 415 75.85 399.65 67.3 389.15 62.7 374.6 56.35 361.7 53.85 351.35 51.85 338.05 51.65 330.35 51.55 314.25 52.2 293.65 53.1 283.25 54.3 266.05 56.25 253 60.65 246.45 62.85 244.6 63.3 239.7 64.4 236 63.6 232 62.7 227.95 59.3 225.9 57.6 221.25 52.6 212.65 43.45 200.3 33.7 192.9 27.9 177.5 16.95 168.45 10.55 163.65 7.8 155.6 3.15 148.45 1.4 135.85 -1.7 118.1 2.1 65.8 13.4 16.05 66.95 15.5 66.55 14.8 66.25 11.6 64.85 8.9 66.4 4.85 68.75 2.95 76.55 -0.35 90.2 0.15 109.2 0.45 120.2 2.15 142.3 3.4 165.55 1.75 205.2 -0.2 251.25 0 268.2 0.3 296.7 4.2 332.1 6.5 353.55 12.55 395.7 16.2 421.55 19.05 434.8 23.6 456.35 30.65 472.45 31.45 474.3 32.4 475.45 33 476.9 34.25 477.9 35.6 478.9 37.6 479.45 38.9 479.75 41.35 480.05 166.7 494.8 324.6 493.45 387.8 492.85 466.65 489.7 514.65 487.75 608.65 482.95 641.75 481.25 658.25 480 661.85 479.75 694.3 476.95 716.15 475.1 730.4 474.45 747.95 473.65 783.1 473.75
L 893.6 473.95
Q 932.25 474 951.8 472.3 984 469.55 1008.25 460.75 1013.15 458.95 1016.25 457.25 1020.45 455 1023.1 452.1 1029.75 444.8 1029.75 431 1029.65 414.55 1021.55 400.35 1017.25 392.8 1010.25 385.5 Z"/>
        </g>

        <g id="kumo_0_Layer0_0_FILL">
            <path fill="#A1BAE2" stroke="none" d="
M 687.6 183.4
Q 683.2 178.7 677.1 173.15 674.15 170.4 666.15 163.4 657.1 155.55 652 152 643.7 146.25 635.95 144 630.65 142.45 623.8 142.05 622 141.95 619.5 141.9 619.15 141.05 618.45 140.15 617 138.3 614.3 136.8 598.7 128.25 580 124.2 562.55 120.45 543.4 120.75 511.55 121.35 471.3 133.8 445.2 141.9 422.85 152.45 418.95 150.2 415 148 399.65 139.45 389.15 134.85 374.6 128.5 361.7 126 351.35 124 338.05 123.8 330.35 123.7 314.25 124.35 293.65 125.25 283.25 126.45 266.05 128.4 253 132.8 246.45 135 244.6 135.45 239.7 136.55 236 135.75 232 134.85 227.95 131.45 225.9 129.75 221.25 124.75 212.65 115.6 200.3 105.85 192.9 100.05 177.5 89.1 168.45 82.7 163.65 79.95 155.6 75.3 148.45 73.55 135.85 70.45 118.1 74.25 65.8 85.55 16.05 139.1 15.5 138.7 14.8 138.4 11.6 137 8.9 138.55 4.85 140.9 2.95 148.7 -0.35 162.35 0.15 181.35 0.45 192.35 2.15 214.45 3.4 237.7 1.75 277.35 -0.2 323.4 0 340.35 0.3 368.85 4.2 404.25 6.5 425.7 12.55 467.85 16.2 493.7 19.05 506.95 23.6 528.5 30.65 544.6 31.45 546.45 32.4 547.6 33 549.05 34.25 550.05 35.6 551.05 37.6 551.6 38.9 551.9 41.35 552.2 166.7 566.95 324.6 565.6 387.8 565 466.65 561.85 514.65 559.9 608.65 555.1 641.75 553.4 658.25 552.15 661.85 551.9 694.3 549.1 716.15 547.25 730.4 546.6 747.95 545.8 783.1 545.9
L 893.6 546.1
Q 932.25 546.15 951.8 544.45 984 541.7 1008.25 532.9 1013.15 531.1 1016.25 529.4 1020.45 527.15 1023.1 524.25 1029.75 516.95 1029.75 503.15 1029.65 486.7 1021.55 472.5 1017.25 464.95 1010.25 457.65 1004.5 451.7 996.2 445.2 984.35 435.85 973.7 432 971.6 431.25 969.55 430.7 970.2 429.8 970.4 428.35 970.8 425.9 969.85 422.95 966.55 412.2 958.35 395.65 951 380.6 945 371.95 936.5 359.65 926.4 352.85 920.8 349.1 912.95 345.9 908.25 344 898.55 340.85 886.3 336.85 879.95 335 869.55 331.95 861 330.35 847.65 327.9 830.7 327.45 830.45 327.45 830.2 327.45 808.55 289.95 776.3 256.65 764.85 244.75 756.15 238.75 747.45 232.6 739.45 230.75 736.25 230 732.1 229.7 730.15 229.55 725.75 229.5 719.9 223.85 713.6 218.75 711.2 216.75 709.45 216.05 709.45 215.9 709.5 215.8 709.9 214.5 709.6 213.1 709.2 211.2 707.2 208.3 697 193.4 687.6 183.4 Z"/>
        </g>

        <g id="yea_0_Layer0_0_FILL">
            <path fill="#1D3865" stroke="none" d="
M 352.05 53
L 352.05 48 0 48 0 53 352.05 53
M 352 0
L 352 2.75 352.05 0 352 0 Z"/>
        </g>

        <g id="birtd_0_Layer0_0_FILL">
            <path fill="url(#Gradient_2)" stroke="none" d="
M 74.4 0
Q 70.65 0.6 66.95 1.45 63.5 2.35 60.3 3.85 57.2 5.2 54.45 7.25 51.65 9.2 49.05 11.45 45.2 10 41.25 8.85 37.7 7.65 34 7.05 30.65 6.45 27.25 6.15 23 6.1 18.85 7 16.95 7.4 15.05 7.85 12.4 8.35 10 9.4 7.95 10.3 5.9 11.25 2.15 13.2 0 16.8 2.95 16.15 5.95 15.55 8.8 15.1 11.65 14.65 14.4 14.45 17.15 14.35 21.15 13.95 25.05 14.5 28.9 14.85 32.45 15.6 35.95 16.4 39.4 17.9 41.2 18.8 42.95 19.85 44.1 20.65 45.3 21.45 47.1 22.65 49.1 22.6 50.8 22.35 51.8 20.9 52.45 20.05 52.95 19.05 53.85 17.2 54.05 14.95 56.05 12.8 58.2 10.75 60.45 8.65 62.9 6.8 65.5 4.9 68.3 3.25 71.3 1.55 74.4 0 Z"/>
        </g>

        <g id="sora_0_Layer0_0_FILL">
            <path fill="url(#Gradient_3)" stroke="none" d="
M 81.15 6.2
Q 81.15 0.3 81.05 0.25 81 0.15 80.9 0.1 80.6 -0.1 71.9 7.1 62.8 14.7 58.05 19.3 55.1033203125 22.093359375 54.7 22.6 54.2962890625 23.1150390625 53.1 24.6 51.955078125 26.0794921875 51.35 26.5
L 34 26.6
Q 33.8896484375 26.1771484375 32.5 24.7 31.1576171875 23.2169921875 30.65 22.65 30.147265625 22.094140625 27.2 19.3 22.45 14.7 13.35 7.1 4.65 -0.1 4.35 0.1 4.25 0.15 4.2 0.25 4.1 0.3 4.1 6.2 4.1 12.7 4.3 17.85
L 5.1 35.7
Q 4.85 35.9 2.5 48.4 0.05 61.6 0 65.25 0 70.4 2.05 72.7 3.5 74.3 6.05 75.05 7.85 75.55 10.8 75.8 15.4 76.15 24.05 76.3 23.9 76.45 23.85 76.6 23.6 76.95 23.6 77.85 23.7 80.25 24.3 81.05 24.95 81.9 25.9 82.15 24.6 86.45 23.3 93.55 22.15 99.9 20.6 112.9 19.15 125.05 19.35 125.3 20.35 126.3 21 126.65 21.75 127.05 22.9 127.15 24.85 127.4 26.65 126.7 27 126.6 28.3 126.45 28.5 129.55 28.55 154.3 32.8359375 157.5060546875 37.35 154.4
L 37.35 126.7 48.4 126.7
Q 48.25 128.25 48.3 136.45 48.3 145.1 48.4 154.35 52.5326171875 157.9380859375 57.3 154.25 56.3 128.5 56.35 117.7
L 56.15 117.4 56.35 117.6
Q 56.35 116.35 56.35 115.25 56 111.05 56 106.65 56 102.1 55.95 97.6 56.2 98.3 56.55 99.1 59.8 106.8 61.05 109.2 62.2 111.7 64.15 116.05 66.05 120.4 68.8 122.75 71.4 125.05 72.85 124.9 74.25 124.65 75.55 124.45 76.8 124.25 79.35 121.85 79.75 121.45 80.1 121.05
L 80.1 107.25 73.5 113.6
Q 65.25 97 57.55 81.65 58.2 81.6 58.75 81.7 59.15 81.45 59.35 81.15 59.65 80.65 59.65 79.9 59.5 79.05 59.45 78.6 59.35 77.65 59.25 77.15 59.15 76.65 58.95 76.35 69.25 76.2 74.45 75.8 77.4 75.55 79.2 75.05 81.75 74.3 83.2 72.7 85.25 70.4 85.25 65.25 85.2 61.6 82.75 48.4 80.4 35.9 80.15 35.7
L 80.95 17.85
Q 81.15 12.7 81.15 6.2 Z"/>
        </g>

        <g id="Layer1_0_FILL">
            <path fill="#1D3865" stroke="none" d="
M 841.45 348.05
L 832.75 348.05 832.75 412.85 841.45 412.85 841.45 348.05 Z"/>
        </g>

        <g id="s_0_Layer0_0_FILL">
            <path fill="#000000" stroke="none" d="
M 56.25 24
L 53.9 0
Q 52.75 2.3 51 2.9 49.8 4.1 48.05 4.1 45.7 4.1 40.45 1.75 35.15 0 29.3 0 15.25 0 8.2 7.6 1.2 15.2 1.2 24.6 1.2 35.7 7.05 41 12.9 46.25 28.7 53.3 40.45 58.55 45.7 63.85 51.55 69.7 51.55 75.55 51.55 86.1 46.3 92.55 41.6 98.4 31.65 98.4 22.25 98.4 14.65 92.55 7.6 87.3 3.5 72.65
L 0 73.8 4.7 102.5
Q 7.05 100.75 8.8 99.6 10.55 98.4 12.3 98.4 15.8 98.4 19.95 100.15 25.8 102.5 31.05 102.5 45.1 102.5 52.15 94.3 59.75 85.5 59.75 75.55 59.75 65.6 53.3 58 47.45 50.95 33.4 45.1 16.4 37.5 12.3 33.35 8.8 29.85 8.8 23.4 8.8 16.4 12.9 9.95 17 4.1 28.15 4.1 36.9 4.1 42.2 8.2 48.05 12.85 53.3 25.15
L 56.25 24 Z"/>
        </g>

        <g id="o_0_Layer0_0_FILL">
            <path fill="#000000" stroke="none" d="
M 53.15 28.55
Q 53.15 16.75 46.25 8.2 39.35 0 26.55 0 14.4 0 7.2 7.9 0 15.75 0 28.55 0 42 7.55 49.55 15.4 57.4 26.55 57.4 38.05 57.4 45.6 49.55 53.15 41.65 53.15 28.55
M 46.9 28.55
Q 46.9 43.3 41 49.2 35.1 55.45 26.55 55.45 18.7 55.45 12.45 48.9 6.2 42.65 6.2 28.55 6.2 15.1 12.1 8.85 18.35 2.3 26.55 2.3 36.4 2.3 41.65 9.5 46.9 16.75 46.9 28.55 Z"/>
        </g>

        <g id="r_0_Layer0_0_FILL">
            <path fill="#000000" stroke="none" d="
M 36.75 3.3
Q 31.5 0 22.95 0
L 0 0 0 2 1.95 2
Q 3.6 2 4.25 2.65 4.9 3.3 4.9 4.6
L 4.9 51.5
Q 4.9 52.85 4.25 53.5 3.6 54.15 1.95 54.15
L 0 54.15 0 56.1 15.1 56.1 15.1 54.15 13.1 54.15
Q 11.8 54.15 10.8 53.5 10.15 52.85 10.15 51.5
L 10.15 27.9 21.95 27.9 36.1 56.1 45.25 56.1 45.25 54.15 43.3 54.15
Q 42.3 54.15 41.35 53.5 40.7 53.15 40 51.85
L 26.9 27.9
Q 33.15 26.9 37.4 23.3 42 19.7 42 13.15 42 6.55 36.75 3.3
M 21 2
Q 28.2 2 32.15 4.95 36.4 8.2 36.4 13.8 36.4 20 32.15 23 28.2 25.95 21.65 25.95
L 10.15 25.95 10.15 4.6
Q 10.15 3.3 10.8 2.65 11.8 2 13.1 2
L 21 2 Z"/>
        </g>

        <g id="a_0_Layer0_0_FILL">
            <path fill="#000000" stroke="none" d="
M 13.45 36.4
L 37.7 36.4 43.3 50.85
Q 43.95 52.8 43.3 54.15 42.95 55.45 41 55.45
L 39.7 55.45 39.7 57.4 54.45 57.4 54.45 55.45 53.45 55.45
Q 52.15 55.45 51.15 54.45 50.2 53.8 49.55 51.85
L 29.85 0 24.9 1.65 4.9 51.85
Q 4.25 53.8 2.95 54.45 1.95 55.45 0.65 55.45
L 0 55.45 0 57.4 12.45 57.4 12.45 55.45 11.45 55.45
Q 9.15 55.45 7.85 54.15 6.85 52.8 7.85 50.55
L 13.45 36.4
M 14.1 34.45
L 25.55 5.55 25.9 5.55 37.05 34.45 14.1 34.45 Z"/>
        </g>
    </defs>

    <g transform="matrix( 1, 0, 0, 1, 0,0) ">
        <use xlink:href="#Layer6_0_FILL"/>
    </g>

    <g filter="url(#Filter_1)" transform="matrix( 1, 0, 0, 1, 0,0) ">
        <g transform="matrix( 1, 0, 0, 1, -78.3,239.15) ">
            <g transform="matrix( 1, 0, 0, 1, 0,0) ">
                <use xlink:href="#kumo_0_Layer1_0_FILL"/>
            </g>

            <g transform="matrix( 1, 0, 0, 1, 0,0) ">
                <use xlink:href="#kumo_0_Layer0_0_FILL"/>
            </g>
        </g>
    </g>

    <g filter="url(#Filter_2)" transform="matrix( 1, 0, 0, 1, 0,0) ">
        <g transform="matrix( -0.533599853515625, 0, 0, 0.44915771484375, 1259.05,45.85) ">
            <g transform="matrix( 1, 0, 0, 1, 0,0) ">
                <use xlink:href="#kumo_0_Layer1_0_FILL"/>
            </g>

            <g transform="matrix( 1, 0, 0, 1, 0,0) ">
                <use xlink:href="#kumo_0_Layer0_0_FILL"/>
            </g>
        </g>
    </g>

    <g transform="matrix( 1.737548828125, 0, 0, 1.87347412109375, 224,313.55) ">
        <g transform="matrix( 1, 0, 0, 1, 0,0) ">
            <use xlink:href="#yea_0_Layer0_0_FILL"/>
        </g>
    </g>

    <g filter="url(#Filter_3)" transform="matrix( 1, 0, 0, 1, 0,0) ">
        <g transform="matrix( 1.737548828125, 0, 0, 1.87347412109375, 231.6,225.3) ">
            <g transform="matrix( 1, 0, 0, 1, 0,0) ">
                <use xlink:href="#birtd_0_Layer0_0_FILL"/>
            </g>
        </g>
    </g>

    <g filter="url(#Filter_4)" transform="matrix( 1, 0, 0, 1, 0,0) ">
        <g transform="matrix( 1.737548828125, 0, 0, 1.87347412109375, 696.7,169) ">
            <g transform="matrix( 1, 0, 0, 1, 0,0) ">
                <use xlink:href="#sora_0_Layer0_0_FILL"/>
            </g>
        </g>
    </g>

    <g transform="matrix( 1, 0, 0, 1, 0,0) ">
        <use xlink:href="#Layer1_0_FILL"/>
    </g>

    <g transform="matrix( 1.737548828125, 0, 0, 1.87347412109375, 82.3,196.45) ">
        <g filter="url(#Filter_5)" transform="matrix( 0.5755157470703125, 0, 0, 0.5337677001953125, -47.35,-104.85) ">
            <g transform="matrix( 1.737548828125, 0, 0, 1.87347412109375, 100,248.5) ">
                <g transform="matrix( 1, 0, 0, 1, 0,0) ">
                    <use xlink:href="#s_0_Layer0_0_FILL"/>
                </g>
            </g>
        </g>

        <g filter="url(#Filter_6)" transform="matrix( 0.5755157470703125, 0, 0, 0.5337677001953125, -47.35,-104.85) ">
            <g transform="matrix( 1.737548828125, 0, 0, 1.87347412109375, 275.25,296) ">
                <g transform="matrix( 1, 0, 0, 1, 0,0) ">
                    <use xlink:href="#o_0_Layer0_0_FILL"/>
                </g>
            </g>
        </g>

        <g filter="url(#Filter_7)" transform="matrix( 0.5755157470703125, 0, 0, 0.5337677001953125, -47.35,-104.85) ">
            <g transform="matrix( 1.737548828125, 0, 0, 1.87347412109375, 442.05,298.7) ">
                <g transform="matrix( 1, 0, 0, 1, 0,0) ">
                    <use xlink:href="#r_0_Layer0_0_FILL"/>
                </g>
            </g>
        </g>

        <g filter="url(#Filter_8)" transform="matrix( 0.5755157470703125, 0, 0, 0.5337677001953125, -47.35,-104.85) ">
            <g transform="matrix( 1.737548828125, 0, 0, 1.87347412109375, 610.05,296.3) ">
                <g transform="matrix( 1, 0, 0, 1, 0,0) ">
                    <use xlink:href="#a_0_Layer0_0_FILL"/>
                </g>
            </g>
        </g>
    </g>
</svg>
