<svg xmlns:xlink="http://www.w3.org/1999/xlink" xmlns="http://www.w3.org/2000/svg" version="1.1"
     preserveAspectRatio="none" x="0px" y="0px" width="100px" height="270px" viewBox="0 0 100 270">
    <defs>
        <g id="Layer2_0_FILL">
            <path fill="#FFFFFF" stroke="none" d="
M 0 269.6
L 99.2 272 99.2 0 0 -0.8 0 269.6 Z"/>
        </g>

        <g id="Layer1_0_FILL">
            <path fill="#FFFFFF" stroke="none" d="
M 84.7 252.45
Q 83.6 251.75 81.3 249.55 78.15 246.6 77.05 245.75 76.75 245.9 76.55 246 76.3 245.75 75.95 244.95 75.65 244.05 75.65 243.45 72.85 243.95 69.9 244.05 69.9 244.25 69.9 244.55 69.9 245 69.85 245.4 69.9 245.5 69.9 245.65 69.9 246.4 68.25 248 67.4 248.85 66.05 250 65.65 249.9 65.5 249.6 65.35 250.25 65.3 250.55
L 64.8 250.75
Q 64.3 250.6 64.2 250.15 64.15 250 64.15 249.3 64.15 247.95 64.8 245.15 65.25 243 65.4 241.5 64.8 241.25 64.3 240.95 64.05 240.8 63.65 240.7 63.5 241.15 62.7 243.75 62.1 245.6 61.8 246.75 61.9 247.2 61.9 248.3 61.9 249.55 63.05 250.55 63.85 251.3 64.35 251.75 67 251.35 68.8 250.3 69.8 249.65 70.45 249.5 70.5 249.35 70.55 249.3 70.6 249.35 70.65 249.45 70.85 249.4 71.05 249.4 71.05 249.55 71.15 249.95 71.15 250.15 71 250.45 71.1 251.05 71.15 251.85 71.15 252.2 71.15 254.8 71.15 257.2083984375 71.1 258.8 71.5169921875 258.8 72 258.8 74.991796875 258.8 77.55 259.45 78.086328125 259.272265625 78.8 259.25 78.0435546875 257.5501953125 77.5 255.15 76.85 251.6 76.4 250
L 76.4 249.45
Q 76.15 249.2 76.15 249.1
L 76.15 248.75
Q 76.25 248.75 76.3 248.65 76.35 248.65 76.4 248.7
L 76.4 248.65
Q 77 248.6 77.45 249.15 78.65 249.7 80.4 250.8 82.7 252.25 84 253.5 84.15 253.15 84.45 252.7 84.55 252.55 84.7 252.45
M 86.85 232.5
Q 86.3 228.75 83.55 223.6 82.15 220.95 81.5 219.65 81 220.6 80.1 222.15 78.4 225.1 77.4 226.45 77.4 226.65 77.25 226.75 77.15 226.9 76.9 226.95
L 71.95 227.65
Q 71.5 227.6 65.7 228.3 65.3 228.25 65.2 228.2 65 228.15 64.95 227.7
L 64.9 227.35 64.95 227.3
Q 64.85 227.2 64.8 227.1 63.4 225.35 62.5 224.2 61.45 222.6 60.7 221.4 60.35 222.15 59.75 223.45 59.4 225.2 58.65 228.65 58.5 229.45 58.35 230.15 58.15 231.25 58 232.2 58.35 231.75 59.35 230.95 59.9 230.5 60.5 230.15 61.8 229.35 63.05 229.3 63.05 229.45 63.2 229.7 63.25 229.9 63.1 230.15 62.45 231.25 58.55 233.3 58.05 233.3 57.9 232.9 57.35 236.45 57.5 237.6 57.8 239.7 58.95 240.7 59.95 241.45 61.9 242 62.15 241.1 62.3 240.45
L 62.25 240.45 62 240.4 61.95 240.35
Q 60.95 240.35 60.75 239.85
L 60.75 239.2
Q 60.7 239.05 60.75 238.9 60.7 238.85 60.65 238.8 60.7 238.4 61 238.25 61.65 238 64.2 237.95 64.55 238.3 64.6 238.4
L 64.6 238.9
Q 64.65 238.9 64.7 238.9
L 64.75 239.1 64.75 239.75 64.65 239.8
Q 66.65 240.45 66.65 240.95 66.65 241.35 66.6 241.55 66.65 241.9 66.65 242.6 79.7 241.95 82.2 240.55 82.95 239.75 83.3 239.5 83.7 239.2 84.85 239.05 87.5 237.05 86.85 232.5
M 81.5 221.45
Q 81.8 221.6 82.05 222.15 82.25 222.6 82.5 223.45
L 83.6 225.95 83.6 226.45 83.3 226.6 82.45 226.6
Q 82.1 226.45 79.5 226.35
L 79.45 226.35 79.15 226.25 79.15 226.2
Q 79.15 226 79.25 225.9 79.5 224.7 80.15 223.05 81 221.1 81.45 220.9 81.6 221.05 81.6 221.15 81.55 221.3 81.5 221.45
M 84.8 229.75
Q 84.9 230 84.3 230 83.95 230 81.55 229.05 79.3 228.1 78.95 227.9
L 78.9 227.15
Q 80.1 226.8 82.2 227.6 84.1 228.35 84.9 229.2
L 84.8 229.75
M 83.25 237.05
Q 83.25 237.85 83.15 238.05 82.8 238.6 81.45 238.85
L 78.95 238.85
Q 78.5 238.55 78.5 237.55 78.5 236.7 78.75 236.45 79.6 235.65 82.8 235.85 83.25 236.1 83.25 237.05
M 60.85 222.55
Q 60.9 222.5 60.95 222.45
L 61.25 222.85
Q 61.25 222.9 61.25 223 61.45 223.3 61.8 223.9 62.45 225.05 63.75 227.4
L 63.75 227.9 63.45 228.2 62.2 228.35 60.05 228.35 59.75 228.2
Q 59.75 228.05 59.85 227.95 59.75 227.65 59.75 227.25 59.75 226.7 60 225.2 60.3 223.8 60.25 223 60.55 223 60.55 222.95
L 60.6 223
Q 60.65 222.95 60.65 222.9 60.65 222.85 60.65 222.8 60.65 222.45 60.85 222.55
M 79.15 232.2
Q 79.15 231.05 80.05 231.35 80.9 231.6 80.9 232.4 80.9 232.65 80.8 233.05 80.65 233.25 80.05 233.25
L 79.2 233.15 79.15 232.2
M 61.5 233.7
Q 62.3 233.35 63.1 234.2 62.8 234.6 62.7 235.4 62.6 235.8 61.95 235.9
L 61.1 235.9 60.9 234.95
Q 60.8 234.05 61.5 233.7
M 68.8 238.25
Q 69.2 238.25 70.2 239.4 71.1 239.35 71.3 238.6 71.35 238.45 71.4 238.3
L 71.4 237.9
Q 71.5 237.9 71.75 237.85 71.9 237.75 72.05 237.75
L 72.1 237.8
Q 72.2 237.75 72.3 237.75 72.6 237.75 73.05 238.05 73.5 238.3 73.8 238.3 74.05 238.3 74.35 237.8 74.7 237.2 75.05 237 75.65 237.35 75.65 237.9 75.65 238.35 75.15 239 74.6 239.75 74.05 239.75 72.95 239.75 72.4 239.6 72.3 239.75 72.15 239.9 71.55 240.75 70.55 240.75 69.4 240.75 68.7 239.9 68.2 239.35 68.15 238.75 68.2 238.45 68.25 238.45 68.4 238.25 68.8 238.25
M 76.9 161.65
L 69.3 161.65
Q 60.85 164.2 60.25 169.15 60.15 169.95 60.4 173.4 60.55 176.05 59.9 177.65 59.55 177.9 59.3 178
L 59.25 177.95
Q 58.45 178.55 53.45 180.85 57.35 181.35 59.05 181.5 59.15 181.6 59.35 181.75 59.7 181.75 59.8 181.95 59.85 182.05 59.9 182.25
L 59.9 193.65
Q 60 194.55 59.7 197.15 60.25 199.45 65.05 200.15
L 74.9 200.15
Q 81.35 197.95 82.45 192.9 82.65 187.05 83.9 184.4 84.4 180.25 84.75 176.8 85.4 170.15 85.4 167.7 85.4 164.8 84.9 163.85 83.15 160.7 76.9 161.65
M 29.55 187.55
Q 29.5 187.7 29.4 187.7
L 29.4 187.85
Q 28.9 187.9 28.9 188.45 28.9 188.6 29.55 189.25
L 30.05 189 30.1 188.75 33.8 188.75
Q 34.1 188.7 34.2 188.6 34.4 188.45 34.4 188.05 34.4 187.7 34.2 187.6 33.95 187.6 33.8 187.5
L 29.55 187.55
M 23.55 181.55
Q 23 181.75 22.65 181.95 22.2 182.15 22.2 182.4 22.2 183.05 22.25 182.75 22.55 183.1 23.45 183.1 24.25 183.1 25.35 182.6 26.45 182.1 26.45 181.65 26.35 181.4 26.35 181.25 26.1 181.2 25.85 181.25 24.7 181.2 23.55 181.55
M 25.85 179.35
Q 26.55 179.2 26.9 178.5 27.2 178 27.2 177.55 27.2 177.2 27.05 177.05
L 27 177
Q 26.75 176.95 26.6 176.85 26.25 177.1 25.7 177.8 25.5 178.1 25.35 178.25 24.4 178.35 22.95 178.8 22.05 179.05 21.5 179.25 20.7 179.5 20.7 179.65 20.7 180.3 20.75 180 21.05 180.35 21.95 180.35 22.85 180.35 24.6 179.75 25.25 179.5 25.7 179.3 25.75 179.35 25.85 179.35
M 38.4 181.45
Q 38.5 181.5 39.55 182.25 40.7 182.95 41.3 182.95 41.7 182.95 41.85 182.75 42.05 182.4 42.15 182.2 42.05 182.15 41.95 182.1 41.75 181.95 41.6 181.8 40.9 181.3 40.45 181 39.55 180.4 38.8 180.65 38.65 180.7 38.45 180.85
L 38.4 180.85 38.4 181.45
M 38.4 178.1
L 38.45 178.85
Q 38.65 179 39.5 179.5 39.85 179.75 40.35 180.05 40.65 180.2 40.9 180.35 41.2 180.5 41.45 180.65 42.15 180.95 42.55 180.95 43.15 180.95 43.05 180.7
L 43.15 180.15 43.1 180.1
Q 42.95 180 42.8 179.85 42.25 179.45 41.2 178.9 39.85 178.25 39 178.15 38.7 178.05 38.5 178.1 38.45 178.1 38.4 178.1
M 60.55 131.25
Q 57.65 131.25 54.8 130.75 51.25 130.1 49.05 128.8 48.95 129.05 48.8 129.5 48.6 130.05 48.4 130.4
L 48.4 130.45
Q 50.1 130.85 53 131.95 57.55 133.65 61.35 134.55 61.45 134.35 61.55 134.25 62.05 134.55 62.15 134.75
L 62.15 141.65 70.25 140.6
Q 70.15 140.25 70.15 139.8 70.15 138.55 69.9 138.3
L 69.9 136.1
Q 69.8 136 69.7 135.9 69.65 136.2 69.65 135.55 69.65 135.15 73.1 133.6 76.6 132.05 80.05 131.4 80 131.25 79.95 131.1 79.9 130.9 79.9 130 79.6 130.1 79.2 130.15 74.05 131 73.05 131.25
L 70.05 131.25 69.55 131.5
Q 68.9 131.2 68.9 129.95 68.9 129.7 68.95 129.5
L 61.9 129.5 61.9 130.9
Q 61.8 130.95 61.75 131
L 61.7 131.15 61.5 131.2
Q 61.4 131.2 61.3 131.25
L 61.25 131.2 60.55 131.25
M 73.9 104.3
Q 73.45 103.8 73.15 103.4 72.65 104.4 71.65 106.15 69.55 109.85 69.15 111.9 68.8 112.15 68.55 112.25 68.15 112.15 68 111.9 66.9 112.05 65.3 112.75
L 62.05 112.75
Q 61.65 112.65 61.6 112.6 61.4 112.5 61.4 112.1 59.8 110.3 57.5 106.8 56.05 104.6 55.4 103.45 54.8 104.9 52.8 109 51.8 111.45 51.15 113.85 51.65 113.6 52.35 113.3 55 112.25 57.05 112.4 57.05 112.55 57.15 112.8 57.15 113.75 51.05 115.5 50.9 115.5 50.75 115.5 50 118.7 49.95 121.9 50.65 122.75 51.6 124.25 54.1 126.8 60.3 128.15
L 72.9 128.15
Q 73.75 128.05 75.15 127.75 76 127.55 76.4 127.5 76.4 127.4 76.4 127.3 77.3 126.4 78.15 125.15 79.9 122.7 79.9 120.7 79.9 119.05 79.1 115.95 79 116 78.8 116 77.55 116 73.2 113.4
L 73.15 112.65
Q 74.45 112.35 76.4 113.35 77.25 113.8 78.8 114.75 78.25 112.95 77.55 110.75 76.65 108.05 76.1 106.5
L 76.05 106.5
Q 75.35 106.05 73.9 104.3
M 73.45 104.5
Q 73.5 104.45 73.55 104.45 74.15 105.85 75.1 108.45 75.75 110.3 76 111.15 76.15 111.2 76.3 111.25
L 76.35 111.4 76.1 111.65 76.1 111.7
Q 76.1 111.8 76.05 111.9 76.05 112.05 75.8 112.05 75.7 112.05 75.55 111.9
L 75.05 111.95 70.95 111.95
Q 70.75 111.9 70.7 111.7
L 70.65 111.65 70.7 111.6
Q 70.65 111.55 70.65 111.45 70.65 111 71.7 108.15 72.8 105.1 73.3 104.35
L 73.45 104.5
M 61.3 120.45
Q 61.8 120.9 62.35 120.9 63.15 120.9 63.85 120.1 64.6 119.25 65.05 119.25 65.6 119.25 65.95 119.85 66.25 120.4 67.45 120.4 68.45 120.4 68.9 119.8 69.35 119.15 70.05 119.15 70.05 119.3 70.15 119.7 70.15 120.15 69.65 120.8 69.25 121.25 68.8 121.6 68.9 122 68.9 123.4 68.9 125.05 68.65 125.65 67.95 127.25 65.4 127.25 62.65 127.25 61.9 125.85 61.65 124.25 61.4 123.9
L 61.4 122.2
Q 60.9 122.05 60.65 121.85 60.2 121.25 59.9 120.9
L 59.9 120.3
Q 59.95 120.25 60 120.15 60.15 120 60.55 120 60.85 120 61.3 120.45
M 73.95 117.45
Q 73.9 116.95 73.9 116.9 73.9 116.05 75.05 115.8 76.15 115.5 76.15 116.7 76.15 118 75.05 118 74.2 118 73.95 117.45
M 72.7 121.7
L 74.55 121.6
Q 76 121.6 76.5 122 76.75 122.2 76.75 122.7 76.75 124.3 73.6 124.3 72.3 124.3 71.9 123.6 71.75 122.95 71.75 122.9 71.75 122.45 71.9 122.3 72.25 122.1 72.7 121.7
M 53.65 111.05
Q 54.4 107.85 54.9 106.65 54.9 106.4 55.2 105.85 55.35 105.55 55.55 105.4 55.55 105.3 55.5 105.25 55.6 105.25 55.7 105.3 55.85 105.15 56.05 105.15
L 56.1 105.4
Q 56.6 105.6 56.85 106.25 57.05 106.8 57.3 108.05 57.75 108.95 58.35 111.35
L 58.35 111.4
Q 58.5 111.5 58.6 111.6 58.6 111.65 58.45 111.85 58.35 111.95 58.25 111.95
L 58.2 111.95
Q 58.1 111.95 58.05 111.95 58 111.95 58 111.9 57.65 111.8 56.95 111.55 55.9 111.25 53.95 111.45
L 53.65 111.15 53.65 111.05
M 54.15 116.15
Q 55.4 116.1 55.4 117.2 55.4 118 55.05 118.25 54.75 118.5 54.05 118.5
L 52.95 118.4 52.9 117.3
Q 52.9 116.2 54.15 116.15
M 52.25 123
L 52.25 122.45
Q 52.25 121.4 53.05 121.2
L 55.95 121.2
Q 56.6 121.5 56.6 122.3 56.6 123 56.3 123.2 55.7 123.55 53.6 123.55 52.45 123.55 52.25 123
M 63.95 121.6
Q 63.3 122.15 62.6 122.25 62.75 122.65 62.95 123.25 63.7 125.45 64.3 125.9
L 66.4 125.9
Q 67.75 124.95 67.7 123.65 67.65 122.4 67.65 121.75
L 66.8 121.75 64.8 120.9
Q 64.7 120.9 63.95 121.6
M 39.75 98.25
Q 37.75 93.5 32.65 93.65
L 26.05 93.65
Q 18.75 92.7 16.05 102.35 14.65 107.3 14.65 114.9 14.65 126.1 15.9 129.05 18.1 134.15 26.6 134.15 35 134.15 38.3 130.55 39.35 129.4 39.8 127.95 40.1 126.65 40.15 126.5
L 40.15 116.15 40.3 116.1
Q 40.4 116 40.8 116 40.85 116 40.9 116.05 42.4 115.6 43.8 115.45 43.35 115.2 42.9 114.9 40.65 113.4 40.65 112.85
L 40.65 112.5
Q 40.75 112.5 40.8 112.4 40.8421875 112.4 40.85 112.4 40.4 111.98359375 40.4 110.95 40.9 105.3 40.9 104.7 40.9 100.95 39.75 98.25
M 69.7 62.5
L 68.8 62.5
Q 68 62.5 67.3 62.45
L 67.3 62.5
Q 67.4 62.65 67.4 63.2 67.4 63.3 67.4 63.45 67.4 63.5 67.4 63.55 67.4 63.8 67.35 63.95 67.3 64 67.3 64.05
L 67.25 64.1 67.2 64.1
Q 67.1 64.2 66.8 64.25
L 64.3 64.25
Q 61.55 63.65 60.5 63.35 59.5 63.05 59.05 62.7 59 62.7 59 62.75 59.05 63.3 59.15 64.25 60.05 64.4 61.35 64.8 63.4 65.45 66.95 66.7 67.1 66.65 67.3 66.65 67.4 67.15 67.15 68.5
L 67.35 73.35
Q 68.3099609375 73.223046875 69.6 73.25 70.444921875 73.267578125 71.15 73.35 71.1103515625 73.2533203125 71.1 73.15 71.15 72.7 69.7 62.5
M 69.4 34.6
Q 69.15 34.9 68.8 35.35 69.05 35.8 68.9 37.95
L 68.1 42.85
Q 67.75 42.6 66.25 42.4 64.25 42.05 64.15 41.8 63.65 43 62.9 44.7 60.65 50.7 60.65 56.35 60.65 58.35 61.8 59.25 63.85 60.85 69.7 61.1 69.8 60.55 70.05 61.15 70.9 61.15 71.85 61.15 72.25 61.15 73.4 61.05 73.5 60.7 74.3 59.65 75.05 58.65 75.35 58.45 75.25 57.55 75.25 56.55 75.25 53.55 75.15 52.05 75.1 50.55 74.35 47.6 73.75 45.05 73.65 43.65 72.9 42.6 71.15 38.65 69.95 35.85 69.4 34.6
M 68.5 47.05
Q 66.65 45.45 66.65 45.3
L 66.7 44.65
Q 67.45 44.35 69.25 45.8 70.55 46.9 71.65 48.15
L 71.55 48.5
Q 71.5 48.65 71.4 48.7 71.3 48.75 70.9 48.75 70.45 48.75 68.5 47.05
M 71.5 56.35
Q 71.5 56.75 71.15 56.9 70.75 57.05 69.65 57.05 68.35 57.05 68 56.5
L 67.9 55.95
Q 67.9 54.7 69.7 54.95 71.5 55.25 71.5 56.35
M 66.9 54
Q 67.55 54 67.55 54.15 67.55 54.3 67.65 54.55 67.65 55.1 67.15 55.5 67.05 56.2 66.2 57.35 65.2 58.75 64.3 58.75 62.75 58.75 62.15 57.4 61.9 56.05 61.9 56 61.9 55.85 61.95 55.75 61.6 55.55 61.4 55.2 61.15 54.75 61.15 54.3 61.15 53.85 61.35 53.7 61.4 53.65 61.8 53.5 62.45 54.15 62.7 54.65 63.55 54.45 64.05 54 64.15 54.05 64.3 54.1 64.6 54 64.95 54.2 65.15 54.35 65.45 54.65 66.45 54 66.9 54
M 63.7 51.4
L 63.65 50.3
Q 63.65 49.15 64.8 49.2 65.9 49.3 65.9 50.5 65.9 51.1 65.8 51.25 65.6 51.5 64.8 51.5
L 63.7 51.4
M 64.3 55.55
Q 64.25 55.6 64.15 55.65 63.75 55.9 63.25 56 63.25 56.05 63.25 56.1 63.5 57.05 63.95 57.4 64.45 57.1 65.1 56 64.65 55.9 64.45 55.75 64.4 55.7 64.3 55.55
M 36.2 50.6
Q 35.95 50.6 35.8 50.5
L 31.3 50.55
Q 31.25 50.7 31.15 50.7
L 31.15 51.05
Q 31.15 51.5 31.35 51.6 31.4 51.65 31.8 51.75
L 35.8 51.75
Q 36.1 51.7 36.2 51.6 36.4 51.45 36.4 51.05 36.4 50.7 36.2 50.6
M 24.15 43.7
L 24.15 44.05
Q 24.15 44.5 24.35 44.6 24.4 44.65 24.8 44.75
L 28.05 44.75
Q 28.35 44.7 28.45 44.6 28.65 44.45 28.65 44.05 28.65 43.7 28.45 43.6 28.2 43.6 28.05 43.5
L 24.3 43.55
Q 24.25 43.7 24.15 43.7
M 29.55 41.4
Q 29.9 41.25 29.9 40.8 29.8 40.55 29.8 40.4 28.85 40.3 28.35 40.3
L 28.3 40.25
Q 25.65 40.3 24.55 40.45
L 24.55 40.4
Q 23.05 40.2 22.55 40.3 22.15 40.4 22.15 40.8 22.15 41.45 22.2 41.15 22.5 41.5 23.4 41.5 23.55 41.5 23.7 41.5 23.75 41.5 23.8 41.5 24.1 41.75 24.65 41.75
L 28.35 41.5
Q 28.5 41.5 28.65 41.5 29.3 41.5 29.55 41.4
M 42.3 44.75
Q 42.6 44.7 42.7 44.6 42.9 44.45 42.9 44.05 42.9 43.7 42.7 43.6 42.45 43.6 42.3 43.5
L 39.55 43.55
Q 39.5 43.7 39.4 43.7
L 39.4 44.05
Q 39.4 44.5 39.6 44.6 39.65 44.65 40.05 44.75
L 42.3 44.75
M 43.9 40.8
Q 43.9 40.45 43.7 40.35 43.45 40.35 43.3 40.25
L 39.55 40.3
Q 39.15 40.3 38.8 40.3 38.75 40.45 38.65 40.45
L 38.65 40.8 38.7 41.15
Q 39 41.5 40.05 41.5
L 43.3 41.5
Q 43.6 41.45 43.7 41.35 43.9 41.2 43.9 40.8
M 81.65 20.1
Q 81.65 19.75 81.15 18.5 80.6 17.05 80.05 16.55 76.3 16.75 75.65 16.75
L 74.7 16.65
Q 75.05 15.5 74.2 14 73.45 12.6 72.05 11.4
L 69.2 11.4
Q 67.75 11.55 64.5 13.4 61.5 15.25 61.4 15.25 60.8 15.25 60.2 13.85 59.65 12.35 59.55 12.15 56.8 12.6 54.75 14.85 53.05 17.3 52.55 17.75
L 51.05 17.9
Q 50.3 18.65 50.15 19.85
L 50.15 21.8
Q 50.1 23.7 49.25 24.65 48.4 25.2 48.4 25.3 48.4 27.45 51.55 29.7 54.65 31.9 54.65 33.05 54.65 34.4 55.8 34.4 56.1 34.4 57 34.1 57.85 33.75 58.15 33.75 58.8 33.75 58.8 33.9 58.8 34.05 58.9 34.3 58.9 34.5 58.75 34.7 59.1 34.9 59.5 35.25 60.2 35.8 61.05 36.55 60.9 35.7 60.9 34.65 60.9 33.65 61.4 33.15
L 61.4 32.9 61.6 32.85
Q 61.8 32.75 62.15 32.75 62.5 32.75 63.05 33.1 63.65 33.4 63.95 33.4 67 33.4 67.15 31.95 67.3 30.3 69.55 30 72.75 29.55 73.1 28.75 73.55 27.55 75.55 26.8 76.9 26.3 76.95 25.1 76.75 23.7 76.9 23.05 77.35 21.95 79.6 21.3 81.65 20.7 81.65 20.1 Z"/>

            <path fill="#000000" stroke="none" d="
M 84.05 222.5
Q 82.65 220 81.85 218.85 82.05 218.3 82 218.2 81.9 217.95 81.85 217.8 81.65 217.95 81.3 218.15 80.7 217.5 80.8 218.35
L 80.9 218.45
Q 79.45 219.6 77.85 222.45 76.6 224.75 76.25 225.8 73.25 226.05 69.2 226.55 67.15 226.85 66.15 227 65.85 226.15 64.8 224.6 64.3 223.85 63.6 222.9 62.1 220.9 61.15 220.2 61.15 220.1 61.1 220.05 61.05 219.65 60.85 219.55 60.6 219.5 60.4 219.45 60.35 219.5 60.2 219.75 60 219.65 59.8 219.7 59.85 219.9 60 220.1 59.7 220.65 59.3 221.45 59.2 221.65 59.1 221.85 58.9 222.2 58.75 222.65 57.75 224.9 57 229.2 56.9 229.7 56.85 230.15 55.9 235.2 56.3 237.8 56.65 240.45 57.7 241.45 58.8 242.45 61.45 243.2 61.4 243.35 61.35 243.45 60.4 246.05 60.4 247.2 60.4 247.65 60.45 247.75 60.5 247.9 60.7 248.05 60.65 248.25 60.65 248.5 60.65 250.1 60.9 250.9 61.65 253 64.15 253 64.25 253 64.3 253
L 66.8 253
Q 68.95 252.05 70.05 251.3 69.9 252.6 69.9 254.8 69.9 257 69.95 257.65 69.9904296875 258.378125 70.1 258.95 70.53125 258.8736328125 71.1 258.8 71.15 257.2083984375 71.15 254.8 71.15 252.2 71.15 251.85 71.1 251.05 71 250.45 71.15 250.15 71.15 249.95 71.05 249.55 71.05 249.4 70.85 249.4 70.65 249.45 70.6 249.35 70.55 249.3 70.5 249.35 70.45 249.5 69.8 249.65 68.8 250.3 67 251.35 64.35 251.75 63.85 251.3 63.05 250.55 61.9 249.55 61.9 248.3 61.9 247.2 61.8 246.75 62.1 245.6 62.7 243.75 63.5 241.15 63.65 240.7 64.05 240.8 64.3 240.95 64.8 241.25 65.4 241.5 65.25 243 64.8 245.15 64.15 247.95 64.15 249.3 64.15 250 64.2 250.15 64.3 250.6 64.8 250.75
L 65.3 250.55
Q 65.35 250.25 65.5 249.6 65.65 249.9 66.05 250 67.4 248.85 68.25 248 69.9 246.4 69.9 245.65 69.9 245.5 69.85 245.4 69.9 245 69.9 244.55 69.9 244.25 69.9 244.05 72.85 243.95 75.65 243.45 75.65 244.05 75.95 244.95 76.3 245.75 76.55 246 76.75 245.9 77.05 245.75 78.15 246.6 81.3 249.55 83.6 251.75 84.7 252.45 84.55 252.55 84.45 252.7 84.15 253.15 84 253.5 82.7 252.25 80.4 250.8 78.65 249.7 77.45 249.15 77 248.6 76.4 248.65
L 76.4 248.7
Q 76.35 248.65 76.3 248.65 76.25 248.75 76.15 248.75
L 76.15 249.1
Q 76.15 249.2 76.4 249.45
L 76.4 250
Q 76.85 251.6 77.5 255.15 78.0435546875 257.5501953125 78.8 259.25 78.8939453125 259.25 79 259.25 79.492578125 259.25 79.9 259.3 79.9 259.25859375 79.9 259.2 78.65 254.85 78.65 253.5 78.4 251.85 78.15 250.85 78.9 251.4 79.95 252.15 83.7 254.75 83.9 254.75 84.3 254.75 84.4 254.7 84.5 254.6 84.55 254.5
L 84.65 254.5
Q 85 254.5 85.55 253.65 86.15 252.85 86.15 252.4 86.15 252.3 86.15 252.25
L 86.15 252.15 86.1 252.1
Q 86.05 251.75 86.05 251.65 85.85 251.65 85.7 251.75 83.15 249.4 81.55 248 78.8 245.6 77.15 245.05
L 77.15 243.65
Q 77.1 243.4 76.95 243.2 78.85 242.8 80.7 242.2 82.55 241.6 83.8 241.1 83.75 241.15 83.75 241.2
L 83.9 241.15
Q 84.75 240.75 85.45 240.3 85.9 240 86.3 239.65 87.5 238.5 87.95 236.95 88.5 235.2 88.05 232.3 87.55 228.65 84.05 222.5
M 83.55 223.6
Q 86.3 228.75 86.85 232.5 87.5 237.05 84.85 239.05 83.7 239.2 83.3 239.5 82.95 239.75 82.2 240.55 79.7 241.95 66.65 242.6 66.65 241.9 66.6 241.55 66.65 241.35 66.65 240.95 66.65 240.45 64.65 239.8
L 64.45 239.85
Q 64.2 239.8 64.15 239.7
L 64.15 239.65
Q 63.1 239.4 62.7 239.6 62.55 239.6 62.4 239.65 62.4 239.8 62.4 239.95 62.45 240 62.5 240.1
L 62.5 240.35
Q 62.5 240.45 62.3 240.45 62.15 241.1 61.9 242 59.95 241.45 58.95 240.7 57.8 239.7 57.5 237.6 57.35 236.45 57.9 232.9 58.05 233.3 58.55 233.3 62.45 231.25 63.1 230.15 63.25 229.9 63.2 229.7 63.05 229.45 63.05 229.3 61.8 229.35 60.5 230.15 59.9 230.5 59.35 230.95 58.35 231.75 58 232.2 58.15 231.25 58.35 230.15 58.5 229.45 58.65 228.65 59.4 225.2 59.75 223.45 60.35 222.15 60.7 221.4 61.45 222.6 62.5 224.2 63.4 225.35 64.8 227.1 64.85 227.2 64.95 227.3
L 64.9 227.35 64.95 227.7
Q 65 228.15 65.2 228.2 65.3 228.25 65.7 228.3 71.5 227.6 71.95 227.65
L 76.9 226.95
Q 77.15 226.9 77.25 226.75 77.4 226.65 77.4 226.45 78.4 225.1 80.1 222.15 81 220.6 81.5 219.65 82.15 220.95 83.55 223.6
M 68.65 244.1
L 68.65 245.2
Q 67.7 245.7 66.7 246.9 66.1 247.65 65.8 248.2 65.95 247.45 66.15 246.5 66.45 245.15 66.6 244.05 67.65 244.05 68.65 244.1
M 70.2 239.4
Q 69.2 238.25 68.8 238.25 68.4 238.25 68.25 238.45 68.2 238.45 68.15 238.75 68.2 239.35 68.7 239.9 69.4 240.75 70.55 240.75 71.55 240.75 72.15 239.9 72.3 239.75 72.4 239.6 72.95 239.75 74.05 239.75 74.6 239.75 75.15 239 75.65 238.35 75.65 237.9 75.65 237.35 75.05 237 74.7 237.2 74.35 237.8 74.05 238.3 73.8 238.3 73.5 238.3 73.05 238.05 72.6 237.75 72.3 237.75 72.2 237.75 72.1 237.8
L 72.05 237.75
Q 71.9 237.75 71.75 237.85 71.5 237.9 71.4 237.9
L 71.4 238.3
Q 71.35 238.45 71.3 238.6 71.1 239.35 70.2 239.4
M 63.1 234.2
Q 62.3 233.35 61.5 233.7 60.8 234.05 60.9 234.95
L 61.1 235.9 61.95 235.9
Q 62.6 235.8 62.7 235.4 62.8 234.6 63.1 234.2
M 80.05 231.35
Q 79.15 231.05 79.15 232.2
L 79.2 233.15 80.05 233.25
Q 80.65 233.25 80.8 233.05 80.9 232.65 80.9 232.4 80.9 231.6 80.05 231.35
M 84.3 230
Q 84.9 230 84.8 229.75
L 84.9 229.2
Q 84.1 228.35 82.2 227.6 80.1 226.8 78.9 227.15
L 78.95 227.9
Q 79.3 228.1 81.55 229.05 83.95 230 84.3 230
M 69.3 160.25
L 69.3 160.4
Q 62.85 159.45 60.15 166.75 58.65 170.9 58.65 176 58.65 176.85 58.9 177.4 57.1 177.5 53.95 178.95 51.55 180.1 50.9 180.7 50.65 180.9 50.65 181.05 50.65 181.7 50.7 181.4 50.8 181.55 50.9 181.65 51 181.75 51.4 181.75 51.5 181.7 51.6 181.7 52.4 181.85 53.75 182.05 56.5 182.4 58.65 182.9
L 58.65 193.3
Q 58.4 194.05 58.4 195.7 58.4 198.2 59.05 198.95 60.15 200.3 64.8 201.5
L 74.8 201.5
Q 81.9 203.05 84.9 187.55 86.65 178.55 86.65 167.8 86.65 164.2 86.05 163 84.05 159.25 76.8 160.25
L 69.3 160.25
M 69.3 161.65
L 76.9 161.65
Q 83.15 160.7 84.9 163.85 85.4 164.8 85.4 167.7 85.4 170.15 84.75 176.8 84.4 180.25 83.9 184.4 82.65 187.05 82.45 192.9 81.35 197.95 74.9 200.15
L 65.05 200.15
Q 60.25 199.45 59.7 197.15 60 194.55 59.9 193.65
L 59.9 182.25
Q 59.85 182.05 59.8 181.95 59.7 181.75 59.35 181.75 59.15 181.6 59.05 181.5 57.35 181.35 53.45 180.85 58.45 178.55 59.25 177.95
L 59.3 178
Q 59.55 177.9 59.9 177.65 60.55 176.05 60.4 173.4 60.15 169.95 60.25 169.15 60.85 164.2 69.3 161.65
M 29.65 202.75
Q 29.65 202.25 29.65 201.7 29.65 198.5 29.05 198.5 28.4 198.5 28.4 201.7 28.4 203 28.45 203.35 28.45 203.4 28.45 203.45 28.4 203.8 28.4 204.25 28.4 204.9 28.55 205.35 28.5876953125 205.488671875 28.6 205.6 29.105859375 205.5431640625 29.65 205.45
L 29.65 202.75
M 35.05 198.65
Q 34.9 199.15 34.9 201.25 34.9 203.25 34.95 203.75 34.95 203.8 35 203.9 34.95 203.9 34.9 203.9
L 34.9 204.9
Q 35.5998046875 204.8353515625 36.2 204.8 36.3087890625 204.7275390625 36.4 204.65 36.4 204.5640625 36.4 204.45 36.4 202.7 35.65 199.65 35.25 197.95 35.05 198.65
M 29.8 194.55
Q 29.65 194.65 29.65 194.75
L 29.7 194.8
Q 29.55 195.05 29.5 195.4 29.45 195.75 29.45 196.35
L 29.45 197.1 29.5 197.15 29.9 197.15
Q 31.3 196.65 31.9 196.3 31.95 196.3 32 196.3 32.15 196.45 32.65 196.7 33.45 197.1 34.1 197.05
L 34.15 197.05
Q 34.3 197.05 34.3 197
L 34.3 194.6 34.25 194.5 33.85 194.5
Q 33.65 194.5 32.95 194.65 32.45 194.8 32.3 194.9 32.1 194.8 31.85 194.8 31.75 194.8 31.65 194.85
L 30.7 194.55 29.8 194.55
M 29.8 196.85
L 29.95 194.85
Q 30.55 194.9 31.05 195.05 31.25 195.15 31.45 195.2 31.4 195.35 31.4 195.65 31.4 195.7 31.4 196
L 31.45 196.05
Q 31 196.25 30.45 196.5 30 196.7 29.8 196.85
M 32.6 195.5
Q 32.6 195.25 32.55 195.1 33.55 194.95 34 194.85
L 34 196.7
Q 33.5 196.6 32.85 196.3 32.6 196.2 32.45 196.15 32.6 195.95 32.6 195.5
M 31.7 195.65
Q 31.7 195.25 31.9 195.25 32.2 195.25 32.25 195.3 32.3 195.3 32.3 195.5
L 32.25 195.85 32.2 195.75
Q 32 195.8 31.75 195.95 31.7 195.85 31.7 195.8
L 31.7 195.65
M 24.9 166.8
Q 24.8 166.3 24.8 166.15 24.4 166 23.9 166.45 23.8 166.4 23.65 166.4 23.7 166.45 23.8 166.55 23.25 167.05 22.65 168.05 21.5 170 21.4 171.05 19.7 173.65 18.15 179.25 17.05 183.05 16.65 185.3 16.8 185.45 16.95 185.6 16.9 186.4 16.9 187.6 16.9 189.95 17.15 190.5 17.8 192.05 20.8 193.25
L 21.3 193.25
Q 21.3 193.4 21.3 193.55 22.15 193.7 23.35 193.8 25.35 194.05 27.55 194.25
L 27.9 194.25 27.9 195.5
Q 27.95 195.6 28.05 195.7 26.6 196 25.8 198 25.35 199.25 25.2 200.65 24.7 201.4 24.9 203 24.9 204.1 24.95 204.4 25.05 205.25 25.55 205.75 25.8 205.65 26.15 205.4
L 26.15 202.6
Q 26.25 202.6 26.35 202.65 26.35 202 26.4 201.6 26.45 200.45 26.65 199.8 27.05 198.45 28 197.2 28.9 196.1 28.9 196.05 28.85 195.95 28.85 195.9
L 29.05 195.8
Q 29.15 195.25 29.15 194.55 29.15 194.4 29.15 194.25
L 34.9 194.25 34.9 195.3 35.5 195.8
Q 37.25 197.2 37.65 200 38 202.05 38.3 203.25 38.1666015625 203.650390625 38.15 204.25 38.746875 204.05 39.6 204.05 39.6416015625 204.05 39.65 204.05 39.583203125 203.5162109375 39.4 203.15 39.4 200.55 38.85 198.55 38.1 195.55 36.35 195 36.25 194.55 36.2 194.25
L 38.3 194.25
Q 46.65 192.75 47.55 190.3 47.6 190.15 47.65 190 47.65 189.95 47.65 189.9
L 47.65 189.85
Q 47.65 189.8 47.65 189.7 47.65 189.25 47.55 189.1
L 47.5 189.05
Q 46.35 183.1 45.3 178.65 44.1 173.65 43.05 170.5 42.9 170.6 42.85 170.75 42.25 169.1 41.65 168.15 41.65 168.1 41.65 168.05 41.65 167.7 41.45 167.6 41.4 167.6 41.3 167.6 40.4 166.25 40.4 168 38.9 169.2 37.1 171.45 35.85 173.05 35.4 173.75
L 30.45 173.8
Q 28.8 170.9 27.7 169.4 26.3 167.5 24.9 166.8
M 22.25 171.95
L 22.4 171.9
Q 24.05 168.9 24.65 167.7 26.1 169.6 29.4 174.15
L 29.4 174.3
Q 29.4 174.75 29.6 174.85 29.65 174.9 30.05 175
L 35.85 175
Q 35.95 175 36.05 175 36.1 174.95 36.15 174.9
L 36.2 174.85
Q 36.25 174.8 36.3 174.75 39.6 171.2 40.9 169.5 41.1 169.95 41.4 170.5 42.1 171.75 42.5 172.4 43.2 175.85 43.85 178.65 45.7 187.2 46.55 189.45 45.75 190.45 44.8 190.95 43.4 191.65 40.05 192.45 39.05 192.65 37.9 192.9
L 27.55 192.9
Q 26.2 192.25 24.1 192.1 23.6 192.05 22.85 192.05
L 22.8 192
Q 19.35 191.8 18.45 190.2 18.15 189.65 18.15 187.8 18.15 186.6 18.1 185.75 18.35 184.95 18.55 184 19.5 179.9 19.65 179.4 21.55 174.25 22.25 171.95
M 73.6 101.85
Q 73.55 101.75 73.55 101.65 73.45 101.7 73.35 101.75 72.95 101.55 72.55 101.55 72.5 101.7 72.4 101.7
L 72.4 102.05
Q 72.4 102.15 72.45 102.3 71.1 103.5 69.6 106.7 68.1 110 67.95 111.15 66.25 111.2 62.35 111.5 59.1 106.7 57.6 104.65 55.2 101.3 54.95 102.05 52.9 103.1 50.75 110.2 48.65 117.05 48.65 121.65 48.65 122.45 48.9 122.9
L 48.9 123.75
Q 51.2 126.1 52.55 126.85 54.5 127.9 60.3 129.5
L 60.75 129.5
Q 60.65 129.65 60.65 129.85 55.45 128.5 53.05 127.95 50.35 127.3 49.05 127.45
L 49.05 127.4
Q 48.8 127.45 48.6 127.55 48.1 127.65 47.9 128 47.95 128.05 48 128.05 47.8 128.35 47.65 128.7 47.45 129.3 47.4 129.9 47.4 129.95 47.4 130
L 47.35 130
Q 47.2 130.1 47.1 130.15
L 47.05 130.15
Q 47 130.25 46.9 130.25
L 46.9 130.6
Q 46.9 130.65 46.95 130.7 47.05 131.15 47.55 131.25
L 47.6 131.25
Q 48.85 132 52.65 133.35 58.35 135.4 61.1 135.5 60.9 136.45 60.9 138.15 60.9 139.65 60.95 140.1 61.05 141.3 61.55 142 61.8 141.9 62.15 141.65
L 62.15 134.75
Q 62.05 134.55 61.55 134.25 61.45 134.35 61.35 134.55 57.55 133.65 53 131.95 50.1 130.85 48.4 130.45
L 48.4 130.4
Q 48.6 130.05 48.8 129.5 48.95 129.05 49.05 128.8 51.25 130.1 54.8 130.75 57.65 131.25 60.55 131.25
L 61.25 131.2 61.3 131.25
Q 61.4 131.2 61.5 131.2
L 61.7 131.15 61.75 131
Q 61.8 130.95 61.9 130.9
L 61.9 129.5 68.95 129.5
Q 68.9 129.7 68.9 129.95 68.9 131.2 69.55 131.5
L 70.05 131.25 73.05 131.25
Q 74.05 131 79.2 130.15 79.6 130.1 79.9 130 79.9 130.9 79.95 131.1 80 131.25 80.05 131.4 76.6 132.05 73.1 133.6 69.65 135.15 69.65 135.55 69.65 136.2 69.7 135.9 69.8 136 69.9 136.1
L 69.9 138.3
Q 70.15 138.55 70.15 139.8 70.15 140.25 70.25 140.6 70.4 141.05 70.8 141.25
L 71.3 141.05
Q 71.4 140.3 71.4 139.35 71.65 138.4 71.6 137.45 71.55 136.65 71.25 136.25 73.4 136 77.25 134.15 80.1 132.8 81 132.15
L 81.3 132
Q 81.3 131.95 81.35 131.85 81.4 131.75 81.4 131.7 81.4 131.65 81.4 131.6 81.4 131.35 81.4 131.05 81.4 130.25 81 129.45 81.15 129.25 81.15 129.05 81.05 128.8 81.05 128.65 80.75 128.6 80.4 128.65 80.25 128.6 80.05 128.65 79.05 128.7 77.6 129.05 74.5 129.75 70.15 130
L 70.15 129.95
Q 70.15 129.7 70.15 129.5
L 73.05 129.5
Q 74.9 128.65 76.55 128.55 77.4 128.45 77.4 128.05
L 77.4 128
Q 79.7 127.85 80.65 124.65 81.15 122.95 81.15 120.9 81.15 116.3 78.15 108.75 75.7 102.6 75.25 103.6 75.1 103.4 74.95 103.2 74.3 102.25 73.6 101.85
M 73.15 103.4
Q 73.45 103.8 73.9 104.3 75.35 106.05 76.05 106.5
L 76.1 106.5
Q 76.65 108.05 77.55 110.75 78.25 112.95 78.8 114.75 77.25 113.8 76.4 113.35 74.45 112.35 73.15 112.65
L 73.2 113.4
Q 77.55 116 78.8 116 79 116 79.1 115.95 79.9 119.05 79.9 120.7 79.9 122.7 78.15 125.15 77.3 126.4 76.4 127.3 76.4 127.4 76.4 127.5 76 127.55 75.15 127.75 73.75 128.05 72.9 128.15
L 60.3 128.15
Q 54.1 126.8 51.6 124.25 50.65 122.75 49.95 121.9 50 118.7 50.75 115.5 50.9 115.5 51.05 115.5 57.15 113.75 57.15 112.8 57.05 112.55 57.05 112.4 55 112.25 52.35 113.3 51.65 113.6 51.15 113.85 51.8 111.45 52.8 109 54.8 104.9 55.4 103.45 56.05 104.6 57.5 106.8 59.8 110.3 61.4 112.1 61.4 112.5 61.6 112.6 61.65 112.65 62.05 112.75
L 65.3 112.75
Q 66.9 112.05 68 111.9 68.15 112.15 68.55 112.25 68.8 112.15 69.15 111.9 69.55 109.85 71.65 106.15 72.65 104.4 73.15 103.4
M 55.4 117.2
Q 55.4 116.1 54.15 116.15 52.9 116.2 52.9 117.3
L 52.95 118.4 54.05 118.5
Q 54.75 118.5 55.05 118.25 55.4 118 55.4 117.2
M 73.9 116.9
Q 73.9 116.95 73.95 117.45 74.2 118 75.05 118 76.15 118 76.15 116.7 76.15 115.5 75.05 115.8 73.9 116.05 73.9 116.9
M 62.35 120.9
Q 61.8 120.9 61.3 120.45 60.85 120 60.55 120 60.15 120 60 120.15 59.95 120.25 59.9 120.3
L 59.9 120.9
Q 60.2 121.25 60.65 121.85 60.9 122.05 61.4 122.2
L 61.4 123.9
Q 61.65 124.25 61.9 125.85 62.65 127.25 65.4 127.25 67.95 127.25 68.65 125.65 68.9 125.05 68.9 123.4 68.9 122 68.8 121.6 69.25 121.25 69.65 120.8 70.15 120.15 70.15 119.7 70.05 119.3 70.05 119.15 69.35 119.15 68.9 119.8 68.45 120.4 67.45 120.4 66.25 120.4 65.95 119.85 65.6 119.25 65.05 119.25 64.6 119.25 63.85 120.1 63.15 120.9 62.35 120.9
M 62.6 122.25
Q 63.3 122.15 63.95 121.6 64.7 120.9 64.8 120.9
L 66.8 121.75 67.65 121.75
Q 67.65 122.4 67.7 123.65 67.75 124.95 66.4 125.9
L 64.3 125.9
Q 63.7 125.45 62.95 123.25 62.75 122.65 62.6 122.25
M 52.55 58.3
Q 52.6 58.1 52.65 58 52.65 57.55 50.9 55.85 49.15 54.1 49.15 55.7 49.15 55.95 50.15 57.15 51.3 58.5 52.05 58.5 52.45 58.5 52.55 58.3
M 54.3 53.5
L 54.4 53.15
Q 53.7 52.2 52.25 51.6 50.4 50.9 49.65 52.25 50.7 53 53.65 53.75 54.05 53.75 54.15 53.7 54.25 53.6 54.3 53.5
M 26.05 92.25
L 26.05 92.4
Q 13.4 91.2 13.4 115 13.4 115.4939453125 13.4 115.95 13.3236328125 114.9017578125 13.25 113.85 13.18125 114.9857421875 13.1 115.9
L 13.4 121
Q 13.424609375 121.7609375 13.6 123.25 14.0466796875 125.0953125 15.2 129.2 15.4736328125 130.183203125 15.7 131 18.8603515625 135.5 26.65 135.5 37.2 135.5 40.3 129.4 41.4 127.2 41.4 121.75 41.45 120.25 41.4 118.85 41.35 117.9 41.3 117.25
L 45.3 117.25
Q 46 117.05 47.15 116.75 47.9 116.45 47.9 115.8
L 47.9 115.75
Q 47.8 115.55 47.8 115.4 47.5 115.35 47.2 115.35 44.55 113.8 43.7 113.35 42.45 112.75 41.15 112.45
L 41.65 112.15
Q 42.15 106.95 42.15 104.7 42.15 92.85 32.8 92.25
L 26.05 92.25
M 32.65 93.65
Q 37.75 93.5 39.75 98.25 40.9 100.95 40.9 104.7 40.9 105.3 40.4 110.95 40.4 111.98359375 40.85 112.4 40.8421875 112.4 40.8 112.4 40.75 112.5 40.65 112.5
L 40.65 112.85
Q 40.65 113.4 42.9 114.9 43.35 115.2 43.8 115.45 42.4 115.6 40.9 116.05 40.85 116 40.8 116 40.4 116 40.3 116.1
L 40.15 116.15 40.15 126.5
Q 40.1 126.65 39.8 127.95 39.35 129.4 38.3 130.55 35 134.15 26.6 134.15 18.1 134.15 15.9 129.05 14.65 126.1 14.65 114.9 14.65 107.3 16.05 102.35 18.75 92.7 26.05 93.65
L 32.65 93.65
M 70.05 32.9
Q 69.75 32.9 69.4 33.05 68.95 32.6 68.9 33.3 67.85 33.9 66.4 35.55 65.2 36.95 64.65 37.8 64.6 37.75 64.55 37.75 61.75 43 60.55 47.3 59.4 51.55 59.4 56.45 59.4 58.8 60.4 60 61.95 61.85 65.9 62.35 65.9 62.6 66.1 62.95 63.25 62.6 60.2 61.75 59.55 61.55 59.15 61.6 58.75 61.55 58.45 61.55 58.05 61.4 57.4 61.65
L 57.4 64.35
Q 57.05 64.45 56.9 64.75 58.4 65.95 61.5 66.75 64.05 67.45 65.85 67.5 65.75 67.95 65.9 68.45
L 66.15 72.65
Q 66.15 73.05625 66.2 73.35 66.4234375 73.4318359375 66.6 73.5 66.951171875 73.4375 67.35 73.35
L 67.15 68.5
Q 67.4 67.15 67.3 66.65 67.1 66.65 66.95 66.7 63.4 65.45 61.35 64.8 60.05 64.4 59.15 64.25 59.05 63.3 59 62.75 59 62.7 59.05 62.7 59.5 63.05 60.5 63.35 61.55 63.65 64.3 64.25
L 66.8 64.25
Q 67.1 64.2 67.2 64.1
L 67.25 64.1 67.3 64.05
Q 67.3 64 67.35 63.95 67.4 63.8 67.4 63.55 67.4 63.5 67.4 63.45 67.4 63.3 67.4 63.2 67.4 62.65 67.3 62.5
L 67.3 62.45
Q 68 62.5 68.8 62.5
L 69.7 62.5
Q 71.15 72.7 71.1 73.15 71.1103515625 73.2533203125 71.15 73.35 72.1748046875 73.476953125 72.85 73.75
L 72.9 73.7
Q 71.3 66.75 70.65 63.6 70.5 63 70.4 62.5
L 74.3 62.5
Q 74.3 62.35 74.85 61.7 75.2 61.3 75.9 60 76.55 58.65 76.6 58.4 76.65 57.6 76.65 56.55 76.65 53.25 75.15 46.4 74.8 44.85 74.55 43.9 74.6 43.8 74.55 43.75
L 74.65 43.2
Q 70.05 33.05 70.05 32.9
M 68.8 35.35
Q 69.15 34.9 69.4 34.6 69.95 35.85 71.15 38.65 72.9 42.6 73.65 43.65 73.75 45.05 74.35 47.6 75.1 50.55 75.15 52.05 75.25 53.55 75.25 56.55 75.25 57.55 75.35 58.45 75.05 58.65 74.3 59.65 73.5 60.7 73.4 61.05 72.25 61.15 71.85 61.15 70.9 61.15 70.05 61.15 69.8 60.55 69.7 61.1 63.85 60.85 61.8 59.25 60.65 58.35 60.65 56.35 60.65 50.7 62.9 44.7 63.65 43 64.15 41.8
L 64.15 41.75
Q 64.15 41.65 64.25 41.55 64.75 40.35 65 39.6 66.1 38.3 68.35 35.85 68.45 35.75 68.5 35.7
L 68.5 35.5
Q 68.6 35.05 68.8 35.35
M 63.65 50.3
L 63.7 51.4 64.8 51.5
Q 65.6 51.5 65.8 51.25 65.9 51.1 65.9 50.5 65.9 49.3 64.8 49.2 63.65 49.15 63.65 50.3
M 67.55 54.15
Q 67.55 54 66.9 54 66.45 54 65.45 54.65 65.15 54.35 64.95 54.2 64.6 54 64.3 54.1 64.15 54.05 64.05 54 63.55 54.45 62.7 54.65 62.45 54.15 61.8 53.5 61.4 53.65 61.35 53.7 61.15 53.85 61.15 54.3 61.15 54.75 61.4 55.2 61.6 55.55 61.95 55.75 61.9 55.85 61.9 56 61.9 56.05 62.15 57.4 62.75 58.75 64.3 58.75 65.2 58.75 66.2 57.35 67.05 56.2 67.15 55.5 67.65 55.1 67.65 54.55 67.55 54.3 67.55 54.15
M 64.15 55.65
Q 64.25 55.6 64.3 55.55 64.4 55.7 64.45 55.75 64.65 55.9 65.1 56 64.45 57.1 63.95 57.4 63.5 57.05 63.25 56.1 63.25 56.05 63.25 56 63.75 55.9 64.15 55.65
M 66.65 45.3
Q 66.65 45.45 68.5 47.05 70.45 48.75 70.9 48.75 71.3 48.75 71.4 48.7 71.5 48.65 71.55 48.5
L 71.65 48.15
Q 70.55 46.9 69.25 45.8 67.45 44.35 66.7 44.65
L 66.65 45.3
M 49.65 47.45
L 49.65 47.8
Q 49.65 48.25 49.85 48.35 49.9 48.4 50.3 48.5
L 53.8 48.5
Q 53.95 48.45 54.2 48.35 54.4 48.2 54.4 47.8 54.4 47.45 54.2 47.35 53.95 47.35 53.8 47.25
L 49.8 47.3
Q 49.75 47.45 49.65 47.45
M 43.35 29.45
Q 42.7 29.7 42.05 30.65 41.45 31.55 40.7 33.05 40.3 33.7 38.7 35.6 37.95 36.5 37.65 37
L 29.9 37
Q 27.65 32.75 26.1 30.3 25.5 29.4 25.1 28.85
L 25.15 28.7
Q 25.15 28.3 24.95 28.15 24.7 28.1 24.55 28 24.5 28.05 24.45 28.15 23.9 27.75 23.9 28.55 23.9 28.65 24 28.85 22.7 30.95 20.45 36.75 18.15 42.6 17.75 44.45
L 17.65 44.5 17.65 47.3
Q 17.95 47.95 18.3 48.55 18.8 50.15 20 51.4 22.9 54.55 29.3 55.3 28.9 57.15 28.9 61.75 28.9 64.6 28.95 65.4 29.05 67.2 29.4 68.55
L 29.4 70.5
Q 28.85 70.05 28.05 69.35 26.65 68.2 25.3 67.9 24.55 67.8 24.4 68.9 24.4 69.3 23.65 69.9 22.9 70.5 22.9 70.8 22.9 71.1 22.8 71.45 22.65 71.8 22.65 72.2 22.65 72.85 23.3 73.1 23.8 73.25 26.05 73.75
L 29.05 73.75
Q 29.35 73.7 29.45 73.6 29.65 73.45 29.65 73.05 29.65 72.7 29.45 72.6 29.2 72.6 29.05 72.5 25.15 72.35 25 72.2 25.4 71.8 25.05 71.15 26.2 71.25 26.3 70.5 26.2 69.75 26.2 69.65 26.45 69.9 27.8 70.75 29.3 71.75 29.8 71.75 30.15 71.75 30.3 71.5 30.3 71.45 30.35 71.4
L 30.55 71.3
Q 30.65 70.55 30.65 69.3 30.8 68.75 30.7 68.25 30.6 67.7 30.15 67.5
L 30.15 55.4
Q 31.7 55.5 33.4 55.5
L 34.7 55.4
Q 36 55.45 37.4 55.5 36.85 55.95 36.8 57 36.8 57.95 37.15 58.95 37.15 62.85 37.2 63.75 37.35 65.65 37.8 67.15 37.65 67.3 37.5 67.4 36.75 66.3 36.35 64.85 36.3 64.75 35.7 61.9
L 34.9 58.9
Q 34.55 57.6 33.55 57.5 33.1 57.45 32.85 57.7 32.6 56.95 32.5 57.6 32.4 58.05 32.4 61.3
L 32.65 65.6
Q 33.3 70 35.4 70 35.45 70 35.5 70 34.9 70.8 34.9 71.45
L 34.95 72.4 35.8 72.5
Q 35.85 72.5 35.9 72.5 36.1 72.75 36.4 73.15 36.6 73.4 36.85 73.65 36.8943359375 73.698828125 36.95 73.75 33.5615234375 73.8998046875 28.4 74.2
L 34.85 74.15 35.6 74 40.6 74
Q 40.65546875 73.973046875 40.7 73.95 41.499609375 73.2662109375 42.5 72.5 43.9822265625 71.348828125 45 70.95 45.1984375 70.724609375 45.3 70.5
L 45.4 70.15
Q 45.4 70.1 45.4 70.05 45.3 69.8 45.3 69.65 45.2 69.65 45.05 69.7 43.7 67.95 42.75 66.9 41.65 65.65 40.8 65.55 40.8 65.45 40.8 65.4 40.2 65.4 38.85 66.35
L 38.4 59.15
Q 38.4 56.75 38.55 55.5 38.6 55.5 38.65 55.5 46.05 55.5 48.05 52.25 48.65 51.25 48.65 48.1 48.65 38.15 44.3 30.15 44.4 29.95 44.4 29.8 44.3 29.55 44.3 29.4 44.05 29.35 43.85 29.35 43.85 29.3 43.8 29.25 43.4 29.4 43.35 29.45
M 43.55 31.45
Q 44.05 33 45.3 36.3 47.4 42.95 47.4 48.1 47.4 50.65 47 51.35 45.25 54.15 38.6 54.15 34.45 54.15 30.7 53.65 26.1 52.8 23.75 51.8 21.15 50.75 19.9 48.9 19.3 46.95 18.95 45.8 19.8 41.85 22.55 35.1 23.95 31.75 24.6 30.15 25.1 31.15 26 32.8 27.75 36 28.9 37.5
L 28.9 37.55
Q 28.9 38 29.1 38.1 29.15 38.15 29.55 38.25
L 38.2 38.25
Q 38.35 38.2 38.45 38.1 38.6 37.95 38.65 37.65 42.15 33.45 43.55 31.45
M 33.65 60.9
Q 33.6 60.6 33.55 60.3 33.95 61.4 34.65 63.15 36.15 66.95 36.8 68.05 36.1 68.7 35.95 69.15 33.15 65.6 33.65 60.9
M 39.45 67.85
Q 39.4 67.75 39.35 67.75 40 67.1 40.4 66.7 41.05 67.4 42.3 68.8 43.1 69.7 43.7 70.2 43.15 70.45 42.55 70.8 41.75 70.15 41.3 69.75
L 41.6 69.75 42 69.35 42 68.85
Q 41.55 68.65 41.55 68.95 41.55 69.1 41.7 69.15
L 41.35 69.2 41.15 69.1
Q 41 69.1 41 69.3
L 41.15 69.45
Q 41.1 69.5 41.1 69.55 40.85 69.35 40.75 69.25 40.6 69.1 40.5 68.95 40.6 69 40.8 69 41.05 69 41.3 68.6
L 41.6 68.75 41.75 68.7
Q 41.65 68.3 41.35 68.25 41.05 68.2 40.85 68.65 40.75 68.45 40.4 68.45
L 40.3 68.55
Q 40.3 68.65 40.35 68.75 40.15 68.5 40 68.3 39.9 68.15 39.8 68.05 39.85 68 39.9 67.95 39.9 67.9 40.05 67.9 40.2 67.9 40.6 68.15 40.9 68.15 40.9 67.75 40.9 67 40.25 67.2 40.25 67.35 40.35 67.5 40.2 67.4 40.05 67.4
L 39.6 67.9 39.6 67.95
Q 39.55 67.9 39.45 67.85
M 39.4 68.4
L 39.45 68.4
Q 39.9 69 40.5 69.5
L 42.25 71
Q 41.7 71.35 41.1 71.8 39.7 72.8 39.05 73.4 37.95 72.3 37.2 71.65 36.9 71.4 36.65 71.25 36.75 70.65 37.35 70 38.25 68.95 38.4 68.65 38.6 68.45 38.8 68.3
L 38.8 68.25
Q 38.95 68.1 39.1 68 39.2 68.1 39.4 68.4
M 40.25 71.05
L 40.25 71.15 40.4 71.3
Q 40.95 71.55 41.05 71.45
L 41.15 71.35
Q 41.15 71.25 41.05 71.05
L 41.25 71.15 41.35 71.15 41.35 71.05 41.15 70.85
Q 41.05 70.75 40.9 70.9
L 40.85 70.95
Q 40.95 71.15 40.9 71.3 40.85 71.25 40.55 71.15 40.3 71 40.25 71.05
M 39.95 70.15
L 40 70.2 39.9 70.3
Q 40 70.4 40.25 70.65
L 40.4 70.7
Q 40.45 70.75 40.5 70.9 40.65 71.05 40.85 70.85
L 41 70.7
Q 41.05 70.45 40.7 70.1
L 40.55 69.95 40.45 69.95 40.1 69.9
Q 39.95 69.85 39.75 70.05 39.7 70.1 39.6 70.2 39.55 70.35 39.85 70.65 40.1 70.9 40.15 70.8
L 40.2 70.8 39.85 70.45 39.8 70.3 39.95 70.15
M 40.15 70.35
L 40.25 70.25 40.4 70.4 40.35 70.45 40.15 70.35
M 40.35 70.15
L 40.4 70.1
Q 40.7 70.3 40.75 70.65
L 40.65 70.75 40.55 70.65 40.7 70.5 40.6 70.4
Q 40.55 70.35 40.5 70.3 40.4 70.2 40.35 70.15
M 39.15 68.45
Q 39 68.3 38.95 68.35
L 39 68.5
Q 39.05 68.55 39.1 68.5
L 39.15 68.45
M 38.8 68.8
L 39 68.6 38.85 68.45 38.5 68.8
Q 38.55 68.95 38.4 69.1
L 38.4 69.2 38.55 69.25 38.7 69.1
Q 38.7 68.9 38.8 68.8
M 39.85 69.55
Q 39.75 69.45 39.4 69.5
L 39.6 69.2
Q 39.1 68.8 38.75 69.15
L 38.65 69.35 38.75 69.45
Q 38.8 69.3 39.05 69.25 39.2 69.2 39.3 69.2 39.2 69.3 39.2 69.4 39.15 69.55 39.25 69.65 39.45 69.85 39.7 69.7
L 39.35 70.05 39.45 70.15 39.75 69.95
Q 40 69.7 39.85 69.55
M 82.1 16.9
Q 82.070703125 16.88515625 82.05 16.85 80.3 14 75.9 15.4 75.6 13.3 75 12.25 73.85 10.35 69.55 10.15 66.65 10.15 64.25 11.6 62.2 13.25 61.55 13.5 61 11.9 61 11.85 60.5 10.75 59.8 10.75 58.9 10.75 56.15 12.1 53.55 13.4 53.05 13.9 52.7 14.3 51.9 15.8 51.6 16.35 50.75 16.8 49.85 17.25 49.65 17.5 49.05 18.3 48.95 19.45 48.9 19.8 48.9 21.4 48.6 23.25 47.8 23.8 47.15 24.25 47.15 25.2 47.15 27.6 49.75 29.9 53.55 33.3 55.05 35.75
L 56.8 35.75
Q 56.85 35.7 57.45 35.4 57.9 35.95 58.9 36.9 60.7 38.5 61.55 38.5 61.7 38.5 61.8 38.5 62.05 38.4 62.4 38.15
L 62.4 35.75
Q 62.15 35.4 62.15 34.7 62.65 34.75 64.05 34.75 68.4 34.75 68.4 31.65 71.1 31.15 73.6 30 77.05 28.4 78.05 26.25 78.1 26.15 78.05 24.55 78.05 23.6 79.4 23.15 81.2853515625 22.521484375 82.05 22.05 82.2064453125 21.544140625 82.4 21 82.9240234375 19.6900390625 83.1 19.1 83 18.8248046875 83 18.55 83 18.3099609375 83 18.1 82.907421875 17.785546875 82.7 17.35 82.407421875 16.7357421875 82.25 16.3 82.1208984375 16.190234375 82 16.05 82.04140625 16.4677734375 82.1 16.9
M 81.15 18.5
Q 81.65 19.75 81.65 20.1 81.65 20.7 79.6 21.3 77.35 21.95 76.9 23.05 76.75 23.7 76.95 25.1 76.9 26.3 75.55 26.8 73.55 27.55 73.1 28.75 72.75 29.55 69.55 30 67.3 30.3 67.15 31.95 67 33.4 63.95 33.4 63.65 33.4 63.05 33.1 62.5 32.75 62.15 32.75 61.8 32.75 61.6 32.85
L 61.4 32.9 61.4 33.15
Q 60.9 33.65 60.9 34.65 60.9 35.7 61.05 36.55 60.2 35.8 59.5 35.25 59.1 34.9 58.75 34.7 58.9 34.5 58.9 34.3 58.8 34.05 58.8 33.9 58.8 33.75 58.15 33.75 57.85 33.75 57 34.1 56.1 34.4 55.8 34.4 54.65 34.4 54.65 33.05 54.65 31.9 51.55 29.7 48.4 27.45 48.4 25.3 48.4 25.2 49.25 24.65 50.1 23.7 50.15 21.8
L 50.15 19.85
Q 50.3 18.65 51.05 17.9
L 52.55 17.75
Q 53.05 17.3 54.75 14.85 56.8 12.6 59.55 12.15 59.65 12.35 60.2 13.85 60.8 15.25 61.4 15.25 61.5 15.25 64.5 13.4 67.75 11.55 69.2 11.4
L 72.05 11.4
Q 73.45 12.6 74.2 14 75.05 15.5 74.7 16.65
L 75.65 16.75
Q 76.3 16.75 80.05 16.55 80.6 17.05 81.15 18.5 Z"/>

            <path fill="#FFCCCC" stroke="none" d="
M 62.4 239.65
Q 62.55 239.6 62.7 239.6 63.1 239.4 64.15 239.65
L 64.15 239.7
Q 64.2 239.8 64.45 239.85
L 64.65 239.8 64.75 239.75 64.75 239.1 64.7 238.9
Q 64.65 238.9 64.6 238.9
L 64.6 238.4
Q 64.55 238.3 64.2 237.95 61.65 238 61 238.25 60.7 238.4 60.65 238.8 60.7 238.85 60.75 238.9 60.7 239.05 60.75 239.2
L 60.75 239.85
Q 60.95 240.35 61.95 240.35
L 62 240.4 62.25 240.45 62.3 240.45
Q 62.5 240.45 62.5 240.35
L 62.5 240.1
Q 62.45 240 62.4 239.95 62.4 239.8 62.4 239.65
M 83.15 238.05
Q 83.25 237.85 83.25 237.05 83.25 236.1 82.8 235.85 79.6 235.65 78.75 236.45 78.5 236.7 78.5 237.55 78.5 238.55 78.95 238.85
L 81.45 238.85
Q 82.8 238.6 83.15 238.05
M 52.25 122.45
L 52.25 123
Q 52.45 123.55 53.6 123.55 55.7 123.55 56.3 123.2 56.6 123 56.6 122.3 56.6 121.5 55.95 121.2
L 53.05 121.2
Q 52.25 121.4 52.25 122.45
M 74.55 121.6
L 72.7 121.7
Q 72.25 122.1 71.9 122.3 71.75 122.45 71.75 122.9 71.75 122.95 71.9 123.6 72.3 124.3 73.6 124.3 76.75 124.3 76.75 122.7 76.75 122.2 76.5 122 76 121.6 74.55 121.6
M 71.15 56.9
Q 71.5 56.75 71.5 56.35 71.5 55.25 69.7 54.95 67.9 54.7 67.9 55.95
L 68 56.5
Q 68.35 57.05 69.65 57.05 70.75 57.05 71.15 56.9 Z"/>

            <path fill="#FEE9C0" stroke="none" d="
M 60.95 222.45
Q 60.9 222.5 60.85 222.55 60.65 222.45 60.65 222.8 60.65 222.85 60.65 222.9 60.65 222.95 60.6 223
L 60.55 222.95
Q 60.55 223 60.25 223 60.3 223.8 60 225.2 59.75 226.7 59.75 227.25 59.75 227.65 59.85 227.95 59.75 228.05 59.75 228.2
L 60.05 228.35 62.2 228.35 63.45 228.2 63.75 227.9 63.75 227.4
Q 62.45 225.05 61.8 223.9 61.45 223.3 61.25 223 61.25 222.9 61.25 222.85
L 60.95 222.45
M 82.05 222.15
Q 81.8 221.6 81.5 221.45 81.55 221.3 81.6 221.15 81.6 221.05 81.45 220.9 81 221.1 80.15 223.05 79.5 224.7 79.25 225.9 79.15 226 79.15 226.2
L 79.15 226.25 79.45 226.35 79.5 226.35
Q 82.1 226.45 82.45 226.6
L 83.3 226.6 83.6 226.45 83.6 225.95 82.5 223.45
Q 82.25 222.6 82.05 222.15
M 38 175
L 38.2 175.05 41.95 175.05
Q 42.2 175.05 42.25 174.95
L 42.25 174.35
Q 42.05 174 41.5 172.5 41.25 171.7 40.85 171.25 40.85 171.2 40.85 171.15
L 40.8 170.9
Q 40.7 170.9 40.6 171
L 40.55 170.95
Q 40.5 171 40.5 171.05 39.85 171.4 38.95 172.85 37.9 174.4 37.9 174.75 37.9 174.9 38 175
M 24.85 169.5
L 24.85 169.45
Q 24.75 169.45 24.55 169.2 24.3 169.45 23.3 171.5 22.35 173.35 22.2 174
L 22.15 174 22.15 174.4
Q 22.25 174.45 22.45 174.55 22.65 174.6 22.95 174.7
L 26.9 174.7 27.7 174.55
Q 27.95 174.55 28 174.45
L 28 173.8
Q 27 172 26.45 171.1 25.55 169.6 24.85 169.5
M 54.9 106.65
Q 54.4 107.85 53.65 111.05
L 53.65 111.15 53.95 111.45
Q 55.9 111.25 56.95 111.55 57.65 111.8 58 111.9 58 111.95 58.05 111.95 58.1 111.95 58.2 111.95
L 58.25 111.95
Q 58.35 111.95 58.45 111.85 58.6 111.65 58.6 111.6 58.5 111.5 58.35 111.4
L 58.35 111.35
Q 57.75 108.95 57.3 108.05 57.05 106.8 56.85 106.25 56.6 105.6 56.1 105.4
L 56.05 105.15
Q 55.85 105.15 55.7 105.3 55.6 105.25 55.5 105.25 55.55 105.3 55.55 105.4 55.35 105.55 55.2 105.85 54.9 106.4 54.9 106.65
M 73.55 104.45
Q 73.5 104.45 73.45 104.5
L 73.3 104.35
Q 72.8 105.1 71.7 108.15 70.65 111 70.65 111.45 70.65 111.55 70.7 111.6
L 70.65 111.65 70.7 111.7
Q 70.75 111.9 70.95 111.95
L 75.05 111.95 75.55 111.9
Q 75.7 112.05 75.8 112.05 76.05 112.05 76.05 111.9 76.1 111.8 76.1 111.7
L 76.1 111.65 76.35 111.4 76.3 111.25
Q 76.15 111.2 76 111.15 75.75 110.3 75.1 108.45 74.15 105.85 73.55 104.45
M 68.8 35.35
Q 68.6 35.05 68.5 35.5
L 68.5 35.7
Q 68.45 35.75 68.35 35.85 66.1 38.3 65 39.6 64.75 40.35 64.25 41.55 64.15 41.65 64.15 41.75
L 64.15 41.8
Q 64.25 42.05 66.25 42.4 67.75 42.6 68.1 42.85
L 68.9 37.95
Q 69.05 35.8 68.8 35.35
M 24.65 31.75
Q 24.3 31.75 24.25 31.75 24.25 31.9 23.6 34.75 23 37.4 23 37.8
L 23.05 37.85 23 37.9 23.3 38.2 26.15 38.2 26.25 38.1 27.3 38.05 27.5 37.95
Q 27.55 37.85 27.55 37.8
L 27.6 37.7
Q 27.6 37.6 27.6 37.45 27.6 36.8 26.6 34.45 25.5 31.85 24.65 31.45
L 24.65 31.75
M 43.2 32.75
Q 42.6 32.85 42.1 33.7 41.8 34.2 41.4 35.1 41.25 35.3 40.9 36.35 40.5 37.45 40.5 37.7
L 40.5 37.75 40.8 38.05
Q 42.7 38.1 44.75 38.2
L 44.85 38.2
Q 44.9 38.2 44.95 38.2
L 45.25 37.9 45 37.65
Q 44.7 36.4 44.4 35.45 43.8 33.7 43.2 33.2
L 43.25 33 43.2 32.75 Z"/>

            <path fill="#4D4D4D" stroke="none" d="
M 29.15 194.25
Q 29.15 194.4 29.15 194.55 29.15 195.25 29.05 195.8
L 28.85 195.9
Q 28.85 195.95 28.9 196.05 28.9 196.1 28 197.2 27.05 198.45 26.65 199.8 26.45 200.45 26.4 201.6 26.35 202 26.35 202.65 26.25 202.6 26.15 202.6
L 26.15 205.4 28.55 205.35
Q 28.4 204.9 28.4 204.25 28.4 203.8 28.45 203.45 28.45 203.4 28.45 203.35 28.4 203 28.4 201.7 28.4 198.5 29.05 198.5 29.65 198.5 29.65 201.7 29.65 202.25 29.65 202.75
L 29.65 205.45
Q 30.88671875 205.333203125 32.45 205.15 33.766796875 204.9931640625 34.9 204.9
L 34.9 203.9
Q 34.95 203.9 35 203.9 34.95 203.8 34.95 203.75 34.9 203.25 34.9 201.25 34.9 199.15 35.05 198.65 35.25 197.95 35.65 199.65 36.4 202.7 36.4 204.45 36.4 204.5640625 36.4 204.65 36.86484375 204.4 37.6 204.4 37.69296875 204.4 37.75 204.4 37.9515625 204.3158203125 38.15 204.25 38.1666015625 203.650390625 38.3 203.25 38 202.05 37.65 200 37.25 197.2 35.5 195.8
L 34.9 195.3 34.9 194.25 29.15 194.25
M 29.65 194.75
Q 29.65 194.65 29.8 194.55
L 30.7 194.55 31.65 194.85
Q 31.75 194.8 31.85 194.8 32.1 194.8 32.3 194.9 32.45 194.8 32.95 194.65 33.65 194.5 33.85 194.5
L 34.25 194.5 34.3 194.6 34.3 197
Q 34.3 197.05 34.15 197.05
L 34.1 197.05
Q 33.45 197.1 32.65 196.7 32.15 196.45 32 196.3 31.95 196.3 31.9 196.3 31.3 196.65 29.9 197.15
L 29.5 197.15 29.45 197.1 29.45 196.35
Q 29.45 195.75 29.5 195.4 29.55 195.05 29.7 194.8
L 29.65 194.75
M 22.4 171.9
L 22.25 171.95
Q 21.55 174.25 19.65 179.4 19.5 179.9 18.55 184 18.35 184.95 18.1 185.75 18.15 186.6 18.15 187.8 18.15 189.65 18.45 190.2 19.35 191.8 22.8 192
L 22.85 192.05
Q 23.6 192.05 24.1 192.1 26.2 192.25 27.55 192.9
L 37.9 192.9
Q 39.05 192.65 40.05 192.45 43.4 191.65 44.8 190.95 45.75 190.45 46.55 189.45 45.7 187.2 43.85 178.65 43.2 175.85 42.5 172.4 42.1 171.75 41.4 170.5 41.1 169.95 40.9 169.5 39.6 171.2 36.3 174.75 36.25 174.8 36.2 174.85
L 36.15 174.9
Q 36.1 174.95 36.05 175 35.95 175 35.85 175
L 30.05 175
Q 29.65 174.9 29.6 174.85 29.4 174.75 29.4 174.3
L 29.4 174.15
Q 26.1 169.6 24.65 167.7 24.05 168.9 22.4 171.9
M 24.85 169.45
L 24.85 169.5
Q 25.55 169.6 26.45 171.1 27 172 28 173.8
L 28 174.45
Q 27.95 174.55 27.7 174.55
L 26.9 174.7 22.95 174.7
Q 22.65 174.6 22.45 174.55 22.25 174.45 22.15 174.4
L 22.15 174 22.2 174
Q 22.35 173.35 23.3 171.5 24.3 169.45 24.55 169.2 24.75 169.45 24.85 169.45
M 38.2 175.05
L 38 175
Q 37.9 174.9 37.9 174.75 37.9 174.4 38.95 172.85 39.85 171.4 40.5 171.05 40.5 171 40.55 170.95
L 40.6 171
Q 40.7 170.9 40.8 170.9
L 40.85 171.15
Q 40.85 171.2 40.85 171.25 41.25 171.7 41.5 172.5 42.05 174 42.25 174.35
L 42.25 174.95
Q 42.2 175.05 41.95 175.05
L 38.2 175.05
M 38.45 178.85
L 38.4 178.1
Q 38.45 178.1 38.5 178.1 38.7 178.05 39 178.15 39.85 178.25 41.2 178.9 42.25 179.45 42.8 179.85 42.95 180 43.1 180.1
L 43.15 180.15 43.05 180.7
Q 43.15 180.95 42.55 180.95 42.15 180.95 41.45 180.65 41.2 180.5 40.9 180.35 40.65 180.2 40.35 180.05 39.85 179.75 39.5 179.5 38.65 179 38.45 178.85
M 39.55 182.25
Q 38.5 181.5 38.4 181.45
L 38.4 180.85 38.45 180.85
Q 38.65 180.7 38.8 180.65 39.55 180.4 40.45 181 40.9 181.3 41.6 181.8 41.75 181.95 41.95 182.1 42.05 182.15 42.15 182.2 42.05 182.4 41.85 182.75 41.7 182.95 41.3 182.95 40.7 182.95 39.55 182.25
M 26.9 178.5
Q 26.55 179.2 25.85 179.35 25.75 179.35 25.7 179.3 25.25 179.5 24.6 179.75 22.85 180.35 21.95 180.35 21.05 180.35 20.75 180 20.7 180.3 20.7 179.65 20.7 179.5 21.5 179.25 22.05 179.05 22.95 178.8 24.4 178.35 25.35 178.25 25.5 178.1 25.7 177.8 26.25 177.1 26.6 176.85 26.75 176.95 27 177
L 27.05 177.05
Q 27.2 177.2 27.2 177.55 27.2 178 26.9 178.5
M 22.65 181.95
Q 23 181.75 23.55 181.55 24.7 181.2 25.85 181.25 26.1 181.2 26.35 181.25 26.35 181.4 26.45 181.65 26.45 182.1 25.35 182.6 24.25 183.1 23.45 183.1 22.55 183.1 22.25 182.75 22.2 183.05 22.2 182.4 22.2 182.15 22.65 181.95
M 29.4 187.7
Q 29.5 187.7 29.55 187.55
L 33.8 187.5
Q 33.95 187.6 34.2 187.6 34.4 187.7 34.4 188.05 34.4 188.45 34.2 188.6 34.1 188.7 33.8 188.75
L 30.1 188.75 30.05 189 29.55 189.25
Q 28.9 188.6 28.9 188.45 28.9 187.9 29.4 187.85
L 29.4 187.7
M 34.7 55.4
L 33.4 55.5
Q 31.7 55.5 30.15 55.4
L 30.15 67.5
Q 30.6 67.7 30.7 68.25 30.8 68.75 30.65 69.3 30.65 70.55 30.55 71.3
L 30.35 71.4
Q 30.3 71.45 30.3 71.5 30.15 71.75 29.8 71.75 29.3 71.75 27.8 70.75 26.45 69.9 26.2 69.65 26.2 69.75 26.3 70.5 26.2 71.25 25.05 71.15 25.4 71.8 25 72.2 25.15 72.35 29.05 72.5 29.2 72.6 29.45 72.6 29.65 72.7 29.65 73.05 29.65 73.45 29.45 73.6 29.35 73.7 29.05 73.75
L 36.85 73.65
Q 36.6 73.4 36.4 73.15 36.1 72.75 35.9 72.5 35.85 72.5 35.8 72.5
L 34.95 72.4 34.9 71.45
Q 34.9 70.8 35.5 70 35.45 70 35.4 70 33.3 70 32.65 65.6
L 32.4 61.3
Q 32.4 58.05 32.5 57.6 32.6 56.95 32.85 57.7 33.1 57.45 33.55 57.5 34.55 57.6 34.9 58.9
L 35.7 61.9
Q 36.3 64.75 36.35 64.85 36.75 66.3 37.5 67.4 37.65 67.3 37.8 67.15 37.35 65.65 37.2 63.75 37.15 62.85 37.15 58.95 36.8 57.95 36.8 57 36.85 55.95 37.4 55.5 36 55.45 34.7 55.4
M 39.35 67.75
Q 39.4 67.75 39.45 67.85 39.55 67.9 39.6 67.95
L 39.6 67.9 40.05 67.4
Q 40.2 67.4 40.35 67.5 40.25 67.35 40.25 67.2 40.9 67 40.9 67.75 40.9 68.15 40.6 68.15 40.2 67.9 40.05 67.9 39.9 67.9 39.9 67.95 39.85 68 39.8 68.05 39.9 68.15 40 68.3 40.15 68.5 40.35 68.75 40.3 68.65 40.3 68.55
L 40.4 68.45
Q 40.75 68.45 40.85 68.65 41.05 68.2 41.35 68.25 41.65 68.3 41.75 68.7
L 41.6 68.75 41.3 68.6
Q 41.05 69 40.8 69 40.6 69 40.5 68.95 40.6 69.1 40.75 69.25 40.85 69.35 41.1 69.55 41.1 69.5 41.15 69.45
L 41 69.3
Q 41 69.1 41.15 69.1
L 41.35 69.2 41.7 69.15
Q 41.55 69.1 41.55 68.95 41.55 68.65 42 68.85
L 42 69.35 41.6 69.75 41.3 69.75
Q 41.75 70.15 42.55 70.8 43.15 70.45 43.7 70.2 43.1 69.7 42.3 68.8 41.05 67.4 40.4 66.7 40 67.1 39.35 67.75
M 33.55 60.3
Q 33.6 60.6 33.65 60.9 33.15 65.6 35.95 69.15 36.1 68.7 36.8 68.05 36.15 66.95 34.65 63.15 33.95 61.4 33.55 60.3
M 45.3 36.3
Q 44.05 33 43.55 31.45 42.15 33.45 38.65 37.65 38.6 37.95 38.45 38.1 38.35 38.2 38.2 38.25
L 29.55 38.25
Q 29.15 38.15 29.1 38.1 28.9 38 28.9 37.55
L 28.9 37.5
Q 27.75 36 26 32.8 25.1 31.15 24.6 30.15 23.95 31.75 22.55 35.1 19.8 41.85 18.95 45.8 19.3 46.95 19.9 48.9 21.15 50.75 23.75 51.8 26.1 52.8 30.7 53.65 34.45 54.15 38.6 54.15 45.25 54.15 47 51.35 47.4 50.65 47.4 48.1 47.4 42.95 45.3 36.3
M 42.1 33.7
Q 42.6 32.85 43.2 32.75
L 43.25 33 43.2 33.2
Q 43.8 33.7 44.4 35.45 44.7 36.4 45 37.65
L 45.25 37.9 44.95 38.2
Q 44.9 38.2 44.85 38.2
L 44.75 38.2
Q 42.7 38.1 40.8 38.05
L 40.5 37.75 40.5 37.7
Q 40.5 37.45 40.9 36.35 41.25 35.3 41.4 35.1 41.8 34.2 42.1 33.7
M 43.7 40.35
Q 43.9 40.45 43.9 40.8 43.9 41.2 43.7 41.35 43.6 41.45 43.3 41.5
L 40.05 41.5
Q 39 41.5 38.7 41.15
L 38.65 40.8 38.65 40.45
Q 38.75 40.45 38.8 40.3 39.15 40.3 39.55 40.3
L 43.3 40.25
Q 43.45 40.35 43.7 40.35
M 42.7 44.6
Q 42.6 44.7 42.3 44.75
L 40.05 44.75
Q 39.65 44.65 39.6 44.6 39.4 44.5 39.4 44.05
L 39.4 43.7
Q 39.5 43.7 39.55 43.55
L 42.3 43.5
Q 42.45 43.6 42.7 43.6 42.9 43.7 42.9 44.05 42.9 44.45 42.7 44.6
M 24.25 31.75
Q 24.3 31.75 24.65 31.75
L 24.65 31.45
Q 25.5 31.85 26.6 34.45 27.6 36.8 27.6 37.45 27.6 37.6 27.6 37.7
L 27.55 37.8
Q 27.55 37.85 27.5 37.95
L 27.3 38.05 26.25 38.1 26.15 38.2 23.3 38.2 23 37.9 23.05 37.85 23 37.8
Q 23 37.4 23.6 34.75 24.25 31.9 24.25 31.75
M 29.9 40.8
Q 29.9 41.25 29.55 41.4 29.3 41.5 28.65 41.5 28.5 41.5 28.35 41.5
L 24.65 41.75
Q 24.1 41.75 23.8 41.5 23.75 41.5 23.7 41.5 23.55 41.5 23.4 41.5 22.5 41.5 22.2 41.15 22.15 41.45 22.15 40.8 22.15 40.4 22.55 40.3 23.05 40.2 24.55 40.4
L 24.55 40.45
Q 25.65 40.3 28.3 40.25
L 28.35 40.3
Q 28.85 40.3 29.8 40.4 29.8 40.55 29.9 40.8
M 24.15 44.05
L 24.15 43.7
Q 24.25 43.7 24.3 43.55
L 28.05 43.5
Q 28.2 43.6 28.45 43.6 28.65 43.7 28.65 44.05 28.65 44.45 28.45 44.6 28.35 44.7 28.05 44.75
L 24.8 44.75
Q 24.4 44.65 24.35 44.6 24.15 44.5 24.15 44.05
M 35.8 50.5
Q 35.95 50.6 36.2 50.6 36.4 50.7 36.4 51.05 36.4 51.45 36.2 51.6 36.1 51.7 35.8 51.75
L 31.8 51.75
Q 31.4 51.65 31.35 51.6 31.15 51.5 31.15 51.05
L 31.15 50.7
Q 31.25 50.7 31.3 50.55
L 35.8 50.5 Z"/>

            <path fill="#CC0000" stroke="none" d="
M 31.9 195.25
Q 31.7 195.25 31.7 195.65
L 31.7 195.8
Q 31.7 195.85 31.75 195.95 32 195.8 32.2 195.75
L 32.25 195.85 32.3 195.5
Q 32.3 195.3 32.25 195.3 32.2 195.25 31.9 195.25
M 32.55 195.1
Q 32.6 195.25 32.6 195.5 32.6 195.95 32.45 196.15 32.6 196.2 32.85 196.3 33.5 196.6 34 196.7
L 34 194.85
Q 33.55 194.95 32.55 195.1
M 29.95 194.85
L 29.8 196.85
Q 30 196.7 30.45 196.5 31 196.25 31.45 196.05
L 31.4 196
Q 31.4 195.7 31.4 195.65 31.4 195.35 31.45 195.2 31.25 195.15 31.05 195.05 30.55 194.9 29.95 194.85 Z"/>
        </g>

        <g id="Layer0_0_FILL">
            <path fill="#000000" stroke="none" d="
M 88.95 211
Q 88.75 210.95 88.6 210.9
L 75.5 210.85 56.5 209.8
Q 56.2 209.7 50.95 209.6 50.6 209.5 25.4 209.5
L 25.4 209.6 18 210.1
Q 17.8927734375 210.1 17.8 210.1
L 17.8 210.1 17.75 210.1
Q 17.728515625 210.1357421875 17.7 210.15 17.5 210.25 17.5 210.55 17.5 210.667578125 17.5 210.75 16.9296875 212.95390625 16.25 222.15 15.5 232.75 15.5 238.7 15.5 240.65 15.9 249.95 16.1423828125 256.1140625 16.25 258.55 15.8259765625 258.8240234375 15.5 259.15
L 15.55 259.45
Q 15.65 259.55 15.7 259.65 15.8 259.7 16.1 259.7 16.21015625 259.7 16.3 259.7 16.340234375 259.88671875 16.35 260
L 16.9 260.1
Q 17.2 260.1 17.35 259.95 17.45 259.8 17.5 259.7
L 17.5 259.65
Q 18.9970703125 259.5265625 21.25 259.2 24.6 258.7 25.45 258.4
L 75.3 259.2
Q 79.75 259.6 90.3 261.3 90.7 261.3 90.85 261.15 91 260.9 91.1 260.7 88.6 259.8 86.6 259.35 83.15 258.55 75.4 258.1
L 66.1 258
Q 65.8 257.9 54.35 257.8 54 257.7 40.55 257.6 40.2 257.5 34.15 257.4 33.8 257.3 25.4 257.3
L 25.4 257.4
Q 22.55 257.4 20.6 257.5 18.6732421875 257.6056640625 17.35 258.05 17.207421875 255.6212890625 16.95 249.8 16.5 240.8 16.5 238.7 16.5 230.5 17.4 220.5 18.3 212 18.3 211.25 18.3 211.1740234375 18.3 211.1
L 20.6 211.1
Q 22 210.9 25.3 210.6
L 62.5 211
Q 73.3 211.35 75.8 211.9
L 88.2 211.9
Q 88.1 212.6716796875 88.1 214 88.1 215 88.6 222.9 89.05 230.7 89.3 233.5
L 89.3 242.05
Q 89.35 243.25 89.9 251.2 90 252.6 90.1 255.75 90.3 258.55 91 260.3
L 91.5 260.05 91.5 258.1
Q 91.3 255.8 90.95 249.9 90.65 244.6 90.3 241.75
L 90.3 233.2
Q 89.6 227.25 89.5 222.1 89.5 218.3 89.4 216.45 89.278125 213.889453125 88.8 211.8 89.1 211.683203125 89.1 211.35 89.1 211.05 88.95 211
M 11.1 153.3
Q 11.1 155.45 12.3 167.05 13.5 178.85 13.5 179.25 13.55 181.45 14.3 192.3 14.45 194.45 14.55 198.8 14.6408203125 201.1599609375 14.9 203.05 14.9 203.5263671875 14.9 204.3 14.9 205.85 14.95 206.1 15.05 207.15 15.6 207.7
L 16.05 207.5 16.05 207.3 20.4 207.3 20.7 207.2 25.8 207.1
Q 32.65 205.95 34.2 205.75 38.5548828125 205.1048828125 43.55 204.65
L 43.6 204.7
Q 55.15 205.35 59.65 205.95 62.25 206.3 68 207.1
L 75 207.1
Q 80.7 206.6 86.4 205.85 90.205859375 205.333984375 91.55 205 91.671484375 205.1779296875 91.8 205.3
L 92.25 205.1 92.25 204.8 92.3 204.75
Q 92.275390625 204.70078125 92.25 204.65
L 92.3 203.75
Q 92.3 202.95 91.5 198.65 90.7 194.35 90.7 189.65 90.7 185.15 92.1 173.15 93.5 161.15 93.5 158 93.9 156.55 93.95 155.35 94.0609375 153.5736328125 93.2 153.7 93.2 153.6541015625 93.2 153.6 92.7 153.5 92.2 153.5 84.4 154.5 84.1 154.6
L 76.8 154.7
Q 74.8 155 71.2 155.35 68 155.7 67 155.85
L 57.05 155.85 11.6 152.6
Q 11.1 150.9896484375 11.1 153.3
M 12.5 157.7
Q 12.3146484375 155.1505859375 11.75 153.2 11.8775390625 153.26328125 12 153.3 17.45 154.1 28.7 154.95 35.9 155.45 57.4 156.9
L 66.8 156.9
Q 69.1 156.5 76.45 155.75
L 84 155.7
Q 90.5728515625 154.92265625 92.5 154.35
L 92.5 161.7
Q 92.2 163.35 91.05 174.25 89.7 186.45 89.7 189.75 89.7 195.15 90.35 197.55 90.45 198 90.65 201.65 90.7419921875 203.3072265625 91.15 204.3 89.7458984375 204.35703125 85.55 204.95 80 205.7 75.25 206
L 67.75 206
Q 59.3 204.95 58.2 204.7 56.7 204.65 50.4 203.9 48.366796875 203.6359375 46.45 203.65 46.4091796875 203.6197265625 46.35 203.6 46.15 203.55 46 203.5 44 203.5 44 203.6 36.8 204 32.65 204.95 28.9921875 205.790234375 16.1 206.3 16.0802734375 205.44609375 15.85 204.4
L 15.9 203
Q 15.9 199.8 14.3 177.05 13.8 170.2 13.15 164.15
L 12.5 157.7
M 14 121.1
Q 13.5 121.45 13.5 122.7 13.5 122.75 14.35 127.1 15.45 131.5 16.6 131.5 17.1 131.5 17.1 131.25 15.7 125.1 14 121.1
M 85.95 85.45
Q 85.836328125 85.8056640625 85.7 86.3 84.9 89.2 84.9 92.85 83.85 98.95 83.45 102.3 82.35 110.95 82.3 113.05 82.2 115.05 82.3 121.4 82.3 121.65 82.25 125.3 82.3 129.2 82.5 131.25 82.55 131.75 82.7 136.2 82.776953125 138.5052734375 83.15 140.15 81.8978515625 140.2078125 78.9 140.8
L 72 140.9
Q 71.7 141 68.8 141.1 68.6 141.1 68.5 141.15 68.3 141.25 68.3 141.55 66.391015625 141.7595703125 65.1 141.8
L 40.7 141.8
Q 36.7 141.4 32.25 140.8 27.55 140.15 21 139.5
L 10.85 139.5
Q 11.240234375 130.8837890625 12.3 119.9 13.1 111.05 13.1 102.5
L 12.9 92.15
Q 12.7 88.55 12.7 86.9 11.95 84 11.75 84.9 11.7 85.25 11.7 87.3
L 12.1 102.45
Q 12.1 111.65 11 122.05 9.9 132.45 9.9 136 9.9 137.9 9.95 138.25 9.9783203125 139.0158203125 10.1 139.55 9.99921875 139.650390625 9.7 139.8 9.7 140.35 10.2 140.5
L 21.25 140.55
Q 33.6 141.9 40.8 142.9
L 65.2 142.9
Q 70.25 142.55 70.65 142.4
L 75.6 142.3
Q 75.75 142.25 76.5 142.15 77.2 142.05 77.35 142.05
L 77.4 141.9 79.2 141.9
Q 81.2 141.1 82.95 141 83.1822265625 141 83.35 140.95 83.3796875 141.0357421875 83.4 141.1 83.54609375 141.0166015625 83.65 140.85 83.9 140.7744140625 83.9 140.55
L 83.9 140.5
Q 84.1 140.0466796875 84.1 139.25 84.1 137.2 83.7 131.7 83.3 126.2 83.3 121.4 83.3 109.9 84.9 99.75 86.5 89.6 86.5 85.7 86.5 85.425390625 86.5 85.2 86.5 85.1896484375 86.5 85.15 86.4388671875 84.453515625 86.2 84.75 84.4421875 84.6662109375 83.25 85
L 74.55 85
Q 72.7 84.45 72.15 84.4 71.8 84.35 69.8 84.3
L 62.55 84.2
Q 62.05 84.05 55.6 83.75 48.7 83.45 47.6 83.3
L 35.5 83.2
Q 35.2 83.1 20.6 83.1
L 20.6 83.2
Q 13.15 84 12.3 84.75
L 12.35 85.05
Q 12.6 85.3 13 85.3 13.55 85.3 20.65 84.2
L 47.5 84.4
Q 48.8 84.55 55.9 84.85 62.25 85.15 62.8 85.3
L 69.9 85.4
Q 71.45 85.9 72.35 86 72.4 86 74.8 86.1
L 83 86.1
Q 84.7283203125 85.619921875 85.95 85.45
M 85.85 22.4
Q 87.9 8.85 87.9 8.6 87.88984375 8.5546875 87.85 8.5 87.9 8.437890625 87.9 8.35 87.8125 8.175 87.8 8.05
L 87.8 8
Q 85.55 8.05 83.4 8.35 80.8 8.75 78.4 8.85
L 71 8.9
Q 60.5 9.75 39.3 11.4
L 29.6 11.5
Q 24.6 11.7 24.25 11.8
L 14.4 11.9
Q 14.1 12 8.2 12.1 8 12.1 7.9 12.15 7.7 12.25 7.7 12.55 7.7 12.9 7.85 13
L 8.2 13.1 8.75 13.1
Q 8.96875 14.0109375 9.75 16.95 10.85 21.25 11.1 22.9 11.7 26.65 11.9 33.25 11.95 35.55 12.9 53.95
L 12.9 72.1
Q 12.9251953125 72.17578125 12.95 72.25 12.9 72.8166015625 12.9 73.75 12.9 75.7 13.4 76.1
L 13.85 75.95 13.85 75.9 13.9 75.9
Q 16.15 75.9 38.25 74
L 43.4 73.9
Q 45.8 73.7 51.25 73.4
L 69.5 73.4
Q 72.3 73.75 79.6 75.1
L 79.95 75
Q 79.969921875 75.0609375 80 75.1
L 80.45 74.9
Q 80.7 68.35 81.7 58.25 83.2 43.15 83.3 41.75 83.7 36.7 85.85 22.4
M 85.5 15.35
Q 85.15 18.05 84.7 23.55 83.05 31.55 82.35 39.6 81.85 44.95 80.55 55.8 79.5 65.45 79.5 71.85 79.5 73.226171875 79.65 74.05 78.6419921875 73.61484375 75.45 73.1 72.3 72.55 69.6 72.3
L 51.2 72.3 51.2 72.4
Q 44.05 72.55 43.3 72.8
L 38.2 72.9
Q 27.55 73.75 23.1 74.15 16.61328125 74.712109375 13.85 75.2
L 13.9 73.75
Q 13.9 72.90703125 13.85 72.35
L 13.9 62.9
Q 13.9 55.25 13.7 51 13.3 44.3 12.9 36.95 12.85 35.8 12.7 30.4 12.6 26.4 12.3 24.05 11.7 19.95 10.2 15.35 9.711328125 13.8841796875 9.35 13.1
L 24 12.9
Q 24.35 12.8 29.35 12.6
L 39.2 12.5
Q 47.75 11.85 58.5 10.9 64.3 10.35 71.05 10
L 78.2 9.9
Q 83.2650390625 9.555859375 87.25 8.9 86.0390625 11.3275390625 85.5 15.35 Z"/>
        </g>

        <path id="Layer2_0_1_STROKES" stroke="#FFFFFF" stroke-width="5" stroke-linejoin="miter" stroke-linecap="butt"
              stroke-miterlimit="3" fill="none" d="
M 0 269.6
L 0 -0.8 99.2 0 99.2 272 0 269.6 Z"/>

        <path id="Layer1_0_1_STROKES" stroke="#4D4D4D" stroke-width="1" stroke-linejoin="miter" stroke-linecap="butt"
              stroke-miterlimit="3" fill="none" d="
M 36.85 73.65
L 29.05 73.75
M 28.55 205.35
L 26.15 205.4"/>

        <path id="Layer1_0_2_STROKES" stroke="#FFFFFF" stroke-width="1" stroke-linejoin="miter" stroke-linecap="butt"
              stroke-miterlimit="3" fill="none" d="
M 70.25 140.6
L 62.15 141.65"/>
    </defs>

    <g transform="matrix( 1, 0, 0, 1, 0,0) ">
        <use xlink:href="#Layer2_0_FILL"/>

        <use xlink:href="#Layer2_0_1_STROKES"/>
    </g>

    <g transform="matrix( 1, 0, 0, 1, 33.2,263) ">
        <clipPath id="Mask_Mask_1">
            <rect x="-2" y="-2" width="10.2" height="6.3" fill="#FFFFFF" stroke="none"/>
        </clipPath>

        <text clip-path="url(#Mask_Mask_1)" writing-mode="lr"/>
    </g>

    <g transform="matrix( 1, 0, 0, 1, 0,0) ">
        <use xlink:href="#Layer1_0_FILL"/>

        <use xlink:href="#Layer1_0_1_STROKES"/>

        <use xlink:href="#Layer1_0_2_STROKES"/>
    </g>

    <g transform="matrix( 1, 0, 0, 1, 58.4,14.9) ">
        <clipPath id="Mask_Mask_2">
            <rect x="-5.3" y="-2" width="20.8" height="19.1" fill="#FFFFFF" stroke="none"/>
        </clipPath>

        <text clip-path="url(#Mask_Mask_2)" writing-mode="lr">
            <tspan x="-3.25" y="3.2" baseline-shift="0%" font-family="" font-size="3.7" fill="#000000" xml:space="preserve">Kuro-kun,</tspan>
            <tspan x="1.4" y="8.9" baseline-shift="0%" font-family="" font-size="3.7" fill="#000000"
                   xml:space="preserve">hey,</tspan>
            <tspan x="-3.25" y="14.6" baseline-shift="0%" font-family="" font-size="3.7" fill="#000000"
                   xml:space="preserve">Kuro-kun!</tspan>
        </text>
    </g>

    <g transform="matrix( 1, 0, 0, 1, -44.15,97.5) ">
        <clipPath id="Mask_Mask_3">
            <rect x="61.15" y="-2" width="21.7" height="37" fill="#FFFFFF" stroke="none"/>
        </clipPath>

        <text clip-path="url(#Mask_Mask_3)" writing-mode="lr">
            <tspan x="69.5" y="4.3" baseline-shift="0%" font-family="" font-size="5" fill="#000000" xml:space="preserve">Is</tspan>
            <tspan x="65.75" y="11.3" baseline-shift="0%" font-family="" font-size="5" fill="#000000"
                   xml:space="preserve">there</tspan>
            <tspan x="68.25" y="18.3" baseline-shift="0%" font-family="" font-size="5" fill="#000000"
                   xml:space="preserve">any</tspan>
            <tspan x="63.25" y="25.3" baseline-shift="0%" font-family="" font-size="5" fill="#000000"
                   xml:space="preserve">chutoro</tspan>
            <tspan x="65.75" y="32.3" baseline-shift="0%" font-family="" font-size="5" fill="#000000"
                   xml:space="preserve">left?</tspan>
        </text>
    </g>

    <g transform="matrix( 1, 0, 0, 1, -0.5,162.25) ">
        <clipPath id="Mask_Mask_4">
            <rect x="60.9" y="-2" width="22.2" height="41" fill="#FFFFFF" stroke="none"/>
        </clipPath>

        <text clip-path="url(#Mask_Mask_4)" writing-mode="lr">
            <tspan x="68.6" y="3.85" baseline-shift="0%" font-family="" font-size="4.5" fill="#000000" xml:space="preserve">You</tspan>
            <tspan x="65.25" y="10.35" baseline-shift="0%" font-family="" font-size="4.5" fill="#000000"
                   xml:space="preserve">ate it</tspan>
            <tspan x="68.6" y="16.85" baseline-shift="0%" font-family="" font-size="4.5" fill="#000000"
                   xml:space="preserve">all</tspan>
            <tspan x="63" y="23.35" baseline-shift="0%" font-family="" font-size="4.5" fill="#000000"
                   xml:space="preserve">already,</tspan>
            <tspan x="65.25" y="29.85" baseline-shift="0%" font-family="" font-size="4.5" fill="#000000"
                   xml:space="preserve">didn't</tspan>
            <tspan x="67.5" y="36.35" baseline-shift="0%" font-family="" font-size="4.5" fill="#000000"
                   xml:space="preserve">you?</tspan>
        </text>
    </g>

    <g transform="matrix( 0.8749847412109375, 0.484161376953125, -0.484161376953125, 0.8749847412109375, -25.4,197.05) ">
        <clipPath id="Mask_Mask_5">
            <rect x="57.65" y="-2" width="28.7" height="11" fill="#FFFFFF" stroke="none"/>
        </clipPath>

        <text clip-path="url(#Mask_Mask_5)" writing-mode="lr">
            <tspan x="59.75" y="6" baseline-shift="0%" font-family="" font-size="7" fill="#000000" xml:space="preserve">toro</tspan>
            <tspan baseline-shift="0%" font-family="" font-size="7" fill="#000000"
                   xml:space="preserve"></tspan>
            <tspan baseline-shift="0%" font-family="" font-size="7" fill="#000000"
                   xml:space="preserve">n</tspan>
        </text>
    </g>

    <g transform="matrix( 1, 0, 0, 1, 15,265.7) ">
        <clipPath id="Mask_Mask_6">
            <rect x="-2" y="-2" width="87" height="6.3" fill="#FFFFFF" stroke="none"/>
        </clipPath>

        <text clip-path="url(#Mask_Mask_6)" writing-mode="lr">
            <tspan x="0" y="2" baseline-shift="0%" font-family="" font-size="2.3" fill="#000000" xml:space="preserve">Characters portrayed here are owned by SIE Inc. and BeXide Inc., not me.</tspan>
        </text>
    </g>

    <g transform="matrix( 1, 0, 0, 1, 0,0) ">
        <use xlink:href="#Layer0_0_FILL"/>
    </g>
</svg>
