
<svg xmlns="http://www.w3.org/2000/svg" version="1.1" xmlns:xlink="http://www.w3.org/1999/xlink" preserveAspectRatio="none" x="0px" y="0px" width="437px" height="327px" viewBox="0 0 437 327">
<defs>
<g id="Layer4_0_FILL">
<path fill="#FF9900" stroke="none" d="
M 437 327
L 437 0 0 0 0 327 437 327 Z"/>
</g>

<g id="Layer3_0_FILL">
<path fill="#FFFFFF" stroke="none" d="
M 119.7 170.25
L 118.8 172.15 119.2 172.45 119.65 172.75 120.3 171.65
Q 119.95 170.9 119.7 170.25
M 133.2 138.7
Q 130.05 140.85 127.6 143.1 125.85 144.65 124.45 146.2 114.45 157.35 119.7 170.25 119.95 170.9 120.3 171.65 121.6 174.45 123.65 177.35
L 125 177.65 133.2 138.7
M 250.3 140.75
Q 248.9 139.2 247.1 137.65 244.6 135.4 241.4 133.25
L 249.75 172.2 252.8 174.1
Q 264.6 154.25 250.3 140.75
M 238.2 114.1
Q 235.8 113.45 232.65 112.35 230.5 111.55 228.35 110.85 193.95 99.9 146 116.3 143.85 117 141.75 117.8 138.7 118.9 136.3 119.55 129.8 125.6 126.7 136.05 125.3 140.65 124.45 146.2 125.85 144.65 127.6 143.1 128.35 139.3 129.45 136.05 131.65 129.45 135.05 125.3 138.4 123.9 141.75 122.7 143.85 121.9 146 121.2 193.5 105.05 228.35 115.75 230.5 116.45 232.65 117.25 236.1 118.45 239.5 119.85 242.95 124 245.2 130.6 246.35 133.85 247.1 137.65 248.9 139.2 250.3 140.75 249.45 135.2 248 130.6 244.85 120.15 238.2 114.1 Z"/>
</g>

<g id="Layer2_0_FILL">
<path fill="#FFFFFF" stroke="none" d="
M 47.9 27.6
L 43.9 27.6 43.9 43.75 47.9 43.75 47.9 27.6
M 47.55 21.5
Q 46.95 20.9 45.95 20.9 44.9 20.9 44.3 21.5 43.7 22.15 43.7 23.1 43.7 24.05 44.3 24.65 44.9 25.25 45.9 25.3 46.95 25.25 47.55 24.65 48.1 24.05 48.15 23.1 48.1 22.15 47.55 21.5
M 64.75 23.1
Q 63.75 22.2 62.15 21.75 60.55 21.25 58.35 21.25 56.35 21.25 54.9 21.4 53.4 21.5 52.35 21.75
L 52.35 43.75 56.25 43.75 56.25 35.35
Q 56.65 35.4 57.15 35.45 57.6 35.45 58.2 35.45 60.3 35.45 62.05 34.9 63.85 34.3 65 33.05 65.95 32.2 66.4 30.9 66.9 29.6 66.9 28 66.85 26.45 66.3 25.2 65.75 23.9 64.75 23.1
M 57.15 24.45
Q 57.7 24.4 58.5 24.4 60.6 24.4 61.75 25.35 62.9 26.35 62.95 28.2 62.9 30.15 61.65 31.2 60.4 32.25 58.2 32.3 57.55 32.3 57.1 32.25 56.6 32.2 56.25 32.1
L 56.25 24.6
Q 56.55 24.5 57.15 24.45
M 149.25 60.4
Q 149.55 60.15 149.55 59.7 149.55 59.3 149.35 59.05 149.1 58.8 148.75 58.8 148.35 58.8 148.15 59.05 147.9 59.3 147.9 59.7 147.9 60.15 148.2 60.4 148.4 60.65 148.7 60.65 149.05 60.65 149.25 60.4
M 142.1 60.1
L 141.9 59.25
Q 141.05 59.65 139.9 59.65 138.8 59.65 138.1 58.95 137.35 58.2 137.35 56.75
L 142.5 56.75
Q 142.55 56.5 142.55 56.15 142.55 54.8 141.95 53.85 141.15 52.6 139.6 52.6 138.05 52.6 137.1 53.75 136.2 54.9 136.2 56.7 136.2 58.5 137.15 59.55 138.1 60.6 139.75 60.6 141.15 60.6 142.1 60.1
M 137.9 54.3
Q 138.5 53.5 139.45 53.5 140.5 53.5 141 54.3 141.4 54.95 141.4 55.85
L 137.35 55.85
Q 137.4 54.95 137.9 54.3
M 147.75 53.75
L 147.75 52.65
Q 147.6 52.6 147.4 52.6 146.75 52.6 146.15 53.05 145.6 53.5 145.35 54.3
L 145.3 54.3 145.25 52.75 144.25 52.75
Q 144.3 53.95 144.3 55.1
L 144.3 60.45 145.45 60.45 145.45 56.3
Q 145.45 55.3 145.9 54.6 146.4 53.75 147.35 53.75 147.6 53.75 147.75 53.75
M 84.2 35.55
Q 84.2 33.05 83.2 31.2 82.25 29.35 80.5 28.3 78.75 27.3 76.45 27.25 74.05 27.3 72.2 28.3 70.4 29.3 69.4 31.25 68.35 33.15 68.35 35.8 68.35 38.4 69.4 40.25 70.4 42.1 72.15 43.1 73.95 44.1 76.15 44.1 78.2 44.1 80 43.2 81.85 42.3 83 40.4 84.15 38.5 84.2 35.55
M 74.05 31.05
Q 74.95 30.25 76.35 30.25 77.65 30.25 78.5 31.1 79.35 31.9 79.75 33.1 80.1 34.35 80.1 35.65 80.1 37.25 79.65 38.5 79.15 39.75 78.3 40.45 77.45 41.15 76.3 41.15 75.1 41.15 74.2 40.45 73.35 39.7 72.9 38.5 72.4 37.3 72.4 35.7 72.4 34.35 72.8 33.1 73.2 31.85 74.05 31.05
M 97.9 29.4
L 97.85 29.4
Q 97.3 28.5 96.15 27.9 95.05 27.3 93.45 27.25 91.55 27.3 89.95 28.3 88.35 29.3 87.4 31.25 86.45 33.15 86.45 35.85 86.45 38.35 87.35 40.2 88.2 42.05 89.7 43.05 91.25 44.1 93.1 44.1 94.85 44.1 96.15 43.3 97.5 42.55 98.25 41.2
L 98.3 41.2 98.45 43.75 102 43.75
Q 101.95 42.9 101.9 41.7 101.85 40.5 101.85 39.2
L 101.85 20.25 97.9 20.25 97.9 29.4
M 96.65 31.25
Q 97.5 32.05 97.8 33.3 97.85 33.55 97.9 33.8 97.9 34.1 97.9 34.35
L 97.9 36.75
Q 97.9 37.1 97.85 37.4 97.85 37.7 97.75 37.95 97.45 39.3 96.55 40.05 95.6 40.8 94.35 40.8 93.1 40.8 92.25 40.15 91.35 39.5 90.9 38.35 90.45 37.2 90.45 35.75 90.45 34.2 90.9 33 91.35 31.85 92.25 31.15 93.15 30.45 94.4 30.4 95.75 30.45 96.65 31.25
M 73.75 52.6
Q 72.2 52.6 71.25 53.75 70.35 54.9 70.35 56.7 70.35 58.5 71.3 59.55 72.25 60.6 73.9 60.6 75.3 60.6 76.25 60.1
L 76.05 59.25
Q 75.2 59.65 74.05 59.65 72.95 59.65 72.25 58.95 71.5 58.2 71.5 56.75
L 76.65 56.75
Q 76.7 56.5 76.7 56.15 76.7 54.8 76.1 53.85 75.3 52.6 73.75 52.6
M 72.05 54.3
Q 72.65 53.5 73.6 53.5 74.65 53.5 75.15 54.3 75.55 54.95 75.55 55.85
L 71.5 55.85
Q 71.55 54.95 72.05 54.3
M 126.85 53.7
L 126.85 52.75 124.9 52.75 124.9 50.95 123.75 51.35 123.75 52.75 122.55 52.75 122.55 53.7 123.75 53.7 123.75 58.1
Q 123.75 59.45 124.25 60 124.75 60.6 125.65 60.6 126.3 60.6 126.75 60.45
L 126.7 59.5
Q 126.4 59.6 125.9 59.6 124.9 59.6 124.9 58.1
L 124.9 53.7 126.85 53.7
M 86 52.6
Q 84.45 52.6 83.5 53.75 82.6 54.9 82.6 56.7 82.6 58.5 83.55 59.55 84.5 60.6 86.15 60.6 87.55 60.6 88.5 60.1
L 88.3 59.25
Q 87.45 59.65 86.3 59.65 85.2 59.65 84.5 58.95 83.75 58.2 83.75 56.75
L 88.9 56.75
Q 88.95 56.5 88.95 56.15 88.95 54.8 88.35 53.85 87.55 52.6 86 52.6
M 84.3 54.3
Q 84.9 53.5 85.85 53.5 86.9 53.5 87.4 54.3 87.8 54.95 87.8 55.85
L 83.75 55.85
Q 83.8 54.95 84.3 54.3
M 81.45 53.75
Q 81.7 53.75 81.85 53.75
L 81.85 52.65
Q 81.7 52.6 81.5 52.6 80.85 52.6 80.25 53.05 79.7 53.5 79.45 54.3
L 79.4 54.3 79.35 52.75 78.35 52.75
Q 78.4 53.95 78.4 55.1
L 78.4 60.45 79.55 60.45 79.55 56.3
Q 79.55 55.3 80 54.6 80.5 53.75 81.45 53.75
M 97.8 53.7
L 97.8 52.75 95.85 52.75 95.85 50.95 94.7 51.35 94.7 52.75 93.5 52.75 93.5 53.7 94.7 53.7 94.7 58.1
Q 94.7 59.45 95.2 60 95.7 60.6 96.6 60.6 97.25 60.6 97.7 60.45
L 97.65 59.5
Q 97.35 59.6 96.85 59.6 95.85 59.6 95.85 58.1
L 95.85 53.7 97.8 53.7
M 104.9 53.75
Q 103.9 52.6 102.3 52.6 100.65 52.6 99.7 53.8 98.75 54.95 98.75 56.65 98.75 58.35 99.65 59.45 100.6 60.65 102.2 60.65 103.85 60.65 104.85 59.4 105.8 58.3 105.8 56.55 105.8 54.85 104.9 53.75
M 102.25 53.55
Q 103.4 53.55 104 54.5 104.55 55.4 104.55 56.6 104.55 57.8 104 58.65 103.35 59.7 102.25 59.7 101.15 59.7 100.5 58.7 99.95 57.8 99.95 56.65 99.95 55.4 100.5 54.55 101.1 53.55 102.25 53.55
M 113.6 54.85
Q 113.6 53.7 113.7 52.75
L 112.65 52.75 112.6 53.95
Q 111.9 52.6 110.25 52.6 108.9 52.6 108 53.65 106.95 54.8 106.95 56.65 106.95 58.3 107.85 59.35 108.7 60.45 110.05 60.45 111.7 60.45 112.4 59.1
L 112.45 59.1 112.45 60
Q 112.45 62.8 110.05 62.8 108.85 62.8 107.9 62.2
L 107.6 63.15
Q 108.45 63.75 110 63.75 111.65 63.75 112.6 62.85 113.6 61.85 113.6 59.35
L 113.6 54.85
M 112.35 58
Q 112.1 58.7 111.6 59.1 111.05 59.5 110.4 59.5 109.3 59.5 108.7 58.65 108.15 57.85 108.15 56.6 108.15 55.2 108.75 54.4 109.4 53.55 110.4 53.55 111.3 53.55 111.85 54.2 112.45 54.85 112.45 55.75
L 112.45 57.25
Q 112.45 57.65 112.35 58
M 121.15 53.85
Q 120.35 52.6 118.8 52.6 117.25 52.6 116.3 53.75 115.4 54.9 115.4 56.7 115.4 58.5 116.35 59.55 117.3 60.6 118.95 60.6 120.35 60.6 121.3 60.1
L 121.1 59.25
Q 120.25 59.65 119.1 59.65 118 59.65 117.3 58.95 116.55 58.2 116.55 56.75
L 121.7 56.75
Q 121.75 56.5 121.75 56.15 121.75 54.8 121.15 53.85
M 118.65 53.5
Q 119.7 53.5 120.2 54.3 120.6 54.95 120.6 55.85
L 116.55 55.85
Q 116.6 54.95 117.1 54.3 117.7 53.5 118.65 53.5
M 129.55 49.15
L 128.4 49.15 128.4 60.45 129.55 60.45 129.55 55.8
Q 129.55 55.35 129.65 55.1 129.85 54.45 130.4 54.05 130.9 53.6 131.55 53.6 133.3 53.6 133.3 55.95
L 133.3 60.45 134.5 60.45 134.5 55.8
Q 134.5 54.05 133.55 53.2 132.9 52.6 131.95 52.6 131.25 52.6 130.6 53 129.95 53.35 129.6 54
L 129.55 54 129.55 49.15
M 63.7 49.15
L 62.55 49.15 62.55 60.45 63.7 60.45 63.7 55.8
Q 63.7 55.35 63.8 55.1 64 54.45 64.55 54.05 65.05 53.6 65.7 53.6 67.45 53.6 67.45 55.95
L 67.45 60.45 68.65 60.45 68.65 55.8
Q 68.65 54.05 67.7 53.2 67.05 52.6 66.1 52.6 65.4 52.6 64.75 53 64.1 53.35 63.75 54
L 63.7 54 63.7 49.15
M 54.1 56.8
Q 53.6 58.3 53.4 59.2
L 53.35 59.2
Q 53.15 58.15 52.8 56.8
L 51.75 52.75 50.55 52.75 52.75 60.45 53.85 60.45 55.1 56.65
Q 55.55 55.25 55.8 54.1 56.05 55.15 56.5 56.6
L 57.65 60.45 58.75 60.45 61.1 52.75 59.95 52.75 58.85 56.75
Q 58.4 58.2 58.25 59.2
L 58.2 59.2
Q 57.95 58.05 57.55 56.75
L 56.35 52.75 55.35 52.75 54.1 56.8
M 50.05 52.75
L 48.8 52.75 47.25 57.4
Q 46.9 58.5 46.75 59
L 46.7 59
Q 46.5 58.1 46.25 57.45
L 44.55 52.75 43.3 52.75 46 59.85
Q 46.1 60.1 46.1 60.2 46.1 60.35 46 60.55 45.55 61.55 44.85 62.2 44.3 62.7 43.65 62.95
L 43.95 63.95
Q 44.75 63.75 45.5 63.05 46.15 62.45 46.75 61.3 47.25 60.3 48 58.25
L 50.05 52.75
M 40.1 54.3
L 40.05 54.3 40 52.75 39 52.75
Q 39.05 53.95 39.05 55.1
L 39.05 60.45 40.2 60.45 40.2 56.3
Q 40.2 55.3 40.65 54.6 41.15 53.75 42.1 53.75 42.35 53.75 42.5 53.75
L 42.5 52.65
Q 42.35 52.6 42.15 52.6 41.5 52.6 40.9 53.05 40.35 53.5 40.1 54.3
M 34.4 52.6
Q 32.85 52.6 31.9 53.75 31 54.9 31 56.7 31 58.5 31.95 59.55 32.9 60.6 34.55 60.6 35.95 60.6 36.9 60.1
L 36.7 59.25
Q 35.85 59.65 34.7 59.65 33.6 59.65 32.9 58.95 32.15 58.2 32.15 56.75
L 37.3 56.75
Q 37.35 56.5 37.35 56.15 37.35 54.8 36.75 53.85 35.95 52.6 34.4 52.6
M 32.7 54.3
Q 33.3 53.5 34.25 53.5 35.3 53.5 35.8 54.3 36.2 54.95 36.2 55.85
L 32.15 55.85
Q 32.2 54.95 32.7 54.3
M 24.85 52.75
L 23.6 52.75 26.4 60.45 27.5 60.45 30.4 52.75 29.15 52.75 27.65 57.2
Q 27.15 58.6 27 59.2 26.8 58.45 26.35 57.2
L 24.85 52.75
M 23 60.45
L 23 59.45 18.55 59.45 18.55 55.35 22.5 55.35 22.5 54.35 18.55 54.35 18.55 50.75 22.75 50.75 22.75 49.75 17.35 49.75 17.35 60.45 23 60.45
M 392.9 219.45
Q 392.7 219.65 392.5 219.85
L 393 219.85
Q 392.95 219.65 392.9 219.45
M 389.5 93.85
L 389 93.85
Q 373.3 109.35 361.1 128.3
L 326.75 128.3 306.1 93.85
Q 290.1 139.5 286.4 177.4 285.1 191 302.3 197
L 305.55 197.85
Q 314.15 234.65 328.25 225.15
L 324.2 328.8 335.2 328.8 337.2 274.6 345.8 274.85 345.8 329.8 358.4 329.8 356 265.8
Q 363 269.55 368.45 265.2 367.85 235.75 356.6 208.25
L 356.6 203.4 356.7 203.4
Q 414.75 206.05 408.15 173.3 401.4 139.65 389.5 93.85
M 328.5 201.65
L 328.5 204.5
Q 323.8 221.75 315.9 200.2 317.25 200.4 318.9 200.6
L 328.5 201.65 Z"/>

<path fill="#000000" stroke="none" d="
M 208.6 127.35
L 172.7 129.05
Q 164.6 110.65 150.5 93.85 134.2 128.15 124.05 173 122.6 182.7 125.35 186.85 131.3 200 174.2 201.8
L 174.2 205.85
Q 160.6 236.55 144.8 217.45 142.45 214.55 140.05 210.7 130 207.15 129.75 217.35 132 221.4 134.35 224.7 151.9 249.45 173.7 230.2
L 177 278.75
Q 172.3 319.7 168.4 328.8
L 182 328.8
Q 188.45 301.55 188.15 277.6
L 201.5 275.4
Q 201.55 275.4 205.5 288.45 209.45 301.5 212 328.8
L 224 327.8
Q 221.75 297.45 212.8 273.8
L 207.6 229.3
Q 234.9 243.1 252.6 222.1 259.05 208.5 248.85 210.85 223.3 233.8 205.85 206.5
L 205.85 202
Q 236.5 201.25 246.35 194.8 256.2 188.3 253.8 175.9 245.55 133.2 231.6 93.85 220 105.9 208.6 127.35 Z"/>
</g>

<g id="Layer2_1_FILL">
<path fill="#FFFFFF" stroke="none" d="
M 28.3 30.3
Q 29.15 29.8 29.9 28.8 31.05 27.15 31.05 25.2 31.05 24.95 31.05 24.7 30.2 24.75 29.3 25.3 28.35 25.85 27.75 26.65 27.15 27.45 26.8 28.4 26.5 29.35 26.5 30.25 26.5 30.5 26.5 30.75 27.45 30.8 28.3 30.3
M 18.05 43.1
Q 18.7 45.3 19.7 47 20.65 48.55 21.3 49.2 22.25 50.3 23.25 50.25 23.9 50.2 24.95 49.7 26 49.2 26.95 49.2 27.85 49.2 28.85 49.7 29.9 50.2 30.65 50.2 31.7 50.15 32.6 49.2 33.15 48.6 34.1 47.05 34.75 45.95 35.25 44.6 35.45 44.05 35.65 43.4 34.8 43 34.15 42.25 32.65 40.65 32.65 38.2 32.6 35.05 35.05 33.3 33.7 31 30.95 30.75 29.95 30.65 28.45 31.3 26.9 31.95 26.65 31.95 26.3 31.95 25 31.4 23.7 30.8 22.95 30.8 21.5 30.85 20.25 31.7 19.05 32.55 18.3 34.05 17.35 35.9 17.35 38.45 17.35 40.7 18.05 43.1 Z"/>
</g>

<g id="Layer1_0_FILL">
<path fill="#FFFFFF" stroke="none" d="
M 126.9 201.85
L 126.45 202.05 127.15 204.1 126.7 204.3 130.65 214.7
Q 131 215.55 132.5 219.4
L 140.8 215.6 134.8 200.6 128.35 203.55 127.6 201.45 126.9 201.85
M 120 169.35
L 118.2 172.4 119.9 173.4 121.7 170.35 120 169.35 Z"/>
</g>

<g id="Layer0_0_FILL">
<path fill="#CCCCCC" stroke="none" d="
M 136.15 205.9
L 134.45 201.85 127.85 204.85 129.35 209 136.15 205.9 Z"/>
</g>

<path id="Layer3_0_1_STROKES" stroke="#FFFFFF" stroke-width="1" stroke-linejoin="round" stroke-linecap="round" fill="none" d="
M 119.7 170.25
Q 114.45 157.35 124.45 146.2 125.3 140.65 126.7 136.05 129.8 125.6 136.3 119.55 138.7 118.9 141.75 117.8 143.85 117 146 116.3 193.95 99.9 228.35 110.85 230.5 111.55 232.65 112.35 235.8 113.45 238.2 114.1 244.85 120.15 248 130.6 249.45 135.2 250.3 140.75 264.6 154.25 252.8 174.1
L 253.1 174.3
M 249.75 172.2
L 241.4 133.25
Q 244.6 135.4 247.1 137.65 246.35 133.85 245.2 130.6 242.95 124 239.5 119.85 236.1 118.45 232.65 117.25 230.5 116.45 228.35 115.75 193.5 105.05 146 121.2 143.85 121.9 141.75 122.7 138.4 123.9 135.05 125.3 131.65 129.45 129.45 136.05 128.35 139.3 127.6 143.1 130.05 140.85 133.2 138.7
L 125 177.65 124.75 178.85
Q 124.2 178.1 123.65 177.35 121.6 174.45 120.3 171.65
M 250.3 140.75
Q 248.9 139.2 247.1 137.65
M 252.8 174.1
Q 250.45 172.75 250 173.4
L 249.75 172.2
M 124.45 146.2
Q 125.85 144.65 127.6 143.1
M 120.3 171.65
Q 119.95 170.9 119.7 170.25"/>

<path id="Layer3_0_2_STROKES" stroke="#FFFFFF" stroke-width="1" stroke-linejoin="round" stroke-linecap="butt" fill="none" d="
M 120.3 171.65
L 119.65 172.75 119.2 172.45 118.8 172.15 119.7 170.25"/>

<path id="Layer3_0_3_STROKES" stroke="#FFFFFF" stroke-width="0.5" stroke-linejoin="round" stroke-linecap="round" fill="none" d="
M 119.2 172.45
Q 114.45 183.45 115 195.8 115.6 212 119 225.8 120.7 233.05 121.95 228.7 123.15 224.3 123.25 221.8 123.3 219.25 123.3 217.55 123.25 215.85 122.95 213.9 122.65 211.95 122.55 210.05 122.4 208.25 122.3 206.4 122.2 204.35 122.5 202.6 122.8 200.85 124.45 200.6 126.6 200.25 127 201.8"/>

<path id="Layer2_0_1_STROKES" stroke="#FFFFFF" stroke-width="0.5" stroke-linejoin="round" stroke-linecap="round" fill="none" d="
M 358.4 329.8
L 345.8 329.8
M 335.2 328.8
L 324.2 328.8"/>

<path id="Layer1_0_1_STROKES" stroke="#FFFFFF" stroke-width="2" stroke-linejoin="round" stroke-linecap="round" fill="none" d="
M 120 169.35
L 121.7 170.35 119.9 173.4 118.2 172.4 120 169.35 Z"/>

<path id="Layer0_0_1_STROKES" stroke="#CCCCCC" stroke-width="0.5" stroke-linejoin="round" stroke-linecap="round" fill="none" d="
M 137.3 210.35
Q 138.35 211.4 138.35 212.85 138.35 214.3 137.3 215.3 136.3 216.35 134.85 216.35 133.4 216.35 132.4 215.3 131.35 214.3 131.35 212.85 131.35 211.4 132.4 210.35 133.4 209.35 134.85 209.35 136.3 209.35 137.3 210.35 Z
M 135.55 212.2
Q 135.85 212.45 135.85 212.85 135.85 213.2 135.55 213.5 135.3 213.8 134.95 213.8 134.55 213.8 134.3 213.5 134 213.2 134 212.85 134 212.45 134.3 212.2 134.55 211.9 134.95 211.9 135.3 211.9 135.55 212.2 Z"/>
</defs>

<g transform="matrix( 1, 0, 0, 1, 0,0) ">
<use xlink:href="#Layer4_0_FILL"/>
</g>

<g transform="matrix( 1, 0, 0, 1, 0,0) ">
<use xlink:href="#Layer3_0_FILL"/>

<use xlink:href="#Layer3_0_1_STROKES"/>

<use xlink:href="#Layer3_0_2_STROKES"/>

<use xlink:href="#Layer3_0_3_STROKES"/>
</g>

<g transform="matrix( 1, 0, 0, 1, 0,0) ">
<use xlink:href="#Layer2_0_FILL"/>

<use xlink:href="#Layer2_0_1_STROKES"/>
</g>

<g transform="matrix( 1.036041259765625, 0, 0, 1, -0.5,-7.2) ">
<use xlink:href="#Layer2_1_FILL"/>
</g>

<g transform="matrix( 1, 0, 0, 1, 0,0) ">
<use xlink:href="#Layer1_0_FILL"/>

<use xlink:href="#Layer1_0_1_STROKES"/>
</g>

<g transform="matrix( 1, 0, 0, 1, 0,0) ">
<use xlink:href="#Layer0_0_FILL"/>

<use xlink:href="#Layer0_0_1_STROKES"/>
</g>
</svg>
