<svg xmlns:xlink="http://www.w3.org/1999/xlink" xmlns="http://www.w3.org/2000/svg" version="1.1"
     preserveAspectRatio="none" x="0px" y="0px" width="150px" height="240px" viewBox="0 0 150 240">
    <defs>
        <filter id="Filter_1" x="-24.8735386953579%" y="-47.89786447487796%" width="149.7470773907158%"
                height="195.79572894975593%" color-interpolation-filters="sRGB">
            <feGaussianBlur in="SourceGraphic" stdDeviation="3.3333333333333335,3.3333333333333335" result="result1"/>
        </filter>

        <g id="Layer6_0_FILL">
            <path fill="#FFFFFF" stroke="none" d="
M 150 0
L 0 0 0 240 150 240 150 0 Z"/>
        </g>

        <g id="shadow_0_Layer0_0_FILL">
            <path fill="#000000" fill-opacity="0.8" stroke="none" d="
M 34.4 -5.45
Q 27.55 -4 21.8 -0.9 10.95 4.9 10.95 13.2 10.95 13.6 11 13.95 11.4 21.75 21.8 27.35 32.7 33.2 48.05 33.2 63.4 33.2 74.3 27.35 85.15 21.55 85.15 13.2 85.15 4.9 74.3 -0.9 63.4 -6.75 48.05 -6.75 40.75 -6.75 34.4 -5.45 Z"/>
        </g>

        <g id="Layer4_0_FILL">
            <path fill="#66CCFF" stroke="none" d="
M 39.25 90.5
L 33.55 87.35 35.3 92.55 30.05 96.05 35.5 99.95 33.75 107.2 41.35 101.45 49 107 48 99.2 53.65 96.05 48.2 91.8 49.75 86.25 43.9 90.5 41.55 81.6 39.25 90.5 Z"/>
        </g>

        <g id="Layer2_0_FILL">
            <path fill="#333333" stroke="none" d="
M 104.4 214.4
Q 110.8 214.25 107.6 203.2
L 104.55 196.8 104.6 198
Q 101.8 200.75 97.4 198.6
L 97.35 197.95
Q 95.8 199.3 96.4 203.6 97.8 211.85 104.4 214.4
M 98.4 201.35
Q 102.75 202.45 104.8 200.4 108.15 206.25 104.8 208 101.05 208.95 98.1 201.25 98.25 201.3 98.4 201.35
M 61 197.4
L 61.15 195.9
Q 55.6 202.25 55.4 208.35 55.2 214.4 58.85 214.45 62.55 214.4 66.4 208.65 70.2 202.9 68.6 197.2
L 68.4 198.8
Q 63.75 200.45 61 197.4
M 60.2 199.6
Q 62.7 201.8 64.55 201.75 66.35 201.65 66.7 201.45 67 201.2 66.95 201.3
L 66.9 201.35
Q 64.2 209.5 59.6 208 55.95 205.95 60.2 199.6 Z"/>

            <path fill="#FFFFFF" stroke="none" d="
M 104.8 200.4
Q 102.75 202.45 98.4 201.35 98.25 201.3 98.1 201.25 101.05 208.95 104.8 208 108.15 206.25 104.8 200.4
M 97.2 195.15
L 97.35 197.95 97.4 198.6
Q 101.8 200.75 104.6 198
L 104.55 196.8 104.35 193.6
Q 100.8 194.7 97.2 195.15
M 89.35 156.85
Q 85.2 153.1 82.2 149.2
L 74.7 156.6
Q 83.1 161.7 89.35 156.85
M 106.9 156
Q 105.6 152.2 104.15 148.6 102.45 152.4 99.55 157.2 103.35 158.15 106.9 156
M 105.4 138.2
L 109.2 144.2 115.2 142.8 114.4 139.8 115.4 140.6 116.4 141 115.4 135.25 105.4 138.2
M 64.55 201.75
Q 62.7 201.8 60.2 199.6 55.95 205.95 59.6 208 64.2 209.5 66.9 201.35
L 66.95 201.3
Q 67 201.2 66.7 201.45 66.35 201.65 64.55 201.75
M 68.6 197.2
L 68.8 195.05
Q 65 194.25 61.4 193.1
L 61.15 195.9 61 197.4
Q 63.75 200.45 68.4 198.8
L 68.6 197.2
M 53.65 182.65
Q 53 186 52.4 189.4 56.75 191.6 61.4 193.1 65 194.25 68.8 195.05 81.6 197.55 97.2 195.15 100.8 194.7 104.35 193.6 110 192.5 114.8 191 114.35 187.5 113.8 184.05 113.75 183.85 113.75 183.7 102.85 171.95 93.2 185.2 81.35 172.15 74.8 185.2 68.2 174.35 53.65 182.65
M 67.85 158.4
Q 65 154.1 63.85 148.95 61.75 153 60.35 157.25 64.25 160.1 67.85 158.4
M 54.15 136.6
L 52.4 142.6 54 141.8 53.8 145.4 60.65 145.1 62.75 137.7 54.15 136.6
M 59.65 65
L 54.2 71.8 58.1 75
Q 58.4 69.85 59.7 65.05
L 59.65 65
M 59 59.2
L 59.05 58.7 55.4 61.8 59.65 65 59.7 65.05 60.6 57.6 59 59.2
M 52 32.4
L 52.7 35.4 53.2 35 52.7 35.4 52.8 35.8 52.7 35.4 47.6 39.2 53.8 40.2 49.4 42.2 54.4 43.6 50 48.4 51.4 49.6 50.6 52
Q 54.2 50.35 59.95 50.2
L 59.95 50.15 60.1 48.75
Q 63.05 37.35 65.85 34 68.6 30.65 68.7 30.6 70.75 29.2 73.25 28.3 61.5 31.2 52 32.4
M 89.8 81.6
Q 98.4 80.95 106.85 77.5 106.7 63.85 103.4 49
L 98.8 54.4
Q 92.65 47.8 90.4 38.8 83.95 47.4 80.55 55.25
L 76.8 44.8 70.4 55.2 67.4 52 65.8 65.6 65.6 70.2
Q 65 73.75 66 78 72.35 80.35 80.05 81.85 84.25 82 89.8 81.6
M 102 56.4
L 101.4 68.2 102 56.4 100.4 70.4 100.8 56.4 99.6 70 99.8 56.2 99 69.4 99.8 56.2 99.6 70 100.8 56.4 100.4 70.4 102 56.4
M 84 76.8
L 88.4 76.2 84 76.8
M 71.2 56
L 71.2 56.4 71.2 70 72.2 57.8 72.2 69.4 72.2 57.8 71.2 70 71.2 56.4 70.6 69.2 70.6 69.6 70.6 69.2 70.4 57 69.8 70 69.8 56.8 69.8 70 70.4 57 70.6 69.2 71.2 56.4 71.2 56
M 107 98
L 98.8 92.4 88.8 99.4 88.55 98.65 86 99.6
Q 85.9 100 85.75 100.2 85.5 100.4 84.85 100.55
L 88.4 123 84.2 132.7
Q 84.5 132.7 84.8 132.75 90.4 128.55 96 128.6 98.3 135.6 96.6 142.6 95.1 143.3 90 141.8 87.35 140.55 85.15 136.9 85.05 136.95 84.9 137.05 88.7 142.7 89.4 148.4
L 86 149.6
Q 85.8 143.5 82.4 137.45 82.3 137.45 82.2 137.45 81.75 145.8 76 150.2
L 74.6 147.8
Q 78.95 142.8 80 137.25 75.35 141.9 69.2 143.6 66.35 136.4 68.8 129.6 75.3 129.3 80.2 133.6 80.3 133.5 80.4 133.4 80.85 133.05 81.35 132.85
L 77 123.2 83.8 100.65
Q 83.3 100.65 83 100.45 82.45 100.15 82.3 99.75
L 79.8 98.9 79.2 100.4 69.95 92.7 61.4 100.4 56.45 115.8 50.8 133.2 51.2 135 49.6 136 54.15 136.6 62.75 137.7 65 138 68.4 114.4 65 138 63.6 147.8
Q 63.7 148.25 63.8 148.65 63.8 148.8 63.85 148.95 65 154.1 67.85 158.4 68.65 159.55 70.15 161.05
L 74.7 156.6 82.2 149.2
Q 85.2 153.1 89.35 156.85 92.2 159.6 96.2 162 98.35 159.1 99.55 157.2 102.45 152.4 104.15 148.6 104.3 148.3 104.4 148
L 103.6 138.6 101.4 113.6 103.6 138.6 105.4 138.2 115.4 135.25 118.85 134.25 117.4 133.2 118.2 132.4 112.35 114.45 107 98
M 86 94.2
Q 82.35 93.8 81.75 93.1
L 80.55 96.6 83.1 97.5
Q 83.5 97.2 84.1 97.2 84.9 97.2 85.45 97.75
L 87.3 96.5 86 94.2
M 90 84.2
Q 89.95 82.95 89.8 81.6 84.25 82 80.05 81.85 79.8 82.85 79.6 83.8 79.25 85.75 79.3 87.4 79.45 90.75 81.45 92.8 81.55 92.95 81.75 93.1 82.35 93.8 86 94.2
L 85.95 94.1
Q 86.55 93.45 87.1 92.8 89 90.3 89.65 87.4 90 85.85 90 84.2
M 113.9 57.2
L 114.65 65.45 118.4 60.2 113.9 57.2
M 119 70.2
L 114.65 65.45 115.45 74.25 119 70.2
M 103.45 29
Q 110.05 32.4 112.95 48.25
L 121.8 51.4 120.4 48.8 122 48.8 118.2 45.4 123.6 42 118.15 38.3 122.4 36 117.8 35.2 122.6 33.2 108.2 29.4 103.45 29 Z"/>

            <path fill="#66CCFF" stroke="none" d="
M 83.3 137.4
Q 82.85 137.45 82.4 137.45 85.8 143.5 86 149.6
L 89.4 148.4
Q 88.7 142.7 84.9 137.05 84.35 137.3 83.3 137.4
M 84.9 132.8
Q 85.8 132.95 85.8 134.6 85.8 136.25 85.3 136.75 85.25 136.85 85.15 136.9 87.35 140.55 90 141.8 95.1 143.3 96.6 142.6 98.3 135.6 96 128.6 90.4 128.55 84.8 132.75 84.85 132.75 84.9 132.8
M 84.5 100.6
Q 84.1 100.65 83.8 100.65
L 77 123.2 81.35 132.85
Q 81.95 132.6 82.7 132.6 83.55 132.6 84.2 132.7
L 88.4 123 84.85 100.55
Q 84.7 100.55 84.5 100.6
M 70.15 161.05
Q 68.65 159.55 67.85 158.4 64.25 160.1 60.35 157.25 56.3 169.5 53.65 182.65 68.2 174.35 74.8 185.2 81.35 172.15 93.2 185.2 102.85 171.95 113.75 183.7 111.3 169 106.9 156 103.35 158.15 99.55 157.2 98.35 159.1 96.2 162 92.2 159.6 89.35 156.85 83.1 161.7 74.7 156.6
L 70.15 161.05
M 80.4 137.1
Q 80.3 137.05 80.2 137 80.1 137.1 80 137.25 78.95 142.8 74.6 147.8
L 76 150.2
Q 81.75 145.8 82.2 137.45 81.25 137.35 80.4 137.1
M 79.2 135.6
Q 79.4 134.6 80.2 133.6 75.3 129.3 68.8 129.6 66.35 136.4 69.2 143.6 75.35 141.9 80 137.25
L 80.15 137
Q 79 136.6 79.2 135.6
M 80.4 133.4
Q 80.3 133.5 80.2 133.6 79.4 134.6 79.2 135.6 79 136.6 80.15 137
L 80.2 137
Q 80.3 137.05 80.4 137.1 81.25 137.35 82.2 137.45 82.3 137.45 82.4 137.45 82.85 137.45 83.3 137.4 84.35 137.3 84.9 137.05 85.05 136.95 85.15 136.9 85.25 136.85 85.3 136.75 85.8 136.25 85.8 134.6 85.8 132.95 84.9 132.8 84.85 132.75 84.8 132.75 84.5 132.7 84.2 132.7 83.55 132.6 82.7 132.6 81.95 132.6 81.35 132.85 80.85 133.05 80.4 133.4
M 88.55 98.65
L 87.3 96.5 85.45 97.75
Q 86 98.3 86 99.1 86 99.4 86 99.6
L 88.55 98.65
M 83.1 97.5
Q 82.9 97.6 82.75 97.75 82.2 98.3 82.2 99.1 82.2 99.45 82.3 99.75 82.45 100.15 83 100.45 83.3 100.65 83.8 100.65 84.1 100.65 84.5 100.6 84.7 100.55 84.85 100.55
L 84.8 100.2 84.85 100.55
Q 85.5 100.4 85.75 100.2 85.9 100 86 99.6 86 99.4 86 99.1 86 98.3 85.45 97.75 84.9 97.2 84.1 97.2 83.5 97.2 83.1 97.5
M 82.75 97.75
Q 82.9 97.6 83.1 97.5
L 80.55 96.6 79.8 98.9 82.3 99.75
Q 82.2 99.45 82.2 99.1 82.2 98.3 82.75 97.75 Z"/>

            <path fill="#6666CC" stroke="none" d="
M 58.3 87.4
Q 57.85 90 57.35 92.8 55 104.7 50.8 119.4 53.1 117.3 55.2 113.8
L 56.45 115.8 61.4 100.4 69.95 92.7 68.4 91.4 79.6 83.8
Q 79.8 82.85 80.05 81.85 72.35 80.35 66 78 66.1 78.4 66.2 78.8
L 67.6 85.8 66.4 85.2 67 86.8 64.8 84.4 64.6 88 61.4 84 59.2 88.4 58.55 85.95
Q 58.45 86.65 58.3 87.4
M 89.8 81.6
Q 89.95 82.95 90 84.2
L 100.2 91.4 98.8 92.4 107 98 112.35 114.45 113.6 107.8 116.05 115.85 117.6 107.8
Q 117.75 112.95 119.4 115.8
L 119.6 111
Q 118.55 101.75 116.5 92.8 115.85 90.1 115.1 87.4 114.55 85.5 113.8 83.4
L 112.2 85.6 110 82.6 107.6 83.8 106.85 77.5
Q 98.4 80.95 89.8 81.6
M 103.45 29
Q 102.3 28.4 101 28.2 83.65 24.4 73.25 28.3 70.75 29.2 68.7 30.6 68.6 30.65 65.85 34 63.05 37.35 60.1 48.75
L 59.95 50.15 59.95 50.2 59.05 58.7 59.4 58.4 59.05 58.7 59 59.2 60.6 57.6 59.7 65.05
Q 58.4 69.85 58.1 75 57.8 80.3 58.55 85.95
L 59.2 88.4 61.4 84 64.6 88 64.8 84.4 67 86.8 66.4 85.2 67.6 85.8 66.2 78.8
Q 66.1 78.4 66 78 65 73.75 65.6 70.2
L 65.8 65.6 67.4 52 70.4 55.2 76.8 44.8 80.55 55.25
Q 83.95 47.4 90.4 38.8 92.65 47.8 98.8 54.4
L 103.4 49
Q 106.7 63.85 106.85 77.5
L 107.6 83.8 110 82.6 112.2 85.6 113.8 83.4 114.2 82.8 116.4 84.4 115.45 74.25 114.65 65.45 113.9 57.2 113.2 50
Q 113.1 49.1 112.95 48.25 110.05 32.4 103.45 29 Z"/>

            <path fill="#FFFEF0" stroke="none" d="
M 81.75 93.1
Q 81.55 92.95 81.45 92.8 79.45 90.75 79.3 87.4 79.25 85.75 79.6 83.8
L 68.4 91.4 69.95 92.7 79.2 100.4 79.8 98.9 80.55 96.6 81.75 93.1
M 89.65 87.4
Q 89 90.3 87.1 92.8 86.55 93.45 85.95 94.1
L 86 94.2 87.3 96.5 88.55 98.65 88.8 99.4 98.8 92.4 100.2 91.4 90 84.2
Q 90 85.85 89.65 87.4 Z"/>
        </g>

        <g id="Layer0_0_FILL">
            <path fill="#552100" stroke="none" d="
M 22.7 4.6
Q 22.65 4.3 22.5 4.3
L 22.45 4.35
Q 22.4 4.4 22.4 4.45 22.4 4.5 22.4 4.55 22.4 4.65 22.4 4.7
L 22.4 5.95
Q 22.4 6.05 22.4 6.45
L 22.4 6.9
Q 22.4 7.05 22.5 7.05 22.7 7.05 22.7 6.85
L 22.7 5
Q 22.75 5 22.9 4.8 23.05 4.6 23.25 4.6 23.45 4.6 23.55 4.8 23.6 5 23.6 5.2
L 23.55 6.85
Q 23.55 7.05 23.7 7.05 23.85 7.05 23.85 6.8 23.85 5.65 23.9 4.95 24.1 4.6 24.35 4.6 24.7 4.6 24.7 5.1
L 24.7 5.85
Q 24.75 6.65 24.75 6.85 24.75 6.95 24.8 7 24.85 7.05 24.9 7.05 25 7.05 25 6.95
L 25 6.8
Q 25 6.65 25 6.55
L 25 5.8
Q 25 5.05 25 5 25 4.7 24.8 4.5 24.6 4.35 24.35 4.35 24.05 4.35 23.75 4.6 23.5 4.35 23.25 4.35 23 4.35 22.7 4.6
M 29.5 4.55
Q 29.5 4.3 29.35 4.3 29.2 4.3 29.2 4.55
L 29.2 4.65
Q 29.2 4.75 29.2 4.85
L 29.2 6.35
Q 29.2 6.45 29.2 6.65 29.2 6.8 29.2 6.85 29.2 7.1 29.35 7.1 29.5 7.1 29.5 6.85 29.5 6.55 29.5 5.95 29.5 5.25 29.5 5.2 29.65 5.05 29.9 4.9 30.15 4.75 30.35 4.75 30.5 4.75 30.5 4.6 30.5 4.45 30.35 4.45 30.05 4.45 29.5 4.85 29.5 4.75 29.5 4.65 29.5 4.6 29.5 4.55
M 26.75 4.35
Q 26.7 4.3 26.6 4.3
L 26.55 4.35
Q 26.5 4.4 26.45 4.4 25.85 4.6 25.75 5.25 25.7 5.55 25.7 5.7 25.7 6.25 25.95 6.65 26.2 7.15 26.7 7.15 27.15 7.15 27.45 6.65 27.7 6.25 27.7 5.75 27.7 4.9 27.25 4.55 27 4.35 26.8 4.35
L 26.75 4.35
M 26 5.8
Q 26 5 26.4 4.7 26.5 4.65 26.6 4.65 26.7 4.6 26.7 4.55 26.8 4.6 26.9 4.65 27.2 4.75 27.3 5.05 27.4 5.35 27.4 5.6 27.4 6.15 27.2 6.5 27.05 6.9 26.7 6.9 26.35 6.9 26.15 6.5 26 6.15 26 5.8
M 32.15 5.75
Q 32.2 5.75 32.25 5.75
L 32.4 5.75
Q 32.55 5.7 32.75 5.7 32.9 5.7 33.1 5.7 33.3 5.75 33.4 5.75 33.55 5.75 33.55 5.45 33.55 5.1 33.45 4.8 33.25 4.35 32.75 4.35 32.2 4.35 31.95 4.95 31.85 5.25 31.85 5.7 31.85 6.35 32.1 6.75 32.35 7.15 32.75 7.15 33.05 7.15 33.3 6.85 33.55 6.6 33.55 6.35 33.55 6.2 33.45 6.2 33.3 6.2 33.25 6.35 33.25 6.5 33.1 6.65 32.95 6.85 32.75 6.85 32.5 6.85 32.4 6.65 32.15 6.4 32.15 5.75
M 32.7 5.4
Q 32.3 5.4 32.15 5.45 32.15 5.1 32.35 4.85 32.5 4.6 32.75 4.6 33.2 4.6 33.25 5.45 32.8 5.4 32.7 5.4
M 38.8 4.35
Q 38.4 4.35 38.15 4.55 37.95 4.7 37.95 4.9 37.95 5.05 38.05 5.05 38.15 5.05 38.2 4.9 38.35 4.7 38.5 4.65 38.6 4.6 38.8 4.6 39.1 4.6 39.25 4.9 39.3 4.95 39.3 5.15 39.3 5.55 39.25 5.6 38.95 5.45 38.7 5.45 38.3 5.45 38.05 5.75 37.85 6 37.85 6.35 37.85 6.7 38.05 6.9 38.25 7.1 38.55 7.1 38.95 7.1 39.25 6.9 39.3 7.1 39.45 7.1 39.55 7.1 39.55 6.95
L 39.55 6.8
Q 39.5 6.65 39.5 6.45 39.5 6.4 39.55 5.75
L 39.55 5.05
Q 39.55 4.7 39.3 4.5 39.1 4.35 38.8 4.35
M 38.7 5.75
Q 38.85 5.75 39.15 5.85 39.2 5.9 39.25 5.9 39.25 6.3 39.25 6.6 39.2 6.55 39.05 6.65 38.8 6.8 38.6 6.8 38.1 6.8 38.1 6.35 38.1 6.05 38.3 5.9 38.45 5.75 38.7 5.75
M 41.85 3.7
Q 41.85 3.65 41.8 3.6 41.7 3.5 41.65 3.5 41.5 3.5 41.5 3.7
L 41.5 3.9
Q 41.55 4.1 41.55 4.35 41.2 4.4 41.1 4.4 41 4.45 41 4.6 41 4.7 41.1 4.7
L 41.25 4.7
Q 41.4 4.7 41.55 4.7 41.5 5.55 41.5 6.4 41.5 6.75 41.7 6.95 41.95 7.1 42.25 7.1 42.4 7.1 42.4 7 42.4 6.85 42.2 6.8 41.95 6.7 41.85 6.6 41.75 6.5 41.75 6.2
L 41.8 5.7
Q 41.85 5.1 41.85 4.7 41.95 4.65 42.05 4.7
L 42.25 4.7
Q 42.35 4.7 42.35 4.55 42.35 4.45 42.2 4.4 42.05 4.35 41.85 4.35 41.85 4.3 41.85 3.7
M 146.35 3.15
Q 146.35 3.2 146.35 3.4 146.35 3.55 146.35 3.6
L 146.35 5.05
Q 146.35 5.35 146.35 5.9 146.3 6.5 146.3 6.8 146.3 7.05 146.5 7.05 146.55 7.05 146.6 7 146.65 6.9 146.65 6.8
L 146.65 4.75
Q 146.65 4.7 146.65 4.15
L 146.65 3.55
Q 146.65 3.5 146.7 3.35 146.7 3.2 146.7 3.15 146.7 2.9 146.5 2.9 146.35 2.9 146.35 3.15
M 143.55 4.6
Q 143.3 4.35 143.05 4.35 142.8 4.35 142.5 4.6 142.45 4.3 142.3 4.3
L 142.25 4.35
Q 142.2 4.4 142.2 4.45 142.2 4.5 142.2 4.55 142.2 4.65 142.2 4.7
L 142.2 5.95
Q 142.2 6.05 142.2 6.45
L 142.2 6.9
Q 142.2 7.05 142.3 7.05 142.5 7.05 142.5 6.85
L 142.5 5
Q 142.55 5 142.7 4.8 142.85 4.6 143.05 4.6 143.25 4.6 143.35 4.8 143.4 5 143.4 5.2
L 143.35 6.85
Q 143.35 7.05 143.5 7.05 143.65 7.05 143.65 6.8 143.65 5.65 143.7 4.95 143.9 4.6 144.15 4.6 144.5 4.6 144.5 5.1
L 144.5 5.85
Q 144.55 6.65 144.55 6.85 144.55 6.95 144.6 7 144.65 7.05 144.7 7.05 144.8 7.05 144.8 6.95
L 144.8 6.8
Q 144.8 6.65 144.8 6.55
L 144.8 5.8
Q 144.8 5.05 144.8 5 144.8 4.7 144.6 4.5 144.4 4.35 144.15 4.35 143.85 4.35 143.55 4.6
M 120.75 2.55
L 120.75 2.45
Q 120.75 2.3 120.55 2.3 120.5 2.3 120.45 2.4
L 118.25 7.4
Q 118.2 7.5 118.2 7.55 118.2 7.7 118.4 7.7 118.45 7.7 118.5 7.55
L 120.75 2.55
M 126.4 4.6
Q 126.45 4.55 126.45 4.5 126.45 4.3 126.25 4.3 126.2 4.3 126.1 4.5 125.8 5.05 125.55 5.4
L 124.95 4.5
Q 124.95 4.45 124.9 4.4 124.85 4.35 124.8 4.35 124.6 4.35 124.6 4.55
L 124.65 4.6
Q 124.7 4.65 124.75 4.7 125.15 5.3 125.4 5.65 125.1 6.1 124.95 6.25 124.7 6.6 124.6 6.75 124.5 6.9 124.5 6.95 124.5 7.1 124.6 7.1 124.65 7.1 124.75 7 124.85 6.95 125.1 6.55
L 125.55 5.9
Q 125.8 6.3 126.1 6.75 126.3 7.05 126.4 7.05 126.5 7.05 126.5 6.9 126.5 6.85 126.45 6.75 126.35 6.6 125.7 5.65
L 126.3 4.7
Q 126.35 4.65 126.4 4.6
M 121.75 4.3
Q 121.6 4.3 121.6 4.5
L 121.6 4.65 121.65 4.75 121.65 6.05
Q 121.65 6.35 121.6 6.9 121.6 7.5 121.6 7.65 121.6 7.9 121.75 7.9 121.9 7.9 121.9 7.7
L 121.9 7.35
Q 121.9 6.95 121.9 6.65 122.3 7.05 122.6 7.05 123 7.05 123.2 6.65 123.4 6.25 123.4 5.8 123.4 4.35 122.65 4.35 122.3 4.35 121.9 4.6 121.9 4.3 121.75 4.3
M 121.9 4.95
Q 121.95 4.95 122.05 4.9 122.4 4.6 122.6 4.6 123.15 4.6 123.15 5.75 123.15 6.75 122.6 6.75 122.35 6.75 122.1 6.45 122 6.3 121.9 6.35
L 121.9 4.95
M 127.15 4.55
Q 127.15 4.65 127.2 4.7 127.65 6.8 127.7 6.95 127.7 7.1 127.8 7.1 127.85 7.1 127.9 6.95 128.05 6.5 128.5 5.4 128.95 6.85 128.95 6.9 129.05 7.1 129.1 7.1 129.15 7.1 129.2 6.95
L 129.8 4.75
Q 129.8 4.7 129.85 4.6 129.9 4.55 129.9 4.5 129.9 4.35 129.8 4.35 129.65 4.35 129.6 4.55
L 129.1 6.45
Q 128.8 5.6 128.7 5.2 128.65 4.95 128.5 4.95 128.4 4.95 128.3 5.1 128.05 5.85 127.8 6.45 127.55 5.1 127.4 4.55 127.35 4.35 127.25 4.35 127.1 4.35 127.1 4.45 127.1 4.5 127.15 4.55
M 133.55 7.15
Q 133.7 7.15 133.8 7.05 133.9 6.95 133.9 6.8 133.9 6.65 133.8 6.55 133.7 6.45 133.55 6.45 133.4 6.45 133.3 6.55 133.2 6.65 133.2 6.8 133.2 6.95 133.3 7.05 133.4 7.15 133.55 7.15
M 132.9 4.5
Q 132.9 4.35 132.8 4.35 132.65 4.35 132.6 4.55
L 132.1 6.45
Q 131.8 5.6 131.7 5.2 131.65 4.95 131.5 4.95 131.4 4.95 131.3 5.1 131.05 5.85 130.8 6.45 130.55 5.1 130.4 4.55 130.35 4.35 130.25 4.35 130.1 4.35 130.1 4.45 130.1 4.5 130.15 4.55 130.15 4.65 130.2 4.7 130.65 6.8 130.7 6.95 130.7 7.1 130.8 7.1 130.85 7.1 130.9 6.95 131.05 6.5 131.5 5.4 131.95 6.85 131.95 6.9 132.05 7.1 132.1 7.1 132.15 7.1 132.2 6.95
L 132.8 4.75
Q 132.8 4.7 132.85 4.6 132.9 4.55 132.9 4.5
M 141.15 4.55
Q 141.15 4.45 141 4.4 140.85 4.35 140.65 4.35 140.65 4.3 140.65 3.7 140.65 3.65 140.6 3.6 140.5 3.5 140.45 3.5 140.3 3.5 140.3 3.7
L 140.3 3.9
Q 140.35 4.1 140.35 4.35 140 4.4 139.9 4.4 139.8 4.45 139.8 4.6 139.8 4.7 139.9 4.7
L 140.05 4.7
Q 140.2 4.7 140.35 4.7 140.3 5.55 140.3 6.4 140.3 6.75 140.5 6.95 140.75 7.1 141.05 7.1 141.2 7.1 141.2 7 141.2 6.85 141 6.8 140.75 6.7 140.65 6.6 140.55 6.5 140.55 6.2
L 140.6 5.7
Q 140.65 5.1 140.65 4.7 140.75 4.65 140.85 4.7
L 141.05 4.7
Q 141.15 4.7 141.15 4.55
M 136.95 3.05
Q 136.95 2.9 136.8 2.9 136.65 2.9 136.65 3.1
L 136.65 5
Q 136.65 5.4 136.65 5.9 136.65 6.4 136.65 6.55 136.65 6.6 136.65 6.7 136.65 6.8 136.65 6.85 136.65 7.05 136.75 7.05 136.95 7.05 136.95 6.75 136.95 6.7 136.95 6.3 136.95 5.95 136.95 5.9
L 136.95 5.15
Q 137 5.15 137.05 5.05 137.2 4.95 137.25 4.85 137.45 4.65 137.65 4.65 138 4.65 138 5.15 138 6.35 138.05 6.55 138.05 7.05 138.25 7.05 138.35 7.05 138.35 6.9 138.35 6.85 138.35 6.7 138.3 6.55 138.3 6.45 138.3 6.4 138.3 6 138.3 5.55 138.3 5.5 138.3 4.8 138.15 4.55 137.95 4.4 137.65 4.4 137.3 4.4 136.95 4.8 136.95 3.8 136.95 3.05
M 116.6 5.85
Q 116.85 6 116.9 6.05 117.05 6.2 117.05 6.4 117.05 6.55 116.9 6.7 116.75 6.85 116.55 6.85 116.35 6.85 116.2 6.7 116 6.6 115.95 6.45 115.9 6.25 115.8 6.25 115.7 6.25 115.7 6.4 115.7 6.55 115.85 6.75 116.05 7.1 116.55 7.1 116.85 7.1 117.1 6.9 117.3 6.7 117.3 6.45 117.3 6.1 117.15 5.9 117.05 5.75 116.75 5.65 116.55 5.55 116.3 5.4 116 5.25 116 5.05 116 4.8 116.15 4.7 116.3 4.6 116.45 4.6 116.75 4.6 116.9 4.85 117 5 117.1 5 117.2 5 117.2 4.8 117.2 4.7 117.05 4.55 116.8 4.35 116.5 4.35 116.15 4.35 115.95 4.5 115.7 4.7 115.7 5.05 115.7 5.45 116.05 5.6 116.4 5.75 116.6 5.85
M 113.05 5.75
L 113.2 5.75
Q 113.35 5.7 113.55 5.7 113.7 5.7 113.9 5.7 114.1 5.75 114.2 5.75 114.35 5.75 114.35 5.45 114.35 5.1 114.25 4.8 114.05 4.35 113.55 4.35 113 4.35 112.75 4.95 112.65 5.25 112.65 5.7 112.65 6.35 112.9 6.75 113.15 7.15 113.55 7.15 113.85 7.15 114.1 6.85 114.35 6.6 114.35 6.35 114.35 6.2 114.25 6.2 114.1 6.2 114.05 6.35 114.05 6.5 113.9 6.65 113.75 6.85 113.55 6.85 113.3 6.85 113.2 6.65 112.95 6.4 112.95 5.75 113 5.75 113.05 5.75
M 112.95 5.45
Q 112.95 5.1 113.15 4.85 113.3 4.6 113.55 4.6 114 4.6 114.05 5.45 113.6 5.4 113.5 5.4 113.1 5.4 112.95 5.45
M 111.3 4.35
Q 111.15 4.35 110.95 4.6 110.75 4.35 110.45 4.35 110.1 4.35 109.85 4.55 109.65 4.8 109.65 5.2 109.65 5.35 109.75 5.5 109.85 5.7 110 5.8 109.8 6.05 109.8 6.2 109.8 6.45 110 6.6 109.55 6.8 109.55 7.25 109.55 7.5 109.8 7.7 110.05 7.9 110.45 7.9 110.85 7.9 111.1 7.7 111.3 7.5 111.3 7.2 111.3 6.9 111.15 6.75 110.95 6.55 110.55 6.5 110.05 6.35 110.05 6.2 110.05 6.15 110.35 5.9
L 110.5 5.9
Q 110.75 5.9 110.95 5.7 111.2 5.45 111.2 5.15 111.2 5.1 111.15 4.85 111.15 4.8 111.25 4.7 111.45 4.55 111.45 4.5 111.45 4.35 111.3 4.35
M 110.1 5.55
Q 109.9 5.4 109.9 5.2 109.9 5 110.05 4.8 110.2 4.6 110.4 4.6 110.55 4.6 110.65 4.7 110.75 4.85 110.85 4.85 110.85 4.9 110.9 5 110.9 5.1 110.9 5.15 110.9 5.35 110.75 5.5 110.6 5.65 110.4 5.65 110.25 5.65 110.1 5.55
M 110.75 6.8
Q 111 6.95 111 7.15 111 7.4 110.8 7.55 110.65 7.6 110.45 7.6 109.85 7.6 109.85 7.2 109.85 6.95 110.15 6.8 110.3 6.75 110.3 6.7 110.7 6.8 110.75 6.8
M 91.8 7.05
Q 91.9 6.95 91.9 6.8 91.9 6.65 91.8 6.55 91.7 6.45 91.55 6.45 91.4 6.45 91.3 6.55 91.2 6.65 91.2 6.8 91.2 6.95 91.3 7.05 91.4 7.15 91.55 7.15 91.7 7.15 91.8 7.05
M 96.35 5.1
Q 96.35 4.9 96.2 4.7 96 4.4 95.65 4.4 95.3 4.4 94.95 4.65
L 94.95 4.5
Q 94.9 4.35 94.8 4.35 94.65 4.35 94.65 4.5 94.65 4.55 94.65 4.6 94.7 4.7 94.7 4.8 94.7 4.85 94.7 5.2 94.7 5.5 94.7 5.75 94.7 5.9 94.7 6.2
L 94.65 6.5
Q 94.65 6.6 94.65 6.7 94.65 6.8 94.65 6.85 94.65 7.05 94.8 7.05 94.95 7.05 94.95 6.85
L 94.95 6.4
Q 94.95 5.95 94.95 5.65 94.95 5.5 94.95 5.25 94.95 5 94.95 4.95 95.05 5 95.25 4.8 95.4 4.65 95.6 4.65 96.05 4.65 96.05 5.2 96.05 5.45 96.05 6.05
L 96 6.7
Q 96 7.05 96.25 7.05 96.35 7.05 96.35 6.95 96.35 6.9 96.35 6.8
L 96.3 6.7
Q 96.3 6.65 96.3 5.9 96.35 5.15 96.35 5.1
M 98.65 4.15
L 98.65 3.55
Q 98.65 3.5 98.7 3.35 98.7 3.2 98.7 3.15 98.7 2.9 98.5 2.9 98.35 2.9 98.35 3.15 98.35 3.2 98.35 3.4 98.35 3.55 98.35 3.6
L 98.35 5.05
Q 98.35 5.35 98.35 5.9 98.3 6.5 98.3 6.8 98.3 7.05 98.5 7.05 98.55 7.05 98.6 7 98.65 6.9 98.65 6.8
L 98.65 4.75
Q 98.65 4.7 98.65 4.15
M 103.75 4.3
Q 103.6 4.3 103.6 4.5
L 103.6 4.65 103.65 4.75 103.65 6.05
Q 103.65 6.35 103.6 6.9 103.6 7.5 103.6 7.65 103.6 7.9 103.75 7.9 103.9 7.9 103.9 7.7
L 103.9 7.35
Q 103.9 6.95 103.9 6.65 104.3 7.05 104.6 7.05 105 7.05 105.2 6.65 105.4 6.25 105.4 5.8 105.4 4.35 104.65 4.35 104.3 4.35 103.9 4.6 103.9 4.3 103.75 4.3
M 104.6 4.6
Q 105.15 4.6 105.15 5.75 105.15 6.75 104.6 6.75 104.35 6.75 104.1 6.45 104 6.3 103.9 6.35
L 103.9 4.95
Q 103.95 4.95 104.05 4.9 104.4 4.6 104.6 4.6
M 102.75 2.55
L 102.75 2.45
Q 102.75 2.3 102.55 2.3 102.5 2.3 102.45 2.4
L 100.25 7.4
Q 100.2 7.5 100.2 7.55 100.2 7.7 100.4 7.7 100.45 7.7 100.5 7.55
L 102.75 2.55
M 108.1 4.5
Q 107.9 4.35 107.6 4.35 107.2 4.35 106.95 4.55 106.75 4.7 106.75 4.9 106.75 5.05 106.85 5.05 106.95 5.05 107 4.9 107.15 4.7 107.3 4.65 107.4 4.6 107.6 4.6 107.9 4.6 108.05 4.9 108.1 4.95 108.1 5.15 108.1 5.55 108.05 5.6 107.75 5.45 107.5 5.45 107.1 5.45 106.85 5.75 106.65 6 106.65 6.35 106.65 6.7 106.85 6.9 107.05 7.1 107.35 7.1 107.75 7.1 108.05 6.9 108.1 7.1 108.25 7.1 108.35 7.1 108.35 6.95
L 108.35 6.8
Q 108.3 6.65 108.3 6.45 108.3 6.4 108.35 5.75
L 108.35 5.05
Q 108.35 4.7 108.1 4.5
M 107.1 5.9
Q 107.25 5.75 107.5 5.75 107.65 5.75 107.95 5.85 108 5.9 108.05 5.9 108.05 6.3 108.05 6.6 108 6.55 107.85 6.65 107.6 6.8 107.4 6.8 106.9 6.8 106.9 6.35 106.9 6.05 107.1 5.9
M 88.55 5.25
Q 88.5 5.55 88.5 5.7 88.5 6.25 88.75 6.65 89 7.15 89.5 7.15 89.95 7.15 90.25 6.65 90.5 6.25 90.5 5.75 90.5 4.9 90.05 4.55 89.8 4.35 89.6 4.35
L 89.55 4.35
Q 89.5 4.3 89.4 4.3
L 89.35 4.35
Q 89.3 4.4 89.25 4.4 88.65 4.6 88.55 5.25
M 88.8 5.8
Q 88.8 5 89.2 4.7 89.3 4.65 89.4 4.65 89.5 4.6 89.5 4.55 89.6 4.6 89.7 4.65 90 4.75 90.1 5.05 90.2 5.35 90.2 5.6 90.2 6.15 90 6.5 89.85 6.9 89.5 6.9 89.15 6.9 88.95 6.5 88.8 6.15 88.8 5.8
M 86.95 4.6
Q 86.75 4.35 86.45 4.35 86.1 4.35 85.85 4.55 85.65 4.8 85.65 5.2 85.65 5.35 85.75 5.5 85.85 5.7 86 5.8 85.8 6.05 85.8 6.2 85.8 6.45 86 6.6 85.55 6.8 85.55 7.25 85.55 7.5 85.8 7.7 86.05 7.9 86.45 7.9 86.85 7.9 87.1 7.7 87.3 7.5 87.3 7.2 87.3 6.9 87.15 6.75 86.95 6.55 86.55 6.5 86.05 6.35 86.05 6.2 86.05 6.15 86.35 5.9
L 86.5 5.9
Q 86.75 5.9 86.95 5.7 87.2 5.45 87.2 5.15 87.2 5.1 87.15 4.85 87.15 4.8 87.25 4.7 87.45 4.55 87.45 4.5 87.45 4.35 87.3 4.35 87.15 4.35 86.95 4.6
M 86.85 4.85
Q 86.85 4.9 86.9 5 86.9 5.1 86.9 5.15 86.9 5.35 86.75 5.5 86.6 5.65 86.4 5.65 86.25 5.65 86.1 5.55 85.9 5.4 85.9 5.2 85.9 5 86.05 4.8 86.2 4.6 86.4 4.6 86.55 4.6 86.65 4.7 86.75 4.85 86.85 4.85
M 87 7.15
Q 87 7.4 86.8 7.55 86.65 7.6 86.45 7.6 85.85 7.6 85.85 7.2 85.85 6.95 86.15 6.8 86.3 6.75 86.3 6.7 86.7 6.8 86.75 6.8 87 6.95 87 7.15
M 62.85 6.8
Q 62.85 6.65 62.75 6.55 62.65 6.45 62.5 6.45 62.35 6.45 62.25 6.55 62.15 6.65 62.15 6.8 62.15 6.95 62.25 7.05 62.35 7.15 62.5 7.15 62.65 7.15 62.75 7.05 62.85 6.95 62.85 6.8
M 62.85 4.7
Q 62.85 4.55 62.75 4.45 62.65 4.3 62.5 4.3 62.35 4.3 62.25 4.45 62.15 4.55 62.15 4.7 62.15 4.85 62.25 4.95 62.35 5.05 62.5 5.05 62.65 5.05 62.75 4.95 62.85 4.85 62.85 4.7
M 66.75 2.45
Q 66.75 2.3 66.55 2.3 66.5 2.3 66.45 2.4
L 64.25 7.4
Q 64.2 7.5 64.2 7.55 64.2 7.7 64.4 7.7 64.45 7.7 64.5 7.55
L 66.75 2.55 66.75 2.45
M 69.75 2.45
Q 69.75 2.3 69.55 2.3 69.5 2.3 69.45 2.4
L 67.25 7.4
Q 67.2 7.5 67.2 7.55 67.2 7.7 67.4 7.7 67.45 7.7 67.5 7.55
L 69.75 2.55 69.75 2.45
M 74.6 4.35
Q 74.2 4.35 73.95 4.55 73.75 4.7 73.75 4.9 73.75 5.05 73.85 5.05 73.95 5.05 74 4.9 74.15 4.7 74.3 4.65 74.4 4.6 74.6 4.6 74.9 4.6 75.05 4.9 75.1 4.95 75.1 5.15 75.1 5.55 75.05 5.6 74.75 5.45 74.5 5.45 74.1 5.45 73.85 5.75 73.65 6 73.65 6.35 73.65 6.7 73.85 6.9 74.05 7.1 74.35 7.1 74.75 7.1 75.05 6.9 75.1 7.1 75.25 7.1 75.35 7.1 75.35 6.95
L 75.35 6.8
Q 75.3 6.65 75.3 6.45 75.3 6.4 75.35 5.75
L 75.35 5.05
Q 75.35 4.7 75.1 4.5 74.9 4.35 74.6 4.35
M 74.1 5.9
Q 74.25 5.75 74.5 5.75 74.65 5.75 74.95 5.85 75 5.9 75.05 5.9 75.05 6.3 75.05 6.6 75 6.55 74.85 6.65 74.6 6.8 74.4 6.8 73.9 6.8 73.9 6.35 73.9 6.05 74.1 5.9
M 71.6 4.35
Q 71.3 4.35 71.15 4.45 70.6 4.8 70.6 5.75 70.6 6.35 70.85 6.7 71.1 7.1 71.5 7.1 71.95 7.1 72.25 6.65 72.4 6.4 72.4 6.25 72.4 6.15 72.35 6.1
L 72.3 6.05
Q 72.1 6.05 72.1 6.2 72.05 6.4 71.95 6.6 71.75 6.8 71.5 6.8 71.2 6.8 71.05 6.45 70.9 6.15 70.9 5.8 70.9 5.3 71.05 4.95 71.25 4.6 71.6 4.6 71.95 4.6 72.05 4.95 72.1 5.15 72.2 5.15 72.25 5.15 72.3 5.1 72.35 5.05 72.35 5 72.35 4.8 72.25 4.7 72.05 4.35 71.6 4.35
M 76.95 5.75
Q 77 5.75 77.05 5.75
L 77.2 5.75
Q 77.35 5.7 77.55 5.7 77.7 5.7 77.9 5.7 78.1 5.75 78.2 5.75 78.35 5.75 78.35 5.45 78.35 5.1 78.25 4.8 78.05 4.35 77.55 4.35 77 4.35 76.75 4.95 76.65 5.25 76.65 5.7 76.65 6.35 76.9 6.75 77.15 7.15 77.55 7.15 77.85 7.15 78.1 6.85 78.35 6.6 78.35 6.35 78.35 6.2 78.25 6.2 78.1 6.2 78.05 6.35 78.05 6.5 77.9 6.65 77.75 6.85 77.55 6.85 77.3 6.85 77.2 6.65 76.95 6.4 76.95 5.75
M 76.95 5.45
Q 76.95 5.1 77.15 4.85 77.3 4.6 77.55 4.6 78 4.6 78.05 5.45 77.6 5.4 77.5 5.4 77.1 5.4 76.95 5.45
M 81.05 5.2
Q 81.05 5.45 81.05 6.05
L 81 6.7
Q 81 7.05 81.25 7.05 81.35 7.05 81.35 6.95 81.35 6.9 81.35 6.8
L 81.3 6.7
Q 81.3 6.65 81.3 5.9 81.35 5.15 81.35 5.1 81.35 4.9 81.2 4.7 81 4.4 80.65 4.4 80.3 4.4 79.95 4.65
L 79.95 4.5
Q 79.9 4.35 79.8 4.35 79.65 4.35 79.65 4.5 79.65 4.55 79.65 4.6 79.7 4.7 79.7 4.8 79.7 4.85 79.7 5.2 79.7 5.5 79.7 5.75 79.7 5.9 79.7 6.2
L 79.65 6.5
Q 79.65 6.6 79.65 6.7 79.65 6.8 79.65 6.85 79.65 7.05 79.8 7.05 79.95 7.05 79.95 6.85
L 79.95 6.4
Q 79.95 5.95 79.95 5.65 79.95 5.5 79.95 5.25 79.95 5 79.95 4.95 80.05 5 80.25 4.8 80.4 4.65 80.6 4.65 81.05 4.65 81.05 5.2
M 83.4 4.3
L 83.35 4.35
Q 83.3 4.4 83.25 4.4 82.65 4.6 82.55 5.25 82.5 5.55 82.5 5.7 82.5 6.25 82.75 6.65 83 7.15 83.5 7.15 83.95 7.15 84.25 6.65 84.5 6.25 84.5 5.75 84.5 4.9 84.05 4.55 83.8 4.35 83.6 4.35
L 83.55 4.35
Q 83.5 4.3 83.4 4.3
M 82.8 5.8
Q 82.8 5 83.2 4.7 83.3 4.65 83.4 4.65 83.5 4.6 83.5 4.55 83.6 4.6 83.7 4.65 84 4.75 84.1 5.05 84.2 5.35 84.2 5.6 84.2 6.15 84 6.5 83.85 6.9 83.5 6.9 83.15 6.9 82.95 6.5 82.8 6.15 82.8 5.8
M 60.05 4.55
Q 59.8 4.35 59.5 4.35 59.15 4.35 58.95 4.5 58.7 4.7 58.7 5.05 58.7 5.45 59.05 5.6 59.4 5.75 59.6 5.85 59.85 6 59.9 6.05 60.05 6.2 60.05 6.4 60.05 6.55 59.9 6.7 59.75 6.85 59.55 6.85 59.35 6.85 59.2 6.7 59 6.6 58.95 6.45 58.9 6.25 58.8 6.25 58.7 6.25 58.7 6.4 58.7 6.55 58.85 6.75 59.05 7.1 59.55 7.1 59.85 7.1 60.1 6.9 60.3 6.7 60.3 6.45 60.3 6.1 60.15 5.9 60.05 5.75 59.75 5.65 59.55 5.55 59.3 5.4 59 5.25 59 5.05 59 4.8 59.15 4.7 59.3 4.6 59.45 4.6 59.75 4.6 59.9 4.85 60 5 60.1 5 60.2 5 60.2 4.8 60.2 4.7 60.05 4.55
M 55.9 4.6
Q 55.9 4.3 55.75 4.3 55.6 4.3 55.6 4.5
L 55.6 4.65 55.65 4.75 55.65 6.05
Q 55.65 6.35 55.6 6.9 55.6 7.5 55.6 7.65 55.6 7.9 55.75 7.9 55.9 7.9 55.9 7.7
L 55.9 7.35
Q 55.9 6.95 55.9 6.65 56.3 7.05 56.6 7.05 57 7.05 57.2 6.65 57.4 6.25 57.4 5.8 57.4 4.35 56.65 4.35 56.3 4.35 55.9 4.6
M 56.6 4.6
Q 57.15 4.6 57.15 5.75 57.15 6.75 56.6 6.75 56.35 6.75 56.1 6.45 56 6.3 55.9 6.35
L 55.9 4.95
Q 55.95 4.95 56.05 4.9 56.4 4.6 56.6 4.6
M 52.9 4.4
Q 52.8 4.45 52.8 4.6 52.8 4.7 52.9 4.7
L 53.05 4.7
Q 53.2 4.7 53.35 4.7 53.3 5.55 53.3 6.4 53.3 6.75 53.5 6.95 53.75 7.1 54.05 7.1 54.2 7.1 54.2 7 54.2 6.85 54 6.8 53.75 6.7 53.65 6.6 53.55 6.5 53.55 6.2
L 53.6 5.7
Q 53.65 5.1 53.65 4.7 53.75 4.65 53.85 4.7
L 54.05 4.7
Q 54.15 4.7 54.15 4.55 54.15 4.45 54 4.4 53.85 4.35 53.65 4.35 53.65 4.3 53.65 3.7 53.65 3.65 53.6 3.6 53.5 3.5 53.45 3.5 53.3 3.5 53.3 3.7
L 53.3 3.9
Q 53.35 4.1 53.35 4.35 53 4.4 52.9 4.4
M 50.65 4.35
Q 50.65 4.3 50.65 3.7 50.65 3.65 50.6 3.6 50.5 3.5 50.45 3.5 50.3 3.5 50.3 3.7
L 50.3 3.9
Q 50.35 4.1 50.35 4.35 50 4.4 49.9 4.4 49.8 4.45 49.8 4.6 49.8 4.7 49.9 4.7
L 50.05 4.7
Q 50.2 4.7 50.35 4.7 50.3 5.55 50.3 6.4 50.3 6.75 50.5 6.95 50.75 7.1 51.05 7.1 51.2 7.1 51.2 7 51.2 6.85 51 6.8 50.75 6.7 50.65 6.6 50.55 6.5 50.55 6.2
L 50.6 5.7
Q 50.65 5.1 50.65 4.7 50.75 4.65 50.85 4.7
L 51.05 4.7
Q 51.15 4.7 51.15 4.55 51.15 4.45 51 4.4 50.85 4.35 50.65 4.35
M 46.95 3.05
Q 46.95 2.9 46.8 2.9 46.65 2.9 46.65 3.1
L 46.65 5
Q 46.65 5.4 46.65 5.9 46.65 6.4 46.65 6.55 46.65 6.6 46.65 6.7 46.65 6.8 46.65 6.85 46.65 7.05 46.75 7.05 46.95 7.05 46.95 6.75 46.95 6.7 46.95 6.3 46.95 5.95 46.95 5.9
L 46.95 5.15
Q 47 5.15 47.05 5.05 47.2 4.95 47.25 4.85 47.45 4.65 47.65 4.65 48 4.65 48 5.15 48 6.35 48.05 6.55 48.05 7.05 48.25 7.05 48.35 7.05 48.35 6.9 48.35 6.85 48.35 6.7 48.3 6.55 48.3 6.45 48.3 6.4 48.3 6 48.3 5.55 48.3 5.5 48.3 4.8 48.15 4.55 47.95 4.4 47.65 4.4 47.3 4.4 46.95 4.8 46.95 3.8 46.95 3.05
M 22.8 22.1
L 22.8 22.15
Q 20.15 22.75 18.7 24.7 18.7 24.85 18.75 24.9 20.95 26.15 22.5 28.05 20.05 31.2 15.9 31.35 16.65 32.9 19.05 31.85 26.7 28.6 20.05 24.65 20.1 24.6 20.15 24.6 23.65 23.6 22.8 22.1
M 30.9 14.25
Q 30.9 14.2 30.85 14.15 29.45 12.5 26.8 13.7 19.75 14.6 12.7 16.25 7.35 17.55 4.35 21.25 5.85 21.2 7.65 20.35 11.9 18.35 16.3 17 13.65 24.4 13.2 31.9 13.35 31.85 13.35 31.75 16.1 24.25 16.55 16.95 23.55 14.8 30.9 14.25
M 52.8 23.9
Q 52.1 24.15 51.4 24.65 47.9 27.1 48.75 30.85 53.4 31.35 53.3 26.2 53.65 26.5 53.9 26.9 55.25 29.15 57.05 28.95 57.25 28.3 56.65 27.9 54 26.25 54.5 24.45 54.5 24.4 54.45 24.3 53.9 23.5 52.8 23.9
M 52.35 25.35
Q 52.5 25.35 52.5 25.8 52.2 30 49.5 29.55 49.5 29.5 49.5 29.4 50.15 26.95 52.35 25.35
M 48.3 24.25
Q 48.3 24.2 48.25 24.15 47 22.65 44.6 23.7 43.75 23.85 43.45 24.65 42.75 26.65 44.4 27.85 45.1 28.35 45.85 28.75 45.25 29.2 43.5 28.15 42.55 27.6 41.9 28.25 42.1 29.35 43.3 29.9 43 30.3 42.75 30.2 39.05 28.7 41.7 24.5 41.65 24.45 41.6 24.35 40.95 23.75 40 24.1 39.9 24.15 39.8 24.2 36.45 26.2 35.5 29.5 33.95 28.15 32.3 27 34.7 25.2 37.9 24.65 35.35 23.8 32.7 25.05 32.7 25 32.7 24.9 34.4 18.3 35 12.5 32.9 16.3 32.25 21.2 32.05 22.75 31.2 24 30.8 24.55 30.55 25.15 31 23.2 30.4 20.9 29.5 21.5 29.55 22.9 29.9 28.3 25.5 28.95 25.5 28.9 25.45 28.8 25.3 24.95 26.45 21.6 23.45 24.3 24.9 29.25 25.35 30.8 26.85 29.8 28.85 28.45 29.85 26.8 29 29.65 30.8 32.1 30.95 32.05 31 31.95 31.7 31 31.75 29.75 33.55 30.55 35.25 30.35 35.2 30.7 35.15 31.05 37.8 31.8 39.7 30.25 42.85 33.4 44.2 30.15 45.9 30.5 47.35 29.75 47.65 29.25 47.25 28.85 46.15 27.7 44.9 26.7 44.2 26.15 44.1 25.3 44.15 25.25 44.15 25.2 46.55 25 48.3 24.25
M 39.95 25.75
Q 39.65 30 36.35 29.95 36.4 29.9 36.45 29.8 37.5 27.2 39.8 25.5 39.95 25.4 39.95 25.75 Z"/>
        </g>

        <path id="Layer4_0_1_STROKES" stroke="#66CCFF" stroke-width="0.75" stroke-linejoin="round"
              stroke-linecap="round" fill="none" d="
M 39.25 90.5
L 41.55 81.6 43.9 90.5 49.75 86.25 48.2 91.8 53.65 96.05 48 99.2 49 107 41.35 101.45 33.75 107.2 35.5 99.95 30.05 96.05 35.3 92.55 33.55 87.35 39.25 90.5 Z"/>

        <path id="Layer3_0_1_STROKES" stroke="#FF9999" stroke-opacity="0.4980392156862745" stroke-width="1"
              stroke-linejoin="round" stroke-linecap="round" fill="none" d="
M 33.55 87.35
L 39.25 90.5 41.55 81.6 43.9 90.5 49.75 86.25"/>

        <path id="Layer3_0_2_STROKES" stroke="#FF9966" stroke-opacity="0.4980392156862745" stroke-width="1"
              stroke-linejoin="round" stroke-linecap="round" fill="none" d="
M 49.75 86.25
L 48.2 91.8 53.65 96.05 48 99.2 49 107"/>

        <path id="Layer3_0_3_STROKES" stroke="#FFFF99" stroke-opacity="0.4980392156862745" stroke-width="1"
              stroke-linejoin="round" stroke-linecap="round" fill="none" d="
M 49 107
L 41.35 101.45 33.75 107.2"/>

        <path id="Layer3_0_4_STROKES" stroke="#66FF66" stroke-opacity="0.4980392156862745" stroke-width="1"
              stroke-linejoin="round" stroke-linecap="round" fill="none" d="
M 33.75 107.2
L 35.5 99.95"/>

        <path id="Layer3_0_5_STROKES" stroke="#3300FF" stroke-opacity="0.4980392156862745" stroke-width="1"
              stroke-linejoin="round" stroke-linecap="round" fill="none" d="
M 30.05 96.05
L 35.3 92.55 33.55 87.35"/>

        <path id="Layer3_0_6_STROKES" stroke="#33CCFF" stroke-opacity="0.4980392156862745" stroke-width="1"
              stroke-linejoin="round" stroke-linecap="round" fill="none" d="
M 35.5 99.95
L 30.05 96.05"/>

        <path id="Layer2_0_1_STROKES" stroke="#552100" stroke-width="0.75" stroke-linejoin="round"
              stroke-linecap="round" fill="none" d="
M 103.45 29
Q 102.3 28.4 101 28.2 83.65 24.4 73.25 28.3 70.75 29.2 68.7 30.6 68.6 30.65 65.85 34 63.05 37.35 60.1 48.75
L 59.95 50.175 59.95 50.2 59.05 58.7 59.4 58.4
M 103.45 29
Q 110.05 32.4 112.95 48.25
L 121.8 51.4 120.4 48.8 122 48.8 118.2 45.4 123.6 42 118.15 38.3 122.4 36 117.8 35.2 122.6 33.2 108.2 29.4 103.45 29 Z
M 115.45 74.25
L 119 70.2 114.65 65.45 115.45 74.25 116.4 84.4 114.2 82.8 113.8 83.4
Q 114.55 85.5 115.1 87.4 115.85 90.1 116.5 92.8 118.55 101.75 119.6 111
L 119.4 115.8
Q 117.75 112.95 117.6 107.8
L 116.05 115.85 113.6 107.8 112.35 114.45 118.2 132.4 117.4 133.2 118.85 134.25 115.4 135.25 116.4 141 115.4 140.6 114.4 139.8 115.2 142.8 109.2 144.2 105.4 138.2 103.6 138.6 104.4 148
Q 104.3 148.3 104.15 148.6 105.6 152.2 106.9 156 111.3 169 113.75 183.7 113.75 183.85 113.8 184.05 114.35 187.5 114.8 191 110 192.5 104.35 193.6
L 104.55 196.8 107.6 203.2
Q 110.8 214.25 104.4 214.4 97.8 211.85 96.4 203.6 95.8 199.3 97.35 197.95
L 97.2 195.15
Q 81.6 197.55 68.8 195.05
L 68.6 197.2
Q 70.2 202.9 66.4 208.65 62.55 214.4 58.85 214.45 55.2 214.4 55.4 208.35 55.6 202.25 61.15 195.9
L 61.4 193.1
Q 56.75 191.6 52.4 189.4 53 186 53.65 182.65 56.3 169.5 60.35 157.25 61.75 153 63.85 148.95 63.8 148.8 63.8 148.65 63.7 148.25 63.6 147.8
L 65 138 62.75 137.7 60.65 145.1 53.8 145.4 54 141.8 52.4 142.6 54.15 136.6 49.6 136 51.2 135 50.8 133.2 56.45 115.8 55.2 113.8
Q 53.1 117.3 50.8 119.4 55 104.7 57.35 92.8 57.85 90 58.3 87.4 58.45 86.65 58.55 85.95 57.8 80.3 58.1 75
L 54.2 71.8 59.65 65 55.4 61.8 59.05 58.7 59 59.2 60.6 57.6 59.7 65.05
Q 58.4 69.85 58.1 75
M 113.9 57.2
L 114.65 65.45 118.4 60.2 113.9 57.2 113.2 50
Q 113.1 49.1 112.95 48.25
M 99 69.4
L 99.8 56.2 99.6 70 100.8 56.4 100.4 70.4 102 56.4 101.4 68.2
M 84 76.8
L 88.4 76.2
M 90 84.2
Q 89.95 82.95 89.8 81.6 84.25 82 80.05 81.85 79.8 82.85 79.6 83.8 79.25 85.75 79.3 87.4 79.45 90.75 81.45 92.8 81.55 92.95 81.75 93.1 82.35 93.8 86 94.2
L 85.95 94.1
Q 86.55 93.45 87.1 92.8 89 90.3 89.65 87.4 90 85.85 90 84.2
L 100.2 91.4 98.8 92.4 107 98 112.35 114.45
M 82.3 99.75
Q 82.2 99.45 82.2 99.1 82.2 98.3 82.75 97.75 82.9 97.6 83.1 97.5
L 80.55 96.6 79.8 98.9 82.3 99.75
Q 82.45 100.15 83 100.45 83.3 100.65 83.8 100.65 84.1 100.65 84.5 100.6 84.7 100.55 84.85 100.55
L 84.8 100.2
M 83.1 97.5
Q 83.5 97.2 84.1 97.2 84.9 97.2 85.45 97.75
L 87.3 96.5 86 94.2
M 87.3 96.5
L 88.55 98.65 88.8 99.4 98.8 92.4
M 106.85 77.5
L 107.6 83.8 110 82.6 112.2 85.6 113.8 83.4
M 89.8 81.6
Q 98.4 80.95 106.85 77.5 106.7 63.85 103.4 49
L 98.8 54.4
Q 92.65 47.8 90.4 38.8 83.95 47.4 80.55 55.25
L 76.8 44.8 70.4 55.2 67.4 52 65.8 65.6 65.6 70.2
Q 65 73.75 66 78 72.35 80.35 80.05 81.85
M 73.25 28.3
Q 61.5 31.2 52 32.4
L 52.7 35.4 53.2 35
M 52.8 35.8
L 52.7 35.4 47.6 39.2 53.8 40.2 49.4 42.2 54.4 43.6 50 48.4 51.4 49.6 50.6 52
Q 54.2 50.35 59.95 50.2
M 71.2 56
L 71.2 56.4 71.2 70 72.2 57.8 72.2 69.4
M 71.2 56.4
L 70.6 69.2 70.6 69.6
M 69.8 56.8
L 69.8 70 70.4 57 70.6 69.2
M 59.65 65
L 59.7 65.05
M 58.55 85.95
L 59.2 88.4 61.4 84 64.6 88 64.8 84.4 67 86.8 66.4 85.2 67.6 85.8 66.2 78.8
Q 66.1 78.4 66 78
M 69.95 92.7
L 68.4 91.4 79.6 83.8
M 88.55 98.65
L 86 99.6
Q 85.9 100 85.75 100.2 85.5 100.4 84.85 100.55
L 88.4 123 84.2 132.7
Q 84.5 132.7 84.8 132.75 90.4 128.55 96 128.6 98.3 135.6 96.6 142.6 95.1 143.3 90 141.8 87.35 140.55 85.15 136.9 85.05 136.95 84.9 137.05 88.7 142.7 89.4 148.4
L 86 149.6
Q 85.8 143.5 82.4 137.45 82.3 137.45 82.2 137.45 81.75 145.8 76 150.2
L 74.6 147.8
Q 78.95 142.8 80 137.25 75.35 141.9 69.2 143.6 66.35 136.4 68.8 129.6 75.3 129.3 80.2 133.6 80.3 133.5 80.4 133.4 80.85 133.05 81.35 132.85
L 77 123.2 83.8 100.65
M 80.15 137
Q 79 136.6 79.2 135.6 79.4 134.6 80.2 133.6
M 82.2 137.45
Q 81.25 137.35 80.4 137.1 80.3 137.05 80.2 137 80.1 137.1 80 137.25
L 80.15 137 80.2 137
M 65 138
L 68.4 114.4
M 56.45 115.8
L 61.4 100.4 69.95 92.7 79.2 100.4 79.8 98.9
M 62.75 137.7
L 54.15 136.6
M 63.85 148.95
Q 65 154.1 67.85 158.4 68.65 159.55 70.15 161.05
L 74.7 156.6 82.2 149.2
Q 85.2 153.1 89.35 156.85 92.2 159.6 96.2 162 98.35 159.1 99.55 157.2 102.45 152.4 104.15 148.6
M 61.15 195.9
L 61 197.4
Q 63.75 200.45 68.4 198.8
L 68.6 197.2
M 61.4 193.1
Q 65 194.25 68.8 195.05
M 60.35 157.25
Q 64.25 160.1 67.85 158.4
M 113.75 183.7
Q 102.85 171.95 93.2 185.2 81.35 172.15 74.8 185.2 68.2 174.35 53.65 182.65
M 85.45 97.75
Q 86 98.3 86 99.1 86 99.4 86 99.6
M 84.8 132.75
Q 84.85 132.75 84.9 132.8 85.8 132.95 85.8 134.6 85.8 136.25 85.3 136.75 85.25 136.85 85.15 136.9
M 81.35 132.85
Q 81.95 132.6 82.7 132.6 83.55 132.6 84.2 132.7
M 84.9 137.05
Q 84.35 137.3 83.3 137.4 82.85 137.45 82.4 137.45
M 115.4 135.25
L 105.4 138.2
M 103.6 138.6
L 101.4 113.6
M 106.9 156
Q 103.35 158.15 99.55 157.2
M 97.2 195.15
Q 100.8 194.7 104.35 193.6
M 80.55 96.6
L 81.75 93.1
M 74.7 156.6
Q 83.1 161.7 89.35 156.85
M 104.8 200.4
Q 108.15 206.25 104.8 208 101.05 208.95 98.1 201.25 98.25 201.3 98.4 201.35 102.75 202.45 104.8 200.4 Z
M 97.35 197.95
L 97.4 198.6
Q 101.8 200.75 104.6 198
L 104.55 196.8
M 64.55 201.75
Q 66.35 201.65 66.7 201.45 67 201.2 66.95 201.3
L 66.9 201.35
Q 64.2 209.5 59.6 208 55.95 205.95 60.2 199.6 62.7 201.8 64.55 201.75 Z"/>

        <path id="Layer1_0_1_STROKES" stroke="#552100" stroke-width="0.75" stroke-linejoin="round"
              stroke-linecap="round" fill="none" d="
M 111.6 55.65
Q 103.2 50.05 93.8 53.45
M 84.2 53.25
Q 72.75 49.95 63.4 55.45"/>
    </defs>

    <g transform="matrix( 1, 0, 0, 1, 0,0) ">
        <use xlink:href="#Layer6_0_FILL"/>
    </g>

    <g filter="url(#Filter_1)" transform="matrix( 1, 0, 0, 1, 0,0) ">
        <g transform="matrix( 1.1624755859375, 0, 0, 0.848052978515625, 27.2,198.8) ">
            <g transform="matrix( 1, 0, 0, 1, 0,0) ">
                <use xlink:href="#shadow_0_Layer0_0_FILL"/>
            </g>
        </g>
    </g>

    <g transform="matrix( 1, 0, 0, 1, 0,0) ">
        <use xlink:href="#Layer4_0_FILL"/>

        <use xlink:href="#Layer4_0_1_STROKES"/>
    </g>

    <g transform="matrix( 1, 0, 0, 1, 0,0) ">
        <use xlink:href="#Layer3_0_1_STROKES"/>

        <use xlink:href="#Layer3_0_2_STROKES"/>

        <use xlink:href="#Layer3_0_3_STROKES"/>

        <use xlink:href="#Layer3_0_4_STROKES"/>

        <use xlink:href="#Layer3_0_5_STROKES"/>

        <use xlink:href="#Layer3_0_6_STROKES"/>
    </g>

    <g transform="matrix( 1, 0, 0, 1, 0,0) ">
        <use xlink:href="#Layer2_0_FILL"/>

        <use xlink:href="#Layer2_0_1_STROKES"/>
    </g>

    <g transform="matrix( 1, 0, 0, 1, 0,0) ">
        <use xlink:href="#Layer1_0_1_STROKES"/>
    </g>

    <g transform="matrix( 1, 0, 0, 1, 0,0) ">
        <use xlink:href="#Layer0_0_FILL"/>
    </g>
</svg>
