<svg xmlns:xlink="http://www.w3.org/1999/xlink" xmlns="http://www.w3.org/2000/svg" version="1.1"
     preserveAspectRatio="none" x="0px" y="0px" width="600px" height="360px" viewBox="0 0 600 360">
    <defs>
        <linearGradient id="Gradient_1" gradientUnits="userSpaceOnUse" x1="240" y1="359.95" x2="240"
                        y2="-0.05000000000001137" spreadMethod="pad">
            <stop offset="0%" stop-color="#FFCCCC"/>

            <stop offset="100%" stop-color="#FFFFFF"/>
        </linearGradient>

        <filter id="Filter_1" x="-20%" y="-20%" width="140%" height="140%" color-interpolation-filters="sRGB">
            <feColorMatrix in="SourceGraphic" type="matrix"
                           values="0 0 0 0 0.9215686274509803 0 0 0 0 0.4627450980392157 0 0 0 0 0.5803921568627451 0 0 0 1 0"
                           result="result1"/>
        </filter>

        <g id="Symbol_1_0_Layer0_0_FILL">
            <path fill="url(#Gradient_1)" stroke="none" d="
M 480 360
L 480 0 0 0 0 360 480 360 Z"/>
        </g>

        <g id="Symbol_438_0_Layer0_0_FILL">
            <path fill="#59556E" stroke="none" d="
M -13.4 -6.05
Q -14.6 -6.05 -15.5 -5.2 -16.3 -4.3 -16.3 -3.15
L -16.3 3.1
Q -16.3 4.3 -15.5 5.15 -14.6 6 -13.4 6
L -4.65 6
Q -3.45 6 -2.6 5.15 -1.75 4.3 -1.75 3.1
L -1.75 -3.15
Q -1.75 -4.3 -2.6 -5.2 -3.45 -6.05 -4.65 -6.05
L -13.4 -6.05
M -14.3 -3.15
L -14.05 -3.75 -13.45 -4 -4.65 -4 -4.05 -3.75
Q -3.75 -3.5 -3.75 -3.15
L -3.75 3.1
Q -3.75 3.5 -4.05 3.75
L -4.65 4 -13.45 4 -14.05 3.75 -14.3 3.1 -14.3 -3.15
M -30.2 -6.05
Q -30.7 -6.05 -30.7 -5.55
L -30.7 3.1
Q -30.7 4.3 -29.85 5.15 -29 6 -27.8 6
L -18.3 6
Q -17.8 6 -17.8 5.55
L -17.8 4.5
Q -17.8 4 -18.3 4
L -27.8 4 -28.4 3.75 -28.7 3.1 -28.7 -5.55
Q -28.7 -6.05 -29.15 -6.05
L -30.2 -6.05
M 18.2 -1.25
L 18.2 -3.15 18.45 -3.75
Q 18.7 -4 19.05 -4
L 30.25 -4
Q 30.75 -4 30.75 -4.5
L 30.75 -5.55
Q 30.75 -6.05 30.25 -6.05
L 19.1 -6.05
Q 17.9 -6.05 17 -5.2 16.2 -4.3 16.2 -3.15
L 16.2 3.1
Q 16.2 4.3 17 5.15 17.9 6 19.1 6
L 30.25 6
Q 30.75 6 30.75 5.55
L 30.75 4.5
Q 30.75 4 30.25 4
L 19.05 4
Q 18.7 4 18.45 3.75
L 18.2 3.1 18.2 1.25
Q 18.2 1 18.45 1
L 29.9 1
Q 30.35 1 30.35 0.5
L 30.35 -0.55 29.9 -1 18.45 -1
Q 18.2 -1 18.2 -1.25
M 1.9 -1.95
L 1.9 -5.55
Q 1.9 -6.05 1.45 -6.05
L 0.4 -6.05
Q -0.1 -6.05 -0.1 -5.55
L -0.1 -1.95
Q -0.1 0.4 1.6 2
L 5.15 5.3
Q 6 6.1 7.2 6.1 8.4 6.1 9.25 5.3
L 12.75 2
Q 14.45 0.4 14.45 -1.95
L 14.45 -5.55
Q 14.45 -6.05 14 -6.05
L 12.95 -6.05
Q 12.45 -6.05 12.45 -5.55
L 12.45 -1.95
Q 12.45 -0.5 11.4 0.5
L 7.9 3.8 7.2 4.1
Q 6.8 4.1 6.5 3.8
L 3 0.55
Q 1.9 -0.5 1.9 -1.95 Z"/>
        </g>

        <g id="Symbol_441_0_Layer1_0_FILL">
            <path fill="#CCCCCC" stroke="none" d="
M -15.85 -5.55
L -15.85 -5.5
Q -16.8 -4.5 -16.8 -3.15
L -16.8 3.1
Q -16.8 4.5 -15.85 5.5
L -15.85 5.55
Q -14.8 6.5 -13.4 6.5
L -4.65 6.5
Q -3.25 6.5 -2.25 5.5 -1.25 4.5 -1.25 3.1
L -1.25 -3.15
Q -1.25 -4.5 -2.2 -5.55
L -2.25 -5.55
Q -3.25 -6.55 -4.65 -6.55
L -13.4 -6.55
Q -14.8 -6.55 -15.85 -5.55
M -16.3 -3.15
Q -16.3 -4.3 -15.5 -5.2 -14.6 -6.05 -13.4 -6.05
L -4.65 -6.05
Q -3.45 -6.05 -2.6 -5.2 -1.75 -4.3 -1.75 -3.15
L -1.75 3.1
Q -1.75 4.3 -2.6 5.15 -3.45 6 -4.65 6
L -13.4 6
Q -14.6 6 -15.5 5.15 -16.3 4.3 -16.3 3.1
L -16.3 -3.15
M -14.05 -3.75
L -14.3 -3.15 -14.3 3.1 -14.05 3.75 -13.45 4 -4.65 4 -4.05 3.75
Q -3.75 3.5 -3.75 3.1
L -3.75 -3.15
Q -3.75 -3.5 -4.05 -3.75
L -4.65 -4 -13.45 -4 -14.05 -3.75
M -13.7 -3.4
L -13.45 -3.5 -4.65 -3.5 -4.4 -3.4 -4.35 -3.35 -4.25 -3.15 -4.25 3.1 -4.35 3.4 -4.4 3.4 -4.65 3.5 -13.45 3.5 -13.7 3.4 -13.8 3.1 -13.8 -3.15 -13.7 -3.4
M -28.2 -5.55
Q -28.2 -6.6 -29.15 -6.55
L -30.2 -6.55
Q -31.2 -6.55 -31.2 -5.55
L -31.2 3.1
Q -31.2 4.5 -30.2 5.5 -29.2 6.5 -27.8 6.5
L -18.3 6.5
Q -17.25 6.5 -17.3 5.55
L -17.3 4.5
Q -17.3 3.5 -18.3 3.5
L -27.8 3.5 -28.05 3.4 -28.2 3.1 -28.2 -5.55
M -30.2 -6.05
L -29.15 -6.05
Q -28.7 -6.05 -28.7 -5.55
L -28.7 3.1 -28.4 3.75 -27.8 4 -18.3 4
Q -17.8 4 -17.8 4.5
L -17.8 5.55
Q -17.8 6 -18.3 6
L -27.8 6
Q -29 6 -29.85 5.15 -30.7 4.3 -30.7 3.1
L -30.7 -5.55
Q -30.7 -6.05 -30.2 -6.05
M 18.7 -3.15
L 18.8 -3.4 19.05 -3.5 30.25 -3.5
Q 31.25 -3.5 31.25 -4.5
L 31.25 -5.55
Q 31.25 -6.55 30.25 -6.55
L 19.1 -6.55
Q 17.7 -6.55 16.65 -5.55
L 16.65 -5.5
Q 15.7 -4.5 15.7 -3.15
L 15.7 3.1
Q 15.7 4.5 16.65 5.5
L 16.65 5.55
Q 17.7 6.5 19.1 6.5
L 30.25 6.5
Q 31.3 6.5 31.25 5.55
L 31.25 4.5
Q 31.25 3.5 30.25 3.5
L 19.05 3.5 18.8 3.4 18.7 3.1 18.7 1.5 29.9 1.5
Q 30.85 1.55 30.85 0.5
L 30.85 -0.55
Q 30.85 -1.5 29.9 -1.5
L 18.7 -1.5 18.7 -3.15
M 19.05 -4
Q 18.7 -4 18.45 -3.75
L 18.2 -3.15 18.2 -1.25
Q 18.2 -1 18.45 -1
L 29.9 -1 30.35 -0.55 30.35 0.5
Q 30.35 1 29.9 1
L 18.45 1
Q 18.2 1 18.2 1.25
L 18.2 3.1 18.45 3.75
Q 18.7 4 19.05 4
L 30.25 4
Q 30.75 4 30.75 4.5
L 30.75 5.55
Q 30.75 6 30.25 6
L 19.1 6
Q 17.9 6 17 5.15 16.2 4.3 16.2 3.1
L 16.2 -3.15
Q 16.2 -4.3 17 -5.2 17.9 -6.05 19.1 -6.05
L 30.25 -6.05
Q 30.75 -6.05 30.75 -5.55
L 30.75 -4.5
Q 30.75 -4 30.25 -4
L 19.05 -4
M 2.4 -5.55
Q 2.4 -6.6 1.45 -6.55
L 0.4 -6.55
Q -0.6 -6.55 -0.6 -5.55
L -0.6 -1.95
Q -0.6 0.6 1.25 2.4
L 4.8 5.7
Q 5.8 6.6 7.2 6.6 8.6 6.6 9.6 5.7
L 13.1 2.4
Q 14.95 0.6 14.95 -1.95
L 14.95 -5.55
Q 14.95 -6.6 14 -6.55
L 12.95 -6.55
Q 11.95 -6.55 11.95 -5.55
L 11.95 -1.95
Q 11.95 -0.7 11.05 0.15
L 7.55 3.45 7.2 3.6 6.85 3.45 3.35 0.2
Q 2.4 -0.7 2.4 -1.95
L 2.4 -5.55
M 1.9 -5.55
L 1.9 -1.95
Q 1.9 -0.5 3 0.55
L 6.5 3.8
Q 6.8 4.1 7.2 4.1
L 7.9 3.8 11.4 0.5
Q 12.45 -0.5 12.45 -1.95
L 12.45 -5.55
Q 12.45 -6.05 12.95 -6.05
L 14 -6.05
Q 14.45 -6.05 14.45 -5.55
L 14.45 -1.95
Q 14.45 0.4 12.75 2
L 9.25 5.3
Q 8.4 6.1 7.2 6.1 6 6.1 5.15 5.3
L 1.6 2
Q -0.1 0.4 -0.1 -1.95
L -0.1 -5.55
Q -0.1 -6.05 0.4 -6.05
L 1.45 -6.05
Q 1.9 -6.05 1.9 -5.55 Z"/>

            <path fill="#FFFFFF" stroke="none" d="
M -15.5 -5.2
Q -16.3 -4.3 -16.3 -3.15
L -16.3 3.1
Q -16.3 4.3 -15.5 5.15 -14.6 6 -13.4 6
L -4.65 6
Q -3.45 6 -2.6 5.15 -1.75 4.3 -1.75 3.1
L -1.75 -3.15
Q -1.75 -4.3 -2.6 -5.2 -3.45 -6.05 -4.65 -6.05
L -13.4 -6.05
Q -14.6 -6.05 -15.5 -5.2
M -14.3 -3.15
L -14.05 -3.75 -13.45 -4 -4.65 -4 -4.05 -3.75
Q -3.75 -3.5 -3.75 -3.15
L -3.75 3.1
Q -3.75 3.5 -4.05 3.75
L -4.65 4 -13.45 4 -14.05 3.75 -14.3 3.1 -14.3 -3.15
M -29.15 -6.05
L -30.2 -6.05
Q -30.7 -6.05 -30.7 -5.55
L -30.7 3.1
Q -30.7 4.3 -29.85 5.15 -29 6 -27.8 6
L -18.3 6
Q -17.8 6 -17.8 5.55
L -17.8 4.5
Q -17.8 4 -18.3 4
L -27.8 4 -28.4 3.75 -28.7 3.1 -28.7 -5.55
Q -28.7 -6.05 -29.15 -6.05
M 18.45 -3.75
Q 18.7 -4 19.05 -4
L 30.25 -4
Q 30.75 -4 30.75 -4.5
L 30.75 -5.55
Q 30.75 -6.05 30.25 -6.05
L 19.1 -6.05
Q 17.9 -6.05 17 -5.2 16.2 -4.3 16.2 -3.15
L 16.2 3.1
Q 16.2 4.3 17 5.15 17.9 6 19.1 6
L 30.25 6
Q 30.75 6 30.75 5.55
L 30.75 4.5
Q 30.75 4 30.25 4
L 19.05 4
Q 18.7 4 18.45 3.75
L 18.2 3.1 18.2 1.25
Q 18.2 1 18.45 1
L 29.9 1
Q 30.35 1 30.35 0.5
L 30.35 -0.55 29.9 -1 18.45 -1
Q 18.2 -1 18.2 -1.25
L 18.2 -3.15 18.45 -3.75
M 1.9 -1.95
L 1.9 -5.55
Q 1.9 -6.05 1.45 -6.05
L 0.4 -6.05
Q -0.1 -6.05 -0.1 -5.55
L -0.1 -1.95
Q -0.1 0.4 1.6 2
L 5.15 5.3
Q 6 6.1 7.2 6.1 8.4 6.1 9.25 5.3
L 12.75 2
Q 14.45 0.4 14.45 -1.95
L 14.45 -5.55
Q 14.45 -6.05 14 -6.05
L 12.95 -6.05
Q 12.45 -6.05 12.45 -5.55
L 12.45 -1.95
Q 12.45 -0.5 11.4 0.5
L 7.9 3.8 7.2 4.1
Q 6.8 4.1 6.5 3.8
L 3 0.55
Q 1.9 -0.5 1.9 -1.95 Z"/>
        </g>

        <g id="tv_0_Layer1_0_FILL">
            <path fill="#59556E" stroke="none" d="
M 240.15 332.95
L 242.25 339.4 256.75 339.4 252.9 327.9 240.15 332.95
M 16.6 332.95
L 3.85 327.9 0 339.4 14.5 339.4 16.6 332.95
M 237.05 79.5
L 184.75 79.5 184.75 228.25 237.05 228.25 237.05 79.5
M 186.35 81.25
L 235.5 81.25 235.5 226.55 186.35 226.55 186.35 81.25
M 212.25 86.05
L 209.35 86.05 210.8 88.9 212.25 86.05
M 223.4 97.1
Q 218.15 91.8 210.7 91.8 203.2 91.8 197.95 97.1 192.7 102.45 192.7 109.95 192.7 117.5 197.95 122.8 202.3 127.25 208.25 128 209.45 128.15 210.7 128.15 211.95 128.15 213.15 128 219.05 127.25 223.4 122.8 228.7 117.5 228.7 109.95 228.7 102.45 223.4 97.1
M 221.25 99.45
Q 225.65 103.85 225.65 110 225.65 116.25 221.25 120.55 216.9 124.95 210.7 124.95 204.4 124.95 200.05 120.55 195.65 116.25 195.65 110 195.65 103.85 200.05 99.45 204.4 95.1 210.7 95.1 216.9 95.1 221.25 99.45 Z"/>

            <path fill="#A7967A" stroke="none" d="
M 228.65 238.85
L 209.35 238.85 239 333.4 240.15 332.95 252.9 327.9 254.7 327.05 228.65 238.85
M 47.4 238.85
L 28.1 238.85 2.05 327.05 3.85 327.9 16.6 332.95 17.75 333.4 47.4 238.85
M 123.4 41.25
L 123.4 44.4 123.4 47.6
Q 94.5 48.9 89.6 68.85
L 164.2 68.85
Q 159.3 48.9 130.5 47.6
L 130.5 41.25 123.4 41.25 Z"/>

            <path fill="#79624D" stroke="none" d="
M 237.05 68.85
L 164.2 68.85 89.6 68.85 17.05 68.85
Q 7.05 68.85 7.05 79.5
L 7.05 228.25
Q 7.05 238.85 17.05 238.85
L 28.1 238.85 47.4 238.85 209.35 238.85 228.65 238.85 237.05 238.85
Q 247.05 238.85 247.05 228.25
L 247.05 79.5
Q 247.05 68.85 237.05 68.85
M 184.75 79.5
L 237.05 79.5 237.05 228.25 184.75 228.25 18.2 228.25 18.2 79.5 184.75 79.5 Z"/>

            <path fill="#999999" stroke="none" d="
M 184.75 228.25
L 184.75 79.5 18.2 79.5 18.2 228.25 184.75 228.25
M 168.15 100.15
Q 174.1 101.7 174.55 107.85 180.65 153 174.55 200.9 174.1 207 168.15 208.55 135.35 216.3 101.95 215.65 68.55 216.25 35.75 208.5 29.8 206.95 29.3 200.85 23.25 152.95 29.3 107.8 29.8 101.6 35.75 100.1 68.55 92.35 101.95 93
L 101.95 93.05
Q 135.35 92.4 168.15 100.15 Z"/>

            <path fill="#6C716A" stroke="none" d="
M 174.55 107.85
Q 174.1 101.7 168.15 100.15 135.35 92.4 101.95 93.05
L 101.95 93
Q 68.55 92.35 35.75 100.1 29.8 101.6 29.3 107.8 23.25 152.95 29.3 200.85 29.8 206.95 35.75 208.5 68.55 216.25 101.95 215.65 135.35 216.3 168.15 208.55 174.1 207 174.55 200.9 180.65 153 174.55 107.85 Z"/>

            <path fill="#CCCCCC" stroke="none" d="
M 235.5 81.25
L 186.35 81.25 186.35 226.55 235.5 226.55 235.5 81.25
M 210.7 91.8
Q 218.15 91.8 223.4 97.1 228.7 102.45 228.7 109.95 228.7 117.5 223.4 122.8 219.05 127.25 213.15 128 211.95 128.15 210.7 128.15 209.45 128.15 208.25 128 202.3 127.25 197.95 122.8 192.7 117.5 192.7 109.95 192.7 102.45 197.95 97.1 203.2 91.8 210.7 91.8
M 209.35 86.05
L 212.25 86.05 210.8 88.9 209.35 86.05
M 211.15 147.95
Q 208.85 147.95 207.25 146.3 205.65 144.75 205.65 142.45 205.65 140.15 207.25 138.55 208.85 136.95 211.15 136.95 213.45 136.95 215.05 138.55 216.65 140.15 216.65 142.45 216.65 144.75 215.05 146.3 213.45 147.95 211.15 147.95
M 215.05 159.15
Q 216.65 160.75 216.65 163.05 216.65 165.35 215.05 166.9 213.45 168.55 211.15 168.55 208.85 168.55 207.25 166.9 205.65 165.35 205.65 163.05 205.65 160.75 207.25 159.15 208.85 157.55 211.15 157.55 213.45 157.55 215.05 159.15
M 192.95 180.15
L 228.7 180.15 192.95 180.15
M 192.7 192.65
L 228.45 192.65 192.7 192.65
M 192.7 186.45
L 228.45 186.45 192.7 186.45
M 192.95 205.1
L 228.7 205.1 192.95 205.1
M 192.95 198.85
L 228.7 198.85 192.95 198.85
M 192.95 211.3
L 228.7 211.3 192.95 211.3
M 192.95 217.5
L 228.7 217.5 192.95 217.5
M 216.65 163.05
Q 216.65 160.75 215.05 159.15 213.45 157.55 211.15 157.55 208.85 157.55 207.25 159.15 205.65 160.75 205.65 163.05 205.65 165.35 207.25 166.9 208.85 168.55 211.15 168.55 213.45 168.55 215.05 166.9 216.65 165.35 216.65 163.05
M 207.25 146.3
Q 208.85 147.95 211.15 147.95 213.45 147.95 215.05 146.3 216.65 144.75 216.65 142.45 216.65 140.15 215.05 138.55 213.45 136.95 211.15 136.95 208.85 136.95 207.25 138.55 205.65 140.15 205.65 142.45 205.65 144.75 207.25 146.3
M 225.65 110
Q 225.65 103.85 221.25 99.45 216.9 95.1 210.7 95.1 204.4 95.1 200.05 99.45 195.65 103.85 195.65 110 195.65 116.25 200.05 120.55 204.4 124.95 210.7 124.95 216.9 124.95 221.25 120.55 225.65 116.25 225.65 110
M 216.45 104.45
Q 218.8 106.8 218.8 110.05 218.8 113.4 216.45 115.7 214.15 118 210.8 118 207.45 118 205.15 115.7 202.8 113.4 202.8 110.05 202.8 106.8 205.15 104.45 207.45 102.1 210.8 102.1 214.15 102.1 216.45 104.45
M 205.65 118.85
L 203.85 121.9 205.65 118.85
M 216.1 118.85
L 217.9 121.9 216.1 118.85
M 219.85 104.95
L 222.9 103.2 219.85 104.95
M 210.8 120.25
L 210.8 123.8 210.8 120.25
M 224.6 109.95
L 221.05 109.95 224.6 109.95
M 224.6 111.35
L 221.05 111.35 224.6 111.35
M 219.85 115
L 222.9 116.75 219.85 115
M 201.8 104.95
L 198.75 103.2 201.8 104.95
M 200.25 109.95
L 196.7 109.95 200.25 109.95
M 201.8 115
L 198.75 116.75 201.8 115
M 216.1 101.05
L 217.9 98.05 216.1 101.05
M 215.15 100.55
L 216.1 97.2 215.15 100.55
M 205.65 101.05
L 203.85 98.05 205.65 101.05
M 210.8 96
L 210.8 99.5 210.8 96
M 218.8 110.05
Q 218.8 106.8 216.45 104.45 214.15 102.1 210.8 102.1 207.45 102.1 205.15 104.45 202.8 106.8 202.8 110.05 202.8 113.4 205.15 115.7 207.45 118 210.8 118 214.15 118 216.45 115.7 218.8 113.4 218.8 110.05 Z"/>
        </g>

        <g id="FL_980_0_Layer3_0_FILL">
            <path fill="#FFFFFF" stroke="none" d="
M 57 38.1
L 57 33.85 37.6 33.85 49.6 28.15 39.35 0 33.6 8.35 23.4 8.35 17.65 0 7.4 28.15 7.35 28.15 19.4 33.85 0 38.55 0 42.35 21.4 39.3 21.4 51.75 13.85 72.55 21.45 72.55 25.9 57.6 31.1 57.6 35.55 72.55 43.15 72.55 35.6 51.75 35.6 39.3 57 38.1
M 34.2 20.9
L 36.95 23.25 34.2 20.9 37.1 18.75 34.2 20.9
M 28.5 49.1
L 29.6 48.1 28.5 49.1 29.6 50.1 28.5 49.1 27.4 50.1 28.5 49.1 27.4 48.1 28.5 49.1
M 26.1 29.2
L 28.1 31.1 26.1 29.2 28.25 26.85 30.4 29.2 28.4 31.1 30.4 29.2 28.25 26.85 26.1 29.2
M 22.85 20.9
L 20.1 23.25 22.85 20.9 19.95 18.75 22.85 20.9 Z"/>
        </g>

        <g id="FL_980_0_Layer2_0_FILL">
            <path fill="#FFFFFF" stroke="none" d="
M 12.7 30.65
L 12.7 29.25 12.6 29.25
Q 12.5177734375 29.7064453125 12.45 29.95 12.38515625 30.2419921875 12.3 30.5
L 12.7 30.65
M 48.95 22.75
L 49.35 22.75 48.2 19.8
Q 48.6216796875 21.241796875 48.95 22.75 Z"/>

            <path fill="#E8D682" stroke="none" d="
M 42.35 4.4
Q 42.1896484375 4.309375 42 4.2 41.692578125 4.0482421875 41.35 3.9 41.0873046875 3.7791015625 40.8 3.65 41.5103515625 3.96875 42.35 4.4
M 43.75 5.35
Q 43.101171875 4.81640625 42.35 4.4 41.5103515625 3.96875 40.8 3.65 39.8763671875 3.2955078125 38.65 2.95 38.5865234375 2.94765625 38.5 2.9 36.498828125 2.42734375 33.75 2.05 32.7806640625 1.9244140625 31.85 1.8 30.589453125 1.7166015625 29.4 1.65 29.021484375 1.6578125 28.65 1.65 26.25 1.7 23.55 2.05 23.21953125 2.0939453125 22.9 2.15 22.4908203125 2.2072265625 22.1 2.25 20.0775390625 2.583984375 18.55 3 17.1765625 3.3615234375 16.2 3.8 16.05 3.85 15.95 3.9 15.404296875 4.1359375 14.9 4.4 13.687109375 5.112890625 12.7 6.1 11.4 7.4 11.05 8.05 10.7 8.7 9.9 10.5 9.3 11.75 8.55 14.75 8.25 15.8 7.95 17.15 8.25 16.9 8.55 16.7 10.1912109375 15.49921875 10.65 15.15 10.76015625 15.0798828125 10.8 15.05 10.1 16.7 9.55 18.4 9.5 18.6 9.45 18.8 8.95 20.3 8.55 21.85 7.8166015625 24.8650390625 7.35 28.15 7.2833984375 28.891015625 7.2 29.65 7.5755859375 29.014453125 7.95 28.4 8.254296875 28.001171875 8.55 27.6 9.3 26.5 10.05 25.55 9.5310546875 27.601953125 9.25 29.05 8.997265625 30.6783203125 9.05 31.55 9.8 30.6 10.55 30.05
L 10.55 31.55
Q 10.55 31.7064453125 10.6 31.8 10.66171875 31.9 10.8 31.9 10.95 31.9 11.05 31.8 11.4 31.45 12.15 31.4 12.217578125 31.028515625 12.3 30.5 12.38515625 30.2419921875 12.45 29.95 12.5177734375 29.7064453125 12.6 29.25 12.930078125 28.0212890625 13.55 25.25 14.35 21.55 14.45 20.8 13.95 19.9 13.75 18.8 13.7 18.6 13.7 18.4 13.5 16.9 13.85 15.1 14.65 10.8 16.8 7.9 14.65 10.8 13.85 15.1 13.5 16.9 13.7 18.4 13.7 18.6 13.75 18.8 13.95 19.9 14.45 20.8 14.7 21.35 15.15 21.85 15.3 20.45 16 18.8 16.05 18.6 16.15 18.4 17.15 16 19.2 13.15 19.3 13.05 19.4 12.95 19.3 13.05 19.2 13.15 19.1611328125 14.551953125 18.95 15.95 18.87734375 16.391015625 18.8 16.8 19.2 16.65 19.7 16.15 19.8806640625 15.927734375 20.05 15.7 21.369921875 13.9470703125 22.1 11.9 22.296484375 11.3662109375 22.45 10.8 22.387890625 9.96015625 22.4 9.1 22.412109375 8.5791015625 22.45 8.05 22.412109375 8.5791015625 22.4 9.1 22.387890625 9.96015625 22.45 10.8 22.5291015625 12.460546875 22.9 14.1 22.9341796875 14.2501953125 22.95 14.4 23.114453125 14.9763671875 23.3 15.55 23.515625 16.2771484375 23.8 17 24 17.45 24.2 17.9 24.551171875 16.811328125 24.75 15.55 24.8755859375 15.015625 24.95 14.45
L 24.95 14.4
Q 24.8 12.4 25.05 11.4 25.884375 12.9359375 26.6 14.4 26.886328125 14.980859375 27.15 15.55 27.9916015625 17.33046875 28.65 19 29.2341796875 17.5185546875 29.95 15.95 30.3052734375 15.185546875 30.7 14.4 31.241015625 13.2931640625 31.85 12.15 32.046484375 11.774609375 32.25 11.4 32.5 12.4 32.35 14.4
L 32.35 14.45
Q 32.4525390625 15.2294921875 32.6 15.95 32.805078125 16.9859375 33.1 17.9 33.5486328125 16.9328125 33.85 15.95 34.7419921875 13.4267578125 34.85 10.8 34.928515625 9.739453125 34.85 8.65 34.871484375 8.3501953125 34.85 8.05 34.871484375 8.3501953125 34.85 8.65 34.928515625 9.739453125 34.85 10.8 35.5796875 13.490625 37.25 15.7 37.3560546875 15.837890625 37.45 15.95 37.5189453125 16.050390625 37.6 16.15 38.1 16.65 38.5 16.8 38.4443359375 16.50546875 38.4 16.2 38.3791015625 16.075 38.35 15.95 38.138671875 14.5404296875 38.1 13.15 38 13.05 37.9 12.95 38 13.05 38.1 13.15 39.138671875 14.6068359375 39.9 15.95 40.4431640625 16.8638671875 40.85 17.7 41.9181640625 19.9693359375 42.15 21.85 42.6 21.35 42.85 20.8 43.9404296875 18.7935546875 43.55 15.95 43.5330078125 15.533984375 43.45 15.1 43.4265625 14.9744140625 43.4 14.85 42.5873046875 10.715234375 40.5 7.9 42.5873046875 10.715234375 43.4 14.85 43.4265625 14.9744140625 43.45 15.1 43.5330078125 15.533984375 43.55 15.95 43.9404296875 18.7935546875 42.85 20.8 42.909765625 21.2482421875 43.2 22.75 43.4580078125 23.7611328125 43.8 25.25 44.6 29.05 44.85 29.95 44.905078125 30.169921875 44.95 30.35 45.1220703125 31.0708984375 45.2 31.5 45.9 31.45 46.25 31.8 46.35 31.9 46.5 31.9 46.75 31.9 46.75 31.55
L 46.75 30.05
Q 47.5 30.6 48.25 31.55 48.305078125 30.6427734375 48 28.9 47.7451171875 27.508203125 47.25 25.55 48.261328125 26.8404296875 49.25 28.3 49.6765625 28.9693359375 50.1 29.65 50.01328125 28.8234375 49.9 28 49.54375 25.2927734375 48.95 22.75 48.6216796875 21.241796875 48.2 19.8 47.6078125 17.812109375 46.85 15.95 46.6888671875 15.496484375 46.5 15.05 46.6572265625 15.1443359375 47.75 15.95 48.3845703125 16.42578125 49.35 17.15 49.203125 16.52421875 49.05 15.95 48.915625 15.37421875 48.75 14.85 47.9955078125 11.8025390625 47.4 10.5 46.6 8.7 46.25 8.05 45.9 7.4 44.6 6.1 44.2001953125 5.7001953125 43.75 5.35 Z"/>
        </g>

        <g id="FL_980_0_Layer1_0_FILL">
            <path fill="#FFFFFF" stroke="none" d="
M 42.65 32.9
L 41.7 32.5 38.4 33.8 38.9 35.75 36.9 35.9 38.65 39.6 43.4 39.6 44.8 37.65 43.05 37.95 43.7 35.6 43.05 37.95 44.8 37.65 46.45 35.9 44.95 35.35 45.45 34.2 44.65 33.55 44.35 32.9 43 32.95 42.3 34.55 43 32.95 42.65 32.9
M 43.25 34.15
L 42.65 36 43.25 34.15 Z"/>
        </g>

        <g id="FL_980_0_Layer0_0_FILL">
            <path fill="#D95151" stroke="none" d="
M -6.2 39.15
L -5.75 41.95 -0.85 41 -1.35 38.15 -6.2 39.15
M 2.8 46.8
L 1.75 40.45 1.25 37.6 0.1 30.65 -2.5 31.1 -1.35 38.15 -0.85 41 0.2 47.25 2.8 46.8
M 1.75 40.45
L 6.05 39.6 5.55 36.7 1.25 37.6 1.75 40.45
M 25.5 58.05
Q 25.25078125 54.1615234375 24.95 49.9
L 21.4 49.95 20.1 52.5
Q 19.2119140625 54.373046875 17.6 56.05
L 18.4 56.55 19.4 57.2
Q 22.155859375 54.03125 22.7 52.4
L 23.25 58.8 25.5 58.05
M 35.6 48.1
L 21.4 48.1 21.4 49.95 24.95 49.9 35.6 49.95 35.6 48.1
M 27.8 36.25
L 27.45 36.25 27.3 36.95 27.1 37.65 27.05 37.8 25.8 43.05 27.85 44.15 28.5 40.35 27.8 36.25
M 29.55 36.25
L 27.8 36.25 28.5 40.35 29.15 44.15 31.2 43.05 29.9 37.8 29.85 37.65 29.7 36.95 29.55 36.25
M 27.8 36.25
L 29.55 36.25 29.55 33.95 27.45 33.95 27.45 36.25 27.8 36.25 Z"/>

            <path fill="#86839E" stroke="none" d="
M -5.75 41.95
L -4.65 48.1 0.2 47.25 -0.85 41 -5.75 41.95
M -1.35 38.15
L -2.5 31.1 -7.45 31.95 -6.2 39.15 -1.35 38.15
M 6.05 39.6
L 1.75 40.45 2.8 46.8 7.2 46.05 6.05 39.6
M 4.4 29.9
L 0.1 30.65 1.25 37.6 5.55 36.7 4.4 29.9 Z"/>

            <path fill="#59556E" stroke="none" d="
M 34.65 69.65
L 35.55 72.55 43.15 72.55 41.75 68.7
Q 38.9 69.4 34.65 69.65
M 21.45 72.55
L 22.3 69.6
Q 18.07578125 69.3908203125 15.25 68.65
L 13.85 72.55 21.45 72.55 Z"/>

            <path fill="#6B639C" stroke="none" d="
M 36.25 49.95
L 35.6 49.95 24.95 49.9
Q 25.25078125 54.1615234375 25.5 58.05
L 23.25 58.8 22.7 52.4
Q 22.155859375 54.03125 19.4 57.2
L 18.4 56.55 14.3 68.4
Q 14.754296875 68.541796875 15.25 68.65 18.07578125 69.3908203125 22.3 69.6 25.1072265625 69.793359375 28.5 69.75 31.9 69.8 34.65 69.65 38.9 69.4 41.75 68.7 42.25 68.55 42.7 68.4
L 36.25 49.95
M 27.3 36.95
L 25.3 36.25 25.3 38.9 24.05 37.9 24.05 40.85 22.8 39.6 21.45 41.35 21.05 38.5 20.5 38.85 20.5 48.1 21.4 48.1 35.6 48.1 36.5 48.1 36.5 38.85 35.95 38.5 35.55 41.35 34.2 39.6 32.95 40.85 32.95 37.9 31.7 38.9 31.7 36.25 29.7 36.95 29.85 37.65 29.9 37.8 31.2 43.05 29.15 44.15 28.5 40.35 27.85 44.15 25.8 43.05 27.05 37.8 27.1 37.65 27.3 36.95 Z"/>

            <path fill="#FFFFFF" stroke="none" d="
M 34.2 39.6
L 32.95 37.9 32.95 40.85 34.2 39.6
M 31.7 38.9
L 32.95 37.9 31.7 36.25 31.7 38.9
M 35.55 41.35
L 35.95 38.5 34.2 39.6 35.55 41.35
M 36.5 38.15
L 36.5 38.85 38 39.8 37.55 37.5 36.5 38.15
M 39.15 38
L 39.7 37.95 39.6 36.2 37.55 37.5 39.15 38.05 39.15 38
M 21.05 38.5
L 21.45 41.35 22.8 39.6 21.05 38.5
M 24.05 37.9
L 22.8 39.6 24.05 40.85 24.05 37.9
M 25.55 33.95
L 20.6 33.6 18.25 34.95 22.55 37.65 25.55 33.95
M 29.55 33.95
L 29.55 36.25 29.7 36.95 31.7 36.25 29.55 33.95
M 25.3 36.25
L 25.25 36.25 24.05 37.9 25.3 38.9 25.3 36.25
M 25.25 36.25
L 25.3 36.25 27.3 36.95 27.45 36.25 27.45 33.95 25.25 36.25
M 36.35 33.6
L 31.45 33.95 34.45 37.65 38.75 34.95 36.35 33.6
M 38.5 33.45
L 36.35 33.6 38.75 34.95 34.45 37.65 31.45 33.95 29.55 33.95 31.7 36.25 32.95 37.9 34.2 39.6 35.95 38.5 36.5 38.15 37.55 37.5 39.6 36.2 41.75 34.8 38.5 33.45
M 19.4 37.5
L 19 39.8 20.5 38.85 20.5 38.15 19.4 37.45 19.4 37.5
M 17.4 36.15
L 17.4 36.2 17.25 38.25 19.4 37.5 19.4 37.45 17.4 36.15
M 17.4 36.2
L 17.4 36.15 15.25 34.8 15.5 36.8 17.4 36.2
M 18.5 33.45
L 15.25 34.8 17.4 36.15 19.4 37.45 20.5 38.15 21.05 38.5 22.8 39.6 24.05 37.9 25.25 36.25 27.45 33.95 25.55 33.95 22.55 37.65 18.25 34.95 20.6 33.6 18.5 33.45
M 15.55 32.65
L 16.85 34.1 13.8 33.6 15.25 34.8 18.5 33.45 15.55 32.65
M 10.7 35.9
L 10.95 35.6 9.35 36.2 9.35 36.95 8.85 37.85 9.75 38.7 8.55 39.8 10.7 40.8 12.5 40.45 11 38.5 12.1 38.5 10.85 37 11.9 37 10.7 35.9
M 10.95 35.6
L 10.7 35.9 11.9 37 10.85 37 12.1 38.5 11 38.5 12.5 40.45 10.7 40.8 12.75 42.1 19 39.8 19.4 37.5 17.25 38.25 17.4 36.2 15.5 36.8 15.25 34.8 11.7 34.8 10.95 35.6
M 41.6 35.95
L 41.75 34.8 39.6 36.2 40.8 36.55 40.55 36.05 41.6 35.95
M 41.75 34.8
L 42.15 34.45 42.05 33.95 42.75 33.65 40.15 34.1 41.45 32.65 38.5 33.45 41.75 34.8 Z"/>
        </g>

        <path id="tv_0_Layer2_0_1_STROKES" stroke="#59556E" stroke-width="15" stroke-linejoin="miter"
              stroke-linecap="square" stroke-miterlimit="3" fill="none" d="
M 131.6 43.5
Q 148.1 26.6 157.3 16.95 166.6 7.25 168.75 3.25 170.9 -0.8 169 0.2 167.1 1.2 156.4 13.2 145.75 25.2 131.6 43.5 Z
M 89.6 68.85
Q 94.5 48.9 123.4 47.6
L 123.4 44.4
Q 106.9 27.5 97.7 17.85 88.4 8.15 86.25 4.15 84.1 0.1 86 1.1 87.9 2.1 98.6 14.1 109.25 26.1 123.4 44.4
L 123.4 41.25 130.5 41.25 130.5 47.6
Q 159.3 48.9 164.2 68.85"/>

        <path id="tv_0_Layer2_0_2_STROKES" stroke="#59556E" stroke-width="15" stroke-linejoin="round"
              stroke-linecap="round" fill="none" d="
M 164.2 68.85
L 237.05 68.85
Q 247.05 68.85 247.05 79.5
L 247.05 228.25
Q 247.05 238.85 237.05 238.85
L 228.65 238.85 254.7 327.05 252.9 327.9 256.75 339.4 242.25 339.4 240.15 332.95 239 333.4 209.35 238.85 47.4 238.85 17.75 333.4 16.6 332.95 14.5 339.4 0 339.4 3.85 327.9 2.05 327.05 28.1 238.85 17.05 238.85
Q 7.05 238.85 7.05 228.25
L 7.05 79.5
Q 7.05 68.85 17.05 68.85
L 89.6 68.85"/>

        <path id="tv_0_Layer1_0_1_STROKES" stroke="#59556E" stroke-width="1" stroke-linejoin="miter"
              stroke-linecap="square" stroke-miterlimit="3" fill="none" d="
M 131.6 43.5
Q 148.1 26.6 157.3 16.95 166.6 7.25 168.75 3.25 170.9 -0.8 169 0.2 167.1 1.2 156.4 13.2 145.75 25.2 131.6 43.5 Z
M 209.35 86.05
L 210.8 88.9 212.25 86.05 209.35 86.05 Z
M 89.6 68.85
Q 94.5 48.9 123.4 47.6
L 123.4 44.4
Q 106.9 27.5 97.7 17.85 88.4 8.15 86.25 4.15 84.1 0.1 86 1.1 87.9 2.1 98.6 14.1 109.25 26.1 123.4 44.4
L 123.4 41.25 130.5 41.25 130.5 47.6
Q 159.3 48.9 164.2 68.85
M 205.65 118.85
L 203.85 121.9
M 216.1 118.85
L 217.9 121.9
M 219.85 104.95
L 222.9 103.2
M 210.8 120.25
L 210.8 123.8
M 224.6 109.95
L 221.05 109.95
M 224.6 111.35
L 221.05 111.35
M 219.85 115
L 222.9 116.75
M 201.8 104.95
L 198.75 103.2
M 200.25 109.95
L 196.7 109.95
M 201.8 115
L 198.75 116.75
M 101.95 215.65
Q 68.55 216.25 35.75 208.5 29.8 206.95 29.3 200.85 23.25 152.95 29.3 107.8 29.8 101.6 35.75 100.1 68.55 92.35 101.95 93
L 101.95 93.05
Q 135.35 92.4 168.15 100.15 174.1 101.7 174.55 107.85 180.65 153 174.55 200.9 174.1 207 168.15 208.55 135.35 216.3 101.95 215.65 Z
M 216.1 101.05
L 217.9 98.05
M 215.15 100.55
L 216.1 97.2
M 205.65 101.05
L 203.85 98.05
M 210.8 96
L 210.8 99.5"/>

        <path id="tv_0_Layer1_0_2_STROKES" stroke="#59556E" stroke-width="1" stroke-linejoin="round"
              stroke-linecap="round" fill="none" d="
M 184.75 79.5
L 237.05 79.5 237.05 228.25 184.75 228.25 18.2 228.25 18.2 79.5 184.75 79.5 184.75 228.25
M 186.35 81.25
L 186.35 226.55 235.5 226.55 235.5 81.25 186.35 81.25 Z
M 164.2 68.85
L 237.05 68.85
Q 247.05 68.85 247.05 79.5
L 247.05 228.25
Q 247.05 238.85 237.05 238.85
L 228.65 238.85 254.7 327.05 252.9 327.9 256.75 339.4 242.25 339.4 240.15 332.95 239 333.4 209.35 238.85 47.4 238.85 17.75 333.4 16.6 332.95 14.5 339.4 0 339.4 3.85 327.9 2.05 327.05 28.1 238.85 17.05 238.85
Q 7.05 238.85 7.05 228.25
L 7.05 79.5
Q 7.05 68.85 17.05 68.85
L 89.6 68.85 164.2 68.85 Z
M 218.8 110.05
Q 218.8 113.4 216.45 115.7 214.15 118 210.8 118 207.45 118 205.15 115.7 202.8 113.4 202.8 110.05 202.8 106.8 205.15 104.45 207.45 102.1 210.8 102.1 214.15 102.1 216.45 104.45 218.8 106.8 218.8 110.05 Z
M 47.4 238.85
L 28.1 238.85
M 3.85 327.9
L 16.6 332.95
M 228.65 238.85
L 209.35 238.85
M 252.9 327.9
L 240.15 332.95"/>

        <path id="tv_0_Layer1_0_3_STROKES" stroke="#59556E" stroke-width="4" stroke-linejoin="miter"
              stroke-linecap="square" stroke-miterlimit="3" fill="none" d="
M 192.95 180.15
L 228.7 180.15
M 192.7 192.65
L 228.45 192.65
M 192.7 186.45
L 228.45 186.45
M 192.95 205.1
L 228.7 205.1
M 192.95 198.85
L 228.7 198.85
M 192.95 211.3
L 228.7 211.3
M 192.95 217.5
L 228.7 217.5"/>

        <path id="tv_0_Layer1_0_4_STROKES" stroke="#59556E" stroke-width="2" stroke-linejoin="round"
              stroke-linecap="round" fill="none" d="
M 216.65 142.45
Q 216.65 144.75 215.05 146.3 213.45 147.95 211.15 147.95 208.85 147.95 207.25 146.3 205.65 144.75 205.65 142.45 205.65 140.15 207.25 138.55 208.85 136.95 211.15 136.95 213.45 136.95 215.05 138.55 216.65 140.15 216.65 142.45 Z
M 216.65 163.05
Q 216.65 165.35 215.05 166.9 213.45 168.55 211.15 168.55 208.85 168.55 207.25 166.9 205.65 165.35 205.65 163.05 205.65 160.75 207.25 159.15 208.85 157.55 211.15 157.55 213.45 157.55 215.05 159.15 216.65 160.75 216.65 163.05 Z"/>

        <path id="FL_980_0_Layer3_0_1_STROKES" stroke="#59556E" stroke-width="1" stroke-linejoin="round"
              stroke-linecap="round" fill="none" d="
M 37.6 33.85
L 57 33.85 57 38.1 35.6 39.3 35.6 51.75 43.15 72.55 35.55 72.55 31.1 57.6 25.9 57.6 21.45 72.55 13.85 72.55 21.4 51.75 21.4 39.3 0 42.35 0 38.55 19.4 33.85 7.375 28.15 7.4 28.15 17.65 0 23.4 8.35 33.6 8.35 39.35 0 49.6 28.15 37.6 33.85 Z
M 37.1 18.75
L 34.2 20.9 36.95 23.25
M 27.4 48.1
L 28.5 49.1 29.6 48.1
M 28.4 31.1
L 30.4 29.2 28.25 26.85 26.1 29.2 28.1 31.1
M 19.95 18.75
L 22.85 20.9 20.1 23.25
M 27.4 50.1
L 28.5 49.1 29.6 50.1"/>

        <path id="FL_980_0_Layer2_0_1_STROKES" stroke="#59556E" stroke-width="1" stroke-linejoin="round"
              stroke-linecap="round" fill="none" d="
M 48.2 19.8
Q 47.6078125 17.812109375 46.875 15.95 46.6888671875 15.496484375 46.5 15.05 46.6572265625 15.1443359375 47.75 15.95 48.3845703125 16.42578125 49.35 17.15 49.203125 16.52421875 49.05 15.95 48.915625 15.37421875 48.775 14.85 47.9955078125 11.8025390625 47.4 10.5 46.6 8.7 46.25 8.05 45.9 7.4 44.6 6.1 44.2001953125 5.7001953125 43.775 5.35 43.101171875 4.81640625 42.35 4.4 41.5103515625 3.96875 40.8 3.675 39.8763671875 3.2955078125 38.675 2.975
M 38.5 2.925
Q 36.498828125 2.42734375 33.75 2.05 32.7806640625 1.9244140625 31.85 1.825 30.589453125 1.7166015625 29.4 1.675 29.021484375 1.6578125 28.65 1.65 26.25 1.7 23.55 2.05 23.21953125 2.0939453125 22.9 2.15 22.4908203125 2.2072265625 22.1 2.275 20.0775390625 2.583984375 18.55 3 17.1765625 3.3615234375 16.2 3.8 16.05 3.85 15.95 3.9 15.404296875 4.1359375 14.9 4.425 13.687109375 5.112890625 12.7 6.1 11.4 7.4 11.05 8.05 10.7 8.7 9.9 10.5 9.3 11.75 8.55 14.75 8.25 15.8 7.95 17.15 8.25 16.9 8.55 16.7 10.1912109375 15.49921875 10.65 15.175 10.76015625 15.0798828125 10.8 15.05 10.1 16.7 9.55 18.4 9.5 18.6 9.45 18.8 8.95 20.3 8.55 21.85 7.8166015625 24.8650390625 7.375 28.15 7.2833984375 28.891015625 7.2 29.65 7.5755859375 29.014453125 7.975 28.425 8.254296875 28.001171875 8.55 27.6 9.3 26.5 10.05 25.55 9.5310546875 27.601953125 9.275 29.05 8.997265625 30.6783203125 9.05 31.55 9.8 30.6 10.55 30.05
L 10.55 31.55
Q 10.55 31.7064453125 10.6 31.8 10.66171875 31.9 10.8 31.9 10.95 31.9 11.05 31.8 11.4 31.45 12.15 31.4 12.217578125 31.028515625 12.325 30.5 12.38515625 30.2419921875 12.45 29.95 12.5177734375 29.7064453125 12.625 29.25 12.930078125 28.0212890625 13.55 25.25 14.35 21.55 14.45 20.8 13.95 19.9 13.75 18.8 13.7 18.6 13.7 18.4 13.5 16.9 13.85 15.1 14.65 10.8 16.8 7.9
M 42.35 4.4
Q 42.1896484375 4.309375 42.025 4.225
M 40.5 7.9
Q 42.5873046875 10.715234375 43.4 14.85 43.4265625 14.9744140625 43.45 15.1 43.5330078125 15.533984375 43.575 15.95 43.9404296875 18.7935546875 42.85 20.8 42.909765625 21.2482421875 43.225 22.75 43.4580078125 23.7611328125 43.8 25.25 44.6 29.05 44.85 29.95 44.905078125 30.169921875 44.95 30.375 45.1220703125 31.0708984375 45.2 31.5 45.9 31.45 46.25 31.8 46.35 31.9 46.5 31.9 46.75 31.9 46.75 31.55
L 46.75 30.05
Q 47.5 30.6 48.25 31.55 48.305078125 30.6427734375 48 28.925 47.7451171875 27.508203125 47.25 25.55 48.261328125 26.8404296875 49.25 28.325 49.6765625 28.9693359375 50.1 29.65 50.01328125 28.8234375 49.9 28.025 49.54375 25.2927734375 48.975 22.75 48.6216796875 21.241796875 48.2 19.8
M 42.85 20.8
Q 42.6 21.35 42.15 21.85 41.9181640625 19.9693359375 40.85 17.725 40.4431640625 16.8638671875 39.925 15.95 39.138671875 14.6068359375 38.1 13.15 38.138671875 14.5404296875 38.35 15.95 38.3791015625 16.075 38.4 16.2 38.4443359375 16.50546875 38.5 16.8 38.1 16.65 37.6 16.15 37.5189453125 16.050390625 37.45 15.95 37.3560546875 15.837890625 37.275 15.725 35.5796875 13.490625 34.85 10.8 34.7419921875 13.4267578125 33.875 15.95 33.5486328125 16.9328125 33.1 17.9 32.805078125 16.9859375 32.6 15.95 32.4525390625 15.2294921875 32.35 14.45
L 32.35 14.4
Q 32.5 12.4 32.25 11.4 32.046484375 11.774609375 31.85 12.15 31.241015625 13.2931640625 30.7 14.4 30.3052734375 15.185546875 29.95 15.95 29.2341796875 17.5185546875 28.65 19 27.9916015625 17.33046875 27.15 15.55 26.886328125 14.980859375 26.6 14.4 25.884375 12.9359375 25.05 11.4 24.8 12.4 24.95 14.4
L 24.95 14.45
Q 24.8755859375 15.015625 24.775 15.55 24.551171875 16.811328125 24.2 17.9 24 17.45 23.8 17 23.515625 16.2771484375 23.3 15.55 23.114453125 14.9763671875 22.975 14.4 22.9341796875 14.2501953125 22.9 14.1 22.5291015625 12.460546875 22.45 10.8 22.296484375 11.3662109375 22.1 11.9 21.369921875 13.9470703125 20.05 15.7 19.8806640625 15.927734375 19.7 16.15 19.2 16.65 18.8 16.8 18.87734375 16.391015625 18.95 15.975 19.1611328125 14.551953125 19.2 13.15 17.15 16 16.15 18.4 16.05 18.6 16 18.8 15.3 20.45 15.15 21.85 14.7 21.35 14.45 20.8
M 45.15 32.1
Q 45.2 31.9 45.2 31.5
M 34.85 8.05
Q 34.871484375 8.3501953125 34.875 8.65 34.928515625 9.739453125 34.85 10.8
M 22.45 8.05
Q 22.412109375 8.5791015625 22.4 9.1 22.387890625 9.96015625 22.45 10.8
M 38.1 13.15
Q 38 13.05 37.9 12.95
M 19.2 13.15
Q 19.3 13.05 19.4 12.95
M 12.7 30.675
L 12.325 30.5
M 12.15 32.1
Q 12.1 31.9 12.15 31.4"/>

        <path id="FL_980_0_Layer1_0_1_STROKES" stroke="#59556E" stroke-width="1" stroke-linejoin="round"
              stroke-linecap="round" fill="none" d="
M 38.4 33.8
L 41.7 32.5 42.65 32.9 43 32.95 44.35 32.9 44.65 33.55 45.45 34.2 44.95 35.35 46.45 35.9 44.8 37.65 43.4 39.6 38.65 39.6
M 43 32.95
L 42.3 34.55
M 43.25 34.15
L 42.65 36
M 43.7 35.6
L 43.05 37.95 44.8 37.65"/>

        <path id="FL_980_0_Layer0_0_1_STROKES" stroke="#59556E" stroke-width="1" stroke-linejoin="round"
              stroke-linecap="round" fill="none" d="
M 42.175 34.45
L 41.75 34.8 41.6 35.975
M 40.8 36.575
L 39.6 36.2 39.725 37.975
M 39.175 38.05
L 37.55 37.5 38 39.8 36.5 38.85 36.5 48.1 35.6 48.1 35.6 49.95 36.25 49.95 42.7 68.4
Q 42.25 68.55 41.75 68.7
L 43.15 72.55 35.55 72.55 34.65 69.65
Q 31.9 69.8 28.5 69.75 25.1072265625 69.793359375 22.325 69.625
L 21.45 72.55 13.85 72.55 15.25 68.675
Q 14.754296875 68.541796875 14.3 68.4
L 18.425 56.575 17.6 56.05
Q 19.2119140625 54.373046875 20.1 52.5
L 20.75 49.95 21.4 49.95 21.4 48.1 20.5 48.1 20.5 38.85 19 39.8 12.75 42.1 10.7 40.8 8.55 39.8 9.75 38.7 8.85 37.85 9.35 36.95 9.35 36.2 10.975 35.6 11.7 34.8 15.25 34.8 13.8 33.6 16.85 34.1 15.55 32.65 18.5 33.45 20.625 33.6 25.55 33.95 27.45 33.95 29.55 33.95 31.45 33.95 36.35 33.6 38.5 33.45 41.45 32.65 40.15 34.1 42.75 33.675
M 10.975 35.6
L 10.7 35.9 11.9 37 10.85 37 12.1 38.5 11 38.5 12.5 40.45 10.7 40.8
M 18.5 33.45
L 15.25 34.8 17.4 36.175 19.425 37.475 20.5 38.15 21.05 38.5 22.8 39.6 24.05 37.9 25.275 36.25 27.45 33.95 27.45 36.25 27.8 36.25 29.55 36.25 29.55 33.95 31.7 36.25 32.95 37.9 34.2 39.6 35.95 38.5 36.5 38.15 37.55 37.5 39.6 36.2 41.75 34.8 38.5 33.45
M 15.25 34.8
L 15.5 36.8 17.4 36.2 17.4 36.175
M 5.575 36.725
L 4.4 29.9 0.1 30.65 1.275 37.625 5.575 36.725 6.075 39.625 7.2 46.05 2.8 46.8 0.2 47.25 -4.65 48.1 -5.725 41.95 -6.2 39.15 -7.45 31.95 -2.5 31.1 0.1 30.65
M 6.075 39.625
L 1.75 40.475 2.8 46.8
M 1.75 40.475
L 1.275 37.625
M 19 39.8
L 19.425 37.5 17.25 38.25 17.4 36.2
M 19.425 37.5
L 19.425 37.475
M 25.275 36.25
L 25.3 36.25 27.3 36.95 27.45 36.25
M 29.55 36.25
L 29.7 36.95 31.7 36.25 31.7 38.9 32.95 37.9 32.95 40.85 34.2 39.6 35.55 41.35 35.95 38.5 36.5 38.85
M 28.5 40.35
L 29.15 44.15 31.2 43.05 29.9 37.8 29.85 37.65 29.7 36.95
M 27.3 36.95
L 27.125 37.65 27.075 37.8 25.8 43.05 27.85 44.15 28.5 40.35 27.8 36.25
M 25.3 36.25
L 25.3 38.9 24.05 37.9 24.05 40.85 22.8 39.6 21.45 41.35 21.05 38.5 20.5 38.85
M 21.4 48.1
L 35.6 48.1
M 18.425 56.575
L 19.4 57.2
Q 22.155859375 54.03125 22.7 52.4
L 23.25 58.8 25.5 58.05
Q 25.25078125 54.1615234375 24.95 49.925
L 21.4 49.95 20.1 52.5
M 35.6 49.95
L 24.95 49.925
M 15.25 68.675
Q 18.07578125 69.3908203125 22.325 69.625
M 41.75 68.7
Q 38.9 69.4 34.65 69.65
M -2.5 31.1
L -1.325 38.15 -0.85 41 0.2 47.25
M -5.725 41.95
L -0.85 41
M -1.325 38.15
L -6.2 39.15"/>

        <path id="FL_980_0_Layer0_0_2_STROKES" stroke="#6B639C" stroke-width="1" stroke-linejoin="round"
              stroke-linecap="round" fill="none" d="
M 36.35 33.6
L 38.75 34.95 34.45 37.65 31.45 33.95
M 20.625 33.6
L 18.25 34.95 22.55 37.65 25.55 33.95"/>
    </defs>

    <g transform="matrix( 1.25, 0, 0, 1, 0,0) ">
        <g transform="matrix( 1, 0, 0, 1, 0,0) ">
            <use xlink:href="#Symbol_1_0_Layer0_0_FILL"/>
        </g>
    </g>

    <g transform="matrix( 4.062591552734375, -0.7002410888671875, 0.7002410888671875, 4.062591552734375, 352.45,170) ">
        <g transform="matrix( 1, 0, 0, 1, 0,0) ">
            <use filter="url(#Filter_1)" xlink:href="#Symbol_438_0_Layer0_0_FILL"/>
        </g>
    </g>

    <g transform="matrix( 2.0312957763671875, -0.35009765625, 0.350128173828125, 2.0312957763671875, 276,129.45) ">
        <g transform="matrix( 1, 0, 0, 1, 0,0) ">
            <use xlink:href="#Symbol_441_0_Layer1_0_FILL"/>
        </g>
    </g>

    <g transform="matrix( 2.0312957763671875, -0.35009765625, 0.350128173828125, 2.0312957763671875, 410.9,106.2) ">
        <g transform="matrix( 1, 0, 0, 1, 0,0) ">
            <use xlink:href="#Symbol_441_0_Layer1_0_FILL"/>
        </g>
    </g>

    <g transform="matrix( 2.0312957763671875, -0.35009765625, 0.350128173828125, 2.0312957763671875, 294,233.85) ">
        <g transform="matrix( 1, 0, 0, 1, 0,0) ">
            <use xlink:href="#Symbol_441_0_Layer1_0_FILL"/>
        </g>
    </g>

    <g transform="matrix( 2.0312957763671875, -0.35009765625, 0.350128173828125, 2.0312957763671875, 428.9,210.6) ">
        <g transform="matrix( 1, 0, 0, 1, 0,0) ">
            <use xlink:href="#Symbol_441_0_Layer1_0_FILL"/>
        </g>
    </g>

    <g transform="matrix( 2.0312957763671875, -0.35009765625, 0.350128173828125, 2.0312957763671875, 152.95,222.4) ">
        <g transform="matrix( 1, 0, 0, 1, 0,0) ">
            <use xlink:href="#Symbol_441_0_Layer1_0_FILL"/>
        </g>
    </g>

    <g transform="matrix( 2.0312957763671875, -0.35009765625, 0.350128173828125, 2.0312957763671875, 146.95,187.5) ">
        <g transform="matrix( 1, 0, 0, 1, 0,0) ">
            <use xlink:href="#Symbol_441_0_Layer1_0_FILL"/>
        </g>
    </g>

    <g transform="matrix( 2.0312957763671875, -0.35009765625, 0.350128173828125, 2.0312957763671875, 558,152.55) ">
        <g transform="matrix( 1, 0, 0, 1, 0,0) ">
            <use xlink:href="#Symbol_441_0_Layer1_0_FILL"/>
        </g>
    </g>

    <g transform="matrix( 2.0312957763671875, -0.35009765625, 0.350128173828125, 2.0312957763671875, 552,117.65) ">
        <g transform="matrix( 1, 0, 0, 1, 0,0) ">
            <use xlink:href="#Symbol_441_0_Layer1_0_FILL"/>
        </g>
    </g>

    <g transform="matrix( 2.0312957763671875, -0.35009765625, 0.350128173828125, 2.0312957763671875, 135.2,117.95) ">
        <g transform="matrix( 1, 0, 0, 1, 0,0) ">
            <use xlink:href="#Symbol_441_0_Layer1_0_FILL"/>
        </g>
    </g>

    <g transform="matrix( 2.0312957763671875, -0.35009765625, 0.350128173828125, 2.0312957763671875, 270.05,94.7) ">
        <g transform="matrix( 1, 0, 0, 1, 0,0) ">
            <use xlink:href="#Symbol_441_0_Layer1_0_FILL"/>
        </g>
    </g>

    <g transform="matrix( 2.0312957763671875, -0.35009765625, 0.350128173828125, 2.0312957763671875, 404.95,71.45) ">
        <g transform="matrix( 1, 0, 0, 1, 0,0) ">
            <use xlink:href="#Symbol_441_0_Layer1_0_FILL"/>
        </g>
    </g>

    <g transform="matrix( 2.0312957763671875, -0.35009765625, 0.350128173828125, 2.0312957763671875, 539.8,48.2) ">
        <g transform="matrix( 1, 0, 0, 1, 0,0) ">
            <use xlink:href="#Symbol_441_0_Layer1_0_FILL"/>
        </g>
    </g>

    <g transform="matrix( 2.0312957763671875, -0.35009765625, 0.350128173828125, 2.0312957763671875, 164.95,291.9) ">
        <g transform="matrix( 1, 0, 0, 1, 0,0) ">
            <use xlink:href="#Symbol_441_0_Layer1_0_FILL"/>
        </g>
    </g>

    <g transform="matrix( 2.0312957763671875, -0.35009765625, 0.350128173828125, 2.0312957763671875, 299.8,268.65) ">
        <g transform="matrix( 1, 0, 0, 1, 0,0) ">
            <use xlink:href="#Symbol_441_0_Layer1_0_FILL"/>
        </g>
    </g>

    <g transform="matrix( 2.0312957763671875, -0.35009765625, 0.350128173828125, 2.0312957763671875, 434.7,245.4) ">
        <g transform="matrix( 1, 0, 0, 1, 0,0) ">
            <use xlink:href="#Symbol_441_0_Layer1_0_FILL"/>
        </g>
    </g>

    <g transform="matrix( 2.0312957763671875, -0.35009765625, 0.350128173828125, 2.0312957763671875, 569.55,222.15) ">
        <g transform="matrix( 1, 0, 0, 1, 0,0) ">
            <use xlink:href="#Symbol_441_0_Layer1_0_FILL"/>
        </g>
    </g>

    <g transform="matrix( 2.0312957763671875, -0.35009765625, 0.350128173828125, 2.0312957763671875, 6.25,175.95) ">
        <g transform="matrix( 1, 0, 0, 1, 0,0) ">
            <use xlink:href="#Symbol_441_0_Layer1_0_FILL"/>
        </g>
    </g>

    <g transform="matrix( 2.0312957763671875, -0.35009765625, 0.350128173828125, 2.0312957763671875, 141.15,152.7) ">
        <g transform="matrix( 1, 0, 0, 1, 0,0) ">
            <use xlink:href="#Symbol_441_0_Layer1_0_FILL"/>
        </g>
    </g>

    <g transform="matrix( 2.0312957763671875, -0.35009765625, 0.350128173828125, 2.0312957763671875, 546,82.9) ">
        <g transform="matrix( 1, 0, 0, 1, 0,0) ">
            <use xlink:href="#Symbol_441_0_Layer1_0_FILL"/>
        </g>
    </g>

    <g transform="matrix( 2.0312957763671875, -0.35009765625, 0.350128173828125, 2.0312957763671875, 24.05,280.4) ">
        <g transform="matrix( 1, 0, 0, 1, 0,0) ">
            <use xlink:href="#Symbol_441_0_Layer1_0_FILL"/>
        </g>
    </g>

    <g transform="matrix( 2.0312957763671875, -0.35009765625, 0.350128173828125, 2.0312957763671875, 158.95,257.15) ">
        <g transform="matrix( 1, 0, 0, 1, 0,0) ">
            <use xlink:href="#Symbol_441_0_Layer1_0_FILL"/>
        </g>
    </g>

    <g transform="matrix( 2.0312957763671875, -0.35009765625, 0.350128173828125, 2.0312957763671875, 564,187.3) ">
        <g transform="matrix( 1, 0, 0, 1, 0,0) ">
            <use xlink:href="#Symbol_441_0_Layer1_0_FILL"/>
        </g>
    </g>

    <g transform="matrix( 2.0312957763671875, -0.35009765625, 0.350128173828125, 2.0312957763671875, 18.25,245.6) ">
        <g transform="matrix( 1, 0, 0, 1, 0,0) ">
            <use xlink:href="#Symbol_441_0_Layer1_0_FILL"/>
        </g>
    </g>

    <g transform="matrix( 2.0312957763671875, -0.35009765625, 0.350128173828125, 2.0312957763671875, 12.05,210.75) ">
        <g transform="matrix( 1, 0, 0, 1, 0,0) ">
            <use xlink:href="#Symbol_441_0_Layer1_0_FILL"/>
        </g>
    </g>

    <g transform="matrix( 2.0312957763671875, -0.35009765625, 0.350128173828125, 2.0312957763671875, 171.7,328.55) ">
        <g transform="matrix( 1, 0, 0, 1, 0,0) ">
            <use xlink:href="#Symbol_441_0_Layer1_0_FILL"/>
        </g>
    </g>

    <g transform="matrix( 2.0312957763671875, -0.35009765625, 0.350128173828125, 2.0312957763671875, 306.55,305.3) ">
        <g transform="matrix( 1, 0, 0, 1, 0,0) ">
            <use xlink:href="#Symbol_441_0_Layer1_0_FILL"/>
        </g>
    </g>

    <g transform="matrix( 2.0312957763671875, -0.35009765625, 0.350128173828125, 2.0312957763671875, 441.45,282.05) ">
        <g transform="matrix( 1, 0, 0, 1, 0,0) ">
            <use xlink:href="#Symbol_441_0_Layer1_0_FILL"/>
        </g>
    </g>

    <g transform="matrix( 2.0312957763671875, -0.35009765625, 0.350128173828125, 2.0312957763671875, 576.35,258.8) ">
        <g transform="matrix( 1, 0, 0, 1, 0,0) ">
            <use xlink:href="#Symbol_441_0_Layer1_0_FILL"/>
        </g>
    </g>

    <g transform="matrix( 2.0312957763671875, -0.35009765625, 0.350128173828125, 2.0312957763671875, 128.65,81.25) ">
        <g transform="matrix( 1, 0, 0, 1, 0,0) ">
            <use xlink:href="#Symbol_441_0_Layer1_0_FILL"/>
        </g>
    </g>

    <g transform="matrix( 2.0312957763671875, -0.35009765625, 0.350128173828125, 2.0312957763671875, 263.5,58) ">
        <g transform="matrix( 1, 0, 0, 1, 0,0) ">
            <use xlink:href="#Symbol_441_0_Layer1_0_FILL"/>
        </g>
    </g>

    <g transform="matrix( 2.0312957763671875, -0.35009765625, 0.350128173828125, 2.0312957763671875, 398.4,34.75) ">
        <g transform="matrix( 1, 0, 0, 1, 0,0) ">
            <use xlink:href="#Symbol_441_0_Layer1_0_FILL"/>
        </g>
    </g>

    <g transform="matrix( 2.0312957763671875, -0.35009765625, 0.350128173828125, 2.0312957763671875, 533.25,11.5) ">
        <g transform="matrix( 1, 0, 0, 1, 0,0) ">
            <use xlink:href="#Symbol_441_0_Layer1_0_FILL"/>
        </g>
    </g>

    <g transform="matrix( 2.0312957763671875, -0.35009765625, 0.350128173828125, 2.0312957763671875, 30.25,315.1) ">
        <g transform="matrix( 1, 0, 0, 1, 0,0) ">
            <use xlink:href="#Symbol_441_0_Layer1_0_FILL"/>
        </g>
    </g>

    <g transform="matrix( 2.0312957763671875, -0.35009765625, 0.350128173828125, 2.0312957763671875, 0.3,141.2) ">
        <g transform="matrix( 1, 0, 0, 1, 0,0) ">
            <use xlink:href="#Symbol_441_0_Layer1_0_FILL"/>
        </g>
    </g>

    <g transform="matrix( 2.0312957763671875, -0.35009765625, 0.350128173828125, 2.0312957763671875, 122.3,44.5) ">
        <g transform="matrix( 1, 0, 0, 1, 0,0) ">
            <use xlink:href="#Symbol_441_0_Layer1_0_FILL"/>
        </g>
    </g>

    <g transform="matrix( 2.0312957763671875, -0.35009765625, 0.350128173828125, 2.0312957763671875, 257.15,21.25) ">
        <g transform="matrix( 1, 0, 0, 1, 0,0) ">
            <use xlink:href="#Symbol_441_0_Layer1_0_FILL"/>
        </g>
    </g>

    <g transform="matrix( 2.0312957763671875, -0.35009765625, 0.350128173828125, 2.0312957763671875, 392.05,-2) ">
        <g transform="matrix( 1, 0, 0, 1, 0,0) ">
            <use xlink:href="#Symbol_441_0_Layer1_0_FILL"/>
        </g>
    </g>

    <g transform="matrix( 2.0312957763671875, -0.35009765625, 0.350128173828125, 2.0312957763671875, 177.6,365.45) ">
        <g transform="matrix( 1, 0, 0, 1, 0,0) ">
            <use xlink:href="#Symbol_441_0_Layer1_0_FILL"/>
        </g>
    </g>

    <g transform="matrix( 2.0312957763671875, -0.35009765625, 0.350128173828125, 2.0312957763671875, 312.45,342.2) ">
        <g transform="matrix( 1, 0, 0, 1, 0,0) ">
            <use xlink:href="#Symbol_441_0_Layer1_0_FILL"/>
        </g>
    </g>

    <g transform="matrix( 2.0312957763671875, -0.35009765625, 0.350128173828125, 2.0312957763671875, 447.35,318.95) ">
        <g transform="matrix( 1, 0, 0, 1, 0,0) ">
            <use xlink:href="#Symbol_441_0_Layer1_0_FILL"/>
        </g>
    </g>

    <g transform="matrix( 2.0312957763671875, -0.35009765625, 0.350128173828125, 2.0312957763671875, 582.2,295.7) ">
        <g transform="matrix( 1, 0, 0, 1, 0,0) ">
            <use xlink:href="#Symbol_441_0_Layer1_0_FILL"/>
        </g>
    </g>

    <g transform="matrix( 2.0312957763671875, -0.35009765625, 0.350128173828125, 2.0312957763671875, 36.4,351.9) ">
        <g transform="matrix( 1, 0, 0, 1, 0,0) ">
            <use xlink:href="#Symbol_441_0_Layer1_0_FILL"/>
        </g>
    </g>

    <g transform="matrix( 2.0312957763671875, -0.35009765625, 0.350128173828125, 2.0312957763671875, -6.25,104.5) ">
        <g transform="matrix( 1, 0, 0, 1, 0,0) ">
            <use xlink:href="#Symbol_441_0_Layer1_0_FILL"/>
        </g>
    </g>

    <g transform="matrix( 2.0312957763671875, -0.35009765625, 0.350128173828125, 2.0312957763671875, 319.15,377.1) ">
        <g transform="matrix( 1, 0, 0, 1, 0,0) ">
            <use xlink:href="#Symbol_441_0_Layer1_0_FILL"/>
        </g>
    </g>

    <g transform="matrix( 2.0312957763671875, -0.35009765625, 0.350128173828125, 2.0312957763671875, 454.05,353.85) ">
        <g transform="matrix( 1, 0, 0, 1, 0,0) ">
            <use xlink:href="#Symbol_441_0_Layer1_0_FILL"/>
        </g>
    </g>

    <g transform="matrix( 2.0312957763671875, -0.35009765625, 0.350128173828125, 2.0312957763671875, 588.9,330.6) ">
        <g transform="matrix( 1, 0, 0, 1, 0,0) ">
            <use xlink:href="#Symbol_441_0_Layer1_0_FILL"/>
        </g>
    </g>

    <g transform="matrix( 2.0312957763671875, -0.35009765625, 0.350128173828125, 2.0312957763671875, 595.4,365.45) ">
        <g transform="matrix( 1, 0, 0, 1, 0,0) ">
            <use xlink:href="#Symbol_441_0_Layer1_0_FILL"/>
        </g>
    </g>

    <g transform="matrix( 2.0312957763671875, -0.35009765625, 0.350128173828125, 2.0312957763671875, 114.65,4.6) ">
        <g transform="matrix( 1, 0, 0, 1, 0,0) ">
            <use xlink:href="#Symbol_441_0_Layer1_0_FILL"/>
        </g>
    </g>

    <g transform="matrix( 2.0312957763671875, -0.35009765625, 0.350128173828125, 2.0312957763671875, 249.5,-18.65) ">
        <g transform="matrix( 1, 0, 0, 1, 0,0) ">
            <use xlink:href="#Symbol_441_0_Layer1_0_FILL"/>
        </g>
    </g>

    <g transform="matrix( 2.0312957763671875, -0.35009765625, 0.350128173828125, 2.0312957763671875, -13.9,64.6) ">
        <g transform="matrix( 1, 0, 0, 1, 0,0) ">
            <use xlink:href="#Symbol_441_0_Layer1_0_FILL"/>
        </g>
    </g>

    <g transform="matrix( 2.0312957763671875, -0.35009765625, 0.350128173828125, 2.0312957763671875, -18.75,28.15) ">
        <g transform="matrix( 1, 0, 0, 1, 0,0) ">
            <use xlink:href="#Symbol_441_0_Layer1_0_FILL"/>
        </g>
    </g>

    <g id="alice980"
       transform="matrix( 0.7801361083984375, -0.1404266357421875, 0.14404296875, 0.800323486328125, -4.6,125.9) ">
        <g transform="matrix( 1, 0, 0, 1, 0,0) ">
            <use xlink:href="#tv_0_Layer2_0_1_STROKES"/>

            <use xlink:href="#tv_0_Layer2_0_2_STROKES"/>
        </g>

        <g transform="matrix( 1, 0, 0, 1, 0,0) ">
            <use xlink:href="#tv_0_Layer1_0_FILL"/>

            <use xlink:href="#tv_0_Layer1_0_1_STROKES"/>

            <use xlink:href="#tv_0_Layer1_0_2_STROKES"/>

            <use xlink:href="#tv_0_Layer1_0_3_STROKES"/>

            <use xlink:href="#tv_0_Layer1_0_4_STROKES"/>
        </g>

        <g transform="matrix( 1.3670501708984375, 0, 0, 1.531219482421875, 65.55,97.5) ">
            <g transform="matrix( 1, 0, 0, 1, 0,0) ">
                <use xlink:href="#FL_980_0_Layer3_0_FILL"/>

                <use xlink:href="#FL_980_0_Layer3_0_1_STROKES"/>
            </g>

            <g transform="matrix( 1, 0, 0, 1, 0,0) ">
                <use xlink:href="#FL_980_0_Layer2_0_FILL"/>

                <use xlink:href="#FL_980_0_Layer2_0_1_STROKES"/>
            </g>

            <g transform="matrix( 1, 0, 0, 1, 0,0) ">
                <use xlink:href="#FL_980_0_Layer1_0_FILL"/>

                <use xlink:href="#FL_980_0_Layer1_0_1_STROKES"/>
            </g>

            <g transform="matrix( 1, 0, 0, 1, 0,0) ">
                <use xlink:href="#FL_980_0_Layer0_0_FILL"/>

                <use xlink:href="#FL_980_0_Layer0_0_1_STROKES"/>

                <use xlink:href="#FL_980_0_Layer0_0_2_STROKES"/>
            </g>
        </g>
    </g>
</svg>
