<svg xmlns:xlink="http://www.w3.org/1999/xlink" xmlns="http://www.w3.org/2000/svg" version="1.1"
     preserveAspectRatio="none" x="0px" y="0px" width="19px" height="5px" viewBox="0 0 19 5">
    <defs>
        <g id="Layer0_0_FILL">
            <path fill="#FFFFFF" stroke="none" d="
M 19 1
L 19 0 14 0 14 3 18 3 18 4 14 4 14 5 19 5 19 2 15 2 15 1 19 1
M 13 1
L 13 0 8 0 8 1 10 1 10 5 11 5 11 1 13 1
M 5 0
L 4 0 4 2 1 2 1 0 0 0 0 5 1 5 1 3 4 3 4 5 5 5 5 0
M 7 0
L 6 0 6 5 7 5 7 0 Z"/>
        </g>
    </defs>

    <g transform="matrix( 1, 0, 0, 1, 0,0) ">
        <use xlink:href="#Layer0_0_FILL"/>
    </g>
</svg>
