
<svg xmlns="http://www.w3.org/2000/svg" version="1.1" xmlns:xlink="http://www.w3.org/1999/xlink" preserveAspectRatio="none" x="0px" y="0px" width="2007px" height="1940px" viewBox="0 0 2007 1940">
<defs>
<g id="Layer2_0_FILL">
<path fill="#000000" fill-opacity="0.24705882352941178" stroke="none" d="
M 480.85 1041.3
L 416.4 1041.3 416.4 1105.3 416.55 1105.3 416.55 1106.2 480.55 1106.2 480.55 1105.3 480.85 1105.3 480.85 1041.3
M 1659.4 1939.2
L 1659.4 1875.2 1595.4 1875.2 1595.4 1939.2 1659.4 1939.2
M 1659.4 1869.75
L 1659.4 1805.75 1595.4 1805.75 1595.4 1869.75 1659.4 1869.75
M 1659.4 1730.9
L 1659.4 1666.9 1595.4 1666.9 1595.4 1730.9 1659.4 1730.9
M 1590.05 1666.9
L 1526.05 1666.9 1526.05 1730.9 1590.05 1730.9 1590.05 1666.9
M 1526.4 1736.35
L 1526.05 1736.35 1526.05 1800.3 1590.05 1800.3 1590.05 1799.85 1590.4 1799.85 1590.4 1735.9 1526.4 1735.9 1526.4 1736.35
M 1590 1661
L 1590.4 1661 1590.4 1597 1526.4 1597 1526.4 1597.45 1525.95 1597.45 1525.95 1661.45 1590 1661.45 1590 1661
M 1526 1528
L 1525.95 1528 1525.95 1592 1589.95 1592 1589.95 1591.65 1590 1591.65 1590 1527.65 1526 1527.65 1526 1528
M 1590 1458.55
L 1589.95 1458.55 1589.95 1458.45 1525.95 1458.45 1525.95 1522.55 1590.05 1522.55 1590 1458.55
M 1595.4 1458.45
L 1595.4 1522.55 1659.4 1522.55 1659.4 1458.45 1595.4 1458.45
M 1590 1389.1
L 1589.95 1389.1 1589.95 1389 1525.95 1389 1525.95 1453 1526 1453 1526 1453.1 1590 1453.1 1590 1389.1
M 1525.95 1250.25
L 1525.95 1314.25 1589.95 1314.25 1589.95 1250.25 1525.95 1250.25
M 1595.4 1250.15
L 1595.4 1314.25 1659.4 1314.25 1659.4 1250.15 1595.4 1250.15
M 1595.4 1180.8
L 1595.4 1245.05 1659.4 1245.05 1659.4 1180.8 1595.4 1180.8
M 1526.05 1110.75
L 1526.05 1111.35 1525.95 1111.35 1525.95 1175.6 1589.95 1175.6 1589.95 1174.75 1590.05 1174.75 1590.05 1110.75 1526.05 1110.75
M 1526.1 902.45
L 1526.1 903.05 1525.95 903.05 1525.95 967.3 1526.1 967.3 1526.1 967.9 1590.1 967.9 1590.1 902.45 1526.1 902.45
M 1659.4 897.85
L 1659.4 833.6 1595.4 833.6 1595.4 897.85 1659.4 897.85
M 1526 695
L 1526 759 1590 759 1590 695 1526 695
M 1589.95 765.05
L 1589.95 764.2 1525.95 764.2 1525.95 828.45 1526.05 828.45 1526.05 829.05 1590.05 829.05 1590.05 765.05 1589.95 765.05
M 1595.4 694.75
L 1595.4 759 1659.4 759 1659.4 694.75 1595.4 694.75
M 1595.4 625.55
L 1595.4 689.65 1659.4 689.65 1659.4 625.55 1595.4 625.55
M 1595.4 556.1
L 1595.4 620.2 1659.4 620.2 1659.4 556.1 1595.4 556.1
M 1589.95 556.15
L 1589.95 556.1 1525.95 556.1 1525.95 620.2 1589.95 620.2 1589.95 620.1 1590 620.1 1590 556.15 1589.95 556.15
M 1595.4 486.8
L 1595.4 550.8 1659.4 550.8 1659.4 486.8 1595.4 486.8
M 1595.4 417.25
L 1595.4 481.35 1659.4 481.35 1659.4 417.25 1595.4 417.25
M 1589.95 481.25
L 1590 481.25 1590.05 417.25 1525.95 417.25 1525.95 481.35 1589.95 481.35 1589.95 481.25
M 1659.4 342.35
L 1659.4 278.35 1595.4 278.35 1595.4 342.35 1659.4 342.35
M 1659.4 272.9
L 1659.4 208.9 1595.4 208.9 1595.4 272.9 1659.4 272.9
M 1590.05 272.9
L 1590.05 208.9 1526.05 208.9 1526.05 272.9 1590.05 272.9
M 1590.4 139.95
L 1590.05 139.95 1590.05 139.5 1526.05 139.5 1526.05 203.45 1526.4 203.45 1526.4 203.9 1590.4 203.9 1590.4 139.95
M 1590.4 70.5
L 1589.95 70.5 1589.95 70.05 1525.95 70.05 1525.95 134.05 1526.4 134.05 1526.4 134.5 1590.4 134.5 1590.4 70.5
M 1659.4 134.05
L 1659.4 70.05 1595.4 70.05 1595.4 134.05 1659.4 134.05
M 1590.35 1.05
L 1590.05 1.05 1590.05 0.6 1525.95 0.6 1525.95 64.6 1526.4 64.6 1526.4 65.05 1590.4 65.05 1590.35 1.05
M 416.45 1.05
L 416.15 1.05 416.1 65.05 480.55 65.05 480.55 64.6 480.9 64.6 480.9 0.6 416.45 0.6 416.45 1.05
M 347.1 70.05
L 347.1 134.05 411.55 134.05 411.55 70.05 347.1 70.05
M 411.1 139.5
L 347.1 139.5 347.1 203.5 411.1 203.5 411.1 139.5
M 416.45 139.95
L 416.1 139.95 416.1 203.9 480.55 203.9 480.55 203.45 480.9 203.45 480.9 139.5 416.45 139.5 416.45 139.95
M 411.1 272.9
L 411.1 208.9 347.1 208.9 347.1 272.9 411.1 272.9
M 347.1 278.35
L 347.1 342.35 411.55 342.35 411.55 278.35 347.1 278.35
M 416.5 278.8
L 416.1 278.8 416.1 342.8 480.55 342.8 480.55 342.35 480.95 342.35 480.95 278.35 416.5 278.35 416.5 278.8
M 416.55 348.15
L 416.5 348.15 416.5 412.15 480.95 412.15 480.95 348.15 480.55 348.15 480.55 347.8 416.55 347.8 416.55 348.15
M 416.5 481.25
L 416.55 481.25 416.55 481.35 480.55 481.35 480.55 481.25 480.95 481.25 480.9 417.25 416.45 417.25 416.5 481.25
M 411.55 481.35
L 411.55 417.25 347.1 417.25 347.1 481.35 411.55 481.35
M 411.55 556.1
L 347.1 556.1 347.1 620.2 411.55 620.2 411.55 556.1
M 416.55 556.1
L 416.55 556.15 416.5 556.15 416.5 620.1 416.55 620.1 416.55 620.2 480.55 620.2 480.55 620.1 480.95 620.1 480.95 556.15 480.55 556.15 480.55 556.1 416.55 556.1
M 480.55 689.55
L 480.55 625.55 416.55 625.55 416.55 689.55 480.55 689.55
M 347.1 694.75
L 347.1 759 411.1 759 411.1 694.75 347.1 694.75
M 480.85 834.5
L 480.55 834.5 480.55 833.6 416.55 833.6 416.55 834.5 416.4 834.5 416.4 898.5 480.85 898.5 480.85 834.5
M 347.1 903.05
L 347.1 967.3 411.55 967.3 411.55 903.05 347.1 903.05
M 480.85 971.9
L 416.4 971.9 416.4 1037.35 480.85 1037.35 480.85 971.9
M 411.1 1042.2
L 411.1 1041.95 347.1 1041.95 347.1 1106.2 411.55 1106.2 411.55 1042.2 411.1 1042.2
M 347.1 1111.35
L 347.1 1175.6 411.55 1175.6 411.55 1111.35 347.1 1111.35
M 480.95 1180.8
L 416.5 1180.8 416.5 1244.8 480.95 1244.8 480.95 1180.8
M 480.55 1250.25
L 416.55 1250.25 416.55 1314.25 480.55 1314.25 480.55 1250.25
M 411.55 1250.25
L 411.1 1250.25 411.1 1250.15 347.1 1250.15 347.1 1314.25 411.55 1314.25 411.55 1250.25
M 347.1 1319.6
L 347.1 1383.7 411.55 1383.7 411.55 1319.6 347.1 1319.6
M 480.55 1319.7
L 480.55 1319.6 416.55 1319.6 416.55 1319.7 416.5 1319.7 416.5 1383.65 416.55 1383.65 416.55 1383.7 480.55 1383.7 480.55 1383.65 480.95 1383.65 480.95 1319.7 480.55 1319.7
M 411.55 1453
L 411.55 1389 347.1 1389 347.1 1453 411.55 1453
M 347.1 1458.45
L 347.1 1522.55 411.55 1522.55 411.55 1458.45 347.1 1458.45
M 480.95 1527.65
L 416.5 1527.65 416.5 1591.65 416.55 1591.65 416.55 1592 480.55 1592 480.55 1591.65 480.95 1591.65 480.95 1527.65
M 411.55 1661.45
L 411.55 1597.45 347.1 1597.45 347.1 1661.45 411.55 1661.45
M 480.95 1597.45
L 480.55 1597.45 480.55 1597 416.1 1597 416.1 1661 416.5 1661 416.5 1661.45 480.95 1661.45 480.95 1597.45
M 347.1 1666.9
L 347.1 1730.9 411.1 1730.9 411.1 1666.9 347.1 1666.9
M 480.9 1666.9
L 416.45 1666.9 416.45 1730.9 480.9 1730.9 480.9 1666.9
M 411.1 1736.3
L 347.1 1736.3 347.1 1800.3 411.1 1800.3 411.1 1736.3
M 416.1 1869.3
L 416.55 1869.3 416.55 1869.75 480.55 1869.75 480.55 1805.3 416.1 1805.3 416.1 1869.3
M 480.95 1874.75
L 416.5 1874.75 416.5 1938.75 480.95 1938.75 480.95 1874.75
M 347.15 1874.75
L 347.15 1938.75 411.15 1938.75 411.15 1874.75 347.15 1874.75
M 1803.7 1875.2
L 1803.7 1939.2 1868.05 1939.2 1868.05 1875.2 1803.7 1875.2
M 1868.05 1869.75
L 1868.05 1805.75 1803.7 1805.75 1803.7 1869.75 1868.05 1869.75
M 1729.2 1875.2
L 1664.85 1875.2 1664.85 1939.2 1729.2 1939.2 1729.2 1875.2
M 1734.25 1875.2
L 1734.25 1939.2 1798.65 1939.2 1798.65 1875.2 1734.25 1875.2
M 1734.25 1805.75
L 1734.25 1869.75 1798.65 1869.75 1798.65 1805.75 1734.25 1805.75
M 1729.2 1666.9
L 1664.85 1666.9 1664.85 1730.9 1729.2 1730.9 1729.2 1666.9
M 1868.05 1736.3
L 1803.7 1736.3 1803.7 1800.3 1868.05 1800.3 1868.05 1736.3
M 1937.5 1736.3
L 1873.5 1736.3 1873.5 1800.3 1937.5 1800.3 1937.5 1736.3
M 1798.65 1661.45
L 1798.65 1597.45 1734.25 1597.45 1734.25 1661.45 1798.65 1661.45
M 1937.5 1666.9
L 1873.5 1666.9 1873.5 1730.9 1937.5 1730.9 1937.5 1666.9
M 272.3 1869.75
L 272.3 1805.75 207.85 1805.75 207.85 1869.75 272.3 1869.75
M 138.45 1875.2
L 138.45 1939.2 202.85 1939.2 202.85 1875.2 138.45 1875.2
M 0 1805.3
L 0 1805.75 -0.45 1805.75 -0.45 1869.75 64 1869.75 64 1805.3 0 1805.3
M 133.45 1869.75
L 133.45 1805.75 69 1805.75 69 1869.75 133.45 1869.75
M 63.65 1730.9
L 63.65 1666.9 -0.35 1666.9 -0.35 1730.9 63.65 1730.9
M 133.45 1736.3
L 69 1736.3 69 1800.3 133.45 1800.3 133.45 1736.3
M 69 1730.9
L 133.45 1730.9 133.45 1666.9 69 1666.9 69 1730.9
M 133.45 1661.45
L 133.45 1597.45 69 1597.45 69 1661.45 133.45 1661.45
M 272.3 1736.3
L 207.85 1736.3 207.85 1800.3 272.3 1800.3 272.3 1736.3
M 202.85 1661.45
L 202.85 1597.45 138.45 1597.45 138.45 1661.45 202.85 1661.45
M 341.75 1800.3
L 341.75 1736.3 277.3 1736.3 277.3 1800.3 341.75 1800.3
M 341.75 1869.75
L 341.75 1805.75 277.3 1805.75 277.3 1869.75 341.75 1869.75
M 341.75 1528
L 277.3 1528 277.3 1592 341.75 1592 341.75 1528
M 202.85 1528
L 138.45 1528 138.45 1592 202.85 1592 202.85 1528
M 207.85 1522.55
L 272.3 1522.55 272.3 1458.45 207.85 1458.45 207.85 1522.55
M 272.3 1528
L 207.85 1528 207.85 1592 272.3 1592 272.3 1528
M 277.3 1389.15
L 277.3 1453.15 341.75 1453.15 341.75 1389.15 277.3 1389.15
M 138.45 1458.55
L 138.45 1522.55 202.85 1522.55 202.85 1458.55 138.45 1458.55
M 133 1314.15
L 133.45 1314.15 133.45 1250.15 69 1250.15 69 1314.25 133 1314.25 133 1314.15
M 69 1319.6
L 69 1383.7 133.45 1383.7 133.45 1319.6 69 1319.6
M 207.85 1314.25
L 272.3 1314.25 272.3 1250.15 207.85 1250.15 207.85 1314.25
M 277.3 1319.6
L 277.3 1383.7 341.75 1383.7 341.75 1319.6 277.3 1319.6
M 202.85 1180.8
L 138.45 1180.8 138.45 1245.05 202.85 1245.05 202.85 1180.8
M 207.85 1106.2
L 272.3 1106.2 272.3 1041.95 207.85 1041.95 207.85 1106.2
M 207.85 1111.6
L 207.85 1175.6 272.25 1175.6 272.25 1111.6 207.85 1111.6
M 138.8 1041.95
L 138.8 1105.95 202.8 1105.95 202.8 1041.95 138.8 1041.95
M 138.8 1111.35
L 138.8 1111.6 138.45 1111.6 138.45 1175.6 202.85 1175.6 202.85 1111.6 202.8 1111.6 202.8 1111.35 138.8 1111.35
M 133.45 972.5
L 69 972.5 69 1036.75 133.45 1036.75 133.45 972.5
M 69 903.05
L 69 967.3 133.45 967.3 133.45 903.05 69 903.05
M 133.45 833.85
L 133 833.85 133 833.6 69 833.6 69 897.85 133.45 897.85 133.45 833.85
M 202.8 897.85
L 202.8 833.85 138.8 833.85 138.8 897.85 202.8 897.85
M 272.3 972.5
L 207.85 972.5 207.85 1036.75 272.3 1036.75 272.3 972.5
M 207.85 903.05
L 207.85 967.3 272.3 967.3 272.3 903.05 207.85 903.05
M 202.85 967.3
L 202.85 903.3 138.45 903.3 138.45 967.3 202.85 967.3
M 341.75 1175.6
L 341.75 1111.35 277.3 1111.35 277.3 1175.6 341.75 1175.6
M 341.75 897.85
L 341.75 833.85 277.3 833.85 277.3 897.85 341.75 897.85
M 341.65 967.3
L 341.65 903.3 277.7 903.3 277.7 967.3 341.65 967.3
M -0.4 1528
L -0.45 1528 -0.45 1592 64 1592 64 1528 63.6 1528 63.6 1527.65 -0.4 1527.65 -0.4 1528
M -0.4 1453
L -0.4 1453.1 63.6 1453.1 63.6 1453 64 1453 64 1389 -0.45 1389 -0.45 1453 -0.4 1453
M -0.45 1250.25
L -0.45 1314.25 64 1314.25 64 1250.25 -0.45 1250.25
M -0.35 1111.35
L -0.45 1111.35 -0.45 1175.6 64 1175.6 64 1111.35 63.65 1111.35 63.65 1110.75 -0.35 1110.75 -0.35 1111.35
M -0.3 1041.3
L -0.3 1042.2 -0.45 1042.2 -0.45 1106.2 64 1106.2 64 1042.2 63.7 1042.2 63.7 1041.3 -0.3 1041.3
M -0.3 972.5
L -0.45 972.5 -0.45 1036.75 -0.3 1036.75 -0.3 1037.35 63.7 1037.35 63.7 1036.75 64 1036.75 64 972.5 63.7 972.5 63.7 971.9 -0.3 971.9 -0.3 972.5
M -0.3 897.6
L -0.3 898.5 63.7 898.5 63.7 897.6 64 897.6 64 833.6 -0.45 833.6 -0.45 897.6 -0.3 897.6
M -0.35 828.45
L -0.35 829.05 63.65 829.05 63.65 828.45 64 828.45 64 764.2 -0.45 764.2 -0.45 828.45 -0.35 828.45
M 202.85 620.2
L 202.85 556.1 138.45 556.1 138.45 620.2 202.85 620.2
M 272.25 764.15
L 207.85 764.15 207.85 828.4 272.25 828.4 272.25 764.15
M 277.3 694.75
L 277.3 759 341.75 759 341.75 694.75 277.3 694.75
M 277.3 625.55
L 277.3 689.65 341.75 689.65 341.75 625.55 277.3 625.55
M 63.6 759
L 63.6 695 -0.4 695 -0.4 759 63.6 759
M 69 694.75
L 69 759 133.45 759 133.45 694.75 69 694.75
M 138.45 625.55
L 138.45 689.65 202.85 689.65 202.85 625.55 138.45 625.55
M 69 486.8
L 69 550.8 133 550.8 133 486.8 69 486.8
M 64 486.8
L 63.6 486.8 63.6 486.7 -0.4 486.7 -0.4 486.8 -0.45 486.8 -0.45 550.8 64 550.8 64 486.8
M 63.6 411.8
L 64 411.8 64 347.8 -0.45 347.8 -0.45 411.8 -0.4 411.8 -0.4 412.15 63.6 412.15 63.6 411.8
M 133.45 417.35
L 133 417.35 133 417.25 69 417.25 69 481.35 133.45 481.35 133.45 417.35
M 272.3 486.8
L 207.85 486.8 207.85 550.8 272.3 550.8 272.3 486.8
M 272.25 556.1
L 207.85 556.1 207.85 620.2 272.25 620.2 272.25 556.1
M 272.3 481.35
L 272.3 417.25 207.85 417.25 207.85 481.35 272.3 481.35
M 207.85 342.35
L 272.3 342.35 272.3 278.35 207.85 278.35 207.85 342.35
M 138.45 278.35
L 138.45 342.35 202.85 342.35 202.85 278.35 138.45 278.35
M 133.45 347.8
L 69 347.8 69 411.8 133.45 411.8 133.45 347.8
M 63.65 272.9
L 63.65 208.9 -0.35 208.9 -0.35 272.9 63.65 272.9
M 133.45 139.5
L 69 139.5 69 203.5 133.45 203.5 133.45 139.5
M 63.65 139.95
L 63.65 139.5 -0.35 139.5 -0.35 203.45 0 203.45 0 203.9 64 203.9 64 139.95 63.65 139.95
M 0 64.6
L 0 65.05 64 65.05 64 0.6 -0.45 0.6 -0.45 64.6 0 64.6
M 133.45 64.6
L 133.45 0.6 69 0.6 69 64.6 133.45 64.6
M 272.3 139.5
L 207.85 139.5 207.85 203.5 272.3 203.5 272.3 139.5
M 272.3 70.05
L 207.85 70.05 207.85 134.05 272.3 134.05 272.3 70.05
M 341.75 272.9
L 341.75 208.9 277.3 208.9 277.3 272.9 341.75 272.9
M 341.75 64.6
L 341.75 0.6 277.3 0.6 277.3 64.6 341.75 64.6
M 1798.65 1528
L 1734.25 1528 1734.25 1592 1798.65 1592 1798.65 1528
M 1868.05 1528
L 1803.7 1528 1803.7 1592 1868.05 1592 1868.05 1528
M 1937.5 1528
L 1873.5 1528 1873.5 1592 1937.5 1592 1937.5 1528
M 1937.5 1453
L 1937.5 1389 1873.5 1389 1873.5 1453 1937.5 1453
M 1734.25 1458.45
L 1734.25 1522.55 1798.65 1522.55 1798.65 1458.45 1734.25 1458.45
M 1734.25 1389
L 1734.25 1453 1798.65 1453 1798.65 1389 1734.25 1389
M 1729.2 1453.15
L 1729.2 1389.15 1665.2 1389.15 1665.2 1453.15 1729.2 1453.15
M 1798.65 1314.25
L 1798.65 1250.15 1734.25 1250.15 1734.25 1314.25 1798.65 1314.25
M 1803.7 1319.6
L 1803.7 1383.7 1868.05 1383.7 1868.05 1319.6 1803.7 1319.6
M 1798.65 1383.55
L 1798.65 1319.55 1734.25 1319.55 1734.25 1383.55 1798.65 1383.55
M 1937.5 1250.15
L 1873.5 1250.15 1873.5 1314.25 1937.5 1314.25 1937.5 1250.15
M 1803.7 1105.95
L 1867.7 1105.95 1867.7 1041.95 1803.7 1041.95 1803.7 1105.95
M 1868.05 1180.8
L 1803.7 1180.8 1803.7 1245.05 1868.05 1245.05 1868.05 1180.8
M 1873.5 1111.35
L 1873.5 1175.6 1937.5 1175.6 1937.5 1111.35 1873.5 1111.35
M 1803.7 1111.35
L 1803.7 1175.6 1868.05 1175.6 1868.05 1111.6 1867.7 1111.6 1867.7 1111.35 1803.7 1111.35
M 1734.25 1041.95
L 1734.25 1106.2 1798.65 1106.2 1798.65 1041.95 1734.25 1041.95
M 1665.2 1105.95
L 1729.2 1105.95 1729.2 1041.95 1665.2 1041.95 1665.2 1105.95
M 1734.25 1111.6
L 1734.25 1175.6 1798.65 1175.6 1798.65 1111.6 1734.25 1111.6
M 1728.8 972.5
L 1664.85 972.5 1664.85 1036.5 1728.8 1036.5 1728.8 972.5
M 1729.2 833.85
L 1665.2 833.85 1665.2 897.85 1729.2 897.85 1729.2 833.85
M 1664.85 903.3
L 1664.85 967.3 1728.8 967.3 1728.8 903.3 1664.85 903.3
M 1868.05 972.5
L 1804.1 972.5 1804.1 1036.5 1868.05 1036.5 1868.05 972.5
M 1867.7 833.85
L 1803.7 833.85 1803.7 897.85 1867.7 897.85 1867.7 833.85
M 1873.5 903.05
L 1873.5 967.3 1937.5 967.3 1937.5 903.05 1873.5 903.05
M 1937.5 972.5
L 1873.5 972.5 1873.5 1036.75 1937.5 1036.75 1937.5 972.5
M 1937.5 833.6
L 1873.5 833.6 1873.5 897.85 1937.5 897.85 1937.5 833.6
M 1868.05 764.2
L 1803.7 764.2 1803.7 828.45 1867.7 828.45 1867.7 828.2 1868.05 828.2 1868.05 764.2
M 1873.5 694.75
L 1873.5 759 1937.5 759 1937.5 694.75 1873.5 694.75
M 1803.7 694.75
L 1803.7 759 1868.05 759 1868.05 694.75 1803.7 694.75
M 1873.5 625.55
L 1873.5 689.65 1937.5 689.65 1937.5 625.55 1873.5 625.55
M 1734.25 694.75
L 1734.25 758.75 1798.65 758.75 1798.65 694.75 1734.25 694.75
M 1729.2 689.65
L 1729.2 625.55 1664.85 625.55 1664.85 689.65 1729.2 689.65
M 1728.8 481.25
L 1728.8 417.25 1664.85 417.25 1664.85 481.25 1728.8 481.25
M 1798.65 550.8
L 1798.65 486.8 1734.25 486.8 1734.25 550.8 1798.65 550.8
M 1868.05 556.1
L 1803.7 556.1 1803.7 620.2 1868.05 620.2 1868.05 556.1
M 1937.5 556.1
L 1873.5 556.1 1873.5 620.2 1937.5 620.2 1937.5 556.1
M 1868.05 481.25
L 1868.05 417.25 1804.1 417.25 1804.1 481.25 1868.05 481.25
M 1873.5 481.35
L 1937.5 481.35 1937.5 417.25 1873.5 417.25 1873.5 481.35
M 1734.25 203.5
L 1798.65 203.5 1798.65 139.5 1734.25 139.5 1734.25 203.5
M 1868.05 278.35
L 1803.7 278.35 1803.7 342.35 1868.05 342.35 1868.05 278.35
M 1937.5 347.8
L 1873.5 347.8 1873.5 411.8 1937.5 411.8 1937.5 347.8
M 1868.05 272.9
L 1868.05 208.9 1803.7 208.9 1803.7 272.9 1868.05 272.9
M 1937.5 278.35
L 1873.5 278.35 1873.5 342.35 1937.5 342.35 1937.5 278.35
M 1729.2 347.8
L 1664.85 347.8 1664.85 411.8 1729.2 411.8 1729.2 347.8
M 1734.25 278.35
L 1734.25 342.35 1798.65 342.35 1798.65 278.35 1734.25 278.35
M 1734.25 208.9
L 1734.25 272.9 1798.65 272.9 1798.65 208.9 1734.25 208.9
M 1729.2 272.9
L 1729.2 208.9 1664.85 208.9 1664.85 272.9 1729.2 272.9
M 1729.2 139.5
L 1664.85 139.5 1664.85 203.5 1729.2 203.5 1729.2 139.5
M 1729.2 64.6
L 1729.2 0.6 1664.85 0.6 1664.85 64.6 1729.2 64.6
M 1803.7 134.05
L 1868.05 134.05 1868.05 70.05 1803.7 70.05 1803.7 134.05
M 1937.5 139.5
L 1873.5 139.5 1873.5 203.5 1937.5 203.5 1937.5 139.5
M 1798.65 64.6
L 1798.65 0.6 1734.25 0.6 1734.25 64.6 1798.65 64.6
M 1873.5 64.6
L 1937.5 64.6 1937.5 0.6 1873.5 0.6 1873.5 64.6
M 1868.05 64.6
L 1868.05 0.6 1803.7 0.6 1803.7 64.6 1868.05 64.6
M 2007.3 1869.75
L 2007.3 1805.75 1942.95 1805.75 1942.95 1869.75 2007.3 1869.75
M 2006.95 1875.2
L 2006.5 1875.2 2006.5 1874.75 1942.5 1874.75 1942.55 1938.75 1942.85 1938.75 1942.85 1939.2 2006.95 1939.2 2006.95 1875.2
M 2006.85 1730.9
L 2006.85 1666.9 1942.85 1666.9 1942.85 1730.9 2006.85 1730.9
M 2006.95 1597.45
L 2006.5 1597.45 2006.5 1597 1942.5 1597 1942.5 1661 1942.9 1661 1942.9 1661.45 2006.95 1661.45 2006.95 1597.45
M 2006.9 1244.8
L 2006.9 1180.8 1942.9 1180.8 1942.9 1244.8 2006.9 1244.8
M 2006.95 1522.55
L 2006.95 1458.45 1942.95 1458.45 1942.95 1458.55 1942.9 1458.55 1942.85 1522.55 2006.95 1522.55
M 2006.95 1528
L 2006.9 1528 2006.9 1527.65 1942.9 1527.65 1942.9 1591.65 1942.95 1591.65 1942.95 1592 2006.95 1592 2006.95 1528
M 2006.9 1453.1
L 2006.9 1453 2006.95 1453 2006.95 1389 1942.95 1389 1942.95 1389.1 1942.9 1389.1 1942.9 1453.1 2006.9 1453.1
M 2006.95 1314.25
L 2006.95 1250.25 1942.95 1250.25 1942.95 1314.25 2006.95 1314.25
M 2006.95 1383.7
L 2006.95 1319.6 1942.95 1319.6 1942.95 1319.7 1942.9 1319.7 1942.9 1383.65 1942.95 1383.65 1942.95 1383.7 2006.95 1383.7
M 2006.8 1042.2
L 2006.8 1041.3 1942.8 1041.3 1942.8 1105.3 1942.95 1105.3 1942.95 1106.2 2006.95 1106.2 2006.95 1042.2 2006.8 1042.2
M 2006.95 972.5
L 2006.8 972.5 2006.8 971.9 1942.8 971.9 1942.8 1037.35 2006.8 1037.35 2006.8 1036.75 2006.95 1036.75 2006.95 972.5
M 2006.8 898.5
L 2006.8 897.6 2006.95 897.6 2006.95 833.6 1942.95 833.6 1942.95 834.5 1942.8 834.5 1942.8 898.5 2006.8 898.5
M 2006.95 620.2
L 2006.95 556.1 1942.95 556.1 1942.95 556.15 1942.9 556.15 1942.9 620.1 1942.95 620.1 1942.95 620.2 2006.95 620.2
M 2006.9 759
L 2006.9 695 1942.9 695 1942.9 759 2006.9 759
M 2006.95 481.35
L 2006.95 417.25 1942.85 417.25 1942.9 481.25 1942.95 481.25 1942.95 481.35 2006.95 481.35
M 2006.9 486.8
L 2006.9 486.7 1942.9 486.7 1942.9 550.7 1942.95 550.7 1942.95 550.8 2006.95 550.8 2006.95 486.8 2006.9 486.8
M 2006.5 134.5
L 2006.5 134.05 2006.95 134.05 2006.95 70.05 1942.95 70.05 1942.95 70.5 1942.5 70.5 1942.5 134.5 2006.5 134.5 Z"/>
</g>
</defs>

<g transform="matrix( 1, 0, 0, 1, 0,0) ">
<use xlink:href="#Layer2_0_FILL"/>
</g>
</svg>
