
<svg xmlns="http://www.w3.org/2000/svg" version="1.1" xmlns:xlink="http://www.w3.org/1999/xlink" preserveAspectRatio="none" x="0px" y="0px" width="2007px" height="1940px" viewBox="0 0 2007 1940">
<defs>
<g id="Layer2_0_FILL">
<path fill="#000000" fill-opacity="0.24705882352941178" stroke="none" d="
M 202.85 1735.7
L 138.9 1735.7 138.9 1799.7 202.85 1799.7 202.85 1735.7
M 272.3 1874.6
L 208.3 1874.6 208.3 1938.6 272.3 1938.6 272.3 1874.6
M 133.45 1874.6
L 69.45 1874.6 69.45 1938.6 133.45 1938.6 133.45 1874.6
M 138.9 1874.6
L 138.9 1938.6 202.85 1938.6 202.85 1874.6 138.9 1874.6
M 64 1874.6
L 0 1874.6 0 1938.6 64 1938.6 64 1874.6
M 64 1805.15
L 0 1805.15 0 1869.15 64 1869.15 64 1805.15
M 133.45 1869.15
L 133.45 1805.15 69.45 1805.15 69.45 1869.15 133.45 1869.15
M 133.45 1735.7
L 69.45 1735.7 69.45 1799.7 133.45 1799.7 133.45 1735.7
M 64 1596.85
L 0 1596.85 0 1660.85 64 1660.85 64 1596.85
M 202.85 1730.3
L 202.85 1666.3 138.9 1666.3 138.9 1730.3 202.85 1730.3
M 272.3 1666.3
L 208.3 1666.3 208.3 1730.3 272.3 1730.3 272.3 1666.3
M 202.85 1660.85
L 202.85 1596.85 138.9 1596.85 138.9 1660.85 202.85 1660.85
M 272.3 1660.85
L 272.3 1596.85 208.3 1596.85 208.3 1660.85 272.3 1660.85
M 341.75 1799.7
L 341.75 1735.7 277.75 1735.7 277.75 1799.7 341.75 1799.7
M 411.55 1874.6
L 347.55 1874.6 347.55 1938.6 411.55 1938.6 411.55 1874.6
M 341.75 1869.15
L 341.75 1805.15 277.75 1805.15 277.75 1869.15 341.75 1869.15
M 480.55 1874.15
L 416.55 1874.15 416.6 1938.15 480.6 1938.15 480.55 1874.15
M 480.55 1868.7
L 480.55 1804.7 416.55 1804.7 416.55 1868.7 480.55 1868.7
M 411.55 1869.15
L 411.55 1805.15 347.55 1805.15 347.55 1869.15 411.55 1869.15
M 480.55 1735.3
L 416.55 1735.3 416.55 1799.25 480.55 1799.25 480.55 1735.3
M 480.55 1660.4
L 480.55 1596.4 416.55 1596.4 416.55 1660.4 480.55 1660.4
M 411.55 1660.85
L 411.55 1596.85 347.55 1596.85 347.55 1660.85 411.55 1660.85
M 341.75 1180.45
L 277.75 1180.45 277.75 1244.45 341.75 1244.45 341.75 1180.45
M 341.75 1527.4
L 277.75 1527.4 277.75 1591.4 341.75 1591.4 341.75 1527.4
M 411.55 1521.85
L 411.55 1457.85 347.55 1457.85 347.55 1521.85 411.55 1521.85
M 411.55 1527.4
L 347.55 1527.4 347.55 1591.4 411.55 1591.4 411.55 1527.4
M 411.55 1452.4
L 411.55 1388.4 347.55 1388.4 347.55 1452.4 411.55 1452.4
M 347.55 1319
L 347.55 1383 411.55 1383 411.55 1319 347.55 1319
M 202.85 1527.4
L 138.9 1527.4 138.9 1591.4 202.85 1591.4 202.85 1527.4
M 272.3 1527.4
L 208.3 1527.4 208.3 1591.4 272.3 1591.4 272.3 1527.4
M 208.3 1521.85
L 272.3 1521.85 272.3 1457.85 208.3 1457.85 208.3 1521.85
M 272.3 1452.4
L 272.3 1388.4 208.3 1388.4 208.3 1452.4 272.3 1452.4
M 69.45 1521.85
L 133.45 1521.85 133.45 1457.85 69.45 1457.85 69.45 1521.85
M 64 1527.4
L 0 1527.4 0 1591.4 64 1591.4 64 1527.4
M 64 1452.4
L 64 1388.4 0 1388.4 0 1452.4 64 1452.4
M 64 1457.85
L 0 1457.85 0 1521.85 64 1521.85 64 1457.85
M 69.45 1313.55
L 133.45 1313.55 133.45 1249.55 69.45 1249.55 69.45 1313.55
M 69.45 1319
L 69.45 1383 133.45 1383 133.45 1319 69.45 1319
M 64 1383
L 64 1319 0 1319 0 1383 64 1383
M 277.75 1249.55
L 277.75 1313.55 341.75 1313.55 341.75 1249.55 277.75 1249.55
M 202.85 1313.55
L 202.85 1249.55 138.9 1249.55 138.9 1313.55 202.85 1313.55
M 208.3 1313.55
L 272.3 1313.55 272.3 1249.55 208.3 1249.55 208.3 1313.55
M 277.75 1319
L 277.75 1383 341.75 1383 341.75 1319 277.75 1319
M 202.85 1383
L 202.85 1319 138.9 1319 138.9 1383 202.85 1383
M 202.85 1180.45
L 138.9 1180.45 138.9 1244.45 202.85 1244.45 202.85 1180.45
M 272.3 1180.45
L 208.3 1180.45 208.3 1244.45 272.3 1244.45 272.3 1180.45
M 272.3 1041.6
L 208.3 1041.6 208.3 1105.6 272.3 1105.6 272.3 1041.6
M 133.45 1180.45
L 69.45 1180.45 69.45 1244.45 133.45 1244.45 133.45 1180.45
M 138.9 1111
L 138.9 1175 202.85 1175 202.85 1111 138.9 1111
M 69.45 1111
L 69.45 1175 133.45 1175 133.45 1111 69.45 1111
M 64 1175
L 64 1111 0 1111 0 1175 64 1175
M 64 1041.6
L 0 1041.6 0 1105.6 64 1105.6 64 1041.6
M 133.45 972.15
L 69.45 972.15 69.45 1036.15 133.45 1036.15 133.45 972.15
M 133.45 833.25
L 69.45 833.25 69.45 897.25 133.45 897.25 133.45 833.25
M 69.45 902.7
L 69.45 966.7 133.45 966.7 133.45 902.7 69.45 902.7
M 64 972.15
L 0 972.15 0 1036.15 64 1036.15 64 972.15
M 64 966.7
L 64 902.7 0 902.7 0 966.7 64 966.7
M 272.3 833.25
L 208.3 833.25 208.3 897.25 272.3 897.25 272.3 833.25
M 272.3 972.15
L 208.3 972.15 208.3 1036.15 272.3 1036.15 272.3 972.15
M 202.85 966.7
L 202.85 902.7 138.9 902.7 138.9 966.7 202.85 966.7
M 208.3 902.7
L 208.3 966.7 272.3 966.7 272.3 902.7 208.3 902.7
M 411.55 1105.6
L 411.55 1041.6 347.55 1041.6 347.55 1105.6 411.55 1105.6
M 480.9 1174.15
L 480.9 1110.15 416.9 1110.15 416.9 1174.15 480.9 1174.15
M 347.55 1111
L 347.55 1175 411.55 1175 411.55 1111 347.55 1111
M 341.75 1175
L 341.75 1111 277.75 1111 277.75 1175 341.75 1175
M 480.85 1040.7
L 416.85 1040.7 416.85 1104.7 480.85 1104.7 480.85 1040.7
M 411.55 972.15
L 347.55 972.15 347.55 1036.15 411.55 1036.15 411.55 972.15
M 341.75 897.25
L 341.75 833.25 277.75 833.25 277.75 897.25 341.75 897.25
M 480.85 965.85
L 480.85 901.85 416.85 901.85 416.85 965.85 480.85 965.85
M 480.85 971.3
L 416.85 971.3 416.85 1035.25 480.85 1035.25 480.85 971.3
M 347.55 902.7
L 347.55 966.7 411.55 966.7 411.55 902.7 347.55 902.7
M 341.75 763.85
L 277.75 763.85 277.75 827.85 341.75 827.85 341.75 763.85
M 411.55 763.85
L 347.55 763.85 347.55 827.85 411.55 827.85 411.55 763.85
M 416.95 694.4
L 416.95 758.4 480.95 758.4 480.95 694.4 416.95 694.4
M 411.55 688.95
L 411.55 624.95 347.55 624.95 347.55 688.95 411.55 688.95
M 411.55 555.5
L 347.55 555.5 347.55 619.5 411.55 619.5 411.55 555.5
M 480.95 555.55
L 416.95 555.55 416.95 619.5 480.95 619.5 480.95 555.55
M 411.55 480.65
L 411.55 416.65 347.55 416.65 347.55 480.65 411.55 480.65
M 480.95 486.1
L 416.95 486.1 416.95 550.1 480.95 550.1 480.95 486.1
M 416.95 480.65
L 480.95 480.65 480.9 416.65 416.9 416.65 416.95 480.65
M 202.85 555.5
L 138.9 555.5 138.9 619.5 202.85 619.5 202.85 555.5
M 277.75 555.5
L 277.75 619.5 341.75 619.5 341.75 555.5 277.75 555.5
M 277.75 694.4
L 277.75 758.4 341.75 758.4 341.75 694.4 277.75 694.4
M 277.75 624.95
L 277.75 688.95 341.75 688.95 341.75 624.95 277.75 624.95
M 272.3 688.95
L 272.3 624.95 208.3 624.95 208.3 688.95 272.3 688.95
M 133.45 763.85
L 69.45 763.85 69.45 827.85 133.45 827.85 133.45 763.85
M 138.9 694.4
L 138.9 758.4 202.85 758.4 202.85 694.4 138.9 694.4
M 69.45 694.4
L 69.45 758.4 133.45 758.4 133.45 694.4 69.45 694.4
M 64 763.85
L 0 763.85 0 827.85 64 827.85 64 763.85
M 64 624.95
L 0 624.95 0 688.95 64 688.95 64 624.95
M 138.9 624.95
L 138.9 688.95 202.85 688.95 202.85 624.95 138.9 624.95
M 133.45 555.5
L 69.45 555.5 69.45 619.5 133.45 619.5 133.45 555.5
M 64 555.5
L 0 555.5 0 619.5 64 619.5 64 555.5
M 64 416.65
L 0 416.65 0 480.65 64 480.65 64 416.65
M 277.75 486.05
L 277.75 550.05 341.75 550.05 341.75 486.05 277.75 486.05
M 202.85 480.65
L 202.85 416.65 138.9 416.65 138.9 480.65 202.85 480.65
M 272.3 480.65
L 272.3 416.65 208.3 416.65 208.3 480.65 272.3 480.65
M 202.85 138.9
L 138.9 138.9 138.9 202.9 202.85 202.9 202.85 138.9
M 202.85 347.2
L 138.9 347.2 138.9 411.2 202.85 411.2 202.85 347.2
M 272.3 347.2
L 208.3 347.2 208.3 411.2 272.3 411.2 272.3 347.2
M 133.45 347.2
L 69.45 347.2 69.45 411.2 133.45 411.2 133.45 347.2
M 133.45 277.75
L 69.45 277.75 69.45 341.75 133.45 341.75 133.45 277.75
M 64 347.2
L 0 347.2 0 411.2 64 411.2 64 347.2
M 64 277.75
L 0 277.75 0 341.75 64 341.75 64 277.75
M 133.45 272.3
L 133.45 208.3 69.45 208.3 69.45 272.3 133.45 272.3
M 138.9 208.3
L 138.9 272.3 202.85 272.3 202.85 208.3 138.9 208.3
M 64 0
L 0 0 0 64 64 64 64 0
M 64 69.45
L 0 69.45 0 133.45 64 133.45 64 69.45
M 202.85 133.45
L 202.85 69.45 138.9 69.45 138.9 133.45 202.85 133.45
M 272.3 69.45
L 208.3 69.45 208.3 133.45 272.3 133.45 272.3 69.45
M 272.3 138.9
L 208.3 138.9 208.3 202.9 272.3 202.9 272.3 138.9
M 202.85 64
L 202.85 0 138.9 0 138.9 64 202.85 64
M 272.3 64
L 272.3 0 208.3 0 208.3 64 272.3 64
M 411.55 277.75
L 347.55 277.75 347.55 341.75 411.55 341.75 411.55 277.75
M 411.55 347.2
L 347.55 347.2 347.55 411.2 411.55 411.2 411.55 347.2
M 341.75 341.75
L 341.75 277.75 277.75 277.75 277.75 341.75 341.75 341.75
M 480.95 347.55
L 416.95 347.55 416.95 411.55 480.95 411.55 480.95 347.55
M 341.75 272.3
L 341.75 208.3 277.75 208.3 277.75 272.3 341.75 272.3
M 480.95 277.75
L 416.95 277.75 416.95 341.75 480.95 341.75 480.95 277.75
M 480.9 272.3
L 480.9 208.3 416.9 208.3 416.9 272.3 480.9 272.3
M 411.55 69.45
L 347.55 69.45 347.55 133.45 411.55 133.45 411.55 69.45
M 480.9 138.9
L 416.9 138.9 416.9 202.85 480.9 202.85 480.9 138.9
M 341.75 64
L 341.75 0 277.75 0 277.75 64 341.75 64
M 411.55 64
L 411.55 0 347.55 0 347.55 64 411.55 64
M 480.9 64
L 480.9 0 416.9 0 416.9 64 480.9 64 Z"/>
</g>

<g id="Layer0_0_FILL">
<path fill="#000000" fill-opacity="0.24705882352941178" stroke="none" d="
M 1591.6 1939.2
L 1591.55 1875.2 1527.55 1875.2 1527.6 1939.2 1591.6 1939.2
M 1591.55 1730.9
L 1591.55 1666.9 1527.55 1666.9 1527.55 1730.9 1591.55 1730.9
M 1591.55 1736.35
L 1527.55 1736.35 1527.55 1800.3 1591.55 1800.3 1591.55 1736.35
M 1591.55 1661.45
L 1591.55 1597.45 1527.55 1597.45 1527.55 1661.45 1591.55 1661.45
M 1734.7 1799.7
L 1798.7 1799.7 1798.7 1735.7 1734.7 1735.7 1734.7 1799.7
M 1804.15 1938.6
L 1868.1 1938.6 1868.1 1874.6 1804.15 1874.6 1804.15 1938.6
M 1868.1 1869.15
L 1868.1 1805.15 1804.15 1805.15 1804.15 1869.15 1868.1 1869.15
M 1734.7 1874.6
L 1734.7 1938.6 1798.7 1938.6 1798.7 1874.6 1734.7 1874.6
M 1665.25 1938.6
L 1729.25 1938.6 1729.25 1874.6 1665.25 1874.6 1665.25 1938.6
M 1659.8 1938.6
L 1659.8 1874.6 1595.8 1874.6 1595.8 1938.6 1659.8 1938.6
M 1659.8 1869.15
L 1659.8 1805.15 1595.8 1805.15 1595.8 1869.15 1659.8 1869.15
M 1734.7 1805.15
L 1734.7 1869.15 1798.7 1869.15 1798.7 1805.15 1734.7 1805.15
M 1665.25 1730.3
L 1729.25 1730.3 1729.25 1666.3 1665.25 1666.3 1665.25 1730.3
M 1659.8 1660.85
L 1659.8 1596.85 1595.8 1596.85 1595.8 1660.85 1659.8 1660.85
M 1729.25 1660.85
L 1729.25 1596.85 1665.25 1596.85 1665.25 1660.85 1729.25 1660.85
M 1804.15 1730.3
L 1868.1 1730.3 1868.1 1666.3 1804.15 1666.3 1804.15 1730.3
M 1868.1 1735.7
L 1804.15 1735.7 1804.15 1799.7 1868.1 1799.7 1868.1 1735.7
M 1873.55 1660.85
L 1937.55 1660.85 1937.55 1596.85 1873.55 1596.85 1873.55 1660.85
M 1937.55 1666.3
L 1873.55 1666.3 1873.55 1730.3 1937.55 1730.3 1937.55 1666.3
M 2007 1938.6
L 2007 1874.6 1943 1874.6 1943 1938.6 2007 1938.6
M 2007 1869.15
L 2007 1805.15 1943 1805.15 1943 1869.15 2007 1869.15
M 2007 1660.85
L 2007 1596.85 1943 1596.85 1943 1660.85 2007 1660.85
M 2007 1527.4
L 1943 1527.4 1943 1591.4 2007 1591.4 2007 1527.4
M 2007 763.55
L 1943 763.55 1943 827.55 2007 827.55 2007 763.55
M 1659.8 1527.4
L 1595.8 1527.4 1595.8 1591.4 1659.8 1591.4 1659.8 1527.4
M 1798.7 1527.4
L 1734.7 1527.4 1734.7 1591.4 1798.7 1591.4 1798.7 1527.4
M 1943 1457.95
L 1943 1521.95 2007 1521.95 2007 1457.95 1943 1457.95
M 1868.1 1457.95
L 1804.15 1457.95 1804.15 1521.95 1868.1 1521.95 1868.1 1457.95
M 1868.1 1527.4
L 1804.15 1527.4 1804.15 1591.4 1868.1 1591.4 1868.1 1527.4
M 1937.55 1527.4
L 1873.55 1527.4 1873.55 1591.4 1937.55 1591.4 1937.55 1527.4
M 1943 1388.5
L 1943 1452.5 2007 1452.5 2007 1388.5 1943 1388.5
M 1937.55 1457.95
L 1873.55 1457.95 1873.55 1521.95 1937.55 1521.95 1937.55 1457.95
M 1729.25 1457.95
L 1665.25 1457.95 1665.25 1521.95 1729.25 1521.95 1729.25 1457.95
M 1734.7 1388.5
L 1734.7 1452.5 1798.7 1452.5 1798.7 1388.5 1734.7 1388.5
M 1943 1249.65
L 1943 1313.65 2007 1313.65 2007 1249.65 1943 1249.65
M 1868.1 1249.65
L 1804.15 1249.65 1804.15 1313.65 1868.1 1313.65 1868.1 1249.65
M 1798.7 1313.65
L 1798.7 1249.65 1734.7 1249.65 1734.7 1313.65 1798.7 1313.65
M 1943 1319.1
L 1943 1383.1 2007 1383.1 2007 1319.1 1943 1319.1
M 1937.55 1319.1
L 1873.55 1319.1 1873.55 1383.1 1937.55 1383.1 1937.55 1319.1
M 1798.7 1383.1
L 1798.7 1319.1 1734.7 1319.1 1734.7 1383.1 1798.7 1383.1
M 1937.55 1249.65
L 1873.55 1249.65 1873.55 1313.65 1937.55 1313.65 1937.55 1249.65
M 1595.8 1457.95
L 1595.8 1521.95 1659.8 1521.95 1659.8 1457.95 1595.8 1457.95
M 1527.9 1458.4
L 1527.9 1522.4 1591.9 1522.4 1591.9 1458.4 1527.9 1458.4
M 1595.8 1249.65
L 1595.8 1313.65 1659.8 1313.65 1659.8 1249.65 1595.8 1249.65
M 1527.9 1314.1
L 1591.9 1314.1 1591.85 1250.1 1527.85 1250.1 1527.9 1314.1
M 1595.8 1319.1
L 1595.8 1383.1 1659.8 1383.1 1659.8 1319.1 1595.8 1319.1
M 1591.85 1105.75
L 1591.85 1041.75 1527.85 1041.75 1527.85 1105.75 1591.85 1105.75
M 1591.9 1181
L 1527.9 1181 1527.9 1245 1591.9 1245 1591.9 1181
M 1591.85 897.45
L 1591.85 833.45 1527.85 833.45 1527.85 897.45 1591.85 897.45
M 1591.85 972.35
L 1527.85 972.35 1527.85 1036.3 1591.85 1036.3 1591.85 972.35
M 1943 971.9
L 1943 1035.9 2007 1035.9 2007 971.9 1943 971.9
M 1659.8 1035.9
L 1659.8 971.9 1595.8 971.9 1595.8 1035.9 1659.8 1035.9
M 1798.7 971.9
L 1734.7 971.9 1734.7 1035.9 1798.7 1035.9 1798.7 971.9
M 1798.7 1180.2
L 1734.7 1180.2 1734.7 1244.2 1798.7 1244.2 1798.7 1180.2
M 1868.1 1041.3
L 1804.15 1041.3 1804.15 1105.3 1868.1 1105.3 1868.1 1041.3
M 1943 1110.75
L 1943 1174.75 2007 1174.75 2007 1110.75 1943 1110.75
M 1937.55 1110.75
L 1873.55 1110.75 1873.55 1174.75 1937.55 1174.75 1937.55 1110.75
M 1937.55 1180.2
L 1873.55 1180.2 1873.55 1244.2 1937.55 1244.2 1937.55 1180.2
M 1937.55 1041.3
L 1873.55 1041.3 1873.55 1105.3 1937.55 1105.3 1937.55 1041.3
M 1729.25 1180.2
L 1665.25 1180.2 1665.25 1244.2 1729.25 1244.2 1729.25 1180.2
M 1729.25 1041.3
L 1665.25 1041.3 1665.25 1105.3 1729.25 1105.3 1729.25 1041.3
M 1665.25 1110.75
L 1665.25 1174.75 1729.25 1174.75 1729.25 1110.75 1665.25 1110.75
M 1659.8 1174.75
L 1659.8 1110.75 1595.8 1110.75 1595.8 1174.75 1659.8 1174.75
M 1729.25 971.9
L 1665.25 971.9 1665.25 1035.9 1729.25 1035.9 1729.25 971.9
M 1729.25 833
L 1665.25 833 1665.25 897 1729.25 897 1729.25 833
M 1659.8 897
L 1659.8 833 1595.8 833 1595.8 897 1659.8 897
M 1665.25 902.45
L 1665.25 966.45 1729.25 966.45 1729.25 902.45 1665.25 902.45
M 1659.8 966.45
L 1659.8 902.45 1595.8 902.45 1595.8 966.45 1659.8 966.45
M 1868.1 971.9
L 1804.15 971.9 1804.15 1035.9 1868.1 1035.9 1868.1 971.9
M 1943 902.45
L 1943 966.45 2007 966.45 2007 902.45 1943 902.45
M 1937.55 902.45
L 1873.55 902.45 1873.55 966.45 1937.55 966.45 1937.55 902.45
M 1804.15 902.45
L 1804.15 966.45 1868.1 966.45 1868.1 902.45 1804.15 902.45
M 1659.8 763.6
L 1595.8 763.6 1595.8 827.6 1659.8 827.6 1659.8 763.6
M 1595.8 411.2
L 1659.8 411.2 1659.8 347.2 1595.8 347.2 1595.8 411.2
M 1798.7 763.55
L 1734.7 763.55 1734.7 827.55 1798.7 827.55 1798.7 763.55
M 1868.1 763.55
L 1804.15 763.55 1804.15 827.55 1868.1 827.55 1868.1 763.55
M 1937.55 694.15
L 1873.55 694.15 1873.55 758.15 1937.55 758.15 1937.55 694.15
M 1804.15 694.15
L 1804.15 758.15 1868.1 758.15 1868.1 694.15 1804.15 694.15
M 1937.55 624.7
L 1873.55 624.7 1873.55 688.7 1937.55 688.7 1937.55 624.7
M 1734.7 694.15
L 1734.7 758.15 1798.7 758.15 1798.7 694.15 1734.7 694.15
M 1729.25 688.7
L 1729.25 624.7 1665.25 624.7 1665.25 688.7 1729.25 688.7
M 1729.25 555.25
L 1665.25 555.25 1665.25 619.25 1729.25 619.25 1729.25 555.25
M 1798.7 549.8
L 1798.7 485.8 1734.7 485.8 1734.7 549.8 1798.7 549.8
M 1868.1 485.8
L 1804.15 485.8 1804.15 549.8 1868.1 549.8 1868.1 485.8
M 1868.1 555.25
L 1804.15 555.25 1804.15 619.25 1868.1 619.25 1868.1 555.25
M 1937.55 555.25
L 1873.55 555.25 1873.55 619.25 1937.55 619.25 1937.55 555.25
M 1798.7 480.35
L 1798.7 416.35 1734.7 416.35 1734.7 480.35 1798.7 480.35
M 1868.1 480.35
L 1868.1 416.35 1804.15 416.35 1804.15 480.35 1868.1 480.35
M 1595.8 555.6
L 1595.8 619.6 1659.8 619.6 1659.8 555.6 1595.8 555.6
M 1595.8 486.2
L 1595.8 550.2 1659.8 550.2 1659.8 486.2 1595.8 486.2
M 1591.95 550.15
L 1591.95 486.15 1527.95 486.15 1527.95 550.15 1591.95 550.15
M 1595.8 416.75
L 1595.8 480.75 1659.8 480.75 1659.8 416.75 1595.8 416.75
M 1591.95 480.7
L 1591.95 416.7 1527.95 416.7 1527.95 480.7 1591.95 480.7
M 1591.8 347.55
L 1527.8 347.55 1527.8 411.55 1591.8 411.55 1591.8 347.55
M 1591.75 272.3
L 1591.75 208.3 1527.75 208.3 1527.75 272.3 1591.75 272.3
M 1591.75 138.9
L 1527.75 138.9 1527.75 202.85 1591.75 202.85 1591.75 138.9
M 1591.75 64
L 1591.75 0 1527.75 0 1527.75 64 1591.75 64
M 1798.7 346.95
L 1734.7 346.95 1734.7 410.95 1798.7 410.95 1798.7 346.95
M 1868.1 346.95
L 1804.15 346.95 1804.15 410.95 1868.1 410.95 1868.1 346.95
M 1868.1 277.85
L 1804.15 277.85 1804.15 340.8 1868.1 340.8 1868.1 277.85
M 1868.1 272.4
L 1868.1 208.4 1804.15 208.4 1804.15 272.4 1868.1 272.4
M 1873.55 208.4
L 1873.55 272.4 1937.55 272.4 1937.55 208.4 1873.55 208.4
M 1729.25 346.95
L 1665.25 346.95 1665.25 410.95 1729.25 410.95 1729.25 346.95
M 1659.8 341.75
L 1659.8 277.75 1595.8 277.75 1595.8 341.75 1659.8 341.75
M 1734.7 277.85
L 1734.7 340.8 1798.7 340.8 1798.7 277.85 1734.7 277.85
M 1729.25 277.85
L 1665.25 277.85 1665.25 340.8 1729.25 340.8 1729.25 277.85
M 1729.25 272.4
L 1729.25 208.4 1665.25 208.4 1665.25 272.4 1729.25 272.4
M 1665.25 69.55
L 1665.25 133.55 1729.25 133.55 1729.25 69.55 1665.25 69.55
M 1659.8 133.45
L 1659.8 69.45 1595.8 69.45 1595.8 133.45 1659.8 133.45
M 1659.8 64
L 1659.8 0 1595.8 0 1595.8 64 1659.8 64
M 1798.7 133.55
L 1798.7 69.55 1734.7 69.55 1734.7 133.55 1798.7 133.55
M 1868.1 139
L 1804.15 139 1804.15 203 1868.1 203 1868.1 139
M 1937.55 139
L 1873.55 139 1873.55 203 1937.55 203 1937.55 139
M 1868.1 64.1
L 1868.1 0.1 1804.15 0.1 1804.15 64.1 1868.1 64.1
M 1937.55 69.55
L 1873.55 69.55 1873.55 133.55 1937.55 133.55 1937.55 69.55
M 1873.55 0.1
L 1873.55 64.1 1937.55 64.1 1937.55 0.1 1873.55 0.1
M 2007 410.95
L 2007 346.95 1943 346.95 1943 410.95 2007 410.95
M 2007 758.15
L 2007 694.15 1943 694.15 1943 758.15 2007 758.15
M 2007 688.7
L 2007 624.7 1943 624.7 1943 688.7 2007 688.7
M 2007 480.35
L 2007 416.35 1943 416.35 1943 480.35 2007 480.35
M 2006.65 203
L 2006.65 139 1942.65 139 1942.65 203 2006.65 203
M 2006.65 272.4
L 2006.65 208.4 1942.65 208.4 1942.65 272.4 2006.65 272.4
M 2006.65 133.55
L 2006.65 69.55 1942.65 69.55 1942.65 133.55 2006.65 133.55
M 2006.65 64.1
L 2006.65 0.1 1942.65 0.1 1942.65 64.1 2006.65 64.1 Z"/>
</g>
</defs>

<g transform="matrix( 1, 0, 0, 1, 0,0) ">
<use xlink:href="#Layer2_0_FILL"/>
</g>

<g transform="matrix( 1, 0, 0, 1, 0,0) ">
<use xlink:href="#Layer0_0_FILL"/>
</g>
</svg>
