<svg xmlns:xlink="http://www.w3.org/1999/xlink" xmlns="http://www.w3.org/2000/svg" version="1.1"
     preserveAspectRatio="none" x="0px" y="0px" width="37px" height="5px" viewBox="0 0 37 5">
    <defs>
        <g id="Layer0_0_FILL">
            <path fill="#FFFFFF" stroke="none" d="
M 5 3
L 5 0 0 0 0 5 1 5 1 3 5 3
M 4 1
L 4 2 1 2 1 1 4 1
M 11 5
L 11 4 10 4 10 5 11 5
M 11 3
L 11 0 6 0 6 5 7 5 7 3 9 3 9 4 10 4 10 3 11 3
M 10 1
L 10 2 7 2 7 1 10 1
M 17 5
L 17 0 12 0 12 5 17 5
M 16 1
L 16 4 13 4 13 1 16 1
M 23 1
L 23 0 18 0 18 5 19 5 19 3 22 3 22 2 19 2 19 1 23 1
M 25 0
L 24 0 24 5 25 5 25 0
M 31 5
L 31 4 27 4 27 0 26 0 26 5 31 5
M 37 1
L 37 0 32 0 32 5 37 5 37 4 33 4 33 3 36 3 36 2 33 2 33 1 37 1 Z"/>
        </g>
    </defs>

    <g transform="matrix( 1, 0, 0, 1, 0,0) ">
        <use xlink:href="#Layer0_0_FILL"/>
    </g>
</svg>
