<svg xmlns:xlink="http://www.w3.org/1999/xlink" xmlns="http://www.w3.org/2000/svg" version="1.1"
     preserveAspectRatio="none" x="0px" y="0px" width="35px" height="5px" viewBox="0 0 35 5">
    <defs>
        <g id="Layer0_0_FILL">
            <path fill="#FFFFFF" stroke="none" d="
M 5 3
L 4 3 4 4 1 4 1 3 4 3 4 2 1 2 1 1 4 1 4 2 5 2 5 0 0 0 0 5 5 5 5 3
M 11 5
L 11 0 6 0 6 5 7 5 7 4 10 4 10 5 11 5
M 10 1
L 10 3 7 3 7 1 10 1
M 16 5
L 17 5 17 0 12 0 12 5 13 5 13 1 16 1 16 5
M 22 5
L 23 5 23 0 18 0 18 5 19 5 19 1 22 1 22 5
M 29 1
L 29 0 24 0 24 5 29 5 29 4 25 4 25 3 28 3 28 2 25 2 25 1 29 1
M 35 4
L 34 4 34 5 35 5 35 4
M 34 3
L 35 3 35 0 30 0 30 5 31 5 31 3 33 3 33 4 34 4 34 3
M 34 1
L 34 2 31 2 31 1 34 1 Z"/>
        </g>
    </defs>

    <g transform="matrix( 1, 0, 0, 1, 0,0) ">
        <use xlink:href="#Layer0_0_FILL"/>
    </g>
</svg>
