<svg xmlns:xlink="http://www.w3.org/1999/xlink" xmlns="http://www.w3.org/2000/svg" version="1.1"
     preserveAspectRatio="none" x="0px" y="0px" width="47px" height="5px" viewBox="0 0 47 5">
    <defs>
        <g id="Layer0_0_FILL">
            <path fill="#FFFFFF" stroke="none" d="
M 1 4
L 1 1 5 1 5 0 0 0 0 5 5 5 5 4 1 4
M 11 5
L 11 0 6 0 6 5 7 5 7 4 10 4 10 5 11 5
M 10 1
L 10 3 7 3 7 1 10 1
M 17 5
L 17 4 13 4 13 3 16 3 16 2 13 2 13 1 17 1 17 0 12 0 12 5 17 5
M 22 5
L 23 5 23 0 18 0 18 5 19 5 19 1 22 1 22 5
M 29 5
L 29 0 24 0 24 5 29 5
M 28 1
L 28 4 25 4 25 1 28 1
M 35 1
L 35 0 30 0 30 5 35 5 35 2 32 2 32 3 34 3 34 4 31 4 31 1 35 1
M 41 5
L 41 0 36 0 36 5 41 5
M 37 1
L 40 1 40 4 37 4 37 1
M 46 5
L 47 5 47 0 42 0 42 5 43 5 43 1 46 1 46 5 Z"/>
        </g>
    </defs>

    <g transform="matrix( 1, 0, 0, 1, 0,0) ">
        <use xlink:href="#Layer0_0_FILL"/>
    </g>
</svg>
