<svg xmlns:xlink="http://www.w3.org/1999/xlink" xmlns="http://www.w3.org/2000/svg" version="1.1"
     preserveAspectRatio="none" x="0px" y="0px" width="29px" height="5px" viewBox="0 0 29 5">
    <defs>
        <g id="Layer0_0_FILL">
            <path fill="#FFFFFF" stroke="none" d="
M 1 5
L 1 4 4 4 4 5 5 5 5 0 0 0 0 5 1 5
M 4 1
L 4 3 1 3 1 1 4 1
M 11 2
L 11 0 6 0 6 5 11 5 11 3 10 3 10 4 7 4 7 3 10 3 10 2 7 2 7 1 10 1 10 2 11 2
M 17 5
L 17 0 12 0 12 5 17 5
M 16 1
L 16 4 13 4 13 1 16 1
M 23 0
L 22 0 22 4 19 4 19 0 18 0 18 5 23 5 23 0
M 29 1
L 29 0 24 0 24 1 26 1 26 5 27 5 27 1 29 1 Z"/>
        </g>
    </defs>

    <g transform="matrix( 1, 0, 0, 1, 0,0) ">
        <use xlink:href="#Layer0_0_FILL"/>
    </g>
</svg>
