<svg xmlns:xlink="http://www.w3.org/1999/xlink" xmlns="http://www.w3.org/2000/svg" version="1.1"
     preserveAspectRatio="none" x="0px" y="0px" width="79px" height="15px" viewBox="0 0 79 15">
    <defs>
        <g id="Layer0_0_FILL">
            <path fill="#FFFFFF" stroke="none" d="
M 8.55 5
L 8.55 3.3 0 3.3 0 11.85 8.55 11.85 8.55 10.15 1.7 10.15 1.7 5 8.55 5
M 11.7 11.85
L 11.7 10.1 16.85 10.1 16.85 11.85 18.55 11.85 18.55 3.3 10 3.3 10 11.85 11.7 11.85
M 16.85 5
L 16.85 8.4 11.75 8.4 11.75 5 16.85 5
M 28.55 5
L 28.55 3.3 20 3.3 20 11.85 28.55 11.85 28.55 10.15 21.7 10.15 21.7 8.4 26.85 8.4 26.85 6.75 21.7 6.75 21.7 5 28.55 5
M 33.45 8.4
L 35.15 8.4 35.15 6.75 33.45 6.75 33.45 8.4
M 33.45 5.05
L 31.7 5.05 31.7 3.3 30 3.3 30 11.85 31.7 11.85 31.7 6.7 33.45 6.7 33.45 5.05
M 38.55 3.3
L 36.9 3.3 36.9 8.45 35.15 8.45 35.15 10.1 36.9 10.1 36.9 11.85 38.55 11.85 38.55 3.3
M 48.55 11.85
L 48.55 3.3 40 3.3 40 11.85 48.55 11.85
M 46.85 10.1
L 41.75 10.1 41.75 5 46.85 5 46.85 10.1
M 58.55 5
L 58.55 3.3 50 3.3 50 11.85 58.55 11.85 58.55 6.7 53.45 6.7 53.45 8.4 56.9 8.4 56.9 10.15 51.7 10.15 51.7 5 58.55 5
M 68.55 11.85
L 68.55 3.3 60 3.3 60 11.85 68.55 11.85
M 66.85 10.1
L 61.75 10.1 61.75 5 66.85 5 66.85 10.1
M 75.15 8.4
L 75.15 6.75 73.45 6.75 73.45 8.4 75.15 8.4
M 73.45 5.05
L 71.7 5.05 71.7 3.3 70 3.3 70 11.85 71.7 11.85 71.7 6.7 73.45 6.7 73.45 5.05
M 78.55 3.3
L 76.9 3.3 76.9 8.45 75.15 8.45 75.15 10.1 76.9 10.1 76.9 11.85 78.55 11.85 78.55 3.3 Z"/>
        </g>
    </defs>

    <g transform="matrix( 1, 0, 0, 1, 0,0) ">
        <use xlink:href="#Layer0_0_FILL"/>
    </g>
</svg>
