
<svg xmlns="http://www.w3.org/2000/svg" version="1.1" xmlns:xlink="http://www.w3.org/1999/xlink" preserveAspectRatio="none" x="0px" y="0px" width="64px" height="5px" viewBox="0 0 64 5">
<defs>
<g id="Layer0_0_FILL">
<path fill="#FFFFFF" stroke="none" d="
M 29 0
L 28 0 28 1 27 1 27 0 26 0 26 1 25 1 25 2 26 2 26 4 27 4 27 2 29 2 29 4 30 4 30 1 29 1 29 0
M 31 1
L 31 0 30 0 30 1 31 1
M 29 4
L 28 4 28 5 29 5 29 4
M 26 5
L 26 4 25 4 25 5 26 5
M 2 5
L 2 4 1 4 1 5 2 5
M 3 1
L 3 0 2 0 2 1 0 1 0 2 2 2 2 4 3 4 3 2 5 2 5 1 3 1
M 11 5
L 11 4 6 4 6 5 11 5
M 11 2
L 11 1 6 1 6 2 11 2
M 16 5
L 16 4 15 4 15 5 16 5
M 16 1
L 16 2 13 2 13 3 16 3 16 4 17 4 17 0 12 0 12 1 16 1
M 21 4
L 21 5 22 5 22 4 21 4
M 24 1
L 23 1 23 0 22 0 22 1 20 1 20 0 19 0 19 1 18 1 18 2 19 2 19 3 20 3 20 2 22 2 22 4 23 4 23 2 24 2 24 1
M 34 3
L 34 2 31 2 31 3 34 3
M 35 1
L 35 0 32 0 32 1 35 1
M 31 4
L 31 5 35 5 35 4 31 4
M 36 4
L 36 2 35 2 35 4 36 4
M 40 4
L 39 4 39 5 40 5 40 4
M 41 3
L 42 3 42 2 37 2 37 3 40 3 40 4 41 4 41 3
M 42 1
L 42 0 37 0 37 1 42 1
M 46 1
L 48 1 48 0 45 0 45 1 43 1 43 2 45 2 45 5 46 5 46 1
M 48 4
L 48 5 49 5 49 4 48 4
M 50 0
L 49 0 49 4 50 4 50 0
M 54 4
L 54 3 53 3 53 4 54 4
M 52 0
L 51 0 51 5 53 5 53 4 52 4 52 0
M 60 4
L 59 4 59 5 60 5 60 4
M 56 5
L 56 4 55 4 55 5 56 5
M 57 3
L 56 3 56 4 57 4 57 3
M 58 0
L 57 0 57 3 58 3 58 0
M 64 3
L 64 0 59 0 59 1 63 1 63 2 59 2 59 3 64 3 Z"/>
</g>
</defs>

<g transform="matrix( 1, 0, 0, 1, 0,0) ">
<use xlink:href="#Layer0_0_FILL"/>
</g>
</svg>
