
<svg xmlns="http://www.w3.org/2000/svg" version="1.1" xmlns:xlink="http://www.w3.org/1999/xlink" preserveAspectRatio="none" x="0px" y="0px" width="243px" height="5px" viewBox="0 0 243 5">
<defs>
<g id="Layer0_0_FILL">
<path fill="#FFFFFF" stroke="none" d="
M 5 3
L 5 0 0 0 0 5 1 5 1 3 5 3
M 4 1
L 4 2 1 2 1 1 4 1
M 7 0
L 6 0 6 5 7 5 7 0
M 9 4
L 8 4 8 5 9 5 9 4
M 10 3
L 9 3 9 4 10 4 10 3
M 9 1
L 9 0 8 0 8 1 9 1
M 10 1
L 9 1 9 2 10 2 10 1
M 12 4
L 12 5 13 5 13 4 12 4
M 11 2
L 12 2 12 1 11 1 11 2
M 12 3
L 11 3 11 4 12 4 12 3
M 11 3
L 11 2 10 2 10 3 11 3
M 13 1
L 13 0 12 0 12 1 13 1
M 19 5
L 19 4 15 4 15 3 18 3 18 2 15 2 15 1 19 1 19 0 14 0 14 5 19 5
M 25 5
L 25 4 21 4 21 0 20 0 20 5 25 5
M 31 5
L 31 0 26 0 26 5 27 5 27 4 30 4 30 5 31 5
M 30 1
L 30 3 27 3 27 1 30 1
M 37 1
L 37 0 32 0 32 1 34 1 34 5 35 5 35 1 37 1
M 39 0
L 38 0 38 5 39 5 39 0
M 45 5
L 45 0 40 0 40 5 45 5
M 44 1
L 44 4 41 4 41 1 44 1
M 51 5
L 51 0 46 0 46 5 47 5 47 1 50 1 50 5 51 5
M 87 5
L 87 4 86 4 86 5 87 5
M 87 1
L 87 2 88 2 88 1 87 1
M 88 3
L 87 3 87 4 88 4 88 3
M 87 1
L 87 0 86 0 86 1 87 1
M 89 3
L 89 2 88 2 88 3 89 3
M 91 4
L 90 4 90 5 91 5 91 4
M 91 1
L 91 0 90 0 90 1 91 1
M 92 2
L 92 3 93 3 93 2 92 2
M 92 4
L 92 3 91 3 91 4 92 4
M 92 2
L 92 1 91 1 91 2 92 2
M 132 0
L 132 2 129 2 129 0 128 0 128 5 129 5 129 3 132 3 132 5 133 5 133 0 132 0
M 139 1
L 139 0 134 0 134 1 136 1 136 5 137 5 137 1 139 1
M 142 1
L 142 5 143 5 143 1 145 1 145 0 140 0 140 1 142 1
M 147 3
L 151 3 151 0 146 0 146 5 147 5 147 3
M 147 2
L 147 1 150 1 150 2 147 2
M 159 3
L 158 3 158 4 159 4 159 3
M 159 1
L 158 1 158 2 159 2 159 1
M 157 1
L 157 0 152 0 152 3 156 3 156 4 152 4 152 5 157 5 157 2 153 2 153 1 157 1
M 160 5
L 161 5 161 4 160 4 160 5
M 162 4
L 162 3 161 3 161 4 162 4
M 164 2
L 164 1 163 1 163 2 164 2
M 163 2
L 162 2 162 3 163 3 163 2
M 165 1
L 165 0 164 0 164 1 165 1
M 167 4
L 166 4 166 5 167 5 167 4
M 168 4
L 168 3 167 3 167 4 168 4
M 168 3
L 169 3 169 2 168 2 168 3
M 170 2
L 170 1 169 1 169 2 170 2
M 171 0
L 170 0 170 1 171 1 171 0
M 173 5
L 173 3 177 3 177 0 172 0 172 5 173 5
M 173 1
L 176 1 176 2 173 2 173 1
M 179 0
L 178 0 178 5 179 5 179 0
M 181 4
L 180 4 180 5 181 5 181 4
M 182 3
L 181 3 181 4 182 4 182 3
M 181 1
L 181 0 180 0 180 1 181 1
M 182 1
L 181 1 181 2 182 2 182 1
M 184 4
L 184 5 185 5 185 4 184 4
M 184 3
L 183 3 183 4 184 4 184 3
M 183 3
L 183 2 182 2 182 3 183 3
M 183 2
L 184 2 184 1 183 1 183 2
M 185 1
L 185 0 184 0 184 1 185 1
M 191 1
L 191 0 186 0 186 5 191 5 191 4 187 4 187 3 190 3 190 2 187 2 187 1 191 1
M 193 4
L 193 0 192 0 192 5 197 5 197 4 193 4
M 203 5
L 203 0 198 0 198 5 199 5 199 4 202 4 202 5 203 5
M 202 1
L 202 3 199 3 199 1 202 1
M 209 1
L 209 0 204 0 204 1 206 1 206 5 207 5 207 1 209 1
M 210 0
L 210 5 211 5 211 0 210 0
M 217 5
L 217 0 212 0 212 5 217 5
M 213 1
L 216 1 216 4 213 4 213 1
M 223 5
L 223 0 218 0 218 5 219 5 219 1 222 1 222 5 223 5
M 230 4
L 230 5 231 5 231 4 230 4
M 229 1
L 229 0 224 0 224 3 228 3 228 4 224 4 224 5 229 5 229 2 225 2 225 1 229 1
M 237 1
L 237 0 232 0 232 5 237 5 237 4 233 4 233 3 236 3 236 2 233 2 233 1 237 1
M 243 5
L 243 0 242 0 242 4 239 4 239 0 238 0 238 5 243 5 Z"/>
</g>
</defs>

<g transform="matrix( 1, 0, 0, 1, 0,0) ">
<use xlink:href="#Layer0_0_FILL"/>
</g>
</svg>
