
<svg xmlns="http://www.w3.org/2000/svg" version="1.1" xmlns:xlink="http://www.w3.org/1999/xlink" preserveAspectRatio="none" x="0px" y="0px" width="41px" height="5px" viewBox="0 0 41 5">
<defs>
<g id="Layer0_0_FILL">
<path fill="#000000" stroke="none" d="
M 5 1
L 5 0 0 0 0 5 5 5 5 4 1 4 1 1 5 1
M 11 5
L 11 0 6 0 6 5 11 5
M 10 4
L 7 4 7 1 10 1 10 4
M 16 5
L 17 5 17 0 12 0 12 5 13 5 13 1 16 1 16 5
M 23 1
L 23 0 18 0 18 1 20 1 20 5 21 5 21 1 23 1
M 28 4
L 28 5 29 5 29 0 24 0 24 5 25 5 25 4 28 4
M 28 1
L 28 3 25 3 25 1 28 1
M 35 1
L 35 0 30 0 30 5 35 5 35 4 31 4 31 1 35 1
M 41 1
L 41 0 36 0 36 1 38 1 38 5 39 5 39 1 41 1 Z"/>
</g>
</defs>

<g transform="matrix( 1, 0, 0, 1, 0,0) ">
<use xlink:href="#Layer0_0_FILL"/>
</g>
</svg>
