<svg xmlns:xlink="http://www.w3.org/1999/xlink" xmlns="http://www.w3.org/2000/svg" version="1.1"
     preserveAspectRatio="none" x="0px" y="0px" width="57px" height="5px" viewBox="0 0 57 5">
    <defs>
        <g id="Layer0_0_FILL">
            <path fill="#000000" stroke="none" d="
M 5 1
L 5 0 0 0 0 5 5 5 5 4 1 4 1 1 5 1
M 11 5
L 11 4 10 4 10 5 11 5
M 11 3
L 11 0 6 0 6 5 7 5 7 3 9 3 9 4 10 4 10 3 11 3
M 10 1
L 10 2 7 2 7 1 10 1
M 17 1
L 17 0 12 0 12 5 17 5 17 4 13 4 13 3 16 3 16 2 13 2 13 1 17 1
M 22 5
L 23 5 23 0 18 0 18 5 19 5 19 4 22 4 22 5
M 22 1
L 22 3 19 3 19 1 22 1
M 27 5
L 27 1 29 1 29 0 24 0 24 1 26 1 26 5 27 5
M 34 3
L 34 2 31 2 31 1 35 1 35 0 30 0 30 5 35 5 35 4 31 4 31 3 34 3
M 40 1
L 40 0 36 0 36 5 40 5 40 4 37 4 37 1 40 1
M 41 4
L 41 1 40 1 40 4 41 4
M 51 2
L 51 0 46 0 46 5 51 5 51 3 50 3 50 4 47 4 47 3 50 3 50 2 47 2 47 1 50 1 50 2 51 2
M 56 0
L 56 2 53 2 53 0 52 0 52 3 54 3 54 5 55 5 55 3 57 3 57 0 56 0 Z"/>
        </g>
    </defs>

    <g transform="matrix( 1, 0, 0, 1, 0,0) ">
        <use xlink:href="#Layer0_0_FILL"/>
    </g>
</svg>
