<svg xmlns:xlink="http://www.w3.org/1999/xlink" xmlns="http://www.w3.org/2000/svg" version="1.1"
     preserveAspectRatio="none" x="0px" y="0px" width="69px" height="5px" viewBox="0 0 69 5">
    <defs>
        <g id="Layer0_0_FILL">
            <path fill="#000000" stroke="none" d="
M 5 1
L 5 0 0 0 0 5 5 5 5 4 1 4 1 1 5 1
M 11 5
L 11 0 10 0 10 2 7 2 7 0 6 0 6 5 7 5 7 3 10 3 10 5 11 5
M 16 3
L 16 2 13 2 13 1 17 1 17 0 12 0 12 5 17 5 17 4 13 4 13 3 16 3
M 23 1
L 23 0 18 0 18 5 23 5 23 4 19 4 19 1 23 1
M 28 3
L 28 2 25 2 25 0 24 0 24 5 25 5 25 3 28 3
M 29 3
L 28 3 28 5 29 5 29 3
M 29 0
L 28 0 28 2 29 2 29 0
M 39 0
L 38 0 38 4 35 4 35 0 34 0 34 5 39 5 39 0
M 45 1
L 45 0 40 0 40 3 44 3 44 4 40 4 40 5 45 5 45 2 41 2 41 1 45 1
M 55 5
L 55 0 50 0 50 5 55 5
M 51 1
L 54 1 54 4 51 4 51 1
M 61 5
L 61 0 60 0 60 4 57 4 57 0 56 0 56 5 61 5
M 68 4
L 68 5 69 5 69 4 68 4
M 67 1
L 67 0 62 0 62 1 64 1 64 5 65 5 65 1 67 1
M 69 3
L 69 0 68 0 68 3 69 3 Z"/>
        </g>
    </defs>

    <g transform="matrix( 1, 0, 0, 1, 0,0) ">
        <use xlink:href="#Layer0_0_FILL"/>
    </g>
</svg>
