<svg xmlns:xlink="http://www.w3.org/1999/xlink" xmlns="http://www.w3.org/2000/svg" version="1.1"
     preserveAspectRatio="none" x="0px" y="0px" width="41px" height="5px" viewBox="0 0 41 5">
    <defs>
        <g id="Layer0_0_FILL">
            <path fill="#000000" stroke="none" d="
M 5 0
L 4 0 4 4 3 4 3 1 2 1 2 4 1 4 1 0 0 0 0 5 5 5 5 0
M 11 5
L 11 4 7 4 7 3 10 3 10 2 7 2 7 1 11 1 11 0 6 0 6 5 11 5
M 17 5
L 17 4 13 4 13 0 12 0 12 5 17 5
M 23 1
L 23 0 18 0 18 5 23 5 23 4 19 4 19 1 23 1
M 29 5
L 29 0 24 0 24 5 29 5
M 28 1
L 28 4 25 4 25 1 28 1
M 33 1
L 34 1 34 5 35 5 35 0 30 0 30 5 31 5 31 1 32 1 32 4 33 4 33 1
M 41 5
L 41 4 37 4 37 3 40 3 40 2 37 2 37 1 41 1 41 0 36 0 36 5 41 5 Z"/>
        </g>
    </defs>

    <g transform="matrix( 1, 0, 0, 1, 0,0) ">
        <use xlink:href="#Layer0_0_FILL"/>
    </g>
</svg>
