<svg xmlns:xlink="http://www.w3.org/1999/xlink" xmlns="http://www.w3.org/2000/svg" version="1.1"
     preserveAspectRatio="none" x="0px" y="0px" width="23px" height="5px" viewBox="0 0 23 5">
    <defs>
        <g id="Layer0_0_FILL">
            <path fill="#000000" stroke="none" d="
M 5 1
L 5 0 0 0 0 5 5 5 5 2 2 2 2 3 4 3 4 4 1 4 1 1 5 1
M 11 5
L 11 4 7 4 7 3 10 3 10 2 7 2 7 1 11 1 11 0 6 0 6 5 11 5
M 16 4
L 16 5 17 5 17 0 12 0 12 5 13 5 13 4 16 4
M 16 1
L 16 3 13 3 13 1 16 1
M 22 4
L 22 5 23 5 23 4 22 4
M 23 3
L 23 0 18 0 18 5 19 5 19 3 21 3 21 4 22 4 22 3 23 3
M 22 1
L 22 2 19 2 19 1 22 1 Z"/>
        </g>
    </defs>

    <g transform="matrix( 1, 0, 0, 1, 0,0) ">
        <use xlink:href="#Layer0_0_FILL"/>
    </g>
</svg>
