
<svg xmlns="http://www.w3.org/2000/svg" version="1.1" xmlns:xlink="http://www.w3.org/1999/xlink" preserveAspectRatio="none" x="0px" y="0px" width="16px" height="16px" viewBox="0 0 16 16">
<defs>
<g id="Layer1_0_FILL">
<path fill="#000000" stroke="none" d="
M 11 6
L 11 5 9 5 9 3 7 3 7 5 5 5 5 6 6 6 6 7 7 7 7 8 9 8 9 7 10 7 10 6 11 6
M 12 9
L 4 9 4 15 12 15 12 9
M 6 11
L 6 10 10 10 10 11 11 11 11 14 5 14 5 11 6 11
M 9 12
L 7 12 7 13 9 13 9 12
M 10 11
L 9 11 9 12 10 12 10 11
M 6 11
L 6 12 7 12 7 11 6 11 Z"/>
</g>

<g id="Layer0_0_FILL">
<path fill="#000000" stroke="none" d="
M 0 16
L 16 16 16 0 0 0 0 16
M 14 14
L 2 14 2 2 14 2 14 14 Z"/>
</g>
</defs>

<g transform="matrix( 1, 0, 0, 1, 0,0) ">
<use xlink:href="#Layer1_0_FILL"/>
</g>

<g transform="matrix( 1, 0, 0, 1, 0,0) ">
<use xlink:href="#Layer0_0_FILL"/>
</g>
</svg>
