
<svg xmlns="http://www.w3.org/2000/svg" version="1.1" xmlns:xlink="http://www.w3.org/1999/xlink" preserveAspectRatio="none" x="0px" y="0px" width="16px" height="16px" viewBox="0 0 16 16">
<defs>
<g id="Layer0_0_FILL">
<path fill="#000000" stroke="none" d="
M 16 16
L 16 0 0 0 0 16 16 16
M 4 14
L 2 14 2 2 14 2 14 14 12 14 12 13 11 13 11 12 5 12 5 13 4 13 4 14
M 12 3
L 11 3 11 4 10 4 10 5 6 5 6 4 5 4 5 3 4 3 4 8 3 8 3 9 4 9 4 10 3 10 3 11 13 11 13 10 12 10 12 9 13 9 13 8 12 8 12 3 Z"/>
</g>
</defs>

<g transform="matrix( 1, 0, 0, 1, 0,0) ">
<use xlink:href="#Layer0_0_FILL"/>
</g>
</svg>
