
<svg xmlns="http://www.w3.org/2000/svg" version="1.1" xmlns:xlink="http://www.w3.org/1999/xlink" preserveAspectRatio="none" x="0px" y="0px" width="16px" height="16px" viewBox="0 0 16 16">
<defs>
<g id="Layer0_0_FILL">
<path fill="#000000" stroke="none" d="
M 10 16
L 10 15 6 15 6 16 10 16
M 1 6
L 0 6 0 10 1 10 1 6
M 6 0
L 6 1 10 1 10 0 6 0
M 16 6
L 15 6 15 10 16 10 16 6
M 1 4
L 1 6 2 6 2 4 1 4
M 9 6
L 7 6 7 7 9 7 9 6
M 7 10
L 9 10 9 9 7 9 7 10
M 6 9
L 7 9 7 7 6 7 6 9
M 10 7
L 9 7 9 9 10 9 10 7
M 2 3
L 2 4 3 4 3 3 2 3
M 3 2
L 3 3 4 3 4 2 3 2
M 6 2
L 6 1 4 1 4 2 6 2
M 12 2
L 12 1 10 1 10 2 12 2
M 13 3
L 13 2 12 2 12 3 13 3
M 14 3
L 13 3 13 4 14 4 14 3
M 15 4
L 14 4 14 6 15 6 15 4
M 15 12
L 15 10 14 10 14 12 15 12
M 14 12
L 13 12 13 13 14 13 14 12
M 13 14
L 13 13 12 13 12 14 13 14
M 10 14
L 10 15 12 15 12 14 10 14
M 6 15
L 6 14 4 14 4 15 6 15
M 3 14
L 4 14 4 13 3 13 3 14
M 3 12
L 2 12 2 13 3 13 3 12
M 1 12
L 2 12 2 10 1 10 1 12 Z"/>
</g>
</defs>

<g transform="matrix( 1, 0, 0, 1, 0,0) ">
<use xlink:href="#Layer0_0_FILL"/>
</g>
</svg>
