
<svg xmlns="http://www.w3.org/2000/svg" version="1.1" xmlns:xlink="http://www.w3.org/1999/xlink" preserveAspectRatio="none" x="0px" y="0px" width="16px" height="16px" viewBox="0 0 16 16">
<defs>
<g id="Layer1_0_FILL">
<path fill="#000000" stroke="none" d="
M 0 0
L 0 16 16 16 16 0 0 0
M 14 2
L 14 14 2 14 2 2 14 2 Z"/>
</g>

<g id="Layer0_0_FILL">
<path fill="#000000" stroke="none" d="
M 6 11
L 6 12 5 12 5 13 11 13 11 12 10 12 10 11 9 11 9 12 7 12 7 11 6 11
M 11 6
L 11 5 10 5 10 6 6 6 6 5 5 5 5 6 4 6 4 5 3 5 3 11 4 11 4 10 5 10 5 11 6 11 6 10 10 10 10 11 11 11 11 10 12 10 12 11 13 11 13 5 12 5 12 6 11 6
M 11 7
L 12 7 12 9 11 9 11 7
M 6 7
L 10 7 10 9 6 9 6 7
M 4 7
L 5 7 5 9 4 9 4 7
M 5 12
L 5 11 4 11 4 12 5 12
M 4 5
L 5 5 5 4 4 4 4 5
M 11 4
L 11 3 5 3 5 4 6 4 6 5 7 5 7 4 9 4 9 5 10 5 10 4 11 4
M 11 4
L 11 5 12 5 12 4 11 4
M 12 11
L 11 11 11 12 12 12 12 11 Z"/>
</g>
</defs>

<g transform="matrix( 1, 0, 0, 1, 0,0) ">
<use xlink:href="#Layer1_0_FILL"/>
</g>

<g transform="matrix( 1, 0, 0, 1, 0,0) ">
<use xlink:href="#Layer0_0_FILL"/>
</g>
</svg>
