<svg xmlns:xlink="http://www.w3.org/1999/xlink" xmlns="http://www.w3.org/2000/svg" version="1.1"
     preserveAspectRatio="none" x="0px" y="0px" width="16px" height="16px" viewBox="0 0 16 16">
    <defs>
        <g id="Layer1_0_FILL">
            <path fill="#000000" stroke="none" d="
M 0 0
L 0 16 16 16 16 0 0 0
M 14 14
L 2 14 2 2 14 2 14 14 Z"/>
        </g>

        <g id="Layer0_0_FILL">
            <path fill="#000000" stroke="none" d="
M 11 11
L 11 10 5 10 5 11 4 11 4 13 12 13 12 11 11 11
M 11 8
L 11 4 10 4 10 3 6 3 6 4 5 4 5 8 6 8 6 9 10 9 10 8 11 8 Z"/>
        </g>
    </defs>

    <g transform="matrix( 1, 0, 0, 1, 0,0) ">
        <use xlink:href="#Layer1_0_FILL"/>
    </g>

    <g transform="matrix( 1, 0, 0, 1, 0,0) ">
        <use xlink:href="#Layer0_0_FILL"/>
    </g>
</svg>
