<svg xmlns:xlink="http://www.w3.org/1999/xlink" xmlns="http://www.w3.org/2000/svg" version="1.1"
     preserveAspectRatio="none" x="0px" y="0px" width="32px" height="32px" viewBox="0 0 32 32">
    <defs>
        <g id="Layer0_0_FILL">
            <path fill="#000000" stroke="none" d="
M 24 12
L 28 12 28 20 32 20 32 0 12 0 12 4 20 4 20 8 16 8 16 12 12 12 12 16 8 16 8 24 16 24 16 20 20 20 20 16 24 16 24 12
M 32 24
L 28 24 28 28 4 28 4 4 8 4 8 0 0 0 0 32 32 32 32 24 Z"/>
        </g>
    </defs>

    <g transform="matrix( 1, 0, 0, 1, 0,0) ">
        <use xlink:href="#Layer0_0_FILL"/>
    </g>
</svg>
