<svg xmlns:xlink="http://www.w3.org/1999/xlink" xmlns="http://www.w3.org/2000/svg" version="1.1"
     preserveAspectRatio="none" x="0px" y="0px" width="24px" height="32px" viewBox="0 0 24 32">
    <defs>
        <g id="Layer0_0_FILL">
            <path fill="#000000" stroke="none" d="
M 16 18
L 16 16 14 16 14 18 16 18
M 4 20
L 4 22 6 22 6 30 8 30 8 32 16 32 16 30 18 30 18 22 20 22 20 20 16 20 16 24 12 24 12 18 10 18 10 24 8 24 8 20 4 20
M 4 18
L 2 18 2 20 4 20 4 18
M 10 16
L 8 16 8 18 10 18 10 16
M 8 8
L 6 8 6 16 8 16 8 8
M 4 2
L 2 2 2 4 4 4 4 2
M 2 4
L 0 4 0 18 2 18 2 4
M 10 6
L 8 6 8 8 10 8 10 6
M 20 2
L 20 0 4 0 4 2 20 2
M 14 10
L 14 8 10 8 10 10 14 10
M 18 8
L 16 8 16 16 18 16 18 8
M 14 6
L 14 8 16 8 16 6 14 6
M 22 4
L 22 2 20 2 20 4 22 4
M 22 20
L 22 18 20 18 20 20 22 20
M 24 18
L 24 4 22 4 22 18 24 18 Z"/>
        </g>
    </defs>

    <g transform="matrix( 1, 0, 0, 1, 0,0) ">
        <use xlink:href="#Layer0_0_FILL"/>
    </g>
</svg>
