
<svg xmlns="http://www.w3.org/2000/svg" version="1.1" xmlns:xlink="http://www.w3.org/1999/xlink" preserveAspectRatio="none" x="0px" y="0px" width="65px" height="110px" viewBox="0 0 65 110">
<defs>
<g id="Layer0_0_FILL">
<path fill="#000000" stroke="none" d="
M 51.6 19.1
Q 51.1 18.95 50.65 18.75 46.85 17.2 42.8 16.55 39.15 16.05 35.55 15.6 30.55 15.2 25.8 16.35 22.25 17.15 19.2 19.5 15.4 22.5 13.55 27.25 13 28.75 12.45 30.2 12.35 30.55 12.35 30.95
L 13.3 30.9 13.55 30.55 19.85 24.2
Q 18.7 26.65 18.45 29.3 18.25 30.95 18.15 32.65 17.7 33.25 17.05 33.9 16.05 34.9 15.1 35.85 14.35 36.55 13.75 37.4 13.4 37.8 13.2 38.3
L 14.05 38.75 14.85 38.5 13.15 42.4 13.55 43.05 14.7 42.8 14.45 42 16.25 38.3
Q 15.15 41.95 14.35 45.75 13.45 49.75 13.95 53.8 13.95 53.85 14.05 53.95 14.25 54.15 14.55 53.85 15.05 53.2 15.3 52.3 16 50 16.95 47.75 17.15 50.35 16.8 52.8 16.25 56.3 15.95 59.8 15.35 66.55 12.7 72.65 10.5 77.75 8.45 82.9 7.5 85.2 7.4 87.8 8.85 87.45 9.65 86.35 12.5 82.35 15.6 78.6 14.85 83.75 15 89.05 15.15 93.6 17.65 97.45 18.55 98.8 19.5 100.1 20.05 100.85 20.75 101.5 20.9 101.65 21.15 101.75 21.3 101.6 21.3 101.45 21.55 99.8 21.7 98.15 22 94.85 23.5 92.05 23.6 93.4 23.75 94.8 24 96.65 25.1 98 25.45 98.4 25.95 98.8
L 26.4 98.8
Q 25.8 103.25 25.3 107.75 25.3 107.9 25.35 108.15 25.4 108.65 25.5 109.2 25.55 109.35 25.7 109.55
L 26.1 109.7
Q 27.4 109.45 27.85 108.15 30.1 101.45 31.95 94.65 33.1 96.8 34.4 98.85 34.75 99.4 35.2 99.85 36.4 100.95 36.5 102.55 36.55 103.2 36.8 103.85 36.85 103.9 37.05 103.95 37.65 103.75 37.65 103.15 37.7 101.9 37.85 100.7 38.15 97.6 38.35 94.7 39.3 96.8 40.65 98.95 40.95 99.45 41.45 99.7 41.85 99.95 42.25 100.25 42.9 101.3 43.15 102.95 43.55 105.75 44 108.6 44.1 109.05 44.35 109.4 44.45 109.65 44.65 109.85 44.8 109.9 45 110 45.15 109.95 45.3 109.9 45.45 109.8 45.6 109.7
L 45.95 109.1 45.7 99.45 46.65 100.85
Q 46.95 100.65 47.25 100.45 49.55 98.45 51 95.6 52.45 92.9 53.35 89.95 54.5 86.15 55.25 82.55
L 59.7 89.15
Q 59.85 89 59.9 88.85 60.15 87.8 60.2 86.75 60.35 82.2 59.5 77.7 58 70.05 57.1 62.15 56.35 55.85 56.3 49.55 56.75 51.8 57.25 54.1 57.35 54.45 57.6 54.75 57.7 54.9 57.9 54.95 58.05 54.75 58.1 54.55 58.3 53.15 58.4 51.8 58.9 45.05 58.2 38.55 58.05 37.1 57.85 35.7
L 61 39.7 59.55 40.15
Q 59.4 40.3 59.3 40.5 59.2 40.7 59.25 41 59.3 41.3 59.45 41.65 59.95 42.85 60.55 44.05
L 59.9 44.6
Q 59.9 44.75 60 44.9 60.05 45 60.2 45.1 60.45 45.1 60.7 45.15 60.9 45.15 61.1 45.15 61.2 45.15 61.35 45.15 61.45 45.1 61.6 45.05 61.65 44.9 61.7 44.8 61.75 44.6 61.75 44.45 61.7 44.2 61.6 43.95 61.35 43.35 61.1 42.8 60.75 42.05 60.45 41.3 60.35 41.15 60.35 41.1 61.1 40.8 61.9 40.6 62.1 40.5 62.25 40.35 62.35 40.25 62.45 40.15
L 60.75 37.55 61.3 37.35
Q 61.7 35.45 61.55 33.35 61.25 29.85 59.6 26.7 56.95 21.6 51.6 19.1
M 60.4 33.05
L 60.4 34.05 57.15 24.7
Q 57.7 25.45 58.15 26.3 59.85 29.45 60.4 33.05
M 56.25 34.5
L 56.4 33.75
Q 58.1 41.55 57.35 49.5
L 55.6 44
Q 55.4 43.85 55.25 43.75 55.15 43.8 55.05 43.85 54.95 43.9 54.95 44 55.2 52.15 52.4 59.5 51.65 61.4 50.5 63 50.8 62.05 51.05 61.05 53.2 53.35 52.95 45.5 52.9 44 53 42.5 53 42.55 53.2 42.6
L 56.25 34.5
M 41.5 48.45
Q 41.440625 48.4732421875 41.35 48.5 37.6 49.75 33.8 48.4 32.99453125 48.1400390625 32.2 47.85 32.224609375 47.67265625 32.15 47.3 32.05 46.6 32.1 46.2
L 36.8 45.8
Q 39.15 45.65 41.05 45.7 41.45 47.3 41.5 48.1
L 41.5 48.45
M 51.95 45.7
Q 51.95 47.15 51.95 48.65 51.85 53.2 50.75 57.85 50.3 59.75 49.85 61.65 49.35 61.1 48.45 60.2
L 46.2 58 44.9 55.95 44.6 55.35 44.05 54.75
Q 43.85 54.25 43.65 54.05
L 43.9 53.9
Q 44.05 53.8 44.2 53.75 44.2 53.7 44.2 53.65 45.05 53.05 45.9 52.5 46.2 52.25 46.45 51.9
L 42.05 49.4
Q 47.3 48.45 51.95 45.7
M 19.75 38.55
Q 19.85 38.55 19.95 38.55 20 38.55 20.1 38.55 20.15 38.5 20.2 38.45
L 20.3 38.3
Q 20.2 38.55 20.1 38.95
L 20.55 38.75
Q 20.45 39.3 20.35 39.9 20.25 40.4 20.2 40.9 20.15 41.35 20.1 41.85 20.05 42.2 20.05 42.6 20.05 42.8 20.1 43.05 20.2 43.85 20.95 44.4
L 20.8 60.85
Q 20.35 59.8 19.95 58.8 19.6 57.95 19.4 57.15 18.65 53.95 18.15 50.8 17.75 48.3 18.1 45.8 18.15 45.3 17.95 44.95 17.8 44.95 17.65 44.95 17.45 45 17.35 45.15 17.2 45.25 17.1 45.35 17 45.45 16.9 45.55 15.45 48 14.75 50.6 15.55 42.6 18.5 35.3
L 19.75 38.55
M 16.55 37.35
Q 16.45 37.65 16.3 37.85
L 16.3 37.7 15.75 37.25 15.05 37.3 17.55 34.9 16.55 37.35
M 22 45.05
Q 23.5 46.05 25.2 46.65 28.85 47.95 32.7 49.25 32.2 49.4 31.7 49.6 30.65 50.2 29.4 50.4 28.25 50.25 28.1 51.15
L 29.85 52.25
Q 29.8 52.35 29.8 52.45
L 29.4 53.55 29.35 53.5
Q 28.15 57.85 27.25 62.3 26.85 64.15 26.3 65.95 24.4 72.25 19.5 76.5 19 76.95 19.1 77.6
L 23.7 78.6
Q 23.7 80.3 24.95 81
L 26.95 79.05 28 79.25
Q 26.8 82.5 24.95 85.3 24.65 85.75 25.05 86.15
L 28.05 87.4 26.45 98.45
Q 25.25 96.7 24.75 94.55 24.15 92 24.3 89.4
L 23.6 89.05
Q 20.8 93.9 20.55 99.6 20.05 99.05 19.6 98.55 17.7 96.2 16.85 93.3 15.85 89.75 16.05 86 16.35 80.95 17.35 75.95 17.45 75.4 16.95 75.15
L 8.6 85.55
Q 9.1 83.9 9.75 82.3 11.55 77.9 13.5 73.65 14.9 70.55 15.6 67.2 17 60.9 17.65 54.25 18.2 56.45 18.85 58.6 19.3 60 19.7 61.4 20.2 63.05 21.45 63.45
L 21.85 62.6 22 45.05
M 36.2 50.1
L 37.55 50.25
Q 38.7 50.2 39.4 50.85
L 36.5 51.8 35.15 51.35
Q 35.15 51.2 35.1 51.1 35.05 50.9 35.05 50.7 35.05 50.65 35.25 50.6
L 35.95 50.5 36.2 50.1
M 35.85 53.65
L 36.55 53.65 36.55 54.35 35.85 54.35 35.85 53.65
M 36.9 55.35
L 37.7 54.75 37.5 53.6 40.1 55.35 41.15 55.75
Q 41.5 55.55 41.95 55.25 42.4 54.95 42.8 54.75 42.85 54.8 42.95 54.9 43.2 55.2 44.05 56.55
L 44.55 57.4
Q 45.05 58.3 45.4 58.65
L 45.75 59 46.05 59.4
Q 46.1 59.5 46.5 59.75
L 49.35 62.65
Q 49.45 62.8 49.55 62.9 49.25 64.1 48.95 65.3
L 49.65 65.7 50.25 65.2
Q 50.65 64.7 51 64.25 51.05 64.5 51.2 64.75 51.35 65.1 51.8 65.75 52.55 66.95 52.7 68.5
L 52.75 69.45
Q 52.75 69.55 52.9 70.3
L 53.9 76.15
Q 53.5 75.95 53.25 76 53.15 76 53.05 76.05 52.3 75.65 51.6 75.25 50.5 74.95 48.05 73.95 45.8 73 44.4 72.8
L 44.25 72.8
Q 44.15 72.8 44.05 72.8
L 43.35 72.65
Q 43.2 71.8 43.15 70.95 42.75 66.4 42.8 62 42.8 60.65 42.85 59.3 42.3 58.05 42.1 57.45 42 57.2 42 56.95 41.9 56.95 41.8 56.95 41.7 57 41.6 57 41.65 59.35 41.75 61.7 41.8 64.1 41.85 66.6 41.85 67.15 41.8 67.7 40.3 67.3 38.9 67.65 38.5 67.55 38.1 67.5 38.55 66.8 38.3 65.9 37.8 63.95 37.75 62.05 37.65 58.5 36.9 55.35
M 39.5 53.65
L 37.6 52.5 40.5 51.8 39.5 53.65
M 33.85 49.8
L 34 49.6 34.55 49.75
Q 34.15 49.85 33.85 49.8
M 34.65 52.4
Q 34.75 52.35 34.9 52.45
L 34.25 52.8
Q 34.4 52.55 34.65 52.4
M 31.05 51.7
L 30.5 51.25 31.95 50.65 31.05 51.7
M 32.15 52.1
L 32.85 51.2 33.6 51.85 32.65 53.15 32.6 53.1
Q 32.35 52.6 32.15 52.1
M 31.8 53.9
L 32.8 54.6 33.4 54.45 34.75 53.95
Q 34.85 54.45 34.85 54.95 34.65 61.3 33.25 67.65
L 33.8 68.45 30.5 68.05
Q 30.4671875 68.05 30.45 68.05 31.7001953125 62.5357421875 31.75 56.9 31.2 56.3 30.7 55.5 30.65 56.7 30.6 58 30.45 60.45 30.15 62.95 29.7 66.95 28.9 70.9 28.45 73.1 28.15 75.35 27.95 76.7 27.95 78.1
L 20.6 76.85
Q 21.1 76.4 21.55 75.95 23.35 74.15 24.7 72.05 26.1 69.75 26.85 67.15 28.6 60.95 29.9 54.85 30.05 54.75 30.1 54.6
L 30.75 52.9 31.5 53.45 31.8 53.9
M 36.2 60.85
Q 36.4 61.25 36.5 61.7 37.05 64.3 37.25 66.75 37.25 66.8 37.25 66.9
L 35.9 67.95 35.3 67.95
Q 36 66.5 36.45 64.85 36.7 64.05 36.55 63.3 36.5 62.9 36.55 62.5
L 35.95 62.1 34.95 64.5 36.05 55.4 36.25 58.1 35.95 58.45 36.05 60.8
Q 36.15 60.8 36.2 60.85
M 33.45 69.5
L 33.65 69.5 33.65 70.05 33.45 70.05 33.45 69.5
M 31.3 69.05
L 32.7 69.35 31.75 71.7 32.1 72.05 31.75 72.8 31.25 73.1 31.3 69.05
M 33.2 74.1
L 34.35 72.15 34.85 70.85 35.65 70.8 34.2 73.75
Q 34.35 74 34.4 74.25 34.4 74.4 34.3 74.45 34.2 74.55 34.1 74.6
L 33.2 74.1
M 38.9 68.75
L 39.45 68.7
Q 38.75 69.95 38.5 71.35 38.5 71.45 38.6 71.65 38.65 71.65 38.75 71.7 38.95 71.7 39.05 71.6 39.9 70.65 40.3 69.35 40.45 68.95 40.6 68.6 40.6 68.55 40.65 68.55
L 39.6 72.6 38 71.3 38.9 68.75
M 36.8 68.95
L 37.7 68.95 37.25 69.95 36.8 68.95
M 35.7 69.75
L 35.7 69.8 35.65 69.8
Q 35.65 69.75 35.7 69.75
M 37.5 72.25
L 37.1 72.65 37.45 73.9 36.35 72.7 36.45 72.15 36.3 71.75 36.35 71.6
Q 36.45 71.7 36.45 71.95
L 37.5 72.25
M 38.4 73.4
Q 38.35 73.15 38.3 72.95
L 40 73.95 41.9 68.75
Q 42.05 70.7 42.25 72.65 42.35 74.05 42.4 75.5
L 34.8 75.55 35.85 73.8 37.75 75.4
Q 37.85 75.35 37.9 75.25 38.2 74.75 38.4 74.25 38.45 74 38.45 73.8 38.45 73.6 38.4 73.4
M 36.2 78.25
Q 36.05 78.35 35.9 78.45
L 34.5 79.35 32.5 78.05 30.6 78.65 29.9 78.2
Q 29.55 78.2 29.35 78.05 29.25 78.05 29.3 77.85
L 29.15 76.6 42.75 76.45 42.85 77.5
Q 41.55 78.5 39.9 79 39.25 79 38.65 78.85 37.45 78.5 36.2 78.25
M 36.5 79.45
L 37.15 79.7 35.25 83.7
Q 33.4 83.5 32.1 84.9
L 30.3 83.75 33.25 79.75 34.15 80.35
Q 33.3 81.65 32.35 82.9 31.9 83.5 32.45 84 32.7 83.95 32.8 83.8 33.75 82.75 34.6 81.65 35 81.1 34.95 80.35
L 36.5 79.45
M 31.65 75.1
L 31.95 74.65 33.5 75.55 29.1 75.55 30.25 69.25 30.3 75 31.65 75.1
M 30.4 79.9
L 32.25 79.35 29.1 83.55 27.9 83.65 30.4 79.9
M 32.4 86.25
Q 32.45 86.2 32.5 86.1 32.85 85.75 33.2 85.4 33.4 85.2 33.65 85 33.95 84.9 34.3 84.8 34.55 84.75 34.8 84.7
L 37.65 87.1 38.85 86.8 39.85 85.8
Q 42.4 84.45 44.8 86.05 45.45 86.5 46.2 86.45 46.6 86.6 47 86.75 45.75 87.15 44.5 87.3 40.45 88.1 36.4 87.85 33.75 87.45 31.15 87.1 28.4 86.55 26.15 85.55
L 28.75 84.65 29.4 85 29.75 84.65 32.4 86.25
M 37.6 83.8
L 38.25 84.2 40 80.1 43.3 78.6 43.75 80.1 43.05 83.4
Q 43.1 83.5 43.2 83.6 43.25 83.65 43.35 83.75 43.55 83.75 43.8 83.75
L 44.4 81.8 46.15 85.4 42.7 84.1
Q 42.95 83.15 43.05 82.2 43.2 81.25 43.3 80.25 43.35 79.45 42.55 79.55
L 41.35 84.15 39.55 84.75
Q 40.7 82.75 42 80.9 42.4 80.3 41.95 79.85 41.25 79.75 40.95 80.35 39.45 83.15 37.85 85.7
L 36.25 84.05 38.3 80.1
Q 38.55 80.25 38.85 80.45
L 37.6 83.8
M 28.85 80.2
L 29.1 79.2
Q 29.1 79.05 29.15 78.95
L 29.2 79
Q 29.3 79.2 29.4 79.4
L 28.85 80.2
M 25.05 79.55
L 24.8 78.8 25.9 78.9 25.05 79.55
M 28.85 88.5
L 28.85 87.65 32.6 88.7
Q 31.15 94 29.6 99.1 29.25 100.3 28.9 101.5 28.85 101.45 28.75 101.4
L 28.3 101.2 27.3 101.1 28.85 88.5
M 39.65 89
Q 39.65 89.15 39.7 89.35
L 42.1 98.9
Q 41.8 98.6 41.65 98.3 40.05 95.65 38.6 92.9 38 91.8 37.75 90.75 37.45 90.6 37.2 90.45 37.05 90.55 36.9 90.65 36.9 91.15 37 91.6 37.85 96 36.85 100.5 34.9 98.3 33.6 95.85 32.9 94.5 32.4 93.25
L 33.6 88.65 36.8 88.95
Q 38.2 88.95 39.65 89
M 42.55 51.65
Q 42.45 51.7 42.4 51.85 42.2 52.2 42.1 52.6 41.8 53.55 41.25 54.3 41 54.7 40.6 54.4
L 40.5 54.35
Q 41.85 52.65 42.25 50.8
L 44.7 52 43.1 53
Q 43.1 52.75 43.15 52.55 43.25 51.7 42.55 51.65
M 41.4 50.4
L 40.95 50.35
Q 40.7 50.1 40.5 49.9
L 41.4 50.4
M 40.55 89
L 43.7 88.75 44.6 101.6
Q 44.35 101.55 44 101.55
L 43.95 101.6
Q 43.9 101.6 43.6 101.8
L 40.55 89
M 43.45 73.75
Q 43.8 73.85 44.2 73.8
L 44.3 73.8
Q 44.4345703125 73.8224609375 44.55 73.85
L 43.9 75.05 43.7 75.55
Q 43.572265625 74.6552734375 43.45 73.75
M 45.55 74.1
Q 45.70859375 74.151953125 45.85 74.2 46.439453125 74.23359375 46.75 74.35 47 74.4 47.6 74.7 47.9603515625 74.9017578125 48.25 75.05
L 45.2 76.95
Q 44.7 77.2 44.45 77.25 44.35 76.6 44.8 75.6
L 45 75.1 45.4 74.4
Q 45.5220703125 74.216796875 45.55 74.1
M 52.35 64.7
Q 52.05 64.2 52 63.9 51.85 63.2 51.7 63.15 54.6 58.6 55.3 53 55.65 59.8 56.7 66.6 57.85 74.2 59.05 81.65 59.45 84.1 59.2 86.5
L 55 80.7
Q 54.8 80.8 54.75 81 54.15 82.7 53.8 84.5 52.95 89.25 50.9 93.65 49.35 97 46.8 99.45
L 44.65 88.55 48.7 87.55
Q 48.7 87.35 48.65 87.25 46.15 83.6 44.75 79.75 44.7974609375 79.751953125 44.85 79.75 44.51796875 79.3654296875 44.4 79.1 44.238671875 78.75703125 44.2 78.25 44.9197265625 78.2416015625 45.25 78.1
L 45.65 77.9 48.05 76.45
Q 48.85546875 76.047265625 49.25 75.5 49.357421875 75.5642578125 49.45 75.6
L 50.55 76
Q 51.95 76.55 52.8 76.7 52.85 76.8 52.95 76.9 53.5 77.35 54 77.35 54.85 77.45 55.05 76.85
L 55.05 76.25 54.2 71.65
Q 53.9 70.05 53.75 68.55 53.5 66.85 53.4 66.5
L 53 65.7 52.35 64.7
M 56.75 27.95
Q 56.75 27.3 56.75 26.65
L 60.3 36.9 60.35 37
Q 59.55 36.1 58.75 35.05 57.7 33.7 57.25 32.25 57.1 31.85 57.05 31.45 56.8 29.65 56.75 27.95
M 19.55 28.2
Q 19.67734375 28.25546875 19.9 28.3 22.18515625 28.3919921875 24.05 28.45 21.2529296875 32.0142578125 19.9 36.4 19.3 34.5 19.2 32.5 19.067578125 30.2697265625 19.55 28.2
M 48.45 21.95
Q 48.3 21.7 48.15 21.5
L 47.45 21.9
Q 47.55 23 47.65 24.1 47.8 26.05 47.25 28.05 47.2111328125 28.189453125 47.15 28.3 45.391796875 28.249609375 43.6 28.35 42.9 28.35 42.95 28.75 42.95 29.15 43.6 29.15 43.933203125 29.19765625 46.9 29.3 45.63984375 33.9275390625 44.5 38.75 42.35 35.7 41.6 32.15 41.05 29.75 40.5 27.2 40.2 27.4 40.1 27.65 38.95 30.15 38.9 32.9 38.85 33.85 38.85 34.8 36.8 32.45 35.2 29.65 34.05 27.65 33.55 25.6 33.05 23.45 33.55 21.5
L 33.35 21.1
Q 33.15 21.05 33.05 21.1 31.6 21.75 30.35 22.65 27.25 24.763671875 24.8 27.55
L 20.15 27.45
Q 19.8927734375 27.45 19.7 27.5 20.3478515625 25.25234375 21.7 23.2 22 22.75 21.75 22.3 21.25 22.35 20.85 22.6 17.35 24.55 14.65 27.55 15.5 25.95 16.4 24.45 17.05 23.3 17.85 22.3 19.8 19.95 22.55 18.7 28.85 15.95 35.75 16.7 40.95 17.1 45.9 18.4 48.55 19 51 20.3 52.8 21.2 54.4 22.45 55.15 22.95 55.8 23.65 55.7 24.2 55.75 24.75 56 27.65 55.8 30.55 55.5 35.4 53.35 39.75 52.9 36.15 52.4 32.65 52.4 32.5 52.4 32.45 52.08515625 31.130078125 51.7 29.8 52.605078125 29.97578125 53.95 30.2 54.25 30.2 54.5 30.05 54.75 29.9 54.7 29.65 54.65 29.35 54.2 29.35 52.78359375 28.99921875 51.35 28.75 50.194140625 25.273828125 48.45 21.95
M 51.05 32.7
Q 50.95 32.45 50.7 32.35
L 49.6 32.3
Q 48.35 32.1 47.2 32.35 47.35 31.8 47.55 31.3 47.892578125 30.3578125 48.1 29.4 49.5064453125 29.4912109375 50.5 29.65 51.191015625 31.8234375 51.6 34.05 52.05 36.4 52.1 38.65 52.15 39.85 52.3 41.1 52.5 42.85 51.9 44.45 50.9 45.15 49.75 45.8 48.3 46.4 46.85 46.8 44.64375 47.5091796875 42.5 48.15
L 42.5 48.1
Q 42.45 47.4 42 45.3 41.9 44.95 41.8 44.85 41.65 44.75 41.35 44.75 37.85 44.55 31.75 45.2 31.35 45.3 31.3 45.4 31.15 45.5 31.15 45.9
L 31.15 47.25 31.15 47.55
Q 29.3888671875 46.976953125 27.6 46.4 24.15 45.45 21.2 43.25 20.9 42.2 21.05 41.35 21.85 37.55 22.75 33.8 22.9 33.25 22.55 32.75
L 23.55 31
Q 24.15 31.05 24.65 31.3
L 24.6 31.45
Q 24.6 34.2 24.65 37 24.65 37.65 24.6 38.35 24.5 40.15 25.85 41 26.85 41.15 27.75 40.8 28.5 40.55 28.85 40 29.35 39.1 29.5 38 29.95 34.9 30 31.85
L 31.05 31.4
Q 30.95 31.25 30.85 31.25 27.65 30.2 24.15 30.05 24.55 29.5 25 29 25.2267578125 28.745703125 25.45 28.5 29.7537109375 28.6138671875 31.8 28.55 32.35 28.45 32.4 28.25 32.5 27.8 31.7 27.8
L 26.25 27.6
Q 27.346484375 26.52890625 28.5 25.5 30.4 23.8 32.2 22.45 32.25 23.6 32.35 24.8 32.4 25.2 32.5 25.6 32.85 27.15 33.5 28.45 34 29.4 34.5 30.3 36.3 33.75 38.95 36.65
L 39.85 36.65 40.1 31.2
Q 41.25 36.15 44.3 40.4
L 44.7 41.9
Q 44.7 42 44.7 42.05 44.75 42.15 44.8 42.3
L 44.8 42.4 44.85 42.4
Q 44.95 42.6 45.1 42.75
L 45.6 42.95
Q 45.65 42.95 45.7 43 45.65 43 45.6 43.05 45.4 43.25 45.25 43.55 45.1 43.55 45 43.6 43.85 44.5 43.8 45.95 43.95 46.05 44.2 46.05 44.3 46.15 44.5 46.1
L 44.85 45.75
Q 45 45.75 45.15 45.85 45.45 45.65 45.8 45.5
L 46.5 45.6
Q 46.55 45.5 46.6 45.5 46.6 45.55 46.6 45.65 46.65 45.8 46.7 46 46.95 46.05 47.25 46.15 47.45 46 47.65 45.85 47.7 45.7 47.75 45.6 48 44.95 48.3 44.4 48.25 44.75 48.3 45.15 48.35 45.2 48.4 45.25 48.6 45.25 48.85 45.3
L 48.9 45.3
Q 49.05 45.45 49.3 45.55 49.4 45.6 49.55 45.6 50.45 44.65 50.15 43.55 49.95 43.5 49.85 43.4 49.7 43.2 49.65 43
L 49.25 42.85
Q 48.8 43.2 48.55 43.65 48.5 43.4 48.25 43.2 48 43.2 47.9 43.3 47.3 44.1 46.85 45 47 44.55 47.1 44.1 47.2 43.85 47.2 43.55
L 46.75 43.45
Q 46.6 43.5 46.55 43.65 46.5 44 45.9 44.7 45.9 44.55 45.95 44.45 46.05 44.1 46.25 43.75 46.45 43.3 46.3 43.1 47.4 43.2 48.15 42.9 49.3 42.35 49.7 41.05 49.9 40.5 50.15 38.65 50.3 36.55 50.25 36.15
L 50.15 34.75
Q 49.9 33.65 49.9 33.35 50.4 33.35 50.65 33.25 51.15 33.15 51.05 32.7
M 50.15 28.6
Q 49.2482421875 28.471875 48.3 28.4 48.64140625 26.48046875 48.5 24.5 49.457421875 26.5234375 50.15 28.6
M 22.7 40.45
Q 22.55 40.55 22.4 40.65 21.4 41.6 21.3 42.9 21.45 42.95 21.6 42.95 21.8 42.95 22 42.9
L 22.7 43.25
Q 23.95 42.4 24.2 40.75 24.1 40.65 24 40.7 23.8 40.55 23.6 40.6 23.55 40.6 23.55 40.65 23.45 40.5 23.4 40.4 23.05 40.4 22.7 40.45
M 25.5 41.65
Q 25.55 41.35 25.5 41.1 25.45 40.9 25.3 40.8 25.1 40.85 25 41 24.25 41.8 23.6 42.7 23 43.55 23.7 44 23.8 44 23.9 44 24 44.15 24.1 44.35 24.2 44.55 24.35 44.7 24.5 44.8 24.7 44.85
L 25.7 44.2 26.25 44.6
Q 26.25 44.7 26.3 44.75 26.5 45.05 26.75 45.3 27.6 44.9 28.2 44
L 28.85 43.95
Q 28.95 43.8 29.05 43.6 29.75 42.7 30.25 41.7 30.35 41.55 30.3 41.3 29.95 41.3 29.8 41.5 28.85 42.4 28.05 43.5 28 43.55 27.95 43.6 28.25 42.95 28.45 42.25 28.5 42.05 28.4 41.8 28.1 41.75 27.9 41.85 27.65 41.95 27.45 42.2
L 26.9 42.25
Q 26.85 42.3 26.8 42.4 26.35 43 25.9 43.55 25.8 43.6 25.65 43.65 25.5 43.5 25.5 43.45 25.7 42.85 25.9 42.1 25.8 41.95 25.65 41.85 25.55 41.75 25.5 41.65
M 44.2 42.75
Q 44 42.7 43.85 42.9 43.15 43.75 42.5 44.65 42.1 45.3 42.4 45.9 42.7 45.9 42.8 45.75 43.7 44.7 44.35 43.45 44.45 43.25 44.55 43.05 44.4 42.85 44.2 42.75
M 10.1 16.3
Q 9.5 16.25 8.5 15.75
L 3.7 13.35 3.05 13.1
Q 2.6 13.1 2.45 13.45 2.3 13.75 2.55 14.1 3.05 14.95 4.7 15.45
L 7.15 16.3
Q 9.3 17.1 10.55 17.25 11.05 17.35 11.25 17.05 11.35 16.9 11.25 16.7 11.15 16.5 10.95 16.4 10.4 16.35 10.1 16.3
M 14.3 4.3
Q 14.05 3.8 14 3.75 13.8 3.45 13.45 3.6 13.25 3.7 13.25 3.95 13.05 4.75 13.9 6.35
L 17.65 12.55
Q 17.95 13.15 18 13.45 18.05 13.65 18 14.1 18.05 14.45 18.25 14.6
L 18.8 14.5
Q 19.25 13.35 18.35 11.6 17.95 10.85 16.15 8 14.75 5.85 14.3 4.3
M 24.2 2.4
Q 24.3 1.75 23.95 1.4 23.75 1.2 23.45 1.2 23.15 1.2 23 1.45 22.9 1.6 23 2.05
L 23.6 5.2 23.65 9.5
Q 23.65 10.9 23.3 11.5 22.85 12.3 22.95 12.55 23.05 12.8 23.4 12.85 23.7 12.85 23.95 12.65 24.3 12.35 24.4 11.6 24.75 9.85 24.65 6.2 24.65 5.05 24.5 4.5 24.2 3.85 24.15 3.45 24.2 2.75 24.2 2.4 Z"/>
</g>
</defs>

<g transform="matrix( 1, 0, 0, 1, 0,0) ">
<use xlink:href="#Layer0_0_FILL"/>
</g>
</svg>
