<svg xmlns:xlink="http://www.w3.org/1999/xlink" xmlns="http://www.w3.org/2000/svg" version="1.1"
     preserveAspectRatio="none" x="0px" y="0px" width="16px" height="16px" viewBox="0 0 16 16">
    <defs>
        <g id="Layer0_0_FILL">
            <path fill="#000000" stroke="none" d="
M 15 3
L 14 3 14 2 13 2 13 1 9 1 9 15 13 15 13 14 14 14 14 13 15 13 15 3
M 13 9
L 13 12 10 12 10 9 13 9
M 3 14
L 3 13 2 13 2 14 3 14
M 2 3
L 1 3 1 13 2 13 2 3
M 3 3
L 3 2 2 2 2 3 3 3
M 6 2
L 6 4 3 4 3 7 6 7 6 14 3 14 3 15 7 15 7 1 3 1 3 2 6 2 Z"/>
        </g>
    </defs>

    <g transform="matrix( 1, 0, 0, 1, 0,0) ">
        <use xlink:href="#Layer0_0_FILL"/>
    </g>
</svg>
