
<svg xmlns="http://www.w3.org/2000/svg" version="1.1" xmlns:xlink="http://www.w3.org/1999/xlink" preserveAspectRatio="none" x="0px" y="0px" width="128px" height="128px" viewBox="0 0 128 128">
<defs>
<g id="Layer1_0_FILL">
<path fill="#000000" stroke="none" d="
M 48.9 132.35
L 47.5 130.7 42.55 129.05 38.3 130.35
Q 36.7 129.45 35.45 128.7 34.55 128.25 33.6 128 33.5 128 33.4 128.2
L 38.55 131.3 43.35 130.05
Q 45.95 131.25 48.65 132.45 48.75 132.45 48.9 132.35
M 49.6 125.45
Q 48.5 124.85 47.4 124.2 45.9 123.45 44.25 123.15 40.7 125.15 36.6 125.6 35.95 123.45 35.2 121.8 34.95 121.25 34.25 121.05 31.95 120.6 29.8 120.05
L 33.9 117.45 33.15 116.55
Q 31.75 117.15 30.4 117.8 29.55 118.35 28.85 119.25
L 29.35 119.95 28.95 120.25
Q 30.6 121.8 33.05 121.95 33.8 122.15 34.55 122.35 35.15 124.25 35.8 126.2 36 126.75 36.7 127.05 39.8 126.6 42.8 125.35 43.35 125.1 43.85 124.75 44.7 124.25 45.55 124.6 48 125.7 50.3 126.25 50 125.75 49.6 125.45
M 37.8 -9.5
Q 33.3 -4.9 28.15 -1.05 29.3 0.2 30.45 1.55 35.4 7.45 39.35 14.25 42.55 19.7 45.9 24.7
L 44.1 24.9
Q 43.65 24.7 43.25 24.5 41.65 24.1 40 24.15 38.95 23.9 37.95 23.7 37.7 23.7 37.45 23.7
L 37.3 24.15
Q 36.9 24.2 36.5 24.3 34.4 24.5 32.25 24.9 26.4 25.65 20.6 25.75 17.45 25.35 14.75 25.35 14.5 25.35 14.25 25.45 14.15 25.55 14.2 25.6 16.2 28.3 18.85 30.1 18.45 30.2 18.1 30.4 17.9 30.5 17.75 30.55 18.45 30.5 19.15 30.45 14.9 31.8 10.65 33.4 9.6 33.8 8.6 34.35 6.9 35.15 5.3 36 0.1 38.85 -4.6 42.45 -5.8 43.3 -6.8 44.3
L -6.4 44.75
Q -7.2 45.25 -7.95 45.8 -8.7 46.2 -9.45 46.5 -12.9 48.1 -16.55 49.1 -17.45 49.45 -18.4 49.7 -19.8 49.75 -21.1 50.3 -20.65 51.15 -19.7 51.6 -16.85 53.05 -13.95 54.6 -11.65 55.75 -9.8 57.4 -8.55 58.5 -7.45 59.45 -9 61.15 -9.9 63.25 -11.75 67.75 -13.65 72.15 -13.8 72.65 -13.7 73.15 -13.5 74 -12.7 74.3 -11 70.5 -8.25 67.35 -7.7 66.75 -7.15 66.15 -6.55 65.7 -5.9 65.3
L -5.75 66.2 -5.3 64.85 -3.8 63.65
Q -3.85 63.7 -3.85 63.8 -3.7 65.3 -3.6 66.85 -3.55 67.95 -3.65 69.05 -3.75 70.25 -3.95 71.45 -4.85 76.95 -5.75 82.4 -6.15 84.8 -6.25 87.15 -6.4 91.45 -7.2 95.95 -7.5 97.85 -7.95 99.75 -8.95 103.5 -10 107.3 -10.15 107.95 -10.65 108.65 -10.55 108.85 -10.5 109.05 -10.4 109.35 -10.3 109.65 -10.25 109.85 -10 109.95 -9.95 110.05 -9.8 110.1 -9.7 110 -9.65 109.9 -9.45 109.5 -9.15 109.1 -6.75 105.75 -3.4 102.9 -2.5 102.15 -1.7 101.25 -1.75 101.9 -1.8 102.55 -1.8 103.25 -1.75 103.9 -1.5 105.55 -1.45 107.3 -1.35 110.15 -1.1 112.95 -0.9 116.45 -0.6 120.1 -0.25 124.4 0.55 128.7 1.3 132.85 1.9 137.05 2.6 142.2 3.4 147.35 3.65 148.7 3.9 150.1 4.6 154.9 6.45 159.35 8.35 163.7 9.9 168.25 11.45 172.85 11.75 177.55 11.85 177.9 11.95 178.3 12.1 178.8 12.4 179.35 12.45 179.45 12.6 179.6 12.75 179.65 12.95 179.7 13.05 179.8 13.2 179.7 13.25 179.7 13.25 179.6
L 13.25 179.55
Q 13.4 176 13.55 172.45 13.8 165.9 14.1 159.3 14.4 150.9 14.9 142.5 15.1 140.1 15.25 137.7 15.6 131.95 15.95 126.2 16.45 117.4 15.05 108.6 14.85 107.25 14.4 106 14.05 105.2 13.9 104.35
L 17.75 108.5
Q 17.7 107.9 17.7 107.35 17.6 106.2 17.1 105.15 16.8 104.4 16.65 103.65 15.9 100.05 15.55 96.2 17.35 98 19.65 99.05 20.45 99.45 21.3 99.75 21.6 99.75 23.75 100.75 23.6 100.65 23.5 100.55 23.6 100.6 23.7 100.65 24.9 101.2 24.95 101.4 27.55 102.3 30.15 103.4 34.65 105.1 39.25 106.35 39.4 106.7 39.5 107.1 40.6 111.05 38.7 114.95 38.4 114.7 38.15 114.45 37.6 113.9 36.7 113.75 36.45 113.7 36.2 113.75 33.65 114.8 31.25 113.55
L 28 115.55 27.95 116.05
Q 27.5 116.4 26.9 116.8 26.35 117.25 25.45 117.1 24.4 116.9 23.95 117.05
L 23.45 122
Q 23.95 122.65 24.4 122.9 24.55 122.95 24.7 123.1 26.5 123.55 28.25 124.1
L 30.1 128.2 33.15 128.15 30.35 127.05
Q 29.95 125.4 28.65 124.1 28.6 124 28.6 123.95 28.1 123.4 27.75 123.15 26.15 122.3 24.5 122.05
L 24.9 118.05
Q 25.1 118 25.35 117.95 26.05 118.05 26.55 118.15 28 117.9 29.05 116.75
L 29.25 116.2
Q 30 115.6 30.8 115.1 31.75 114.45 32.9 115 33.3 115.15 33.8 115.25 35.2 115.35 36.65 114.85 37.85 114.35 38.55 115.35
L 37.8 116.9
Q 37.5 116.95 37.2 116.95 36.35 116.95 35.55 116.65 34.35 116.2 33.3 115.85 33.2 115.9 33.2 115.95 34.25 116.75 35.45 117.45 36.75 118.25 38.5 117.2 41.4 114.2 40.9 109.3 40.75 107.8 40.05 106.55
L 41.15 106.7 40.1 106.4
Q 43.45 107.2 46.65 108.05 46.9 108.05 47.15 107.95 49.35 107.35 51.1 106.6 52.85 105.8 52.45 106.85 52 107.85 51.85 109.6 51.7 111.35 52.35 112.9 53 114.4 53.8 115.55 54.15 116.05 56.6 117.15
L 57.3 117.25
Q 58.05 117.65 58.85 118.1 59.3 118.4 60 119
L 59.4 121.05
Q 57 120.85 54.6 120.7 53.75 120.6 53.15 121.15 52.1 122.15 51.05 123.15 50.25 123.95 50.35 125 50.4 125.8 50.95 125.8 52.05 124.2 53.45 122.7 54 122.1 54.75 121.95 57.25 121.75 59.85 122.4 60.15 122.35 60.45 122.3
L 61 119.6
Q 60.75 118.6 59.5 117.8 57.85 116.8 56.25 115.65 55.55 115.05 54.8 115.3 54.8 115.35 54.8 115.4
L 54.1 114.65
Q 54.2490234375 114.7791015625 54.55 114.65 55.65 114.05 56.8 114.2 57.35 114.1 57.8 114.5 59 115.45 60.15 116.9 60.1 116.9 60.05 116.95 59.65 117.5 60.55 117.65
L 63.55 117.4 65.75 120.95
Q 65.65 121.05 65.6 121.15 65.55 121.25 65.55 121.35 65.6 121.8 65.7 122.3 65.7 122.35 65.75 122.45 65.7 122.55 65.7 122.65 65.7 122.85 65.9 123.15
L 66.2 123.55 63.8 127
Q 63.7 126.95 63.65 126.95 63.4 126.75 63.15 126.75 61.45 126.05 59.8 126.45 59.7 126.45 59.65 126.55 59.35 126.55 59.1 126.6 58.5 127 57.85 127.35 56.25 128.45 55.35 130 53.6 128.75 51.6 128.95 49.65 129.3 48.1 130.55
L 49.3 131.3
Q 49.6 131.15 49.9 130.95 50.6 130.6 51.3 130.4 54.05 129.55 56.05 131.25 56.6 131.7 56.6 131.35
L 56.05 130.65 60.3 127.05 63.85 127.55
Q 63.95 127.45 64.1 127.35
L 64.1 127.3
Q 64.15 127.3 64.2 127.3
L 64.25 127.35 64.25 127.4
Q 64.45 127.9 64.85 127.5 65.45 126.75 66.1 126.1 66.8 125.35 67.05 124.6 68.1 125.75 68.95 126.15 69.15 126.25 69.25 126.2 69.45 126.2 69.45 126 69.2 125.55 68.4 124.95 67.55 124.3 67.25 123.95 67.2 123.85 67.2 123.8
L 66.2 120.7
Q 66.1 120.5 66.05 120.35 64.95 117.85 63.15 116.35
L 60.6 116.75 57.15 113.15
Q 56.7 113.1 56.3 113.05 55.45 113.2 54.65 113.4 54.3 113.6 54 113.9 53.85 114 53.6 114.05 52.35 110.35 53.25 106.2
L 63.2 103.05
Q 65.7 102.3 67.45 101.5
L 68.8 100.95
Q 69.15 100.85 69.55 100.95 70.3 100.35 71.1 99.45
L 71.25 98.85 71.95 98.6
Q 71.2 101.4 70.85 104.35 70.1 110.25 66.7 115.05
L 66.95 116.1
Q 67.25 116 67.5 115.85 67.9 115.5 68.2 115 68.45 114.7 68.7 114.4 70.95 111.45 73.65 108.8 73.65 108.85 73.65 108.95 70.65 125.45 69.25 142.15 68.15 154.8 69.8 167.25 70 168.9 70.6 170.35 71.25 171.75 72.65 172.15 72.7 171 72.65 169.2 72.6 168.05 72.75 167 73.45 162.1 74.5 157.4 74.65 156.75 74.85 156.2 77.45 148.3 80.1 140.55
L 79.6 140.2
Q 80.35 138.35 81.15 136.3 81.65 135 82.1 133.7 84.15 127.3 85.8 120.8 87.65 113.35 89.1 105.85 89.1 105.75 89.15 105.7 89.8 106.1 90.15 106.75 90.8 108 91.6 109.85 92.55 111.9 93.1 113.6 93.4 113.85 93.75 114 93.95 114.2 94.25 114.35 94.3 114.1 94.25 113.85 94.15 112.95 94 112.05 93.85 111.05 93.9 110.05 94.9 88 93.2 77.9 92.3 72.45 92.1 70
L 96.65 76.25 96.95 77.3
Q 97.15 77.8 97.75 78.4
L 98.05 78.6
Q 98.3 78.6 98.35 78.45
L 97.9 77.1 97.8 76.3 97.2 74.35
Q 97.05 73.8 96.15 70.8 95.55 69.15 95.4 68.8
L 94.25 66.05
Q 94.2 65.8 94.15 65.65 96.45 64.5 98.3 63.4 99.45 62.7 101.65 61 103.35 59.65 105.3 57.85 106.5 56.75 107 56.1 107.25 55.85 107.4 55.55
L 106.25 55.05
Q 106.25 55.1 106.2 55.15 106.05 55 105.85 54.9
L 103.7 53.95
Q 101.4 53.15 97.1 51.05
L 97 51.05
Q 96.45 50.65 95.9 50.3 94.65 49.45 93.25 48.85 89.8 47.2 86.6 45.1
L 87.95 43.05 88.05 43.05
Q 88.1 42.9 88.15 42.75
L 91.25 35.4
Q 92.8 31.9 93.2 29.65 93.1 29.25 92.95 28.9 92.8 28.5 92.5 28.2 89.45 25.5 86.35 22.9 83.75 20.65 80.85 18.6 76.8 15.6 72.05 14.05 65.1 11.75 57.85 10.45 56.4 10.2 55 10 53.65 9.6 52.2 9.9 52 10.4 51.95 10.95 51.7 16.7 50 22.15 49.6 23.55 50.45 24.6
L 47.2 24.6
Q 45.2 20.9 43.75 16.8 42.1 12 40.5 7.15 39.75 4.95 38.95 3 38.3 1.45 38.15 0.15
L 47.05 -11.1
Q 47.45 -10.9 47.8 -10.55 50.1 -8.35 51.95 -5.75 52.15 -5.45 52.2 -5.05 52.5 -1.5 51.3 1.6 46.05 1.4 40.8 1.4 40.1 1.4 39.4 1.6 39.7 1.8 40 2.05 41.4 3.1 42.8 3.9 48.05 6.8 53.4 9.65 53.6 9.7 53.9 9.7
L 59 -3.75
Q 54.25 -9.2 49 -14.15 47.95 -15.1 46.8 -15.85 46.3 -16.1 45.85 -15.95 42.3 -14.25 39.65 -11.45 38.65 -10.4 37.8 -9.5
M 30.15 -0.3
Q 30.7 -1 31.25 -1.4 32.7 -2.3 33.85 -3.4 36.1 -5.5 38.35 -7.85 41.5 -11.15 45.35 -13.85 46.1 -14.35 47.15 -14.65 50.05 -12.55 52.45 -9.85 55.1 -7 57.65 -4.25 56.15 -1.65 55.15 0.9 53.7 4.45 52.45 8.25
L 43.8 3.1 52.6 3.05
Q 52.7 2.9 52.75 2.7 53.95 -0.8 54.2 -4.7
L 46.45 -13.1 36.65 -0.6 42.7 18.25
Q 40.2 13.5 37 9.05 33.75 4.65 30.5 0.35 30.3 0 30.15 -0.3
M 92.2 29.05
Q 91.95 30.4 91.6 31.7 89.6 29.85 88.65 29.2 87.55 28.55 86.55 27.8 82.7 25.15 78.55 22.95 75.1 21.1 71.7 19.25 62.95 14.3 52.75 14.3
L 53.05 11.15
Q 56.6 11.3 60.05 12 63.75 12.9 67.5 13.8 73.3 15.3 78.35 18.1 82.5 20.35 86.05 23.7 86.75 24.4 87.55 25 90.1 26.9 92.2 29.05
M 86.45 38.35
Q 88.15 39.6 88.7 39.9 88.65 40 88.6 40.1 87.65 42.05 85.85 44.6 82.75 42.5 79.9 40 77 38.05 76.7 37.95 76.4 37.7 76.15 37.45 71.85 33.4 66.85 30.25 64.2 28.5 61.4 27.6 61.05 27.6 60.75 27.65 59.3 27.2 57.9 26.65 56.65 26.25 55.5 25.6 54.7 25.25 53.85 24.95 52.9 24.65 51.85 24.35
L 51.4 24.65 50.85 24.6 51.7 20.85
Q 53.6 22.2 56.05 22.6 56.6 22.75 57.2 22.95 60.9 24.25 64.25 26.15 67.1 27.8 70.15 29.05 74.2 30.8 78.2 32.85 79.6 33.6 80.95 34.55 83.6 36.25 86.45 38.35
M 89 39.2
Q 85.55 36.1 82.5 34.3 79.7 32.55 76.7 31.1 71.75 28.8 66.95 26.4 62.45 24.1 57.7 22.1 54.85 20.85 51.9 20.6
L 52.65 15.3
Q 53.1 15.35 53.6 15.45 60.35 15.6 66.45 18.15 70.35 19.8 74.15 21.7 77.95 23.7 81.6 25.7 85.6 27.95 91.45 32.2 90.6 35.65 89 39.2
M 105.55 55.8
Q 102.6 58.55 101.25 59.65 98.75 61.7 96.5 62.9 95.25 63.55 94.6 63.9 93.55 64.5 92.85 65.05 92.95 65.1 93.05 65.2 93.05 65.3 93.1 65.4 93.15 65.95 93.5 66.45 94.4 68.45 95.15 70.95
L 96.25 74.8 93.3 70.6
Q 93.2 70.45 93 70.2 92.85 70.25 92.75 70.2 92.55 70.15 92.35 69.75 91.45 68.1 90.45 66.85 90.5 67.5 90.55 68.1 90.95 72.55 92 76.9 92.45 78.8 92.45 80.65 92.5 87.15 92.65 93.8 92.85 102.1 92.55 110.25 92.5 110.15 92.45 110.05 91.8 108.9 91.05 107.7 90.2 106.3 89.05 105.05
L 89 104.4
Q 88.85 104.35 88.8 104.45 88.7 104.4 88.7 104.55
L 88.7 104.6
Q 88.6 104.6 88.55 104.6 88.45 104.5 88.4 104.45 88.3 104.45 88.25 104.5 88.2 104.5 88.15 104.6
L 88.25 104.7
Q 88.4 104.9 88.55 105.1 87.2 111.5 85.75 118.25 84.9 122.35 83.5 126.2 80.7 134.05 78.15 141.8 77.6 143.4 77.15 145.1 75.8 150.05 74.25 154.95 71.85 162.5 71.7 170.75 71.6 170.7 71.6 170.65 71.35 170 71.25 169.3 69.85 160.45 69.95 151.4 70.05 145.85 70.55 140.35 72 123.8 74.9 107.45 75 107 75.35 106.6 75.6 106.35 75.25 105.9 74.9 105.95 74.55 106.05 74.35 106.2 74.2 106.4 72.65 108.05 71.05 109.6 70.95 109.65 70.75 109.65
L 73.75 96.55
Q 73.65 96.15 73.7 95.75 74.15 93.05 73.95 90.35 73.9 89.85 73.9 89.35 73.85 83.05 75.25 76.7 75.25 76.6 75.35 76.6 75.9 77 75.85 76 75.65 70.95 76.55 65.75 78.75 69.55 80.1 73.65 80.7 75.5 81 77.55 81.1 78.35 81.95 78.6 82.05 78.5 82.05 78.4 82.2 70.5 82.3 62.65 82.35 60.95 81.65 59.45 81.15 58.3 80.55 57.35
L 90.35 58.75
Q 90.3 58.35 90.2 58 90 57.4 89.6 57.05 89 56.45 88.55 55.8 86.45 52.8 84.4 49.9 83.15 48.15 81.5 47.1
L 89.25 57.55 79.75 56.45 79.7 56.45
Q 79.15 56.1 78.65 55.75 79.5 57.1 80.25 58.5 80.85 59.55 80.85 60.55 80.95 66.7 80.95 72.85 80.95 72.9 80.95 72.95
L 80.85 72.9
Q 79.3 69.45 77.75 66.3 76.05 62.9 73.9 59.85 72.9 58.4 72 56.95 69.35 52.7 66.9 48.35 66.75 48.05 66.6 47.8 66.6 47.45 66.6 47.1 66.65 46.15 65.95 45.6 65.7 46.3 65.55 47.1 64.15 53.95 66.1 60.9
L 66.05 60.9
Q 64.75 59.45 63.5 57.95 60.75 54.75 58.3 51.55 53.5 45.1 51.2 37.6 51.05 37.05 50.75 36.6
L 50.45 36.25 49.95 36.45
Q 49.8 41.95 49.05 47.45 48.95 48 48.7 48.7 48 50.5 47.35 52.35 44.9 59.6 45.85 67.15 46.2 69.8 46.45 72.5 47 78.75 49.7 84.4 47.2 82.8 45.55 80.7 44.75 79.75 44.35 78.35 44.15 78.2 44 77.95 43.8 77.65 43.7 77.6
L 43.4 76.65 43.35 76.6
Q 41.45 73.25 40.25 69.7 39 66 38.95 61.95 38.8 51.4 41.05 41.1 42.05 36.5 43.9 32.05 44.7 30.15 45.9 28.6
L 45.35 27.9
Q 44 28.5 43.45 29.95 41.85 34.05 39.8 37.9 39 39.45 38.15 40.85 36.35 43.95 34.75 47.1 30.75 54.95 29.35 63.4 28.9 57.35 29.95 51.35 30.65 47.55 32.85 44.5
L 32.2 43.6
Q 30.5 46 28.9 48.55 27.7 50.35 26.55 52.2 24.55 55.3 22.35 58.45 21.25 59.75 18.9 63.05 13.7 70.35 12.65 71.8 12.65 71.85 12.6 71.9 12.2 72.3 12.05 72.6 11.6 73.55 11 74.4 9.55 76.45 8.95 78.7 7.7 74.85 8.05 70.65 8.4 66.25 9.05 61.85 9.55 58.8 10.85 55.95 10.95 55.65 10.85 55.45
L 9.95 54.6 5.5 56.55
Q 5.9 55.65 6.85 54.85 7.95 53.95 8.65 52.85 9.4 51.65 10.45 50.45 12.65 47.95 14.5 45.1 14.95 44.35 15.5 43.75 16.25 43.05 16.35 42.45
L 15.55 41.85
Q 11.4 47.5 6.85 53 3.9 56.55 0.15 59.2
L 1.15 60.05 9.4 56.4
Q 8.35 59.25 7.8 62.25 7.45 63.9 7.25 65.6 6.5 70.45 7 75.3 7.35 78 8.85 80.35
L 9.3 79.6
Q 9.45 79.9 9.6 79.6 9.85 79.3 9.95 78.95 10.35 77.65 11.15 76.65
L 11.55 76.55 12.6 75.25
Q 12.6 75.3 12.6 75.35 12.95 78.75 13.05 82.1 13.1 83.25 13.35 84.25 13.45 84.6 13.5 85 13.55 88.3 13.85 91.55 13.95 92.3 14 93.1 14 93.15 14 93.2 14.5 94.95 14.7 96.5 15.25 101.7 16.95 106.7
L 13.9 104.15
Q 13.7 103.65 13.25 103.5 13.25 103.55 13.25 103.6 13.15 104 13.15 104.4 13.2 105.1 13.4 105.85 13.5 106.3 13.6 107.1 13.6 107.35 13.7 107.65 13.95 108.3 14.05 109 14.5 112.75 14.85 116.45 15.2 120.95 15.1 125.25 15 126.6 14.9 128 13.7 142.95 13.15 157.95 12.9 165.5 12.45 173.1 12.25 172.25 12 171.45 11.5 169.6 10.9 167.85 9.85 164.25 8.35 160.7 7.7 159.15 7.15 157.55 6.95 157.1 6.85 156.7 6.25 155.1 6 153.5 3.95 143.15 2.2 132.55 0.7 123.15 0.15 113.8 -0.2 108.1 -0.25 102.1
L -0.7 102.5 -0.65 100.05 0 98.7 -0.65 98.1 -1.6 98.15 -1.7 99.15 -8.1 105.85
Q -7.6 104.15 -7.2 102.55 -6.75 100.85 -6.45 99.15 -6.1 97.4 -5.9 95.75 -5.25 89.6 -4.6 83.35 -4.5 82.7 -4.4 82.1 -2.65 73.5 -2.4 64.85 -2.35 63.9 -3.25 63.3
L -4.15 62.05
Q -4.7 62.55 -5.5 63.1 -5.8 63.2 -6.05 63.4 -6.65 63.8 -7.25 64.4 -7.5 64.7 -7.8 64.95 -9.05 66.2 -10.25 67.5
L -6.45 60.1 -5.5 60.35
Q -5.6 60.05 -5.7 59.8 -5.75 59.7 -5.85 59.6 -6.45 59 -7.05 58.55 -8.85 57.35 -10.35 55.95 -12.15 54.25 -14.35 53.3 -16.15 52.5 -17.8 51.25 -13.25 50.05 -9.1 48.15 -6.85 47.1 -4.9 45.55 -3.35 44.3 -1.85 43 -2.1 42.65 -2.35 42.35 -2.35 42.3 -2.3 42.3 -2.25 42.35 -2.2 42.4 -2.05 42.45 -1.9 42.55 -1.8 42.5 -1.75 42.45 -1.5 42.25 -1.35 42 -0.25 40.85 1.2 40.05 5.35 37.6 9.75 35.55 10.4 35.2 11.15 34.9 12.05 34.55 12.95 34.2 14.3 33.7 15.65 33.2 19.2 32.05 22.5 30.6 22.9 30.35 23.3 29.95
L 22.95 29.75 22.25 30
Q 21.35 30.05 20.4 30.05 20.35 30.1 20.3 30.1
L 19.85 29.85
Q 19.75 29.85 19.6 29.9 17.8 28.3 16 26.8
L 21.45 27.15
Q 22.75 26.65 23.95 26.85 27.9 26.95 31.6 26.25 35.15 25.6 38.75 25 39.95 25.2 41.2 25.45 43.3 25.35 45 26.15 45.05 26.05 45.1 25.95 45.45 25.95 45.85 25.95 46.3 25.95 46.8 25.9
L 47.25 26.2
Q 47.4 26.15 47.5 26.1 47.65 25.95 47.75 25.8 49 25.75 50.25 25.75 52 25.9 53.7 26.25 54.6 26.55 55.5 26.9 60.7 27.8 65.4 30.1 67.05 30.9 68.05 31.75 68.15 31.85 68.25 31.95 68.85 32.3 69.45 32.65 70.9 33.6 72.1 34.75 73.9 36.5 75.85 38.1 77 38.85 77.95 39.55 78.55 40.05 79.35 40.7 84.65 44.9 89.3 47.45 93.9 50 94.6 50.45 96.25 51.6 98 52.65 98.05 52.5 98.1 52.45
L 105.7 55.65
Q 105.65 55.7 105.55 55.8
M 51 39.65
Q 52.15 42.15 53.5 44.6 55 47.45 56.8 50.1 60.7 56.1 65.65 61.15 67.35 62.95 69.25 64.55
L 69.4 64.45
Q 66.9 61.8 66.4 57.95 65.75 53.3 66.45 48.85
L 66.5 48.8
Q 68.95 53.8 71.95 58.65 73.2 60.75 74.65 62.75 74.8 63 75 63.2 75 64.05 74.95 64.9 74.8 69.5 74.2 74.05 73.8 76.95 73.55 79.65 73.35 81.85 73.1 84.05 73 85 72.95 86 72.9 88.25 72.85 90.55 72.8 92.95 72.65 95.4 72.6 95.85 72.35 96.25 72.05 96.75 71.55 97.15 71 97.6 70.6 98.15 69.7 99.4 68.3 100.4 67.8 100.4 67.35 100.6 59.7 102.85 52.35 105.6
L 52.3 105.6
Q 52.1 105.4 51.95 105.6 51.75 105.45 51.65 105.7
L 45.7 107.5
Q 44.35 107 43 106.5 41.8 106 40.4 105.75 37.5 105.2 34.75 104.25 34.2 104 33.8 103.65 33.55 103.4 30.5 102.5 28.85 102 27.55 101.55 27.7 101.7 27.9 101.85 27.65 101.7 27.45 101.55 26.5 101.2 25.75 100.95 25.75 100.9 23.4 99.7 23.5 99.7 23.6 99.75 21.8 98.9 21.15 98.55 20.15 98.15 19.2 97.7 18 97.25 17.05 96.6 15.75 95.8 15.3 94.35 14.9 93.15 14.9 91.9 14.95 90.25 14.7 88.55 14.65 88.1 14.6 87.7 14.35 85.3 14.3 83 14.25 80.5 14.2 78.05 14.15 75.55 14.1 73.05 16.4 69.65 19.85 64.65
L 23.1 59.9 28.3 53.4
Q 27.95 56.7 27.95 60.1 27.95 62.3 28.2 64.5 28.5 66.75 30.05 68.4 30.45 68.75 30.9 69.1
L 30.35 68.1
Q 30.05 61.9 32.25 56.1 33.5 52.75 34.8 49.5 36.7 44.9 39.45 40.9 39.5 40.85 39.55 40.85 39.55 40.9 39.55 41 37 52.6 37.75 64.5 37.9 66.75 38.75 69 41 74.75 44.2 80.05 44.6 80.75 45.2 81.3 45.2 81.25 45.3 81.15 45.35 81.15 45.4 81.25 46.55 82.7 48.1 83.95 50.05 85.45 52 86.9 52.8 87.55 54.1 87.9 55.3 88.05 55.95 87.4
L 55.9 87.4
Q 54.4 87.35 53.1 86.6 52.6 86.3 52.2 86
L 52 85.95
Q 51.85 85.8 51.7 85.65 51.6 85.55 51.55 85.4 50.25 84.15 49.55 82.25 49.5 82.25 49.45 82.3 48.85 80.9 48.6 79.35 47.85 74.4 47.05 69.2 46.6 66.3 46.7 63.25 46.75 62.05 46.85 60.85 46.9 60 47.25 59.25 47.3 59.15 47.35 59 47.4 58.5 47.45 57.85 48 54.7 48.1 54.2 48.6 52.35 49.75 49.65 49.8 49.55 49.85 49.5 50.55 44.65 50.9 39.55 50.95 39.6 51 39.65
M 68.6 93.2
L 69.5 94.15 71.5 90.35 70.6 89.6 68.6 93.2
M 65.05 89.2
L 62.85 92.25 62.6 93 63.45 93.8 65.9 90 65.05 89.2
M 68.35 89.95
L 67.45 89.15 66.1 91.5 65.65 92.95 66.4 93.65 68.35 89.95
M 66.75 66.3
Q 67 66.5 67.2 66.8 67.5 69.1 67.6 71.4 67.75 74.65 67.7 77.95 67.65 82.15 68.05 86.25 68.1 87.3 68.7 88.05 68.85 88.15 68.95 88.3 69.3 88.2 69.6 88.15 69.9 84.9 69.65 81.7 69.6 80.8 69.65 79.95 69.8 78.45 69.9 76.9 70.1 73.1 70.1 69.2 70.75 70.7 71.35 72.15 71.65 72.85 72.25 72.95 72.3 72.65 72.3 72.45 71.95 71.25 71.45 70.2 70.5 68.2 68.7 66.65 66.95 65.2 65.1 64.25 64.3 63.85 63.35 64 62.6 64.05 61.75 64 59.3 64.15 58.45 66.4
L 59.3 67 60.7 65.55
Q 61.25 65.65 62.1 65.35 64.75 64.5 66.75 66.3
M 62.45 61.55
Q 62.65 61.5 62.65 61.25 62.3 60.9 62.1 60.8 61.9 60.65 61.45 60.65 60.7 60.6 59.75 60.75 58.9 60.95 58.55 61.35
L 59.1 61.95 59.25 62.05
Q 59.35 62.1 59.55 62 59.9 61.8 60.7 61.7
L 62.45 61.55
M 39.65 95.7
L 39.85 95.15 50.2 95.35 51.8 98.15 52.3 97.2 52.35 96.65 52.7 96.3
Q 53.9 100.9 52.9 103.05 51.9 105.15 52.8 103.95 53.7 102.75 53.95 100.1 54.15 97.4 52.85 95.05 52.55 94.45 52.2 93.9 52 93.95 51.8 94.05 50.5 94.3 49.25 94.3 44.35 94.2 39.5 94.2 37.9 95.95 37.8 98.45 37.7 100.9 38.8 102.65 39.9 104.35 41 104.85 39.7 104.2 38.95 101.45 38.2 98.7 39.65 95.7
M 50.75 95.3
Q 51.15 95.25 51.65 95.2 52.15 95.15 51.85 96.65
L 51.9 96.9
Q 50.85 95.85 50.75 95.3
M 23.3 87.85
L 22.95 88.05 21.6 90.95
Q 21.5 91.35 21.5 91.4 21.5 91.6 21.7 91.8 22.05 92.15 22.25 92.1 22.45 92.05 22.6 91.7
L 23.85 89 23.95 88.65
Q 23.95 88.45 23.7 88.25 23.35 87.95 23.3 87.85
M 18.6 90.45
L 18.5 90.7
Q 18.5 90.9 18.8 91.1 19.15 91.35 19.2 91.5 19.6 91.2 20.1 90.3
L 21.3 88.1 20.5 87.35
Q 20.25 87.55 20.05 87.95
L 18.6 90.45
M 18.15 87.3
Q 17.85 87.05 17.8 86.9 17.65 87 17.4 87.45
L 16.25 90.05 16.15 90.45
Q 16.2 90.65 16.45 90.85 16.75 91.1 16.8 91.2 16.95 91.15 17.2 90.8
L 18.3 88.4 18.45 87.95 18.45 87.65
Q 18.4 87.5 18.15 87.3
M 19.5 79.05
Q 18.6 79.3 17.85 79.7 16.55 80.45 15.35 81.35 14.8 81.8 15.05 82.4
L 15.95 83.15
Q 16 82.6 17.45 81.4 18.9 80.2 20.55 80 22.15 79.8 23.75 80 25.3 80.2 26.75 81 28.25 81.8 29.85 82.85 29.95 82.9 30.3 83.2 30.5 83.4 30.6 83.4 30.8 83.3 30.85 83 30.6 82.7 30.35 82.45 29.45 81.6 28.5 80.85 26.9 79.6 24.75 78.8 23.25 78.4 21.9 78.6 20.65 78.8 19.5 79.05
M 63.25 42.3
Q 62.45 42.5 62.1 43.05 62.25 43.65 62.95 43.65 63.15 43.7 64.05 43.55 65.8 43.3 68.65 44.65 72 46.35 74.7 48.55 76.9 50.15 78.1 51.9 78.35 52.25 78.8 53 79.25 53.65 79.65 54 79.8 54.15 79.9 54.15 80.1 54.1 80.1 53.85 80.1 53.65 79.95 53.5 76.6 48.2 69.5 44.15 68.65 43.6 67.8 43.25 66.4 42.6 64.65 42.3 63.7 42.2 63.25 42.3 Z"/>
</g>

<path id="Layer0_0_1_STROKES" stroke="#000000" stroke-width="16" stroke-linejoin="miter" stroke-linecap="square" stroke-miterlimit="3" fill="none" d="
M 0 0
L 128 0 128 128 0 128 0 0 Z"/>
</defs>

<g transform="matrix( 1, 0, 0, 1, 0,0) ">
<use xlink:href="#Layer1_0_FILL"/>
</g>

<g transform="matrix( 1, 0, 0, 1, 0,0) ">
<use xlink:href="#Layer0_0_1_STROKES"/>
</g>
</svg>
