
<svg xmlns="http://www.w3.org/2000/svg" version="1.1" xmlns:xlink="http://www.w3.org/1999/xlink" preserveAspectRatio="none" x="0px" y="0px" width="128px" height="192px" viewBox="0 0 128 192">
<defs>
<g id="Layer1_0_FILL">
<path fill="#000000" stroke="none" d="
M 120.05 6.8
Q 120.0185546875 6.7685546875 119.95 6.7 119.3 7.15 118.6 8 117.9 9.05 117.55 9.55 115.7 11.95 114.9 13.2
L 113.35 15.9
Q 112.2 17.8 109.1 21.6 106.6572265625 24.5810546875 105.35 26.55
L 104.05 22.05
Q 103.9845703125 21.72265625 103.95 21.5
L 104.05 21.25 103.85 21.05 103.85 21
Q 103.65 20.45 103.3 20.2 102.95 20.2 102.85 20.55 102.801953125 20.7423828125 102.9 21.1 101.6990234375 23.162109375 100 26.9 83.9 62.3 70.45 98.75 70.3037109375 99.17734375 70.2 99.55 69.8658203125 99.53125 69.5 99.45 67.1 98.9 65 97.3 63.65 96.3 62.45 95.15 61.3 94.05 60.55 92.7 59.25 90.35 59.5 87.75 59.7 86 61.4 85.15 62.95 84.45 63.05 85
L 61.7 85.35
Q 62.1 85.75 62.65 86.05 63.55 86.65 64.5 86.05 65 84.5 63.65 83.55 61.7 82.05 59.45 83.15 57.3 84.25 55.6 86.1 53.722265625 88.2248046875 53.15 94 52.669140625 92.3470703125 52.35 91.35 50.75 86.2 49.05 82.35 47.65 79 45.15 74.25 42.3 68.95 40.9 66.25 37.75 60.1 32.7 48.2
L 19.05 16.4
Q 17.5 12.8 16.7 11.25 15.25 8.4 13.7 6.45
L 13.8 6.7
Q 13.80390625 6.796484375 13.85 7.1 13.5 8.55 13.9 12 14.45 15.8 15.15 23.75
L 16.35 38.1
Q 16.5375 39.849609375 17 40.85 14.4029296875 37.112109375 11.45 33.8 11.15 33.4 10.85 33.35 10.7 33.3 10.55 33.45 10.35 33.55 10.35 33.75 10.7162109375 34.14453125 11.05 34.55 10.9484375 38.5919921875 11.9 46.3 14.75 69.6 18.25 91.25 20.25 103.75 21.7 109.95 21.8162109375 110.4732421875 21.95 110.95 20.644140625 111.601953125 19.9 111.85 19.1 112.15 18.35 112.3 18.35 112.35 18.35 112.4 17.3 113.15 16.25 113.75 14.4 114.8 12.6 115.5 10.9 116.15 9.15 116.5 7.35 116.35 5.9 117.05
L 11.75 122.2
Q 11.6 122.65 11.4 123.05 7.2 130.75 3.85 138.8 3.35 140.05 2.8 141.25 1.85 143.25 2.6 145.25
L 3.05 145.5
Q 3.75 144.95 3.9 144.15 4 143.45 4.2 142.85 4.9 140.45 6.15 138.15 8.7 133.45 12.2 129 11.75 130.2 11.45 131.45 9.95 138.1 9 145.1 8.65 147.85 8.9 150.5 9.35 155.3 12.45 158.95 13.15 159.7 13.7 159.45 13.65 159.35 13.6 159.3 12.75 157.9 13.05 156.4 13.95 151.5 15.65 146.9 16.6 153.35 16.25 159.95 15.9 165.85 15.6 172 15.3 177.35 12.65 181.75 12.45 182.1 12.3 182.55 11.8 183.7 12.45 184.4
L 13.2 184.3 18.1 177.15
Q 18.05 181.55 17.9 185.9 17.85 187.8 17.4 189.6 16.75 192.25 17.65 194.55 17.8 195 18.05 195.45
L 18.2 194.65
Q 18.65 198.05 19.1 201.3 19.4 203.6 20.15 205.6 20.85 207.35 21.3 209.2 22.3 213.35 24.05 217.45 24.3 218.15 24.4 218.85 24.7 221.55 25.4 224.05 25.7 225.05 26.5 224.7 26.55 224.65 26.6 224.6 26.75 224.3 26.7 223.95 25.6 215.75 26.35 207.55 27 210.2 27.65 212.9 28.4 216.05 29.45 219.15 31.15 224.3 30.85 229.7 30.75 231.35 31.25 232.35
L 32.05 232.4 32.5 232.05
Q 39 233.6 45.6 234.95 54.45 236.65 63.6 237.1 77.1 237.4 90.6 237.25
L 89 244.6 89.55 244.7 97.15 236.7
Q 97.45 236.6 97.8 236.55 98.3 236.35 98.75 236.1 99.95 235.3 99.3 234.05
L 98.85 234.2
Q 102.25 229.3 102.25 223.35
L 101.55 223.25 100.55 227.5
Q 102.9 216.65 104.8 205.7 105.1 203.85 105.45 202.05 106.1 198.3 106.6 194.55 108.05 182.8 107.6 170.95 108.95 172.8 110.25 174.75 110.9 175.7 111.95 175.4 112.3 174.65 112.15 174.2 109.5 166.15 108.85 157.65 108.75 156.45 109 155.3 109 155.25 109.25 155.3
L 109.45 154.35
Q 109.8 155.65 109.9 157.05 110.1 159.75 110.65 162.4 110.75 163 111.4 162.85 111.5 162.55 111.5 162.25 111.4 161.1 111.65 159.9 112.7 155 113.4 150.6 114.65 142.45 114.6 134.2 114.6 130.15 112.7 126.9 114.3 129.1 116.4 130.95 118.65 133 120.7 135.15 121.45 135.95 122.5 136
L 112.1 122.3
Q 113.45 123.2 115.15 123.5 116.75 123.8 118.35 123.45 121.3 122.55 123.2 120 123.75 119.25 123.8 118.2 123.9 117 123.7 115.85 123.4 114.15 122.2 114.15 123.45 117.1 121.5 119.55 119.2 122.4 115.55 122.35 111.85 122.1 109.55 119.35
L 109.55 119.3
Q 109.1 119 108.65 118.55 108.65 118.85 108.65 119.1 106.5 117.2 104.35 115.35 104.35 115.2 104.35 115.1 103.65 114.55 102.95 114.05
L 102.95 114.1
Q 102.4451171875 113.7353515625 101.95 113.35
L 112.1 62.2
Q 115.35 45.7 116.35 40 119.2 23.6 121 7.1 121.25 5.4 120.3 5.1 120.1923828125 5.969921875 120.05 6.8
M 119.25 12.9
Q 117.1095703125 29.053515625 114.25 44.6 112.95 51.65 110.15 65.75
L 100.8 112.5
Q 99.98125 111.866796875 99.2 111.25 95.1 108.3 91.8 106.45 88.725 104.6732421875 85.7 103.3 89.15859375 95.463671875 93.05 85.55 95.35 79.7 100.4 66.35 107.35 47.9 110.65 38.6 115.6845703125 24.584765625 119.25 12.9
M 77.1 119.6
Q 76.7 118.7 76.15 117.95 75.3 116.85 75.8 117.1
L 86.65 133.9 85.3 133.9 81.8 134.75 78.45 136.1 78.4 136.05
Q 79.5 131.45 79.05 126.75 78.7 123.05 77.1 119.6
M 52.9 124.15
Q 54.15 127.7 56.05 131.25 58.25 135.45 61.65 138.75 64.25 141.2 66.65 144.05 67.95 145.65 68.6 147.65 69.3 149.7 70.25 151.85
L 76.65 140.8
Q 76.7 140.85 76.8 140.85 76.85 140.85 76.9 140.85 76.95 140.75 77 140.65
L 77.6 138.75 80.15 137.15
Q 80.85 142.7 81.15 148.1 81.2 149.15 81.4 150.2 81.95 152.75 82.05 155.3
L 82.8 158.65
Q 82.9 158.65 83 158.7
L 83 135.85 83.05 135.85
Q 82.95 135.8 82.8 135.8 83.1 135.7 83.4 135.65 84.15 135.45 84.9 135.65
L 85.95 135.15 87.45 135.15
Q 89.7 141.35 91.05 147.9 91.55 150.4 91.6 152.95 91.65 157.4 91.7 161.75 91.7 162.6 91.4 163.3 89.55 167.5 85.4 169.6 84.2 170.15 82.95 170.5 81.15 171.2 79.1 172 71.85 174.6 64.6 177
L 64.55 177
Q 64.7 177.1 63.65 176.95 61.55 176.7 53.35 174.35 45.15 171.95 38.65 169.85 38.2 169.6 37.8 169.3 35.5 168.15 33.7 166.3
L 33.85 165.65 33.45 165.35
Q 33.25 163.9 33.05 162.45 32.8 160.95 32.3 161.35 32.05 159.8 31.5 158.25 31.4 157.95 31.4 157.7 31.05 150.1 30.1 142.65
L 34.05 135.7 36.35 135.6
Q 36.35 135.65 36.4 135.75
L 37.2 135.8 37.25 135.85 37.6 135.85 38.1 136.05 38.2 136.15
Q 38.35 137.35 38.4 138.5 38.5 143.3 38.7 148.05 38.9 151.8 39.15 155.5 39.25 156.85 39.55 158.15 39.75 158.95 40.1 159.7
L 40.45 158.3
Q 40.25 151.45 40.6 144.7 40.85 141 40.6 137.5
L 40.9 137.65
Q 40.9 137.6 40.95 137.6 41.8 138.05 42.3 138.45 43.25 139.15 43.55 139.3
L 43.95 139.45
Q 44.15 139.65 44.25 139.65 44.55 139.75 44.55 139.5 44 138.75 43.35 138.35
L 43.25 138.3
Q 42.95 138 42.55 137.65 41.6 137 40.25 136.3 39.5 135.9 38.85 135.55 38.3 135.25 37.8 135
L 37.1 134.65
Q 36.95 134.5 36.8 134.55 36.75 134.55 36.7 134.6 35.95 134.3 35.2 134.15 41.85 123 51.75 114.6 51.25 119.45 52.9 124.15
M 50.25 191.15
Q 50.3 190.95 50.3 190.75
L 52.8 189.85 56.95 193.2 54.3 196.15 55.05 196.9
Q 55.2 196.75 55.35 196.65 55.95 196.45 56.5 195.95 57.15 195.25 57.4 194.55 57.55 194.05 57.45 193.5
L 60.4 194.7
Q 59.75 196.3 59.15 197.95 58.8 198.9 59.8 199.4
L 61.4 194.9
Q 64.35 195.25 67.25 194.55 68.05 194.35 68.9 194.05 68.9 194.2 68.9 194.4 68.9 194.5 68.95 194.55 68.95 195.05 68.95 195.5 68.9 197.15 70.1 197.4
L 69.75 193.85 73.25 192.5 74.05 196.8
Q 74.15 196.8 74.15 196.75 74.55 196.25 74.5 195.6 74.45 195.05 74.4 194.55 74.25 193.3 74.1 192.1
L 76.95 191 77.65 191.45
Q 78.1 192.35 78.35 193.4 78.45 193.75 78.55 194.25 78.6 194.4 78.65 194.55 78.8 195.2 79.35 195.25
L 78.55 191.8
Q 82.75 192.55 86.65 194.55 87.95 195.2 89.2 196 89.15 196.3 89.2 196.6 89.6 199.85 90.1 203.1 90.1 203.15 90.1 203.25 89.6 207.8 90.3 212.45 91.4 219.6 91.6 226.7 91.6 227.3 91.55 227.95 91.25 231.65 90.85 235.35 75.7 235.65 60.45 235.05 46.55 234.15 33.15 230.4 33.3 229.95 33.6 229.7 33.6 229.65 33.8 229.8 33.95 229.9 34.1 229.75 34.2 229.85 34.25 229.65 34.35 229.45 34.4 229.25 34.6 228.65 34.6 227.95
L 34.95 227.7 35.25 216.75
Q 35.2 216.05 35.25 215.4 35.45 213.85 35.75 212.35 37.2 204.9 39.7 197.85 40.35 195.95 41.55 194.55 42.2 193.8 42.95 193.2
L 47.55 192.15 48.2 192.5 49.6 191.3
Q 49.7 191.3 49.8 191.3 50 191.3 50.15 191.2 50.25 191.2 50.25 191.15
M 58 187.55
Q 58.1 187.65 58.15 187.5
L 59.65 177.8
Q 62.2 178.65 65.2 178.75
L 69.85 177.2
Q 70.3 182.55 70.8 186.85 70.95 188.1 72.15 188.4
L 71.8 186.45
Q 72.15 186.9 72.45 187.35 72.75 187.85 73.15 188.2 74.3 189.35 75.6 190.3
L 73.25 190.85
Q 72.1 192.05 70.45 192.55 66.1 193.95 61.5 193.95
L 61 193.55
Q 57.9 193.75 55.1 191.2 54.25 190.4 53.5 189.5
L 57.4 187.4
Q 57.55 187.5 57.75 187.6 57.85 187.7 58 187.55
M 12 36.6
Q 11.9166015625 35.8501953125 11.75 35.3 14.2982421875 38.216796875 16.85 41.75 17.85 43.1 18.35 43.55 18.75 43.4 18.35 42.75 17.94609375 42.144140625 17.5 41.55 17.6357421875 41.66171875 17.75 41.75 18.35 42.2 18.9 42.05 18.1 41.1 17.75 39.5 17.55 38.5 17.45 36.65 17.014453125 29.7681640625 15.35 14.8 28.79375 53.4759765625 36.8 94.15 37.153515625 95.8876953125 37.4 96.95 37.473046875 98.2671875 37.8 100 38.2931640625 102.5484375 38.4 103.75 31.3185546875 106.0091796875 23.1 110.35 22.973046875 110.41796875 22.85 110.45 15.9591796875 72.9859375 12 36.6
M 19.85 78.3
Q 19.5 78.5 19.5 78.7 19.5 78.85 19.7 79.05
L 20.55 79.75
Q 20.95 80.1 21.55 81
L 23.8 84.4
Q 24.15 84.9 24.35 85 24.75 85.35 25.15 85.1
L 23.35 82.3
Q 21.7 79.9 20.85 79.2 22.8 77.95 24.8 77.1 24.75 76.7 24.35 76.5 24 76.25 23.55 76.3 22.95 76.3 22.05 76.9
L 19.85 78.3
M 58.45 224.2
Q 57.05 223.7 56.1 222.9 56.3 223.7 57.35 224.45 58.75 225.55 60.55 225.75 62.4 225.95 63.65 224.45 63.95 224.45 64.3 224.5 64.75 224.7 65.2 224.9 66.5 225.7 68.15 226 69.8 226.25 71.45 226.25 73.45 226.3 74.2 224.5
L 73.55 223.75
Q 72.4 224.65 71.05 224.75 68 225.2 65.25 223.95 64.75 223.7 64.3 223.5 64.1 223.35 63.9 223.25 63.7 223.2 63.5 223.25 62.95 223.3 62.45 223.4 62.1 223.75 61.7 223.9 60.2 224.75 58.45 224.2
M 49.8 211.75
L 49.05 212.1 49 213.2 49.3 213.6 50.8 214.65 51.15 212.8 49.8 211.75
M 44.1 199.3
Q 43.25 204.1 42.45 208.95 42.05 211.55 41.55 214.15 40.15 221.85 39.65 229.65 39.6 230.4 40.15 230.6 40.3 230.35 40.35 230.1 41.3 223.9 42.3 217.55 43.3 211.5 44.2 205.3 44.35 204.25 44.65 203.3 45.45 201 44.1 199.3
M 76.85 213.75
L 75.65 212.7 74.7 213.85
Q 75.05 214.5 75.5 215.15 76.05 216.05 77 215.6
L 76.85 213.75
M 83.2 201.3
Q 82.95 200.3 82.55 200.45 82.35 201.05 82.45 201.65 83.05 205.6 83.5 209.5 84.25 215.85 84.2 222.2 84.2 227.05 85.2 231.6 85.4 231.75 85.6 231.75 85.7 231.75 85.7 231.65 86.45 222.65 85.4 213.9 84.95 210.35 84.4 206.85 83.95 204.05 83.2 201.3
M 66.35 195.45
L 66 195.05
Q 65.75 195 65.75 195.05 65.5 196.75 65.5 198.5
L 66.35 199.05 66.35 195.45
M 53.65 194.55
L 53.65 194.5 53.85 193.85 55.15 192.8 54.4 192.15 52 194.95 52.8 195.7 53.65 194.55
M 52.25 191.25
L 51.7 191.15 51.7 191.6
Q 51.45 191.6 51.3 192.1 51.25 192.35 51.05 192.5 49.6 193.25 50.55 194.05
L 51.8 193.65 52.25 191.25
M 86.65 165.85
Q 89 163.95 89.65 162.7
L 88.85 161.9
Q 88.3 162.25 87.7 162.95
L 85.75 164.95 86.65 165.85
M 86.1 163
Q 86.45 162.75 86.45 162.4 86.3 162.35 86.05 162.05 85.8 161.8 85.6 161.75 85.5 161.7 85.25 161.8 84.65 162.05 84 162.6
L 82.2 164.05
Q 82.05 164.2 82.05 164.3
L 82.15 164.5 82.75 165.15 82.95 165.25 83.1 165.2 84.5 164.15
Q 85.1 163.55 85.5 163.35
L 86.1 163
M 80 164.25
Q 80.15 164.25 80.45 164.05
L 81.75 163.15
Q 82.55 162.6 82.7 162.4 82.8 162.2 82.75 162.1 82.6 162 82.5 161.9 82.3 161.55 82.15 161.45 81.95 161.35 81.55 161.6
L 81 161.95
Q 79.95 162.65 79.05 163.45 79.15 163.5 79.5 163.9 79.75 164.2 80 164.25
M 70.75 166
Q 70.45 166 70.35 166.25
L 70.35 166.5
Q 70.35 167.7 69 168.2 68.45 168.35 67.8 168.25
L 66.6 167.85
Q 64.95 167.35 63.05 167.5
L 60.95 167.95
Q 59.7 168.2 58.85 168.1 57.9 168 57.7 167.4
L 57.6 166.95
Q 57.55 166.8 57.2 166.3 56.95 166.05 56.8 166.1 56.65 166.1 56.55 166.4 56.45 166.95 57.1 167.7 57.6 168.3 57.9 168.55 58.3 169.05 58.65 169.15 58.75 169.2 59.45 169.35
L 61.05 169.3 61.95 169.1
Q 65 168.45 67.1 169.1 68.2 169.45 68.5 169.5 69.5 169.6 70.4 169 71.3 168.4 71.5 167.45 71.6 167.1 71.55 166.9 71.45 166.7 71.15 166.45 70.85 166.15 70.75 166
M 39.7 166.25
Q 39.8 166.4 39.9 166.4 40.1 166.4 40.2 166.2 40.6 165.65 41.75 165 42.95 164.3 43.35 163.85 42.9 163.15 42.5 163.1 42.25 163.1 42 163.25 39.75 164.45 39.05 165.6
L 39.7 166.25
M 36.3 164.6
L 36.45 164.8 37.15 165.45 38.55 164.65
Q 40.15 163.75 40.8 163.15
L 39.95 162.25 37.8 163.5
Q 37.15 163.85 36.45 164.35 36.4 164.45 36.3 164.6
M 37.45 161.45
L 36.75 161.8
Q 35.85 162.3 35.55 162.55
L 35 163.1
Q 34.35 163.5 34.25 163.65
L 34.85 164.25
Q 34.95 164.4 35.1 164.4
L 35.3 164.35 36.8 163.35
Q 38.15 162.4 38.3 162.25
L 37.45 161.45
M 106.3 54.6
Q 105.9 54.6 105.8 55.05
L 107.75 57.8
Q 104.15 59.05 103.1 60.65 103.35 61.2 103.95 61.45 104.65 60.4 106.25 59.8 108.3 59 108.9 58.65 109.2 58.45 109.2 58.25 109.2 58 108.9 57.8 107.35 56.6 106.3 54.6 Z"/>

<path fill="#FFFFFF" stroke="none" d="
M 11.75 35.3
Q 11.9166015625 35.8501953125 12 36.6 15.9591796875 72.9859375 22.85 110.45 22.973046875 110.41796875 23.1 110.35 31.3185546875 106.0091796875 38.4 103.75 38.2931640625 102.5484375 37.8 100 37.473046875 98.2671875 37.4 96.95 37.153515625 95.8876953125 36.8 94.15 28.79375 53.4759765625 15.35 14.8 17.014453125 29.7681640625 17.45 36.65 17.55 38.5 17.75 39.5 18.1 41.1 18.9 42.05 18.35 42.2 17.75 41.75 17.6357421875 41.66171875 17.5 41.55 17.94609375 42.144140625 18.35 42.75 18.75 43.4 18.35 43.55 17.85 43.1 16.85 41.75 14.2982421875 38.216796875 11.75 35.3
M 19.5 78.7
Q 19.5 78.5 19.85 78.3
L 22.05 76.9
Q 22.95 76.3 23.55 76.3 24 76.25 24.35 76.5 24.75 76.7 24.8 77.1 22.8 77.95 20.85 79.2 21.7 79.9 23.35 82.3
L 25.15 85.1
Q 24.75 85.35 24.35 85 24.15 84.9 23.8 84.4
L 21.55 81
Q 20.95 80.1 20.55 79.75
L 19.7 79.05
Q 19.5 78.85 19.5 78.7
M 58.15 187.5
Q 58.1 187.65 58 187.55 57.85 187.7 57.75 187.6 57.55 187.5 57.4 187.4
L 53.5 189.5
Q 54.25 190.4 55.1 191.2 57.9 193.75 61 193.55
L 61.5 193.95
Q 66.1 193.95 70.45 192.55 72.1 192.05 73.25 190.85
L 75.6 190.3
Q 74.3 189.35 73.15 188.2 72.75 187.85 72.45 187.35 72.15 186.9 71.8 186.45
L 72.15 188.4
Q 70.95 188.1 70.8 186.85 70.3 182.55 69.85 177.2
L 65.2 178.75
Q 62.2 178.65 59.65 177.8
L 58.15 187.5
M 50.3 190.75
Q 50.3 190.95 50.25 191.15 50.25 191.2 50.15 191.2 50 191.3 49.8 191.3 49.7 191.3 49.6 191.3
L 48.2 192.5 47.55 192.15 42.95 193.2
Q 42.2 193.8 41.55 194.55 40.35 195.95 39.7 197.85 37.2 204.9 35.75 212.35 35.45 213.85 35.25 215.4 35.2 216.05 35.25 216.75
L 34.95 227.7 34.6 227.95
Q 34.6 228.65 34.4 229.25 34.35 229.45 34.25 229.65 34.2 229.85 34.1 229.75 33.95 229.9 33.8 229.8 33.6 229.65 33.6 229.7 33.3 229.95 33.15 230.4 46.55 234.15 60.45 235.05 75.7 235.65 90.85 235.35 91.25 231.65 91.55 227.95 91.6 227.3 91.6 226.7 91.4 219.6 90.3 212.45 89.6 207.8 90.1 203.25 90.1 203.15 90.1 203.1 89.6 199.85 89.2 196.6 89.15 196.3 89.2 196 87.95 195.2 86.65 194.55 82.75 192.55 78.55 191.8
L 79.35 195.25
Q 78.8 195.2 78.65 194.55 78.6 194.4 78.55 194.25 78.45 193.75 78.35 193.4 78.1 192.35 77.65 191.45
L 76.95 191 74.1 192.1
Q 74.25 193.3 74.4 194.55 74.45 195.05 74.5 195.6 74.55 196.25 74.15 196.75 74.15 196.8 74.05 196.8
L 73.25 192.5 69.75 193.85 70.1 197.4
Q 68.9 197.15 68.95 195.5 68.95 195.05 68.95 194.55 68.9 194.5 68.9 194.4 68.9 194.2 68.9 194.05 68.05 194.35 67.25 194.55 64.35 195.25 61.4 194.9
L 59.8 199.4
Q 58.8 198.9 59.15 197.95 59.75 196.3 60.4 194.7
L 57.45 193.5
Q 57.55 194.05 57.4 194.55 57.15 195.25 56.5 195.95 55.95 196.45 55.35 196.65 55.2 196.75 55.05 196.9
L 54.3 196.15 56.95 193.2 52.8 189.85 50.3 190.75
M 51.7 191.15
L 52.25 191.25 51.8 193.65 50.55 194.05
Q 49.6 193.25 51.05 192.5 51.25 192.35 51.3 192.1 51.45 191.6 51.7 191.6
L 51.7 191.15
M 53.65 194.5
L 53.65 194.55 52.8 195.7 52 194.95 54.4 192.15 55.15 192.8 53.85 193.85 53.65 194.5
M 66 195.05
L 66.35 195.45 66.35 199.05 65.5 198.5
Q 65.5 196.75 65.75 195.05 65.75 195 66 195.05
M 82.55 200.45
Q 82.95 200.3 83.2 201.3 83.95 204.05 84.4 206.85 84.95 210.35 85.4 213.9 86.45 222.65 85.7 231.65 85.7 231.75 85.6 231.75 85.4 231.75 85.2 231.6 84.2 227.05 84.2 222.2 84.25 215.85 83.5 209.5 83.05 205.6 82.45 201.65 82.35 201.05 82.55 200.45
M 75.65 212.7
L 76.85 213.75 77 215.6
Q 76.05 216.05 75.5 215.15 75.05 214.5 74.7 213.85
L 75.65 212.7
M 42.45 208.95
Q 43.25 204.1 44.1 199.3 45.45 201 44.65 203.3 44.35 204.25 44.2 205.3 43.3 211.5 42.3 217.55 41.3 223.9 40.35 230.1 40.3 230.35 40.15 230.6 39.6 230.4 39.65 229.65 40.15 221.85 41.55 214.15 42.05 211.55 42.45 208.95
M 49.05 212.1
L 49.8 211.75 51.15 212.8 50.8 214.65 49.3 213.6 49 213.2 49.05 212.1
M 56.1 222.9
Q 57.05 223.7 58.45 224.2 60.2 224.75 61.7 223.9 62.1 223.75 62.45 223.4 62.95 223.3 63.5 223.25 63.7 223.2 63.9 223.25 64.1 223.35 64.3 223.5 64.75 223.7 65.25 223.95 68 225.2 71.05 224.75 72.4 224.65 73.55 223.75
L 74.2 224.5
Q 73.45 226.3 71.45 226.25 69.8 226.25 68.15 226 66.5 225.7 65.2 224.9 64.75 224.7 64.3 224.5 63.95 224.45 63.65 224.45 62.4 225.95 60.55 225.75 58.75 225.55 57.35 224.45 56.3 223.7 56.1 222.9
M 56.05 131.25
Q 54.15 127.7 52.9 124.15 51.25 119.45 51.75 114.6 41.85 123 35.2 134.15 35.95 134.3 36.7 134.6 36.75 134.55 36.8 134.55 36.95 134.5 37.1 134.65
L 37.8 135
Q 38.3 135.25 38.85 135.55 39.5 135.9 40.25 136.3 41.6 137 42.55 137.65 42.95 138 43.25 138.3
L 43.35 138.35
Q 44 138.75 44.55 139.5 44.55 139.75 44.25 139.65 44.15 139.65 43.95 139.45
L 43.55 139.3
Q 43.25 139.15 42.3 138.45 41.8 138.05 40.95 137.6 40.9 137.6 40.9 137.65
L 40.6 137.5
Q 40.85 141 40.6 144.7 40.25 151.45 40.45 158.3
L 40.1 159.7
Q 39.75 158.95 39.55 158.15 39.25 156.85 39.15 155.5 38.9 151.8 38.7 148.05 38.5 143.3 38.4 138.5 38.35 137.35 38.2 136.15
L 38.1 136.05 37.6 135.85 37.25 135.85 37.2 135.8 36.4 135.75
Q 36.35 135.65 36.35 135.6
L 34.05 135.7 30.1 142.65
Q 31.05 150.1 31.4 157.7 31.4 157.95 31.5 158.25 32.05 159.8 32.3 161.35 32.8 160.95 33.05 162.45 33.25 163.9 33.45 165.35
L 33.85 165.65 33.7 166.3
Q 35.5 168.15 37.8 169.3 38.2 169.6 38.65 169.85 45.15 171.95 53.35 174.35 61.55 176.7 63.65 176.95 64.7 177.1 64.55 177
L 64.6 177
Q 71.85 174.6 79.1 172 81.15 171.2 82.95 170.5 84.2 170.15 85.4 169.6 89.55 167.5 91.4 163.3 91.7 162.6 91.7 161.75 91.65 157.4 91.6 152.95 91.55 150.4 91.05 147.9 89.7 141.35 87.45 135.15
L 85.95 135.15 84.9 135.65
Q 84.15 135.45 83.4 135.65 83.1 135.7 82.8 135.8 82.95 135.8 83.05 135.85
L 83 135.85 83 158.7
Q 82.9 158.65 82.8 158.65
L 82.05 155.3
Q 81.95 152.75 81.4 150.2 81.2 149.15 81.15 148.1 80.85 142.7 80.15 137.15
L 77.6 138.75 77 140.65
Q 76.95 140.75 76.9 140.85 76.85 140.85 76.8 140.85 76.7 140.85 76.65 140.8
L 70.25 151.85
Q 69.3 149.7 68.6 147.65 67.95 145.65 66.65 144.05 64.25 141.2 61.65 138.75 58.25 135.45 56.05 131.25
M 36.75 161.8
L 37.45 161.45 38.3 162.25
Q 38.15 162.4 36.8 163.35
L 35.3 164.35 35.1 164.4
Q 34.95 164.4 34.85 164.25
L 34.25 163.65
Q 34.35 163.5 35 163.1
L 35.55 162.55
Q 35.85 162.3 36.75 161.8
M 36.45 164.8
L 36.3 164.6
Q 36.4 164.45 36.45 164.35 37.15 163.85 37.8 163.5
L 39.95 162.25 40.8 163.15
Q 40.15 163.75 38.55 164.65
L 37.15 165.45 36.45 164.8
M 39.9 166.4
Q 39.8 166.4 39.7 166.25
L 39.05 165.6
Q 39.75 164.45 42 163.25 42.25 163.1 42.5 163.1 42.9 163.15 43.35 163.85 42.95 164.3 41.75 165 40.6 165.65 40.2 166.2 40.1 166.4 39.9 166.4
M 70.35 166.25
Q 70.45 166 70.75 166 70.85 166.15 71.15 166.45 71.45 166.7 71.55 166.9 71.6 167.1 71.5 167.45 71.3 168.4 70.4 169 69.5 169.6 68.5 169.5 68.2 169.45 67.1 169.1 65 168.45 61.95 169.1
L 61.05 169.3 59.45 169.35
Q 58.75 169.2 58.65 169.15 58.3 169.05 57.9 168.55 57.6 168.3 57.1 167.7 56.45 166.95 56.55 166.4 56.65 166.1 56.8 166.1 56.95 166.05 57.2 166.3 57.55 166.8 57.6 166.95
L 57.7 167.4
Q 57.9 168 58.85 168.1 59.7 168.2 60.95 167.95
L 63.05 167.5
Q 64.95 167.35 66.6 167.85
L 67.8 168.25
Q 68.45 168.35 69 168.2 70.35 167.7 70.35 166.5
L 70.35 166.25
M 80.45 164.05
Q 80.15 164.25 80 164.25 79.75 164.2 79.5 163.9 79.15 163.5 79.05 163.45 79.95 162.65 81 161.95
L 81.55 161.6
Q 81.95 161.35 82.15 161.45 82.3 161.55 82.5 161.9 82.6 162 82.75 162.1 82.8 162.2 82.7 162.4 82.55 162.6 81.75 163.15
L 80.45 164.05
M 86.45 162.4
Q 86.45 162.75 86.1 163
L 85.5 163.35
Q 85.1 163.55 84.5 164.15
L 83.1 165.2 82.95 165.25 82.75 165.15 82.15 164.5 82.05 164.3
Q 82.05 164.2 82.2 164.05
L 84 162.6
Q 84.65 162.05 85.25 161.8 85.5 161.7 85.6 161.75 85.8 161.8 86.05 162.05 86.3 162.35 86.45 162.4
M 89.65 162.7
Q 89 163.95 86.65 165.85
L 85.75 164.95 87.7 162.95
Q 88.3 162.25 88.85 161.9
L 89.65 162.7
M 76.15 117.95
Q 76.7 118.7 77.1 119.6 78.7 123.05 79.05 126.75 79.5 131.45 78.4 136.05
L 78.45 136.1 81.8 134.75 85.3 133.9 86.65 133.9 75.8 117.1
Q 75.3 116.85 76.15 117.95
M 114.25 44.6
Q 117.1095703125 29.053515625 119.25 12.9 115.6845703125 24.584765625 110.65 38.6 107.35 47.9 100.4 66.35 95.35 79.7 93.05 85.55 89.15859375 95.463671875 85.7 103.3 88.725 104.6732421875 91.8 106.45 95.1 108.3 99.2 111.25 99.98125 111.866796875 100.8 112.5
L 110.15 65.75
Q 112.95 51.65 114.25 44.6
M 105.8 55.05
Q 105.9 54.6 106.3 54.6 107.35 56.6 108.9 57.8 109.2 58 109.2 58.25 109.2 58.45 108.9 58.65 108.3 59 106.25 59.8 104.65 60.4 103.95 61.45 103.35 61.2 103.1 60.65 104.15 59.05 107.75 57.8
L 105.8 55.05 Z"/>
</g>

<g id="Layer0_0_FILL">
<path fill="#000000" stroke="none" d="
M 128.25 136
L 128.25 -0.3 -8 -0.3 -8 136 128.25 136
M 120 120
L 8 120 8 8 120 8 120 120 Z"/>
</g>
</defs>

<g transform="matrix( 1, 0, 0, 1, 0,0) ">
<use xlink:href="#Layer1_0_FILL"/>
</g>

<g transform="matrix( 1, 0, 0, 1, 0,64) ">
<use xlink:href="#Layer0_0_FILL"/>
</g>
</svg>
