
<svg xmlns="http://www.w3.org/2000/svg" version="1.1" xmlns:xlink="http://www.w3.org/1999/xlink" preserveAspectRatio="none" x="0px" y="0px" width="16px" height="16px" viewBox="0 0 16 16">
<defs>
<g id="Layer1_0_FILL">
<path fill="#000000" stroke="none" d="
M 16 1
L 15 1 15 0 1 0 1 1 0 1 0 15 1 15 1 16 15 16 15 15 16 15 16 1 Z"/>
</g>

<g id="Layer0_0_FILL">
<path fill="#FFFFFF" stroke="none" d="
M 11 10
L 11 9 12 9 12 4 11 4 11 3 4 3 4 13 6 13 6 10 11 10
M 10 5
L 10 8 6 8 6 5 10 5 Z"/>
</g>
</defs>

<g transform="matrix( 1, 0, 0, 1, 0,0) ">
<use xlink:href="#Layer1_0_FILL"/>
</g>

<g transform="matrix( 1, 0, 0, 1, 0,0) ">
<use xlink:href="#Layer0_0_FILL"/>
</g>
</svg>
