<svg xmlns:xlink="http://www.w3.org/1999/xlink" xmlns="http://www.w3.org/2000/svg" version="1.1"
     preserveAspectRatio="none" x="0px" y="0px" width="16px" height="16px" viewBox="0 0 16 16">
    <defs>
        <g id="Layer0_0_FILL">
            <path fill="#000000" stroke="none" d="
M 16 0
L 0 0 0 16 16 16 16 0
M 14 3
L 13 3 13 4 12 4 12 5 13 5 13 6 14 6 14 7 13 7 13 6 12 6 12 5 11 5 11 6 10 6 10 7 9 7 9 6 10 6 10 5 11 5 11 4 10 4 10 3 9 3 9 2 10 2 10 3 11 3 11 4 12 4 12 3 13 3 13 2 14 2 14 3
M 7 2
L 7 5 3 5 3 7 2 7 2 2 7 2
M 2 9
L 3 9 3 13 7 13 7 14 2 14 2 9
M 10 14
L 9 14 9 9 14 9 14 14 13 14 13 13 10 13 10 14
M 13 12
L 13 10 10 10 10 12 13 12
M 6 4
L 6 3 3 3 3 4 6 4 Z"/>

            <path fill="#FFFFFF" stroke="none" d="
M 9 14
L 10 14 10 13 13 13 13 14 14 14 14 9 9 9 9 14
M 13 10
L 13 12 10 12 10 10 13 10
M 3 9
L 2 9 2 14 7 14 7 13 3 13 3 9
M 7 5
L 7 2 2 2 2 7 3 7 3 5 7 5
M 6 3
L 6 4 3 4 3 3 6 3
M 10 6
L 9 6 9 7 10 7 10 6
M 10 3
L 10 2 9 2 9 3 10 3
M 11 4
L 11 3 10 3 10 4 11 4
M 13 3
L 12 3 12 4 13 4 13 3
M 14 6
L 13 6 13 7 14 7 14 6
M 12 4
L 11 4 11 5 12 5 12 4
M 12 5
L 12 6 13 6 13 5 12 5
M 11 6
L 11 5 10 5 10 6 11 6
M 13 3
L 14 3 14 2 13 2 13 3 Z"/>
        </g>
    </defs>

    <g transform="matrix( 1, 0, 0, 1, 0,0) ">
        <use xlink:href="#Layer0_0_FILL"/>
    </g>
</svg>
