<svg xmlns:xlink="http://www.w3.org/1999/xlink" xmlns="http://www.w3.org/2000/svg" version="1.1"
     preserveAspectRatio="none" x="0px" y="0px" width="32px" height="32px" viewBox="0 0 32 32">
    <defs>
        <g id="Layer0_0_FILL">
            <path fill="#000000" stroke="none" d="
M 29 6
L 27 6 27 4 17 4 17 6 15 6 15 18 9 18 9 20 7 20 7 18 3 18 3 22 5 22 5 24 7 24 7 26 9 26 9 28 15 28 15 26 17 26 17 20 19 20 19 18 27 18 27 16 29 16 29 6
M 25 8
L 27 8 27 14 25 14 25 16 19 16 19 14 17 14 17 8 19 8 19 6 25 6 25 8
M 25 14
L 25 8 19 8 19 14 25 14 Z"/>
        </g>
    </defs>

    <g transform="matrix( 1, 0, 0, 1, 0,0) ">
        <use xlink:href="#Layer0_0_FILL"/>
    </g>
</svg>
