<svg xmlns:xlink="http://www.w3.org/1999/xlink" xmlns="http://www.w3.org/2000/svg" version="1.1"
     preserveAspectRatio="none" x="0px" y="0px" width="32px" height="32px" viewBox="0 0 32 32">
    <defs>
        <g id="Layer0_0_FILL">
            <path fill="#000000" stroke="none" d="
M 28 24
L 28 2 4 2 4 24 12 24 12 30 14 30 14 28 16 28 16 26 18 26 18 24 28 24
M 26 4
L 26 20 8 20 8 4 26 4
M 22 16
L 22 8 20 8 20 16 22 16
M 16 8
L 14 8 14 16 16 16 16 8 Z"/>
        </g>
    </defs>

    <g transform="matrix( 1, 0, 0, 1, 0,0) ">
        <use xlink:href="#Layer0_0_FILL"/>
    </g>
</svg>
