
<svg xmlns="http://www.w3.org/2000/svg" version="1.1" xmlns:xlink="http://www.w3.org/1999/xlink" preserveAspectRatio="none" x="0px" y="0px" width="16px" height="16px" viewBox="0 0 16 16">
<defs>
<g id="Layer0_0_FILL">
<path fill="#000000" stroke="none" d="
M 16 4
L 16 3 13 3 13 2 9 2 9 3 8 3 8 4 7 4 7 6 5 6 5 5 3 5 3 4 2 4 2 3 0 3 0 5 1 5 1 6 2 6 2 7 0 7 0 8 1 8 1 9 2 9 2 10 1 10 1 11 3 11 3 12 4 12 4 13 1 13 1 14 2 14 2 15 8 15 8 14 10 14 10 13 11 13 11 12 12 12 12 11 13 11 13 9 14 9 14 5 15 5 15 4 16 4 Z"/>
</g>
</defs>

<g transform="matrix( 1, 0, 0, 1, 0,0) ">
<use xlink:href="#Layer0_0_FILL"/>
</g>
</svg>
