
<svg xmlns="http://www.w3.org/2000/svg" version="1.1" xmlns:xlink="http://www.w3.org/1999/xlink" preserveAspectRatio="none" x="0px" y="0px" width="16px" height="16px" viewBox="0 0 16 16">
<defs>
<g id="Layer0_0_FILL">
<path fill="#000000" stroke="none" d="
M 15 5
L 15 1 11 1 11 3 9 3 9 5 7 5 7 3 5 3 5 1 1 1 1 5 3 5 3 7 5 7 5 9 3 9 3 11 1 11 1 15 5 15 5 13 7 13 7 11 9 11 9 13 11 13 11 15 15 15 15 11 13 11 13 9 11 9 11 7 13 7 13 5 15 5 Z"/>
</g>
</defs>

<g transform="matrix( 1, 0, 0, 1, 0,0) ">
<use xlink:href="#Layer0_0_FILL"/>
</g>
</svg>
