<svg xmlns:xlink="http://www.w3.org/1999/xlink" xmlns="http://www.w3.org/2000/svg" version="1.1"
     preserveAspectRatio="none" x="0px" y="0px" width="10px" height="10px" viewBox="0 0 10 10">
    <defs>
        <g id="Layer0_0_FILL">
            <path fill="#000000" stroke="none" d="
M 10 0
L 0 0 0 10 10 10 10 0
M 9 9
L 1 9 1 1 9 1 9 9
M 8 3
L 7 3 7 5 6 5 6 4 5 4 5 3 4 3 4 2 2 2 2 4 3 4 3 5 4 5 4 6 5 6 5 7 3 7 3 8 8 8 8 3 Z"/>
        </g>
    </defs>

    <g transform="matrix( 1, 0, 0, 1, 0,0) ">
        <use xlink:href="#Layer0_0_FILL"/>
    </g>
</svg>
