<svg xmlns:xlink="http://www.w3.org/1999/xlink" xmlns="http://www.w3.org/2000/svg" version="1.1"
     preserveAspectRatio="none" x="0px" y="0px" width="16px" height="16px" viewBox="0 0 16 16">
    <defs>
        <g id="Layer0_0_FILL">
            <path fill="#000000" stroke="none" d="
M 2 12
L 1 12 1 14 2 14 2 15 4 15 4 14 5 14 5 12 4 12 4 11 2 11 2 12
M 7 11
L 6 11 6 13 7 13 7 11
M 5 10
L 5 11 6 11 6 10 5 10
M 5 9
L 3 9 3 10 5 10 5 9
M 10 2
L 9 2 9 1 7 1 7 2 6 2 6 4 7 4 7 5 9 5 9 4 10 4 10 2
M 12 12
L 11 12 11 14 12 14 12 15 14 15 14 14 15 14 15 12 14 12 14 11 12 11 12 12
M 10 11
L 9 11 9 13 10 13 10 11
M 11 10
L 13 10 13 9 11 9 11 10
M 11 11
L 11 10 10 10 10 11 11 11
M 5 5
L 5 4 4 4 4 5 5 5
M 10 6
L 6 6 6 7 10 7 10 6
M 6 6
L 6 5 5 5 5 6 6 6
M 11 6
L 11 5 10 5 10 6 11 6
M 11 4
L 11 5 12 5 12 4 11 4 Z"/>
        </g>
    </defs>

    <g transform="matrix( 1, 0, 0, 1, 0,0) ">
        <use xlink:href="#Layer0_0_FILL"/>
    </g>
</svg>
