
<svg xmlns="http://www.w3.org/2000/svg" version="1.1" xmlns:xlink="http://www.w3.org/1999/xlink" preserveAspectRatio="none" x="0px" y="0px" width="128px" height="79px" viewBox="0 0 128 79">
<defs>
<g id="Layer0_0_FILL">
<path fill="#000000" stroke="none" d="
M 72 74
L 67 74 67 79 72 79 72 74
M 71 75
L 71 78 68 78 68 75 71 75
M 78 74
L 77 74 77 78 74 78 74 74 73 74 73 79 78 79 78 74
M 66 74
L 65 74 65 76 62 76 62 74 61 74 61 77 63 77 63 79 64 79 64 77 66 77 66 74
M 60 12
L 60 10 56 10 56 8 48 8 48 10 42 10 42 8 38 8 38 10 32 10 32 12 26 12 26 14 24 14 24 16 16 16 16 18 10 18 10 20 12 20 12 22 16 22 16 24 20 24 20 28 24 28 24 36 26 36 26 38 28 38 28 40 30 40 30 42 32 42 32 44 36 44 36 46 38 46 38 48 36 48 36 52 38 52 38 54 40 54 40 62 38 62 38 72 40 72 40 70 42 70 42 66 44 66 44 64 46 64 46 62 48 62 48 58 50 58 50 56 52 56 52 52 54 52 54 50 50 50 50 48 46 48 46 46 44 46 44 44 38 44 38 42 36 42 36 40 34 40 34 38 40 38 40 34 42 34 42 30 44 30 44 28 46 28 46 24 44 24 44 22 40 22 40 24 34 24 34 22 36 22 36 20 38 20 38 18 42 18 42 16 40 16 40 14 44 14 44 16 46 16 46 20 48 20 48 24 50 24 50 22 52 22 52 20 56 20 56 18 58 18 58 12 60 12
M 128 74
L 123 74 123 79 128 79 128 78 124 78 124 77 127 77 127 76 124 76 124 75 128 75 128 74
M 121 78
L 121 79 122 79 122 78 121 78
M 117 79
L 118 79 118 77 120 77 120 78 121 78 121 77 122 77 122 74 117 74 117 79
M 121 75
L 121 76 118 76 118 75 121 75
M 100 74
L 95 74 95 79 100 79 100 78 96 78 96 77 99 77 99 76 96 76 96 75 100 75 100 74
M 93 78
L 93 79 94 79 94 78 93 78
M 94 74
L 89 74 89 79 90 79 90 77 92 77 92 78 93 78 93 77 94 77 94 74
M 93 75
L 93 76 90 76 90 75 93 75
M 88 74
L 83 74 83 79 84 79 84 78 87 78 87 79 88 79 88 74
M 87 75
L 87 77 84 77 84 75 87 75
M 116 74
L 111 74 111 79 116 79 116 78 112 78 112 77 115 77 115 76 112 76 112 75 116 75 116 74
M 118 64
L 118 70 120 70 120 68 122 68 122 64 118 64
M 106 74
L 105 74 105 79 106 79 106 77 109 77 109 79 110 79 110 74 109 74 109 76 106 76 106 74
M 116 58
L 114 58 114 56 112 56 112 54 106 54 106 56 102 56 102 58 100 58 100 64 102 64 102 66 106 66 106 64 108 64 108 66 110 66 110 68 114 68 114 62 116 62 116 58
M 110 48
L 106 48 106 50 108 50 108 52 112 52 112 50 110 50 110 48
M 96 1
L 96 0 95 0 95 1 96 1
M 98 1
L 98 0 97 0 97 1 98 1
M 96 5
L 95 5 95 6 96 6 96 5
M 98 3
L 98 2 94 2 94 1 93 1 93 4 94 4 94 3 96 3 96 5 97 5 97 3 98 3
M 103 5
L 104 5 104 3 103 3 103 5
M 103 6
L 103 5 99 5 99 6 103 6
M 102 3
L 102 2 99 2 99 3 102 3
M 108 5
L 108 6 109 6 109 5 108 5
M 109 1
L 109 0 108 0 108 1 109 1
M 110 1
L 109 1 109 2 107 2 107 1 106 1 106 2 105 2 105 3 106 3 106 4 107 4 107 3 109 3 109 5 110 5 110 3 111 3 111 2 110 2 110 1
M 111 1
L 111 0 110 0 110 1 111 1
M 117 2
L 117 1 114 1 114 2 112 2 112 3 114 3 114 6 115 6 115 2 117 2
M 74 12
L 74 8 70 8 70 10 68 10 68 12 70 12 70 14 72 14 72 12 74 12
M 86 8
L 82 8 82 10 78 10 78 12 86 12 86 8
M 126 18
L 128 18 128 16 114 16 114 14 110 14 110 12 106 12 106 14 104 14 104 12 102 12 102 14 100 14 100 12 98 12 98 10 96 10 96 8 94 8 94 12 96 12 96 14 94 14 94 12 92 12 92 14 88 14 88 12 86 12 86 14 82 14 82 18 78 18 78 16 76 16 76 14 72 14 72 16 70 16 70 18 68 18 68 20 66 20 66 24 64 24 64 22 62 22 62 24 60 24 60 28 64 28 64 30 62 30 62 36 60 36 60 38 58 38 58 44 60 44 60 46 62 46 62 48 68 48 68 56 70 56 70 66 72 66 72 64 74 64 74 62 76 62 76 56 78 56 78 48 80 48 80 46 82 46 82 42 84 42 84 40 88 40 88 44 90 44 90 48 92 48 92 42 96 42 96 48 98 48 98 52 100 52 100 50 104 50 104 46 102 46 102 48 100 48 100 40 104 40 104 34 106 34 106 32 108 32 108 36 110 36 110 34 112 34 112 26 110 26 110 24 114 24 114 28 116 28 116 26 118 26 118 22 124 22 124 20 126 20 126 18
M 74 22
L 80 22 80 24 78 24 78 26 80 26 80 28 78 28 78 26 76 26 76 28 74 28 74 22
M 72 32
L 72 34 76 34 76 36 70 36 70 34 66 34 66 32 72 32
M 119 6
L 120 6 120 5 119 5 119 6
M 123 4
L 123 3 121 3 121 2 123 2 123 1 118 1 118 2 120 2 120 3 118 3 118 4 120 4 120 5 121 5 121 4 123 4
M 128 6
L 128 5 126 5 126 4 125 4 125 2 124 2 124 6 128 6
M 127 1
L 127 3 128 3 128 1 127 1
M 127 4
L 127 3 126 3 126 4 127 4 Z"/>

<path fill="#FFFFFF" stroke="none" d="
M 78 26
L 78 28 80 28 80 26 78 26
M 80 22
L 74 22 74 28 76 28 76 26 78 26 78 24 80 24 80 22 Z"/>
</g>
</defs>

<g transform="matrix( 1, 0, 0, 1, 0,0) ">
<use xlink:href="#Layer0_0_FILL"/>
</g>
</svg>
